<svg xmlns="http://www.w3.org/2000/svg" xmlns:xlink="http://www.w3.org/1999/xlink" viewBox="0 0 400 400"><defs><style>.cls-1,.cls-2{fill:none;}.cls-2,.cls-3,.cls-4{clip-rule:evenodd;}.cls-15,.cls-17,.cls-3{fill:#fca664;}.cls-18,.cls-20,.cls-4{fill:#ffddba;}.cls-5{clip-path:url(#clip-path);}.cls-6{fill:#453f6b;}.cls-7{fill:#00a5ff;}.cls-8{fill:#5cc5ff;}.cls-9{fill:#016aa3;}.cls-10{fill:#ff5f00;}.cls-11{fill:#eb001b;}.cls-12{fill:#f79e1b;}.cls-13{clip-path:url(#clip-path-2);}.cls-14{clip-path:url(#clip-path-3);}.cls-15,.cls-18{fill-rule:evenodd;}.cls-16{clip-path:url(#clip-path-4);}.cls-19{clip-path:url(#clip-path-5);}</style><clipPath id="clip-path"><ellipse class="cls-1" cx="156.79" cy="-148.21" rx="4.8" ry="4.8" transform="translate(146.96 67.32) rotate(-44)"/></clipPath><clipPath id="clip-path-2"><path class="cls-2" d="M959.25,160.69a4.71,4.71,0,0,1,6.47,1.49l60.47,96.63a4.67,4.67,0,0,1-1.5,6.45l-58.55,36.38a4.71,4.71,0,0,1-6.47-1.49L899.2,203.52a4.67,4.67,0,0,1,1.5-6.45Z"/></clipPath><clipPath id="clip-path-3"><path class="cls-2" d="M948,181.1a2.69,2.69,0,0,1,3.7.85l6,9.63a2.67,2.67,0,0,1-.86,3.68L949.17,200a2.69,2.69,0,0,1-3.7-.85l-6-9.63a2.67,2.67,0,0,1,.86-3.68Z"/></clipPath><clipPath id="clip-path-4"><path class="cls-3" d="M964.34,283.38A8.48,8.48,0,1,1,967,271.74a8.49,8.49,0,0,1-2.67,11.64"/></clipPath><clipPath id="clip-path-5"><path class="cls-4" d="M973,281.39a8.5,8.5,0,0,0-4.88-3.67,8.66,8.66,0,0,0-1.21-.25l.91,1.45a8.62,8.62,0,0,1-.42,1l-1.6-2.55a8.48,8.48,0,0,0-1,.06l2.11,3.38a8.35,8.35,0,0,1-.57.78l-2.49-4a8.36,8.36,0,0,0-.89.26l2.76,4.4a8.46,8.46,0,0,1-3.93,2.15l-2.49-4a8.43,8.43,0,0,0-.57.78l2.11,3.38a8.46,8.46,0,0,1-1,.06l-1.59-2.55a8.49,8.49,0,0,0-.42,1l.91,1.45a8.52,8.52,0,0,1-1.21-.25,8.46,8.46,0,1,0,15.5-2.93"/></clipPath></defs><title>botte_di_ferro</title><g id="botte_di_ferro"><rect class="cls-1" x="188.57" y="259.9" width="173.97" height="142.7"/><path class="cls-6" d="M90,155.77a9.51,9.51,0,0,1-9.49-9.47l-.33-56.07c-.25-42.06,33.64-76.48,75.54-76.73h.46c41.7,0,75.74,33.92,76,75.82l.29,49.14A9.51,9.51,0,0,1,223,148H223a9.51,9.51,0,0,1-9.49-9.47l-.29-49.14a57.18,57.18,0,0,0-57-56.88h-.34A57.19,57.19,0,0,0,99.17,90.12l.33,56.07a9.51,9.51,0,0,1-9.43,9.58Z"/><rect class="cls-7" x="29.13" y="141.11" width="211.93" height="212.73" transform="translate(-1.48 0.81) rotate(-0.34)"/><path class="cls-7" d="M29.76,355a.5.5,0,0,1-.5-.5L28,141.75a.5.5,0,0,1,.5-.5L240.43,140a.59.59,0,0,1,.35.14.5.5,0,0,1,.15.35L242.2,353.2a.5.5,0,0,1-.5.5L29.77,355ZM29,142.24,30.26,354l210.93-1.26L239.93,141Z"/><rect class="cls-8" x="63.18" y="140.96" width="211.93" height="212.73" transform="matrix(1, -0.01, 0.01, 1, -1.48, 1.02)"/><path class="cls-8" d="M63.82,354.83a.5.5,0,0,1-.5-.5L62.05,141.6a.5.5,0,0,1,.5-.5l211.93-1.27h0a.5.5,0,0,1,.5.5l1.27,212.72a.5.5,0,0,1-.5.5L63.82,354.83ZM63.05,142.1l1.26,211.72,210.93-1.26L274,140.83Z"/><ellipse class="cls-9" cx="170.5" cy="221.26" rx="26.1" ry="26.2" transform="translate(-1.32 1.03) rotate(-0.34)"/><path class="cls-9" d="M170.5,248a26.7,26.7,0,0,1-.16-53.4h.16a26.65,26.65,0,0,1,26.6,26.54A26.68,26.68,0,0,1,170.66,248Zm0-52.4h-.16a25.7,25.7,0,0,0,.31,51.4,25.72,25.72,0,0,0,17.84-44A25.38,25.38,0,0,0,170.51,195.56Z"/><polyline class="cls-9" points="161.92 241.59 148.49 299.72 197.07 299.43 178.6 241.49"/><polygon class="cls-9" points="147.86 300.23 161.44 241.48 162.41 241.7 149.12 299.22 196.39 298.93 178.12 241.64 179.07 241.34 197.75 299.93 147.86 300.23"/><g id="_Gruppo_" data-name="&lt;Gruppo&gt;"><path d="M245.27,386.18v-8a4.72,4.72,0,0,0-5-5.05,4.9,4.9,0,0,0-4.45,2.26,4.65,4.65,0,0,0-4.18-2.26A4.18,4.18,0,0,0,228,375v-1.57H225.2v12.71H228v-7c0-2.21,1.22-3.38,3.1-3.38s2.75,1.2,2.75,3.35v7.07h2.78v-7c0-2.21,1.27-3.38,3.1-3.38s2.78,1.2,2.78,3.35v7.07Zm41.16-12.71h-4.5v-3.85h-2.78v3.85h-2.57V376h2.57v5.8c0,3,1.14,4.71,4.4,4.71a6.45,6.45,0,0,0,3.44-1l-.79-2.37a5.07,5.07,0,0,1-2.44.72c-1.38,0-1.83-.85-1.83-2.13V376h4.5Zm23.49-.32a3.73,3.73,0,0,0-3.34,1.86v-1.54h-2.73v12.71h2.75v-7.13c0-2.1.9-3.27,2.7-3.27a4.47,4.47,0,0,1,1.72.32l.85-2.61a5.87,5.87,0,0,0-2-.35Zm-35.52,1.33a9.44,9.44,0,0,0-5.16-1.33c-3.2,0-5.27,1.54-5.27,4.07,0,2.07,1.54,3.35,4.37,3.75l1.3.19c1.51.21,2.22.61,2.22,1.33,0,1-1,1.54-2.89,1.54a6.73,6.73,0,0,1-4.21-1.33l-1.3,2.15A9.11,9.11,0,0,0,269,386.5c3.66,0,5.77-1.73,5.77-4.15,0-2.23-1.67-3.4-4.42-3.8l-1.3-.19c-1.19-.16-2.15-.4-2.15-1.25s.9-1.49,2.41-1.49a8.14,8.14,0,0,1,3.95,1.09Zm73.79-1.33a3.73,3.73,0,0,0-3.34,1.86v-1.54h-2.73v12.71h2.75v-7.13c0-2.1.9-3.27,2.7-3.27a4.47,4.47,0,0,1,1.72.32l.85-2.61a5.87,5.87,0,0,0-2-.35Zm-35.49,6.67a6.41,6.41,0,0,0,6.75,6.67A6.62,6.62,0,0,0,324,385l-1.32-2.23a5.55,5.55,0,0,1-3.31,1.14,4.08,4.08,0,0,1,0-8.14,5.55,5.55,0,0,1,3.31,1.14l1.32-2.23a6.62,6.62,0,0,0-4.56-1.52,6.41,6.41,0,0,0-6.75,6.67Zm25.8,0v-6.35h-2.75V375a4.8,4.8,0,0,0-4-1.86,6.68,6.68,0,0,0,0,13.35,4.8,4.8,0,0,0,4-1.86v1.54h2.75Zm-10.25,0a3.83,3.83,0,1,1,3.84,4.07,3.81,3.81,0,0,1-3.84-4.07ZM295,373.15c-3.71,0-6.3,2.71-6.3,6.67s2.7,6.67,6.49,6.67a7.68,7.68,0,0,0,5.19-1.78l-1.35-2a6,6,0,0,1-3.68,1.33,3.52,3.52,0,0,1-3.79-3.11H301c0-.35.05-.69.05-1.06,0-4-2.46-6.67-6-6.67Zm-.05,2.47c1.77,0,2.91,1.12,3.2,3.08H291.6a3.26,3.26,0,0,1,3.36-3.08Zm69.1,4.2V368.37h-2.75V375a4.8,4.8,0,0,0-4-1.86,6.68,6.68,0,0,0,0,13.35,4.8,4.8,0,0,0,4-1.86v1.54h2.75Zm-10.25,0a3.83,3.83,0,1,1,3.84,4.07,3.81,3.81,0,0,1-3.84-4.07Zm-93,0v-6.35H258V375a4.8,4.8,0,0,0-4-1.86,6.68,6.68,0,0,0,0,13.35,4.8,4.8,0,0,0,4-1.86v1.54h2.75Zm-10.25,0a3.83,3.83,0,1,1,3.84,4.07A3.81,3.81,0,0,1,250.55,379.83Z"/></g><g id="_Gruppo_2" data-name="&lt;Gruppo&gt;"><rect class="cls-10" x="273.49" y="276.63" width="41.72" height="75.26"/><g id="_Gruppo_3" data-name="&lt;Gruppo&gt;"><path class="cls-11" d="M276.14,314.25a47.84,47.84,0,0,1,18.21-37.63,47.86,47.86,0,1,0,0,75.26A47.84,47.84,0,0,1,276.14,314.25Z"/></g><path class="cls-12" d="M371.5,314.25a47.64,47.64,0,0,1-77.15,37.63,48,48,0,0,0,0-75.26,47.64,47.64,0,0,1,77.15,37.63Z"/></g></g><g id="pagamenti_carta"><path class="cls-15" d="M964.34,283.38A8.48,8.48,0,1,1,967,271.74a8.49,8.49,0,0,1-2.67,11.64"/><g class="cls-16"><polygon class="cls-17" points="-672.95 -172.8 -799 415.54 1417.92 887.18 1543.97 298.84 -672.95 -172.8"/></g><path class="cls-18" d="M973,281.39a8.5,8.5,0,0,0-4.88-3.67,8.66,8.66,0,0,0-1.21-.25l.91,1.45a8.62,8.62,0,0,1-.42,1l-1.6-2.55a8.48,8.48,0,0,0-1,.06l2.11,3.38a8.35,8.35,0,0,1-.57.78l-2.49-4a8.36,8.36,0,0,0-.89.26l2.76,4.4a8.46,8.46,0,0,1-3.93,2.15l-2.49-4a8.43,8.43,0,0,0-.57.78l2.11,3.38a8.46,8.46,0,0,1-1,.06l-1.59-2.55a8.49,8.49,0,0,0-.42,1l.91,1.45a8.52,8.52,0,0,1-1.21-.25,8.46,8.46,0,1,0,15.5-2.93"/><g class="cls-19"><polygon class="cls-20" points="-672.95 -172.8 -799 415.54 1417.92 887.18 1543.97 298.84 -672.95 -172.8"/></g></g></svg>