<?xml version="1.0" encoding="UTF-8"?>
<svg width="79px" height="79px" viewBox="0 0 79 79" version="1.1" xmlns="http://www.w3.org/2000/svg" xmlns:xlink="http://www.w3.org/1999/xlink">
    <!-- Generator: Sketch 41.2 (35397) - http://www.bohemiancoding.com/sketch -->
    <title>contacts-icon</title>
    <desc>Created with Sketch.</desc>
    <defs></defs>
    <g id="Contacts" stroke="none" stroke-width="1" fill="none" fill-rule="evenodd">
        <g transform="translate(-1083.000000, -518.000000)" id="content" fill="#00A5FF">
            <g transform="translate(114.000000, 199.000000)">
                <g id="Tel" transform="translate(805.000000, 223.000000)">
                    <g id="Group" transform="translate(83.000000, 96.000000)">
                        <g id="contacts-icon" transform="translate(81.000000, 0.000000)">
                            <path d="M56.0834167,0 L22.9165833,0 C19.7197167,0 17.1166667,2.60305 17.1166667,5.79991667 L17.1166667,73.1987667 C17.1166667,76.39695 19.7197167,79 22.9165833,79 L56.0821,79 C59.2802833,79 61.8833333,76.39695 61.8833333,73.2000833 L61.8833333,5.79991667 C61.8833333,2.60305 59.2802833,0 56.0834167,0 Z M19.75,10.5333333 L59.25,10.5333333 L59.25,60.5666667 L19.75,60.5666667 L19.75,10.5333333 Z M22.9165833,2.63333333 L56.0821,2.63333333 C57.8293167,2.63333333 59.25,4.05401667 59.25,5.79991667 L59.25,7.9 L19.75,7.9 L19.75,5.79991667 C19.75,4.05401667 21.1706833,2.63333333 22.9165833,2.63333333 Z M56.0834167,76.3666667 L22.9165833,76.3666667 C21.1706833,76.3666667 19.75,74.9459833 19.75,73.2000833 L19.75,63.2 L59.25,63.2 L59.25,73.2000833 C59.25,74.9459833 57.8293167,76.3666667 56.0834167,76.3666667 Z" id="Shape"></path>
                            <path d="M39.5,64.5166667 C36.5954333,64.5166667 34.2333333,66.8787667 34.2333333,69.7833333 C34.2333333,72.6879 36.5954333,75.05 39.5,75.05 C42.4045667,75.05 44.7666667,72.6879 44.7666667,69.7833333 C44.7666667,66.8787667 42.4045667,64.5166667 39.5,64.5166667 Z M39.5,72.4166667 C38.0477167,72.4166667 36.8666667,71.2356167 36.8666667,69.7833333 C36.8666667,68.33105 38.0477167,67.15 39.5,67.15 C40.9522833,67.15 42.1333333,68.33105 42.1333333,69.7833333 C42.1333333,71.2356167 40.9522833,72.4166667 39.5,72.4166667 Z" id="Shape"></path>
                            <path d="M34.2333333,6.58333333 L39.5,6.58333333 C40.2281167,6.58333333 40.8166667,5.99478333 40.8166667,5.26666667 C40.8166667,4.53855 40.2281167,3.95 39.5,3.95 L34.2333333,3.95 C33.5052167,3.95 32.9166667,4.53855 32.9166667,5.26666667 C32.9166667,5.99478333 33.5052167,6.58333333 34.2333333,6.58333333 Z" id="Shape"></path>
                            <path d="M43.45,6.58333333 L44.7666667,6.58333333 C45.4947833,6.58333333 46.0833333,5.99478333 46.0833333,5.26666667 C46.0833333,4.53855 45.4947833,3.95 44.7666667,3.95 L43.45,3.95 C42.7218833,3.95 42.1333333,4.53855 42.1333333,5.26666667 C42.1333333,5.99478333 42.7218833,6.58333333 43.45,6.58333333 Z" id="Shape"></path>
                            <path d="M74.5391333,6.01585 C74.0243167,5.50103333 73.1921833,5.50103333 72.6773667,6.01585 C72.16255,6.53066667 72.16255,7.3628 72.6773667,7.87761667 C77.5964333,12.7966833 77.5964333,20.8007 72.6773667,25.7210833 C72.16255,26.2359 72.16255,27.0680333 72.6773667,27.58285 C72.9341167,27.8396 73.2711833,27.9686333 73.60825,27.9686333 C73.9453167,27.9686333 74.2823833,27.8396 74.5391333,27.58285 C80.4852,21.6381 80.4852,11.9619167 74.5391333,6.01585 Z" id="Shape"></path>
                            <path d="M68.99465,9.01258333 C68.4798333,8.49776667 67.6477,8.49776667 67.1328833,9.01258333 C66.6180667,9.5274 66.6180667,10.3595333 67.1328833,10.87435 C68.7616,12.5030667 69.65825,14.6729333 69.65825,16.9823667 C69.65825,19.2918 68.7616,21.46035 67.1328833,23.0890667 C66.6180667,23.6038833 66.6180667,24.4360167 67.1328833,24.9508333 C67.3896333,25.2075833 67.7267,25.3366167 68.0637667,25.3366167 C68.4008333,25.3366167 68.7379,25.2075833 68.99465,24.9508333 C71.1210667,22.8257333 72.2915833,19.9949 72.2915833,16.9823667 C72.2915833,13.9698333 71.1223833,11.1376833 68.99465,9.01258333 Z" id="Shape"></path>
                            <path d="M6.32263333,7.87761667 C6.83745,7.3628 6.83745,6.53066667 6.32263333,6.01585 C5.80781667,5.50103333 4.97568333,5.50103333 4.46086667,6.01585 C-1.4852,11.9619167 -1.4852,21.6367833 4.46086667,27.58285 C4.71761667,27.8396 5.05468333,27.9686333 5.39175,27.9686333 C5.72881667,27.9686333 6.06588333,27.8396 6.32263333,27.58285 C6.83745,27.0680333 6.83745,26.2359 6.32263333,25.7210833 C1.40225,20.8020167 1.40225,12.798 6.32263333,7.87761667 Z" id="Shape"></path>
                            <path d="M11.8671167,8.64918333 C11.3523,8.13436667 10.5201667,8.13436667 10.00535,8.64918333 C7.87893333,10.7742833 6.70841667,13.6051167 6.70841667,16.61765 C6.70841667,19.6301833 7.87893333,22.4610167 10.00535,24.5874333 C10.2621,24.8441833 10.5991667,24.9732167 10.9362333,24.9732167 C11.2733,24.9732167 11.6103667,24.8441833 11.8671167,24.5874333 C12.3819333,24.0726167 12.3819333,23.2404833 11.8671167,22.7256667 C10.2384,21.09695 9.34175,18.9270833 9.34175,16.61765 C9.34175,14.3082167 10.2370833,12.1396667 11.8671167,10.51095 C12.3806167,9.99745 12.3806167,9.164 11.8671167,8.64918333 Z" id="Shape"></path>
                        </g>
                    </g>
                </g>
            </g>
        </g>
    </g>
</svg>