<svg xmlns="http://www.w3.org/2000/svg" xmlns:xlink="http://www.w3.org/1999/xlink" viewBox="0 0 400 400"><defs><style>.cls-1,.cls-2{fill:none;}.cls-2,.cls-3,.cls-4{clip-rule:evenodd;}.cls-12,.cls-23,.cls-3{fill:#fca664;}.cls-25,.cls-4,.cls-8{fill:#ffddba;}.cls-5{clip-path:url(#clip-path);}.cls-6{fill:#e9e3d7;}.cls-7{fill:#fff;}.cls-9{fill:#bab7cc;}.cls-10{fill:#0087d1;}.cls-11{fill:#5cc5ff;}.cls-13{fill:#ffc296;}.cls-14{fill:#746c94;}.cls-15{fill:#736d91;}.cls-16{fill:#016aa3;}.cls-17{fill:#453f6b;}.cls-18{fill:#00a5ff;}.cls-19{fill:#201849;}.cls-20{fill:#1f1849;}.cls-21{clip-path:url(#clip-path-2);}.cls-22{clip-path:url(#clip-path-3);}.cls-23,.cls-25{fill-rule:evenodd;}.cls-24{clip-path:url(#clip-path-4);}.cls-26{clip-path:url(#clip-path-5);}</style><clipPath id="clip-path"><ellipse class="cls-1" cx="576.79" cy="309.79" rx="4.8" ry="4.8" transform="translate(-53.32 487.61) rotate(-44)"/></clipPath><clipPath id="clip-path-2"><path class="cls-2" d="M1379.25,618.69a4.71,4.71,0,0,1,6.47,1.49l60.47,96.63a4.67,4.67,0,0,1-1.5,6.45l-58.55,36.38a4.71,4.71,0,0,1-6.47-1.49l-60.47-96.63a4.67,4.67,0,0,1,1.5-6.45Z"/></clipPath><clipPath id="clip-path-3"><path class="cls-2" d="M1368,639.1a2.69,2.69,0,0,1,3.7.85l6,9.63a2.67,2.67,0,0,1-.86,3.68l-7.67,4.77a2.69,2.69,0,0,1-3.7-.85l-6-9.63a2.67,2.67,0,0,1,.86-3.68Z"/></clipPath><clipPath id="clip-path-4"><path class="cls-3" d="M1384.34,741.38a8.48,8.48,0,1,1,2.67-11.64,8.49,8.49,0,0,1-2.67,11.64"/></clipPath><clipPath id="clip-path-5"><path class="cls-4" d="M1393,739.39a8.5,8.5,0,0,0-4.88-3.67,8.66,8.66,0,0,0-1.21-.25l.91,1.45a8.62,8.62,0,0,1-.42,1l-1.6-2.55a8.48,8.48,0,0,0-1,.06l2.11,3.38a8.35,8.35,0,0,1-.57.78l-2.49-4a8.36,8.36,0,0,0-.89.26l2.76,4.4a8.46,8.46,0,0,1-3.93,2.15l-2.49-4a8.43,8.43,0,0,0-.57.78l2.11,3.38a8.46,8.46,0,0,1-1,.06l-1.59-2.55a8.49,8.49,0,0,0-.42,1l.91,1.45a8.52,8.52,0,0,1-1.21-.25,8.46,8.46,0,1,0,15.5-2.93"/></clipPath></defs><title>controllo_spese</title><g id="controllo_spese"><path class="cls-6" d="M371.5,205H28.5a1,1,0,0,1,0-2h343a1,1,0,0,1,0,2Z"/><path class="cls-6" d="M57.34,41.48a1,1,0,0,1-.81-.41c-.17-.22-1-1.48-.49-4.2.53-3,2.38-5.1,4.8-5.45a8,8,0,0,1,7.62-6,7.66,7.66,0,0,1,2.72.5,12.89,12.89,0,0,1,25.68.85,9.9,9.9,0,0,1,2.83-.41,10.4,10.4,0,0,1,10.26,10.51,35.42,35.42,0,0,1-.21,3.82c-.16.8-.16.8-5.46.81l-46.94,0Zm51.41-1h0ZM61.54,33.38c-2.1,0-3.19,2-3.52,3.85a5.5,5.5,0,0,0,0,2.26h7.92l41.92,0c.05-.85.09-2.08.09-2.62a8.4,8.4,0,0,0-8.26-8.51,8,8,0,0,0-3.39.75,1,1,0,0,1-1.42-.91c0-.09,0-.18,0-.27v-.15a10.92,10.92,0,1,0-21.84-.29,1,1,0,0,1-1.53.82,5.73,5.73,0,0,0-3.06-.9,6,6,0,0,0-5.8,5.15,1,1,0,0,1-1,.85Z"/><path class="cls-6" d="M288.42,51.74a1,1,0,0,1-.81-.41c-.17-.23-1-1.52-.5-4.32.55-3.14,2.47-5.27,5-5.62A8.22,8.22,0,0,1,300,35.11a7.9,7.9,0,0,1,2.85.53,13.34,13.34,0,0,1,26.57.88,10.26,10.26,0,0,1,3-.44A10.75,10.75,0,0,1,343,46.95a36.5,36.5,0,0,1-.21,4c-.16.8-.16.8-5.78.81l-48.54,0Zm53.33-1h0Zm-49-7.37c-2.2,0-3.35,2.09-3.69,4a5.68,5.68,0,0,0,0,2.38h7.37l44.41,0c.06-.89.09-2.19.09-2.76a8.75,8.75,0,0,0-8.61-8.86,8.38,8.38,0,0,0-3.53.79A1,1,0,0,1,327.4,38c0-.09,0-.19,0-.28v-.15a11.37,11.37,0,1,0-22.73-.3,1,1,0,0,1-1.53.82,6,6,0,0,0-3.2-.94,6.23,6.23,0,0,0-6.06,5.38,1.05,1.05,0,0,1-1,.86Z"/><rect class="cls-7" x="132.79" y="67.03" width="94.16" height="57.07"/><path class="cls-6" d="M226.95,125.1H132.79a1,1,0,0,1-1-1V67a1,1,0,0,1,1-1h94.16a1,1,0,0,1,1,1V124.1A1,1,0,0,1,226.95,125.1Zm-93.16-2h92.16V68H133.79Z"/><rect class="cls-7" x="132.79" y="124.1" width="94.16" height="79.9"/><path class="cls-6" d="M226.95,205H132.79a1,1,0,0,1-1-1V124.1a1,1,0,0,1,1-1h94.16a1,1,0,0,1,1,1V204A1,1,0,0,1,226.95,205Zm-93.16-2h92.16V125.1H133.79Z"/><rect class="cls-7" x="128.75" y="61.33" width="102.23" height="5.71"/><path class="cls-6" d="M231,68H128.75a1,1,0,0,1-1-1V61.33a1,1,0,0,1,1-1H231a1,1,0,0,1,1,1V67A1,1,0,0,1,231,68ZM129.75,66H230V62.33H129.75Z"/><rect class="cls-7" x="190.63" y="84.15" width="20.18" height="24.25"/><path class="cls-6" d="M210.81,109.41H190.63a1,1,0,0,1-1-1V84.15a1,1,0,0,1,1-1h20.18a1,1,0,0,1,1,1v24.25A1,1,0,0,1,210.81,109.41Zm-19.18-2h18.18V85.15H191.63Z"/><rect class="cls-7" x="150.28" y="84.15" width="20.18" height="24.25"/><path class="cls-6" d="M170.45,109.41H150.28a1,1,0,0,1-1-1V84.15a1,1,0,0,1,1-1h20.18a1,1,0,0,1,1,1v24.25A1,1,0,0,1,170.45,109.41Zm-19.18-2h18.18V85.15H151.28Z"/><rect class="cls-7" x="217.53" y="124.1" width="9.42" height="24.25"/><path class="cls-6" d="M226.95,149.36h-9.42a1,1,0,0,1-1-1V124.1a1,1,0,0,1,1-1h9.42a1,1,0,0,1,1,1v24.25A1,1,0,0,1,226.95,149.36Zm-8.42-2h7.42V125.1h-7.42Z"/><rect class="cls-7" x="206.77" y="124.1" width="10.76" height="24.25"/><path class="cls-6" d="M217.53,149.36H206.77a1,1,0,0,1-1-1V124.1a1,1,0,0,1,1-1h10.76a1,1,0,0,1,1,1v24.25A1,1,0,0,1,217.53,149.36Zm-9.76-2h8.76V125.1h-8.76Z"/><rect class="cls-7" x="196.01" y="124.1" width="10.76" height="24.25"/><path class="cls-6" d="M206.77,149.36H196a1,1,0,0,1-1-1V124.1a1,1,0,0,1,1-1h10.76a1,1,0,0,1,1,1v24.25A1,1,0,0,1,206.77,149.36Zm-9.76-2h8.76V125.1H197Z"/><rect class="cls-7" x="185.25" y="124.1" width="10.76" height="24.25"/><path class="cls-6" d="M196,149.36H185.25a1,1,0,0,1-1-1V124.1a1,1,0,0,1,1-1H196a1,1,0,0,1,1,1v24.25A1,1,0,0,1,196,149.36Zm-9.76-2H195V125.1h-8.76Z"/><rect class="cls-7" x="175.83" y="124.1" width="9.42" height="24.25"/><path class="cls-6" d="M185.25,149.36h-9.42a1,1,0,0,1-1-1V124.1a1,1,0,0,1,1-1h9.42a1,1,0,0,1,1,1v24.25A1,1,0,0,1,185.25,149.36Zm-8.42-2h7.42V125.1h-7.42Z"/><rect class="cls-7" x="165.07" y="124.1" width="10.76" height="24.25"/><path class="cls-6" d="M175.83,149.36H165.07a1,1,0,0,1-1-1V124.1a1,1,0,0,1,1-1h10.76a1,1,0,0,1,1,1v24.25A1,1,0,0,1,175.83,149.36Zm-9.76-2h8.76V125.1h-8.76Z"/><rect class="cls-7" x="154.31" y="124.1" width="10.76" height="24.25"/><path class="cls-6" d="M165.07,149.36H154.31a1,1,0,0,1-1-1V124.1a1,1,0,0,1,1-1h10.76a1,1,0,0,1,1,1v24.25A1,1,0,0,1,165.07,149.36Zm-9.76-2h8.76V125.1h-8.76Z"/><rect class="cls-7" x="143.55" y="124.1" width="10.76" height="24.25"/><path class="cls-6" d="M154.31,149.36H143.55a1,1,0,0,1-1-1V124.1a1,1,0,0,1,1-1h10.76a1,1,0,0,1,1,1v24.25A1,1,0,0,1,154.31,149.36Zm-9.76-2h8.76V125.1h-8.76Z"/><rect class="cls-7" x="132.79" y="124.1" width="10.76" height="24.25"/><path class="cls-6" d="M143.55,149.36H132.79a1,1,0,0,1-1-1V124.1a1,1,0,0,1,1-1h10.76a1,1,0,0,1,1,1v24.25A1,1,0,0,1,143.55,149.36Zm-9.76-2h8.76V125.1h-8.76Z"/><polyline class="cls-7" points="174.49 202.57 174.49 156.92 147.59 156.92 147.59 202.57"/><path class="cls-6" d="M174.49,203.57a1,1,0,0,1-1-1V157.92h-24.9v44.66a1,1,0,0,1-2,0V156.92a1,1,0,0,1,1-1h26.9a1,1,0,0,1,1,1v45.66A1,1,0,0,1,174.49,203.57Z"/><rect class="cls-7" x="183.9" y="156.92" width="28.25" height="32.81"/><path class="cls-6" d="M212.15,190.73H183.9a1,1,0,0,1-1-1V156.92a1,1,0,0,1,1-1h28.25a1,1,0,0,1,1,1v32.81A1,1,0,0,1,212.15,190.73Zm-27.25-2h26.25V157.92H184.9Z"/><path class="cls-6" d="M198.7,190.73a1,1,0,0,1-1-1V156.92a1,1,0,0,1,2,0v32.81A1,1,0,0,1,198.7,190.73Z"/><rect class="cls-7" x="40.16" y="128.33" width="92.36" height="71.67"/><path class="cls-6" d="M132.52,201H40.16a1,1,0,0,1-1-1V128.33a1,1,0,0,1,1-1h92.36a1,1,0,0,1,1,1V200A1,1,0,0,1,132.52,201Zm-91.36-2h90.36V129.33H41.16Z"/><rect class="cls-7" x="36.68" y="196.58" width="99.31" height="7.42"/><path class="cls-6" d="M136,205H36.68a1,1,0,0,1-1-1v-7.42a1,1,0,0,1,1-1H136a1,1,0,0,1,1,1V204A1,1,0,0,1,136,205Zm-98.31-2H135v-5.42H37.68Z"/><rect class="cls-7" x="51.35" y="158.02" width="25.19" height="38.56"/><path class="cls-6" d="M76.54,197.58H51.35a1,1,0,0,1-1-1V158a1,1,0,0,1,1-1H76.54a1,1,0,0,1,1,1v38.56A1,1,0,0,1,76.54,197.58Zm-24.19-2H75.54V159H52.35Z"/><rect class="cls-7" x="91.94" y="158.02" width="25.19" height="25.23"/><path class="cls-6" d="M117.13,184.25H91.94a1,1,0,0,1-1-1V158a1,1,0,0,1,1-1h25.19a1,1,0,0,1,1,1v25.23A1,1,0,0,1,117.13,184.25Zm-24.19-2h23.19V159H92.94Z"/><path class="cls-6" d="M104.53,184.25a1,1,0,0,1-1-1V158a1,1,0,0,1,2,0v25.23A1,1,0,0,1,104.53,184.25Z"/><path class="cls-7" d="M63.95,128.33V141c0,2.84,3.27,5.49,7.43,5.5s7.9-3.33,8-4.82h0V128.33Z"/><path class="cls-6" d="M71.38,147.51h0c-4.57,0-8.43-3-8.43-6.5V128.33a1,1,0,0,1,1-1H79.34a1,1,0,0,1,1,1v13.36C80.25,143.91,75.88,147.51,71.38,147.51Zm-6.43-18.18V141c0,2.12,2.64,4.49,6.43,4.5h0c3.8,0,6.89-3.05,7-3.86V129.33Z"/><path class="cls-7" d="M108.73,128.33V141c0,2.84,3.45,5.49,7.6,5.5s7.73-3.33,7.79-4.82h0V128.33Z"/><path class="cls-6" d="M116.34,147.51h0c-4.66,0-8.6-3-8.6-6.5V128.33a1,1,0,0,1,1-1h15.39a1,1,0,0,1,1,1v13.36C125,143.91,120.9,147.51,116.34,147.51Zm-6.61-18.18V141c0,2.12,2.82,4.49,6.6,4.5h0c3.75,0,6.73-3.05,6.79-3.86V129.33Z"/><path class="cls-7" d="M124.12,128.33V141c0,2.84,3.27,5.49,7.43,5.5s7.91-3.33,8-4.82h0V128.33Z"/><path class="cls-6" d="M131.55,147.51h0c-4.57,0-8.43-3-8.43-6.5V128.33a1,1,0,0,1,1-1h15.39a1,1,0,0,1,1,1v13.36C140.43,143.91,136.05,147.51,131.55,147.51Zm-6.43-18.18V141c0,2.12,2.64,4.49,6.43,4.5h0c3.8,0,6.89-3.05,7-3.86V129.33Z"/><path class="cls-7" d="M33.16,128.33V141c0,2.84,3.62,5.49,7.77,5.5s7.56-3.33,7.62-4.82h0V128.33Z"/><path class="cls-6" d="M40.94,147.51h0c-4.67,0-8.77-3-8.77-6.5V128.33a1,1,0,0,1,1-1H48.56a1,1,0,0,1,1,1v13.36C49.47,143.91,45.41,147.51,40.94,147.51Zm-6.78-18.18V141c0,2.08,3,4.49,6.77,4.5h0c3.71,0,6.58-3,6.62-3.86V129.33Z"/><path class="cls-7" d="M48.56,128.33V141c0,2.84,3.44,5.49,7.6,5.5s7.74-3.33,7.8-4.82h0V128.33Z"/><path class="cls-6" d="M56.16,147.51h0c-4.66,0-8.6-3-8.6-6.5V128.33a1,1,0,0,1,1-1H63.95a1,1,0,0,1,1,1v13.36C64.86,143.91,60.72,147.51,56.16,147.51Zm-6.6-18.18V141c0,2.12,2.82,4.49,6.6,4.5h0c3.76,0,6.74-3.05,6.79-3.86V129.33Z"/><path class="cls-7" d="M79.34,128.33V141c0,2.84,3.1,5.49,7.25,5.5s6.69-3.33,6.75-4.82h0V128.33Z"/><path class="cls-6" d="M86.6,147.51h0c-4.55,0-8.25-2.92-8.25-6.5V128.33a1,1,0,0,1,1-1h14a1,1,0,0,1,1,1v13.36C94.25,143.77,91.26,147.51,86.6,147.51Zm-6.25-18.18V141c0,2.17,2.51,4.49,6.25,4.5h0c3.61,0,5.7-2.9,5.74-3.86V129.33Z"/><path class="cls-7" d="M93.34,128.33V141c0,2.84,3.62,5.49,7.78,5.5s7.56-3.33,7.62-4.82h0V128.33Z"/><path class="cls-6" d="M101.12,147.51h0c-4.67,0-8.77-3-8.77-6.5V128.33a1,1,0,0,1,1-1h15.39a1,1,0,0,1,1,1v13.36C109.64,143.91,105.58,147.51,101.12,147.51Zm-6.78-18.18V141c0,2.08,3,4.49,6.78,4.5h0c3.71,0,6.58-3.05,6.61-3.86V129.33Z"/><rect class="cls-7" x="224.26" y="114.12" width="139.89" height="89.88"/><path class="cls-6" d="M364.15,205H224.26a1,1,0,0,1-1-1V114.12a1,1,0,0,1,1-1H364.15a1,1,0,0,1,1,1V204A1,1,0,0,1,364.15,205Zm-138.89-2H363.15V115.12H225.26Z"/><rect class="cls-7" x="221.57" y="194.67" width="145.27" height="9.33"/><path class="cls-6" d="M366.84,205H221.57a1,1,0,0,1-1-1v-9.33a1,1,0,0,1,1-1H366.84a1,1,0,0,1,1,1V204A1,1,0,0,1,366.84,205Zm-144.27-2H365.84v-7.33H222.57Z"/><rect class="cls-7" x="237.71" y="151.21" width="73.98" height="37.1"/><path class="cls-6" d="M311.69,189.31h-74a1,1,0,0,1-1-1v-37.1a1,1,0,0,1,1-1h74a1,1,0,0,1,1,1v37.1A1,1,0,0,1,311.69,189.31Zm-73-2h72v-35.1h-72Z"/><rect class="cls-7" x="235.02" y="182.6" width="79.36" height="5.71"/><path class="cls-6" d="M314.38,189.31H235a1,1,0,0,1-1-1V182.6a1,1,0,0,1,1-1h79.36a1,1,0,0,1,1,1v5.71A1,1,0,0,1,314.38,189.31Zm-78.36-2h77.36V183.6H236Z"/><polygon class="cls-7" points="353.39 148.36 353.39 204 325.14 204 325.14 148.36 345.67 148.36 345.68 148.36 353.39 148.36"/><path class="cls-6" d="M353.39,205H325.14a1,1,0,0,1-1-1V148.36a1,1,0,0,1,1-1h28.25a1,1,0,0,1,1,1V204A1,1,0,0,1,353.39,205Zm-27.25-2h26.25V149.36H326.14Z"/><path class="cls-7" d="M266,134.09v15.26c0,3.45,4.41,6.46,9.55,6.47s9.2-3.18,9.28-6h0V134.09Z"/><path class="cls-6" d="M275.52,156.82h0c-5.72,0-10.55-3.43-10.55-7.47V134.09a1,1,0,0,1,1-1h18.83a1,1,0,0,1,1,1v15.69C285.7,153.12,281.29,156.82,275.52,156.82ZM267,135.09v14.26c0,2.91,4,5.47,8.56,5.47h0c4.51,0,8.21-2.77,8.27-5.06V135.09Z"/><path class="cls-7" d="M322.45,134.09v15.26c0,3.45,4.13,6.46,9.27,6.47s9.48-3.18,9.56-6h0V134.09Z"/><path class="cls-6" d="M331.73,156.82h0c-5.67,0-10.27-3.36-10.27-7.47V134.09a1,1,0,0,1,1-1h18.83a1,1,0,0,1,1,1v15.69C342.19,153.42,337.06,156.82,331.73,156.82Zm-8.28-21.73v14.26c0,3,3.79,5.47,8.28,5.47h0c4.53,0,8.49-2.78,8.55-5.06V135.09Z"/><path class="cls-7" d="M341.28,134.09v15.26c0,3.45,4,6.46,9.18,6.47s9.58-3.18,9.65-6h0V134.09Z"/><path class="cls-6" d="M350.47,156.82h0c-5.61,0-10.18-3.36-10.18-7.47V134.09a1,1,0,0,1,1-1h18.83a1,1,0,0,1,1,1v15.69C361,153.42,355.85,156.82,350.47,156.82Zm-8.19-21.73v14.26c0,3,3.75,5.47,8.18,5.47h0c4.58,0,8.58-2.78,8.64-5.06V135.09Z"/><path class="cls-7" d="M229.64,134.09v15.26c0,3.45,3.92,6.46,9.06,6.47s8.35-3.18,8.42-6h0V134.09Z"/><path class="cls-6" d="M238.71,156.82h0c-5.55,0-10.06-3.36-10.06-7.47V134.09a1,1,0,0,1,1-1h17.49a1,1,0,0,1,1,1v15.69C248,153.18,244.41,156.82,238.71,156.82Zm-8.07-21.73v14.26c0,3,3.69,5.47,8.06,5.47h0c4.75,0,7.36-2.94,7.41-5.06V135.09Z"/><path class="cls-7" d="M247.12,134.09v15.26c0,3.45,4.5,6.46,9.65,6.47s9.11-3.18,9.19-6h0V134.09Z"/><path class="cls-6" d="M256.78,156.82h0c-5.77,0-10.64-3.43-10.64-7.47V134.09a1,1,0,0,1,1-1H266a1,1,0,0,1,1,1v15.69C266.87,153.12,262.5,156.82,256.78,156.82Zm-8.66-21.73v14.26c0,2.86,4.12,5.47,8.65,5.47h0c4.46,0,8.12-2.77,8.18-5.06V135.09Z"/><path class="cls-7" d="M284.79,134.09v15.26c0,3.45,4.31,6.46,9.46,6.47s9.3-3.18,9.37-6h0V134.09Z"/><path class="cls-6" d="M294.25,156.82h0c-5.67,0-10.46-3.43-10.46-7.47V134.09a1,1,0,0,1,1-1h18.83a1,1,0,0,1,1,1v15.69C304.53,153.48,299.59,156.82,294.25,156.82Zm-8.47-21.73v14.26c0,2.91,4,5.47,8.46,5.47h0c4.56,0,8.31-2.77,8.36-5.06V135.09Z"/><path class="cls-7" d="M303.62,134.09v15.26c-.19,3.37,4.21,6.46,9.37,6.47s9.39-3.18,9.46-6h0V134.09Z"/><path class="cls-6" d="M313,156.82h0a12.22,12.22,0,0,1-8.67-3.36,5.59,5.59,0,0,1-1.69-4.17v-15.2a1,1,0,0,1,1-1h18.83a1,1,0,0,1,1,1v15.69C323.35,153.48,318.37,156.82,313,156.82Zm-8.39-21.73v14.26a3.76,3.76,0,0,0,1.15,2.74,10.17,10.17,0,0,0,7.22,2.73h0c4.82,0,8.39-3,8.44-5.06V135.09Z"/><rect class="cls-7" x="221.57" y="128.38" width="145.27" height="5.71"/><path class="cls-6" d="M366.84,135.09H221.57a1,1,0,0,1-1-1v-5.71a1,1,0,0,1,1-1H366.84a1,1,0,0,1,1,1v5.71A1,1,0,0,1,366.84,135.09Zm-144.27-2H365.84v-3.71H222.57Z"/><rect class="cls-7" x="90.22" y="179.75" width="28.62" height="4.28"/><path class="cls-6" d="M118.84,185H90.22a1,1,0,0,1-1-1v-4.28a1,1,0,0,1,1-1h28.62a1,1,0,0,1,1,1V184A1,1,0,0,1,118.84,185Zm-27.62-2h26.62v-2.28H91.22Z"/><path class="cls-6" d="M319,389.5H80.94a1,1,0,1,1,0-2H319a1,1,0,0,1,0,2Z"/><path class="cls-8" d="M188.27,273v-1.45a1.06,1.06,0,0,0-.64-1c-2.22-.85-6.88-1.95-8.31-1.65-8.92-2.06-22.9-20.57-21.15-29l-7.46-1.72c-2.76,13.3,11.49,32.72,25.09,35.87,0,.81,1.17,2.73,4.54,5.46,2.86,2.32,7,2.92,8.48,1.5.55-.53,0-1.14.63-1.38,1.56-.58.72-1.63,1.06-1.88C192.2,276.45,191.09,275.43,188.27,273Z"/><path class="cls-9" d="M158.61,230.87c-.57-3.66-3.36-6.83-7.48-6.12-3.4.59-5.2,5-4.85,8.52l1.79,13.85,12.24-1.84Z"/><polygon class="cls-10" points="246.48 352.19 205.45 352.19 207.31 293.52 244.61 293.52 246.48 352.19"/><path class="cls-10" d="M232.87,295.69a.5.5,0,0,1-.5-.5,9.3,9.3,0,1,0-18.58,0,.5.5,0,0,1-1,0,10.3,10.3,0,1,1,20.58,0A.5.5,0,0,1,232.87,295.69Z"/><polygon class="cls-11" points="242.14 352.19 201.12 352.19 202.98 293.52 240.28 293.52 242.14 352.19"/><polygon class="cls-12" points="258.4 351.77 217.37 351.77 219.24 293.1 256.54 293.1 258.4 351.77"/><path class="cls-12" d="M244.79,295.27a.5.5,0,0,1-.5-.5,9.3,9.3,0,1,0-18.58,0,.5.5,0,0,1-1,0,10.3,10.3,0,1,1,20.58,0A.5.5,0,0,1,244.79,295.27Z"/><polygon class="cls-13" points="254.07 351.77 213.04 351.77 214.9 293.1 252.2 293.1 254.07 351.77"/><path class="cls-14" d="M269.4,327.74a.5.5,0,0,1-.49-.39l-6.54-28.65a.5.5,0,0,1,1-.22l6.54,28.65a.5.5,0,0,1-.38.6Z"/><path class="cls-14" d="M262.54,352.21a.5.5,0,0,1-.49-.39l-12.12-53.11a.5.5,0,0,1,1-.22L263,351.6a.5.5,0,0,1-.38.6Z"/><path class="cls-14" d="M250.11,352.23a.5.5,0,0,1-.49-.39L237.5,298.74a.5.5,0,1,1,1-.22l12.12,53.11a.5.5,0,0,1-.38.6Z"/><path class="cls-14" d="M237.68,352.25a.5.5,0,0,1-.49-.39l-12.12-53.11a.5.5,0,0,1,1-.22l12.12,53.11a.5.5,0,0,1-.38.6Z"/><path class="cls-14" d="M225.24,352.27a.5.5,0,0,1-.49-.39l-12.12-53.1a.5.5,0,0,1,1-.22l12.12,53.1a.5.5,0,0,1-.38.6Z"/><path class="cls-14" d="M212.81,352.29a.5.5,0,0,1-.49-.39L200.2,298.8a.5.5,0,1,1,1-.22l12.12,53.1a.5.5,0,0,1-.38.6Z"/><path class="cls-14" d="M200.37,352.31a.5.5,0,0,1-.49-.39l-12.12-53.11a.5.5,0,0,1,1-.22l12.12,53.11a.5.5,0,0,1-.38.6Z"/><path class="cls-14" d="M264.43,352.27H186.86a.5.5,0,0,1-.49-.4L175.6,298.74a.5.5,0,0,1,.49-.6H275.2a.5.5,0,0,1,.49.6l-10.77,53.13A.5.5,0,0,1,264.43,352.27Zm-77.16-1H264l10.57-52.12H176.7Z"/><path class="cls-14" d="M176.41,300.71a.5.5,0,0,1-.49-.39l-4.06-18.88h-15a.5.5,0,1,1,0-1h15.38a.5.5,0,0,1,.49.39l4.15,19.28a.5.5,0,0,1-.38.59Z"/><path class="cls-7" d="M260.18,368.18H192.7c-4,0-7.29-2.51-7.29-5.6v-2c0-3.09,3.26-5.6,7.29-5.6h67.49"/><path class="cls-14" d="M260.18,368.68H192.7c-4.29,0-7.79-2.74-7.79-6.1v-2c0-3.37,3.49-6.1,7.79-6.1h67.49a.5.5,0,0,1,0,1H192.7c-3.74,0-6.79,2.29-6.79,5.1v2c0,2.81,3,5.1,6.79,5.1h67.49a.5.5,0,0,1,0,1Z"/><rect class="cls-15" x="246.8" y="370.26" width="2.79" height="2"/><rect class="cls-15" x="246.8" y="384.94" width="2.79" height="2"/><ellipse class="cls-15" cx="246.8" cy="378.6" rx="6.96" ry="7.34"/><path class="cls-15" d="M246.8,386.94a8.35,8.35,0,1,1,8-8.34A8.17,8.17,0,0,1,246.8,386.94Zm0-14.69a6.35,6.35,0,1,0,6,6.34A6.17,6.17,0,0,0,246.8,372.26Z"/><ellipse class="cls-9" cx="249.59" cy="378.6" rx="6.96" ry="7.34"/><path class="cls-9" d="M249.59,386.94a8.35,8.35,0,1,1,8-8.34A8.17,8.17,0,0,1,249.59,386.94Zm0-14.69a6.35,6.35,0,1,0,6,6.34A6.17,6.17,0,0,0,249.59,372.26Z"/><path class="cls-14" d="M249.59,385.19a6.6,6.6,0,1,1,6.28-6.59A6.45,6.45,0,0,1,249.59,385.19Zm0-12.19a5.6,5.6,0,1,0,5.28,5.59A5.45,5.45,0,0,0,249.59,373Z"/><rect class="cls-15" x="199.91" y="370.26" width="2.79" height="2"/><rect class="cls-15" x="199.91" y="384.94" width="2.79" height="2"/><ellipse class="cls-15" cx="199.91" cy="378.6" rx="6.96" ry="7.34"/><path class="cls-15" d="M199.91,386.94a8.35,8.35,0,1,1,8-8.34A8.17,8.17,0,0,1,199.91,386.94Zm0-14.69a6.35,6.35,0,1,0,6,6.34A6.17,6.17,0,0,0,199.91,372.26Z"/><ellipse class="cls-9" cx="202.7" cy="378.6" rx="6.96" ry="7.34"/><path class="cls-9" d="M202.7,386.94a8.35,8.35,0,1,1,8-8.34A8.17,8.17,0,0,1,202.7,386.94Zm0-14.69a6.36,6.36,0,1,0,6,6.34A6.17,6.17,0,0,0,202.7,372.26Z"/><path class="cls-14" d="M202.7,385.19A6.6,6.6,0,1,1,209,378.6,6.45,6.45,0,0,1,202.7,385.19Zm0-12.19A5.6,5.6,0,1,0,208,378.6,5.45,5.45,0,0,0,202.7,373Z"/><polygon class="cls-8" points="144.12 371.58 139.73 368.45 144.85 360.25 149.24 363.38 144.12 371.58"/><rect class="cls-8" x="129.4" y="374.1" width="5.9" height="11.81"/><path class="cls-16" d="M171.48,327V327l0,0a3.1,3.1,0,0,0-.48-1.74l-14.89-44.45H125.55l12.54,20.43c0-.17,1,2.79,3.73,2.91,1.8.08,4.52-2.4,5.24-.66l11.39,19.74a5.14,5.14,0,0,1-.11,4.13l-17.26,37.62a.45.45,0,0,0,.19.59l5.2,3.38a.41.41,0,0,0,.56-.2L171,329l.13-.2a2.81,2.81,0,0,0,.41-1.58s0,0,0,0v-.24Z"/><path class="cls-12" d="M162.91,169.6c-2.46,0-2.61,6.63-6.37,3.67-1-.8-1.41,1-3.06-.27-3.57-2.8-8.68.27-8.68.27-3.26,0-5.73.76-7.35,2.46-.09.09-.5,0-.5,0-.91,0-1,.64-1,1.44v17.51c0,.75-2.09,1.4-1.27,3,0,0-.56,2.39.49,1.63l1.24,1.39,4.15-15c0-.54,2.44-3.8,2.95-3.8l18.58,1.41c4.57,0,8-5.95,5.14-11A5,5,0,0,0,162.91,169.6Z"/><path class="cls-12" d="M136.67,201.69l-1.6-1.8a.72.72,0,0,1-.59-.07c-.53-.33-.44-1.16-.29-2.05v0a2.19,2.19,0,0,1,.86-2.6,2.18,2.18,0,0,0,.43-.47V177.17c0-.63,0-1.94,1.47-1.94h.11l.14,0c1.65-1.65,4.1-2.47,7.46-2.49.84-.47,5.6-2.93,9.13-.17.68.53,1,.4,1.39.19a1.41,1.41,0,0,1,1.67.08,2.16,2.16,0,0,0,1.62.63c.71-.14,1.25-1.09,1.78-2,.68-1.18,1.39-2.41,2.66-2.41h0a5.53,5.53,0,0,1,4.78,2.9,8.33,8.33,0,0,1,0,8.36,6.52,6.52,0,0,1-5.55,3.43l-18.51-1.41a13.44,13.44,0,0,0-2.52,3.34Zm-1.4-3.08.93,1,3.89-14.07c.14-1.19,2.91-4.21,3.44-4.21l18.62,1.42a5.53,5.53,0,0,0,4.65-2.94,7.34,7.34,0,0,0,0-7.36,4.53,4.53,0,0,0-3.9-2.39h0c-.7,0-1.23.93-1.8,1.91s-1.3,2.27-2.46,2.49a3,3,0,0,1-2.43-.83c-.2-.16-.25-.14-.62,0a2,2,0,0,1-2.43-.31c-3.27-2.56-8.07.28-8.12.31l-.12.07h-.14c-3.22,0-5.51.75-7,2.3-.12.12-.34.27-.91.15-.3,0-.42.05-.42.94v17.51a1.76,1.76,0,0,1-.74,1.18c-.64.61-.91,1-.59,1.56.09.11.06.27,0,.51a7.07,7.07,0,0,0-.1.81Z"/><path class="cls-8" d="M163.3,182l1.2,14.46H162s1.85,12.78-13.64,11.44l.87,8.14s-10.35,5.81-12.76-3l.21-16.1s-5.39-5.16,1.16-6.53c-.19-.14.32-1.93,2.16-5a5.57,5.57,0,0,0,.27-3.42Z"/><path class="cls-12" d="M156.21,201.93h0a5.57,5.57,0,0,1-3.76-2.86.37.37,0,1,1,.65-.38,4.84,4.84,0,0,0,3.21,2.5.38.38,0,0,1,0,.75Z"/><path class="cls-13" d="M149.2,216.07l-2.14,1.73,1.27-9.87Z"/><path class="cls-17" d="M135.15,212.51s4.18,11.2,14.9,3.22c0,0,6.12,11,7,15.75s1.39,50.27,1.39,50.27L125.67,281s-3.1-41.45,0-52.39C127,224.06,130.87,214.86,135.15,212.51Z"/><path class="cls-18" d="M142.89,219a8.85,8.85,0,0,1-2.92-.48,10.28,10.28,0,0,1-5.76-5.63,1,1,0,1,1,1.87-.71,8.38,8.38,0,0,0,4.56,4.46c2.41.83,5.32.24,8.64-1.75a1,1,0,1,1,1,1.72A14.7,14.7,0,0,1,142.89,219Z"/><path class="cls-16" d="M124.8,233.74s-.31,3.81-.35,5l33-.08-.24-4.38Z"/><path class="cls-16" d="M124.31,243.89s0,2.78,0,4.77l33.52-.28-.16-4.34Z"/><path class="cls-13" d="M137.68,192l-.42,3.32S134.2,192.73,137.68,192Z"/><ellipse class="cls-19" cx="166.43" cy="189.9" rx="0.67" ry="0.71"/><ellipse class="cls-19" cx="158.38" cy="189.19" rx="0.67" ry="0.71"/><path class="cls-13" d="M141.93,183.79l21.4-1.81-23.06,0s.68,1.06-1.82,6.35C138.45,188.31,142.44,184.59,141.93,183.79Z"/><path class="cls-16" d="M135.7,381H129a.37.37,0,0,1-.36-.38l.94-55.39-4-43.93h13.11c.2,0,3,.17,3,.38L143,326.43l-7,54.17A.37.37,0,0,1,135.7,381Z"/><path class="cls-20" d="M142.63,386.94,129,386.87a.42.42,0,0,1-.4-.44l.08-3.51a.42.42,0,0,1,.4-.42l6.81-.06h0c.71,1,6.6,2.8,7.09,3.51C143.17,386.32,143,387,142.63,386.94Z"/><path class="cls-20" d="M149.23,378.13l-11-8.52a.44.44,0,0,1-.08-.61l2-2.79a.39.39,0,0,1,.56-.09l5.54,4.17h0c0,1.28,3.79,6.35,3.79,7.23C150,378,149.51,378.36,149.23,378.13Z"/><path class="cls-14" d="M200.73,299.14a.5.5,0,0,1-.48-.35l-7.51-24H180.32a.5.5,0,0,1,0-1h12.79a.5.5,0,0,1,.48.35l7.62,24.4a.5.5,0,0,1-.33.63Z"/><path class="cls-8" d="M169.33,280.42l0-1.45a1.06,1.06,0,0,0-.67-1c-2.24-.79-6.92-1.76-8.35-1.42-9-1.82-22.36-19.72-20.82-28.19l-8.54-1.73c-2.44,13.37,12.29,32.4,26,35.17,0,.81,1.24,2.7,4.68,5.33,2.92,2.24,7.06,2.72,8.51,1.27.54-.54,0-1.14.6-1.4,1.54-.63.68-1.65,1-1.91C173.34,283.78,172.2,282.79,169.33,280.42Z"/><path class="cls-9" d="M141.78,235.74c0-3.71-2.27-7.31-6.45-7.31-3.45,0-5.89,4-6.1,7.58l-.35,14,12.36.27Z"/></g><g id="pagamenti_carta"><path class="cls-23" d="M1384.34,741.38a8.48,8.48,0,1,1,2.67-11.64,8.49,8.49,0,0,1-2.67,11.64"/><g class="cls-24"><polygon class="cls-12" points="-252.95 285.2 -379 873.54 1837.92 1345.18 1963.97 756.84 -252.95 285.2"/></g><path class="cls-25" d="M1393,739.39a8.5,8.5,0,0,0-4.88-3.67,8.66,8.66,0,0,0-1.21-.25l.91,1.45a8.62,8.62,0,0,1-.42,1l-1.6-2.55a8.48,8.48,0,0,0-1,.06l2.11,3.38a8.35,8.35,0,0,1-.57.78l-2.49-4a8.36,8.36,0,0,0-.89.26l2.76,4.4a8.46,8.46,0,0,1-3.93,2.15l-2.49-4a8.43,8.43,0,0,0-.57.78l2.11,3.38a8.46,8.46,0,0,1-1,.06l-1.59-2.55a8.49,8.49,0,0,0-.42,1l.91,1.45a8.52,8.52,0,0,1-1.21-.25,8.46,8.46,0,1,0,15.5-2.93"/><g class="cls-26"><polygon class="cls-8" points="-252.95 285.2 -379 873.54 1837.92 1345.18 1963.97 756.84 -252.95 285.2"/></g></g></svg>