<svg xmlns="http://www.w3.org/2000/svg" xmlns:xlink="http://www.w3.org/1999/xlink" viewBox="0 0 400 400"><defs><style>.cls-1,.cls-2{fill:none;}.cls-2,.cls-3,.cls-4{clip-rule:evenodd;}.cls-11,.cls-13,.cls-3{fill:#fca664;}.cls-14,.cls-16,.cls-4{fill:#ffddba;}.cls-5{clip-path:url(#clip-path);}.cls-6{font-size:40px;font-family:FaktSoftPro-BlackItalic, Fakt Soft Pro;font-style:italic;}.cls-25,.cls-6{fill:#00a5ff;}.cls-7{letter-spacing:0em;}.cls-8{letter-spacing:-0.02em;}.cls-9{clip-path:url(#clip-path-2);}.cls-10{clip-path:url(#clip-path-3);}.cls-11,.cls-14{fill-rule:evenodd;}.cls-12{clip-path:url(#clip-path-4);}.cls-15{clip-path:url(#clip-path-5);}.cls-17{fill:#fff;}.cls-18{fill:#e9e3d7;}.cls-19{fill:#f2eee6;}.cls-20{fill:#201849;}.cls-21{fill:#5cc5ff;}.cls-22{fill:#003c5d;}.cls-23{fill:#b9e6ff;}.cls-24{fill:#453f6b;}.cls-26{fill:#ffc296;}.cls-27{fill:#bab7cc;}.cls-28{clip-path:url(#clip-path-6);}.cls-29{fill:#016aa3;}.cls-30{fill:#8682a2;}</style><clipPath id="clip-path"><ellipse class="cls-1" cx="1010.7" cy="309.79" rx="4.8" ry="4.8" transform="translate(68.46 789.03) rotate(-44)"/></clipPath><clipPath id="clip-path-2"><path class="cls-2" d="M1813.16,618.69a4.71,4.71,0,0,1,6.47,1.49l60.47,96.63a4.67,4.67,0,0,1-1.5,6.45l-58.55,36.38a4.71,4.71,0,0,1-6.47-1.49l-60.47-96.63a4.67,4.67,0,0,1,1.5-6.45Z"/></clipPath><clipPath id="clip-path-3"><path class="cls-2" d="M1801.88,639.1a2.69,2.69,0,0,1,3.7.85l6,9.63a2.67,2.67,0,0,1-.86,3.68l-7.67,4.77a2.69,2.69,0,0,1-3.7-.85l-6-9.63a2.67,2.67,0,0,1,.86-3.68Z"/></clipPath><clipPath id="clip-path-4"><path class="cls-3" d="M1818.25,741.38a8.48,8.48,0,1,1,2.67-11.64,8.49,8.49,0,0,1-2.67,11.64"/></clipPath><clipPath id="clip-path-5"><path class="cls-4" d="M1827,739.39a8.5,8.5,0,0,0-4.88-3.67,8.66,8.66,0,0,0-1.21-.25l.91,1.45a8.62,8.62,0,0,1-.42,1l-1.6-2.55a8.48,8.48,0,0,0-1,.06l2.11,3.38a8.35,8.35,0,0,1-.57.78l-2.49-4a8.36,8.36,0,0,0-.89.26l2.76,4.4a8.46,8.46,0,0,1-3.93,2.15l-2.49-4a8.43,8.43,0,0,0-.57.78l2.11,3.38a8.46,8.46,0,0,1-1,.06l-1.59-2.55a8.49,8.49,0,0,0-.42,1l.91,1.45a8.52,8.52,0,0,1-1.21-.25,8.46,8.46,0,1,0,15.5-2.93"/></clipPath><clipPath id="clip-path-6"><path class="cls-1" d="M213.63,185.57s3.84,3.31,7,3,37.52-10.17,43.55,4.65-1.7,23.34-1.7,23.34-5.14,7.59-4.74,9.91-2.39-2.05-2.76-3c-.8-2,1.35-4.57,4.08-7.7,5.43-6.22,4.1-11.33,4.1-11.33s1.92,4.89-11.46,7.21l-.56,5.67a3.06,3.06,0,0,1-1,1.94l-5.36,5s-7.05,1.7-3.33-4.29l4.68-3s-15.29-9.86,6.89-18.9l-10.43,10.22L224,207s2.42,7.07-.85,8.52c-2.39,1.06-5-2.5-5.14-8-.05-2,.41-2.17,1.15-4.57,0,0-14.81,9.06-24.74-3.84a1,1,0,0,1-.19-.79C194.74,195.57,198.23,180.11,213.63,185.57Z"/></clipPath></defs><title>convenienza</title><g id="controllo_spese"><text class="cls-6" transform="translate(0 -9.82)">H<tspan class="cls-7" x="31.36" y="0">o</tspan><tspan x="56.48" y="0">me </tspan><tspan class="cls-8" x="128.16" y="0">P</tspan><tspan x="156" y="0">age</tspan></text></g><g id="pagamenti_carta"><path class="cls-11" d="M1818.25,741.38a8.48,8.48,0,1,1,2.67-11.64,8.49,8.49,0,0,1-2.67,11.64"/><g class="cls-12"><polygon class="cls-13" points="180.96 285.2 54.91 873.54 2271.83 1345.18 2397.88 756.84 180.96 285.2"/></g><path class="cls-14" d="M1827,739.39a8.5,8.5,0,0,0-4.88-3.67,8.66,8.66,0,0,0-1.21-.25l.91,1.45a8.62,8.62,0,0,1-.42,1l-1.6-2.55a8.48,8.48,0,0,0-1,.06l2.11,3.38a8.35,8.35,0,0,1-.57.78l-2.49-4a8.36,8.36,0,0,0-.89.26l2.76,4.4a8.46,8.46,0,0,1-3.93,2.15l-2.49-4a8.43,8.43,0,0,0-.57.78l2.11,3.38a8.46,8.46,0,0,1-1,.06l-1.59-2.55a8.49,8.49,0,0,0-.42,1l.91,1.45a8.52,8.52,0,0,1-1.21-.25,8.46,8.46,0,1,0,15.5-2.93"/><g class="cls-15"><polygon class="cls-16" points="180.96 285.2 54.91 873.54 2271.83 1345.18 2397.88 756.84 180.96 285.2"/></g></g><g id="convenienza"><rect class="cls-17" x="257.47" y="89.57" width="120.49" height="6.43" transform="translate(635.44 185.57) rotate(-180)"/><path class="cls-18" d="M378,97H257.47a1,1,0,0,1-1-1V89.57a1,1,0,0,1,1-1H378a1,1,0,0,1,1,1V96A1,1,0,0,1,378,97ZM258.47,95H377V90.57H258.47Z"/><path class="cls-19" d="M360.91,78.16H348.45a4.61,4.61,0,0,1-1.85-8.83,4,4,0,0,1-.44-1.73A3.11,3.11,0,0,1,349,64.46h.17a4.59,4.59,0,0,1-.25-1.33,4.46,4.46,0,0,1,0-.57,6.93,6.93,0,0,1,3.32-5.05,1.6,1.6,0,0,1,2.1.12,1.67,1.67,0,0,1,.39.87,2,2,0,0,0,.7,1.05,4.59,4.59,0,0,1,1.52,2.85h.27a2.75,2.75,0,0,1,2.51,2.77,2.84,2.84,0,0,1-.11.79,3.37,3.37,0,0,1,2.12,4.72,3.83,3.83,0,0,1,2.92,3.08,3.79,3.79,0,0,1-3.74,4.38ZM349,66.46a1.21,1.21,0,0,0-.82,1.13,1.84,1.84,0,0,0,.74,1.42,1,1,0,0,1-.41,1.91,2.61,2.61,0,1,0,0,5.22h12.46a1.79,1.79,0,0,0,1.76-2.07,1.84,1.84,0,0,0-1.84-1.5h-2.7a1,1,0,0,1,0-2h.57a1.37,1.37,0,1,0,0-2.73h-1a1,1,0,0,1-.4-1.92.91.91,0,0,0,.42-.75.84.84,0,0,0-.53-.77h-.9A1.3,1.3,0,0,1,355,63.13,2.62,2.62,0,0,0,354,61a4.43,4.43,0,0,1-1.07-1.48,4.84,4.84,0,0,0-2,3.27,2.64,2.64,0,0,0,0,.32,2.42,2.42,0,0,0,.73,1.67,1,1,0,0,1-.68,1.73Z"/><polygon class="cls-17" points="346.95 89.26 361.57 89.26 364.7 77.51 343.82 77.51 346.95 89.26"/><path class="cls-18" d="M361.57,90.26H347a1,1,0,0,1-1-.74l-3.13-11.75a1,1,0,0,1,1-1.26H364.7a1,1,0,0,1,1,1.26l-3.13,11.75A1,1,0,0,1,361.57,90.26Zm-13.85-2H360.8l2.6-9.75H345.12Z"/><rect class="cls-17" x="270.2" y="63.28" width="8.18" height="25.44"/><path class="cls-18" d="M278.37,89.73H270.2a1,1,0,0,1-1-1V63.28a1,1,0,0,1,1-1h8.18a1,1,0,0,1,1,1V88.73A1,1,0,0,1,278.37,89.73Zm-7.18-2h6.18V64.28H271.2Z"/><rect class="cls-19" x="294.81" y="70.4" width="7.66" height="1.11" transform="translate(-8.2 62.65) rotate(-11.81)"/><path class="cls-19" d="M295,73.28a1,1,0,0,1-1-.8l-.23-1.09a1,1,0,0,1,.77-1.18l7.5-1.57a1,1,0,0,1,1.18.77l.23,1.09a1,1,0,0,1-.77,1.18l-7.5,1.57Z"/><path class="cls-18" d="M298.67,90.41a1,1,0,0,1-1-.8l-5.23-25a1,1,0,0,1,.77-1.18l7.43-1.55a1,1,0,0,1,1.18.77l5.23,25a1,1,0,0,1-.77,1.18l-7.43,1.55Zm-4-25.25,4.82,23.07,5.47-1.14L300.09,64Z"/><rect class="cls-17" x="278.38" y="55.04" width="8.51" height="33.69"/><path class="cls-18" d="M286.88,89.73h-8.51a1,1,0,0,1-1-1V55a1,1,0,0,1,1-1h8.51a1,1,0,0,1,1,1V88.73A1,1,0,0,1,286.88,89.73Zm-7.51-2h6.51V56h-6.51Z"/><rect class="cls-17" x="287.07" y="59.25" width="6.83" height="29.48"/><path class="cls-18" d="M293.91,89.73h-6.83a1,1,0,0,1-1-1V59.25a1,1,0,0,1,1-1h6.83a1,1,0,0,1,1,1V88.73A1,1,0,0,1,293.91,89.73Zm-5.83-2h4.83V60.25h-4.83Z"/><rect class="cls-17" x="169.19" y="30.03" width="42.59" height="65.97"/><path class="cls-18" d="M211.77,97H169.19a1,1,0,0,1-1-1V30a1,1,0,0,1,1-1h42.59a1,1,0,0,1,1,1V96A1,1,0,0,1,211.77,97Zm-41.59-2h40.59V31H170.19Z"/><path class="cls-19" d="M174.19,79.06a1,1,0,0,1-.8-1.6l10-13.36a1,1,0,0,1,.78-.4,1,1,0,0,1,.8.38l6.68,8.35a1,1,0,1,1-1.56,1.25l-5.87-7.34L175,78.66A1,1,0,0,1,174.19,79.06Z"/><path class="cls-19" d="M184.22,80.73a1,1,0,0,1-.73-1.69l15.87-16.7a1,1,0,0,1,1.54.12l5.85,8.35A1,1,0,0,1,205.11,72L200,64.61l-15,15.81A1,1,0,0,1,184.22,80.73Z"/><path class="cls-19" d="M185.89,50.67a4.34,4.34,0,1,1,4.34-4.34A4.34,4.34,0,0,1,185.89,50.67Zm0-6.68a2.34,2.34,0,1,0,2.34,2.34A2.34,2.34,0,0,0,185.89,44Z"/><path class="cls-18" d="M60.56,231.35H31.12a1,1,0,0,1-1-1V219a1,1,0,0,1,1-1H60.56a1,1,0,0,1,1,1v11.36A1,1,0,0,1,60.56,231.35Zm-28.44-2H59.55V220H32.12Z"/><path class="cls-18" d="M90,231.35H60.56a1,1,0,0,1-1-1V219a1,1,0,0,1,1-1H90a1,1,0,0,1,1,1v11.36A1,1,0,0,1,90,231.35Zm-28.44-2H89V220H61.56Z"/><path class="cls-18" d="M72.82,220H43.38a1,1,0,0,1-1-1V207.62a1,1,0,0,1,1-1H72.82a1,1,0,0,1,1,1V219A1,1,0,0,1,72.82,220Zm-28.44-2H71.82v-9.35H44.39Z"/><path class="cls-18" d="M78.85,242.73H49.41a1,1,0,0,1-1-1V230.37a1,1,0,0,1,1-1H78.85a1,1,0,0,1,1,1v11.36A1,1,0,0,1,78.85,242.73Zm-28.44-2H77.84v-9.35H50.41Z"/><path class="cls-18" d="M339.48,158.38H309a1,1,0,0,1-1-1V145.56a1,1,0,0,1,1-1h30.52a1,1,0,0,1,1,1v11.78A1,1,0,0,1,339.48,158.38ZM310,156.3h28.44v-9.7H310Z"/><path class="cls-18" d="M353,170.19H322.44a1,1,0,0,1-1-1V157.37a1,1,0,0,1,1-1H353a1,1,0,0,1,1,1v11.78A1,1,0,0,1,353,170.19Zm-29.48-2.08h28.44v-9.7H323.48Z"/><rect class="cls-18" x="21" y="377.22" width="358" height="1"/><path class="cls-18" d="M147,380h-9.79c-1.9,0-3.48-1-3.59-2.21l-1.26-13.86h19.5l-1.26,13.86C150.51,379,148.94,380,147,380Z"/><path class="cls-18" d="M266.94,380h-9.79c-1.9,0-3.48-1-3.59-2.21L252.3,363.9h19.5l-1.26,13.86C270.42,379,268.85,380,266.94,380Z"/><path class="cls-19" d="M133.27,216.12,127,254.55a16.82,16.82,0,0,0-.09,4.72l6.75,55.42c1,7.87,7.25,13.76,14.7,13.76H255.77c7.45,0,13.74-5.89,14.7-13.76l6.75-55.42a16.82,16.82,0,0,0-.09-4.72l-6.22-38.43c-1.23-7.58-7.39-13.11-14.61-13.11H147.87C140.66,203,134.49,208.54,133.27,216.12Z"/><rect class="cls-16" x="327.78" y="283.79" width="9.71" height="18.29" transform="translate(-102.23 378.67) rotate(-52.52)"/><path class="cls-20" d="M355,283.87l-16.06,20.77a.78.78,0,0,1-1.1.13l-4.95-4a.78.78,0,0,1-.13-1.08l7.86-10.44h0c2.31.06,11.73-7,13.32-6.94C354.73,282.36,355.42,283.34,355,283.87Z"/><rect class="cls-19" x="122.31" y="331.03" width="159.56" height="37.17"/><path class="cls-18" d="M271,332H133.21v-15.8s27-6.51,69.75-6.51c49.7,0,68,6.51,68,6.51Z"/><rect class="cls-16" x="312.57" y="265.54" width="9.71" height="18.29" transform="translate(-93.7 359.46) rotate(-52.52)"/><path class="cls-20" d="M339.77,265.63,323.7,286.39a.78.78,0,0,1-1.1.13l-4.95-4a.78.78,0,0,1-.13-1.08L325.38,271h0c2.31.06,11.73-7,13.32-6.94C339.52,264.11,340.21,265.09,339.77,265.63Z"/><path class="cls-16" d="M133.59,218.55c-1,4.86.19,3.44,2.75,4.3l1,2.89a.62.62,0,0,0,.58.43c2.89,0,7-2.07,9.39-3.47l0-.17a161,161,0,0,1,24.44,1.8,127.09,127.09,0,0,0-17.59,25.82l13.15,3.42c11.62-15.57,21.27-30.13,13.32-36.1-6.46-4.85-24.31-3.81-32.42-1.41-.19-.69-1.11-1.06-6.08-2C135.38,212.7,134.51,213.87,133.59,218.55Z"/><path class="cls-16" d="M167.45,253.91l-13.71-3.56.17-.33a131.11,131.11,0,0,1,17.24-25.46l-.71-.1a151.07,151.07,0,0,0-22.87-1.64v.06l-.12.07c-2.25,1.29-6.48,3.46-9.54,3.51a.87.87,0,0,1-.87-.63l-.93-2.75a8.51,8.51,0,0,0-1.4-.28c-.65-.09-1.17-.16-1.48-.6s-.37-1.51.07-3.71c1-5,2.13-6.08,8.91-4.75,4.65.91,5.83,1.31,6.2,2,7.64-2.17,25.63-3.57,32.43,1.53,8.27,6.21-2,21.45-13.26,36.52ZM154.62,250l12.6,3.27c11-14.78,21.07-29.66,13.26-35.52-6.44-4.84-24.48-3.63-32.16-1.36l-.29.09-.08-.29c-.15-.56-1.46-1-5.85-1.83-6.77-1.33-7.36,0-8.21,4.28l-.29-.06.29.06c-.38,1.91-.43,2.88-.17,3.25s.48.28,1.08.36a8.73,8.73,0,0,1,1.64.35l.14,0,1,3c0,.14.19.26.3.23,2.87,0,6.9-2.09,9.13-3.36l0-.27h.25a151,151,0,0,1,23.21,1.64c.61.09,1.13.16,1.23.16h.69l-.47.51A127.94,127.94,0,0,0,154.62,250Z"/><path class="cls-21" d="M142.73,252.62c-4,3.68-5.42,9.83-1,14.57,3.63,3.9,10.49,2.68,14.52-.63l15.29-13.48-12.75-14.27Z"/><path class="cls-22" d="M325.24,294.28l6.46-9.12-46.44-40.35a5.67,5.67,0,0,0-6.46-.71L260,254.41l-43.89,24.72-11.75,14L206.91,322,280,263.87Z"/><path class="cls-22" d="M248.06,253.61l-8.36,16-35.35,23.57L203.91,283l34.95-52.28c.23-.72,4.51-1,5.14-.6l74.77,36-8.36,8.36Z"/><path class="cls-23" d="M208.32,323.28s-43.51-3.14-65.18-22.53-22.84-51.61-22.84-51.61,4.39,8.5,21.6,1h0s22.77,29,62.69,32.39Z"/><path class="cls-16" d="M202.2,238.19c-6.19.49-2.12,3.89-2.67,7a1.3,1.3,0,0,1-1.13,1l-3.78.49a1,1,0,0,0-.75.75c-.59,3.69,1.76,7.59,3.55,11.47a1.32,1.32,0,0,0,.31.43l.28.26c.51,15.31-7.42,26.53-9.56,29.64a1.33,1.33,0,0,1-1.53.5c-3.56-1.24-16-6.09-30.62-17.53a1.34,1.34,0,0,0-2,.5l-5,11a1.34,1.34,0,0,0,.39,1.6c17.73,14,39.65,20.21,47,13.57,7.89-7.1,10-28.23,8.75-38.23l.15,0c1.1-2,1.1-2,2.76-10C210.14,242.19,203.92,238.05,202.2,238.19Z"/><path class="cls-21" d="M143.6,261c-5.18-2.85-12.07-2.27-15.49,3.92-2.82,5.1.78,11.8,5.6,14.85l19.23,11.27L163.43,273Z"/><path class="cls-20" d="M200.57,252a1.44,1.44,0,0,1-1.82-1.07l-6.69-24.58a1.65,1.65,0,0,1,1-2l.15,0a1.44,1.44,0,0,1,1.82,1.07l6.69,24.58a1.65,1.65,0,0,1-1,2Z"/><path class="cls-20" d="M200.14,252.71a2,2,0,0,1-.95-.24,2.22,2.22,0,0,1-1.07-1.38l-6.69-24.58a2.31,2.31,0,0,1,1.41-2.79l.15,0a2,2,0,0,1,1.58.14,2.21,2.21,0,0,1,1.07,1.38l6.69,24.58a2.31,2.31,0,0,1-1.41,2.79l-.15,0A2,2,0,0,1,200.14,252.71Zm-6.52-27.84a.71.71,0,0,0-.22,0l-.15,0a1,1,0,0,0-.56,1.22l6.69,24.58a.91.91,0,0,0,.43.57.69.69,0,0,0,.56,0l.15,0a1,1,0,0,0,.56-1.22l-6.69-24.58A.91.91,0,0,0,194,225,.7.7,0,0,0,193.62,224.87Z"/><path class="cls-24" d="M200.72,251.94c-.78.26,0-.91-.26-1.76l-6.69-24.58c-.23-.85-1.35-1.05-.57-1.31l1.71-.74a1.44,1.44,0,0,1,1.82,1.07l6.12,24.83a1.65,1.65,0,0,1-1,2Z"/><path class="cls-24" d="M200.53,252.63a.81.81,0,0,1-.54-.2c-.38-.33-.29-.82-.22-1.25a2.19,2.19,0,0,0,.05-.82l-6.69-24.58a1.19,1.19,0,0,0-.4-.5,1,1,0,0,1-.45-.93,1,1,0,0,1,.7-.67l1.65-.72a2,2,0,0,1,1.64.12,2.22,2.22,0,0,1,1.07,1.38l6.12,24.85a2.3,2.3,0,0,1-1.41,2.78l-1.13.49A1.23,1.23,0,0,1,200.53,252.63Zm0-1.3h0ZM194,224.66a2,2,0,0,1,.42.77L201.09,250a2.61,2.61,0,0,1,0,1l.48-.21a1,1,0,0,0,.62-1.24l-6.12-24.85a.9.9,0,0,0-.43-.56.69.69,0,0,0-.56,0Zm-.92-.31.29.58.09-.07Z"/><path class="cls-25" d="M198.78,224.51a1,1,0,0,1-.3-1.9l2-.67a1,1,0,1,1,.61,1.86l-2,.67A1,1,0,0,1,198.78,224.51Z"/><path class="cls-25" d="M191.09,221.12a1,1,0,0,1-.94-.73l-.47-1.77a1,1,0,0,1,1.89-.5l.47,1.77a1,1,0,0,1-.94,1.23Z"/><path class="cls-25" d="M196.35,221a1,1,0,0,1-.82-1.5l1.11-1.72a1,1,0,0,1,1.64,1.06l-1.11,1.72A1,1,0,0,1,196.35,221Z"/><path class="cls-20" d="M200.57,252a1.44,1.44,0,0,1-1.82-1.07l-6.69-24.58a1.65,1.65,0,0,1,1-2l.15,0a1.44,1.44,0,0,1,1.82,1.07l6.69,24.58a1.65,1.65,0,0,1-1,2Z"/><path class="cls-20" d="M200.14,252.71a2,2,0,0,1-.95-.24,2.22,2.22,0,0,1-1.07-1.38l-6.69-24.58a2.31,2.31,0,0,1,1.41-2.79l.15,0a2,2,0,0,1,1.58.14,2.21,2.21,0,0,1,1.07,1.38l6.69,24.58a2.31,2.31,0,0,1-1.41,2.79l-.15,0A2,2,0,0,1,200.14,252.71Zm-6.52-27.84a.71.71,0,0,0-.22,0l-.15,0a1,1,0,0,0-.56,1.22l6.69,24.58a.91.91,0,0,0,.43.57.69.69,0,0,0,.56,0l.15,0a1,1,0,0,0,.56-1.22l-6.69-24.58A.91.91,0,0,0,194,225,.7.7,0,0,0,193.62,224.87Z"/><path class="cls-16" d="M198.07,256.44c-.12,1.23-1.17,1-1.59-.11-1.32-3.61-3.3-6.85-2.6-10.54a1.23,1.23,0,0,1,.89-.89l1.9-.48c1.27-.32,1.87.78,1.76,2.09l-.31,3.59Z"/><path class="cls-24" d="M119.75,224.84c-.32-3.42-2.94-6.1-4.7-9a19.55,19.55,0,0,1-1.24-17.16c.77-1.87,2.29-3.87,4.3-3.69-1.13-1-.81-3,.26-4a8.43,8.43,0,0,1,4.09-1.84c9.6-2.36,19.29-4.7,29.17-5a7.38,7.38,0,0,1,4.43.85c2,1.36,2.27,4.17,2.25,6.59a8.52,8.52,0,0,1-.91,4.49c-1.33,2.13-4.12,2.72-6.6,3.12q-15,2.39-30.09,4.5"/><path class="cls-16" d="M155.42,197.51,161,217.76l-3.84.71s6.15,17.68-17.61,20.09L141,251.25s-13.46,10.3-19.42-1.57l-2.53-23.47s-9.5-5.85,0-9.62c1-.15,0-2.84,1.94-7.74.81-2-.49-4.94-.49-4.94Z"/><path class="cls-13" d="M150.57,229.45a8.74,8.74,0,0,1-6.28-3,.59.59,0,0,1,.87-.8,7.41,7.41,0,0,0,5.5,2.65.6.6,0,0,1,.62.56.59.59,0,0,1-.55.62Z"/><path class="cls-26" d="M141.3,250.57l-3.3,2.06,1.44-14.35Z"/><path class="cls-26" d="M119.31,218.88l.24,4.84S114.24,220.86,119.31,218.88Z"/><ellipse class="cls-20" cx="162.21" cy="207.83" rx="1.03" ry="1.02" transform="translate(-35.01 32.88) rotate(-10.45)"/><ellipse class="cls-20" cx="149.86" cy="209.07" rx="1.03" ry="1.02" transform="translate(-35.44 30.66) rotate(-10.45)"/><path class="cls-26" d="M123.59,206l31.84-8.46-35.06,6.13s.64,2-.52,9.67C119.84,213.31,124.55,207,123.59,206Z"/><path class="cls-24" d="M213.63,185.57s3.84,3.31,7,3,37.52-10.17,43.55,4.65-1.7,23.34-1.7,23.34-5.14,7.59-4.74,9.91-2.39-2.05-2.76-3c-.8-2,1.35-4.57,4.08-7.7,5.43-6.22,4.1-11.33,4.1-11.33s1.92,4.89-11.46,7.21l-.56,5.67a3.06,3.06,0,0,1-1,1.94l-5.36,5s-7.05,1.7-3.33-4.29l4.68-3s-15.29-9.86,6.89-18.9l-10.43,10.22L224,207s2.42,7.07-.85,8.52c-2.39,1.06-5-2.5-5.14-8-.05-2,.41-2.17,1.15-4.57,0,0-14.81,9.06-24.74-3.84a1,1,0,0,1-.19-.79C194.74,195.57,198.23,180.11,213.63,185.57Z"/><path class="cls-24" d="M212.77,181.23,215,187l-7.42-2.23,4.56-3.68A.41.41,0,0,1,212.77,181.23Z"/><path class="cls-24" d="M194.41,185.15l6.76,1.68-4.19,5-2.92-6.29A.3.3,0,0,1,194.41,185.15Z"/><path class="cls-25" d="M202.22,194.52a.66.66,0,0,1-.73.56.63.63,0,0,1-.61-.67.66.66,0,0,1,.73-.56A.63.63,0,0,1,202.22,194.52Z"/><path class="cls-25" d="M210,191.74a.66.66,0,0,1-.73.56.63.63,0,0,1-.61-.67.66.66,0,0,1,.73-.56A.63.63,0,0,1,210,191.74Z"/><polygon class="cls-27" points="205.06 195.87 206.84 197.01 207.38 195.34 205.06 195.87"/><path class="cls-27" d="M203.38,199.52a4.44,4.44,0,0,1-2.62-.91.45.45,0,0,1,.57-.69,3.52,3.52,0,0,0,2.41.68,4.18,4.18,0,0,0,2.75-1.86l.23-.3.33.17a4.35,4.35,0,0,0,3.35.23,3.51,3.51,0,0,0,1.7-2.67.45.45,0,0,1,.88.18,4.34,4.34,0,0,1-2.19,3.3,4.92,4.92,0,0,1-3.8-.09,4.84,4.84,0,0,1-3.15,1.93Z"/><rect class="cls-18" x="23.94" y="73.74" width="124.7" height="2.43"/><rect class="cls-18" x="24.76" y="108.07" width="123.88" height="2.43"/><path class="cls-16" d="M134.18,161.45a5.59,5.59,0,1,1,5.59-5.59A5.6,5.6,0,0,1,134.18,161.45Zm0-9.19a3.59,3.59,0,1,0,3.59,3.6A3.6,3.6,0,0,0,134.18,152.26Z"/><path class="cls-16" d="M143.5,170.84a4.57,4.57,0,1,1,4.57-4.57A4.57,4.57,0,0,1,143.5,170.84Zm0-7.13a2.57,2.57,0,1,0,2.57,2.56A2.57,2.57,0,0,0,143.5,163.71Z"/><path class="cls-16" d="M86.33,156.58c-36.34,0-65.9-28.9-65.9-64.42S50,27.74,86.33,27.74s65.9,28.9,65.9,64.42S122.67,156.58,86.33,156.58Zm0-126.52c-35.06,0-63.59,27.86-63.59,62.11s28.53,62.11,63.59,62.11,63.59-27.86,63.59-62.11S121.39,30.05,86.33,30.05Z"/><rect class="cls-19" x="260.09" y="269.14" width="47" height="102" rx="12" ry="12"/><rect class="cls-19" x="97.09" y="269.14" width="47" height="102" rx="12" ry="12"/><rect class="cls-18" x="107.14" y="278.63" width="26.9" height="71.92" rx="5" ry="5"/><g class="cls-28"><path class="cls-27" d="M232.75,198.73a.6.6,0,0,1-.28-1.13c.07,0,3.15-1.94,1.92-11.61a.6.6,0,1,1,1.19-.15c1.36,10.72-2.4,12.75-2.56,12.83A.59.59,0,0,1,232.75,198.73Z"/><path class="cls-27" d="M244.18,198.36a.6.6,0,0,1-.2-1.17c1.71-.59,2.22-5.35,2.63-9.17.1-.94.2-1.85.31-2.7a.6.6,0,1,1,1.19.16c-.11.84-.21,1.75-.31,2.67-.49,4.59-1,9.34-3.43,10.18A.61.61,0,0,1,244.18,198.36Z"/><path class="cls-27" d="M253.86,199.44a.6.6,0,0,1-.07-1.19c.12,0,2.37-.77,6.27-9.56a.6.6,0,0,1,1.1.49c-4.28,9.65-6.8,10.25-7.26,10.27Z"/></g><rect class="cls-18" x="270.14" y="278.63" width="26.9" height="71.92" rx="5" ry="5"/><polygon class="cls-18" points="139.9 368.17 144.08 333.56 143.99 301.62 144.84 333.56 139.9 368.17"/><polygon class="cls-18" points="263.98 368.07 260.11 333.45 260.11 278.51 259.14 333.64 263.98 368.07"/><polygon class="cls-29" points="242.33 265.01 219.22 281.78 212.23 288.47 218.18 281.39 242.33 265.01"/><path class="cls-30" d="M58.54,58.6v-.17a.46.46,0,0,1,0-.19l.09-.18,4.06-5.58H59.16a.38.38,0,0,1-.43-.43v-.18a.38.38,0,0,1,.43-.43h4.76a.38.38,0,0,1,.43.43v.17a.46.46,0,0,1,0,.19,1,1,0,0,1-.1.18L60.13,58h3.75a.41.41,0,0,1,.31.11.45.45,0,0,1,.1.32v.18a.45.45,0,0,1-.1.32.41.41,0,0,1-.31.11H59a.38.38,0,0,1-.43-.43Z"/><path class="cls-30" d="M65.26,56.35a2.58,2.58,0,0,1,2.67-2.71,2.57,2.57,0,0,1,1.79.62A2.17,2.17,0,0,1,70.4,56a.45.45,0,0,1-.12.34.51.51,0,0,1-.36.12H66.49a2,2,0,0,0,.43,1.21,1.32,1.32,0,0,0,1,.45,1.42,1.42,0,0,0,.69-.15,1.1,1.1,0,0,0,.41-.38,1,1,0,0,1,.2-.22.42.42,0,0,1,.26-.08h.35c.18,0,.3.06.34.18a.4.4,0,0,1,0,.35,2.13,2.13,0,0,1-.85.9,2.62,2.62,0,0,1-4.08-2.34Zm1.29-.74h2.68a1.16,1.16,0,0,0-.41-.79,1.42,1.42,0,0,0-.89-.25,1.45,1.45,0,0,0-.89.28A1.31,1.31,0,0,0,66.55,55.62Z"/><path class="cls-30" d="M71.71,58.54V54.12a.41.41,0,0,1,.46-.46h.22a.44.44,0,0,1,.35.13.57.57,0,0,1,.12.39v.37h0a1.61,1.61,0,0,1,.55-.66,1.5,1.5,0,0,1,.86-.24h.31a.49.49,0,0,1,.29.15.36.36,0,0,1,.06.33l-.09.37a.57.57,0,0,1-.09.22.23.23,0,0,1-.16.09.81.81,0,0,1-.24,0,1,1,0,0,0-.3,0,1,1,0,0,0-.89.48,2,2,0,0,0-.3,1.06v2.28a.47.47,0,0,1-.12.35.5.5,0,0,1-.36.12h-.21a.51.51,0,0,1-.37-.12A.48.48,0,0,1,71.71,58.54Z"/><path class="cls-30" d="M75.6,56.34a2.56,2.56,0,0,1,.78-2,3,3,0,0,1,3.94,0,2.62,2.62,0,0,1,.75,2,2.57,2.57,0,0,1-.77,2,3.05,3.05,0,0,1-3.95,0A2.62,2.62,0,0,1,75.6,56.34Zm1.23,0a1.85,1.85,0,0,0,.42,1.26,1.47,1.47,0,0,0,2.17,0,2.13,2.13,0,0,0,0-2.53,1.4,1.4,0,0,0-1.09-.46,1.37,1.37,0,0,0-1.09.48A1.85,1.85,0,0,0,76.83,56.34Z"/><path class="cls-30" d="M84.64,57.82a.3.3,0,0,1,0-.32.43.43,0,0,1,.33-.12h.27a.58.58,0,0,1,.29.06.59.59,0,0,1,.19.17,1.11,1.11,0,0,0,.48.45,1.75,1.75,0,0,0,.7.12,1.84,1.84,0,0,0,.92-.18.59.59,0,0,0,.31-.54A.49.49,0,0,0,88,57a1.49,1.49,0,0,0-.61-.2l-1-.16a3,3,0,0,1-1.11-.4,1.1,1.1,0,0,1-.5-1,1.33,1.33,0,0,1,.64-1.19A2.88,2.88,0,0,1,87,53.65a3.41,3.41,0,0,1,1.42.28,1.3,1.3,0,0,1,.78.89.3.3,0,0,1,0,.32.43.43,0,0,1-.33.12h-.3a.43.43,0,0,1-.27-.07.8.8,0,0,1-.17-.19,1,1,0,0,0-.43-.37,1.6,1.6,0,0,0-.66-.12,1.66,1.66,0,0,0-.78.16.53.53,0,0,0-.31.5.47.47,0,0,0,.21.41,1.68,1.68,0,0,0,.68.22l1,.17a3.06,3.06,0,0,1,1.1.4,1.09,1.09,0,0,1,.48,1,1.38,1.38,0,0,1-.68,1.25,3.27,3.27,0,0,1-1.74.42,3.43,3.43,0,0,1-1.49-.3A1.39,1.39,0,0,1,84.64,57.82Z"/><path class="cls-30" d="M91.87,60v1a.43.43,0,0,1-.48.48h-.21a.51.51,0,0,1-.37-.12.48.48,0,0,1-.13-.36V54.12a.41.41,0,0,1,.46-.46h.22a.45.45,0,0,1,.33.12.49.49,0,0,1,.13.34v.35h0a1.43,1.43,0,0,1,.71-.62,2.75,2.75,0,0,1,1.07-.2,2.32,2.32,0,0,1,1.7.69,2.65,2.65,0,0,1,.69,2,2.71,2.71,0,0,1-.73,2,2.39,2.39,0,0,1-1.75.73,2.45,2.45,0,0,1-1-.2,1.45,1.45,0,0,1-.68-.62h0q0,.53,0,1T91.87,60Zm0-3.69a1.82,1.82,0,0,0,.42,1.28,1.37,1.37,0,0,0,1,.46,1.33,1.33,0,0,0,1-.48,1.91,1.91,0,0,0,.42-1.3A1.75,1.75,0,0,0,94.38,55a1.45,1.45,0,0,0-2.09,0A1.81,1.81,0,0,0,91.87,56.34Z"/><path class="cls-30" d="M97,56.35a2.58,2.58,0,0,1,2.67-2.71,2.57,2.57,0,0,1,1.79.62,2.17,2.17,0,0,1,.69,1.7.45.45,0,0,1-.12.34.51.51,0,0,1-.36.12H98.24a2,2,0,0,0,.43,1.21,1.32,1.32,0,0,0,1,.45,1.42,1.42,0,0,0,.69-.15,1.1,1.1,0,0,0,.41-.38,1,1,0,0,1,.2-.22.42.42,0,0,1,.26-.08h.35c.18,0,.3.06.34.18a.4.4,0,0,1,0,.35,2.13,2.13,0,0,1-.85.9A2.62,2.62,0,0,1,97,56.35Zm1.29-.74H101a1.16,1.16,0,0,0-.41-.79,1.42,1.42,0,0,0-.89-.25,1.45,1.45,0,0,0-.89.28A1.31,1.31,0,0,0,98.29,55.62Z"/><path class="cls-30" d="M103.13,57.82a.3.3,0,0,1,0-.32.43.43,0,0,1,.33-.12h.27a.58.58,0,0,1,.29.06.59.59,0,0,1,.19.17,1.11,1.11,0,0,0,.48.45,1.75,1.75,0,0,0,.7.12,1.84,1.84,0,0,0,.92-.18.59.59,0,0,0,.31-.54.49.49,0,0,0-.2-.43,1.49,1.49,0,0,0-.61-.2l-1-.16a3,3,0,0,1-1.11-.4,1.1,1.1,0,0,1-.5-1,1.33,1.33,0,0,1,.64-1.19,2.88,2.88,0,0,1,1.59-.41,3.41,3.41,0,0,1,1.42.28,1.3,1.3,0,0,1,.78.89.3.3,0,0,1,0,.32.43.43,0,0,1-.33.12H107a.43.43,0,0,1-.27-.07.8.8,0,0,1-.17-.19,1,1,0,0,0-.43-.37,1.6,1.6,0,0,0-.66-.12,1.66,1.66,0,0,0-.78.16.53.53,0,0,0-.31.5.47.47,0,0,0,.21.41,1.68,1.68,0,0,0,.68.22l1,.17a3.06,3.06,0,0,1,1.1.4,1.09,1.09,0,0,1,.48,1,1.38,1.38,0,0,1-.68,1.25,3.27,3.27,0,0,1-1.74.42,3.43,3.43,0,0,1-1.49-.3A1.39,1.39,0,0,1,103.13,57.82Z"/><path class="cls-30" d="M108.78,56.35a2.58,2.58,0,0,1,2.67-2.71,2.57,2.57,0,0,1,1.79.62,2.17,2.17,0,0,1,.69,1.7.45.45,0,0,1-.12.34.51.51,0,0,1-.36.12H110a2,2,0,0,0,.43,1.21,1.32,1.32,0,0,0,1,.45,1.42,1.42,0,0,0,.69-.15,1.1,1.1,0,0,0,.41-.38,1,1,0,0,1,.2-.22.42.42,0,0,1,.26-.08h.35c.18,0,.3.06.34.18a.4.4,0,0,1,0,.35,2.13,2.13,0,0,1-.85.9,2.62,2.62,0,0,1-4.08-2.34Zm1.29-.74h2.68a1.16,1.16,0,0,0-.41-.79,1.42,1.42,0,0,0-.89-.25,1.45,1.45,0,0,0-.89.28A1.31,1.31,0,0,0,110.07,55.62Z"/><path class="cls-30" d="M47.47,125.34l2.43-6.51a.85.85,0,0,1,.24-.37.63.63,0,0,1,.42-.13h.49a.7.7,0,0,1,.44.13.79.79,0,0,1,.25.37l2.41,6.51a.45.45,0,0,1,0,.42.43.43,0,0,1-.37.14h-.33a.51.51,0,0,1-.36-.12.92.92,0,0,1-.21-.36l-.49-1.4H49.18l-.49,1.4a.92.92,0,0,1-.21.36.51.51,0,0,1-.36.12h-.26a.45.45,0,0,1-.37-.14A.42.42,0,0,1,47.47,125.34ZM49.54,123H52l-1.21-3.43h0Z"/><path class="cls-30" d="M54.89,123.21a2.59,2.59,0,0,1,.76-2,2.67,2.67,0,0,1,1.92-.73,2.58,2.58,0,0,1,1.48.38,2.15,2.15,0,0,1,.8,1,.5.5,0,0,1,0,.38q-.07.18-.35.18h-.31a.54.54,0,0,1-.29-.07.51.51,0,0,1-.19-.23,1.19,1.19,0,0,0-.4-.46,1.27,1.27,0,0,0-.75-.2,1.34,1.34,0,0,0-1,.48,2.07,2.07,0,0,0,0,2.51,1.34,1.34,0,0,0,1,.48,1.25,1.25,0,0,0,.77-.2,1.24,1.24,0,0,0,.38-.46.51.51,0,0,1,.19-.23.54.54,0,0,1,.29-.07h.31q.29,0,.35.18a.5.5,0,0,1,0,.38,2.15,2.15,0,0,1-.8,1,2.59,2.59,0,0,1-1.48.38,2.5,2.5,0,0,1-2.68-2.7Z"/><path class="cls-30" d="M60.86,123.26a2.71,2.71,0,0,1,.73-2,2.39,2.39,0,0,1,1.75-.73,2.46,2.46,0,0,1,1,.2,1.45,1.45,0,0,1,.68.62h0V121a.46.46,0,0,1,.12-.34.47.47,0,0,1,.35-.12h.21a.47.47,0,0,1,.35.12.49.49,0,0,1,.11.35v6.86a.43.43,0,0,1-.48.48h-.22a.43.43,0,0,1-.48-.48v-1q0-.28,0-.78t0-1h0a1.43,1.43,0,0,1-.71.62,2.76,2.76,0,0,1-1.07.2,2.32,2.32,0,0,1-1.7-.69A2.65,2.65,0,0,1,60.86,123.26Zm1.23,0a1.75,1.75,0,0,0,.42,1.26,1.45,1.45,0,0,0,2.09,0,2.15,2.15,0,0,0,0-2.56,1.37,1.37,0,0,0-1-.46,1.33,1.33,0,0,0-1,.48A1.91,1.91,0,0,0,62.1,123.26Z"/><path class="cls-30" d="M67.83,123.72V121a.46.46,0,0,1,.13-.35.52.52,0,0,1,.37-.12h.21a.5.5,0,0,1,.36.12A.47.47,0,0,1,69,121v2.55a1.49,1.49,0,0,0,.32,1.08,1.13,1.13,0,0,0,.82.31,1.16,1.16,0,0,0,.93-.45,1.88,1.88,0,0,0,.37-1.23V121a.47.47,0,0,1,.12-.35.5.5,0,0,1,.36-.12h.22a.43.43,0,0,1,.48.48v4.42a.41.41,0,0,1-.46.46H72a.44.44,0,0,1-.35-.13.58.58,0,0,1-.12-.39V125h0a1.57,1.57,0,0,1-.64.67,2,2,0,0,1-1,.23,2.19,2.19,0,0,1-1.41-.49A2.07,2.07,0,0,1,67.83,123.72Z"/><path class="cls-30" d="M74.83,119.06a.53.53,0,0,1-.37-.12.46.46,0,0,1-.13-.36v-.26a.46.46,0,0,1,.13-.36.53.53,0,0,1,.37-.12h.3a.51.51,0,0,1,.36.12.47.47,0,0,1,.12.36v.26a.47.47,0,0,1-.12.36.51.51,0,0,1-.36.12Zm-.45,6.36V121a.48.48,0,0,1,.13-.36.51.51,0,0,1,.37-.12h.21a.43.43,0,0,1,.48.48v4.4a.43.43,0,0,1-.48.48h-.21a.51.51,0,0,1-.37-.12A.48.48,0,0,1,74.38,125.42Z"/><path class="cls-30" d="M77,124.69a.3.3,0,0,1,0-.32.43.43,0,0,1,.33-.12h.27a.58.58,0,0,1,.29.06.59.59,0,0,1,.19.17,1.11,1.11,0,0,0,.48.45,1.75,1.75,0,0,0,.7.12,1.84,1.84,0,0,0,.92-.18.59.59,0,0,0,.31-.54.49.49,0,0,0-.2-.43,1.49,1.49,0,0,0-.61-.2l-1-.16a3,3,0,0,1-1.11-.4,1.1,1.1,0,0,1-.5-1,1.33,1.33,0,0,1,.64-1.19,2.88,2.88,0,0,1,1.59-.41,3.41,3.41,0,0,1,1.42.28,1.3,1.3,0,0,1,.78.89.3.3,0,0,1,0,.32.43.43,0,0,1-.33.12h-.3a.43.43,0,0,1-.27-.07.8.8,0,0,1-.17-.19,1,1,0,0,0-.43-.37,1.6,1.6,0,0,0-.66-.12,1.66,1.66,0,0,0-.78.16.53.53,0,0,0-.31.5.47.47,0,0,0,.21.41,1.68,1.68,0,0,0,.68.22l1,.17a3.06,3.06,0,0,1,1.1.4,1.09,1.09,0,0,1,.48,1,1.38,1.38,0,0,1-.68,1.25,3.27,3.27,0,0,1-1.74.42,3.43,3.43,0,0,1-1.49-.3A1.39,1.39,0,0,1,77,124.69Z"/><path class="cls-30" d="M83.17,124.23v-2.77h-.64a.33.33,0,0,1-.37-.37v-.18a.33.33,0,0,1,.37-.37h.64v-1.14a.43.43,0,0,1,.48-.48h.22a.43.43,0,0,1,.48.48v1.14h1a.33.33,0,0,1,.37.37v.18a.33.33,0,0,1-.37.37h-1v2.72a.8.8,0,0,0,.17.57.74.74,0,0,0,.54.16h.26a.42.42,0,0,1,.3.1.41.41,0,0,1,.1.31v.18a.41.41,0,0,1-.1.31.42.42,0,0,1-.3.1h-.48a1.72,1.72,0,0,1-1.27-.41A1.74,1.74,0,0,1,83.17,124.23Z"/><path class="cls-30" d="M87.37,119.06a.53.53,0,0,1-.37-.12.46.46,0,0,1-.13-.36v-.26A.46.46,0,0,1,87,118a.53.53,0,0,1,.37-.12h.3A.51.51,0,0,1,88,118a.47.47,0,0,1,.12.36v.26a.47.47,0,0,1-.12.36.51.51,0,0,1-.36.12Zm-.45,6.36V121a.48.48,0,0,1,.13-.36.51.51,0,0,1,.37-.12h.21a.43.43,0,0,1,.48.48v4.4a.43.43,0,0,1-.48.48h-.21a.51.51,0,0,1-.37-.12A.48.48,0,0,1,86.92,125.42Z"/><path class="cls-30" d="M92,123.21a2.56,2.56,0,0,1,.78-2,3,3,0,0,1,3.94,0,2.62,2.62,0,0,1,.75,2,2.57,2.57,0,0,1-.77,2,3.05,3.05,0,0,1-3.95,0A2.62,2.62,0,0,1,92,123.21Zm1.23,0a1.85,1.85,0,0,0,.42,1.26,1.47,1.47,0,0,0,2.17,0,2.13,2.13,0,0,0,0-2.53,1.4,1.4,0,0,0-1.09-.46,1.37,1.37,0,0,0-1.09.48A1.85,1.85,0,0,0,93.23,123.21Z"/><path class="cls-30" d="M98.84,125.42V121a.41.41,0,0,1,.46-.46h.22a.42.42,0,0,1,.34.13.64.64,0,0,1,.12.39v.36h0a1.55,1.55,0,0,1,.65-.67,2.1,2.1,0,0,1,1-.23,2.17,2.17,0,0,1,1.4.49,2.08,2.08,0,0,1,.61,1.71v2.71a.48.48,0,0,1-.12.35.5.5,0,0,1-.36.12H103a.5.5,0,0,1-.36-.12.47.47,0,0,1-.12-.35v-2.55a1.5,1.5,0,0,0-.31-1.08,1.13,1.13,0,0,0-.83-.31,1.2,1.2,0,0,0-1,.46,1.85,1.85,0,0,0-.38,1.23v2.26a.47.47,0,0,1-.12.35.5.5,0,0,1-.36.12h-.21a.51.51,0,0,1-.37-.12A.48.48,0,0,1,98.84,125.42Z"/><path class="cls-30" d="M105.34,125.42v-7.08a.48.48,0,0,1,.13-.36.51.51,0,0,1,.37-.12H106a.43.43,0,0,1,.48.48v7.08a.43.43,0,0,1-.48.48h-.21a.51.51,0,0,1-.37-.12A.48.48,0,0,1,105.34,125.42Z"/><path class="cls-30" d="M108.71,119.06a.53.53,0,0,1-.37-.12.46.46,0,0,1-.13-.36v-.26a.46.46,0,0,1,.13-.36.53.53,0,0,1,.37-.12h.3a.51.51,0,0,1,.36.12.47.47,0,0,1,.12.36v.26a.47.47,0,0,1-.12.36.51.51,0,0,1-.36.12Zm-.45,6.36V121a.48.48,0,0,1,.13-.36.51.51,0,0,1,.37-.12H109a.43.43,0,0,1,.48.48v4.4a.43.43,0,0,1-.48.48h-.21a.51.51,0,0,1-.37-.12A.48.48,0,0,1,108.26,125.42Z"/><path class="cls-30" d="M111.18,125.42V121a.41.41,0,0,1,.46-.46h.22a.42.42,0,0,1,.34.13.64.64,0,0,1,.12.39v.36h0a1.55,1.55,0,0,1,.65-.67,2.1,2.1,0,0,1,1-.23,2.17,2.17,0,0,1,1.4.49,2.08,2.08,0,0,1,.61,1.71v2.71a.48.48,0,0,1-.12.35.5.5,0,0,1-.36.12h-.22a.5.5,0,0,1-.36-.12.47.47,0,0,1-.12-.35v-2.55a1.5,1.5,0,0,0-.31-1.08,1.13,1.13,0,0,0-.83-.31,1.2,1.2,0,0,0-1,.46,1.85,1.85,0,0,0-.38,1.23v2.26a.47.47,0,0,1-.12.35.5.5,0,0,1-.36.12h-.21a.51.51,0,0,1-.37-.12A.48.48,0,0,1,111.18,125.42Z"/><path class="cls-30" d="M117.3,123.23a2.58,2.58,0,0,1,2.67-2.71,2.57,2.57,0,0,1,1.79.62,2.17,2.17,0,0,1,.69,1.7.45.45,0,0,1-.12.34.51.51,0,0,1-.36.12h-3.43a2,2,0,0,0,.43,1.21,1.32,1.32,0,0,0,1,.45,1.42,1.42,0,0,0,.69-.15,1.1,1.1,0,0,0,.41-.38,1,1,0,0,1,.2-.22.42.42,0,0,1,.26-.08h.35c.18,0,.3.06.34.18a.4.4,0,0,1,0,.35,2.13,2.13,0,0,1-.85.9,2.62,2.62,0,0,1-4.08-2.34Zm1.29-.74h2.68a1.16,1.16,0,0,0-.41-.79,1.42,1.42,0,0,0-.89-.25,1.45,1.45,0,0,0-.89.28A1.31,1.31,0,0,0,118.59,122.49Z"/><path class="cls-30" d="M56.31,137.23A2.58,2.58,0,0,1,59,134.52a2.57,2.57,0,0,1,1.79.62,2.17,2.17,0,0,1,.69,1.7.45.45,0,0,1-.12.34.51.51,0,0,1-.36.12H57.54A2,2,0,0,0,58,138.5a1.32,1.32,0,0,0,1,.45,1.42,1.42,0,0,0,.69-.15,1.1,1.1,0,0,0,.41-.38,1,1,0,0,1,.2-.22.42.42,0,0,1,.26-.08h.35c.18,0,.3.06.34.18a.4.4,0,0,1,0,.35,2.13,2.13,0,0,1-.85.9,2.62,2.62,0,0,1-4.08-2.34Zm1.29-.74h2.68a1.16,1.16,0,0,0-.41-.79,1.42,1.42,0,0,0-.89-.25,1.45,1.45,0,0,0-.89.28A1.31,1.31,0,0,0,57.6,136.49Z"/><path class="cls-30" d="M65.75,133.06a.53.53,0,0,1-.37-.12.46.46,0,0,1-.13-.36v-.26a.46.46,0,0,1,.13-.36.53.53,0,0,1,.37-.12H66a.51.51,0,0,1,.36.12.47.47,0,0,1,.12.36v.26a.47.47,0,0,1-.12.36.51.51,0,0,1-.36.12Zm-.45,6.36V135a.48.48,0,0,1,.13-.36.51.51,0,0,1,.37-.12H66a.43.43,0,0,1,.48.48v4.4a.43.43,0,0,1-.48.48h-.21a.51.51,0,0,1-.37-.12A.48.48,0,0,1,65.3,139.42Z"/><path class="cls-30" d="M68.22,139.42V135a.41.41,0,0,1,.46-.46h.22a.42.42,0,0,1,.34.13.64.64,0,0,1,.12.39v.36h0a1.55,1.55,0,0,1,.65-.67,2.1,2.1,0,0,1,1-.23,2.17,2.17,0,0,1,1.4.49,2.08,2.08,0,0,1,.61,1.71v2.71a.48.48,0,0,1-.12.35.5.5,0,0,1-.36.12h-.22a.5.5,0,0,1-.36-.12.47.47,0,0,1-.12-.35v-2.55a1.5,1.5,0,0,0-.31-1.08,1.13,1.13,0,0,0-.83-.31,1.2,1.2,0,0,0-1,.46,1.85,1.85,0,0,0-.38,1.23v2.26a.47.47,0,0,1-.12.35.5.5,0,0,1-.36.12h-.21a.51.51,0,0,1-.37-.12A.48.48,0,0,1,68.22,139.42Z"/><path class="cls-30" d="M77.26,139.42V135a.41.41,0,0,1,.46-.46h.22a.42.42,0,0,1,.34.13.64.64,0,0,1,.12.39v.36h0a1.55,1.55,0,0,1,.65-.67,2.1,2.1,0,0,1,1-.23,2.17,2.17,0,0,1,1.4.49,2.08,2.08,0,0,1,.61,1.71v2.71a.48.48,0,0,1-.12.35.5.5,0,0,1-.36.12h-.22a.5.5,0,0,1-.36-.12.47.47,0,0,1-.12-.35v-2.55a1.5,1.5,0,0,0-.31-1.08,1.13,1.13,0,0,0-.83-.31,1.2,1.2,0,0,0-1,.46,1.85,1.85,0,0,0-.38,1.23v2.26a.47.47,0,0,1-.12.35.5.5,0,0,1-.36.12h-.21a.51.51,0,0,1-.37-.12A.48.48,0,0,1,77.26,139.42Z"/><path class="cls-30" d="M83.38,137.23A2.58,2.58,0,0,1,86,134.52a2.57,2.57,0,0,1,1.79.62,2.17,2.17,0,0,1,.69,1.7.45.45,0,0,1-.12.34.51.51,0,0,1-.36.12H84.61A2,2,0,0,0,85,138.5a1.32,1.32,0,0,0,1,.45,1.42,1.42,0,0,0,.69-.15,1.1,1.1,0,0,0,.41-.38,1,1,0,0,1,.2-.22.42.42,0,0,1,.26-.08H88c.18,0,.3.06.34.18a.4.4,0,0,1,0,.35,2.13,2.13,0,0,1-.85.9,2.62,2.62,0,0,1-4.08-2.34Zm1.29-.74h2.68a1.16,1.16,0,0,0-.41-.79,1.42,1.42,0,0,0-.89-.25,1.45,1.45,0,0,0-.89.28A1.31,1.31,0,0,0,84.66,136.49Z"/><path class="cls-30" d="M90,140.44h.3a.51.51,0,0,1,.27.06.53.53,0,0,1,.18.22,1.28,1.28,0,0,0,.47.54,1.6,1.6,0,0,0,.83.18,1.64,1.64,0,0,0,1.16-.41,2,2,0,0,0,.44-1.47V139h0a1.47,1.47,0,0,1-.71.67,2.57,2.57,0,0,1-1.07.21,2.32,2.32,0,0,1-1.7-.69,2.65,2.65,0,0,1-.69-2,2.71,2.71,0,0,1,.73-2,2.39,2.39,0,0,1,1.75-.73,2.65,2.65,0,0,1,1,.18,1.41,1.41,0,0,1,.68.57h0v-.32a.4.4,0,0,1,.12-.31.5.5,0,0,1,.35-.11h.21a.47.47,0,0,1,.35.11.48.48,0,0,1,.11.34v4.59a2.59,2.59,0,0,1-.78,2.13,3,3,0,0,1-2,.63,3.2,3.2,0,0,1-1.52-.34,1.75,1.75,0,0,1-.86-1,.47.47,0,0,1,0-.38A.32.32,0,0,1,90,140.44Zm.67-3.18a1.75,1.75,0,0,0,.42,1.26,1.45,1.45,0,0,0,2.09,0,2.15,2.15,0,0,0,0-2.56,1.37,1.37,0,0,0-1-.46,1.33,1.33,0,0,0-1,.48A1.91,1.91,0,0,0,90.68,137.26Z"/><path class="cls-30" d="M96.16,137.21a2.56,2.56,0,0,1,.78-2,3,3,0,0,1,3.94,0,2.62,2.62,0,0,1,.75,2,2.57,2.57,0,0,1-.77,2,3.05,3.05,0,0,1-3.95,0A2.62,2.62,0,0,1,96.16,137.21Zm1.23,0a1.85,1.85,0,0,0,.42,1.26,1.47,1.47,0,0,0,2.17,0,2.13,2.13,0,0,0,0-2.53,1.4,1.4,0,0,0-1.09-.46,1.37,1.37,0,0,0-1.09.48A1.85,1.85,0,0,0,97.39,137.21Z"/><path class="cls-30" d="M102.58,139.51v-.11a.68.68,0,0,1,0-.24,1.14,1.14,0,0,1,.14-.25l2.66-3.45h-2.48a.38.38,0,0,1-.28-.09.4.4,0,0,1-.09-.29v-.17a.4.4,0,0,1,.09-.29.38.38,0,0,1,.28-.09h3.56a.38.38,0,0,1,.28.09.4.4,0,0,1,.09.29V135a.74.74,0,0,1,0,.23.85.85,0,0,1-.14.25L104,139h2.48a.38.38,0,0,1,.28.09.4.4,0,0,1,.09.29v.17a.4.4,0,0,1-.09.29.38.38,0,0,1-.28.09H103a.33.33,0,0,1-.38-.38Z"/><path class="cls-30" d="M108.63,133.06a.53.53,0,0,1-.37-.12.46.46,0,0,1-.13-.36v-.26a.46.46,0,0,1,.13-.36.53.53,0,0,1,.37-.12h.3a.51.51,0,0,1,.36.12.47.47,0,0,1,.12.36v.26a.47.47,0,0,1-.12.36.51.51,0,0,1-.36.12Zm-.45,6.36V135a.48.48,0,0,1,.13-.36.51.51,0,0,1,.37-.12h.21a.43.43,0,0,1,.48.48v4.4a.43.43,0,0,1-.48.48h-.21a.51.51,0,0,1-.37-.12A.48.48,0,0,1,108.18,139.42Z"/><path class="cls-30" d="M110.73,137.21a2.56,2.56,0,0,1,.78-2,3,3,0,0,1,3.94,0,2.62,2.62,0,0,1,.75,2,2.57,2.57,0,0,1-.77,2,3.05,3.05,0,0,1-3.95,0A2.62,2.62,0,0,1,110.73,137.21Zm1.23,0a1.85,1.85,0,0,0,.42,1.26,1.47,1.47,0,0,0,2.17,0,2.13,2.13,0,0,0,0-2.53,1.4,1.4,0,0,0-1.09-.46,1.37,1.37,0,0,0-1.09.48A1.85,1.85,0,0,0,112,137.21Z"/><path class="cls-30" d="M27.73,94.64V88.06a.49.49,0,0,1,.13-.37.52.52,0,0,1,.37-.13h2.56a2.79,2.79,0,0,1,2,.69A2.36,2.36,0,0,1,33.53,90a2.48,2.48,0,0,1-.71,1.81,2.71,2.71,0,0,1-2,.73H29v2.07a.44.44,0,0,1-.49.5h-.24a.52.52,0,0,1-.37-.13A.49.49,0,0,1,27.73,94.64ZM29,91.54h1.77a1.45,1.45,0,0,0,1.15-.44A1.57,1.57,0,0,0,32.27,90a1.45,1.45,0,0,0-.38-1,1.51,1.51,0,0,0-1.15-.41H29Z"/><path class="cls-30" d="M34.9,94.65V90.22a.41.41,0,0,1,.46-.46h.22a.44.44,0,0,1,.35.13.57.57,0,0,1,.12.39v.37h0a1.61,1.61,0,0,1,.55-.66,1.5,1.5,0,0,1,.86-.24h.31a.49.49,0,0,1,.29.15.36.36,0,0,1,.06.33l-.09.37a.57.57,0,0,1-.09.22.23.23,0,0,1-.16.09.81.81,0,0,1-.24,0,1,1,0,0,0-.3,0,1,1,0,0,0-.89.48,2,2,0,0,0-.3,1.06v2.28A.47.47,0,0,1,36,95a.5.5,0,0,1-.36.12h-.21A.51.51,0,0,1,35,95,.48.48,0,0,1,34.9,94.65Z"/><path class="cls-30" d="M38.78,92.46a2.58,2.58,0,0,1,2.67-2.71,2.57,2.57,0,0,1,1.79.62,2.17,2.17,0,0,1,.69,1.7.45.45,0,0,1-.12.34.51.51,0,0,1-.36.12H40a2,2,0,0,0,.43,1.21,1.32,1.32,0,0,0,1,.45,1.42,1.42,0,0,0,.69-.15,1.1,1.1,0,0,0,.41-.38,1,1,0,0,1,.2-.22.42.42,0,0,1,.26-.08h.35c.18,0,.3.06.34.18a.4.4,0,0,1,0,.35,2.13,2.13,0,0,1-.85.9,2.62,2.62,0,0,1-4.08-2.34Zm1.29-.74h2.68a1.16,1.16,0,0,0-.41-.79,1.42,1.42,0,0,0-.89-.25,1.45,1.45,0,0,0-.89.28A1.31,1.31,0,0,0,40.06,91.72Z"/><path class="cls-30" d="M45.22,94.65V87.56a.48.48,0,0,1,.13-.36.51.51,0,0,1,.37-.12h.21a.43.43,0,0,1,.48.48v7.08a.43.43,0,0,1-.48.48h-.21a.51.51,0,0,1-.37-.12A.48.48,0,0,1,45.22,94.65Z"/><path class="cls-30" d="M48.6,88.29a.53.53,0,0,1-.37-.12.46.46,0,0,1-.13-.36v-.26a.46.46,0,0,1,.13-.36.53.53,0,0,1,.37-.12h.3a.51.51,0,0,1,.36.12.47.47,0,0,1,.12.36v.26a.47.47,0,0,1-.12.36.51.51,0,0,1-.36.12Zm-.45,6.36v-4.4a.48.48,0,0,1,.13-.36.51.51,0,0,1,.37-.12h.21a.43.43,0,0,1,.48.48v4.4a.43.43,0,0,1-.48.48h-.21a.51.51,0,0,1-.37-.12A.48.48,0,0,1,48.15,94.65Z"/><path class="cls-30" d="M50.68,92.46a2.58,2.58,0,0,1,2.67-2.71,2.57,2.57,0,0,1,1.79.62,2.17,2.17,0,0,1,.69,1.7.45.45,0,0,1-.12.34.51.51,0,0,1-.36.12H51.91a2,2,0,0,0,.43,1.21,1.32,1.32,0,0,0,1,.45,1.42,1.42,0,0,0,.69-.15,1.1,1.1,0,0,0,.41-.38,1,1,0,0,1,.2-.22.42.42,0,0,1,.26-.08h.35c.18,0,.3.06.34.18a.4.4,0,0,1,0,.35,2.13,2.13,0,0,1-.85.9,2.62,2.62,0,0,1-4.08-2.34ZM52,91.72h2.68a1.16,1.16,0,0,0-.41-.79,1.42,1.42,0,0,0-.89-.25,1.45,1.45,0,0,0-.89.28A1.31,1.31,0,0,0,52,91.72Z"/><path class="cls-30" d="M58.21,94.65l-1.63-4.36a.41.41,0,0,1,0-.39.38.38,0,0,1,.34-.14h.35a.47.47,0,0,1,.36.12.93.93,0,0,1,.19.36l1.23,3.65h0l1.24-3.65a.93.93,0,0,1,.19-.36.47.47,0,0,1,.36-.12h.25a.38.38,0,0,1,.34.14.41.41,0,0,1,0,.39l-1.58,4.36a1.1,1.1,0,0,1-.2.36.45.45,0,0,1-.35.12h-.61A.47.47,0,0,1,58.4,95,.93.93,0,0,1,58.21,94.65Z"/><path class="cls-30" d="M63,88.29a.53.53,0,0,1-.37-.12.46.46,0,0,1-.13-.36v-.26a.46.46,0,0,1,.13-.36.53.53,0,0,1,.37-.12h.3a.51.51,0,0,1,.36.12.47.47,0,0,1,.12.36v.26a.47.47,0,0,1-.12.36.51.51,0,0,1-.36.12Zm-.45,6.36v-4.4a.48.48,0,0,1,.13-.36.51.51,0,0,1,.37-.12h.21a.43.43,0,0,1,.48.48v4.4a.43.43,0,0,1-.48.48h-.21a.51.51,0,0,1-.37-.12A.48.48,0,0,1,62.59,94.65Z"/><path class="cls-30" d="M67.66,92.46a2.58,2.58,0,0,1,2.67-2.71,2.57,2.57,0,0,1,1.79.62,2.17,2.17,0,0,1,.69,1.7.45.45,0,0,1-.12.34.51.51,0,0,1-.36.12H68.89a2,2,0,0,0,.43,1.21,1.32,1.32,0,0,0,1,.45,1.42,1.42,0,0,0,.69-.15,1.1,1.1,0,0,0,.41-.38,1,1,0,0,1,.2-.22.42.42,0,0,1,.26-.08h.35c.18,0,.3.06.34.18a.4.4,0,0,1,0,.35,2.13,2.13,0,0,1-.85.9,2.62,2.62,0,0,1-4.08-2.34Zm1.29-.74h2.68a1.16,1.16,0,0,0-.41-.79,1.42,1.42,0,0,0-.89-.25,1.45,1.45,0,0,0-.89.28A1.31,1.31,0,0,0,68.95,91.72Z"/><path class="cls-30" d="M76.65,94.67V87.56a.48.48,0,0,1,.13-.36.51.51,0,0,1,.37-.12h.21a.5.5,0,0,1,.36.12.47.47,0,0,1,.12.35V88.7q0,.27,0,.75t0,1h0a1.38,1.38,0,0,1,.71-.53,3.18,3.18,0,0,1,1.07-.17,2.32,2.32,0,0,1,1.7.69,2.65,2.65,0,0,1,.69,2,2.71,2.71,0,0,1-.73,2,2.39,2.39,0,0,1-1.75.73,2.18,2.18,0,0,1-1-.23,1.54,1.54,0,0,1-.68-.71h0v.4a.61.61,0,0,1-.13.39.43.43,0,0,1-.33.13h-.22a.41.41,0,0,1-.46-.46Zm1.19-2.22a1.82,1.82,0,0,0,.42,1.28,1.37,1.37,0,0,0,1,.46,1.33,1.33,0,0,0,1-.48,1.91,1.91,0,0,0,.42-1.3,1.75,1.75,0,0,0-.42-1.26,1.45,1.45,0,0,0-2.09,0A1.81,1.81,0,0,0,77.84,92.45Z"/><path class="cls-30" d="M83,92.45a2.56,2.56,0,0,1,.78-2,3,3,0,0,1,3.94,0,2.62,2.62,0,0,1,.75,2,2.57,2.57,0,0,1-.77,2,3.05,3.05,0,0,1-3.95,0A2.62,2.62,0,0,1,83,92.45Zm1.23,0a1.85,1.85,0,0,0,.42,1.26,1.47,1.47,0,0,0,2.17,0,2.13,2.13,0,0,0,0-2.53,1.4,1.4,0,0,0-1.09-.46,1.37,1.37,0,0,0-1.09.48A1.85,1.85,0,0,0,84.22,92.45Z"/><path class="cls-30" d="M89.82,94.65V90.22a.41.41,0,0,1,.46-.46h.22a.42.42,0,0,1,.34.13.64.64,0,0,1,.12.39v.36h0a1.55,1.55,0,0,1,.65-.67,2.1,2.1,0,0,1,1-.23,2.17,2.17,0,0,1,1.4.49,2.08,2.08,0,0,1,.61,1.71v2.71a.48.48,0,0,1-.12.35.5.5,0,0,1-.36.12H94a.5.5,0,0,1-.36-.12.47.47,0,0,1-.12-.35V92.1A1.5,1.5,0,0,0,93.17,91a1.13,1.13,0,0,0-.83-.31,1.2,1.2,0,0,0-1,.46A1.85,1.85,0,0,0,91,92.39v2.26a.47.47,0,0,1-.12.35.5.5,0,0,1-.36.12h-.21a.51.51,0,0,1-.37-.12A.48.48,0,0,1,89.82,94.65Z"/><path class="cls-30" d="M96.77,88.29a.53.53,0,0,1-.37-.12.46.46,0,0,1-.13-.36v-.26a.46.46,0,0,1,.13-.36.53.53,0,0,1,.37-.12h.3a.51.51,0,0,1,.36.12.47.47,0,0,1,.12.36v.26a.47.47,0,0,1-.12.36.51.51,0,0,1-.36.12Zm-.45,6.36v-4.4a.48.48,0,0,1,.13-.36.51.51,0,0,1,.37-.12H97a.43.43,0,0,1,.48.48v4.4a.43.43,0,0,1-.48.48h-.21a.51.51,0,0,1-.37-.12A.48.48,0,0,1,96.32,94.65Z"/><path class="cls-30" d="M99.48,94.65v-4h-.64a.33.33,0,0,1-.37-.37v-.18a.33.33,0,0,1,.37-.37h.64V89a1.94,1.94,0,0,1,.46-1.4,1.9,1.9,0,0,1,1.43-.48h.26a.41.41,0,0,1,.3.1.4.4,0,0,1,.1.29v.17a.4.4,0,0,1-.1.29.41.41,0,0,1-.3.1h-.15a.77.77,0,0,0-.63.23,1,1,0,0,0-.18.66v.84h2.88a.51.51,0,0,1,.37.12.48.48,0,0,1,.13.36v4.4a.48.48,0,0,1-.13.36.51.51,0,0,1-.37.12h-.21a.43.43,0,0,1-.48-.48v-4h-2.19v4a.43.43,0,0,1-.48.48H100a.43.43,0,0,1-.48-.48Zm3.81-6.36a.51.51,0,0,1-.36-.12.47.47,0,0,1-.12-.36v-.26a.47.47,0,0,1,.12-.36.51.51,0,0,1,.36-.12h.3a.53.53,0,0,1,.37.12.46.46,0,0,1,.13.36v.26a.46.46,0,0,1-.13.36.53.53,0,0,1-.37.12Z"/><path class="cls-30" d="M105.38,92.45a2.59,2.59,0,0,1,.76-2,2.67,2.67,0,0,1,1.92-.73,2.58,2.58,0,0,1,1.48.38,2.15,2.15,0,0,1,.8,1,.5.5,0,0,1,0,.38q-.07.18-.35.18h-.31a.54.54,0,0,1-.29-.07.51.51,0,0,1-.19-.23,1.19,1.19,0,0,0-.4-.46,1.27,1.27,0,0,0-.75-.2,1.34,1.34,0,0,0-1,.48,2.07,2.07,0,0,0,0,2.51,1.34,1.34,0,0,0,1,.48,1.25,1.25,0,0,0,.77-.2,1.24,1.24,0,0,0,.38-.46.51.51,0,0,1,.19-.23.54.54,0,0,1,.29-.07H110q.29,0,.35.18a.5.5,0,0,1,0,.38,2.15,2.15,0,0,1-.8,1,2.59,2.59,0,0,1-1.48.38,2.5,2.5,0,0,1-2.68-2.7Z"/><path class="cls-30" d="M112.18,88.29a.53.53,0,0,1-.37-.12.46.46,0,0,1-.13-.36v-.26a.46.46,0,0,1,.13-.36.53.53,0,0,1,.37-.12h.3a.51.51,0,0,1,.36.12.47.47,0,0,1,.12.36v.26a.47.47,0,0,1-.12.36.51.51,0,0,1-.36.12Zm-.45,6.36v-4.4a.48.48,0,0,1,.13-.36.51.51,0,0,1,.37-.12h.21a.43.43,0,0,1,.48.48v4.4a.43.43,0,0,1-.48.48h-.21a.51.51,0,0,1-.37-.12A.48.48,0,0,1,111.73,94.65Z"/><path class="cls-30" d="M117.38,95.67h.3a.51.51,0,0,1,.27.06.53.53,0,0,1,.18.22,1.28,1.28,0,0,0,.47.54,1.6,1.6,0,0,0,.83.18,1.64,1.64,0,0,0,1.16-.41,2,2,0,0,0,.44-1.47v-.53h0a1.47,1.47,0,0,1-.71.67,2.57,2.57,0,0,1-1.07.21,2.32,2.32,0,0,1-1.7-.69,2.65,2.65,0,0,1-.69-2,2.71,2.71,0,0,1,.73-2,2.39,2.39,0,0,1,1.75-.73,2.65,2.65,0,0,1,1,.18,1.41,1.41,0,0,1,.68.57h0v-.32a.4.4,0,0,1,.12-.31.5.5,0,0,1,.35-.11h.21a.47.47,0,0,1,.35.11.48.48,0,0,1,.11.34v4.59a2.59,2.59,0,0,1-.78,2.13,3,3,0,0,1-2,.63,3.2,3.2,0,0,1-1.52-.34,1.75,1.75,0,0,1-.86-1,.47.47,0,0,1,0-.38A.32.32,0,0,1,117.38,95.67Zm.67-3.18a1.75,1.75,0,0,0,.42,1.26,1.45,1.45,0,0,0,2.09,0,2.15,2.15,0,0,0,0-2.56,1.37,1.37,0,0,0-1-.46,1.33,1.33,0,0,0-1,.48A1.91,1.91,0,0,0,118,92.49Z"/><path class="cls-30" d="M123.9,94.65V90.22a.41.41,0,0,1,.46-.46h.22a.44.44,0,0,1,.35.13.57.57,0,0,1,.12.39v.37h0a1.61,1.61,0,0,1,.55-.66,1.5,1.5,0,0,1,.86-.24h.31a.49.49,0,0,1,.29.15.36.36,0,0,1,.06.33l-.09.37a.57.57,0,0,1-.09.22.23.23,0,0,1-.16.09.81.81,0,0,1-.24,0,1,1,0,0,0-.3,0,1,1,0,0,0-.89.48,2,2,0,0,0-.3,1.06v2.28A.47.47,0,0,1,125,95a.5.5,0,0,1-.36.12h-.21A.51.51,0,0,1,124,95,.48.48,0,0,1,123.9,94.65Z"/><path class="cls-30" d="M127.86,93.71a1.32,1.32,0,0,1,.42-1,2.61,2.61,0,0,1,1.37-.53l1-.17a1.84,1.84,0,0,0,.55-.14.28.28,0,0,0,.14-.27.92.92,0,0,0-.26-.68,1.08,1.08,0,0,0-.79-.26,1.12,1.12,0,0,0-.74.19,1.91,1.91,0,0,0-.35.41,1.18,1.18,0,0,1-.16.2.48.48,0,0,1-.34.1h-.25q-.26,0-.33-.15a.47.47,0,0,1,0-.36,1.74,1.74,0,0,1,.76-.92,2.6,2.6,0,0,1,1.42-.36,2.53,2.53,0,0,1,1.64.47,1.67,1.67,0,0,1,.58,1.37v3.09a.47.47,0,0,1-.11.34.47.47,0,0,1-.35.11h-.21a.43.43,0,0,1-.33-.13.57.57,0,0,1-.13-.37v-.31h0a1.51,1.51,0,0,1-.68.6,2.43,2.43,0,0,1-1,.21,2,2,0,0,1-1.35-.4A1.29,1.29,0,0,1,127.86,93.71Zm1.19-.14a.6.6,0,0,0,.23.49,1.06,1.06,0,0,0,.68.19,1.6,1.6,0,0,0,1-.33,1.18,1.18,0,0,0,.43-1v-.46a.54.54,0,0,1-.22.15,1.62,1.62,0,0,1-.33.09l-.92.14a1.24,1.24,0,0,0-.67.26A.62.62,0,0,0,129,93.57Z"/><path class="cls-30" d="M134.39,93.46V90.69h-.64a.33.33,0,0,1-.37-.37v-.18a.33.33,0,0,1,.37-.37h.64V88.62a.43.43,0,0,1,.48-.48h.22a.43.43,0,0,1,.48.48v1.14h1a.33.33,0,0,1,.37.37v.18a.33.33,0,0,1-.37.37h-1V93.4a.8.8,0,0,0,.17.57.74.74,0,0,0,.54.16h.26a.42.42,0,0,1,.3.1.41.41,0,0,1,.1.31v.18a.41.41,0,0,1-.1.31.42.42,0,0,1-.3.1h-.48a1.72,1.72,0,0,1-1.27-.41A1.74,1.74,0,0,1,134.39,93.46Z"/><path class="cls-30" d="M138.59,88.29a.53.53,0,0,1-.37-.12.46.46,0,0,1-.13-.36v-.26a.46.46,0,0,1,.13-.36.53.53,0,0,1,.37-.12h.3a.51.51,0,0,1,.36.12.47.47,0,0,1,.12.36v.26a.47.47,0,0,1-.12.36.51.51,0,0,1-.36.12Zm-.45,6.36v-4.4a.48.48,0,0,1,.13-.36.51.51,0,0,1,.37-.12h.21a.43.43,0,0,1,.48.48v4.4a.43.43,0,0,1-.48.48h-.21a.51.51,0,0,1-.37-.12A.48.48,0,0,1,138.14,94.65Z"/><path class="cls-30" d="M140.73,93.93a.3.3,0,0,1,0-.32.43.43,0,0,1,.33-.12h.27a.58.58,0,0,1,.29.06.59.59,0,0,1,.19.17,1.11,1.11,0,0,0,.48.45,1.75,1.75,0,0,0,.7.12,1.84,1.84,0,0,0,.92-.18.59.59,0,0,0,.31-.54.49.49,0,0,0-.2-.43,1.49,1.49,0,0,0-.61-.2l-1-.16a3,3,0,0,1-1.11-.4,1.1,1.1,0,0,1-.5-1,1.33,1.33,0,0,1,.64-1.19,2.88,2.88,0,0,1,1.59-.41,3.41,3.41,0,0,1,1.42.28,1.3,1.3,0,0,1,.78.89.3.3,0,0,1,0,.32.43.43,0,0,1-.33.12h-.3a.43.43,0,0,1-.27-.07.8.8,0,0,1-.17-.19,1,1,0,0,0-.43-.37,1.6,1.6,0,0,0-.66-.12,1.66,1.66,0,0,0-.78.16.53.53,0,0,0-.31.5.47.47,0,0,0,.21.41,1.68,1.68,0,0,0,.68.22l1,.17a3.06,3.06,0,0,1,1.1.4,1.09,1.09,0,0,1,.48,1,1.38,1.38,0,0,1-.68,1.25,3.27,3.27,0,0,1-1.74.42,3.43,3.43,0,0,1-1.49-.3A1.39,1.39,0,0,1,140.73,93.93Z"/></g></svg>