<?xml version="1.0" encoding="UTF-8"?>
<svg width="48px" height="60px" viewBox="0 0 48 60" version="1.1" xmlns="http://www.w3.org/2000/svg" xmlns:xlink="http://www.w3.org/1999/xlink">
    <!-- Generator: Sketch 41.2 (35397) - http://www.bohemiancoding.com/sketch -->
    <title>document-icon</title>
    <desc>Created with Sketch.</desc>
    <defs></defs>
    <g id="Brand" stroke="none" stroke-width="1" fill="none" fill-rule="evenodd">
        <g id="Desktop-HD" transform="translate(-889.000000, -467.000000)" fill="#00A5FF">
            <g id="text" transform="translate(110.000000, 420.000000)">
                <g id="Group" transform="translate(665.000000, 0.000000)">
                    <g id="docs">
                        <g id="document-icon" transform="translate(114.000000, 47.000000)">
                            <path d="M32.914,0 L0.5,0 L0.5,60 L47.5,60 L47.5,14.586 L32.914,0 Z M33.5,3.414 L44.086,14 L33.5,14 L33.5,3.414 Z M2.5,58 L2.5,2 L31.5,2 L31.5,16 L45.5,16 L45.5,58 L2.5,58 Z" id="Shape"></path>
                            <path d="M10.5,17 L19.5,17 C20.052,17 20.5,16.553 20.5,16 C20.5,15.447 20.052,15 19.5,15 L10.5,15 C9.948,15 9.5,15.447 9.5,16 C9.5,16.553 9.948,17 10.5,17 Z" id="Shape"></path>
                            <path d="M27.5,37 L10.5,37 C9.948,37 9.5,37.447 9.5,38 C9.5,38.553 9.948,39 10.5,39 L27.5,39 C28.052,39 28.5,38.553 28.5,38 C28.5,37.447 28.052,37 27.5,37 Z" id="Shape"></path>
                            <path d="M37.5,30 L30.5,30 C29.948,30 29.5,30.447 29.5,31 C29.5,31.553 29.948,32 30.5,32 L37.5,32 C38.052,32 38.5,31.553 38.5,31 C38.5,30.447 38.052,30 37.5,30 Z" id="Shape"></path>
                            <path d="M10.5,25 L15.5,25 C16.052,25 16.5,24.553 16.5,24 C16.5,23.447 16.052,23 15.5,23 L10.5,23 C9.948,23 9.5,23.447 9.5,24 C9.5,24.553 9.948,25 10.5,25 Z" id="Shape"></path>
                            <path d="M25.5,25 L32.5,25 C33.052,25 33.5,24.553 33.5,24 C33.5,23.447 33.052,23 32.5,23 L25.5,23 C24.948,23 24.5,23.447 24.5,24 C24.5,24.553 24.948,25 25.5,25 Z" id="Shape"></path>
                            <path d="M19.5,24 C19.5,24.26 19.61,24.52 19.79,24.71 C19.98,24.89 20.24,25 20.5,25 C20.76,25 21.02,24.89 21.21,24.71 C21.39,24.52 21.5,24.26 21.5,24 C21.5,23.739 21.39,23.479 21.21,23.29 C20.84,22.92 20.17,22.92 19.79,23.29 C19.61,23.479 19.5,23.739 19.5,24 Z" id="Shape"></path>
                            <path d="M15.5,30 C14.948,30 14.5,30.447 14.5,31 C14.5,31.553 14.948,32 15.5,32 L25.5,32 C26.052,32 26.5,31.553 26.5,31 C26.5,30.447 26.052,30 25.5,30 L15.5,30 Z" id="Shape"></path>
                            <path d="M10.5,32 C10.76,32 11.02,31.89 11.21,31.71 C11.39,31.52 11.5,31.26 11.5,31 C11.5,30.739 11.39,30.479 11.21,30.29 C10.84,29.92 10.16,29.92 9.79,30.29 C9.61,30.479 9.5,30.729 9.5,31 C9.5,31.26 9.61,31.52 9.79,31.71 C9.98,31.89 10.24,32 10.5,32 Z" id="Shape"></path>
                            <path d="M37.5,44 L30.5,44 C29.948,44 29.5,44.447 29.5,45 C29.5,45.553 29.948,46 30.5,46 L37.5,46 C38.052,46 38.5,45.553 38.5,45 C38.5,44.447 38.052,44 37.5,44 Z" id="Shape"></path>
                            <path d="M25.5,44 L15.5,44 C14.948,44 14.5,44.447 14.5,45 C14.5,45.553 14.948,46 15.5,46 L25.5,46 C26.052,46 26.5,45.553 26.5,45 C26.5,44.447 26.052,44 25.5,44 Z" id="Shape"></path>
                            <path d="M9.79,44.29 C9.61,44.47 9.5,44.729 9.5,45 C9.5,45.27 9.6,45.52 9.79,45.71 C9.98,45.89 10.24,46 10.5,46 C10.77,46 11.02,45.89 11.21,45.71 C11.39,45.52 11.5,45.26 11.5,45 C11.5,44.729 11.39,44.479 11.21,44.3 C10.84,43.92 10.17,43.92 9.79,44.29 Z" id="Shape"></path>
                            <path d="M36.79,23.29 C36.61,23.479 36.5,23.739 36.5,24 C36.5,24.26 36.61,24.52 36.79,24.71 C36.98,24.89 37.24,25 37.5,25 C37.76,25 38.02,24.89 38.21,24.71 C38.4,24.52 38.5,24.26 38.5,24 C38.5,23.739 38.4,23.479 38.21,23.29 C37.83,22.92 37.17,22.92 36.79,23.29 Z" id="Shape"></path>
                            <path d="M33.21,38.71 C33.39,38.52 33.5,38.26 33.5,38 C33.5,37.739 33.39,37.479 33.21,37.29 C32.83,36.92 32.16,36.92 31.79,37.29 C31.61,37.479 31.5,37.739 31.5,38 C31.5,38.26 31.61,38.52 31.79,38.71 C31.98,38.899 32.23,39 32.5,39 C32.77,39 33.02,38.89 33.21,38.71 Z" id="Shape"></path>
                            <path d="M36.79,37.29 C36.61,37.479 36.5,37.739 36.5,38 C36.5,38.26 36.61,38.52 36.79,38.71 C36.98,38.89 37.23,39 37.5,39 C37.77,39 38.02,38.89 38.21,38.71 C38.39,38.52 38.5,38.26 38.5,38 C38.5,37.739 38.39,37.479 38.21,37.29 C37.84,36.92 37.16,36.92 36.79,37.29 Z" id="Shape"></path>
                        </g>
                    </g>
                </g>
            </g>
        </g>
    </g>
</svg>