<svg xmlns="http://www.w3.org/2000/svg" xmlns:xlink="http://www.w3.org/1999/xlink" viewBox="0 0 72 72"><defs><style>.cls-1{fill:none;clip-rule:evenodd;}.cls-2{fill:#00a5ff;}.cls-3{clip-path:url(#clip-path);}.cls-4{clip-path:url(#clip-path-2);}.cls-5{clip-path:url(#clip-path-3);}.cls-6{clip-path:url(#clip-path-4);}.cls-7{clip-path:url(#clip-path-5);}.cls-8{clip-path:url(#clip-path-6);}.cls-9{clip-path:url(#clip-path-7);}.cls-10{clip-path:url(#clip-path-8);}.cls-11{clip-path:url(#clip-path-9);}.cls-12{clip-path:url(#clip-path-10);}.cls-13{clip-path:url(#clip-path-11);}.cls-14{clip-path:url(#clip-path-12);}.cls-15{clip-path:url(#clip-path-13);}.cls-16{clip-path:url(#clip-path-14);}.cls-17{clip-path:url(#clip-path-15);}.cls-18{clip-path:url(#clip-path-16);}.cls-19{clip-path:url(#clip-path-17);}.cls-20{clip-path:url(#clip-path-18);}.cls-21{clip-path:url(#clip-path-19);}.cls-22{clip-path:url(#clip-path-20);}.cls-23{clip-path:url(#clip-path-21);}.cls-24{clip-path:url(#clip-path-22);}.cls-25{clip-path:url(#clip-path-23);}.cls-26{clip-path:url(#clip-path-24);}.cls-27{clip-path:url(#clip-path-25);}.cls-28{clip-path:url(#clip-path-26);}.cls-29{clip-path:url(#clip-path-27);}.cls-30{clip-path:url(#clip-path-28);}.cls-31{clip-path:url(#clip-path-29);}.cls-32{clip-path:url(#clip-path-30);}.cls-33{clip-path:url(#clip-path-31);}.cls-34{clip-path:url(#clip-path-32);}</style><clipPath id="clip-path"><path class="cls-1" d="M-163.68-2298.32a1.87,1.87,0,0,1,.77-1.37l9.53-6.86-6.89,9.47a1.89,1.89,0,0,1-1.38.77,1.91,1.91,0,0,1-1.48-.54A1.87,1.87,0,0,1-163.68-2298.32Zm2.22,4.41a4.3,4.3,0,0,0,3.15-1.75l11.3-15.53a1.2,1.2,0,0,0-.13-1.55,1.22,1.22,0,0,0-1.56-.12l-15.62,11.24a4.26,4.26,0,0,0-1.76,3.12,4.26,4.26,0,0,0,1.25,3.36,4.3,4.3,0,0,0,3,1.25Z"/></clipPath><clipPath id="clip-path-2"><path class="cls-1" d="M-163.69-2332.27v-3.63h-4.22a.6.6,0,0,1-.6-.6.6.6,0,0,1,.6-.6H-157a.6.6,0,0,1,.6.6.6.6,0,0,1-.6.6h-4.22v3.63l-1.21,0h-.2l-.59,0Zm29.17,2.68,1.71,1.7-1.71,1.7-1.71-1.7Zm.08,13.58s0-.05,0-.08l-.05-.06a32.64,32.64,0,0,0-4.3-5.77l2.59-2.58,1.71,1.7,5.12-5.09-5.12-5.09-5.12,5.09,1.71,1.7-2.59,2.58a32.76,32.76,0,0,0-5.8-4.28l-.06-.05-.08,0a32.49,32.49,0,0,0-12.4-4.08v-1.43H-157a3,3,0,0,0,3-3,3,3,0,0,0-3-3h-10.86a3,3,0,0,0-3,3,3,3,0,0,0,3,3h1.81v1.39a33.37,33.37,0,0,0-3.89.64,1.2,1.2,0,0,0-.91,1.44,1.21,1.21,0,0,0,1.45.9,30.85,30.85,0,0,1,3.36-.57l1.29-.1,1.12-.07v2.37a1.2,1.2,0,0,0,1.21,1.2,1.2,1.2,0,0,0,1.21-1.2v-2.36a30.07,30.07,0,0,1,12.62,3.41l-1.19,2a1.2,1.2,0,0,0,.44,1.64,1.2,1.2,0,0,0,.6.16,1.21,1.21,0,0,0,1-.6l1.19-2a30.32,30.32,0,0,1,9.38,9.33l-2.06,1.18a1.2,1.2,0,0,0-.44,1.64,1.21,1.21,0,0,0,1,.6,1.2,1.2,0,0,0,.6-.16l2.06-1.18a29.65,29.65,0,0,1,3.44,12.74h-2.38a1.2,1.2,0,0,0-1.21,1.2,1.2,1.2,0,0,0,1.21,1.2h2.38A29.65,29.65,0,0,1-136-2286l-2.06-1.18a1.21,1.21,0,0,0-1.65.44,1.2,1.2,0,0,0,.44,1.64l2.06,1.18a30.32,30.32,0,0,1-9.38,9.33l-1.19-2a1.21,1.21,0,0,0-1.65-.44,1.19,1.19,0,0,0-.44,1.64l1.19,2a30.07,30.07,0,0,1-12.62,3.41v-2.36a1.2,1.2,0,0,0-1.21-1.2,1.2,1.2,0,0,0-1.21,1.2v2.37a30.62,30.62,0,0,1-5.76-.74,1.2,1.2,0,0,0-1.45.9,1.2,1.2,0,0,0,.91,1.44,32.79,32.79,0,0,0,7.31.83h.22a32.52,32.52,0,0,0,16-4.29l.11,0,.06-.05a32.73,32.73,0,0,0,11.79-11.71l.07-.09s0-.05,0-.08a32,32,0,0,0,4.34-16.12A32,32,0,0,0-134.43-2316Z"/></clipPath><clipPath id="clip-path-3"><path class="cls-1" d="M-173.34-2322.7h-6a1.2,1.2,0,0,0-1.21,1.2,1.2,1.2,0,0,0,1.21,1.2h6a1.2,1.2,0,0,0,1.21-1.2A1.2,1.2,0,0,0-173.34-2322.7Z"/></clipPath><clipPath id="clip-path-4"><path class="cls-1" d="M-173.34-2314.3h-12.07a1.2,1.2,0,0,0-1.21,1.2,1.2,1.2,0,0,0,1.21,1.2h12.07a1.2,1.2,0,0,0,1.21-1.2A1.2,1.2,0,0,0-173.34-2314.3Z"/></clipPath><clipPath id="clip-path-5"><path class="cls-1" d="M-173.34-2305.9h-18.1a1.2,1.2,0,0,0-1.21,1.2,1.2,1.2,0,0,0,1.21,1.2h18.1a1.2,1.2,0,0,0,1.21-1.2A1.2,1.2,0,0,0-173.34-2305.9Z"/></clipPath><clipPath id="clip-path-6"><path class="cls-1" d="M-173.34-2297.5h-22.93a1.2,1.2,0,0,0-1.21,1.2,1.2,1.2,0,0,0,1.21,1.2h22.93a1.2,1.2,0,0,0,1.21-1.2A1.2,1.2,0,0,0-173.34-2297.5Z"/></clipPath><clipPath id="clip-path-7"><path class="cls-1" d="M-173.34-2289.1H-189a1.2,1.2,0,0,0-1.21,1.2,1.2,1.2,0,0,0,1.21,1.2h15.69a1.2,1.2,0,0,0,1.21-1.2A1.2,1.2,0,0,0-173.34-2289.1Z"/></clipPath><clipPath id="clip-path-8"><path class="cls-1" d="M-173.34-2280.7h-8.45a1.2,1.2,0,0,0-1.21,1.2,1.2,1.2,0,0,0,1.21,1.2h8.45a1.2,1.2,0,0,0,1.21-1.2A1.2,1.2,0,0,0-173.34-2280.7Z"/></clipPath><clipPath id="clip-path-9"><path class="cls-1" d="M-79.68-2437.32a1.87,1.87,0,0,1,.77-1.37l9.53-6.86-6.89,9.47a1.89,1.89,0,0,1-1.38.77,1.91,1.91,0,0,1-1.48-.54A1.87,1.87,0,0,1-79.68-2437.32Zm2.22,4.41a4.3,4.3,0,0,0,3.15-1.75L-63-2450.2a1.2,1.2,0,0,0-.13-1.55,1.22,1.22,0,0,0-1.56-.12l-15.62,11.24a4.26,4.26,0,0,0-1.76,3.12,4.26,4.26,0,0,0,1.25,3.36,4.3,4.3,0,0,0,3,1.25Z"/></clipPath><clipPath id="clip-path-10"><path class="cls-1" d="M-79.69-2471.27v-3.63h-4.22a.6.6,0,0,1-.6-.6.6.6,0,0,1,.6-.6H-73a.6.6,0,0,1,.6.6.6.6,0,0,1-.6.6h-4.22v3.63l-1.21,0h-.2l-.59,0Zm29.17,2.68,1.71,1.7-1.71,1.7-1.71-1.7Zm.08,13.58s0-.05,0-.08l-.05-.06a32.64,32.64,0,0,0-4.3-5.77l2.59-2.58,1.71,1.7,5.12-5.09-5.12-5.09-5.12,5.09,1.71,1.7-2.59,2.58a32.76,32.76,0,0,0-5.8-4.28l-.06-.05-.08,0a32.49,32.49,0,0,0-12.4-4.08v-1.43H-73a3,3,0,0,0,3-3,3,3,0,0,0-3-3H-83.91a3,3,0,0,0-3,3,3,3,0,0,0,3,3h1.81v1.39a33.37,33.37,0,0,0-3.89.64,1.2,1.2,0,0,0-.91,1.44,1.21,1.21,0,0,0,1.45.9,30.85,30.85,0,0,1,3.36-.57l1.29-.1,1.12-.07v2.37a1.2,1.2,0,0,0,1.21,1.2,1.2,1.2,0,0,0,1.21-1.2v-2.36a30.07,30.07,0,0,1,12.62,3.41l-1.19,2a1.2,1.2,0,0,0,.44,1.64,1.2,1.2,0,0,0,.6.16,1.21,1.21,0,0,0,1-.6l1.19-2a30.32,30.32,0,0,1,9.38,9.33l-2.06,1.18a1.2,1.2,0,0,0-.44,1.64,1.21,1.21,0,0,0,1,.6,1.2,1.2,0,0,0,.6-.16l2.06-1.18a29.65,29.65,0,0,1,3.44,12.74h-2.38a1.2,1.2,0,0,0-1.21,1.2,1.2,1.2,0,0,0,1.21,1.2h2.38A29.65,29.65,0,0,1-52-2425l-2.06-1.18a1.21,1.21,0,0,0-1.65.44,1.2,1.2,0,0,0,.44,1.64l2.06,1.18a30.32,30.32,0,0,1-9.38,9.33l-1.19-2a1.21,1.21,0,0,0-1.65-.44,1.19,1.19,0,0,0-.44,1.64l1.19,2a30.07,30.07,0,0,1-12.62,3.41v-2.36a1.2,1.2,0,0,0-1.21-1.2,1.2,1.2,0,0,0-1.21,1.2v2.37a30.62,30.62,0,0,1-5.76-.74,1.2,1.2,0,0,0-1.45.9,1.2,1.2,0,0,0,.91,1.44,32.79,32.79,0,0,0,7.31.83h.22a32.52,32.52,0,0,0,16-4.29l.11,0,.06-.05a32.73,32.73,0,0,0,11.79-11.71l.07-.09s0-.05,0-.08a32,32,0,0,0,4.34-16.12A32,32,0,0,0-50.43-2455Z"/></clipPath><clipPath id="clip-path-11"><path class="cls-1" d="M-89.34-2461.7h-6a1.2,1.2,0,0,0-1.21,1.2,1.2,1.2,0,0,0,1.21,1.2h6a1.2,1.2,0,0,0,1.21-1.2A1.2,1.2,0,0,0-89.34-2461.7Z"/></clipPath><clipPath id="clip-path-12"><path class="cls-1" d="M-89.34-2453.3h-12.07a1.2,1.2,0,0,0-1.21,1.2,1.2,1.2,0,0,0,1.21,1.2h12.07a1.2,1.2,0,0,0,1.21-1.2A1.2,1.2,0,0,0-89.34-2453.3Z"/></clipPath><clipPath id="clip-path-13"><path class="cls-1" d="M-89.34-2444.9h-18.1a1.2,1.2,0,0,0-1.21,1.2,1.2,1.2,0,0,0,1.21,1.2h18.1a1.2,1.2,0,0,0,1.21-1.2A1.2,1.2,0,0,0-89.34-2444.9Z"/></clipPath><clipPath id="clip-path-14"><path class="cls-1" d="M-89.34-2436.5h-22.93a1.2,1.2,0,0,0-1.21,1.2,1.2,1.2,0,0,0,1.21,1.2h22.93a1.2,1.2,0,0,0,1.21-1.2A1.2,1.2,0,0,0-89.34-2436.5Z"/></clipPath><clipPath id="clip-path-15"><path class="cls-1" d="M-89.34-2428.1H-105a1.2,1.2,0,0,0-1.21,1.2,1.2,1.2,0,0,0,1.21,1.2h15.69a1.2,1.2,0,0,0,1.21-1.2A1.2,1.2,0,0,0-89.34-2428.1Z"/></clipPath><clipPath id="clip-path-16"><path class="cls-1" d="M-89.34-2419.7h-8.45a1.2,1.2,0,0,0-1.21,1.2,1.2,1.2,0,0,0,1.21,1.2h8.45a1.2,1.2,0,0,0,1.21-1.2A1.2,1.2,0,0,0-89.34-2419.7Z"/></clipPath><clipPath id="clip-path-17"><path class="cls-1" d="M-55.18,41.18a1.87,1.87,0,0,1,.77-1.37L-44.88,33l-6.89,9.47a1.89,1.89,0,0,1-1.38.77,1.91,1.91,0,0,1-1.48-.54A1.87,1.87,0,0,1-55.18,41.18ZM-53,45.59a4.3,4.3,0,0,0,3.15-1.75l11.3-15.53a1.2,1.2,0,0,0-.13-1.55,1.22,1.22,0,0,0-1.56-.12L-55.83,37.87A4.26,4.26,0,0,0-57.59,41a4.26,4.26,0,0,0,1.25,3.36,4.3,4.3,0,0,0,3,1.25Z"/></clipPath><clipPath id="clip-path-18"><path class="cls-1" d="M-55.19,7.23V3.6h-4.22A.6.6,0,0,1-60,3a.6.6,0,0,1,.6-.6h10.86a.6.6,0,0,1,.6.6.6.6,0,0,1-.6.6h-4.22V7.23L-54,7.2h-.2l-.59,0ZM-26,9.9l1.71,1.7L-26,13.3l-1.71-1.7Zm.08,13.58s0-.05,0-.08l-.05-.06a32.64,32.64,0,0,0-4.3-5.77L-27.72,15l1.71,1.7,5.12-5.09L-26,6.51l-5.12,5.09,1.71,1.7L-32,15.87a32.76,32.76,0,0,0-5.8-4.28l-.06-.05-.08,0a32.49,32.49,0,0,0-12.4-4.08V6h1.81a3,3,0,0,0,3-3,3,3,0,0,0-3-3H-59.41a3,3,0,0,0-3,3,3,3,0,0,0,3,3h1.81V7.39A33.37,33.37,0,0,0-61.49,8a1.2,1.2,0,0,0-.91,1.44,1.21,1.21,0,0,0,1.45.9A30.85,30.85,0,0,1-57.6,9.8l1.29-.1,1.12-.07V12A1.2,1.2,0,0,0-54,13.2,1.2,1.2,0,0,0-52.77,12V9.64A30.07,30.07,0,0,1-40.15,13l-1.19,2a1.2,1.2,0,0,0,.44,1.64,1.2,1.2,0,0,0,.6.16,1.21,1.21,0,0,0,1-.6l1.19-2a30.32,30.32,0,0,1,9.38,9.33l-2.06,1.18a1.2,1.2,0,0,0-.44,1.64,1.21,1.21,0,0,0,1,.6,1.2,1.2,0,0,0,.6-.16l2.06-1.18A29.65,29.65,0,0,1-24,38.4h-2.38a1.2,1.2,0,0,0-1.21,1.2,1.2,1.2,0,0,0,1.21,1.2H-24a29.65,29.65,0,0,1-3.44,12.74l-2.06-1.18a1.21,1.21,0,0,0-1.65.44,1.2,1.2,0,0,0,.44,1.64l2.06,1.18a30.32,30.32,0,0,1-9.38,9.33l-1.19-2a1.21,1.21,0,0,0-1.65-.44,1.19,1.19,0,0,0-.44,1.64l1.19,2a30.07,30.07,0,0,1-12.62,3.41V67.2A1.2,1.2,0,0,0-54,66a1.2,1.2,0,0,0-1.21,1.2v2.37a30.62,30.62,0,0,1-5.76-.74,1.2,1.2,0,0,0-1.45.9,1.2,1.2,0,0,0,.91,1.44,32.79,32.79,0,0,0,7.31.83H-54a32.52,32.52,0,0,0,16-4.29l.11,0,.06-.05A32.73,32.73,0,0,0-26,55.89l.07-.09s0-.05,0-.08A32,32,0,0,0-21.59,39.6,32,32,0,0,0-25.93,23.48Z"/></clipPath><clipPath id="clip-path-19"><path class="cls-1" d="M-64.84,16.8h-6A1.2,1.2,0,0,0-72.08,18a1.2,1.2,0,0,0,1.21,1.2h6A1.2,1.2,0,0,0-63.63,18,1.2,1.2,0,0,0-64.84,16.8Z"/></clipPath><clipPath id="clip-path-20"><path class="cls-1" d="M-64.84,25.2H-76.91a1.2,1.2,0,0,0-1.21,1.2,1.2,1.2,0,0,0,1.21,1.2h12.07a1.2,1.2,0,0,0,1.21-1.2A1.2,1.2,0,0,0-64.84,25.2Z"/></clipPath><clipPath id="clip-path-21"><path class="cls-1" d="M-64.84,33.6h-18.1a1.2,1.2,0,0,0-1.21,1.2A1.2,1.2,0,0,0-82.94,36h18.1a1.2,1.2,0,0,0,1.21-1.2A1.2,1.2,0,0,0-64.84,33.6Z"/></clipPath><clipPath id="clip-path-22"><path class="cls-1" d="M-64.84,42H-87.77A1.2,1.2,0,0,0-89,43.2a1.2,1.2,0,0,0,1.21,1.2h22.93a1.2,1.2,0,0,0,1.21-1.2A1.2,1.2,0,0,0-64.84,42Z"/></clipPath><clipPath id="clip-path-23"><path class="cls-1" d="M-64.84,50.4H-80.53a1.2,1.2,0,0,0-1.21,1.2,1.2,1.2,0,0,0,1.21,1.2h15.69a1.2,1.2,0,0,0,1.21-1.2A1.2,1.2,0,0,0-64.84,50.4Z"/></clipPath><clipPath id="clip-path-24"><path class="cls-1" d="M-64.84,58.8h-8.45A1.2,1.2,0,0,0-74.5,60a1.2,1.2,0,0,0,1.21,1.2h8.45A1.2,1.2,0,0,0-63.63,60,1.2,1.2,0,0,0-64.84,58.8Z"/></clipPath><clipPath id="clip-path-25"><path class="cls-1" d="M-55.22-57.92a2.2,2.2,0,0,1,.9-1.61l11.2-8.06-8.1,11.13a2.22,2.22,0,0,1-1.62.9,2.25,2.25,0,0,1-1.74-.64A2.2,2.2,0,0,1-55.22-57.92Zm2.6,5.18a5.05,5.05,0,0,0,3.7-2.06L-35.65-73a1.4,1.4,0,0,0-.15-1.82A1.43,1.43,0,0,0-37.63-75L-56-61.81a5,5,0,0,0-2.06,3.67,5,5,0,0,0,1.46,3.94A5.05,5.05,0,0,0-53-52.72Z"/></clipPath><clipPath id="clip-path-26"><path class="cls-1" d="M-55.23-97.81v-4.26h-5a.71.71,0,0,1-.71-.7.71.71,0,0,1,.71-.7h12.76a.71.71,0,0,1,.71.7.71.71,0,0,1-.71.7h-5v4.26l-1.42,0H-54l-.7,0ZM-21-94.67l2,2-2,2-2-2Zm.1,16s0-.06,0-.09l-.06-.07A38.35,38.35,0,0,0-26-85.66l3-3,2,2,6-6-6-6-6,6,2,2-3,3a38.49,38.49,0,0,0-6.82-5l-.07-.06-.09,0a38.17,38.17,0,0,0-14.57-4.8v-1.68h2.13a3.54,3.54,0,0,0,3.55-3.52,3.54,3.54,0,0,0-3.55-3.52H-60.19a3.54,3.54,0,0,0-3.55,3.52,3.54,3.54,0,0,0,3.55,3.52h2.13v1.63a39.21,39.21,0,0,0-4.57.75,1.41,1.41,0,0,0-1.06,1.69A1.42,1.42,0,0,0-62-94.12a36.25,36.25,0,0,1,3.94-.67l1.52-.12,1.31-.08v2.79a1.41,1.41,0,0,0,1.42,1.41,1.41,1.41,0,0,0,1.42-1.41V-95a35.33,35.33,0,0,1,14.83,4L-39-88.56a1.41,1.41,0,0,0,.52,1.93,1.41,1.41,0,0,0,.71.19,1.42,1.42,0,0,0,1.23-.7l1.39-2.4a35.63,35.63,0,0,1,11,11l-2.41,1.39A1.4,1.4,0,0,0-27-75.28a1.42,1.42,0,0,0,1.23.7,1.41,1.41,0,0,0,.71-.19l2.42-1.39a34.84,34.84,0,0,1,4,15h-2.8a1.41,1.41,0,0,0-1.42,1.41,1.41,1.41,0,0,0,1.42,1.41h2.8a34.84,34.84,0,0,1-4,15l-2.42-1.39a1.42,1.42,0,0,0-1.94.52,1.41,1.41,0,0,0,.52,1.93L-24.09-41a35.63,35.63,0,0,1-11,11l-1.39-2.4a1.42,1.42,0,0,0-1.94-.52A1.4,1.4,0,0,0-39-31l1.4,2.41a35.33,35.33,0,0,1-14.83,4v-2.77a1.41,1.41,0,0,0-1.42-1.41,1.41,1.41,0,0,0-1.42,1.41v2.79A36,36,0,0,1-62-25.42a1.41,1.41,0,0,0-1.7,1.06,1.41,1.41,0,0,0,1.06,1.69,38.53,38.53,0,0,0,8.59,1h.26a38.21,38.21,0,0,0,18.75-5l.13-.05.07-.06A38.46,38.46,0,0,0-21-40.63a1.34,1.34,0,0,0,.09-.11s0-.06,0-.09a37.63,37.63,0,0,0,5.1-18.94A37.65,37.65,0,0,0-20.85-78.71Z"/></clipPath><clipPath id="clip-path-27"><path class="cls-1" d="M-66.57-86.56h-7.09a1.41,1.41,0,0,0-1.42,1.41,1.41,1.41,0,0,0,1.42,1.41h7.09a1.41,1.41,0,0,0,1.42-1.41A1.41,1.41,0,0,0-66.57-86.56Z"/></clipPath><clipPath id="clip-path-28"><path class="cls-1" d="M-66.57-76.69H-80.76a1.41,1.41,0,0,0-1.42,1.41,1.41,1.41,0,0,0,1.42,1.41h14.18a1.41,1.41,0,0,0,1.42-1.41A1.41,1.41,0,0,0-66.57-76.69Z"/></clipPath><clipPath id="clip-path-29"><path class="cls-1" d="M-66.57-66.82H-87.85a1.41,1.41,0,0,0-1.42,1.41A1.41,1.41,0,0,0-87.85-64h21.27a1.41,1.41,0,0,0,1.42-1.41A1.41,1.41,0,0,0-66.57-66.82Z"/></clipPath><clipPath id="clip-path-30"><path class="cls-1" d="M-66.57-57H-93.52a1.41,1.41,0,0,0-1.42,1.41,1.41,1.41,0,0,0,1.42,1.41h26.94a1.41,1.41,0,0,0,1.42-1.41A1.41,1.41,0,0,0-66.57-57Z"/></clipPath><clipPath id="clip-path-31"><path class="cls-1" d="M-66.57-47.08H-85a1.41,1.41,0,0,0-1.42,1.41A1.41,1.41,0,0,0-85-44.26h18.43a1.41,1.41,0,0,0,1.42-1.41A1.41,1.41,0,0,0-66.57-47.08Z"/></clipPath><clipPath id="clip-path-32"><path class="cls-1" d="M-66.57-37.21H-76.5a1.41,1.41,0,0,0-1.42,1.41,1.41,1.41,0,0,0,1.42,1.41h9.93a1.41,1.41,0,0,0,1.42-1.41A1.41,1.41,0,0,0-66.57-37.21Z"/></clipPath></defs><title>carta_HYPE</title><g id="carta_HYPE"><path class="cls-2" d="M70.56,59.33H1.44A1.44,1.44,0,0,1,0,57.89V14.11a1.44,1.44,0,0,1,1.44-1.44H70.56A1.44,1.44,0,0,1,72,14.11V57.89A1.44,1.44,0,0,1,70.56,59.33ZM2.88,56.45H69.12V15.55H2.88Z"/><path class="cls-2" d="M64.1,28.24a4.34,4.34,0,0,0,1.07-2.62c0-5.43-8-7.84-13.17-5.81a10,10,0,0,0-5.35,4.87l-.33.74a9.54,9.54,0,0,0,.06,7.18c1.68,4.06,12.87.72,17.14-3.7Z"/><path class="cls-2" d="M11.71,44.62H6.83a1.44,1.44,0,0,1,0-2.88h4.88a1.44,1.44,0,0,1,0,2.88Z"/><path class="cls-2" d="M21.77,44.62H16.89a1.44,1.44,0,0,1,0-2.88h4.88a1.44,1.44,0,0,1,0,2.88Z"/><path class="cls-2" d="M31.82,44.62H26.95a1.44,1.44,0,0,1,0-2.88h4.88a1.44,1.44,0,0,1,0,2.88Z"/><path class="cls-2" d="M41.88,44.62H37a1.44,1.44,0,0,1,0-2.88h4.88a1.44,1.44,0,0,1,0,2.88Z"/><path class="cls-2" d="M38.07,52.4H23.79a1.44,1.44,0,1,1,0-2.88H38.07a1.44,1.44,0,1,1,0,2.88Z"/><path class="cls-2" d="M17.83,52.4h-11a1.44,1.44,0,0,1,0-2.88h11a1.44,1.44,0,0,1,0,2.88Z"/><path class="cls-2" d="M15,33.61H10.77A2.79,2.79,0,0,1,8,30.82V26.61a2.79,2.79,0,0,1,2.79-2.79H15a2.79,2.79,0,0,1,2.79,2.79v4.21A2.79,2.79,0,0,1,15,33.61Zm-4.12-2.88h4v-4h-4Z"/><path class="cls-2" d="M22.6,31.22a1,1,0,0,1-.67-1.64,1.46,1.46,0,0,0,.14-1.9,1,1,0,0,1,1.53-1.16,3.38,3.38,0,0,1-.33,4.43A1,1,0,0,1,22.6,31.22Z"/><path class="cls-2" d="M20.28,30.19a1,1,0,0,1-.42-.1,1,1,0,0,1-.44-1.28.39.39,0,0,0,0-.17.4.4,0,0,0,0-.16,1,1,0,0,1,1.77-.74,2.32,2.32,0,0,1-.05,1.91A1,1,0,0,1,20.28,30.19Z"/><path class="cls-2" d="M25.25,32.31a1,1,0,0,1-.75-1.56,3.51,3.51,0,0,0,.2-4.14,1,1,0,0,1,1.6-1.06A5.43,5.43,0,0,1,26,32,1,1,0,0,1,25.25,32.31Z"/><path class="cls-2" d="M61.19,54.35a5.38,5.38,0,0,1-3-.89,5.42,5.42,0,1,1,0-9.05,5.41,5.41,0,1,1,3,9.94Zm-3-4.22a1.44,1.44,0,0,1,1.07.48,2.5,2.5,0,0,0,1.88.86,2.54,2.54,0,1,0,0-5.08,2.5,2.5,0,0,0-1.88.86,1.49,1.49,0,0,1-2.15,0,2.5,2.5,0,0,0-1.88-.86,2.54,2.54,0,0,0,0,5.08,2.5,2.5,0,0,0,1.88-.86A1.44,1.44,0,0,1,58.23,50.13Z"/></g></svg>