<svg xmlns="http://www.w3.org/2000/svg" xmlns:xlink="http://www.w3.org/1999/xlink" viewBox="0 0 60 60"><defs><style>.cls-1{fill:none;clip-rule:evenodd;}.cls-2{clip-path:url(#clip-path);}.cls-3{clip-path:url(#clip-path-2);}.cls-4{clip-path:url(#clip-path-3);}.cls-5{clip-path:url(#clip-path-4);}.cls-6{clip-path:url(#clip-path-5);}.cls-7{clip-path:url(#clip-path-6);}.cls-8{clip-path:url(#clip-path-7);}.cls-9{clip-path:url(#clip-path-8);}.cls-10{clip-path:url(#clip-path-9);}.cls-11{clip-path:url(#clip-path-10);}.cls-12{clip-path:url(#clip-path-11);}.cls-13{clip-path:url(#clip-path-12);}.cls-14{clip-path:url(#clip-path-13);}.cls-15{clip-path:url(#clip-path-14);}.cls-16{clip-path:url(#clip-path-15);}.cls-17{clip-path:url(#clip-path-16);}.cls-18{clip-path:url(#clip-path-17);}.cls-19{clip-path:url(#clip-path-18);}.cls-20{clip-path:url(#clip-path-19);}.cls-21{clip-path:url(#clip-path-20);}.cls-22{clip-path:url(#clip-path-21);}.cls-23{clip-path:url(#clip-path-22);}.cls-24{clip-path:url(#clip-path-23);}.cls-25{clip-path:url(#clip-path-24);}.cls-26{clip-path:url(#clip-path-25);}.cls-27{clip-path:url(#clip-path-26);}.cls-28{clip-path:url(#clip-path-27);}.cls-29{clip-path:url(#clip-path-28);}.cls-30{clip-path:url(#clip-path-29);}.cls-31{clip-path:url(#clip-path-30);}.cls-32{clip-path:url(#clip-path-31);}.cls-33{clip-path:url(#clip-path-32);}.cls-34{fill:#ffc296;}.cls-35{fill:#fca664;}</style><clipPath id="clip-path"><path class="cls-1" d="M-260.77-2385.61A1.87,1.87,0,0,1-260-2387l9.53-6.86-6.89,9.47a1.89,1.89,0,0,1-1.38.77,1.91,1.91,0,0,1-1.48-.54A1.87,1.87,0,0,1-260.77-2385.61Zm2.22,4.41a4.3,4.3,0,0,0,3.15-1.75l11.3-15.53a1.2,1.2,0,0,0-.13-1.55,1.22,1.22,0,0,0-1.56-.12l-15.62,11.24a4.26,4.26,0,0,0-1.76,3.12,4.26,4.26,0,0,0,1.25,3.36,4.3,4.3,0,0,0,3,1.25Z"/></clipPath><clipPath id="clip-path-2"><path class="cls-1" d="M-260.78-2419.57v-3.63H-265a.6.6,0,0,1-.6-.6.6.6,0,0,1,.6-.6h10.86a.6.6,0,0,1,.6.6.6.6,0,0,1-.6.6h-4.22v3.63l-1.21,0h-.2l-.59,0Zm29.17,2.68,1.71,1.7-1.71,1.7-1.71-1.7Zm.08,13.58s0-.05,0-.08l-.05-.06a32.64,32.64,0,0,0-4.3-5.77l2.59-2.58,1.71,1.7,5.12-5.09-5.12-5.09-5.12,5.09,1.71,1.7-2.59,2.58a32.76,32.76,0,0,0-5.8-4.28l-.06-.05-.08,0a32.49,32.49,0,0,0-12.4-4.08v-1.43h1.81a3,3,0,0,0,3-3,3,3,0,0,0-3-3H-265a3,3,0,0,0-3,3,3,3,0,0,0,3,3h1.81v1.39a33.37,33.37,0,0,0-3.89.64,1.2,1.2,0,0,0-.91,1.44,1.21,1.21,0,0,0,1.45.9,30.85,30.85,0,0,1,3.36-.57l1.29-.1,1.12-.07v2.37a1.2,1.2,0,0,0,1.21,1.2,1.2,1.2,0,0,0,1.21-1.2v-2.36a30.07,30.07,0,0,1,12.62,3.41l-1.19,2a1.2,1.2,0,0,0,.44,1.64,1.2,1.2,0,0,0,.6.16,1.21,1.21,0,0,0,1-.6l1.19-2a30.32,30.32,0,0,1,9.38,9.33l-2.06,1.18a1.2,1.2,0,0,0-.44,1.64,1.21,1.21,0,0,0,1,.6,1.2,1.2,0,0,0,.6-.16l2.06-1.18a29.65,29.65,0,0,1,3.44,12.74H-232a1.2,1.2,0,0,0-1.21,1.2A1.2,1.2,0,0,0-232-2386h2.38a29.65,29.65,0,0,1-3.44,12.74l-2.06-1.18a1.21,1.21,0,0,0-1.65.44,1.2,1.2,0,0,0,.44,1.64l2.06,1.18a30.32,30.32,0,0,1-9.38,9.33l-1.19-2a1.21,1.21,0,0,0-1.65-.44,1.19,1.19,0,0,0-.44,1.64l1.19,2a30.07,30.07,0,0,1-12.62,3.41v-2.36a1.2,1.2,0,0,0-1.21-1.2,1.2,1.2,0,0,0-1.21,1.2v2.37a30.62,30.62,0,0,1-5.76-.74,1.2,1.2,0,0,0-1.45.9,1.2,1.2,0,0,0,.91,1.44,32.79,32.79,0,0,0,7.31.83h.22a32.52,32.52,0,0,0,16-4.29l.11,0,.06-.05a32.73,32.73,0,0,0,11.79-11.71l.07-.09s0-.05,0-.08a32,32,0,0,0,4.34-16.12A32,32,0,0,0-231.52-2403.32Z"/></clipPath><clipPath id="clip-path-3"><path class="cls-1" d="M-270.43-2410h-6a1.2,1.2,0,0,0-1.21,1.2,1.2,1.2,0,0,0,1.21,1.2h6a1.2,1.2,0,0,0,1.21-1.2A1.2,1.2,0,0,0-270.43-2410Z"/></clipPath><clipPath id="clip-path-4"><path class="cls-1" d="M-270.43-2401.59H-282.5a1.2,1.2,0,0,0-1.21,1.2,1.2,1.2,0,0,0,1.21,1.2h12.07a1.2,1.2,0,0,0,1.21-1.2A1.2,1.2,0,0,0-270.43-2401.59Z"/></clipPath><clipPath id="clip-path-5"><path class="cls-1" d="M-270.43-2393.19h-18.1a1.2,1.2,0,0,0-1.21,1.2,1.2,1.2,0,0,0,1.21,1.2h18.1a1.2,1.2,0,0,0,1.21-1.2A1.2,1.2,0,0,0-270.43-2393.19Z"/></clipPath><clipPath id="clip-path-6"><path class="cls-1" d="M-270.43-2384.79h-22.93a1.2,1.2,0,0,0-1.21,1.2,1.2,1.2,0,0,0,1.21,1.2h22.93a1.2,1.2,0,0,0,1.21-1.2A1.2,1.2,0,0,0-270.43-2384.79Z"/></clipPath><clipPath id="clip-path-7"><path class="cls-1" d="M-270.43-2376.39h-15.69a1.2,1.2,0,0,0-1.21,1.2,1.2,1.2,0,0,0,1.21,1.2h15.69a1.2,1.2,0,0,0,1.21-1.2A1.2,1.2,0,0,0-270.43-2376.39Z"/></clipPath><clipPath id="clip-path-8"><path class="cls-1" d="M-270.43-2368h-8.45a1.2,1.2,0,0,0-1.21,1.2,1.2,1.2,0,0,0,1.21,1.2h8.45a1.2,1.2,0,0,0,1.21-1.2A1.2,1.2,0,0,0-270.43-2368Z"/></clipPath><clipPath id="clip-path-9"><path class="cls-1" d="M-176.77-2524.61A1.87,1.87,0,0,1-176-2526l9.53-6.86-6.89,9.47a1.89,1.89,0,0,1-1.38.77,1.91,1.91,0,0,1-1.48-.54A1.87,1.87,0,0,1-176.77-2524.61Zm2.22,4.41a4.3,4.3,0,0,0,3.15-1.75l11.3-15.53a1.2,1.2,0,0,0-.13-1.55,1.22,1.22,0,0,0-1.56-.12l-15.62,11.24a4.26,4.26,0,0,0-1.76,3.12,4.26,4.26,0,0,0,1.25,3.36,4.3,4.3,0,0,0,3,1.25Z"/></clipPath><clipPath id="clip-path-10"><path class="cls-1" d="M-176.78-2558.57v-3.63H-181a.6.6,0,0,1-.6-.6.6.6,0,0,1,.6-.6h10.86a.6.6,0,0,1,.6.6.6.6,0,0,1-.6.6h-4.22v3.63l-1.21,0h-.2l-.59,0Zm29.17,2.68,1.71,1.7-1.71,1.7-1.71-1.7Zm.08,13.58s0-.05,0-.08l-.05-.06a32.64,32.64,0,0,0-4.3-5.77l2.59-2.58,1.71,1.7,5.12-5.09-5.12-5.09-5.12,5.09,1.71,1.7-2.59,2.58a32.76,32.76,0,0,0-5.8-4.28l-.06-.05-.08,0a32.49,32.49,0,0,0-12.4-4.08v-1.43h1.81a3,3,0,0,0,3-3,3,3,0,0,0-3-3H-181a3,3,0,0,0-3,3,3,3,0,0,0,3,3h1.81v1.39a33.37,33.37,0,0,0-3.89.64,1.2,1.2,0,0,0-.91,1.44,1.21,1.21,0,0,0,1.45.9,30.85,30.85,0,0,1,3.36-.57l1.29-.1,1.12-.07v2.37a1.2,1.2,0,0,0,1.21,1.2,1.2,1.2,0,0,0,1.21-1.2v-2.36a30.07,30.07,0,0,1,12.62,3.41l-1.19,2a1.2,1.2,0,0,0,.44,1.64,1.2,1.2,0,0,0,.6.16,1.21,1.21,0,0,0,1-.6l1.19-2a30.32,30.32,0,0,1,9.38,9.33l-2.06,1.18a1.2,1.2,0,0,0-.44,1.64,1.21,1.21,0,0,0,1,.6,1.2,1.2,0,0,0,.6-.16l2.06-1.18a29.65,29.65,0,0,1,3.44,12.74H-148a1.2,1.2,0,0,0-1.21,1.2A1.2,1.2,0,0,0-148-2525h2.38a29.65,29.65,0,0,1-3.44,12.74l-2.06-1.18a1.21,1.21,0,0,0-1.65.44,1.2,1.2,0,0,0,.44,1.64l2.06,1.18a30.32,30.32,0,0,1-9.38,9.33l-1.19-2a1.21,1.21,0,0,0-1.65-.44,1.19,1.19,0,0,0-.44,1.64l1.19,2a30.07,30.07,0,0,1-12.62,3.41v-2.36a1.2,1.2,0,0,0-1.21-1.2,1.2,1.2,0,0,0-1.21,1.2v2.37a30.62,30.62,0,0,1-5.76-.74,1.2,1.2,0,0,0-1.45.9,1.2,1.2,0,0,0,.91,1.44,32.79,32.79,0,0,0,7.31.83h.22a32.52,32.52,0,0,0,16-4.29l.11,0,.06-.05a32.73,32.73,0,0,0,11.79-11.71l.07-.09s0-.05,0-.08a32,32,0,0,0,4.34-16.12A32,32,0,0,0-147.52-2542.32Z"/></clipPath><clipPath id="clip-path-11"><path class="cls-1" d="M-186.43-2549h-6a1.2,1.2,0,0,0-1.21,1.2,1.2,1.2,0,0,0,1.21,1.2h6a1.2,1.2,0,0,0,1.21-1.2A1.2,1.2,0,0,0-186.43-2549Z"/></clipPath><clipPath id="clip-path-12"><path class="cls-1" d="M-186.43-2540.59H-198.5a1.2,1.2,0,0,0-1.21,1.2,1.2,1.2,0,0,0,1.21,1.2h12.07a1.2,1.2,0,0,0,1.21-1.2A1.2,1.2,0,0,0-186.43-2540.59Z"/></clipPath><clipPath id="clip-path-13"><path class="cls-1" d="M-186.43-2532.19h-18.1a1.2,1.2,0,0,0-1.21,1.2,1.2,1.2,0,0,0,1.21,1.2h18.1a1.2,1.2,0,0,0,1.21-1.2A1.2,1.2,0,0,0-186.43-2532.19Z"/></clipPath><clipPath id="clip-path-14"><path class="cls-1" d="M-186.43-2523.79h-22.93a1.2,1.2,0,0,0-1.21,1.2,1.2,1.2,0,0,0,1.21,1.2h22.93a1.2,1.2,0,0,0,1.21-1.2A1.2,1.2,0,0,0-186.43-2523.79Z"/></clipPath><clipPath id="clip-path-15"><path class="cls-1" d="M-186.43-2515.39h-15.69a1.2,1.2,0,0,0-1.21,1.2,1.2,1.2,0,0,0,1.21,1.2h15.69a1.2,1.2,0,0,0,1.21-1.2A1.2,1.2,0,0,0-186.43-2515.39Z"/></clipPath><clipPath id="clip-path-16"><path class="cls-1" d="M-186.43-2507h-8.45a1.2,1.2,0,0,0-1.21,1.2,1.2,1.2,0,0,0,1.21,1.2h8.45a1.2,1.2,0,0,0,1.21-1.2A1.2,1.2,0,0,0-186.43-2507Z"/></clipPath><clipPath id="clip-path-17"><path class="cls-1" d="M-152.27-46.11a1.87,1.87,0,0,1,.77-1.37l9.53-6.86-6.89,9.47a1.89,1.89,0,0,1-1.38.77,1.91,1.91,0,0,1-1.48-.54A1.87,1.87,0,0,1-152.27-46.11Zm2.22,4.41a4.3,4.3,0,0,0,3.15-1.75L-135.61-59a1.2,1.2,0,0,0-.13-1.55,1.22,1.22,0,0,0-1.56-.12l-15.62,11.24a4.26,4.26,0,0,0-1.76,3.12,4.26,4.26,0,0,0,1.25,3.36,4.3,4.3,0,0,0,3,1.25Z"/></clipPath><clipPath id="clip-path-18"><path class="cls-1" d="M-152.28-80.07v-3.63h-4.22a.6.6,0,0,1-.6-.6.6.6,0,0,1,.6-.6h10.86a.6.6,0,0,1,.6.6.6.6,0,0,1-.6.6h-4.22v3.63l-1.21,0h-.2l-.59,0Zm29.17,2.68,1.71,1.7L-123.1-74l-1.71-1.7Zm.08,13.58s0-.05,0-.08l-.05-.06a32.64,32.64,0,0,0-4.3-5.77l2.59-2.58,1.71,1.7,5.12-5.09-5.12-5.09-5.12,5.09,1.71,1.7-2.59,2.58a32.76,32.76,0,0,0-5.8-4.28l-.06-.05-.08,0a32.49,32.49,0,0,0-12.4-4.08v-1.43h1.81a3,3,0,0,0,3-3,3,3,0,0,0-3-3H-156.5a3,3,0,0,0-3,3,3,3,0,0,0,3,3h1.81v1.39a33.37,33.37,0,0,0-3.89.64,1.2,1.2,0,0,0-.91,1.44,1.21,1.21,0,0,0,1.45.9,30.85,30.85,0,0,1,3.36-.57l1.29-.1,1.12-.07v2.37a1.2,1.2,0,0,0,1.21,1.2,1.2,1.2,0,0,0,1.21-1.2v-2.36a30.07,30.07,0,0,1,12.62,3.41l-1.19,2a1.2,1.2,0,0,0,.44,1.64,1.2,1.2,0,0,0,.6.16,1.21,1.21,0,0,0,1-.6l1.19-2a30.32,30.32,0,0,1,9.38,9.33l-2.06,1.18a1.2,1.2,0,0,0-.44,1.64,1.21,1.21,0,0,0,1,.6,1.2,1.2,0,0,0,.6-.16l2.06-1.18a29.65,29.65,0,0,1,3.44,12.74h-2.38a1.2,1.2,0,0,0-1.21,1.2,1.2,1.2,0,0,0,1.21,1.2h2.38a29.65,29.65,0,0,1-3.44,12.74l-2.06-1.18a1.21,1.21,0,0,0-1.65.44,1.2,1.2,0,0,0,.44,1.64l2.06,1.18a30.32,30.32,0,0,1-9.38,9.33l-1.19-2a1.21,1.21,0,0,0-1.65-.44,1.19,1.19,0,0,0-.44,1.64l1.19,2a30.07,30.07,0,0,1-12.62,3.41v-2.36a1.2,1.2,0,0,0-1.21-1.2,1.2,1.2,0,0,0-1.21,1.2v2.37a30.62,30.62,0,0,1-5.76-.74,1.2,1.2,0,0,0-1.45.9,1.2,1.2,0,0,0,.91,1.44,32.79,32.79,0,0,0,7.31.83h.22a32.52,32.52,0,0,0,16-4.29l.11,0,.06-.05A32.73,32.73,0,0,0-123.12-31.4l.07-.09s0-.05,0-.08a32,32,0,0,0,4.34-16.12A32,32,0,0,0-123-63.82Z"/></clipPath><clipPath id="clip-path-19"><path class="cls-1" d="M-161.93-70.49h-6a1.2,1.2,0,0,0-1.21,1.2,1.2,1.2,0,0,0,1.21,1.2h6a1.2,1.2,0,0,0,1.21-1.2A1.2,1.2,0,0,0-161.93-70.49Z"/></clipPath><clipPath id="clip-path-20"><path class="cls-1" d="M-161.93-62.09H-174a1.2,1.2,0,0,0-1.21,1.2,1.2,1.2,0,0,0,1.21,1.2h12.07a1.2,1.2,0,0,0,1.21-1.2A1.2,1.2,0,0,0-161.93-62.09Z"/></clipPath><clipPath id="clip-path-21"><path class="cls-1" d="M-161.93-53.69H-180a1.2,1.2,0,0,0-1.21,1.2,1.2,1.2,0,0,0,1.21,1.2h18.1a1.2,1.2,0,0,0,1.21-1.2A1.2,1.2,0,0,0-161.93-53.69Z"/></clipPath><clipPath id="clip-path-22"><path class="cls-1" d="M-161.93-45.29h-22.93a1.2,1.2,0,0,0-1.21,1.2,1.2,1.2,0,0,0,1.21,1.2h22.93a1.2,1.2,0,0,0,1.21-1.2A1.2,1.2,0,0,0-161.93-45.29Z"/></clipPath><clipPath id="clip-path-23"><path class="cls-1" d="M-161.93-36.89h-15.69a1.2,1.2,0,0,0-1.21,1.2,1.2,1.2,0,0,0,1.21,1.2h15.69a1.2,1.2,0,0,0,1.21-1.2A1.2,1.2,0,0,0-161.93-36.89Z"/></clipPath><clipPath id="clip-path-24"><path class="cls-1" d="M-161.93-28.49h-8.45a1.2,1.2,0,0,0-1.21,1.2,1.2,1.2,0,0,0,1.21,1.2h8.45a1.2,1.2,0,0,0,1.21-1.2A1.2,1.2,0,0,0-161.93-28.49Z"/></clipPath><clipPath id="clip-path-25"><path class="cls-1" d="M-152.31-145.21a2.2,2.2,0,0,1,.9-1.61l11.2-8.06-8.1,11.13a2.22,2.22,0,0,1-1.62.9,2.25,2.25,0,0,1-1.74-.64A2.2,2.2,0,0,1-152.31-145.21Zm2.6,5.18a5.05,5.05,0,0,0,3.7-2.06l13.28-18.25a1.4,1.4,0,0,0-.15-1.82,1.43,1.43,0,0,0-1.83-.15l-18.36,13.21a5,5,0,0,0-2.06,3.67,5,5,0,0,0,1.46,3.94,5.05,5.05,0,0,0,3.57,1.47Z"/></clipPath><clipPath id="clip-path-26"><path class="cls-1" d="M-152.32-185.1v-4.26h-5a.71.71,0,0,1-.71-.7.71.71,0,0,1,.71-.7h12.76a.71.71,0,0,1,.71.7.71.71,0,0,1-.71.7h-5v4.26l-1.42,0h-.23l-.7,0ZM-118-182l2,2-2,2-2-2Zm.1,16s0-.06,0-.09l-.06-.07a38.35,38.35,0,0,0-5.06-6.78l3-3,2,2,6-6-6-6-6,6,2,2-3,3a38.49,38.49,0,0,0-6.82-5L-132-180l-.09,0a38.17,38.17,0,0,0-14.57-4.8v-1.68h2.13a3.54,3.54,0,0,0,3.55-3.52,3.54,3.54,0,0,0-3.55-3.52h-12.76a3.54,3.54,0,0,0-3.55,3.52,3.54,3.54,0,0,0,3.55,3.52h2.13v1.63a39.21,39.21,0,0,0-4.57.75,1.41,1.41,0,0,0-1.06,1.69,1.42,1.42,0,0,0,1.7,1.06,36.25,36.25,0,0,1,3.94-.67l1.52-.12,1.31-.08v2.79a1.41,1.41,0,0,0,1.42,1.41,1.41,1.41,0,0,0,1.42-1.41v-2.78a35.33,35.33,0,0,1,14.83,4l-1.4,2.41a1.41,1.41,0,0,0,.52,1.93,1.41,1.41,0,0,0,.71.19,1.42,1.42,0,0,0,1.23-.7l1.39-2.4a35.63,35.63,0,0,1,11,11l-2.41,1.39a1.4,1.4,0,0,0-.52,1.93,1.42,1.42,0,0,0,1.23.7,1.41,1.41,0,0,0,.71-.19l2.42-1.39a34.84,34.84,0,0,1,4,15h-2.8a1.41,1.41,0,0,0-1.42,1.41,1.41,1.41,0,0,0,1.42,1.41h2.8a34.84,34.84,0,0,1-4,15l-2.42-1.39a1.42,1.42,0,0,0-1.94.52,1.41,1.41,0,0,0,.52,1.93l2.41,1.39a35.63,35.63,0,0,1-11,11l-1.39-2.4a1.42,1.42,0,0,0-1.94-.52,1.4,1.4,0,0,0-.52,1.93l1.4,2.41a35.33,35.33,0,0,1-14.83,4v-2.77A1.41,1.41,0,0,0-150.9-116a1.41,1.41,0,0,0-1.42,1.41v2.79a36,36,0,0,1-6.77-.87,1.41,1.41,0,0,0-1.7,1.06,1.41,1.41,0,0,0,1.06,1.69,38.53,38.53,0,0,0,8.59,1h.26a38.21,38.21,0,0,0,18.75-5l.13-.05.07-.06a38.46,38.46,0,0,0,13.86-13.76A1.34,1.34,0,0,0-118-128s0-.06,0-.09a37.63,37.63,0,0,0,5.1-18.94A37.65,37.65,0,0,0-117.95-166Z"/></clipPath><clipPath id="clip-path-27"><path class="cls-1" d="M-163.67-173.85h-7.09a1.41,1.41,0,0,0-1.42,1.41,1.41,1.41,0,0,0,1.42,1.41h7.09a1.41,1.41,0,0,0,1.42-1.41A1.41,1.41,0,0,0-163.67-173.85Z"/></clipPath><clipPath id="clip-path-28"><path class="cls-1" d="M-163.67-164h-14.18a1.41,1.41,0,0,0-1.42,1.41,1.41,1.41,0,0,0,1.42,1.41h14.18a1.41,1.41,0,0,0,1.42-1.41A1.41,1.41,0,0,0-163.67-164Z"/></clipPath><clipPath id="clip-path-29"><path class="cls-1" d="M-163.67-154.11h-21.27a1.41,1.41,0,0,0-1.42,1.41,1.41,1.41,0,0,0,1.42,1.41h21.27a1.41,1.41,0,0,0,1.42-1.41A1.41,1.41,0,0,0-163.67-154.11Z"/></clipPath><clipPath id="clip-path-30"><path class="cls-1" d="M-163.67-144.24h-26.94a1.41,1.41,0,0,0-1.42,1.41,1.41,1.41,0,0,0,1.42,1.41h26.94a1.41,1.41,0,0,0,1.42-1.41A1.41,1.41,0,0,0-163.67-144.24Z"/></clipPath><clipPath id="clip-path-31"><path class="cls-1" d="M-163.67-134.37H-182.1a1.41,1.41,0,0,0-1.42,1.41,1.41,1.41,0,0,0,1.42,1.41h18.43a1.41,1.41,0,0,0,1.42-1.41A1.41,1.41,0,0,0-163.67-134.37Z"/></clipPath><clipPath id="clip-path-32"><path class="cls-1" d="M-163.67-124.5h-9.93a1.41,1.41,0,0,0-1.42,1.41,1.41,1.41,0,0,0,1.42,1.41h9.93a1.41,1.41,0,0,0,1.42-1.41A1.41,1.41,0,0,0-163.67-124.5Z"/></clipPath></defs><title>ricarica_atm</title><g id="ricarica_atm"><circle class="cls-34" cx="30" cy="30" r="30"/><path class="cls-35" d="M45.45,46.28H14.55A1.55,1.55,0,0,1,13,44.74V15.26a1.55,1.55,0,0,1,1.55-1.55H45.45A1.55,1.55,0,0,1,47,15.26V44.74A1.55,1.55,0,0,1,45.45,46.28ZM16.09,43.19H43.91V16.81H16.09Z"/><path class="cls-35" d="M40.09,41.09H19.91a1.55,1.55,0,0,1-1.55-1.55V29.59A1.55,1.55,0,0,1,19.91,28H40.09a1.55,1.55,0,0,1,1.55,1.55v9.95A1.55,1.55,0,0,1,40.09,41.09ZM21.45,38H38.55V31.14H21.45Z"/><path class="cls-35" d="M21.9,20.53a1.66,1.66,0,0,1,.13-.29.82.82,0,0,1,.17-.2.71.71,0,0,1,.23-.13.88.88,0,0,1,.29,0h.73a.89.89,0,0,1,.29,0A.72.72,0,0,1,24,20a.82.82,0,0,1,.17.2,1.66,1.66,0,0,1,.13.29L26,25.19a.66.66,0,0,1,.05.28.37.37,0,0,1-.07.21.41.41,0,0,1-.19.13.82.82,0,0,1-.28,0H25.1a1.15,1.15,0,0,1-.28,0,.53.53,0,0,1-.2-.1.62.62,0,0,1-.15-.18,1.89,1.89,0,0,1-.12-.28l-.19-.59H21.92l-.19.59a1.7,1.7,0,0,1-.12.28.6.6,0,0,1-.15.18.53.53,0,0,1-.2.1,1.15,1.15,0,0,1-.28,0h-.35a.81.81,0,0,1-.28,0,.41.41,0,0,1-.19-.13.37.37,0,0,1-.07-.21.68.68,0,0,1,.05-.28Zm.43,2.92h1.43l-.69-2.16h0Z"/><path class="cls-35" d="M27.54,21.19H26.12a.7.7,0,0,1-.23,0,.4.4,0,0,1-.26-.26.7.7,0,0,1,0-.23V20.4a.7.7,0,0,1,0-.23.43.43,0,0,1,.1-.17.42.42,0,0,1,.17-.1.7.7,0,0,1,.23,0h4.43a.71.71,0,0,1,.23,0,.41.41,0,0,1,.26.27.7.7,0,0,1,0,.23v.26a.7.7,0,0,1,0,.23.43.43,0,0,1-.1.17.44.44,0,0,1-.17.1.71.71,0,0,1-.23,0H29.14v4a.84.84,0,0,1,0,.29.52.52,0,0,1-.33.33.85.85,0,0,1-.29,0H28.2a.85.85,0,0,1-.29,0,.55.55,0,0,1-.2-.13.53.53,0,0,1-.13-.21.84.84,0,0,1,0-.29Z"/><path class="cls-35" d="M31.78,20.53a.85.85,0,0,1,0-.29A.55.55,0,0,1,32,20a.53.53,0,0,1,.2-.13.84.84,0,0,1,.29,0h1a1,1,0,0,1,.29,0A.68.68,0,0,1,34,20a.8.8,0,0,1,.18.2,1.46,1.46,0,0,1,.14.29l1.13,3.15h0l1.16-3.15a1.46,1.46,0,0,1,.14-.29.8.8,0,0,1,.18-.2.68.68,0,0,1,.23-.12,1,1,0,0,1,.29,0h.93a.85.85,0,0,1,.29,0,.54.54,0,0,1,.2.13.55.55,0,0,1,.13.2.85.85,0,0,1,0,.29v4.66a.84.84,0,0,1,0,.29.54.54,0,0,1-.13.21.55.55,0,0,1-.2.13.85.85,0,0,1-.29,0h-.28a.88.88,0,0,1-.29,0,.54.54,0,0,1-.21-.13.55.55,0,0,1-.13-.21.73.73,0,0,1,0-.29l.1-3.3h0l-1.25,3.32a2.63,2.63,0,0,1-.13.29.74.74,0,0,1-.15.2.58.58,0,0,1-.2.12.86.86,0,0,1-.28,0h-.15a.86.86,0,0,1-.28,0,.58.58,0,0,1-.2-.12.74.74,0,0,1-.15-.2,2.63,2.63,0,0,1-.13-.29l-1.24-3.32h0l.1,3.3a.72.72,0,0,1,0,.29.54.54,0,0,1-.13.21.55.55,0,0,1-.21.13.89.89,0,0,1-.29,0h-.28a.84.84,0,0,1-.29,0,.52.52,0,0,1-.33-.33.84.84,0,0,1,0-.29Z"/></g></svg>