<?xml version="1.0" encoding="UTF-8"?>
<svg width="14px" height="13px" viewBox="0 0 14 13" version="1.1" xmlns="http://www.w3.org/2000/svg" xmlns:xlink="http://www.w3.org/1999/xlink">
    <!-- Generator: Sketch 42 (36781) - http://www.bohemiancoding.com/sketch -->
    <title>icon_star</title>
    <desc>Created with Sketch.</desc>
    <defs></defs>
    <g id="Landing-A" stroke="none" stroke-width="1" fill="none" fill-rule="evenodd">
        <g id="Landing" transform="translate(-669.000000, -4732.000000)" fill="#FFCD67">
            <g id="content-E" transform="translate(0.000000, 4329.000000)">
                <g id="Group-13" transform="translate(668.000000, 247.000000)">
                    <g id="star" transform="translate(1.000000, 156.000000)">
                        <path d="M10.8737269,8.88017325 L11.5030081,12.4505063 C11.5347007,12.6301793 11.4630876,12.801847 11.3113287,12.9091764 C11.1592651,13.0162093 10.9700237,13.0292549 10.8039422,12.9450517 L7.50821505,11.2589129 C7.34944724,11.1779711 7.17452839,11.1370554 7.00021901,11.1370554 C6.82590964,11.1370554 6.65129552,11.1779711 6.49222298,11.2592093 L3.19710532,12.9450517 C3.03041436,13.0292549 2.84117288,13.0162093 2.68941402,12.9091764 C2.53765516,12.801847 2.46634677,12.6304758 2.49773465,12.4505063 L3.12701588,8.88017325 C3.18765848,8.53565182 3.07033486,8.18401463 2.81313711,7.94029981 L0.146691208,5.41153625 C0.0123023348,5.28404553 -0.0334081664,5.10437256 0.0247965384,4.93092589 C0.0826965065,4.75718272 0.2280559,4.63799373 0.413640535,4.61160611 L4.09821166,4.09067311 C4.45383936,4.04056629 4.76131867,3.82353558 4.92008648,3.50984912 L6.56779767,0.261207727 C6.65068605,0.0975452238 6.81250122,-8.8817842e-16 6.99991428,-8.8817842e-16 C7.18763207,-8.8817842e-16 7.34914251,0.0975452238 7.43233562,0.261207727 L9.08004682,3.50984912 C9.23881462,3.82353558 9.54598919,4.04056629 9.90161689,4.09067311 L13.5864928,4.61160611 C13.7720774,4.63799373 13.9174368,4.75718272 13.9753368,4.93092589 C14.0332367,5.10437256 13.987831,5.28404553 13.8534421,5.41153625 L11.1873009,7.94000332 C10.9301032,8.18401463 10.8127795,8.53535533 10.8737269,8.88017325 Z" id="icon_star"></path>
                    </g>
                </g>
            </g>
        </g>
    </g>
</svg>