<?xml version="1.0" encoding="UTF-8"?>
<svg width="120px" height="120px" viewBox="0 0 120 120" version="1.1" xmlns="http://www.w3.org/2000/svg" xmlns:xlink="http://www.w3.org/1999/xlink">
    <!-- Generator: Sketch 42 (36781) - http://www.bohemiancoding.com/sketch -->
    <title>icon_gift</title>
    <desc>Created with Sketch.</desc>
    <defs></defs>
    <g id="Landing-A" stroke="none" stroke-width="1" fill="none" fill-rule="evenodd">
        <g id="Landing" transform="translate(-1201.000000, -919.000000)">
            <g id="block-3" transform="translate(1081.000000, 895.000000)">
                <g id="Group-3" transform="translate(40.000000, 24.000000)">
                    <g id="icon_gift" transform="translate(80.000000, 0.000000)">
                        <rect id="Rectangle-15" fill="#FFFFFF" x="0" y="0" width="120" height="120"></rect>
                        <path d="M95,44.3181754 L76.7962807,44.3181754 C77.7685614,42.9283509 78.2982456,41.2772632 78.2982456,39.5378947 C78.2982456,37.3010526 77.4321404,35.2037895 75.8609825,33.6326316 C72.6053333,30.3769825 67.3072982,30.3769825 64.0516491,33.6326316 L60.6767018,37.0075789 L57.3029474,33.6326316 C54.0472982,30.3769825 48.7492632,30.3769825 45.493614,33.6326316 C43.9224561,35.2037895 43.0563509,37.3010526 43.0563509,39.5378947 C43.0563509,41.2772632 43.5860351,42.9283509 44.5583158,44.3181754 L27,44.3181754 L27,61.0199298 L32.9649123,61.0199298 L32.9649123,96.8094035 L90.2280702,96.8094035 L90.2280702,61.0199298 L95,61.0199298 L95,44.3181754 Z M65.7385263,35.3195088 C68.0648421,32.994386 71.8489825,32.994386 74.1741053,35.3195088 C75.2943158,36.4409123 75.9122807,37.9381053 75.9122807,39.5378947 C75.9122807,41.1364912 75.2943158,42.6348772 74.1741053,43.7550877 L73.6110175,44.3181754 L56.7398596,44.3181754 L62.3635789,38.6944561 L62.3635789,38.6944561 L65.7385263,35.3195088 Z M47.1804912,43.7550877 C46.0602807,42.6348772 45.4423158,41.1364912 45.4423158,39.5378947 C45.4423158,37.9381053 46.0602807,36.4409123 47.1804912,35.3195088 C49.506807,32.994386 53.2909474,32.994386 55.6160702,35.3195088 L58.9898246,38.6944561 L54.7726316,42.9116491 C54.5256842,43.1585965 54.2990175,43.4377544 54.0795088,43.733614 C54.0150877,43.8207018 53.9518596,43.9149474 53.8898246,44.006807 C53.8182456,44.1117895 53.7430877,44.2060351 53.6750877,44.3169825 L47.7435789,44.3169825 L47.1804912,43.7550877 Z M29.3859649,58.6339649 L29.3859649,46.7041404 L46.7545965,46.7041404 L52.4009825,46.7041404 L55.0911579,46.7041404 L60.4035088,46.7041404 L60.4035088,58.6339649 L32.9649123,58.6339649 L29.3859649,58.6339649 Z M60.4035088,61.0199298 L60.4035088,75.3357193 L35.3508772,75.3357193 L35.3508772,61.0199298 L60.4035088,61.0199298 L60.4035088,61.0199298 Z M35.3508772,77.7216842 L60.4035088,77.7216842 L60.4035088,94.4234386 L35.3508772,94.4234386 L35.3508772,77.7216842 Z M62.7894737,94.4234386 L62.7894737,77.7216842 L87.8421053,77.7216842 L87.8421053,94.4234386 L62.7894737,94.4234386 Z M87.8421053,75.3357193 L62.7894737,75.3357193 L62.7894737,61.0199298 L87.8421053,61.0199298 L87.8421053,75.3357193 Z M92.6140351,58.6339649 L90.2280702,58.6339649 L62.7894737,58.6339649 L62.7894737,46.7041404 L74.598807,46.7041404 L92.6140351,46.7041404 L92.6140351,58.6339649 Z" id="Shape" fill="#00A5FF"></path>
                    </g>
                </g>
            </g>
        </g>
    </g>
</svg>