<?xml version="1.0" encoding="UTF-8"?>
<svg width="120px" height="120px" viewBox="0 0 120 120" version="1.1" xmlns="http://www.w3.org/2000/svg" xmlns:xlink="http://www.w3.org/1999/xlink">
    <!-- Generator: Sketch 42 (36781) - http://www.bohemiancoding.com/sketch -->
    <title>icon_app</title>
    <desc>Created with Sketch.</desc>
    <defs></defs>
    <g id="Landing-A" stroke="none" stroke-width="1" fill="none" fill-rule="evenodd">
        <g id="Landing" transform="translate(-841.000000, -919.000000)">
            <g id="block-3" transform="translate(720.000000, 895.000000)">
                <g id="Group-3" transform="translate(39.000000, 24.000000)">
                    <g id="icon_app" transform="translate(82.000000, 0.000000)">
                        <rect id="Rectangle-15" fill="#FFFFFF" x="0" y="0" width="120" height="120"></rect>
                        <path d="M65.8843478,88.8697742 C63.5767391,88.8697742 61.6995652,90.7436452 61.6995652,93.0471935 C61.6995652,95.3507419 63.5767391,97.2246129 65.8843478,97.2246129 C68.1919565,97.2246129 70.0691304,95.3507419 70.0691304,93.0471935 C70.0691304,90.7436452 68.1907609,88.8697742 65.8843478,88.8697742 Z M65.8843478,94.8375161 C64.8955435,94.8375161 64.0908696,94.0342581 64.0908696,93.0471935 C64.0908696,92.060129 64.8955435,91.256871 65.8843478,91.256871 C66.8731522,91.256871 67.6778261,92.060129 67.6778261,93.0471935 C67.6778261,94.0342581 66.8731522,94.8375161 65.8843478,94.8375161 Z" id="Shape" fill="#00A5FF"></path>
                        <path d="M71.2647826,73.3536452 C73.9023913,73.3536452 76.0473913,71.2124194 76.0473913,68.5794516 C76.0473913,65.9464839 73.9023913,63.8052581 71.2647826,63.8052581 C68.6271739,63.8052581 66.4821739,65.9464839 66.4821739,68.5794516 C66.4821739,71.2124194 68.6259783,73.3536452 71.2647826,73.3536452 Z M71.2647826,66.1923548 C72.583587,66.1923548 73.656087,67.2629677 73.656087,68.5794516 C73.656087,69.8959355 72.583587,70.9665484 71.2647826,70.9665484 C69.9459783,70.9665484 68.8734783,69.8959355 68.8734783,68.5794516 C68.8734783,67.2629677 69.9459783,66.1923548 71.2647826,66.1923548 Z" id="Shape" fill="#00A5FF"></path>
                        <path d="M42.5691304,43.5149355 C42.8752174,43.5149355 43.1813043,43.3979677 43.4144565,43.1652258 L45.8057609,40.778129 C46.2732609,40.3114516 46.2732609,39.557129 45.8057609,39.0904516 C45.3382609,38.6237742 44.5826087,38.6237742 44.1151087,39.0904516 L41.7238043,41.4775484 C41.2563043,41.9442258 41.2563043,42.6985484 41.7238043,43.1652258 C41.9569565,43.3979677 42.2630435,43.5149355 42.5691304,43.5149355 Z" id="Shape" fill="#00A5FF"></path>
                        <path d="M85.6126087,64.6980323 C85.6126087,63.6477097 85.2025,62.6606452 84.4588043,61.9182581 L83.7928261,61.2534516 C84.9275,60.250871 85.611413,58.8007097 85.611413,57.2407419 C85.611413,54.2795484 83.1973913,51.8697742 80.2309783,51.8697742 C80.0133696,51.8697742 79.7981522,51.8912581 79.5853261,51.9175161 C79.6116304,51.703871 79.6331522,51.4914194 79.6331522,51.273 C79.6331522,48.3118065 77.2191304,45.9020323 74.2527174,45.9020323 C74.0351087,45.9020323 73.8198913,45.9235161 73.6070652,45.9497742 C73.6333696,45.736129 73.6548913,45.5236774 73.6548913,45.3052581 C73.6548913,42.3440645 71.2408696,39.9342903 68.2744565,39.9342903 C68.0568478,39.9342903 67.8416304,39.9557742 67.6288043,39.9820323 C67.6551087,39.7683871 67.6766304,39.5559355 67.6766304,39.3375161 C67.6766304,36.3763226 65.2626087,33.9665484 62.2961957,33.9665484 C60.7322826,33.9665484 59.2807609,34.6504516 58.276413,35.7819355 L57.3270652,34.8342581 L52.8278261,30.3429355 C51.291413,28.8092258 48.7925,28.8092258 47.2584783,30.3429355 L32.5376087,45.0379032 C31.003587,46.5716129 31.003587,49.0649355 32.5376087,50.5986452 L37.0368478,55.0899677 L42.9075,60.9502903 C41.2861957,61.8764839 40.1778261,63.6011613 40.1778261,65.5955806 C40.1778261,67.4610968 41.1379348,69.1058065 42.5894565,70.069 C42.6623913,70.1656774 42.7472826,70.2611613 42.8608696,70.3578387 L55.7213043,83.1467097 L55.7213043,85.2903226 L53.33,85.2903226 L53.33,100.806452 L74.8517391,100.806452 L84.4169565,100.806452 L84.4169565,85.2903226 L82.0256522,85.2903226 L82.0256522,81.673871 C84.3129348,79.739129 85.6126087,76.9569677 85.6126087,73.9504194 C85.6126087,71.8736452 84.9633696,69.8565484 83.776087,68.1593226 L84.4588043,67.4778065 C85.2025,66.7354194 85.6126087,65.7483548 85.6126087,64.6980323 Z M83.2213043,57.2407419 C83.2213043,58.1573871 82.7980435,59.006 82.1009783,59.5645806 L77.9030435,55.3740323 C78.4626087,54.6781935 79.313913,54.2556774 80.2309783,54.2556774 C81.8797826,54.256871 83.2213043,55.5948387 83.2213043,57.2407419 Z M77.2430435,51.273 C77.2430435,52.1896452 76.8197826,53.0382581 76.1227174,53.5968387 L71.9247826,49.4062903 C72.4843478,48.7104516 73.3356522,48.2879355 74.2527174,48.2879355 C75.9015217,48.289129 77.2430435,49.6270968 77.2430435,51.273 Z M71.2647826,45.3052581 C71.2647826,46.2219032 70.8415217,47.0705161 70.1444565,47.6290968 L65.9465217,43.4385484 C66.506087,42.7427097 67.3573913,42.3201935 68.2744565,42.3201935 C69.9232609,42.3213871 71.2647826,43.6593548 71.2647826,45.3052581 Z M62.2973913,36.3536452 C63.9461957,36.3536452 65.2865217,37.6916129 65.2865217,39.3375161 C65.2865217,40.2541613 64.8632609,41.1027742 64.1661957,41.6613548 L59.9682609,37.4708065 C60.5278261,36.7761613 61.3791304,36.3536452 62.2973913,36.3536452 Z M34.2282609,48.9121613 C33.6256522,48.3094194 33.6256522,47.3295161 34.2282609,46.7267742 L48.9491304,32.0318065 C49.098587,31.8826129 49.2731522,31.7704194 49.4584783,31.6952258 C49.5421739,31.6606129 49.6366304,31.6618065 49.7251087,31.6427097 C49.9379348,31.5973548 50.1483696,31.5973548 50.3611957,31.6427097 C50.4496739,31.6618065 50.5441304,31.6606129 50.6278261,31.6952258 C50.8131522,31.7704194 50.9865217,31.8826129 51.1371739,32.0318065 L53.9457609,34.8354516 L37.0368478,51.7146129 L34.2282609,48.9121613 Z M55.636413,36.523129 L57.0448913,37.929129 L63.0231522,43.896871 L63.7082609,44.5807742 L69.001413,49.8646129 L69.6865217,50.5485161 L74.9796739,55.8323548 L75.6647826,56.5162581 L81.6430435,62.484 L82.7669565,63.6059355 C83.3707609,64.2086774 83.3707609,65.1873871 82.7669565,65.790129 L82.2444565,66.3129032 L82.2444565,66.3129032 L68.0472826,80.4862903 C67.4458696,81.0878387 66.4618478,81.0902258 65.8580435,80.4862903 L56.3227174,70.9665484 L57.513587,70.9665484 C60.48,70.9665484 62.8940217,68.5567742 62.8940217,65.5955806 C62.8940217,62.6343871 60.48,60.2246129 57.513587,60.2246129 L45.5606522,60.2246129 L38.7263043,53.4022903 L55.636413,36.523129 Z M44.9126087,62.6857097 L45.4088043,62.6296129 C45.4578261,62.6224516 45.5068478,62.6117097 45.5570652,62.6117097 L57.513587,62.6117097 C59.1623913,62.6117097 60.5027174,63.9496774 60.5027174,65.5955806 C60.5027174,67.2414839 59.1623913,68.5794516 57.513587,68.5794516 L53.931413,68.5794516 L50.5501087,68.5794516 L45.5570652,68.5794516 C43.9082609,68.5794516 42.5679348,67.2414839 42.5679348,65.5955806 C42.5691304,64.1716774 43.5746739,62.9817097 44.9126087,62.6857097 Z M55.7213043,98.4181613 L55.7213043,87.6762258 L65.7958696,87.6762258 C69.4701087,87.6762258 72.4604348,90.6612903 72.4604348,94.3290645 L72.4604348,98.4181613 L55.7213043,98.4181613 Z M82.0256522,98.4181613 L74.8517391,98.4181613 L74.8517391,94.3290645 C74.8517391,91.6960968 73.711087,89.3304839 71.9056522,87.6762258 L82.0256522,87.6762258 L82.0256522,98.4181613 Z M82.0555435,69.8780323 C82.813587,71.0966452 83.2213043,72.5062258 83.2213043,73.9504194 C83.2213043,76.4031613 82.0878261,78.6601613 80.1102174,80.146129 L79.6343478,80.5041935 L79.6343478,85.289129 L65.7946739,85.289129 L58.111413,85.289129 L58.111413,82.0450645 L57.6893478,81.6881935 C57.6355435,81.6416452 57.5781522,81.5986774 57.4741304,81.5210968 L46.8603261,70.9653548 L52.9402174,70.9653548 L64.1661957,82.1727742 C64.935,82.9390323 65.9429348,83.3221613 66.9508696,83.3221613 C67.96,83.3221613 68.9691304,82.9390323 69.7367391,82.1727742 L82.0555435,69.8780323 Z" id="Shape" fill="#00A5FF"></path>
                    </g>
                </g>
            </g>
        </g>
    </g>
</svg>