<svg xmlns="http://www.w3.org/2000/svg" xmlns:xlink="http://www.w3.org/1999/xlink" viewBox="0 0 72 72"><defs><style>.cls-1{fill:none;clip-rule:evenodd;}.cls-2{fill:#00a5ff;}.cls-3{clip-path:url(#clip-path);}.cls-4{clip-path:url(#clip-path-2);}.cls-5{clip-path:url(#clip-path-3);}.cls-6{clip-path:url(#clip-path-4);}.cls-7{clip-path:url(#clip-path-5);}.cls-8{clip-path:url(#clip-path-6);}.cls-9{clip-path:url(#clip-path-7);}.cls-10{clip-path:url(#clip-path-8);}.cls-11{clip-path:url(#clip-path-9);}.cls-12{clip-path:url(#clip-path-10);}.cls-13{clip-path:url(#clip-path-11);}.cls-14{clip-path:url(#clip-path-12);}.cls-15{clip-path:url(#clip-path-13);}.cls-16{clip-path:url(#clip-path-14);}.cls-17{clip-path:url(#clip-path-15);}.cls-18{clip-path:url(#clip-path-16);}</style><clipPath id="clip-path"><path class="cls-1" d="M-394.12,41.18a1.87,1.87,0,0,1,.77-1.37l9.53-6.86-6.89,9.47a1.89,1.89,0,0,1-1.38.77,1.91,1.91,0,0,1-1.48-.54A1.87,1.87,0,0,1-394.12,41.18Zm2.22,4.41a4.3,4.3,0,0,0,3.15-1.75l11.3-15.53a1.2,1.2,0,0,0-.13-1.55,1.22,1.22,0,0,0-1.56-.12l-15.62,11.24A4.26,4.26,0,0,0-396.53,41a4.26,4.26,0,0,0,1.25,3.36,4.3,4.3,0,0,0,3,1.25Z"/></clipPath><clipPath id="clip-path-2"><path class="cls-1" d="M-394.13,7.23V3.6h-4.22A.6.6,0,0,1-399,3a.6.6,0,0,1,.6-.6h10.86a.6.6,0,0,1,.6.6.6.6,0,0,1-.6.6h-4.22V7.23l-1.21,0h-.2l-.59,0ZM-365,9.9l1.71,1.7L-365,13.3l-1.71-1.7Zm.08,13.58s0-.05,0-.08l-.05-.06a32.64,32.64,0,0,0-4.3-5.77l2.59-2.58,1.71,1.7,5.12-5.09L-365,6.51l-5.12,5.09,1.71,1.7L-371,15.87a32.76,32.76,0,0,0-5.8-4.28l-.06-.05-.08,0a32.49,32.49,0,0,0-12.4-4.08V6h1.81a3,3,0,0,0,3-3,3,3,0,0,0-3-3h-10.86a3,3,0,0,0-3,3,3,3,0,0,0,3,3h1.81V7.39a33.37,33.37,0,0,0-3.89.64,1.2,1.2,0,0,0-.91,1.44,1.21,1.21,0,0,0,1.45.9,30.85,30.85,0,0,1,3.36-.57l1.29-.1,1.12-.07V12a1.2,1.2,0,0,0,1.21,1.2,1.2,1.2,0,0,0,1.21-1.2V9.64A30.07,30.07,0,0,1-379.09,13l-1.19,2a1.2,1.2,0,0,0,.44,1.64,1.2,1.2,0,0,0,.6.16,1.21,1.21,0,0,0,1-.6l1.19-2a30.32,30.32,0,0,1,9.38,9.33l-2.06,1.18a1.2,1.2,0,0,0-.44,1.64,1.21,1.21,0,0,0,1,.6,1.2,1.2,0,0,0,.6-.16l2.06-1.18A29.65,29.65,0,0,1-363,38.4h-2.38a1.2,1.2,0,0,0-1.21,1.2,1.2,1.2,0,0,0,1.21,1.2H-363a29.65,29.65,0,0,1-3.44,12.74l-2.06-1.18a1.21,1.21,0,0,0-1.65.44,1.2,1.2,0,0,0,.44,1.64l2.06,1.18A30.32,30.32,0,0,1-377,64.94l-1.19-2a1.21,1.21,0,0,0-1.65-.44,1.19,1.19,0,0,0-.44,1.64l1.19,2a30.07,30.07,0,0,1-12.62,3.41V67.2a1.2,1.2,0,0,0-1.21-1.2,1.2,1.2,0,0,0-1.21,1.2v2.37a30.62,30.62,0,0,1-5.76-.74,1.2,1.2,0,0,0-1.45.9,1.2,1.2,0,0,0,.91,1.44,32.79,32.79,0,0,0,7.31.83h.22a32.52,32.52,0,0,0,16-4.29l.11,0,.06-.05A32.73,32.73,0,0,0-365,55.89l.07-.09s0-.05,0-.08a32,32,0,0,0,4.34-16.12A32,32,0,0,0-364.87,23.48Z"/></clipPath><clipPath id="clip-path-3"><path class="cls-1" d="M-403.78,16.8h-6A1.2,1.2,0,0,0-411,18a1.2,1.2,0,0,0,1.21,1.2h6a1.2,1.2,0,0,0,1.21-1.2A1.2,1.2,0,0,0-403.78,16.8Z"/></clipPath><clipPath id="clip-path-4"><path class="cls-1" d="M-403.78,25.2h-12.07a1.2,1.2,0,0,0-1.21,1.2,1.2,1.2,0,0,0,1.21,1.2h12.07a1.2,1.2,0,0,0,1.21-1.2A1.2,1.2,0,0,0-403.78,25.2Z"/></clipPath><clipPath id="clip-path-5"><path class="cls-1" d="M-403.78,33.6h-18.1a1.2,1.2,0,0,0-1.21,1.2,1.2,1.2,0,0,0,1.21,1.2h18.1a1.2,1.2,0,0,0,1.21-1.2A1.2,1.2,0,0,0-403.78,33.6Z"/></clipPath><clipPath id="clip-path-6"><path class="cls-1" d="M-403.78,42h-22.93a1.2,1.2,0,0,0-1.21,1.2,1.2,1.2,0,0,0,1.21,1.2h22.93a1.2,1.2,0,0,0,1.21-1.2A1.2,1.2,0,0,0-403.78,42Z"/></clipPath><clipPath id="clip-path-7"><path class="cls-1" d="M-403.78,50.4h-15.69a1.2,1.2,0,0,0-1.21,1.2,1.2,1.2,0,0,0,1.21,1.2h15.69a1.2,1.2,0,0,0,1.21-1.2A1.2,1.2,0,0,0-403.78,50.4Z"/></clipPath><clipPath id="clip-path-8"><path class="cls-1" d="M-403.78,58.8h-8.45a1.2,1.2,0,0,0-1.21,1.2,1.2,1.2,0,0,0,1.21,1.2h8.45a1.2,1.2,0,0,0,1.21-1.2A1.2,1.2,0,0,0-403.78,58.8Z"/></clipPath><clipPath id="clip-path-9"><path class="cls-1" d="M-394.16-57.92a2.2,2.2,0,0,1,.9-1.61l11.2-8.06-8.1,11.13a2.22,2.22,0,0,1-1.62.9,2.25,2.25,0,0,1-1.74-.64A2.2,2.2,0,0,1-394.16-57.92Zm2.6,5.18a5.05,5.05,0,0,0,3.7-2.06L-374.59-73a1.4,1.4,0,0,0-.15-1.82,1.43,1.43,0,0,0-1.83-.15l-18.36,13.21A5,5,0,0,0-397-58.14a5,5,0,0,0,1.46,3.94A5.05,5.05,0,0,0-392-52.72Z"/></clipPath><clipPath id="clip-path-10"><path class="cls-1" d="M-394.17-97.81v-4.26h-5a.71.71,0,0,1-.71-.7.71.71,0,0,1,.71-.7h12.76a.71.71,0,0,1,.71.7.71.71,0,0,1-.71.7h-5v4.26l-1.42,0H-393l-.7,0Zm34.28,3.14,2,2-2,2-2-2Zm.1,16s0-.06,0-.09l-.06-.07a38.35,38.35,0,0,0-5.06-6.78l3-3,2,2,6-6-6-6-6,6,2,2-3,3a38.49,38.49,0,0,0-6.82-5l-.07-.06-.09,0a38.17,38.17,0,0,0-14.57-4.8v-1.68h2.13a3.54,3.54,0,0,0,3.55-3.52,3.54,3.54,0,0,0-3.55-3.52h-12.76a3.54,3.54,0,0,0-3.55,3.52,3.54,3.54,0,0,0,3.55,3.52H-397v1.63a39.21,39.21,0,0,0-4.57.75,1.41,1.41,0,0,0-1.06,1.69,1.42,1.42,0,0,0,1.7,1.06,36.25,36.25,0,0,1,3.94-.67l1.52-.12,1.31-.08v2.79a1.41,1.41,0,0,0,1.42,1.41,1.41,1.41,0,0,0,1.42-1.41V-95a35.33,35.33,0,0,1,14.83,4l-1.4,2.41a1.41,1.41,0,0,0,.52,1.93,1.41,1.41,0,0,0,.71.19,1.42,1.42,0,0,0,1.23-.7l1.39-2.4a35.63,35.63,0,0,1,11,11l-2.41,1.39a1.4,1.4,0,0,0-.52,1.93,1.42,1.42,0,0,0,1.23.7,1.41,1.41,0,0,0,.71-.19l2.42-1.39a34.84,34.84,0,0,1,4,15h-2.8a1.41,1.41,0,0,0-1.42,1.41,1.41,1.41,0,0,0,1.42,1.41h2.8a34.84,34.84,0,0,1-4,15L-364-44.78a1.42,1.42,0,0,0-1.94.52,1.41,1.41,0,0,0,.52,1.93L-363-41a35.63,35.63,0,0,1-11,11l-1.39-2.4a1.42,1.42,0,0,0-1.94-.52A1.4,1.4,0,0,0-377.9-31l1.4,2.41a35.33,35.33,0,0,1-14.83,4v-2.77a1.41,1.41,0,0,0-1.42-1.41,1.41,1.41,0,0,0-1.42,1.41v2.79a36,36,0,0,1-6.77-.87,1.41,1.41,0,0,0-1.7,1.06,1.41,1.41,0,0,0,1.06,1.69,38.53,38.53,0,0,0,8.59,1h.26a38.21,38.21,0,0,0,18.75-5l.13-.05.07-.06a38.46,38.46,0,0,0,13.86-13.76,1.34,1.34,0,0,0,.09-.11s0-.06,0-.09a37.63,37.63,0,0,0,5.1-18.94A37.65,37.65,0,0,0-359.8-78.71Z"/></clipPath><clipPath id="clip-path-11"><path class="cls-1" d="M-405.51-86.56h-7.09A1.41,1.41,0,0,0-414-85.15a1.41,1.41,0,0,0,1.42,1.41h7.09a1.41,1.41,0,0,0,1.42-1.41A1.41,1.41,0,0,0-405.51-86.56Z"/></clipPath><clipPath id="clip-path-12"><path class="cls-1" d="M-405.51-76.69H-419.7a1.41,1.41,0,0,0-1.42,1.41,1.41,1.41,0,0,0,1.42,1.41h14.18a1.41,1.41,0,0,0,1.42-1.41A1.41,1.41,0,0,0-405.51-76.69Z"/></clipPath><clipPath id="clip-path-13"><path class="cls-1" d="M-405.51-66.82h-21.27a1.41,1.41,0,0,0-1.42,1.41A1.41,1.41,0,0,0-426.79-64h21.27a1.41,1.41,0,0,0,1.42-1.41A1.41,1.41,0,0,0-405.51-66.82Z"/></clipPath><clipPath id="clip-path-14"><path class="cls-1" d="M-405.51-57h-26.94a1.41,1.41,0,0,0-1.42,1.41,1.41,1.41,0,0,0,1.42,1.41h26.94a1.41,1.41,0,0,0,1.42-1.41A1.41,1.41,0,0,0-405.51-57Z"/></clipPath><clipPath id="clip-path-15"><path class="cls-1" d="M-405.51-47.08h-18.43a1.41,1.41,0,0,0-1.42,1.41,1.41,1.41,0,0,0,1.42,1.41h18.43a1.41,1.41,0,0,0,1.42-1.41A1.41,1.41,0,0,0-405.51-47.08Z"/></clipPath><clipPath id="clip-path-16"><path class="cls-1" d="M-405.51-37.21h-9.93a1.41,1.41,0,0,0-1.42,1.41,1.41,1.41,0,0,0,1.42,1.41h9.93a1.41,1.41,0,0,0,1.42-1.41A1.41,1.41,0,0,0-405.51-37.21Z"/></clipPath></defs><title>nessun_costo</title><g id="nessun_costo"><path class="cls-2" d="M65.28,72H7.37a1.56,1.56,0,0,1-1.55-1.58V29.55A1.56,1.56,0,0,1,7.37,28H65.28a1.56,1.56,0,0,1,1.55,1.58V70.42A1.56,1.56,0,0,1,65.28,72ZM8.92,68.85H63.73V31.13H8.92Z"/><path class="cls-2" d="M70.45,30.84H1.55A1.55,1.55,0,0,1,0,29.29V16.4a1.55,1.55,0,0,1,1.55-1.55h68.9A1.55,1.55,0,0,1,72,16.4v12.9A1.55,1.55,0,0,1,70.45,30.84ZM3.1,27.75H68.9v-9.8H3.1Z"/><path class="cls-2" d="M43.17,71.91H29.34a1.56,1.56,0,0,1-1.55-1.58V16.42a1.56,1.56,0,0,1,1.55-1.58H43.17a1.56,1.56,0,0,1,1.55,1.58V70.33A1.56,1.56,0,0,1,43.17,71.91ZM30.89,68.76H41.62V18H30.89Z"/><path class="cls-2" d="M30.89,17.88l-1.8,0c-.66,0-1.36,0-2.07,0-5.92,0-10.73-4-10.73-8.91S21.1,0,27,0c6.3,0,10.73,8.42,10.73,13a4.58,4.58,0,0,1-1.27,3.42C35.18,17.66,33.21,17.88,30.89,17.88ZM27,3.1c-4.21,0-7.63,2.61-7.63,5.81s3.42,5.81,7.63,5.81c.74,0,1.45,0,2.14,0,2.2,0,4.46.1,5.15-.57.08-.08.34-.33.34-1.21C34.64,9.35,30.87,3.1,27,3.1Z"/><path class="cls-2" d="M41.76,17.88c-2.32,0-4.29-.21-5.59-1.48A4.58,4.58,0,0,1,34.9,13c0-4.56,4.42-13,10.73-13,5.92,0,10.73,4,10.73,8.91s-4.81,8.91-10.73,8.91c-.71,0-1.41,0-2.07,0ZM45.63,3.1C41.77,3.1,38,9.35,38,13c0,.88.25,1.13.34,1.21.69.67,3,.62,5.15.57.69,0,1.4,0,2.14,0,4.21,0,7.63-2.61,7.63-5.81S49.84,3.1,45.63,3.1Z"/></g></svg>