<svg xmlns="http://www.w3.org/2000/svg" xmlns:xlink="http://www.w3.org/1999/xlink" viewBox="0 0 60 60"><defs><style>.cls-1{fill:none;clip-rule:evenodd;}.cls-2{clip-path:url(#clip-path);}.cls-3{clip-path:url(#clip-path-2);}.cls-4{clip-path:url(#clip-path-3);}.cls-5{clip-path:url(#clip-path-4);}.cls-6{clip-path:url(#clip-path-5);}.cls-7{clip-path:url(#clip-path-6);}.cls-8{clip-path:url(#clip-path-7);}.cls-9{clip-path:url(#clip-path-8);}.cls-10{clip-path:url(#clip-path-9);}.cls-11{clip-path:url(#clip-path-10);}.cls-12{clip-path:url(#clip-path-11);}.cls-13{clip-path:url(#clip-path-12);}.cls-14{clip-path:url(#clip-path-13);}.cls-15{clip-path:url(#clip-path-14);}.cls-16{clip-path:url(#clip-path-15);}.cls-17{clip-path:url(#clip-path-16);}.cls-18{clip-path:url(#clip-path-17);}.cls-19{clip-path:url(#clip-path-18);}.cls-20{clip-path:url(#clip-path-19);}.cls-21{clip-path:url(#clip-path-20);}.cls-22{clip-path:url(#clip-path-21);}.cls-23{clip-path:url(#clip-path-22);}.cls-24{clip-path:url(#clip-path-23);}.cls-25{clip-path:url(#clip-path-24);}.cls-26{clip-path:url(#clip-path-25);}.cls-27{clip-path:url(#clip-path-26);}.cls-28{clip-path:url(#clip-path-27);}.cls-29{clip-path:url(#clip-path-28);}.cls-30{clip-path:url(#clip-path-29);}.cls-31{clip-path:url(#clip-path-30);}.cls-32{clip-path:url(#clip-path-31);}.cls-33{clip-path:url(#clip-path-32);}.cls-34{fill:#ffc296;}.cls-35{fill:#fca664;}</style><clipPath id="clip-path"><path class="cls-1" d="M-82-2385.61a1.87,1.87,0,0,1,.77-1.37l9.53-6.86-6.89,9.47a1.89,1.89,0,0,1-1.38.77,1.91,1.91,0,0,1-1.48-.54A1.87,1.87,0,0,1-82-2385.61Zm2.22,4.41a4.3,4.3,0,0,0,3.15-1.75l11.3-15.53a1.2,1.2,0,0,0-.13-1.55,1.22,1.22,0,0,0-1.56-.12l-15.62,11.24a4.26,4.26,0,0,0-1.76,3.12,4.26,4.26,0,0,0,1.25,3.36,4.3,4.3,0,0,0,3,1.25Z"/></clipPath><clipPath id="clip-path-2"><path class="cls-1" d="M-82-2419.57v-3.63H-86.2a.6.6,0,0,1-.6-.6.6.6,0,0,1,.6-.6h10.86a.6.6,0,0,1,.6.6.6.6,0,0,1-.6.6h-4.22v3.63l-1.21,0H-81l-.59,0Zm29.17,2.68,1.71,1.7-1.71,1.7-1.71-1.7Zm.08,13.58s0-.05,0-.08l-.05-.06a32.64,32.64,0,0,0-4.3-5.77l2.59-2.58,1.71,1.7,5.12-5.09-5.12-5.09-5.12,5.09,1.71,1.7-2.59,2.58a32.76,32.76,0,0,0-5.8-4.28l-.06-.05-.08,0a32.49,32.49,0,0,0-12.4-4.08v-1.43h1.81a3,3,0,0,0,3-3,3,3,0,0,0-3-3H-86.2a3,3,0,0,0-3,3,3,3,0,0,0,3,3h1.81v1.39a33.37,33.37,0,0,0-3.89.64,1.2,1.2,0,0,0-.91,1.44,1.21,1.21,0,0,0,1.45.9,30.85,30.85,0,0,1,3.36-.57l1.29-.1,1.12-.07v2.37a1.2,1.2,0,0,0,1.21,1.2,1.2,1.2,0,0,0,1.21-1.2v-2.36a30.07,30.07,0,0,1,12.62,3.41l-1.19,2a1.2,1.2,0,0,0,.44,1.64,1.2,1.2,0,0,0,.6.16,1.21,1.21,0,0,0,1-.6l1.19-2a30.32,30.32,0,0,1,9.38,9.33l-2.06,1.18a1.2,1.2,0,0,0-.44,1.64,1.21,1.21,0,0,0,1,.6,1.2,1.2,0,0,0,.6-.16l2.06-1.18a29.65,29.65,0,0,1,3.44,12.74H-53.2a1.2,1.2,0,0,0-1.21,1.2,1.2,1.2,0,0,0,1.21,1.2h2.38a29.65,29.65,0,0,1-3.44,12.74l-2.06-1.18A1.21,1.21,0,0,0-58-2374a1.2,1.2,0,0,0,.44,1.64l2.06,1.18a30.32,30.32,0,0,1-9.38,9.33l-1.19-2a1.21,1.21,0,0,0-1.65-.44,1.19,1.19,0,0,0-.44,1.64l1.19,2a30.07,30.07,0,0,1-12.62,3.41v-2.36a1.2,1.2,0,0,0-1.21-1.2,1.2,1.2,0,0,0-1.21,1.2v2.37a30.62,30.62,0,0,1-5.76-.74,1.2,1.2,0,0,0-1.45.9,1.2,1.2,0,0,0,.91,1.44,32.79,32.79,0,0,0,7.31.83h.22a32.52,32.52,0,0,0,16-4.29l.11,0,.06-.05a32.73,32.73,0,0,0,11.79-11.71l.07-.09s0-.05,0-.08a32,32,0,0,0,4.34-16.12A32,32,0,0,0-52.72-2403.32Z"/></clipPath><clipPath id="clip-path-3"><path class="cls-1" d="M-91.63-2410h-6a1.2,1.2,0,0,0-1.21,1.2,1.2,1.2,0,0,0,1.21,1.2h6a1.2,1.2,0,0,0,1.21-1.2A1.2,1.2,0,0,0-91.63-2410Z"/></clipPath><clipPath id="clip-path-4"><path class="cls-1" d="M-91.63-2401.59H-103.7a1.2,1.2,0,0,0-1.21,1.2,1.2,1.2,0,0,0,1.21,1.2h12.07a1.2,1.2,0,0,0,1.21-1.2A1.2,1.2,0,0,0-91.63-2401.59Z"/></clipPath><clipPath id="clip-path-5"><path class="cls-1" d="M-91.63-2393.19h-18.1a1.2,1.2,0,0,0-1.21,1.2,1.2,1.2,0,0,0,1.21,1.2h18.1a1.2,1.2,0,0,0,1.21-1.2A1.2,1.2,0,0,0-91.63-2393.19Z"/></clipPath><clipPath id="clip-path-6"><path class="cls-1" d="M-91.63-2384.79h-22.93a1.2,1.2,0,0,0-1.21,1.2,1.2,1.2,0,0,0,1.21,1.2h22.93a1.2,1.2,0,0,0,1.21-1.2A1.2,1.2,0,0,0-91.63-2384.79Z"/></clipPath><clipPath id="clip-path-7"><path class="cls-1" d="M-91.63-2376.39h-15.69a1.2,1.2,0,0,0-1.21,1.2,1.2,1.2,0,0,0,1.21,1.2h15.69a1.2,1.2,0,0,0,1.21-1.2A1.2,1.2,0,0,0-91.63-2376.39Z"/></clipPath><clipPath id="clip-path-8"><path class="cls-1" d="M-91.63-2368h-8.45a1.2,1.2,0,0,0-1.21,1.2,1.2,1.2,0,0,0,1.21,1.2h8.45a1.2,1.2,0,0,0,1.21-1.2A1.2,1.2,0,0,0-91.63-2368Z"/></clipPath><clipPath id="clip-path-9"><path class="cls-1" d="M2-2524.61A1.87,1.87,0,0,1,2.8-2526l9.53-6.86-6.89,9.47a1.89,1.89,0,0,1-1.38.77,1.91,1.91,0,0,1-1.48-.54A1.87,1.87,0,0,1,2-2524.61Zm2.22,4.41A4.3,4.3,0,0,0,7.39-2522l11.3-15.53a1.2,1.2,0,0,0-.13-1.55,1.22,1.22,0,0,0-1.56-.12L1.38-2527.93a4.26,4.26,0,0,0-1.76,3.12,4.26,4.26,0,0,0,1.25,3.36,4.3,4.3,0,0,0,3,1.25Z"/></clipPath><clipPath id="clip-path-10"><path class="cls-1" d="M2-2558.57v-3.63H-2.2a.6.6,0,0,1-.6-.6.6.6,0,0,1,.6-.6H8.67a.6.6,0,0,1,.6.6.6.6,0,0,1-.6.6H4.44v3.63l-1.21,0H3l-.59,0Zm29.17,2.68,1.71,1.7-1.71,1.7-1.71-1.7Zm.08,13.58s0-.05,0-.08l-.05-.06a32.64,32.64,0,0,0-4.3-5.77l2.59-2.58,1.71,1.7,5.12-5.09-5.12-5.09-5.12,5.09,1.71,1.7-2.59,2.58a32.76,32.76,0,0,0-5.8-4.28l-.06-.05-.08,0a32.49,32.49,0,0,0-12.4-4.08v-1.43H8.67a3,3,0,0,0,3-3,3,3,0,0,0-3-3H-2.2a3,3,0,0,0-3,3,3,3,0,0,0,3,3H-.39v1.39a33.37,33.37,0,0,0-3.89.64,1.2,1.2,0,0,0-.91,1.44,1.21,1.21,0,0,0,1.45.9A30.85,30.85,0,0,1-.38-2556l1.29-.1,1.12-.07v2.37a1.2,1.2,0,0,0,1.21,1.2,1.2,1.2,0,0,0,1.21-1.2v-2.36a30.07,30.07,0,0,1,12.62,3.41l-1.19,2a1.2,1.2,0,0,0,.44,1.64,1.2,1.2,0,0,0,.6.16,1.21,1.21,0,0,0,1-.6l1.19-2a30.32,30.32,0,0,1,9.38,9.33L26.47-2541a1.2,1.2,0,0,0-.44,1.64,1.21,1.21,0,0,0,1,.6,1.2,1.2,0,0,0,.6-.16l2.06-1.18a29.65,29.65,0,0,1,3.44,12.74H30.8a1.2,1.2,0,0,0-1.21,1.2,1.2,1.2,0,0,0,1.21,1.2h2.38a29.65,29.65,0,0,1-3.44,12.74l-2.06-1.18A1.21,1.21,0,0,0,26-2513a1.2,1.2,0,0,0,.44,1.64l2.06,1.18a30.32,30.32,0,0,1-9.38,9.33l-1.19-2a1.21,1.21,0,0,0-1.65-.44,1.19,1.19,0,0,0-.44,1.64l1.19,2a30.07,30.07,0,0,1-12.62,3.41v-2.36a1.2,1.2,0,0,0-1.21-1.2,1.2,1.2,0,0,0-1.21,1.2v2.37a30.62,30.62,0,0,1-5.76-.74,1.2,1.2,0,0,0-1.45.9,1.2,1.2,0,0,0,.91,1.44,32.79,32.79,0,0,0,7.31.83h.22a32.52,32.52,0,0,0,16-4.29l.11,0,.06-.05a32.73,32.73,0,0,0,11.79-11.71l.07-.09s0-.05,0-.08a32,32,0,0,0,4.34-16.12A32,32,0,0,0,31.28-2542.32Z"/></clipPath><clipPath id="clip-path-11"><path class="cls-1" d="M-7.63-2549h-6a1.2,1.2,0,0,0-1.21,1.2,1.2,1.2,0,0,0,1.21,1.2h6a1.2,1.2,0,0,0,1.21-1.2A1.2,1.2,0,0,0-7.63-2549Z"/></clipPath><clipPath id="clip-path-12"><path class="cls-1" d="M-7.63-2540.59H-19.7a1.2,1.2,0,0,0-1.21,1.2,1.2,1.2,0,0,0,1.21,1.2H-7.63a1.2,1.2,0,0,0,1.21-1.2A1.2,1.2,0,0,0-7.63-2540.59Z"/></clipPath><clipPath id="clip-path-13"><path class="cls-1" d="M-7.63-2532.19h-18.1a1.2,1.2,0,0,0-1.21,1.2,1.2,1.2,0,0,0,1.21,1.2h18.1a1.2,1.2,0,0,0,1.21-1.2A1.2,1.2,0,0,0-7.63-2532.19Z"/></clipPath><clipPath id="clip-path-14"><path class="cls-1" d="M-7.63-2523.79H-30.56a1.2,1.2,0,0,0-1.21,1.2,1.2,1.2,0,0,0,1.21,1.2H-7.63a1.2,1.2,0,0,0,1.21-1.2A1.2,1.2,0,0,0-7.63-2523.79Z"/></clipPath><clipPath id="clip-path-15"><path class="cls-1" d="M-7.63-2515.39H-23.32a1.2,1.2,0,0,0-1.21,1.2,1.2,1.2,0,0,0,1.21,1.2H-7.63a1.2,1.2,0,0,0,1.21-1.2A1.2,1.2,0,0,0-7.63-2515.39Z"/></clipPath><clipPath id="clip-path-16"><path class="cls-1" d="M-7.63-2507h-8.45a1.2,1.2,0,0,0-1.21,1.2,1.2,1.2,0,0,0,1.21,1.2h8.45a1.2,1.2,0,0,0,1.21-1.2A1.2,1.2,0,0,0-7.63-2507Z"/></clipPath><clipPath id="clip-path-17"><path class="cls-1" d="M26.53-46.11a1.87,1.87,0,0,1,.77-1.37l9.53-6.86-6.89,9.47a1.89,1.89,0,0,1-1.38.77,1.91,1.91,0,0,1-1.48-.54A1.87,1.87,0,0,1,26.53-46.11Zm2.22,4.41a4.3,4.3,0,0,0,3.15-1.75L43.19-59a1.2,1.2,0,0,0-.13-1.55,1.22,1.22,0,0,0-1.56-.12L25.88-49.43a4.26,4.26,0,0,0-1.76,3.12,4.26,4.26,0,0,0,1.25,3.36,4.3,4.3,0,0,0,3,1.25Z"/></clipPath><clipPath id="clip-path-18"><path class="cls-1" d="M26.53-80.07v-3.63H22.3a.6.6,0,0,1-.6-.6.6.6,0,0,1,.6-.6H33.16a.6.6,0,0,1,.6.6.6.6,0,0,1-.6.6H28.94v3.63l-1.21,0h-.2l-.59,0ZM55.7-77.39l1.71,1.7L55.7-74,54-75.69Zm.08,13.58s0-.05,0-.08L55.7-64a32.64,32.64,0,0,0-4.3-5.77L54-72.3l1.71,1.7,5.12-5.09L55.7-80.79l-5.12,5.09L52.29-74,49.7-71.42a32.76,32.76,0,0,0-5.8-4.28l-.06-.05-.08,0a32.49,32.49,0,0,0-12.4-4.08v-1.43h1.81a3,3,0,0,0,3-3,3,3,0,0,0-3-3H22.3a3,3,0,0,0-3,3,3,3,0,0,0,3,3h1.81v1.39a33.37,33.37,0,0,0-3.89.64,1.2,1.2,0,0,0-.91,1.44,1.21,1.21,0,0,0,1.45.9,30.85,30.85,0,0,1,3.36-.57l1.29-.1,1.12-.07v2.37a1.2,1.2,0,0,0,1.21,1.2,1.2,1.2,0,0,0,1.21-1.2v-2.36a30.07,30.07,0,0,1,12.62,3.41l-1.19,2a1.2,1.2,0,0,0,.44,1.64,1.2,1.2,0,0,0,.6.16,1.21,1.21,0,0,0,1-.6l1.19-2A30.32,30.32,0,0,1,53-63.71L51-62.53a1.2,1.2,0,0,0-.44,1.64,1.21,1.21,0,0,0,1,.6,1.2,1.2,0,0,0,.6-.16l2.06-1.18a29.65,29.65,0,0,1,3.44,12.74H55.3a1.2,1.2,0,0,0-1.21,1.2,1.2,1.2,0,0,0,1.21,1.2h2.38a29.65,29.65,0,0,1-3.44,12.74l-2.06-1.18a1.21,1.21,0,0,0-1.65.44A1.2,1.2,0,0,0,51-32.86L53-31.68a30.32,30.32,0,0,1-9.38,9.33l-1.19-2a1.21,1.21,0,0,0-1.65-.44,1.19,1.19,0,0,0-.44,1.64l1.19,2a30.07,30.07,0,0,1-12.62,3.41v-2.36a1.2,1.2,0,0,0-1.21-1.2,1.2,1.2,0,0,0-1.21,1.2v2.37a30.62,30.62,0,0,1-5.76-.74,1.2,1.2,0,0,0-1.45.9,1.2,1.2,0,0,0,.91,1.44,32.79,32.79,0,0,0,7.31.83h.22a32.52,32.52,0,0,0,16-4.29l.11,0,.06-.05A32.73,32.73,0,0,0,55.68-31.4l.07-.09s0-.05,0-.08a32,32,0,0,0,4.34-16.12A32,32,0,0,0,55.78-63.82Z"/></clipPath><clipPath id="clip-path-19"><path class="cls-1" d="M16.87-70.49h-6a1.2,1.2,0,0,0-1.21,1.2,1.2,1.2,0,0,0,1.21,1.2h6a1.2,1.2,0,0,0,1.21-1.2A1.2,1.2,0,0,0,16.87-70.49Z"/></clipPath><clipPath id="clip-path-20"><path class="cls-1" d="M16.87-62.09H4.8a1.2,1.2,0,0,0-1.21,1.2,1.2,1.2,0,0,0,1.21,1.2H16.87a1.2,1.2,0,0,0,1.21-1.2A1.2,1.2,0,0,0,16.87-62.09Z"/></clipPath><clipPath id="clip-path-21"><path class="cls-1" d="M16.87-53.69H-1.23a1.2,1.2,0,0,0-1.21,1.2,1.2,1.2,0,0,0,1.21,1.2h18.1a1.2,1.2,0,0,0,1.21-1.2A1.2,1.2,0,0,0,16.87-53.69Z"/></clipPath><clipPath id="clip-path-22"><path class="cls-1" d="M16.87-45.29H-6.06a1.2,1.2,0,0,0-1.21,1.2,1.2,1.2,0,0,0,1.21,1.2H16.87a1.2,1.2,0,0,0,1.21-1.2A1.2,1.2,0,0,0,16.87-45.29Z"/></clipPath><clipPath id="clip-path-23"><path class="cls-1" d="M16.87-36.89H1.18A1.2,1.2,0,0,0,0-35.69a1.2,1.2,0,0,0,1.21,1.2H16.87a1.2,1.2,0,0,0,1.21-1.2A1.2,1.2,0,0,0,16.87-36.89Z"/></clipPath><clipPath id="clip-path-24"><path class="cls-1" d="M16.87-28.49H8.42a1.2,1.2,0,0,0-1.21,1.2,1.2,1.2,0,0,0,1.21,1.2h8.45a1.2,1.2,0,0,0,1.21-1.2A1.2,1.2,0,0,0,16.87-28.49Z"/></clipPath><clipPath id="clip-path-25"><path class="cls-1" d="M26.49-145.21a2.2,2.2,0,0,1,.9-1.61l11.2-8.06-8.1,11.13a2.22,2.22,0,0,1-1.62.9,2.25,2.25,0,0,1-1.74-.64A2.2,2.2,0,0,1,26.49-145.21Zm2.6,5.18a5.05,5.05,0,0,0,3.7-2.06l13.28-18.25a1.4,1.4,0,0,0-.15-1.82,1.43,1.43,0,0,0-1.83-.15L25.73-149.1a5,5,0,0,0-2.06,3.67,5,5,0,0,0,1.46,3.94A5.05,5.05,0,0,0,28.7-140Z"/></clipPath><clipPath id="clip-path-26"><path class="cls-1" d="M26.48-185.1v-4.26h-5a.71.71,0,0,1-.71-.7.71.71,0,0,1,.71-.7H34.28a.71.71,0,0,1,.71.7.71.71,0,0,1-.71.7h-5v4.26l-1.42,0h-.23l-.7,0ZM60.76-182l2,2-2,2-2-2Zm.1,16s0-.06,0-.09l-.06-.07a38.35,38.35,0,0,0-5.06-6.78l3-3,2,2,6-6-6-6-6,6,2,2-3,3a38.49,38.49,0,0,0-6.82-5l-.07-.06-.09,0a38.17,38.17,0,0,0-14.57-4.8v-1.68h2.13a3.54,3.54,0,0,0,3.55-3.52,3.54,3.54,0,0,0-3.55-3.52H21.52A3.54,3.54,0,0,0,18-190.07a3.54,3.54,0,0,0,3.55,3.52h2.13v1.63a39.21,39.21,0,0,0-4.57.75A1.41,1.41,0,0,0,18-182.47a1.42,1.42,0,0,0,1.7,1.06,36.25,36.25,0,0,1,3.94-.67l1.52-.12,1.31-.08v2.79a1.41,1.41,0,0,0,1.42,1.41,1.41,1.41,0,0,0,1.42-1.41v-2.78a35.33,35.33,0,0,1,14.83,4l-1.4,2.41a1.41,1.41,0,0,0,.52,1.93,1.41,1.41,0,0,0,.71.19,1.42,1.42,0,0,0,1.23-.7l1.39-2.4a35.63,35.63,0,0,1,11,11L55.2-164.5a1.4,1.4,0,0,0-.52,1.93,1.42,1.42,0,0,0,1.23.7,1.41,1.41,0,0,0,.71-.19L59-163.45a34.84,34.84,0,0,1,4,15h-2.8a1.41,1.41,0,0,0-1.42,1.41,1.41,1.41,0,0,0,1.42,1.41h2.8a34.84,34.84,0,0,1-4,15l-2.42-1.39a1.42,1.42,0,0,0-1.94.52,1.41,1.41,0,0,0,.52,1.93l2.41,1.39a35.63,35.63,0,0,1-11,11l-1.39-2.4a1.42,1.42,0,0,0-1.94-.52,1.4,1.4,0,0,0-.52,1.93l1.4,2.41a35.33,35.33,0,0,1-14.83,4v-2.77A1.41,1.41,0,0,0,27.9-116a1.41,1.41,0,0,0-1.42,1.41v2.79a36,36,0,0,1-6.77-.87,1.41,1.41,0,0,0-1.7,1.06A1.41,1.41,0,0,0,19.08-110a38.53,38.53,0,0,0,8.59,1h.26a38.21,38.21,0,0,0,18.75-5l.13-.05.07-.06a38.46,38.46,0,0,0,13.86-13.76,1.34,1.34,0,0,0,.09-.11s0-.06,0-.09A37.63,37.63,0,0,0,66-147.06,37.65,37.65,0,0,0,60.86-166Z"/></clipPath><clipPath id="clip-path-27"><path class="cls-1" d="M15.14-173.85H8a1.41,1.41,0,0,0-1.42,1.41A1.41,1.41,0,0,0,8-171h7.09a1.41,1.41,0,0,0,1.42-1.41A1.41,1.41,0,0,0,15.14-173.85Z"/></clipPath><clipPath id="clip-path-28"><path class="cls-1" d="M15.14-164H1a1.41,1.41,0,0,0-1.42,1.41A1.41,1.41,0,0,0,1-161.16H15.14a1.41,1.41,0,0,0,1.42-1.41A1.41,1.41,0,0,0,15.14-164Z"/></clipPath><clipPath id="clip-path-29"><path class="cls-1" d="M15.14-154.11H-6.13a1.41,1.41,0,0,0-1.42,1.41,1.41,1.41,0,0,0,1.42,1.41H15.14a1.41,1.41,0,0,0,1.42-1.41A1.41,1.41,0,0,0,15.14-154.11Z"/></clipPath><clipPath id="clip-path-30"><path class="cls-1" d="M15.14-144.24H-11.8a1.41,1.41,0,0,0-1.42,1.41,1.41,1.41,0,0,0,1.42,1.41H15.14a1.41,1.41,0,0,0,1.42-1.41A1.41,1.41,0,0,0,15.14-144.24Z"/></clipPath><clipPath id="clip-path-31"><path class="cls-1" d="M15.14-134.37H-3.3A1.41,1.41,0,0,0-4.71-133a1.41,1.41,0,0,0,1.42,1.41H15.14A1.41,1.41,0,0,0,16.56-133,1.41,1.41,0,0,0,15.14-134.37Z"/></clipPath><clipPath id="clip-path-32"><path class="cls-1" d="M15.14-124.5H5.21a1.41,1.41,0,0,0-1.42,1.41,1.41,1.41,0,0,0,1.42,1.41h9.93a1.41,1.41,0,0,0,1.42-1.41A1.41,1.41,0,0,0,15.14-124.5Z"/></clipPath></defs><title>bonifico</title><g id="bonifico"><circle class="cls-34" cx="30" cy="30" r="30"/><path class="cls-35" d="M45.55,28.33A1.42,1.42,0,0,0,47,26.91V22.67a1.42,1.42,0,0,0-.74-1.25L30.66,12.93a1.42,1.42,0,0,0-1.42,0L13.68,21.42A1.42,1.42,0,0,0,13,22.67v4.25a1.42,1.42,0,0,0,1.42,1.42h1.42v10.6h28.3V28.33ZM15.83,23.5,30,15.79,44.13,23.5v2H15.83Zm9.91,4.83v10.2H24.32V28.33Zm2.83,0H31.4v10.2H28.57Zm5.66,0h1.42v10.2H34.23Zm-15.57,0h2.83v10.2H18.66ZM41.3,38.53H38.47V28.33H41.3Z"/><path class="cls-35" d="M30,24.08a2.83,2.83,0,1,1,2-.82A2.83,2.83,0,0,1,30,24.08Zm0-2.83"/><path class="cls-35" d="M45.62,45.26H14.42A1.38,1.38,0,0,1,13,43.87V39.92a1.38,1.38,0,0,1,1.38-1.38h31.2A1.38,1.38,0,0,1,47,39.92v3.95A1.38,1.38,0,0,1,45.62,45.26ZM15.8,42.49H44.24V41.31H15.8Z"/></g></svg>