<svg xmlns="http://www.w3.org/2000/svg" xmlns:xlink="http://www.w3.org/1999/xlink" viewBox="0 0 72 72"><defs><style>.cls-1{fill:none;clip-rule:evenodd;}.cls-2{fill:#00a5ff;}.cls-3{fill:#fff;}.cls-4{clip-path:url(#clip-path);}.cls-5{clip-path:url(#clip-path-2);}.cls-6{clip-path:url(#clip-path-3);}.cls-7{clip-path:url(#clip-path-4);}.cls-8{clip-path:url(#clip-path-5);}.cls-9{clip-path:url(#clip-path-6);}.cls-10{clip-path:url(#clip-path-7);}.cls-11{clip-path:url(#clip-path-8);}.cls-12{clip-path:url(#clip-path-9);}.cls-13{clip-path:url(#clip-path-10);}.cls-14{clip-path:url(#clip-path-11);}.cls-15{clip-path:url(#clip-path-12);}.cls-16{clip-path:url(#clip-path-13);}.cls-17{clip-path:url(#clip-path-14);}.cls-18{clip-path:url(#clip-path-15);}.cls-19{clip-path:url(#clip-path-16);}</style><clipPath id="clip-path"><path class="cls-1" d="M-486.12,41.18a1.87,1.87,0,0,1,.77-1.37l9.53-6.86-6.89,9.47a1.89,1.89,0,0,1-1.38.77,1.91,1.91,0,0,1-1.48-.54A1.87,1.87,0,0,1-486.12,41.18Zm2.22,4.41a4.3,4.3,0,0,0,3.15-1.75l11.3-15.53a1.2,1.2,0,0,0-.13-1.55,1.22,1.22,0,0,0-1.56-.12l-15.62,11.24A4.26,4.26,0,0,0-488.53,41a4.26,4.26,0,0,0,1.25,3.36,4.3,4.3,0,0,0,3,1.25Z"/></clipPath><clipPath id="clip-path-2"><path class="cls-1" d="M-486.13,7.23V3.6h-4.22A.6.6,0,0,1-491,3a.6.6,0,0,1,.6-.6h10.86a.6.6,0,0,1,.6.6.6.6,0,0,1-.6.6h-4.22V7.23l-1.21,0h-.2l-.59,0ZM-457,9.9l1.71,1.7L-457,13.3l-1.71-1.7Zm.08,13.58s0-.05,0-.08l-.05-.06a32.64,32.64,0,0,0-4.3-5.77l2.59-2.58,1.71,1.7,5.12-5.09L-457,6.51l-5.12,5.09,1.71,1.7L-463,15.87a32.76,32.76,0,0,0-5.8-4.28l-.06-.05-.08,0a32.49,32.49,0,0,0-12.4-4.08V6h1.81a3,3,0,0,0,3-3,3,3,0,0,0-3-3h-10.86a3,3,0,0,0-3,3,3,3,0,0,0,3,3h1.81V7.39a33.37,33.37,0,0,0-3.89.64,1.2,1.2,0,0,0-.91,1.44,1.21,1.21,0,0,0,1.45.9,30.85,30.85,0,0,1,3.36-.57l1.29-.1,1.12-.07V12a1.2,1.2,0,0,0,1.21,1.2,1.2,1.2,0,0,0,1.21-1.2V9.64A30.07,30.07,0,0,1-471.09,13l-1.19,2a1.2,1.2,0,0,0,.44,1.64,1.2,1.2,0,0,0,.6.16,1.21,1.21,0,0,0,1-.6l1.19-2a30.32,30.32,0,0,1,9.38,9.33l-2.06,1.18a1.2,1.2,0,0,0-.44,1.64,1.21,1.21,0,0,0,1,.6,1.2,1.2,0,0,0,.6-.16l2.06-1.18A29.65,29.65,0,0,1-455,38.4h-2.38a1.2,1.2,0,0,0-1.21,1.2,1.2,1.2,0,0,0,1.21,1.2H-455a29.65,29.65,0,0,1-3.44,12.74l-2.06-1.18a1.21,1.21,0,0,0-1.65.44,1.2,1.2,0,0,0,.44,1.64l2.06,1.18A30.32,30.32,0,0,1-469,64.94l-1.19-2a1.21,1.21,0,0,0-1.65-.44,1.19,1.19,0,0,0-.44,1.64l1.19,2a30.07,30.07,0,0,1-12.62,3.41V67.2a1.2,1.2,0,0,0-1.21-1.2,1.2,1.2,0,0,0-1.21,1.2v2.37a30.62,30.62,0,0,1-5.76-.74,1.2,1.2,0,0,0-1.45.9,1.2,1.2,0,0,0,.91,1.44,32.79,32.79,0,0,0,7.31.83h.22a32.52,32.52,0,0,0,16-4.29l.11,0,.06-.05A32.73,32.73,0,0,0-457,55.89l.07-.09s0-.05,0-.08a32,32,0,0,0,4.34-16.12A32,32,0,0,0-456.87,23.48Z"/></clipPath><clipPath id="clip-path-3"><path class="cls-1" d="M-495.78,16.8h-6A1.2,1.2,0,0,0-503,18a1.2,1.2,0,0,0,1.21,1.2h6a1.2,1.2,0,0,0,1.21-1.2A1.2,1.2,0,0,0-495.78,16.8Z"/></clipPath><clipPath id="clip-path-4"><path class="cls-1" d="M-495.78,25.2h-12.07a1.2,1.2,0,0,0-1.21,1.2,1.2,1.2,0,0,0,1.21,1.2h12.07a1.2,1.2,0,0,0,1.21-1.2A1.2,1.2,0,0,0-495.78,25.2Z"/></clipPath><clipPath id="clip-path-5"><path class="cls-1" d="M-495.78,33.6h-18.1a1.2,1.2,0,0,0-1.21,1.2,1.2,1.2,0,0,0,1.21,1.2h18.1a1.2,1.2,0,0,0,1.21-1.2A1.2,1.2,0,0,0-495.78,33.6Z"/></clipPath><clipPath id="clip-path-6"><path class="cls-1" d="M-495.78,42h-22.93a1.2,1.2,0,0,0-1.21,1.2,1.2,1.2,0,0,0,1.21,1.2h22.93a1.2,1.2,0,0,0,1.21-1.2A1.2,1.2,0,0,0-495.78,42Z"/></clipPath><clipPath id="clip-path-7"><path class="cls-1" d="M-495.78,50.4h-15.69a1.2,1.2,0,0,0-1.21,1.2,1.2,1.2,0,0,0,1.21,1.2h15.69a1.2,1.2,0,0,0,1.21-1.2A1.2,1.2,0,0,0-495.78,50.4Z"/></clipPath><clipPath id="clip-path-8"><path class="cls-1" d="M-495.78,58.8h-8.45a1.2,1.2,0,0,0-1.21,1.2,1.2,1.2,0,0,0,1.21,1.2h8.45a1.2,1.2,0,0,0,1.21-1.2A1.2,1.2,0,0,0-495.78,58.8Z"/></clipPath><clipPath id="clip-path-9"><path class="cls-1" d="M-486.16-57.92a2.2,2.2,0,0,1,.9-1.61l11.2-8.06-8.1,11.13a2.22,2.22,0,0,1-1.62.9,2.25,2.25,0,0,1-1.74-.64A2.2,2.2,0,0,1-486.16-57.92Zm2.6,5.18a5.05,5.05,0,0,0,3.7-2.06L-466.59-73a1.4,1.4,0,0,0-.15-1.82,1.43,1.43,0,0,0-1.83-.15l-18.36,13.21A5,5,0,0,0-489-58.14a5,5,0,0,0,1.46,3.94A5.05,5.05,0,0,0-484-52.72Z"/></clipPath><clipPath id="clip-path-10"><path class="cls-1" d="M-486.17-97.81v-4.26h-5a.71.71,0,0,1-.71-.7.71.71,0,0,1,.71-.7h12.76a.71.71,0,0,1,.71.7.71.71,0,0,1-.71.7h-5v4.26l-1.42,0H-485l-.7,0Zm34.28,3.14,2,2-2,2-2-2Zm.1,16s0-.06,0-.09l-.06-.07a38.35,38.35,0,0,0-5.06-6.78l3-3,2,2,6-6-6-6-6,6,2,2-3,3a38.49,38.49,0,0,0-6.82-5l-.07-.06-.09,0a38.17,38.17,0,0,0-14.57-4.8v-1.68h2.13a3.54,3.54,0,0,0,3.55-3.52,3.54,3.54,0,0,0-3.55-3.52h-12.76a3.54,3.54,0,0,0-3.55,3.52,3.54,3.54,0,0,0,3.55,3.52H-489v1.63a39.21,39.21,0,0,0-4.57.75,1.41,1.41,0,0,0-1.06,1.69,1.42,1.42,0,0,0,1.7,1.06,36.25,36.25,0,0,1,3.94-.67l1.52-.12,1.31-.08v2.79a1.41,1.41,0,0,0,1.42,1.41,1.41,1.41,0,0,0,1.42-1.41V-95a35.33,35.33,0,0,1,14.83,4l-1.4,2.41a1.41,1.41,0,0,0,.52,1.93,1.41,1.41,0,0,0,.71.19,1.42,1.42,0,0,0,1.23-.7l1.39-2.4a35.63,35.63,0,0,1,11,11l-2.41,1.39a1.4,1.4,0,0,0-.52,1.93,1.42,1.42,0,0,0,1.23.7,1.41,1.41,0,0,0,.71-.19l2.42-1.39a34.84,34.84,0,0,1,4,15h-2.8a1.41,1.41,0,0,0-1.42,1.41,1.41,1.41,0,0,0,1.42,1.41h2.8a34.84,34.84,0,0,1-4,15L-456-44.78a1.42,1.42,0,0,0-1.94.52,1.41,1.41,0,0,0,.52,1.93L-455-41a35.63,35.63,0,0,1-11,11l-1.39-2.4a1.42,1.42,0,0,0-1.94-.52A1.4,1.4,0,0,0-469.9-31l1.4,2.41a35.33,35.33,0,0,1-14.83,4v-2.77a1.41,1.41,0,0,0-1.42-1.41,1.41,1.41,0,0,0-1.42,1.41v2.79a36,36,0,0,1-6.77-.87,1.41,1.41,0,0,0-1.7,1.06,1.41,1.41,0,0,0,1.06,1.69,38.53,38.53,0,0,0,8.59,1h.26a38.21,38.21,0,0,0,18.75-5l.13-.05.07-.06a38.46,38.46,0,0,0,13.86-13.76,1.34,1.34,0,0,0,.09-.11s0-.06,0-.09a37.63,37.63,0,0,0,5.1-18.94A37.65,37.65,0,0,0-451.8-78.71Z"/></clipPath><clipPath id="clip-path-11"><path class="cls-1" d="M-497.51-86.56h-7.09A1.41,1.41,0,0,0-506-85.15a1.41,1.41,0,0,0,1.42,1.41h7.09a1.41,1.41,0,0,0,1.42-1.41A1.41,1.41,0,0,0-497.51-86.56Z"/></clipPath><clipPath id="clip-path-12"><path class="cls-1" d="M-497.51-76.69H-511.7a1.41,1.41,0,0,0-1.42,1.41,1.41,1.41,0,0,0,1.42,1.41h14.18a1.41,1.41,0,0,0,1.42-1.41A1.41,1.41,0,0,0-497.51-76.69Z"/></clipPath><clipPath id="clip-path-13"><path class="cls-1" d="M-497.51-66.82h-21.27a1.41,1.41,0,0,0-1.42,1.41A1.41,1.41,0,0,0-518.79-64h21.27a1.41,1.41,0,0,0,1.42-1.41A1.41,1.41,0,0,0-497.51-66.82Z"/></clipPath><clipPath id="clip-path-14"><path class="cls-1" d="M-497.51-57h-26.94a1.41,1.41,0,0,0-1.42,1.41,1.41,1.41,0,0,0,1.42,1.41h26.94a1.41,1.41,0,0,0,1.42-1.41A1.41,1.41,0,0,0-497.51-57Z"/></clipPath><clipPath id="clip-path-15"><path class="cls-1" d="M-497.51-47.08h-18.43a1.41,1.41,0,0,0-1.42,1.41,1.41,1.41,0,0,0,1.42,1.41h18.43a1.41,1.41,0,0,0,1.42-1.41A1.41,1.41,0,0,0-497.51-47.08Z"/></clipPath><clipPath id="clip-path-16"><path class="cls-1" d="M-497.51-37.21h-9.93a1.41,1.41,0,0,0-1.42,1.41,1.41,1.41,0,0,0,1.42,1.41h9.93a1.41,1.41,0,0,0,1.42-1.41A1.41,1.41,0,0,0-497.51-37.21Z"/></clipPath></defs><title>cellulare_mail</title><g id="cellulare_mail"><path class="cls-2" d="M41.46,15.9a1.48,1.48,0,0,1-1-.42L34.18,9.33A1.47,1.47,0,0,1,34,7.39a5.83,5.83,0,0,1,4.67-2.31A5.9,5.9,0,0,1,44.61,11a5.78,5.78,0,0,1-1.31,3.69,1.49,1.49,0,0,1-.21.2,2.75,2.75,0,0,0-.46.46,1.47,1.47,0,0,1-1.07.57Zm.7-2.17h0ZM37.38,8.35l4,3.91A2.91,2.91,0,0,0,41.66,11,3,3,0,0,0,38.71,8,2.91,2.91,0,0,0,37.38,8.35Z"/><path class="cls-2" d="M41.46,15.9a1.47,1.47,0,0,1-1.16-2.38,5.75,5.75,0,0,1,.93-.94,1.47,1.47,0,0,1,2.11,2,4.76,4.76,0,0,1-1,1A1.47,1.47,0,0,1,41.46,15.9Z"/><path class="cls-2" d="M47.73,22.05a1.47,1.47,0,0,1-1-.42l-6.27-6.16a1.47,1.47,0,0,1,.16-2.24,1.83,1.83,0,0,0,.39-.39,1.48,1.48,0,0,1,.26-.27,5.89,5.89,0,0,1,7.43,9.14A1.47,1.47,0,0,1,47.73,22.05Zm-4.07-7.54,3.93,3.87a2.95,2.95,0,0,0-3.93-3.87Z"/><path class="cls-2" d="M41.46,15.9a1.47,1.47,0,0,1-1.16-2.38,5.75,5.75,0,0,1,.93-.94,1.47,1.47,0,0,1,2.11,2,4.76,4.76,0,0,1-1,1A1.47,1.47,0,0,1,41.46,15.9Z"/><path class="cls-2" d="M54.07,28.27a1.47,1.47,0,0,1-1-.42l-6.28-6.16a1.47,1.47,0,0,1-.11-2A5.89,5.89,0,1,1,55,27.93,1.47,1.47,0,0,1,54.07,28.27ZM50,20.74l3.93,3.86A2.95,2.95,0,0,0,50,20.74Z"/><path class="cls-2" d="M48.69,44.1a4.42,4.42,0,1,1,4.42-4.42A4.42,4.42,0,0,1,48.69,44.1Zm0-5.89a1.47,1.47,0,1,0,1.47,1.47A1.47,1.47,0,0,0,48.69,38.21Z"/><path class="cls-2" d="M43.38,67.43A3.44,3.44,0,1,1,46.82,64,3.44,3.44,0,0,1,43.38,67.43Zm0-3.93a.49.49,0,1,0,.49.49A.49.49,0,0,0,43.38,63.5Z"/><path class="cls-2" d="M60.42,34.52a1.48,1.48,0,0,1-1-.42L53,27.85a1.47,1.47,0,0,1-.06-2l.46-.51a5.89,5.89,0,0,1,10.13,4.09,5.82,5.82,0,0,1-1.6,4l-.34.48a1.47,1.47,0,0,1-1.07.62ZM56.2,26.83l4,4a2.87,2.87,0,0,0,.37-1.42,3,3,0,0,0-2.95-2.95A2.91,2.91,0,0,0,56.2,26.83Z"/><path class="cls-2" d="M51.47,72H32.16a1.47,1.47,0,0,1-1.47-1.47V57.45A1.47,1.47,0,0,1,32.16,56h13.4a7.39,7.39,0,0,1,7.39,7.39v7.16A1.47,1.47,0,0,1,51.47,72ZM33.64,69.05H50V63.37a4.44,4.44,0,0,0-4.44-4.44H33.64Z"/><path class="cls-2" d="M60.5,72h-9A1.47,1.47,0,0,1,50,70.53V63.37a4.44,4.44,0,0,0-4.44-4.44,1.47,1.47,0,1,1,0-2.95H60.5A1.47,1.47,0,0,1,62,57.45V70.53A1.47,1.47,0,0,1,60.5,72Zm-7.55-2.95H59V58.93H51.46a7.35,7.35,0,0,1,1.49,4.44Z"/><path class="cls-2" d="M34.31,58.92a1.47,1.47,0,0,1-1.47-1.47V54L20.34,41.62a1.47,1.47,0,1,1,2.08-2.09L35.34,52.35a1.48,1.48,0,0,1,.44,1v4.05A1.47,1.47,0,0,1,34.31,58.92Z"/><path class="cls-2" d="M58.31,58.92a1.47,1.47,0,0,1-1.47-1.47V51.89a1.47,1.47,0,0,1,.49-1.1,11.35,11.35,0,0,0,2.46-3.47,6.13,6.13,0,0,0-1.15-7,1.47,1.47,0,0,1,2.22-1.93c4.83,5.55,1.64,11.41-1.07,14.15v4.93A1.47,1.47,0,0,1,58.31,58.92Z"/><path class="cls-2" d="M20,15.23a1.47,1.47,0,0,1-1-2.52L21.7,10a1.47,1.47,0,0,1,2.08,2.08L21,14.79A1.47,1.47,0,0,1,20,15.23Z"/><path class="cls-2" d="M14.92,26.28a1.47,1.47,0,0,1-1-.42l-4.13-4A4.49,4.49,0,0,1,8.44,18.6a4.35,4.35,0,0,1,1.29-3.1L23.94,1.28A4.33,4.33,0,0,1,27,0h0a4.49,4.49,0,0,1,3.2,1.33l4.11,4a1.47,1.47,0,0,1,0,2.09L16,25.85A1.47,1.47,0,0,1,14.92,26.28ZM27,2.95h0a1.41,1.41,0,0,0-1,.41L11.8,17.59a1.43,1.43,0,0,0-.42,1,1.55,1.55,0,0,0,.46,1.11l3.07,3,16.3-16.3-3.06-3A1.58,1.58,0,0,0,27,2.95Z"/><path class="cls-2" d="M44.9,54.5a4.49,4.49,0,0,1-3.2-1.33L13.89,25.86a1.47,1.47,0,0,1,0-2.09L32.27,5.38a1.47,1.47,0,0,1,2.07,0L48.76,19.53l.07.07L62.16,32.69a4.5,4.5,0,0,1,1.34,3.21A4.34,4.34,0,0,1,62.22,39L48,53.22A4.34,4.34,0,0,1,44.9,54.5ZM17,24.8,43.77,51.08a1.57,1.57,0,0,0,1.12.48h0a1.41,1.41,0,0,0,1-.41L60.14,36.92h0a1.41,1.41,0,0,0,.41-1,1.57,1.57,0,0,0-.47-1.12L46.76,21.69l-.07-.07L33.32,8.49Z"/><path class="cls-2" d="M34.61,42.79H23.81a5.89,5.89,0,0,1,0-11.79h10.8a5.89,5.89,0,0,1,0,11.79Zm-10.8-8.84a2.95,2.95,0,0,0,0,5.89h10.8a2.95,2.95,0,0,0,0-5.89Z"/><rect class="cls-3" x="20.86" y="33.95" width="16.7" height="5.89" rx="2.92" ry="2.92"/></g></svg>