<svg xmlns="http://www.w3.org/2000/svg" xmlns:xlink="http://www.w3.org/1999/xlink" viewBox="0 0 72 72"><defs><style>.cls-1,.cls-2{fill:none;}.cls-1{clip-rule:evenodd;}.cls-3{clip-path:url(#clip-path);}.cls-4{clip-path:url(#clip-path-2);}.cls-5{clip-path:url(#clip-path-3);}.cls-6{clip-path:url(#clip-path-4);}.cls-7{clip-path:url(#clip-path-5);}.cls-8{clip-path:url(#clip-path-6);}.cls-9{clip-path:url(#clip-path-7);}.cls-10{clip-path:url(#clip-path-8);}.cls-11{clip-path:url(#clip-path-9);}.cls-12{clip-path:url(#clip-path-10);}.cls-13{clip-path:url(#clip-path-11);}.cls-14{clip-path:url(#clip-path-12);}.cls-15{clip-path:url(#clip-path-13);}.cls-16{clip-path:url(#clip-path-14);}.cls-17{clip-path:url(#clip-path-15);}.cls-18{clip-path:url(#clip-path-16);}.cls-19{clip-path:url(#clip-path-17);}.cls-20{clip-path:url(#clip-path-18);}.cls-21{fill:#00a5ff;}.cls-22{clip-path:url(#clip-path-19);}.cls-23{clip-path:url(#clip-path-21);}.cls-24{clip-path:url(#clip-path-23);}.cls-25{clip-path:url(#clip-path-25);}.cls-26{clip-path:url(#clip-path-27);}.cls-27{clip-path:url(#clip-path-29);}.cls-28{clip-path:url(#clip-path-31);}.cls-29{clip-path:url(#clip-path-33);}.cls-30{clip-path:url(#clip-path-34);}.cls-31{clip-path:url(#clip-path-35);}.cls-32{clip-path:url(#clip-path-36);}.cls-33{clip-path:url(#clip-path-37);}.cls-34{clip-path:url(#clip-path-38);}.cls-35{clip-path:url(#clip-path-39);}.cls-36{clip-path:url(#clip-path-40);}</style><clipPath id="clip-path"><path class="cls-1" d="M-72.74-2298.32a1.87,1.87,0,0,1,.77-1.37l9.53-6.86-6.89,9.47a1.89,1.89,0,0,1-1.38.77,1.91,1.91,0,0,1-1.48-.54A1.87,1.87,0,0,1-72.74-2298.32Zm2.22,4.41a4.3,4.3,0,0,0,3.15-1.75l11.3-15.53a1.2,1.2,0,0,0-.13-1.55,1.22,1.22,0,0,0-1.56-.12l-15.62,11.24a4.26,4.26,0,0,0-1.76,3.12,4.26,4.26,0,0,0,1.25,3.36,4.3,4.3,0,0,0,3,1.25Z"/></clipPath><clipPath id="clip-path-2"><path class="cls-1" d="M-72.75-2332.27v-3.63H-77a.6.6,0,0,1-.6-.6.6.6,0,0,1,.6-.6h10.86a.6.6,0,0,1,.6.6.6.6,0,0,1-.6.6h-4.22v3.63l-1.21,0h-.2l-.59,0Zm29.17,2.68,1.71,1.7-1.71,1.7-1.71-1.7Zm.08,13.58s0-.05,0-.08l-.05-.06a32.64,32.64,0,0,0-4.3-5.77l2.59-2.58,1.71,1.7,5.12-5.09-5.12-5.09-5.12,5.09,1.71,1.7-2.59,2.58a32.76,32.76,0,0,0-5.8-4.28l-.06-.05-.08,0a32.49,32.49,0,0,0-12.4-4.08v-1.43h1.81a3,3,0,0,0,3-3,3,3,0,0,0-3-3H-77a3,3,0,0,0-3,3,3,3,0,0,0,3,3h1.81v1.39a33.37,33.37,0,0,0-3.89.64A1.2,1.2,0,0,0-80-2330a1.21,1.21,0,0,0,1.45.9,30.85,30.85,0,0,1,3.36-.57l1.29-.1,1.12-.07v2.37a1.2,1.2,0,0,0,1.21,1.2,1.2,1.2,0,0,0,1.21-1.2v-2.36a30.07,30.07,0,0,1,12.62,3.41l-1.19,2a1.2,1.2,0,0,0,.44,1.64,1.2,1.2,0,0,0,.6.16,1.21,1.21,0,0,0,1-.6l1.19-2a30.32,30.32,0,0,1,9.38,9.33l-2.06,1.18a1.2,1.2,0,0,0-.44,1.64,1.21,1.21,0,0,0,1,.6,1.2,1.2,0,0,0,.6-.16l2.06-1.18a29.65,29.65,0,0,1,3.44,12.74H-44a1.2,1.2,0,0,0-1.21,1.2,1.2,1.2,0,0,0,1.21,1.2h2.38A29.65,29.65,0,0,1-45-2286l-2.06-1.18a1.21,1.21,0,0,0-1.65.44,1.2,1.2,0,0,0,.44,1.64l2.06,1.18a30.32,30.32,0,0,1-9.38,9.33l-1.19-2a1.21,1.21,0,0,0-1.65-.44,1.19,1.19,0,0,0-.44,1.64l1.19,2a30.07,30.07,0,0,1-12.62,3.41v-2.36a1.2,1.2,0,0,0-1.21-1.2,1.2,1.2,0,0,0-1.21,1.2v2.37a30.62,30.62,0,0,1-5.76-.74,1.2,1.2,0,0,0-1.45.9,1.2,1.2,0,0,0,.91,1.44,32.79,32.79,0,0,0,7.31.83h.22a32.52,32.52,0,0,0,16-4.29l.11,0,.06-.05a32.73,32.73,0,0,0,11.79-11.71l.07-.09s0-.05,0-.08a32,32,0,0,0,4.34-16.12A32,32,0,0,0-43.49-2316Z"/></clipPath><clipPath id="clip-path-3"><path class="cls-1" d="M-82.41-2322.7h-6a1.2,1.2,0,0,0-1.21,1.2,1.2,1.2,0,0,0,1.21,1.2h6a1.2,1.2,0,0,0,1.21-1.2A1.2,1.2,0,0,0-82.41-2322.7Z"/></clipPath><clipPath id="clip-path-4"><path class="cls-1" d="M-82.41-2314.3H-94.47a1.2,1.2,0,0,0-1.21,1.2,1.2,1.2,0,0,0,1.21,1.2h12.07a1.2,1.2,0,0,0,1.21-1.2A1.2,1.2,0,0,0-82.41-2314.3Z"/></clipPath><clipPath id="clip-path-5"><path class="cls-1" d="M-82.41-2305.9h-18.1a1.2,1.2,0,0,0-1.21,1.2,1.2,1.2,0,0,0,1.21,1.2h18.1a1.2,1.2,0,0,0,1.21-1.2A1.2,1.2,0,0,0-82.41-2305.9Z"/></clipPath><clipPath id="clip-path-6"><path class="cls-1" d="M-82.41-2297.5h-22.93a1.2,1.2,0,0,0-1.21,1.2,1.2,1.2,0,0,0,1.21,1.2h22.93a1.2,1.2,0,0,0,1.21-1.2A1.2,1.2,0,0,0-82.41-2297.5Z"/></clipPath><clipPath id="clip-path-7"><path class="cls-1" d="M-82.41-2289.1H-98.09a1.2,1.2,0,0,0-1.21,1.2,1.2,1.2,0,0,0,1.21,1.2h15.69a1.2,1.2,0,0,0,1.21-1.2A1.2,1.2,0,0,0-82.41-2289.1Z"/></clipPath><clipPath id="clip-path-8"><path class="cls-1" d="M-82.41-2280.7h-8.45a1.2,1.2,0,0,0-1.21,1.2,1.2,1.2,0,0,0,1.21,1.2h8.45a1.2,1.2,0,0,0,1.21-1.2A1.2,1.2,0,0,0-82.41-2280.7Z"/></clipPath><clipPath id="clip-path-9"><path class="cls-1" d="M11.26-2437.32a1.87,1.87,0,0,1,.77-1.37l9.53-6.86-6.89,9.47a1.89,1.89,0,0,1-1.38.77,1.91,1.91,0,0,1-1.48-.54A1.87,1.87,0,0,1,11.26-2437.32Zm2.22,4.41a4.3,4.3,0,0,0,3.15-1.75l11.3-15.53a1.2,1.2,0,0,0-.13-1.55,1.22,1.22,0,0,0-1.56-.12l-15.62,11.24a4.26,4.26,0,0,0-1.76,3.12,4.26,4.26,0,0,0,1.25,3.36,4.3,4.3,0,0,0,3,1.25Z"/></clipPath><clipPath id="clip-path-10"><path class="cls-1" d="M11.25-2471.27v-3.63H7a.6.6,0,0,1-.6-.6.6.6,0,0,1,.6-.6H17.89a.6.6,0,0,1,.6.6.6.6,0,0,1-.6.6H13.66v3.63l-1.21,0h-.2l-.59,0Zm29.17,2.68,1.71,1.7-1.71,1.7-1.71-1.7Zm.08,13.58s0-.05,0-.08l-.05-.06a32.64,32.64,0,0,0-4.3-5.77l2.59-2.58,1.71,1.7,5.12-5.09L40.42-2472l-5.12,5.09,1.71,1.7-2.59,2.58a32.76,32.76,0,0,0-5.8-4.28l-.06-.05-.08,0a32.49,32.49,0,0,0-12.4-4.08v-1.43h1.81a3,3,0,0,0,3-3,3,3,0,0,0-3-3H7a3,3,0,0,0-3,3,3,3,0,0,0,3,3H8.84v1.39a33.37,33.37,0,0,0-3.89.64A1.2,1.2,0,0,0,4-2469a1.21,1.21,0,0,0,1.45.9,30.85,30.85,0,0,1,3.36-.57l1.29-.1,1.12-.07v2.37a1.2,1.2,0,0,0,1.21,1.2,1.2,1.2,0,0,0,1.21-1.2v-2.36a30.07,30.07,0,0,1,12.62,3.41l-1.19,2a1.2,1.2,0,0,0,.44,1.64,1.2,1.2,0,0,0,.6.16,1.21,1.21,0,0,0,1-.6l1.19-2a30.32,30.32,0,0,1,9.38,9.33l-2.06,1.18a1.2,1.2,0,0,0-.44,1.64,1.21,1.21,0,0,0,1,.6,1.2,1.2,0,0,0,.6-.16l2.06-1.18a29.65,29.65,0,0,1,3.44,12.74H40a1.2,1.2,0,0,0-1.21,1.2,1.2,1.2,0,0,0,1.21,1.2H42.4A29.65,29.65,0,0,1,39-2425l-2.06-1.18a1.21,1.21,0,0,0-1.65.44,1.2,1.2,0,0,0,.44,1.64l2.06,1.18a30.32,30.32,0,0,1-9.38,9.33l-1.19-2a1.21,1.21,0,0,0-1.65-.44,1.19,1.19,0,0,0-.44,1.64l1.19,2a30.07,30.07,0,0,1-12.62,3.41v-2.36a1.2,1.2,0,0,0-1.21-1.2,1.2,1.2,0,0,0-1.21,1.2v2.37a30.62,30.62,0,0,1-5.76-.74,1.2,1.2,0,0,0-1.45.9,1.2,1.2,0,0,0,.91,1.44,32.79,32.79,0,0,0,7.31.83h.22a32.52,32.52,0,0,0,16-4.29l.11,0,.06-.05a32.73,32.73,0,0,0,11.79-11.71l.07-.09s0-.05,0-.08a32,32,0,0,0,4.34-16.12A32,32,0,0,0,40.51-2455Z"/></clipPath><clipPath id="clip-path-11"><path class="cls-1" d="M1.59-2461.7h-6a1.2,1.2,0,0,0-1.21,1.2,1.2,1.2,0,0,0,1.21,1.2h6a1.2,1.2,0,0,0,1.21-1.2A1.2,1.2,0,0,0,1.59-2461.7Z"/></clipPath><clipPath id="clip-path-12"><path class="cls-1" d="M1.59-2453.3H-10.47a1.2,1.2,0,0,0-1.21,1.2,1.2,1.2,0,0,0,1.21,1.2H1.59a1.2,1.2,0,0,0,1.21-1.2A1.2,1.2,0,0,0,1.59-2453.3Z"/></clipPath><clipPath id="clip-path-13"><path class="cls-1" d="M1.59-2444.9h-18.1a1.2,1.2,0,0,0-1.21,1.2,1.2,1.2,0,0,0,1.21,1.2H1.59a1.2,1.2,0,0,0,1.21-1.2A1.2,1.2,0,0,0,1.59-2444.9Z"/></clipPath><clipPath id="clip-path-14"><path class="cls-1" d="M1.59-2436.5H-21.34a1.2,1.2,0,0,0-1.21,1.2,1.2,1.2,0,0,0,1.21,1.2H1.59a1.2,1.2,0,0,0,1.21-1.2A1.2,1.2,0,0,0,1.59-2436.5Z"/></clipPath><clipPath id="clip-path-15"><path class="cls-1" d="M1.59-2428.1H-14.09a1.2,1.2,0,0,0-1.21,1.2,1.2,1.2,0,0,0,1.21,1.2H1.59a1.2,1.2,0,0,0,1.21-1.2A1.2,1.2,0,0,0,1.59-2428.1Z"/></clipPath><clipPath id="clip-path-16"><path class="cls-1" d="M1.59-2419.7H-6.85a1.2,1.2,0,0,0-1.21,1.2,1.2,1.2,0,0,0,1.21,1.2H1.59a1.2,1.2,0,0,0,1.21-1.2A1.2,1.2,0,0,0,1.59-2419.7Z"/></clipPath><clipPath id="clip-path-17"><path class="cls-1" d="M35.76,41.18a1.87,1.87,0,0,1,.77-1.37L46.06,33l-6.89,9.47a1.89,1.89,0,0,1-1.38.77,1.91,1.91,0,0,1-1.48-.54A1.87,1.87,0,0,1,35.76,41.18ZM38,45.59a4.3,4.3,0,0,0,3.15-1.75L52.42,28.3a1.2,1.2,0,0,0-.13-1.55,1.22,1.22,0,0,0-1.56-.12L35.11,37.87a4.28,4.28,0,0,0,2.53,7.73Z"/></clipPath><clipPath id="clip-path-18"><rect class="cls-2" x="-143" y="-943" width="1440" height="6803"/></clipPath><clipPath id="clip-path-19"><path class="cls-1" d="M35.75,7.23V3.6H31.53a.6.6,0,1,1,0-1.2H42.39a.6.6,0,1,1,0,1.2H38.16V7.23L37,7.2h-.2l-.59,0ZM64.92,9.9l1.71,1.7-1.71,1.7-1.71-1.7ZM65,23.48s0-.05,0-.08l-.05-.06a32.64,32.64,0,0,0-4.3-5.77L63.22,15l1.71,1.7L70,11.6,64.92,6.51,59.8,11.6l1.71,1.7-2.59,2.58a32.76,32.76,0,0,0-5.8-4.28l-.06-.05-.08,0a32.49,32.49,0,0,0-12.4-4.08V6h1.81a3,3,0,1,0,0-6H31.53a3,3,0,1,0,0,6h1.81V7.39A33.37,33.37,0,0,0,29.44,8,1.2,1.2,0,1,0,30,10.37a30.85,30.85,0,0,1,3.36-.57l1.29-.1,1.12-.07V12a1.21,1.21,0,0,0,2.41,0V9.64A30.07,30.07,0,0,1,50.78,13l-1.19,2a1.21,1.21,0,0,0,2.09,1.2l1.19-2a30.32,30.32,0,0,1,9.38,9.33l-2.06,1.18a1.2,1.2,0,0,0-.44,1.64,1.21,1.21,0,0,0,1.65.44l2.06-1.18A29.65,29.65,0,0,1,66.9,38.4H64.52a1.2,1.2,0,1,0,0,2.4H66.9a29.65,29.65,0,0,1-3.44,12.74L61.4,52.36a1.21,1.21,0,0,0-1.65.44,1.2,1.2,0,0,0,.44,1.64l2.06,1.18a30.32,30.32,0,0,1-9.38,9.33l-1.19-2A1.21,1.21,0,0,0,50,62.46a1.19,1.19,0,0,0-.44,1.64l1.19,2a30.07,30.07,0,0,1-12.62,3.41V67.2a1.21,1.21,0,0,0-2.41,0v2.37A30.62,30.62,0,0,1,30,68.83a1.2,1.2,0,1,0-.54,2.34,32.79,32.79,0,0,0,7.31.83H37a32.52,32.52,0,0,0,16-4.29l.11,0,.06-.05A32.73,32.73,0,0,0,64.91,55.89L65,55.8s0-.05,0-.08a32.12,32.12,0,0,0,0-32.25Z"/></clipPath><clipPath id="clip-path-21"><path class="cls-1" d="M26.09,16.8h-6a1.2,1.2,0,1,0,0,2.4h6a1.2,1.2,0,1,0,0-2.4Z"/></clipPath><clipPath id="clip-path-23"><path class="cls-1" d="M26.09,25.2H14a1.2,1.2,0,1,0,0,2.4H26.09a1.2,1.2,0,1,0,0-2.4Z"/></clipPath><clipPath id="clip-path-25"><path class="cls-1" d="M26.09,33.6H8A1.2,1.2,0,1,0,8,36h18.1a1.2,1.2,0,1,0,0-2.4Z"/></clipPath><clipPath id="clip-path-27"><path class="cls-1" d="M26.09,42H3.16a1.2,1.2,0,1,0,0,2.4H26.09a1.2,1.2,0,1,0,0-2.4Z"/></clipPath><clipPath id="clip-path-29"><path class="cls-1" d="M26.09,50.4H10.4a1.2,1.2,0,1,0,0,2.4H26.09a1.2,1.2,0,1,0,0-2.4Z"/></clipPath><clipPath id="clip-path-31"><path class="cls-1" d="M26.09,58.8H17.65a1.2,1.2,0,1,0,0,2.4h8.45a1.2,1.2,0,1,0,0-2.4Z"/></clipPath><clipPath id="clip-path-33"><path class="cls-1" d="M35.71-57.92a2.2,2.2,0,0,1,.9-1.61l11.2-8.06-8.1,11.13a2.22,2.22,0,0,1-1.62.9,2.25,2.25,0,0,1-1.74-.64A2.2,2.2,0,0,1,35.71-57.92Zm2.6,5.18A5.05,5.05,0,0,0,42-54.79L55.29-73a1.4,1.4,0,0,0-.15-1.82A1.43,1.43,0,0,0,53.31-75L34.95-61.81a5,5,0,0,0-2.06,3.67,5,5,0,0,0,1.46,3.94,5.05,5.05,0,0,0,3.57,1.47Z"/></clipPath><clipPath id="clip-path-34"><path class="cls-1" d="M35.71-97.81v-4.26h-5a.71.71,0,0,1-.71-.7.71.71,0,0,1,.71-.7H43.51a.71.71,0,0,1,.71.7.71.71,0,0,1-.71.7h-5v4.26l-1.42,0h-.23l-.7,0ZM70-94.67l2,2-2,2-2-2Zm.1,16s0-.06,0-.09L70-78.88a38.35,38.35,0,0,0-5.06-6.78l3-3,2,2,6-6-6-6-6,6,2,2-3,3a38.49,38.49,0,0,0-6.82-5L56-92.74l-.09,0a38.17,38.17,0,0,0-14.57-4.8v-1.68h2.13a3.54,3.54,0,0,0,3.55-3.52,3.54,3.54,0,0,0-3.55-3.52H30.74a3.54,3.54,0,0,0-3.55,3.52,3.54,3.54,0,0,0,3.55,3.52h2.13v1.63a39.21,39.21,0,0,0-4.57.75,1.41,1.41,0,0,0-1.06,1.69,1.42,1.42,0,0,0,1.7,1.06,36.25,36.25,0,0,1,3.94-.67l1.52-.12L35.71-95v2.79a1.41,1.41,0,0,0,1.42,1.41,1.41,1.41,0,0,0,1.42-1.41V-95a35.33,35.33,0,0,1,14.83,4L52-88.56a1.41,1.41,0,0,0,.52,1.93,1.41,1.41,0,0,0,.71.19,1.42,1.42,0,0,0,1.23-.7l1.39-2.4a35.63,35.63,0,0,1,11,11l-2.41,1.39a1.4,1.4,0,0,0-.52,1.93,1.42,1.42,0,0,0,1.23.7,1.41,1.41,0,0,0,.71-.19l2.42-1.39a34.84,34.84,0,0,1,4,15h-2.8a1.41,1.41,0,0,0-1.42,1.41,1.41,1.41,0,0,0,1.42,1.41h2.8a34.84,34.84,0,0,1-4,15l-2.42-1.39a1.42,1.42,0,0,0-1.94.52,1.41,1.41,0,0,0,.52,1.93L66.84-41a35.63,35.63,0,0,1-11,11l-1.39-2.4a1.42,1.42,0,0,0-1.94-.52A1.4,1.4,0,0,0,52-31l1.4,2.41a35.33,35.33,0,0,1-14.83,4v-2.77a1.41,1.41,0,0,0-1.42-1.41,1.41,1.41,0,0,0-1.42,1.41v2.79a36,36,0,0,1-6.77-.87,1.41,1.41,0,0,0-1.7,1.06,1.41,1.41,0,0,0,1.06,1.69,38.53,38.53,0,0,0,8.59,1h.26a38.21,38.21,0,0,0,18.75-5L56-26.8l.07-.06A38.46,38.46,0,0,0,70-40.63a1.34,1.34,0,0,0,.09-.11s0-.06,0-.09a37.63,37.63,0,0,0,5.1-18.94A37.65,37.65,0,0,0,70.08-78.71Z"/></clipPath><clipPath id="clip-path-35"><path class="cls-1" d="M24.36-86.56H17.27a1.41,1.41,0,0,0-1.42,1.41,1.41,1.41,0,0,0,1.42,1.41h7.09a1.41,1.41,0,0,0,1.42-1.41A1.41,1.41,0,0,0,24.36-86.56Z"/></clipPath><clipPath id="clip-path-36"><path class="cls-1" d="M24.36-76.69H10.18a1.41,1.41,0,0,0-1.42,1.41,1.41,1.41,0,0,0,1.42,1.41H24.36a1.41,1.41,0,0,0,1.42-1.41A1.41,1.41,0,0,0,24.36-76.69Z"/></clipPath><clipPath id="clip-path-37"><path class="cls-1" d="M24.36-66.82H3.09a1.41,1.41,0,0,0-1.42,1.41A1.41,1.41,0,0,0,3.09-64H24.36a1.41,1.41,0,0,0,1.42-1.41A1.41,1.41,0,0,0,24.36-66.82Z"/></clipPath><clipPath id="clip-path-38"><path class="cls-1" d="M24.36-57H-2.58A1.41,1.41,0,0,0-4-55.54a1.41,1.41,0,0,0,1.42,1.41H24.36a1.41,1.41,0,0,0,1.42-1.41A1.41,1.41,0,0,0,24.36-57Z"/></clipPath><clipPath id="clip-path-39"><path class="cls-1" d="M24.36-47.08H5.93a1.41,1.41,0,0,0-1.42,1.41,1.41,1.41,0,0,0,1.42,1.41H24.36a1.41,1.41,0,0,0,1.42-1.41A1.41,1.41,0,0,0,24.36-47.08Z"/></clipPath><clipPath id="clip-path-40"><path class="cls-1" d="M24.36-37.21H14.43A1.41,1.41,0,0,0,13-35.8a1.41,1.41,0,0,0,1.42,1.41h9.93a1.41,1.41,0,0,0,1.42-1.41A1.41,1.41,0,0,0,24.36-37.21Z"/></clipPath></defs><title>conto_iban_nocosti</title><g id="registra_5minuti"><g class="cls-19"><g class="cls-20"><rect class="cls-21" x="28.34" y="21.4" width="29.31" height="29.2"/></g></g><g class="cls-22"><g class="cls-20"><rect class="cls-21" x="23.51" y="-5" width="51.54" height="82"/></g></g><g class="cls-23"><g class="cls-20"><rect class="cls-21" x="13.85" y="11.8" width="18.45" height="12.4"/></g></g><g class="cls-24"><g class="cls-20"><rect class="cls-21" x="7.82" y="20.2" width="24.48" height="12.4"/></g></g><g class="cls-25"><g class="cls-20"><rect class="cls-21" x="1.78" y="28.6" width="30.52" height="12.4"/></g></g><g class="cls-26"><g class="cls-20"><rect class="cls-21" x="-3.04" y="37" width="35.34" height="12.4"/></g></g><g class="cls-27"><g class="cls-20"><rect class="cls-21" x="4.2" y="45.4" width="28.1" height="12.4"/></g></g><g class="cls-28"><g class="cls-20"><rect class="cls-21" x="11.44" y="53.8" width="20.86" height="12.4"/></g></g></g></svg>