<?xml version="1.0" encoding="UTF-8"?>
<svg width="54px" height="54px" viewBox="0 0 54 54" version="1.1" xmlns="http://www.w3.org/2000/svg" xmlns:xlink="http://www.w3.org/1999/xlink">
    <!-- Generator: Sketch 42 (36781) - http://www.bohemiancoding.com/sketch -->
    <title>icon_true</title>
    <desc>Created with Sketch.</desc>
    <defs>
        <circle id="path-1" cx="20" cy="20" r="20"></circle>
        <filter x="-50%" y="-50%" width="200%" height="200%" filterUnits="objectBoundingBox" id="filter-2">
            <feOffset dx="0" dy="5" in="SourceAlpha" result="shadowOffsetOuter1"></feOffset>
            <feGaussianBlur stdDeviation="3.5" in="shadowOffsetOuter1" result="shadowBlurOuter1"></feGaussianBlur>
            <feColorMatrix values="0 0 0 0 0   0 0 0 0 0   0 0 0 0 0  0 0 0 0.104930933 0" type="matrix" in="shadowBlurOuter1"></feColorMatrix>
        </filter>
    </defs>
    <g id="Landing-A" stroke="none" stroke-width="1" fill="none" fill-rule="evenodd">
        <g id="Landing" transform="translate(-875.000000, -3627.000000)">
            <g id="content-D" transform="translate(0.000000, 3368.000000)">
                <g id="Group-11" transform="translate(276.000000, 211.000000)">
                    <g id="Group-8" transform="translate(0.000000, 26.000000)">
                        <g id="row" transform="translate(0.000000, 24.000000)">
                            <g id="icon_true" transform="translate(606.000000, 0.000000)">
                                <g id="Oval-5">
                                    <use fill="black" fill-opacity="1" filter="url(#filter-2)" xlink:href="#path-1"></use>
                                    <use fill="#FFFFFF" fill-rule="evenodd" xlink:href="#path-1"></use>
                                </g>
                                <g id="icon-check" transform="translate(9.000000, 13.000000)" fill="#61CC71">
                                    <path d="M21.7,0.3 C21.3,-0.1 20.7,-0.1 20.3,0.3 L8,12.6 L1.7,6.3 C1.3,5.9 0.7,5.9 0.3,6.3 C-0.1,6.7 -0.1,7.3 0.3,7.7 L7.3,14.7 C7.7,15.1 8.3,15.1 8.7,14.7 L21.7,1.7 C22.1,1.3 22.1,0.7 21.7,0.3 Z" id="Shape"></path>
                                </g>
                            </g>
                        </g>
                    </g>
                </g>
            </g>
        </g>
    </g>
</svg>