<svg xmlns="http://www.w3.org/2000/svg" xmlns:xlink="http://www.w3.org/1999/xlink" viewBox="0 0 72 72"><defs><style>.cls-1{fill:none;clip-rule:evenodd;}.cls-2{fill:#00a5ff;}.cls-3{clip-path:url(#clip-path);}.cls-4{clip-path:url(#clip-path-2);}.cls-5{clip-path:url(#clip-path-3);}.cls-6{clip-path:url(#clip-path-4);}.cls-7{clip-path:url(#clip-path-5);}.cls-8{clip-path:url(#clip-path-6);}.cls-9{clip-path:url(#clip-path-7);}.cls-10{clip-path:url(#clip-path-8);}.cls-11{clip-path:url(#clip-path-9);}.cls-12{clip-path:url(#clip-path-10);}.cls-13{clip-path:url(#clip-path-11);}.cls-14{clip-path:url(#clip-path-12);}.cls-15{clip-path:url(#clip-path-13);}.cls-16{clip-path:url(#clip-path-14);}.cls-17{clip-path:url(#clip-path-15);}.cls-18{clip-path:url(#clip-path-16);}</style><clipPath id="clip-path"><path class="cls-1" d="M-578.12,41.18a1.87,1.87,0,0,1,.77-1.37l9.53-6.86-6.89,9.47a1.89,1.89,0,0,1-1.38.77,1.91,1.91,0,0,1-1.48-.54A1.87,1.87,0,0,1-578.12,41.18Zm2.22,4.41a4.3,4.3,0,0,0,3.15-1.75l11.3-15.53a1.2,1.2,0,0,0-.13-1.55,1.22,1.22,0,0,0-1.56-.12l-15.62,11.24A4.26,4.26,0,0,0-580.53,41a4.26,4.26,0,0,0,1.25,3.36,4.3,4.3,0,0,0,3,1.25Z"/></clipPath><clipPath id="clip-path-2"><path class="cls-1" d="M-578.13,7.23V3.6h-4.22A.6.6,0,0,1-583,3a.6.6,0,0,1,.6-.6h10.86a.6.6,0,0,1,.6.6.6.6,0,0,1-.6.6h-4.22V7.23l-1.21,0h-.2l-.59,0ZM-549,9.9l1.71,1.7L-549,13.3l-1.71-1.7Zm.08,13.58s0-.05,0-.08l-.05-.06a32.64,32.64,0,0,0-4.3-5.77l2.59-2.58,1.71,1.7,5.12-5.09L-549,6.51l-5.12,5.09,1.71,1.7L-555,15.87a32.76,32.76,0,0,0-5.8-4.28l-.06-.05-.08,0a32.49,32.49,0,0,0-12.4-4.08V6h1.81a3,3,0,0,0,3-3,3,3,0,0,0-3-3h-10.86a3,3,0,0,0-3,3,3,3,0,0,0,3,3h1.81V7.39a33.37,33.37,0,0,0-3.89.64,1.2,1.2,0,0,0-.91,1.44,1.21,1.21,0,0,0,1.45.9,30.85,30.85,0,0,1,3.36-.57l1.29-.1,1.12-.07V12a1.2,1.2,0,0,0,1.21,1.2,1.2,1.2,0,0,0,1.21-1.2V9.64A30.07,30.07,0,0,1-563.09,13l-1.19,2a1.2,1.2,0,0,0,.44,1.64,1.2,1.2,0,0,0,.6.16,1.21,1.21,0,0,0,1-.6l1.19-2a30.32,30.32,0,0,1,9.38,9.33l-2.06,1.18a1.2,1.2,0,0,0-.44,1.64,1.21,1.21,0,0,0,1,.6,1.2,1.2,0,0,0,.6-.16l2.06-1.18A29.65,29.65,0,0,1-547,38.4h-2.38a1.2,1.2,0,0,0-1.21,1.2,1.2,1.2,0,0,0,1.21,1.2H-547a29.65,29.65,0,0,1-3.44,12.74l-2.06-1.18a1.21,1.21,0,0,0-1.65.44,1.2,1.2,0,0,0,.44,1.64l2.06,1.18A30.32,30.32,0,0,1-561,64.94l-1.19-2a1.21,1.21,0,0,0-1.65-.44,1.19,1.19,0,0,0-.44,1.64l1.19,2a30.07,30.07,0,0,1-12.62,3.41V67.2a1.2,1.2,0,0,0-1.21-1.2,1.2,1.2,0,0,0-1.21,1.2v2.37a30.62,30.62,0,0,1-5.76-.74,1.2,1.2,0,0,0-1.45.9,1.2,1.2,0,0,0,.91,1.44,32.79,32.79,0,0,0,7.31.83h.22a32.52,32.52,0,0,0,16-4.29l.11,0,.06-.05A32.73,32.73,0,0,0-549,55.89l.07-.09s0-.05,0-.08a32,32,0,0,0,4.34-16.12A32,32,0,0,0-548.87,23.48Z"/></clipPath><clipPath id="clip-path-3"><path class="cls-1" d="M-587.78,16.8h-6A1.2,1.2,0,0,0-595,18a1.2,1.2,0,0,0,1.21,1.2h6a1.2,1.2,0,0,0,1.21-1.2A1.2,1.2,0,0,0-587.78,16.8Z"/></clipPath><clipPath id="clip-path-4"><path class="cls-1" d="M-587.78,25.2h-12.07a1.2,1.2,0,0,0-1.21,1.2,1.2,1.2,0,0,0,1.21,1.2h12.07a1.2,1.2,0,0,0,1.21-1.2A1.2,1.2,0,0,0-587.78,25.2Z"/></clipPath><clipPath id="clip-path-5"><path class="cls-1" d="M-587.78,33.6h-18.1a1.2,1.2,0,0,0-1.21,1.2,1.2,1.2,0,0,0,1.21,1.2h18.1a1.2,1.2,0,0,0,1.21-1.2A1.2,1.2,0,0,0-587.78,33.6Z"/></clipPath><clipPath id="clip-path-6"><path class="cls-1" d="M-587.78,42h-22.93a1.2,1.2,0,0,0-1.21,1.2,1.2,1.2,0,0,0,1.21,1.2h22.93a1.2,1.2,0,0,0,1.21-1.2A1.2,1.2,0,0,0-587.78,42Z"/></clipPath><clipPath id="clip-path-7"><path class="cls-1" d="M-587.78,50.4h-15.69a1.2,1.2,0,0,0-1.21,1.2,1.2,1.2,0,0,0,1.21,1.2h15.69a1.2,1.2,0,0,0,1.21-1.2A1.2,1.2,0,0,0-587.78,50.4Z"/></clipPath><clipPath id="clip-path-8"><path class="cls-1" d="M-587.78,58.8h-8.45a1.2,1.2,0,0,0-1.21,1.2,1.2,1.2,0,0,0,1.21,1.2h8.45a1.2,1.2,0,0,0,1.21-1.2A1.2,1.2,0,0,0-587.78,58.8Z"/></clipPath><clipPath id="clip-path-9"><path class="cls-1" d="M-578.16-57.92a2.2,2.2,0,0,1,.9-1.61l11.2-8.06-8.1,11.13a2.22,2.22,0,0,1-1.62.9,2.25,2.25,0,0,1-1.74-.64A2.2,2.2,0,0,1-578.16-57.92Zm2.6,5.18a5.05,5.05,0,0,0,3.7-2.06L-558.59-73a1.4,1.4,0,0,0-.15-1.82,1.43,1.43,0,0,0-1.83-.15l-18.36,13.21A5,5,0,0,0-581-58.14a5,5,0,0,0,1.46,3.94A5.05,5.05,0,0,0-576-52.72Z"/></clipPath><clipPath id="clip-path-10"><path class="cls-1" d="M-578.17-97.81v-4.26h-5a.71.71,0,0,1-.71-.7.71.71,0,0,1,.71-.7h12.76a.71.71,0,0,1,.71.7.71.71,0,0,1-.71.7h-5v4.26l-1.42,0H-577l-.7,0Zm34.28,3.14,2,2-2,2-2-2Zm.1,16s0-.06,0-.09l-.06-.07a38.35,38.35,0,0,0-5.06-6.78l3-3,2,2,6-6-6-6-6,6,2,2-3,3a38.49,38.49,0,0,0-6.82-5l-.07-.06-.09,0a38.17,38.17,0,0,0-14.57-4.8v-1.68h2.13a3.54,3.54,0,0,0,3.55-3.52,3.54,3.54,0,0,0-3.55-3.52h-12.76a3.54,3.54,0,0,0-3.55,3.52,3.54,3.54,0,0,0,3.55,3.52H-581v1.63a39.21,39.21,0,0,0-4.57.75,1.41,1.41,0,0,0-1.06,1.69,1.42,1.42,0,0,0,1.7,1.06,36.25,36.25,0,0,1,3.94-.67l1.52-.12,1.31-.08v2.79a1.41,1.41,0,0,0,1.42,1.41,1.41,1.41,0,0,0,1.42-1.41V-95a35.33,35.33,0,0,1,14.83,4l-1.4,2.41a1.41,1.41,0,0,0,.52,1.93,1.41,1.41,0,0,0,.71.19,1.42,1.42,0,0,0,1.23-.7l1.39-2.4a35.63,35.63,0,0,1,11,11l-2.41,1.39a1.4,1.4,0,0,0-.52,1.93,1.42,1.42,0,0,0,1.23.7,1.41,1.41,0,0,0,.71-.19l2.42-1.39a34.84,34.84,0,0,1,4,15h-2.8a1.41,1.41,0,0,0-1.42,1.41,1.41,1.41,0,0,0,1.42,1.41h2.8a34.84,34.84,0,0,1-4,15L-548-44.78a1.42,1.42,0,0,0-1.94.52,1.41,1.41,0,0,0,.52,1.93L-547-41a35.63,35.63,0,0,1-11,11l-1.39-2.4a1.42,1.42,0,0,0-1.94-.52A1.4,1.4,0,0,0-561.9-31l1.4,2.41a35.33,35.33,0,0,1-14.83,4v-2.77a1.41,1.41,0,0,0-1.42-1.41,1.41,1.41,0,0,0-1.42,1.41v2.79a36,36,0,0,1-6.77-.87,1.41,1.41,0,0,0-1.7,1.06,1.41,1.41,0,0,0,1.06,1.69,38.53,38.53,0,0,0,8.59,1h.26a38.21,38.21,0,0,0,18.75-5l.13-.05.07-.06a38.46,38.46,0,0,0,13.86-13.76,1.34,1.34,0,0,0,.09-.11s0-.06,0-.09a37.63,37.63,0,0,0,5.1-18.94A37.65,37.65,0,0,0-543.8-78.71Z"/></clipPath><clipPath id="clip-path-11"><path class="cls-1" d="M-589.51-86.56h-7.09A1.41,1.41,0,0,0-598-85.15a1.41,1.41,0,0,0,1.42,1.41h7.09a1.41,1.41,0,0,0,1.42-1.41A1.41,1.41,0,0,0-589.51-86.56Z"/></clipPath><clipPath id="clip-path-12"><path class="cls-1" d="M-589.51-76.69H-603.7a1.41,1.41,0,0,0-1.42,1.41,1.41,1.41,0,0,0,1.42,1.41h14.18a1.41,1.41,0,0,0,1.42-1.41A1.41,1.41,0,0,0-589.51-76.69Z"/></clipPath><clipPath id="clip-path-13"><path class="cls-1" d="M-589.51-66.82h-21.27a1.41,1.41,0,0,0-1.42,1.41A1.41,1.41,0,0,0-610.79-64h21.27a1.41,1.41,0,0,0,1.42-1.41A1.41,1.41,0,0,0-589.51-66.82Z"/></clipPath><clipPath id="clip-path-14"><path class="cls-1" d="M-589.51-57h-26.94a1.41,1.41,0,0,0-1.42,1.41,1.41,1.41,0,0,0,1.42,1.41h26.94a1.41,1.41,0,0,0,1.42-1.41A1.41,1.41,0,0,0-589.51-57Z"/></clipPath><clipPath id="clip-path-15"><path class="cls-1" d="M-589.51-47.08h-18.43a1.41,1.41,0,0,0-1.42,1.41,1.41,1.41,0,0,0,1.42,1.41h18.43a1.41,1.41,0,0,0,1.42-1.41A1.41,1.41,0,0,0-589.51-47.08Z"/></clipPath><clipPath id="clip-path-16"><path class="cls-1" d="M-589.51-37.21h-9.93a1.41,1.41,0,0,0-1.42,1.41,1.41,1.41,0,0,0,1.42,1.41h9.93a1.41,1.41,0,0,0,1.42-1.41A1.41,1.41,0,0,0-589.51-37.21Z"/></clipPath></defs><title>denaro_tempo_reale</title><g id="denaro_tempo_reale"><path class="cls-2" d="M70.32,49.37a1.57,1.57,0,0,1-1.57-1.57V24.88a1.57,1.57,0,0,1,3.14,0V47.8A1.57,1.57,0,0,1,70.32,49.37Z"/><path class="cls-2" d="M59,60.48H27.72a1.57,1.57,0,0,1,0-3.14H59a1.57,1.57,0,1,1,0,3.14Z"/><path class="cls-2" d="M59,15.34H27.72a1.57,1.57,0,0,1,0-3.14H59a1.57,1.57,0,1,1,0,3.14Z"/><path class="cls-2" d="M17.16,15.34H1.46a1.57,1.57,0,0,1,0-3.14h15.7a1.57,1.57,0,0,1,0,3.14Z"/><path class="cls-2" d="M17.16,25.81H5.54a1.57,1.57,0,0,1,0-3.14H17.16a1.57,1.57,0,0,1,0,3.14Z"/><path class="cls-2" d="M17.16,36.28H9.31a1.57,1.57,0,1,1,0-3.14h7.85a1.57,1.57,0,0,1,0,3.14Z"/><path class="cls-2" d="M38.92,45.76a9.42,9.42,0,1,1,9.42-9.42A9.43,9.43,0,0,1,38.92,45.76Zm0-15.7a6.28,6.28,0,1,0,6.28,6.28A6.29,6.29,0,0,0,38.92,30.06Z"/><path class="cls-2" d="M64.77,60.48H59a1.57,1.57,0,0,1-1.54-1.26A11.17,11.17,0,0,1,57.24,57a11,11,0,0,1,11-11,11.42,11.42,0,0,1,2.42.27,1.57,1.57,0,0,1,1.24,1.53v5.56A7.13,7.13,0,0,1,64.77,60.48Zm-4.38-3.14h4.38a4,4,0,0,0,4-4v-4.2A7.85,7.85,0,0,0,60.38,57C60.38,57.11,60.38,57.23,60.39,57.34Z"/><path class="cls-2" d="M68.23,26.68a11,11,0,0,1-11-11,11.18,11.18,0,0,1,.22-2.23A1.57,1.57,0,0,1,59,12.2h5.77a7.13,7.13,0,0,1,7.12,7.12v5.56a1.57,1.57,0,0,1-1.24,1.53A11.39,11.39,0,0,1,68.23,26.68Zm2.08-1.8h0Zm-9.93-9.54c0,.11,0,.23,0,.35a7.83,7.83,0,0,0,8.36,7.83v-4.2a4,4,0,0,0-4-4Z"/></g></svg>