<svg xmlns="http://www.w3.org/2000/svg" xmlns:xlink="http://www.w3.org/1999/xlink" viewBox="0 0 72 72"><defs><style>.cls-1{fill:none;clip-rule:evenodd;}.cls-2{fill:#00a5ff;}.cls-3{clip-path:url(#clip-path);}.cls-4{clip-path:url(#clip-path-2);}.cls-5{clip-path:url(#clip-path-3);}.cls-6{clip-path:url(#clip-path-4);}.cls-7{clip-path:url(#clip-path-5);}.cls-8{clip-path:url(#clip-path-6);}.cls-9{clip-path:url(#clip-path-7);}.cls-10{clip-path:url(#clip-path-8);}.cls-11{clip-path:url(#clip-path-9);}.cls-12{clip-path:url(#clip-path-10);}.cls-13{clip-path:url(#clip-path-11);}.cls-14{clip-path:url(#clip-path-12);}.cls-15{clip-path:url(#clip-path-13);}.cls-16{clip-path:url(#clip-path-14);}.cls-17{clip-path:url(#clip-path-15);}.cls-18{clip-path:url(#clip-path-16);}.cls-19{clip-path:url(#clip-path-17);}.cls-20{clip-path:url(#clip-path-18);}.cls-21{clip-path:url(#clip-path-19);}.cls-22{clip-path:url(#clip-path-20);}.cls-23{clip-path:url(#clip-path-21);}.cls-24{clip-path:url(#clip-path-22);}.cls-25{clip-path:url(#clip-path-23);}.cls-26{clip-path:url(#clip-path-24);}.cls-27{clip-path:url(#clip-path-25);}.cls-28{clip-path:url(#clip-path-26);}.cls-29{clip-path:url(#clip-path-27);}.cls-30{clip-path:url(#clip-path-28);}.cls-31{clip-path:url(#clip-path-29);}.cls-32{clip-path:url(#clip-path-30);}.cls-33{clip-path:url(#clip-path-31);}.cls-34{clip-path:url(#clip-path-32);}</style><clipPath id="clip-path"><path class="cls-1" d="M-345.26-2298.32a1.87,1.87,0,0,1,.77-1.37l9.53-6.86-6.89,9.47a1.89,1.89,0,0,1-1.38.77,1.91,1.91,0,0,1-1.48-.54A1.87,1.87,0,0,1-345.26-2298.32Zm2.22,4.41a4.3,4.3,0,0,0,3.15-1.75l11.3-15.53a1.2,1.2,0,0,0-.13-1.55,1.22,1.22,0,0,0-1.56-.12l-15.62,11.24a4.26,4.26,0,0,0-1.76,3.12,4.26,4.26,0,0,0,1.25,3.36,4.3,4.3,0,0,0,3,1.25Z"/></clipPath><clipPath id="clip-path-2"><path class="cls-1" d="M-345.26-2332.27v-3.63h-4.22a.6.6,0,0,1-.6-.6.6.6,0,0,1,.6-.6h10.86a.6.6,0,0,1,.6.6.6.6,0,0,1-.6.6h-4.22v3.63l-1.21,0h-.2l-.59,0Zm29.17,2.68,1.71,1.7-1.71,1.7-1.71-1.7ZM-316-2316s0-.05,0-.08l-.05-.06a32.64,32.64,0,0,0-4.3-5.77l2.59-2.58,1.71,1.7,5.12-5.09-5.12-5.09-5.12,5.09,1.71,1.7-2.59,2.58a32.76,32.76,0,0,0-5.8-4.28l-.06-.05-.08,0a32.49,32.49,0,0,0-12.4-4.08v-1.43h1.81a3,3,0,0,0,3-3,3,3,0,0,0-3-3h-10.86a3,3,0,0,0-3,3,3,3,0,0,0,3,3h1.81v1.39a33.37,33.37,0,0,0-3.89.64,1.2,1.2,0,0,0-.91,1.44,1.21,1.21,0,0,0,1.45.9,30.85,30.85,0,0,1,3.36-.57l1.29-.1,1.12-.07v2.37a1.2,1.2,0,0,0,1.21,1.2,1.2,1.2,0,0,0,1.21-1.2v-2.36a30.07,30.07,0,0,1,12.62,3.41l-1.19,2a1.2,1.2,0,0,0,.44,1.64,1.2,1.2,0,0,0,.6.16,1.21,1.21,0,0,0,1-.6l1.19-2a30.32,30.32,0,0,1,9.38,9.33l-2.06,1.18a1.2,1.2,0,0,0-.44,1.64,1.21,1.21,0,0,0,1,.6,1.2,1.2,0,0,0,.6-.16l2.06-1.18a29.65,29.65,0,0,1,3.44,12.74h-2.38a1.2,1.2,0,0,0-1.21,1.2,1.2,1.2,0,0,0,1.21,1.2h2.38a29.65,29.65,0,0,1-3.44,12.74l-2.06-1.18a1.21,1.21,0,0,0-1.65.44,1.2,1.2,0,0,0,.44,1.64l2.06,1.18a30.32,30.32,0,0,1-9.38,9.33l-1.19-2A1.21,1.21,0,0,0-331-2277a1.19,1.19,0,0,0-.44,1.64l1.19,2a30.07,30.07,0,0,1-12.62,3.41v-2.36a1.2,1.2,0,0,0-1.21-1.2,1.2,1.2,0,0,0-1.21,1.2v2.37a30.62,30.62,0,0,1-5.76-.74,1.2,1.2,0,0,0-1.45.9,1.2,1.2,0,0,0,.91,1.44,32.79,32.79,0,0,0,7.31.83h.22a32.52,32.52,0,0,0,16-4.29l.11,0,.06-.05a32.73,32.73,0,0,0,11.79-11.71l.07-.09s0-.05,0-.08a32,32,0,0,0,4.34-16.12A32,32,0,0,0-316-2316Z"/></clipPath><clipPath id="clip-path-3"><path class="cls-1" d="M-354.92-2322.7h-6a1.2,1.2,0,0,0-1.21,1.2,1.2,1.2,0,0,0,1.21,1.2h6a1.2,1.2,0,0,0,1.21-1.2A1.2,1.2,0,0,0-354.92-2322.7Z"/></clipPath><clipPath id="clip-path-4"><path class="cls-1" d="M-354.92-2314.3H-367a1.2,1.2,0,0,0-1.21,1.2,1.2,1.2,0,0,0,1.21,1.2h12.07a1.2,1.2,0,0,0,1.21-1.2A1.2,1.2,0,0,0-354.92-2314.3Z"/></clipPath><clipPath id="clip-path-5"><path class="cls-1" d="M-354.92-2305.9H-373a1.2,1.2,0,0,0-1.21,1.2,1.2,1.2,0,0,0,1.21,1.2h18.1a1.2,1.2,0,0,0,1.21-1.2A1.2,1.2,0,0,0-354.92-2305.9Z"/></clipPath><clipPath id="clip-path-6"><path class="cls-1" d="M-354.92-2297.5h-22.93a1.2,1.2,0,0,0-1.21,1.2,1.2,1.2,0,0,0,1.21,1.2h22.93a1.2,1.2,0,0,0,1.21-1.2A1.2,1.2,0,0,0-354.92-2297.5Z"/></clipPath><clipPath id="clip-path-7"><path class="cls-1" d="M-354.92-2289.1h-15.69a1.2,1.2,0,0,0-1.21,1.2,1.2,1.2,0,0,0,1.21,1.2h15.69a1.2,1.2,0,0,0,1.21-1.2A1.2,1.2,0,0,0-354.92-2289.1Z"/></clipPath><clipPath id="clip-path-8"><path class="cls-1" d="M-354.92-2280.7h-8.45a1.2,1.2,0,0,0-1.21,1.2,1.2,1.2,0,0,0,1.21,1.2h8.45a1.2,1.2,0,0,0,1.21-1.2A1.2,1.2,0,0,0-354.92-2280.7Z"/></clipPath><clipPath id="clip-path-9"><path class="cls-1" d="M-261.26-2437.32a1.87,1.87,0,0,1,.77-1.37l9.53-6.86-6.89,9.47a1.89,1.89,0,0,1-1.38.77,1.91,1.91,0,0,1-1.48-.54A1.87,1.87,0,0,1-261.26-2437.32Zm2.22,4.41a4.3,4.3,0,0,0,3.15-1.75l11.3-15.53a1.2,1.2,0,0,0-.13-1.55,1.22,1.22,0,0,0-1.56-.12l-15.62,11.24a4.26,4.26,0,0,0-1.76,3.12,4.26,4.26,0,0,0,1.25,3.36,4.3,4.3,0,0,0,3,1.25Z"/></clipPath><clipPath id="clip-path-10"><path class="cls-1" d="M-261.26-2471.27v-3.63h-4.22a.6.6,0,0,1-.6-.6.6.6,0,0,1,.6-.6h10.86a.6.6,0,0,1,.6.6.6.6,0,0,1-.6.6h-4.22v3.63l-1.21,0h-.2l-.59,0Zm29.17,2.68,1.71,1.7-1.71,1.7-1.71-1.7ZM-232-2455s0-.05,0-.08l-.05-.06a32.64,32.64,0,0,0-4.3-5.77l2.59-2.58,1.71,1.7,5.12-5.09-5.12-5.09-5.12,5.09,1.71,1.7-2.59,2.58a32.76,32.76,0,0,0-5.8-4.28l-.06-.05-.08,0a32.49,32.49,0,0,0-12.4-4.08v-1.43h1.81a3,3,0,0,0,3-3,3,3,0,0,0-3-3h-10.86a3,3,0,0,0-3,3,3,3,0,0,0,3,3h1.81v1.39a33.37,33.37,0,0,0-3.89.64,1.2,1.2,0,0,0-.91,1.44,1.21,1.21,0,0,0,1.45.9,30.85,30.85,0,0,1,3.36-.57l1.29-.1,1.12-.07v2.37a1.2,1.2,0,0,0,1.21,1.2,1.2,1.2,0,0,0,1.21-1.2v-2.36a30.07,30.07,0,0,1,12.62,3.41l-1.19,2a1.2,1.2,0,0,0,.44,1.64,1.2,1.2,0,0,0,.6.16,1.21,1.21,0,0,0,1-.6l1.19-2a30.32,30.32,0,0,1,9.38,9.33l-2.06,1.18a1.2,1.2,0,0,0-.44,1.64,1.21,1.21,0,0,0,1,.6,1.2,1.2,0,0,0,.6-.16l2.06-1.18a29.65,29.65,0,0,1,3.44,12.74h-2.38a1.2,1.2,0,0,0-1.21,1.2,1.2,1.2,0,0,0,1.21,1.2h2.38a29.65,29.65,0,0,1-3.44,12.74l-2.06-1.18a1.21,1.21,0,0,0-1.65.44,1.2,1.2,0,0,0,.44,1.64l2.06,1.18a30.32,30.32,0,0,1-9.38,9.33l-1.19-2A1.21,1.21,0,0,0-247-2416a1.19,1.19,0,0,0-.44,1.64l1.19,2a30.07,30.07,0,0,1-12.62,3.41v-2.36a1.2,1.2,0,0,0-1.21-1.2,1.2,1.2,0,0,0-1.21,1.2v2.37a30.62,30.62,0,0,1-5.76-.74,1.2,1.2,0,0,0-1.45.9,1.2,1.2,0,0,0,.91,1.44,32.79,32.79,0,0,0,7.31.83h.22a32.52,32.52,0,0,0,16-4.29l.11,0,.06-.05a32.73,32.73,0,0,0,11.79-11.71l.07-.09s0-.05,0-.08a32,32,0,0,0,4.34-16.12A32,32,0,0,0-232-2455Z"/></clipPath><clipPath id="clip-path-11"><path class="cls-1" d="M-270.92-2461.7h-6a1.2,1.2,0,0,0-1.21,1.2,1.2,1.2,0,0,0,1.21,1.2h6a1.2,1.2,0,0,0,1.21-1.2A1.2,1.2,0,0,0-270.92-2461.7Z"/></clipPath><clipPath id="clip-path-12"><path class="cls-1" d="M-270.92-2453.3H-283a1.2,1.2,0,0,0-1.21,1.2,1.2,1.2,0,0,0,1.21,1.2h12.07a1.2,1.2,0,0,0,1.21-1.2A1.2,1.2,0,0,0-270.92-2453.3Z"/></clipPath><clipPath id="clip-path-13"><path class="cls-1" d="M-270.92-2444.9H-289a1.2,1.2,0,0,0-1.21,1.2,1.2,1.2,0,0,0,1.21,1.2h18.1a1.2,1.2,0,0,0,1.21-1.2A1.2,1.2,0,0,0-270.92-2444.9Z"/></clipPath><clipPath id="clip-path-14"><path class="cls-1" d="M-270.92-2436.5h-22.93a1.2,1.2,0,0,0-1.21,1.2,1.2,1.2,0,0,0,1.21,1.2h22.93a1.2,1.2,0,0,0,1.21-1.2A1.2,1.2,0,0,0-270.92-2436.5Z"/></clipPath><clipPath id="clip-path-15"><path class="cls-1" d="M-270.92-2428.1h-15.69a1.2,1.2,0,0,0-1.21,1.2,1.2,1.2,0,0,0,1.21,1.2h15.69a1.2,1.2,0,0,0,1.21-1.2A1.2,1.2,0,0,0-270.92-2428.1Z"/></clipPath><clipPath id="clip-path-16"><path class="cls-1" d="M-270.92-2419.7h-8.45a1.2,1.2,0,0,0-1.21,1.2,1.2,1.2,0,0,0,1.21,1.2h8.45a1.2,1.2,0,0,0,1.21-1.2A1.2,1.2,0,0,0-270.92-2419.7Z"/></clipPath><clipPath id="clip-path-17"><path class="cls-1" d="M-236.76,41.18a1.87,1.87,0,0,1,.77-1.37l9.53-6.86-6.89,9.47a1.89,1.89,0,0,1-1.38.77,1.91,1.91,0,0,1-1.48-.54A1.87,1.87,0,0,1-236.76,41.18Zm2.22,4.41a4.3,4.3,0,0,0,3.15-1.75l11.3-15.53a1.2,1.2,0,0,0-.13-1.55,1.22,1.22,0,0,0-1.56-.12l-15.62,11.24A4.26,4.26,0,0,0-239.16,41a4.26,4.26,0,0,0,1.25,3.36,4.3,4.3,0,0,0,3,1.25Z"/></clipPath><clipPath id="clip-path-18"><path class="cls-1" d="M-236.76,7.23V3.6H-241a.6.6,0,0,1-.6-.6.6.6,0,0,1,.6-.6h10.86a.6.6,0,0,1,.6.6.6.6,0,0,1-.6.6h-4.22V7.23l-1.21,0h-.2l-.59,0Zm29.17,2.68,1.71,1.7-1.71,1.7-1.71-1.7Zm.08,13.58s0-.05,0-.08l-.05-.06a32.64,32.64,0,0,0-4.3-5.77L-209.3,15l1.71,1.7,5.12-5.09-5.12-5.09-5.12,5.09,1.71,1.7-2.59,2.58a32.76,32.76,0,0,0-5.8-4.28l-.06-.05-.08,0a32.49,32.49,0,0,0-12.4-4.08V6h1.81a3,3,0,0,0,3-3,3,3,0,0,0-3-3H-241a3,3,0,0,0-3,3,3,3,0,0,0,3,3h1.81V7.39a33.37,33.37,0,0,0-3.89.64A1.2,1.2,0,0,0-244,9.47a1.21,1.21,0,0,0,1.45.9,30.85,30.85,0,0,1,3.36-.57l1.29-.1,1.12-.07V12a1.2,1.2,0,0,0,1.21,1.2,1.2,1.2,0,0,0,1.21-1.2V9.64A30.07,30.07,0,0,1-221.73,13l-1.19,2a1.2,1.2,0,0,0,.44,1.64,1.2,1.2,0,0,0,.6.16,1.21,1.21,0,0,0,1-.6l1.19-2a30.32,30.32,0,0,1,9.38,9.33l-2.06,1.18a1.2,1.2,0,0,0-.44,1.64,1.21,1.21,0,0,0,1,.6,1.2,1.2,0,0,0,.6-.16l2.06-1.18a29.65,29.65,0,0,1,3.44,12.74H-208a1.2,1.2,0,0,0-1.21,1.2A1.2,1.2,0,0,0-208,40.8h2.38A29.65,29.65,0,0,1-209,53.54l-2.06-1.18a1.21,1.21,0,0,0-1.65.44,1.2,1.2,0,0,0,.44,1.64l2.06,1.18a30.32,30.32,0,0,1-9.38,9.33l-1.19-2a1.21,1.21,0,0,0-1.65-.44,1.19,1.19,0,0,0-.44,1.64l1.19,2a30.07,30.07,0,0,1-12.62,3.41V67.2a1.2,1.2,0,0,0-1.21-1.2,1.2,1.2,0,0,0-1.21,1.2v2.37a30.62,30.62,0,0,1-5.76-.74,1.2,1.2,0,0,0-1.45.9,1.2,1.2,0,0,0,.91,1.44,32.79,32.79,0,0,0,7.31.83h.22a32.52,32.52,0,0,0,16-4.29l.11,0,.06-.05a32.73,32.73,0,0,0,11.79-11.71l.07-.09s0-.05,0-.08a32,32,0,0,0,4.34-16.12A32,32,0,0,0-207.51,23.48Z"/></clipPath><clipPath id="clip-path-19"><path class="cls-1" d="M-246.42,16.8h-6a1.2,1.2,0,0,0-1.21,1.2,1.2,1.2,0,0,0,1.21,1.2h6a1.2,1.2,0,0,0,1.21-1.2A1.2,1.2,0,0,0-246.42,16.8Z"/></clipPath><clipPath id="clip-path-20"><path class="cls-1" d="M-246.42,25.2h-12.07a1.2,1.2,0,0,0-1.21,1.2,1.2,1.2,0,0,0,1.21,1.2h12.07a1.2,1.2,0,0,0,1.21-1.2A1.2,1.2,0,0,0-246.42,25.2Z"/></clipPath><clipPath id="clip-path-21"><path class="cls-1" d="M-246.42,33.6h-18.1a1.2,1.2,0,0,0-1.21,1.2,1.2,1.2,0,0,0,1.21,1.2h18.1a1.2,1.2,0,0,0,1.21-1.2A1.2,1.2,0,0,0-246.42,33.6Z"/></clipPath><clipPath id="clip-path-22"><path class="cls-1" d="M-246.42,42h-22.93a1.2,1.2,0,0,0-1.21,1.2,1.2,1.2,0,0,0,1.21,1.2h22.93a1.2,1.2,0,0,0,1.21-1.2A1.2,1.2,0,0,0-246.42,42Z"/></clipPath><clipPath id="clip-path-23"><path class="cls-1" d="M-246.42,50.4h-15.69a1.2,1.2,0,0,0-1.21,1.2,1.2,1.2,0,0,0,1.21,1.2h15.69a1.2,1.2,0,0,0,1.21-1.2A1.2,1.2,0,0,0-246.42,50.4Z"/></clipPath><clipPath id="clip-path-24"><path class="cls-1" d="M-246.42,58.8h-8.45a1.2,1.2,0,0,0-1.21,1.2,1.2,1.2,0,0,0,1.21,1.2h8.45a1.2,1.2,0,0,0,1.21-1.2A1.2,1.2,0,0,0-246.42,58.8Z"/></clipPath><clipPath id="clip-path-25"><path class="cls-1" d="M-236.8-57.92a2.2,2.2,0,0,1,.9-1.61l11.2-8.06-8.1,11.13a2.22,2.22,0,0,1-1.62.9,2.25,2.25,0,0,1-1.74-.64A2.2,2.2,0,0,1-236.8-57.92Zm2.6,5.18a5.05,5.05,0,0,0,3.7-2.06L-217.22-73a1.4,1.4,0,0,0-.15-1.82A1.43,1.43,0,0,0-219.2-75l-18.36,13.21a5,5,0,0,0-2.06,3.67,5,5,0,0,0,1.46,3.94,5.05,5.05,0,0,0,3.57,1.47Z"/></clipPath><clipPath id="clip-path-26"><path class="cls-1" d="M-236.81-97.81v-4.26h-5a.71.71,0,0,1-.71-.7.71.71,0,0,1,.71-.7H-229a.71.71,0,0,1,.71.7.71.71,0,0,1-.71.7h-5v4.26l-1.42,0h-.23l-.7,0Zm34.28,3.14,2,2-2,2-2-2Zm.1,16s0-.06,0-.09l-.06-.07a38.35,38.35,0,0,0-5.06-6.78l3-3,2,2,6-6-6-6-6,6,2,2-3,3a38.49,38.49,0,0,0-6.82-5l-.07-.06-.09,0a38.17,38.17,0,0,0-14.57-4.8v-1.68H-229a3.54,3.54,0,0,0,3.55-3.52A3.54,3.54,0,0,0-229-106.3h-12.76a3.54,3.54,0,0,0-3.55,3.52,3.54,3.54,0,0,0,3.55,3.52h2.13v1.63a39.21,39.21,0,0,0-4.57.75,1.41,1.41,0,0,0-1.06,1.69,1.42,1.42,0,0,0,1.7,1.06,36.25,36.25,0,0,1,3.94-.67l1.52-.12,1.31-.08v2.79a1.41,1.41,0,0,0,1.42,1.41A1.41,1.41,0,0,0-234-92.2V-95a35.33,35.33,0,0,1,14.83,4l-1.4,2.41a1.41,1.41,0,0,0,.52,1.93,1.41,1.41,0,0,0,.71.19,1.42,1.42,0,0,0,1.23-.7l1.39-2.4a35.63,35.63,0,0,1,11,11l-2.41,1.39a1.4,1.4,0,0,0-.52,1.93,1.42,1.42,0,0,0,1.23.7,1.41,1.41,0,0,0,.71-.19l2.42-1.39a34.84,34.84,0,0,1,4,15H-203a1.41,1.41,0,0,0-1.42,1.41A1.41,1.41,0,0,0-203-58.36h2.8a34.84,34.84,0,0,1-4,15l-2.42-1.39a1.42,1.42,0,0,0-1.94.52,1.41,1.41,0,0,0,.52,1.93l2.41,1.39a35.63,35.63,0,0,1-11,11l-1.39-2.4a1.42,1.42,0,0,0-1.94-.52,1.4,1.4,0,0,0-.52,1.93l1.4,2.41a35.33,35.33,0,0,1-14.83,4v-2.77a1.41,1.41,0,0,0-1.42-1.41,1.41,1.41,0,0,0-1.42,1.41v2.79a36,36,0,0,1-6.77-.87,1.41,1.41,0,0,0-1.7,1.06,1.41,1.41,0,0,0,1.06,1.69,38.53,38.53,0,0,0,8.59,1h.26a38.21,38.21,0,0,0,18.75-5l.13-.05.07-.06a38.46,38.46,0,0,0,13.86-13.76,1.34,1.34,0,0,0,.09-.11s0-.06,0-.09a37.63,37.63,0,0,0,5.1-18.94A37.65,37.65,0,0,0-202.43-78.71Z"/></clipPath><clipPath id="clip-path-27"><path class="cls-1" d="M-248.15-86.56h-7.09a1.41,1.41,0,0,0-1.42,1.41,1.41,1.41,0,0,0,1.42,1.41h7.09a1.41,1.41,0,0,0,1.42-1.41A1.41,1.41,0,0,0-248.15-86.56Z"/></clipPath><clipPath id="clip-path-28"><path class="cls-1" d="M-248.15-76.69h-14.18a1.41,1.41,0,0,0-1.42,1.41,1.41,1.41,0,0,0,1.42,1.41h14.18a1.41,1.41,0,0,0,1.42-1.41A1.41,1.41,0,0,0-248.15-76.69Z"/></clipPath><clipPath id="clip-path-29"><path class="cls-1" d="M-248.15-66.82h-21.27a1.41,1.41,0,0,0-1.42,1.41A1.41,1.41,0,0,0-269.42-64h21.27a1.41,1.41,0,0,0,1.42-1.41A1.41,1.41,0,0,0-248.15-66.82Z"/></clipPath><clipPath id="clip-path-30"><path class="cls-1" d="M-248.15-57h-26.94a1.41,1.41,0,0,0-1.42,1.41,1.41,1.41,0,0,0,1.42,1.41h26.94a1.41,1.41,0,0,0,1.42-1.41A1.41,1.41,0,0,0-248.15-57Z"/></clipPath><clipPath id="clip-path-31"><path class="cls-1" d="M-248.15-47.08h-18.43A1.41,1.41,0,0,0-268-45.67a1.41,1.41,0,0,0,1.42,1.41h18.43a1.41,1.41,0,0,0,1.42-1.41A1.41,1.41,0,0,0-248.15-47.08Z"/></clipPath><clipPath id="clip-path-32"><path class="cls-1" d="M-248.15-37.21h-9.93a1.41,1.41,0,0,0-1.42,1.41,1.41,1.41,0,0,0,1.42,1.41h9.93a1.41,1.41,0,0,0,1.42-1.41A1.41,1.41,0,0,0-248.15-37.21Z"/></clipPath></defs><title>bonifici</title><g id="bonifici"><path class="cls-2" d="M70.56,33.7H1.44A1.44,1.44,0,0,1,0,32.26v-6A1.44,1.44,0,0,1,.6,25L35.16.08a1.44,1.44,0,0,1,1.69,0L71.4,25a1.44,1.44,0,0,1,.6,1.17v6A1.44,1.44,0,0,1,70.56,33.7ZM2.88,30.82H69.12V26.95L36,3,2.88,26.95Z"/><path class="cls-2" d="M70.56,72.2H1.44A1.44,1.44,0,0,1,0,70.76V63.67a1.44,1.44,0,0,1,1.44-1.44H70.56A1.44,1.44,0,0,1,72,63.67v7.09A1.44,1.44,0,0,1,70.56,72.2ZM2.88,69.32H69.12V65.11H2.88Z"/><path class="cls-2" d="M30.68,65H23.59a1.44,1.44,0,0,1-1.44-1.44v-31a1.44,1.44,0,0,1,1.44-1.44h7.09a1.44,1.44,0,0,1,1.44,1.44v31A1.44,1.44,0,0,1,30.68,65ZM25,62.13h4.21V34H25Z"/><path class="cls-2" d="M48.41,65H41.32a1.44,1.44,0,0,1-1.44-1.44v-31a1.44,1.44,0,0,1,1.44-1.44h7.09a1.44,1.44,0,0,1,1.44,1.44v31A1.44,1.44,0,0,1,48.41,65Zm-5.65-2.88H47V34H42.76Z"/><path class="cls-2" d="M13.68,65H6.59a1.44,1.44,0,0,1-1.44-1.44v-31a1.44,1.44,0,0,1,1.44-1.44h7.09a1.44,1.44,0,0,1,1.44,1.44v31A1.44,1.44,0,0,1,13.68,65ZM8,62.13h4.21V34H8Z"/><path class="cls-2" d="M65.41,65H58.32a1.44,1.44,0,0,1-1.44-1.44v-31a1.44,1.44,0,0,1,1.44-1.44h7.09a1.44,1.44,0,0,1,1.44,1.44v31A1.44,1.44,0,0,1,65.41,65Zm-5.65-2.88H64V34H59.76Z"/><path class="cls-2" d="M36,22.8a5.87,5.87,0,1,1,5.87-5.87A5.88,5.88,0,0,1,36,22.8Zm0-8.86a3,3,0,1,0,3,3A3,3,0,0,0,36,13.94Z"/></g></svg>