<svg id="tutto_online" xmlns="http://www.w3.org/2000/svg" xmlns:xlink="http://www.w3.org/1999/xlink" viewBox="0 0 45 45"><defs><style>.cls-1{fill:none;clip-rule:evenodd;}.cls-2{fill:#00a5ff;}.cls-3{clip-path:url(#clip-path);}.cls-4{clip-path:url(#clip-path-2);}.cls-5{clip-path:url(#clip-path-3);}.cls-6{clip-path:url(#clip-path-4);}.cls-7{clip-path:url(#clip-path-5);}.cls-8{clip-path:url(#clip-path-6);}.cls-9{clip-path:url(#clip-path-7);}.cls-10{clip-path:url(#clip-path-8);}.cls-11{clip-path:url(#clip-path-9);}.cls-12{clip-path:url(#clip-path-10);}.cls-13{clip-path:url(#clip-path-11);}.cls-14{clip-path:url(#clip-path-12);}.cls-15{clip-path:url(#clip-path-13);}.cls-16{clip-path:url(#clip-path-14);}.cls-17{clip-path:url(#clip-path-15);}.cls-18{clip-path:url(#clip-path-16);}</style><clipPath id="clip-path"><path class="cls-1" d="M-683.62,27.68a1.87,1.87,0,0,1,.77-1.37l9.53-6.86-6.89,9.47a1.89,1.89,0,0,1-1.38.77,1.91,1.91,0,0,1-1.48-.54A1.87,1.87,0,0,1-683.62,27.68Zm2.22,4.41a4.3,4.3,0,0,0,3.15-1.75L-667,14.8a1.2,1.2,0,0,0-.13-1.55,1.22,1.22,0,0,0-1.56-.12l-15.62,11.24A4.26,4.26,0,0,0-686,27.49a4.26,4.26,0,0,0,1.25,3.36,4.3,4.3,0,0,0,3,1.25Z"/></clipPath><clipPath id="clip-path-2"><path class="cls-1" d="M-683.63-6.27V-9.9h-4.22a.6.6,0,0,1-.6-.6.6.6,0,0,1,.6-.6H-677a.6.6,0,0,1,.6.6.6.6,0,0,1-.6.6h-4.22v3.63l-1.21,0h-.2l-.59,0Zm29.17,2.68,1.71,1.7-1.71,1.7-1.71-1.7Zm.08,13.58s0-.05,0-.08l-.05-.06a32.64,32.64,0,0,0-4.3-5.77l2.59-2.58,1.71,1.7,5.12-5.09L-654.45-7l-5.12,5.09,1.71,1.7-2.59,2.58a32.76,32.76,0,0,0-5.8-4.28l-.06-.05-.08,0a32.49,32.49,0,0,0-12.4-4.08V-7.5H-677a3,3,0,0,0,3-3,3,3,0,0,0-3-3h-10.86a3,3,0,0,0-3,3,3,3,0,0,0,3,3H-686v1.39a33.37,33.37,0,0,0-3.89.64A1.2,1.2,0,0,0-690.84-4a1.21,1.21,0,0,0,1.45.9A30.85,30.85,0,0,1-686-3.7l1.29-.1,1.12-.07V-1.5a1.2,1.2,0,0,0,1.21,1.2,1.2,1.2,0,0,0,1.21-1.2V-3.86A30.07,30.07,0,0,1-668.59-.45l-1.19,2a1.2,1.2,0,0,0,.44,1.64,1.2,1.2,0,0,0,.6.16,1.21,1.21,0,0,0,1-.6l1.19-2a30.32,30.32,0,0,1,9.38,9.33l-2.06,1.18a1.2,1.2,0,0,0-.44,1.64,1.21,1.21,0,0,0,1,.6,1.2,1.2,0,0,0,.6-.16l2.06-1.18a29.65,29.65,0,0,1,3.44,12.74h-2.38a1.2,1.2,0,0,0-1.21,1.2,1.2,1.2,0,0,0,1.21,1.2h2.38A29.65,29.65,0,0,1-655.91,40L-658,38.86a1.21,1.21,0,0,0-1.65.44,1.2,1.2,0,0,0,.44,1.64l2.06,1.18a30.32,30.32,0,0,1-9.38,9.33l-1.19-2a1.21,1.21,0,0,0-1.65-.44,1.19,1.19,0,0,0-.44,1.64l1.19,2a30.07,30.07,0,0,1-12.62,3.41V53.7a1.2,1.2,0,0,0-1.21-1.2,1.2,1.2,0,0,0-1.21,1.2v2.37a30.62,30.62,0,0,1-5.76-.74,1.2,1.2,0,0,0-1.45.9,1.2,1.2,0,0,0,.91,1.44,32.79,32.79,0,0,0,7.31.83h.22a32.52,32.52,0,0,0,16-4.29l.11,0,.06-.05a32.73,32.73,0,0,0,11.79-11.71l.07-.09s0-.05,0-.08A32,32,0,0,0-650,26.1,32,32,0,0,0-654.37,10Z"/></clipPath><clipPath id="clip-path-3"><path class="cls-1" d="M-693.28,3.3h-6a1.2,1.2,0,0,0-1.21,1.2,1.2,1.2,0,0,0,1.21,1.2h6a1.2,1.2,0,0,0,1.21-1.2A1.2,1.2,0,0,0-693.28,3.3Z"/></clipPath><clipPath id="clip-path-4"><path class="cls-1" d="M-693.28,11.7h-12.07a1.2,1.2,0,0,0-1.21,1.2,1.2,1.2,0,0,0,1.21,1.2h12.07a1.2,1.2,0,0,0,1.21-1.2A1.2,1.2,0,0,0-693.28,11.7Z"/></clipPath><clipPath id="clip-path-5"><path class="cls-1" d="M-693.28,20.1h-18.1a1.2,1.2,0,0,0-1.21,1.2,1.2,1.2,0,0,0,1.21,1.2h18.1a1.2,1.2,0,0,0,1.21-1.2A1.2,1.2,0,0,0-693.28,20.1Z"/></clipPath><clipPath id="clip-path-6"><path class="cls-1" d="M-693.28,28.5h-22.93a1.2,1.2,0,0,0-1.21,1.2,1.2,1.2,0,0,0,1.21,1.2h22.93a1.2,1.2,0,0,0,1.21-1.2A1.2,1.2,0,0,0-693.28,28.5Z"/></clipPath><clipPath id="clip-path-7"><path class="cls-1" d="M-693.28,36.9H-709a1.2,1.2,0,0,0-1.21,1.2A1.2,1.2,0,0,0-709,39.3h15.69a1.2,1.2,0,0,0,1.21-1.2A1.2,1.2,0,0,0-693.28,36.9Z"/></clipPath><clipPath id="clip-path-8"><path class="cls-1" d="M-693.28,45.3h-8.45a1.2,1.2,0,0,0-1.21,1.2,1.2,1.2,0,0,0,1.21,1.2h8.45a1.2,1.2,0,0,0,1.21-1.2A1.2,1.2,0,0,0-693.28,45.3Z"/></clipPath><clipPath id="clip-path-9"><path class="cls-1" d="M-683.66-71.42a2.2,2.2,0,0,1,.9-1.61l11.2-8.06-8.1,11.13a2.22,2.22,0,0,1-1.62.9,2.25,2.25,0,0,1-1.74-.64A2.2,2.2,0,0,1-683.66-71.42Zm2.6,5.18a5.05,5.05,0,0,0,3.7-2.06l13.28-18.25a1.4,1.4,0,0,0-.15-1.82,1.43,1.43,0,0,0-1.83-.15l-18.36,13.21a5,5,0,0,0-2.06,3.67A5,5,0,0,0-685-67.69a5.05,5.05,0,0,0,3.57,1.47Z"/></clipPath><clipPath id="clip-path-10"><path class="cls-1" d="M-683.67-111.31v-4.26h-5a.71.71,0,0,1-.71-.7.71.71,0,0,1,.71-.7h12.76a.71.71,0,0,1,.71.7.71.71,0,0,1-.71.7h-5v4.26l-1.42,0h-.23l-.7,0Zm34.28,3.14,2,2-2,2-2-2Zm.1,16s0-.06,0-.09l-.06-.07a38.35,38.35,0,0,0-5.06-6.78l3-3,2,2,6-6-6-6-6,6,2,2-3,3a38.49,38.49,0,0,0-6.82-5l-.07-.06-.09,0a38.17,38.17,0,0,0-14.57-4.8v-1.68h2.13a3.54,3.54,0,0,0,3.55-3.52,3.54,3.54,0,0,0-3.55-3.52h-12.76a3.54,3.54,0,0,0-3.55,3.52,3.54,3.54,0,0,0,3.55,3.52h2.13v1.63a39.21,39.21,0,0,0-4.57.75,1.41,1.41,0,0,0-1.06,1.69,1.42,1.42,0,0,0,1.7,1.06,36.25,36.25,0,0,1,3.94-.67l1.52-.12,1.31-.08v2.79a1.41,1.41,0,0,0,1.42,1.41,1.41,1.41,0,0,0,1.42-1.41v-2.78a35.33,35.33,0,0,1,14.83,4l-1.4,2.41a1.41,1.41,0,0,0,.52,1.93,1.41,1.41,0,0,0,.71.19,1.42,1.42,0,0,0,1.23-.7l1.39-2.4a35.63,35.63,0,0,1,11,11l-2.41,1.39a1.4,1.4,0,0,0-.52,1.93,1.42,1.42,0,0,0,1.23.7,1.41,1.41,0,0,0,.71-.19l2.42-1.39a34.84,34.84,0,0,1,4,15h-2.8a1.41,1.41,0,0,0-1.42,1.41,1.41,1.41,0,0,0,1.42,1.41h2.8a34.84,34.84,0,0,1-4,15l-2.42-1.39a1.42,1.42,0,0,0-1.94.52,1.41,1.41,0,0,0,.52,1.93l2.41,1.39a35.63,35.63,0,0,1-11,11l-1.39-2.4a1.42,1.42,0,0,0-1.94-.52,1.4,1.4,0,0,0-.52,1.93l1.4,2.41a35.33,35.33,0,0,1-14.83,4v-2.77a1.41,1.41,0,0,0-1.42-1.41,1.41,1.41,0,0,0-1.42,1.41v2.79a36,36,0,0,1-6.77-.87,1.41,1.41,0,0,0-1.7,1.06,1.41,1.41,0,0,0,1.06,1.69,38.53,38.53,0,0,0,8.59,1h.26a38.21,38.21,0,0,0,18.75-5l.13-.05.07-.06a38.46,38.46,0,0,0,13.86-13.76,1.34,1.34,0,0,0,.09-.11s0-.06,0-.09a37.63,37.63,0,0,0,5.1-18.94A37.65,37.65,0,0,0-649.3-92.21Z"/></clipPath><clipPath id="clip-path-11"><path class="cls-1" d="M-695-100.06h-7.09a1.41,1.41,0,0,0-1.42,1.41,1.41,1.41,0,0,0,1.42,1.41H-695a1.41,1.41,0,0,0,1.42-1.41A1.41,1.41,0,0,0-695-100.06Z"/></clipPath><clipPath id="clip-path-12"><path class="cls-1" d="M-695-90.19H-709.2a1.41,1.41,0,0,0-1.42,1.41,1.41,1.41,0,0,0,1.42,1.41H-695a1.41,1.41,0,0,0,1.42-1.41A1.41,1.41,0,0,0-695-90.19Z"/></clipPath><clipPath id="clip-path-13"><path class="cls-1" d="M-695-80.32h-21.27a1.41,1.41,0,0,0-1.42,1.41,1.41,1.41,0,0,0,1.42,1.41H-695a1.41,1.41,0,0,0,1.42-1.41A1.41,1.41,0,0,0-695-80.32Z"/></clipPath><clipPath id="clip-path-14"><path class="cls-1" d="M-695-70.45H-722A1.41,1.41,0,0,0-723.38-69,1.41,1.41,0,0,0-722-67.63H-695A1.41,1.41,0,0,0-693.6-69,1.41,1.41,0,0,0-695-70.45Z"/></clipPath><clipPath id="clip-path-15"><path class="cls-1" d="M-695-60.58h-18.43a1.41,1.41,0,0,0-1.42,1.41,1.41,1.41,0,0,0,1.42,1.41H-695a1.41,1.41,0,0,0,1.42-1.41A1.41,1.41,0,0,0-695-60.58Z"/></clipPath><clipPath id="clip-path-16"><path class="cls-1" d="M-695-50.71h-9.93a1.41,1.41,0,0,0-1.42,1.41,1.41,1.41,0,0,0,1.42,1.41H-695a1.41,1.41,0,0,0,1.42-1.41A1.41,1.41,0,0,0-695-50.71Z"/></clipPath></defs><title>tutto_online</title><path class="cls-2" d="M28,27H24.92V21.89a8.23,8.23,0,0,0-2.39-5.83,8,8,0,0,0-5.74-2.4V10.6a11.07,11.07,0,0,1,7.92,3.31,11.28,11.28,0,0,1,3.28,8Z"/><path class="cls-2" d="M16.78,45a11,11,0,0,1-7.62-3,11.38,11.38,0,0,1-3.58-8.27V21.89A11.28,11.28,0,0,1,16.72,10.6h0a1.64,1.64,0,0,1,1.6,1.6V22.34h8A1.65,1.65,0,0,1,28,24v9.38A11.46,11.46,0,0,1,17.52,45ZM15.26,13.81a8.23,8.23,0,0,0-6.6,8.08V33.71a8.29,8.29,0,0,0,2.61,6,8,8,0,0,0,6.06,2.18,8.38,8.38,0,0,0,7.6-8.54v-8H16.79a1.53,1.53,0,0,1-1.53-1.53Z"/><path class="cls-2" d="M21.74,9.37a1.53,1.53,0,0,1-1.53-1.53V1.53a1.53,1.53,0,0,1,3.07,0V7.84A1.53,1.53,0,0,1,21.74,9.37Z"/><path class="cls-2" d="M37.87,20.35H31.63a1.53,1.53,0,0,1,0-3.07h6.25a1.53,1.53,0,0,1,0,3.07Z"/><path class="cls-2" d="M28.6,13.29a1.53,1.53,0,0,1-1.09-2.61l5.78-5.84A1.53,1.53,0,1,1,35.47,7l-5.78,5.84A1.53,1.53,0,0,1,28.6,13.29Z"/></svg>