<?xml version="1.0" encoding="UTF-8"?>
<svg width="74px" height="74px" viewBox="0 0 74 74" version="1.1" xmlns="http://www.w3.org/2000/svg" xmlns:xlink="http://www.w3.org/1999/xlink">
    <!-- Generator: Sketch 47.1 (45422) - http://www.bohemiancoding.com/sketch -->
    <title>Page 1</title>
    <desc>Created with Sketch.</desc>
    <defs></defs>
    <g id="Feature" stroke="none" stroke-width="1" fill="none" fill-rule="evenodd">
        <g id="Deals" transform="translate(-203.000000, -1605.000000)" fill-rule="nonzero" fill="#00A5FF">
            <g id="Group-11" transform="translate(180.000000, 1581.000000)">
                <g id="icon_obiettivi_tab" transform="translate(23.000000, 24.000000)">
                    <g id="Page-1">
                        <path d="M57.5055797,16.2511752 C69.1738168,27.9194089 69.1738168,46.837343 57.5055799,58.5055799 C45.837343,70.1738168 26.9194089,70.1738168 15.2511752,58.5055797 C3.58294159,46.8373428 3.58294159,27.919409 15.2511753,16.2511753 C26.919409,4.58294159 45.8373428,4.58294159 57.5055797,16.2511752 Z M55.3842597,18.3724958 C44.8875957,7.87583476 27.8691565,7.87583476 17.3724956,18.3724956 C6.87583476,28.8691565 6.87583476,45.8875957 17.3724958,56.3842597 C27.8691566,66.8809235 44.8875955,66.8809235 55.3842595,56.3842595 C65.8809235,45.8875955 65.8809235,28.8691566 55.3842597,18.3724958 Z" id="Stroke-3"></path>
                        <path d="M34.5,2 L34.5,14.6126126 C34.5,15.4410397 35.1715729,16.1126126 36,16.1126126 C36.8284271,16.1126126 37.5,15.4410397 37.5,14.6126126 L37.5,2 C37.5,1.17157288 36.8284271,0.5 36,0.5 C35.1715729,0.5 34.5,1.17157288 34.5,2 Z" id="Stroke-5"></path>
                        <path d="M71.6126126,35.5 L59,35.5 C58.1715729,35.5 57.5,36.1715729 57.5,37 C57.5,37.8284271 58.1715729,38.5 59,38.5 L71.6126126,38.5 C72.4410397,38.5 73.1126126,37.8284271 73.1126126,37 C73.1126126,36.1715729 72.4410397,35.5 71.6126126,35.5 Z" id="Stroke-7"></path>
                        <path d="M37.1846847,72.3693694 L37.1846847,59.7567568 C37.1846847,58.9283296 36.5131118,58.2567568 35.6846847,58.2567568 C34.8562576,58.2567568 34.1846847,58.9283296 34.1846847,59.7567568 L34.1846847,72.3693694 C34.1846847,73.1977965 34.8562576,73.8693694 35.6846847,73.8693694 C36.5131118,73.8693694 37.1846847,73.1977965 37.1846847,72.3693694 Z" id="Stroke-9"></path>
                        <path d="M2,38.5 L14.6126126,38.5 C15.4410397,38.5 16.1126126,37.8284271 16.1126126,37 C16.1126126,36.1715729 15.4410397,35.5 14.6126126,35.5 L2,35.5 C1.17157288,35.5 0.5,36.1715729 0.5,37 C0.5,37.8284271 1.17157288,38.5 2,38.5 Z" id="Stroke-11"></path>
                        <path d="M38.7470748,39.7470477 C39.9473806,38.5467111 39.9473806,36.6005862 38.7470748,35.4002497 C37.5467111,34.1999168 35.6005862,34.1999168 34.4002497,35.4002226 C33.1999168,36.6005862 33.1999168,38.5467111 34.4002226,39.7470477 C35.6005862,40.9473806 37.5467111,40.9473806 38.7470748,39.7470477 Z M40.8683952,41.868368 C38.4964376,44.2402648 34.6508597,44.2402648 32.2789022,41.868368 C29.9070326,39.4964376 29.9070326,35.6508597 32.2789294,33.2789022 C34.6508597,30.9070326 38.4964376,30.9070326 40.8683952,33.2789294 C43.2402648,35.6508597 43.2402648,39.4964376 40.8683952,41.868368 Z" id="Stroke-13"></path>
                    </g>
                </g>
            </g>
        </g>
    </g>
</svg>