<svg xmlns="http://www.w3.org/2000/svg" xmlns:xlink="http://www.w3.org/1999/xlink" viewBox="0 0 400 400"><defs><style>.cls-1,.cls-2{fill:none;}.cls-2,.cls-3,.cls-4{clip-rule:evenodd;}.cls-3,.cls-49,.cls-52{fill:#fca664;}.cls-4,.cls-54,.cls-7{fill:#ffddba;}.cls-5{clip-path:url(#clip-path);}.cls-6{clip-path:url(#clip-path-2);}.cls-8{fill:#e9e3d7;}.cls-9{fill:#ffb077;}.cls-10{fill:#ffc296;}.cls-11{fill:#bab7cc;}.cls-12{fill:#fff;}.cls-13{fill:#00a5ff;}.cls-14{fill:#b9e6ff;}.cls-15{fill:#fcfcfc;}.cls-16{fill:#736d91;}.cls-17{fill:#fefaf2;}.cls-18{fill:#201849;}.cls-19{clip-path:url(#clip-path-3);}.cls-20{fill:#ffb178;}.cls-21{fill:#ffb179;}.cls-22{fill:#ffb27a;}.cls-23{fill:#ffb27b;}.cls-24{fill:#ffb37c;}.cls-25{fill:#ffb47d;}.cls-26{fill:#ffb47e;}.cls-27{fill:#ffb57f;}.cls-28{fill:#ffb580;}.cls-29{fill:#ffb681;}.cls-30{fill:#ffb782;}.cls-31{fill:#ffb783;}.cls-32{fill:#ffb884;}.cls-33{fill:#ffb885;}.cls-34{fill:#ffb987;}.cls-35{fill:#ffba88;}.cls-36{fill:#ffba89;}.cls-37{fill:#ffbb8a;}.cls-38{fill:#ffbb8b;}.cls-39{fill:#ffbc8c;}.cls-40{fill:#ffbd8d;}.cls-41{fill:#ffbd8e;}.cls-42{fill:#ffbe8f;}.cls-43{fill:#ffbe90;}.cls-44{fill:#ffbf91;}.cls-45{fill:#ffc092;}.cls-46{fill:#ffc093;}.cls-47{fill:#ffc194;}.cls-48{fill:#ffc195;}.cls-50{clip-path:url(#clip-path-4);}.cls-51{clip-path:url(#clip-path-5);}.cls-52,.cls-54{fill-rule:evenodd;}.cls-53{clip-path:url(#clip-path-6);}.cls-55{clip-path:url(#clip-path-7);}</style><clipPath id="clip-path"><ellipse class="cls-1" cx="156.79" cy="309.79" rx="4.8" ry="4.8" transform="translate(-171.19 195.86) rotate(-44)"/></clipPath><clipPath id="clip-path-2"><rect class="cls-1" x="-909" y="-2307" width="1440" height="5185"/></clipPath><clipPath id="clip-path-3"><ellipse class="cls-1" cx="243.06" cy="313.83" rx="9.44" ry="9.46"/></clipPath><clipPath id="clip-path-4"><path class="cls-2" d="M959.25,618.69a4.71,4.71,0,0,1,6.47,1.49l60.47,96.63a4.67,4.67,0,0,1-1.5,6.45l-58.55,36.38a4.71,4.71,0,0,1-6.47-1.49L899.2,661.52a4.67,4.67,0,0,1,1.5-6.45Z"/></clipPath><clipPath id="clip-path-5"><path class="cls-2" d="M948,639.1a2.69,2.69,0,0,1,3.7.85l6,9.63a2.67,2.67,0,0,1-.86,3.68L949.17,658a2.69,2.69,0,0,1-3.7-.85l-6-9.63a2.67,2.67,0,0,1,.86-3.68Z"/></clipPath><clipPath id="clip-path-6"><path class="cls-3" d="M964.34,741.38A8.48,8.48,0,1,1,967,729.74a8.49,8.49,0,0,1-2.67,11.64"/></clipPath><clipPath id="clip-path-7"><path class="cls-4" d="M973,739.39a8.5,8.5,0,0,0-4.88-3.67,8.66,8.66,0,0,0-1.21-.25l.91,1.45a8.62,8.62,0,0,1-.42,1l-1.6-2.55a8.48,8.48,0,0,0-1,.06l2.11,3.38a8.35,8.35,0,0,1-.57.78l-2.49-4a8.36,8.36,0,0,0-.89.26l2.76,4.4a8.46,8.46,0,0,1-3.93,2.15l-2.49-4a8.43,8.43,0,0,0-.57.78l2.11,3.38a8.46,8.46,0,0,1-1,.06l-1.59-2.55a8.49,8.49,0,0,0-.42,1l.91,1.45a8.52,8.52,0,0,1-1.21-.25,8.46,8.46,0,1,0,15.5-2.93"/></clipPath></defs><title>imposta_obiettivi</title><g id="controllo_spese"><g class="cls-5"><g class="cls-6"><rect class="cls-7" x="146.99" y="299.98" width="19.59" height="19.61" transform="translate(-171.19 195.86) rotate(-44)"/></g></g></g><g id="imposta_obiettivi"><path class="cls-8" d="M319,389.5H81a1,1,0,0,1,0-2H319a1,1,0,1,1,0,2Z"/><path class="cls-9" d="M218.31,247.42q-.41.44-.8.91l-.3.37,1.68-1.88.16-.16a24.69,24.69,0,0,1,17.46-7.5,2.84,2.84,0,0,1,2.71,3v25.26L214.3,253.09a27.84,27.84,0,0,1,2.31-3.61q.29-.4.6-.79"/><path class="cls-9" d="M239.22,268.38a1,1,0,0,1-.5-.13L213.8,254a1,1,0,0,1-.38-1.34,29.18,29.18,0,0,1,2.39-3.73c.2-.27.41-.54.62-.81h0l.31-.37c.27-.32.55-.64.84-.95l.15-.13.56-.61a25.62,25.62,0,0,1,18.22-7.83,3.85,3.85,0,0,1,3.71,4v25.26a1,1,0,0,1-1,1Zm-23.57-15.66,22.57,12.93V242.12a1.85,1.85,0,0,0-1.71-2,23.59,23.59,0,0,0-16.75,7.2l-.17.16L218,249.34q-.29.36-.56.73A27.67,27.67,0,0,0,215.65,252.71Z"/><path class="cls-10" d="M128.74,325.81a11.88,11.88,0,0,1-9.57-4.8,11.59,11.59,0,0,1-.85-1.33,11.88,11.88,0,0,1-9.1-4.8,11.77,11.77,0,0,1-.95-12.49,1,1,0,0,1,1.77.94,9.77,9.77,0,0,0,.79,10.37,9.88,9.88,0,0,0,6.59,3.91,11.72,11.72,0,0,1-.47-2.17c0-.14,0-.29,0-.44,0-.31,0-.6,0-.9,0,0,0-.15,0-.17a4.85,4.85,0,0,1,2-3.77,5,5,0,0,1,6.89,1,4.89,4.89,0,0,1-1.05,6.87l-.16.12-.12.08a10.58,10.58,0,0,1-1.4.65l-.67.23a12.08,12.08,0,0,1-1.79.42l.19.27a9.92,9.92,0,0,0,13.8,2.09,1,1,0,0,1,1.18,1.61A11.85,11.85,0,0,1,128.74,325.81Zm-6.95-14.62a2.93,2.93,0,0,0-1.74.57,2.89,2.89,0,0,0-1.19,2.25s0,.12,0,.14c0,.17,0,.41,0,.65s0,.25,0,.38a9.77,9.77,0,0,0,.64,2.48,9.93,9.93,0,0,0,2.2-.43l.56-.2a8.59,8.59,0,0,0,1.08-.49l.11-.08a2.89,2.89,0,0,0,.64-4.07A2.94,2.94,0,0,0,121.79,311.18Z"/><path class="cls-8" d="M206.83,315.9c-16.87,0-34.73-8.51-39.47-25.25a62.91,62.91,0,0,1-1.57-8.43c-.62-4.44-1.21-8.64-3.18-12.36-9.1-17.12-25-9.34-39.11-2.48a106.56,106.56,0,0,1-10.64,4.75c-9.32,3.28-19.81.78-27.36-6.51a28.13,28.13,0,0,1-7.55-28.72h0c.56-1.8,1.31-3.6,2-5.33,1.76-4.2,3.42-8.16,2.64-12.28-1.3-6.93-8.74-10.43-15.3-13.52l-.55-.26c-13.36-6.3-23.46-14.64-30-24.81-7.7-12-9.92-26.83-5.79-38.8,4.66-13.49,17.71-22.79,30.37-21.61,4.9.45,9.51,2.31,14,4.11,2.51,1,5.11,2.06,7.7,2.83,6.33,1.88,15.27,1.92,19.63-4.14a21.88,21.88,0,0,0,3.9-12.53c0-34.32,26.12-43.22,49.16-51.08,3.23-1.1,6.56-2.24,9.71-3.41,3.45-1.28,7.48-3,11.75-4.9,11.49-5,24.51-10.68,34.4-10.85,4.27-.07,10.37.31,14.14,4.49,6.34,7,1.47,18.19-.92,22.67l-.89,1.66c-3.39,6.27-6.89,12.74-5.11,19.16a5.08,5.08,0,0,0,2.58,3.34c4.88,2.56,15.17-1,23.44-3.85,3-1,5.79-2,8.13-2.62,1.24-.33,2.5-.68,3.77-1,9.76-2.71,20.82-5.78,29.38.23,4.92,3.45,7.82,9,8.62,16.46s-.68,15-2.07,20a78,78,0,0,1-4.5,10.32c-4,8.32-10.09,20.88-7,24.2,2,2.15,4.85,3.18,8.49,4.08,4.74,1.17,9.49,1.2,14.52,1.24,1.68,0,3.36,0,5,.08,2.78.09,5.63.06,8.38,0,5.83-.06,11.85-.13,17.72,1,9.67,1.78,18.1,9,23.72,20.27a67.21,67.21,0,0,1,6.59,33.63c-.79,11.43-7.23,22.42-17.22,29.41-8.7,6.08-18.85,8.08-27.87,5.48-5.21-1.5-9.26-4.25-13.18-6.91-5.83-4-10.87-7.38-18.32-5.62-8.49,2-13.68,10.23-16,14.95a105.74,105.74,0,0,0-4.91,12.5c-1.11,3.22-2.26,6.56-3.63,9.75-8.79,20.48-27.43,35.74-48.62,39.84A47.61,47.61,0,0,1,206.83,315.9Zm-59.65-58.38c6.6,0,12.67,2.91,17.19,11.41,2.14,4,2.78,8.6,3.4,13a61.61,61.61,0,0,0,1.51,8.16c5.29,18.69,28.09,26.48,46.19,23,20.56-4,38.63-18.79,47.17-38.67,1.34-3.12,2.48-6.42,3.58-9.61a107.43,107.43,0,0,1,5-12.74c2.5-5,8.07-13.81,17.35-16,8.31-2,13.94,1.86,19.91,5.91,3.79,2.57,7.7,5.23,12.61,6.64,8.43,2.43,18,.54,26.17-5.2,9.5-6.65,15.62-17.08,16.37-27.91,1.54-22.18-9.62-48.28-28.67-51.79-5.68-1-11.6-1-17.33-.92-2.77,0-5.64.06-8.46,0-1.67-.06-3.33-.07-5-.08-4.93,0-10-.07-15-1.29-3.45-.85-7-2-9.47-4.65-4.06-4.32,1.61-16.08,6.62-26.44a77.72,77.72,0,0,0,4.37-10c6.49-23.51-2.77-32.19-5.77-34.29-7.79-5.46-17.91-2.65-27.7.06-1.28.35-2.54.71-3.79,1-2.26.6-5,1.56-8,2.57-9.08,3.14-19.37,6.7-25,3.73a7.07,7.07,0,0,1-3.58-4.58c-2-7.19,1.87-14.34,5.28-20.65l.89-1.65c1.71-3.21,6.85-14.15,1.21-20.39-3.23-3.57-8.76-3.9-12.62-3.83C202.11,42.5,189.29,48.09,178,53c-4.29,1.87-8.35,3.64-11.85,4.94-3.17,1.18-6.52,2.32-9.76,3.42-23.5,8-47.81,16.31-47.81,49.19a23.91,23.91,0,0,1-4.27,13.7c-3.25,4.52-10.7,8.19-21.82,4.89-2.69-.8-5.33-1.86-7.88-2.89-4.52-1.82-8.8-3.55-13.4-4-11.78-1.09-23.93,7.63-28.3,20.27-3.93,11.4-1.8,25.6,5.58,37.06,6.34,9.85,16.15,17.95,29.17,24.08l.55.26c6.65,3.13,14.92,7,16.41,15,.88,4.7-1,9.13-2.76,13.42-.71,1.69-1.44,3.44-2,5.15h0a26.14,26.14,0,0,0,7,26.68c7,6.76,16.7,9.08,25.31,6.06a105,105,0,0,0,10.42-4.66C130.38,261.81,139.17,257.52,147.19,257.52Z"/><path class="cls-11" d="M201.41,190.38a1,1,0,0,1-1-1v-8.93a1,1,0,1,1,2,0v8.93A1,1,0,0,1,201.41,190.38Z"/><path class="cls-11" d="M207.14,181.25a1,1,0,0,1-1-1v-9.31a1,1,0,0,1,2,0v9.31A1,1,0,0,1,207.14,181.25Z"/><path class="cls-11" d="M212.88,187.33a1,1,0,0,1-1-1V178a1,1,0,0,1,2,0v8.36A1,1,0,0,1,212.88,187.33Z"/><polygon class="cls-12" points="321.56 260.48 314.85 259.32 315.62 254.48 322.32 255.63 321.56 260.48"/><path class="cls-13" d="M321.56,261h-.08l-6.71-1.16a.5.5,0,0,1-.41-.57l.77-4.84a.5.5,0,0,1,.58-.42l6.71,1.16a.5.5,0,0,1,.41.57l-.77,4.84a.5.5,0,0,1-.49.42Zm-6.14-2.07,5.72,1,.61-3.85-5.72-1Z"/><polygon class="cls-12" points="349.11 265.23 342.4 264.07 343.17 259.32 349.88 260.48 349.11 265.23"/><path class="cls-13" d="M349.11,265.73H349l-6.71-1.16a.5.5,0,0,1-.41-.57l.77-4.75a.5.5,0,0,1,.2-.33.51.51,0,0,1,.38-.09L350,260a.5.5,0,0,1,.41.57l-.77,4.75a.5.5,0,0,1-.2.33A.51.51,0,0,1,349.11,265.73ZM343,263.66l5.73,1,.61-3.77-5.73-1Z"/><polygon class="cls-12" points="311.46 253.72 317.93 216.67 360.13 223.96 353.67 261.01 311.46 253.72"/><path class="cls-13" d="M353.67,261.51h-.09l-42.21-7.28A.51.51,0,0,1,311,254a.5.5,0,0,1-.08-.37l6.47-37a.5.5,0,0,1,.58-.41l42.21,7.28a.51.51,0,0,1,.32.21.5.5,0,0,1,.08.37l-6.47,37A.5.5,0,0,1,353.67,261.51ZM312,253.32l41.22,7.11,6.29-36.07-41.22-7.11Z"/><polygon class="cls-12" points="349.17 254.68 317.84 249.28 322.42 223 353.76 228.4 349.17 254.68"/><path class="cls-13" d="M349.17,255.18h-.09l-31.33-5.41a.51.51,0,0,1-.32-.21.5.5,0,0,1-.08-.37l4.58-26.28a.5.5,0,0,1,.58-.41l31.33,5.41a.51.51,0,0,1,.32.21.5.5,0,0,1,.08.37l-4.59,26.28A.5.5,0,0,1,349.17,255.18Zm-30.75-6.31,30.34,5.24,4.41-25.29-30.35-5.24Z"/><path class="cls-14" d="M338.16,242.12a4.08,4.08,0,0,1-5.66-1,4,4,0,0,1,1-5.62,4.08,4.08,0,0,1,5.66,1A4,4,0,0,1,338.16,242.12Z"/><path class="cls-13" d="M335.83,243.36a4.56,4.56,0,0,1-3.73-1.92,4.52,4.52,0,0,1,1.1-6.32,4.58,4.58,0,0,1,6.35,1.1,4.52,4.52,0,0,1-1.1,6.32A4.56,4.56,0,0,1,335.83,243.36Zm0-8.07a3.55,3.55,0,0,0-2,.64,3.52,3.52,0,0,0-.86,4.93,3.58,3.58,0,0,0,5,.86,3.52,3.52,0,0,0,.86-4.93A3.57,3.57,0,0,0,335.82,235.29Z"/><line class="cls-14" x1="332.5" y1="241.15" x2="329.72" y2="243.1"/><path class="cls-13" d="M329.72,243.6a.5.5,0,0,1-.29-.91l2.79-2a.5.5,0,0,1,.57.82l-2.79,2A.5.5,0,0,1,329.72,243.6Z"/><line class="cls-14" x1="341.88" y1="234.58" x2="339.14" y2="236.5"/><path class="cls-13" d="M339.14,237a.5.5,0,0,1-.29-.91l2.74-1.92a.5.5,0,0,1,.57.82l-2.74,1.92A.5.5,0,0,1,339.14,237Z"/><line class="cls-14" x1="331.52" y1="233.01" x2="333.48" y2="235.52"/><path class="cls-13" d="M333.48,236a.5.5,0,0,1-.39-.19l-2-2.52a.5.5,0,1,1,.79-.62l2,2.52a.5.5,0,0,1-.39.81Z"/><line class="cls-14" x1="338.16" y1="242.12" x2="339.88" y2="244.81"/><path class="cls-13" d="M339.88,245.31a.5.5,0,0,1-.42-.23l-1.72-2.69a.5.5,0,1,1,.84-.54l1.72,2.69a.5.5,0,0,1-.42.77Z"/><path class="cls-12" d="M158.18,73.78l19.2,4.66,3.5.85a3.32,3.32,0,0,0,4-2.42l.77-3.15,10.89-44.37.93-3.79a3.3,3.3,0,0,0-2.44-4L192.7,21l-20.06-4.87-2.19-.53a3.32,3.32,0,0,0-4,2.42l-.88,3.58-11,45-.67,2.72a3.3,3.3,0,0,0,2.44,4Z"/><path class="cls-13" d="M181.67,79.88a3.82,3.82,0,0,1-.91-.11l-22.7-5.51h0l-1.91-.46a3.8,3.8,0,0,1-2.8-4.59l12.6-51.31a3.82,3.82,0,0,1,4.61-2.79l24.61,6a3.8,3.8,0,0,1,2.8,4.59L185.38,77A3.82,3.82,0,0,1,181.67,79.88ZM158.3,73.29,181,78.8a2.82,2.82,0,0,0,3.41-2.06L197,25.43a2.77,2.77,0,0,0-.33-2.11,2.8,2.8,0,0,0-1.75-1.27l-24.61-6a2.82,2.82,0,0,0-3.41,2.06l-12.6,51.31a2.77,2.77,0,0,0,.33,2.11,2.8,2.8,0,0,0,1.74,1.27Z"/><path class="cls-14" d="M172.32,71.89a2.62,2.62,0,1,1-1.93-3.15A2.62,2.62,0,0,1,172.32,71.89Z"/><path class="cls-13" d="M169.77,74.38a3.14,3.14,0,0,1-.74-.09A3.11,3.11,0,1,1,172.8,72h0A3.12,3.12,0,0,1,169.77,74.38Zm0-5.22a2.12,2.12,0,0,0-2.06,1.61,2.08,2.08,0,0,0,.25,1.59,2.13,2.13,0,0,0,3.88-.59h0a2.08,2.08,0,0,0-.24-1.59,2.13,2.13,0,0,0-1.82-1Z"/><path class="cls-12" d="M193.43,27.7v.11L183.23,69.27l-24.4-5.92,10.08-41.08.34-1.37a1.9,1.9,0,0,1,2.29-1.4l1.48.36,18.33,4.45.92.22a1.89,1.89,0,0,1,1.38,2.29Z"/><path class="cls-13" d="M183.23,69.77h-.12l-24.4-5.92a.5.5,0,0,1-.37-.6l10.42-42.44A2.4,2.4,0,0,1,171.66,19l20.73,5a2.36,2.36,0,0,1,1.47,1.07,2.39,2.39,0,0,1,.28,1.82L183.72,69.39A.5.5,0,0,1,183.23,69.77ZM159.44,63l23.42,5.68,10.06-41,0-.11.21-.87a1.39,1.39,0,0,0-.16-1.06,1.36,1.36,0,0,0-.85-.62l-20.73-5a1.4,1.4,0,0,0-1.68,1Z"/><path class="cls-13" d="M283.29,77h-.12l-13.46-3.18a.5.5,0,0,1-.35-.67c3.85-9.64,7.69-19.77,10.77-27.92,1.33-3.53,2.53-6.68,3.51-9.24a.5.5,0,0,1,.58-.31l2.76.65a.5.5,0,0,1,.38.53c-.25,2.83-.59,6.32-1,10.24-.82,8.57-1.84,19.24-2.63,29.45a.5.5,0,0,1-.5.46Zm-12.78-4,12.32,2.92c.78-10,1.78-20.48,2.58-28.89.36-3.72.67-7,.92-9.8l-1.91-.45c-1,2.48-2.09,5.49-3.35,8.83C278,53.59,274.3,63.51,270.51,73Z"/><path class="cls-12" d="M286.81,118.18l-8.75-2.07c.88-6.4-2.49-12.34-8-13.63S259,105,256.93,111.1L248.19,109a126.19,126.19,0,0,0,8.91-14.16l28.07,6.65A136.86,136.86,0,0,0,286.81,118.18Z"/><path class="cls-13" d="M286.81,118.68h-.12l-8.75-2.07a.5.5,0,0,1-.38-.55c.86-6.23-2.4-11.85-7.58-13.08s-10.59,2.34-12.57,8.3a.5.5,0,0,1-.59.33l-8.75-2.07a.5.5,0,0,1-.29-.79,127.26,127.26,0,0,0,8.87-14.1.5.5,0,0,1,.55-.24L285.28,101a.5.5,0,0,1,.38.46,138.39,138.39,0,0,0,1.63,16.6.5.5,0,0,1-.49.59Zm-8.2-3,7.58,1.79a142.08,142.08,0,0,1-1.5-15.6l-27.34-6.47A131.14,131.14,0,0,1,249,108.72l7.57,1.79c2.26-6.19,8-9.85,13.6-8.53S279.33,109.16,278.61,115.72Z"/><path class="cls-12" d="M284.53,81c.21,4.4.87,9.58,1.06,13.65l-7.38-1.75c.21-3-1.37-6.74-4.16-7.4s-5.84,1.94-7,4.76l-7.3-1.73c1.94-3.5,4.76-7.75,6.88-11.54.06-.11.12-.07.18-.18l1.31.29,15,3.55Z"/><path class="cls-13" d="M285.6,95.13h-.12l-7.38-1.75a.5.5,0,0,1-.38-.52c.19-2.84-1.28-6.29-3.78-6.88s-5.34,1.83-6.42,4.46a.5.5,0,0,1-.58.3L259.65,89a.5.5,0,0,1-.34-.28.5.5,0,0,1,0-.44c1-1.75,2.14-3.65,3.37-5.66s2.45-4,3.51-5.88a.7.7,0,0,1,.23-.25.51.51,0,0,1,.5-.18l1.31.29,16.41,3.9A.5.5,0,0,1,285,81c.11,2.22.33,4.66.55,7s.42,4.62.52,6.64a.5.5,0,0,1-.5.52Zm-6.86-2.64,6.33,1.5c-.1-1.82-.29-3.83-.48-5.93s-.42-4.55-.53-6.69l-1-.25-16-3.78c-1.05,1.88-2.27,3.87-3.46,5.79s-2.13,3.48-3,5l6.25,1.48c1.34-2.85,4.44-5.37,7.4-4.66S278.79,89.34,278.73,92.49Z"/><polygon class="cls-14" points="286.91 77.21 284.7 80.96 266.61 76.68 266.29 72.33 286.91 77.21"/><path class="cls-13" d="M284.7,81.46h-.12l-18.1-4.28a.5.5,0,0,1-.38-.45l-.32-4.35A.5.5,0,0,1,266,72a.49.49,0,0,1,.44-.11L287,76.73a.5.5,0,0,1,.32.74l-2.21,3.75A.5.5,0,0,1,284.7,81.46Zm-17.62-5.19,17.38,4.11,1.68-2.85L266.84,73Z"/><polygon class="cls-12" points="287.59 39.14 287.04 40.06 282.59 39.01 282.51 37.94 287.59 39.14"/><path class="cls-13" d="M287,40.56h-.12l-4.46-1.05a.5.5,0,0,1-.38-.45L282,38a.5.5,0,0,1,.17-.42.49.49,0,0,1,.44-.11l5.08,1.2a.5.5,0,0,1,.32.74l-.54.92A.5.5,0,0,1,287,40.56Zm-4-2,3.74.89v0l-3.75-.89Z"/><path class="cls-13" d="M286.89,38.43h-.12l-3.23-.76a.5.5,0,0,1-.37-.6l.51-2.17a.5.5,0,0,1,.22-.31.5.5,0,0,1,.38-.06l3.23.76a.5.5,0,0,1,.37.6L287.38,38a.5.5,0,0,1-.49.39Zm-2.63-1.64,2.25.53.28-1.2-2.25-.53Z"/><path class="cls-13" d="M285.87,35.5h-.11a.5.5,0,0,1-.37-.6l3.31-14.2a.5.5,0,0,1,1,.23l-3.31,14.2A.5.5,0,0,1,285.87,35.5Z"/><path class="cls-13" d="M284.6,59.81h-.12l-8.19-1.94a.5.5,0,1,1,.23-1l8.19,1.94a.5.5,0,0,1-.12,1Z"/><path class="cls-13" d="M284,65.68h-.11l-9.84-2.13a.5.5,0,0,1,.21-1l9.84,2.13a.5.5,0,0,1-.1,1Z"/><path class="cls-13" d="M270.92,73.23a.5.5,0,0,1-.36-.84l8-8.39a.5.5,0,0,1,.72.69l-8,8.39A.5.5,0,0,1,270.92,73.23Z"/><path class="cls-13" d="M282.7,76.25a.5.5,0,0,1-.48-.35l-3.7-11.47a.5.5,0,1,1,1-.31l3.7,11.47a.5.5,0,0,1-.32.63Z"/><path class="cls-13" d="M284,65.68a.5.5,0,0,1-.44-.26l-3.64-6.78a.5.5,0,1,1,.88-.47l3.64,6.78a.5.5,0,0,1-.44.74Z"/><path class="cls-13" d="M274.17,63.55a.5.5,0,0,1-.3-.9l6-4.61a.5.5,0,0,1,.61.79l-6,4.61A.5.5,0,0,1,274.17,63.55Z"/><path class="cls-13" d="M284.6,87.11h-.12l-20.21-4.78a.5.5,0,1,1,.23-1l20.21,4.78a.5.5,0,0,1-.12,1Z"/><path class="cls-13" d="M278.6,91.89a.5.5,0,0,1-.3-.9l6-4.46a.5.5,0,0,1,.6.8l-6,4.46A.5.5,0,0,1,278.6,91.89Z"/><path class="cls-13" d="M267.37,89.24a.5.5,0,0,1-.45-.29l-3.29-7.15a.5.5,0,1,1,.91-.42l3.29,7.15a.5.5,0,0,1-.45.71Z"/><polygon class="cls-12" points="289.42 95.84 286.51 102.14 255.54 94.81 255.72 87.86 289.42 95.84"/><path class="cls-13" d="M286.51,102.64h-.12l-31-7.33a.5.5,0,0,1-.38-.5l.18-6.95a.5.5,0,0,1,.2-.38.49.49,0,0,1,.42-.09l33.7,8a.5.5,0,0,1,.34.7l-2.91,6.3A.5.5,0,0,1,286.51,102.64Zm-30.45-8.22,30.17,7.14,2.48-5.38-32.5-7.69Z"/><path class="cls-13" d="M284.66,99.89h-.12l-26.11-6.18a.5.5,0,1,1,.23-1l26.11,6.18a.5.5,0,0,1-.12,1Z"/><path class="cls-13" d="M260.57,91.49h-.11l-2.93-.69a.5.5,0,0,1,.23-1l2.93.69a.5.5,0,0,1-.11,1Z"/><path class="cls-13" d="M265.79,92.73h-.12L262.73,92a.5.5,0,0,1,.23-1l2.94.69a.5.5,0,0,1-.12,1Z"/><path class="cls-13" d="M271,94h-.12l-2.94-.69a.5.5,0,0,1,.23-1l2.94.69a.5.5,0,0,1-.12,1Z"/><path class="cls-13" d="M276.21,95.19h-.12l-2.94-.7a.5.5,0,1,1,.23-1l2.94.7a.5.5,0,0,1-.12,1Z"/><path class="cls-13" d="M281.41,96.43h-.12l-2.93-.69a.5.5,0,0,1-.37-.6.49.49,0,0,1,.6-.37l2.93.69a.5.5,0,0,1-.12,1Z"/><path class="cls-13" d="M286.62,97.66h-.12L283.57,97a.5.5,0,0,1,.23-1l2.93.7a.5.5,0,0,1-.12,1Z"/><path class="cls-13" d="M280.46,58.7h-.11a.5.5,0,0,1-.37-.6l4.39-18.82a.5.5,0,0,1,1,.23l-4.39,18.82A.5.5,0,0,1,280.46,58.7Z"/><ellipse class="cls-14" cx="84.88" cy="96.14" rx="3.51" ry="3.53" transform="translate(-17.87 172.89) rotate(-85.31)"/><path class="cls-13" d="M84.89,100.15h-.33a4,4,0,1,1,.33,0Zm0-7a3,3,0,0,0-3,2.76,3,3,0,0,0,.7,2.19,3,3,0,0,0,5.34-1.69h0a3,3,0,0,0-.7-2.18,3,3,0,0,0-2.07-1.06Z"/><path class="cls-12" d="M123.58,99.31A13.8,13.8,0,1,1,111,84.51,13.77,13.77,0,0,1,123.58,99.31Z"/><path class="cls-13" d="M109.84,112.4q-.59,0-1.19,0a14.23,14.23,0,0,1-9.73-5A14.07,14.07,0,0,1,95.58,97a14.32,14.32,0,0,1,25.15-8,14.07,14.07,0,0,1,3.34,10.36h0A14.28,14.28,0,0,1,109.84,112.4Zm0-27.44A13.28,13.28,0,0,0,96.57,97.1a13.08,13.08,0,0,0,3.11,9.63,13.32,13.32,0,0,0,23.4-7.46A13.08,13.08,0,0,0,120,89.64,13.24,13.24,0,0,0,110.92,85C110.55,85,110.18,85,109.82,85Zm13.76,14.35h0Z"/><path class="cls-12" d="M75,95.33a13.8,13.8,0,1,1-12.62-14.8A13.77,13.77,0,0,1,75,95.33Z"/><path class="cls-13" d="M61.23,108.42q-.59,0-1.19,0a14.22,14.22,0,0,1-9.76-5A14.07,14.07,0,0,1,47,93a14.32,14.32,0,0,1,25.18-8,14.07,14.07,0,0,1,3.32,10.33h0A14.28,14.28,0,0,1,61.23,108.42Zm0-27.44A13.28,13.28,0,0,0,48,93.11a13.08,13.08,0,0,0,3.08,9.6,13.32,13.32,0,0,0,23.42-7.43h0a13.08,13.08,0,0,0-3.08-9.6A13.23,13.23,0,0,0,62.31,81C61.94,81,61.57,81,61.21,81Z"/><path class="cls-13" d="M85,96.81h0l-24-2a.5.5,0,0,1-.46-.54.51.51,0,0,1,.54-.46l24,2a.5.5,0,0,1,0,1Z"/><path class="cls-13" d="M61,94.85a.5.5,0,0,1-.39-.81L76,74.28a.5.5,0,0,1,.79.61L61.44,94.65A.5.5,0,0,1,61,94.85Z"/><path class="cls-13" d="M100.73,77.08h0l-24.3-2a.5.5,0,0,1-.46-.54.51.51,0,0,1,.54-.46l24.3,2a.5.5,0,0,1,0,1Z"/><path class="cls-13" d="M85,96.81a.5.5,0,0,1-.39-.82l15.65-19.2a.5.5,0,0,1,.78.63L85.42,96.63A.5.5,0,0,1,85,96.81Z"/><path class="cls-13" d="M84.88,96.64a.5.5,0,0,1-.46-.31L73,68.47a.5.5,0,1,1,.92-.38L85.35,96a.5.5,0,0,1-.46.69Z"/><path class="cls-13" d="M61.22,97.25H61a3.05,3.05,0,0,1-2.09-1.07,3.06,3.06,0,1,1,5.4-1.72A3.06,3.06,0,0,1,61.22,97.25Zm0-5.1A2.06,2.06,0,0,0,59.16,94a2,2,0,0,0,.48,1.49,2.07,2.07,0,0,0,3.64-1.15,2,2,0,0,0-.48-1.49,2.06,2.06,0,0,0-1.41-.72Z"/><path class="cls-13" d="M109.86,99a.5.5,0,0,1-.46-.3l-9.18-21.24a.5.5,0,1,1,.92-.4l9.18,21.24a.5.5,0,0,1-.46.7Z"/><path class="cls-13" d="M100.67,77.72h0a.5.5,0,0,1-.46-.54l.33-3.92a.52.52,0,0,1,.54-.46.5.5,0,0,1,.46.54l-.33,3.92A.5.5,0,0,1,100.67,77.72Z"/><path class="cls-13" d="M109.83,101.24h-.25a3.05,3.05,0,0,1-2.09-1.07,3,3,0,0,1-.71-2.22,3.07,3.07,0,0,1,5.4-1.71,3,3,0,0,1,.71,2.22A3.07,3.07,0,0,1,109.83,101.24Zm0-5.1A2.06,2.06,0,0,0,107.77,98a2,2,0,0,0,.48,1.49,2.07,2.07,0,0,0,3.64-1.15h0a2,2,0,0,0-.48-1.49,2.05,2.05,0,0,0-1.41-.72Z"/><path class="cls-13" d="M78.53,68.79h-.27L72,68.27a2.23,2.23,0,0,1-1.5-.63.88.88,0,0,1-.22-.65c.05-.66.85-1.07,1.91-1l6.22.51c1,.09,1.77.63,1.72,1.28h0C80.12,68.39,79.45,68.79,78.53,68.79Zm-7.11-1.71a1.69,1.69,0,0,0,.7.2l6.22.51a1.68,1.68,0,0,0,.73-.08,1.68,1.68,0,0,0-.7-.2L72.15,67A1.68,1.68,0,0,0,71.43,67.08Zm8.25.68h0Z"/><path class="cls-13" d="M107.14,79.73h-.28a.5.5,0,0,1-.46-.54.51.51,0,0,1,.54-.46,2.44,2.44,0,0,0,2.63-2.22,2.4,2.4,0,0,0-.57-1.76,2.43,2.43,0,0,0-1.67-.86l-6.66-.55a.5.5,0,0,1-.46-.54.51.51,0,0,1,.54-.46l6.66.55a3.42,3.42,0,0,1,2.35,1.21,3.39,3.39,0,0,1,.8,2.49A3.44,3.44,0,0,1,107.14,79.73Z"/><path class="cls-15" d="M77.56,203.64c.12.4-.27.27-.68.39L66,207.19c-.4.12-.66.44-.78,0l-1.59-5.6a.75.75,0,0,1,.52-.93L75,197.53A.76.76,0,0,1,76,198Z"/><path class="cls-13" d="M65.37,207.92a.65.65,0,0,1-.26-.05.74.74,0,0,1-.4-.5l-1.59-5.6a1.25,1.25,0,0,1,.86-1.55L74.9,197a1.26,1.26,0,0,1,1.56.85L78,203.5a.74.74,0,0,1-.07.64.86.86,0,0,1-.69.33,1.44,1.44,0,0,0-.26,0l-10.92,3.16a1.47,1.47,0,0,0-.24.1A1.15,1.15,0,0,1,65.37,207.92ZM75.25,198h-.07l-10.92,3.16a.26.26,0,0,0-.15.12.25.25,0,0,0,0,.19l1.51,5.32.24-.09,10.92-3.16.25-.05-1.51-5.32A.25.25,0,0,0,75.25,198Zm1.83,5.78v0l.48-.15Z"/><path class="cls-14" d="M97.77,186.3l2.12,7.24a.75.75,0,0,1-.52.94L40.06,211.63a.76.76,0,0,1-.94-.51L37,203.88a.77.77,0,0,0,1,.51l59.29-17.16A.76.76,0,0,0,97.77,186.3Z"/><path class="cls-13" d="M39.85,212.16a1.26,1.26,0,0,1-1.21-.9L36.52,204h0a.5.5,0,0,1,1-.28h0a.27.27,0,0,0,.34.17L97.1,186.75a.28.28,0,0,0,.17-.13.24.24,0,0,0,0-.18h0a.5.5,0,1,1,1-.28h0l2.12,7.23a1.25,1.25,0,0,1-.86,1.56L40.2,212.11A1.28,1.28,0,0,1,39.85,212.16Zm-2-7.24L39.6,211a.26.26,0,0,0,.32.17L99.24,194a.25.25,0,0,0,.17-.31l-1.77-6.06a1.32,1.32,0,0,1-.26.1L38.1,204.87Z"/><ellipse class="cls-13" cx="67.89" cy="195.64" rx="1.38" ry="1.37" transform="translate(-51.7 26.58) rotate(-16.14)"/><path class="cls-15" d="M89.3,157.35l8.47,28.94a.76.76,0,0,1-.53.94L38,204.39a.77.77,0,0,1-1-.51l-8.47-28.94a.76.76,0,0,1,0-.3.77.77,0,0,1,.55-.64l59.29-17.16a.78.78,0,0,1,.59.06l.13.08A.74.74,0,0,1,89.3,157.35Z"/><path class="cls-13" d="M37.74,204.92a1.26,1.26,0,0,1-1.21-.9L28,175.08a1.24,1.24,0,0,1,.11-1,1.27,1.27,0,0,1,.76-.6l59.29-17.16a1.29,1.29,0,0,1,1,.1l.18.12a1.27,1.27,0,0,1,.43.63h0l8.47,28.94a1.23,1.23,0,0,1-.1.95,1.28,1.28,0,0,1-.77.61L38.1,204.87A1.3,1.3,0,0,1,37.74,204.92Zm50.82-47.61h-.07L29.2,174.48a.27.27,0,0,0-.16.12c0,.13,0,.17,0,.2l8.47,28.94a.27.27,0,0,0,.34.17L97.1,186.75a.28.28,0,0,0,.17-.13.24.24,0,0,0,0-.18L88.82,157.5a.25.25,0,0,0-.08-.12A.38.38,0,0,0,88.56,157.31Z"/><path class="cls-13" d="M49,216.67a.5.5,0,0,1-.14-1l44.92-13a.5.5,0,0,1,.28,1l-44.92,13Z"/><path class="cls-12" d="M103.19,279.4c-4.58,7.6-14.28,15.33-20.09,18.8l-8.94-5.48c.4-6.65,2.88-18.57,7.5-26.24C91,251,107,242.54,110,244.37S112.51,263.92,103.19,279.4Z"/><path class="cls-13" d="M83.1,298.7a.5.5,0,0,1-.26-.07l-8.94-5.48a.5.5,0,0,1-.24-.46c.37-6.21,2.7-18.38,7.57-26.46,7.72-12.82,20.06-20.92,26-22.37a4.21,4.21,0,0,1,3.08.08c3.48,2.13,2.56,20.39-6.66,35.71h0c-4.74,7.87-14.72,15.66-20.27,19A.5.5,0,0,1,83.1,298.7Zm-8.42-6.25,8.42,5.16c5.51-3.35,15.09-10.89,19.66-18.48,9.34-15.52,9.44-32.84,7-34.34-.19-.12-.79-.34-2.32,0-5.75,1.4-17.77,9.34-25.35,21.91C77.38,274.55,75.1,286.26,74.68,292.46Zm28.52-13.06h0Z"/><polygon class="cls-13" points="109.86 261.56 94.22 251.98 96.55 250.14 110.65 258.77 109.86 261.56"/><path class="cls-13" d="M109.86,262.06a.5.5,0,0,1-.26-.07L94,252.4a.5.5,0,0,1,0-.82l2.34-1.84a.5.5,0,0,1,.57,0l14.1,8.64a.5.5,0,0,1,.22.56l-.79,2.79a.5.5,0,0,1-.3.33A.51.51,0,0,1,109.86,262.06ZM95.09,251.93l14.47,8.87.51-1.79-13.48-8.26Z"/><polygon class="cls-14" points="106.57 271.92 86.67 259.73 89.71 256.49 108.18 267.8 106.57 271.92"/><path class="cls-13" d="M106.57,272.42a.51.51,0,0,1-.26-.07L86.41,260.16a.5.5,0,0,1-.1-.77l3-3.25a.5.5,0,0,1,.63-.08l18.47,11.32a.5.5,0,0,1,.21.61L107,272.1a.5.5,0,0,1-.31.29ZM87.46,259.63l18.86,11.55,1.24-3.17L89.79,257.13Z"/><path class="cls-11" d="M189.28,118.89a1,1,0,0,1-1-1v-9a1,1,0,0,1,2,0v9A1,1,0,0,1,189.28,118.89Z"/><path class="cls-11" d="M195,109.71a1,1,0,0,1-1-1V99.34a1,1,0,1,1,2,0v9.37A1,1,0,0,1,195,109.71Z"/><path class="cls-11" d="M200.82,115.83a1,1,0,0,1-1-1v-8.41a1,1,0,1,1,2,0v8.41A1,1,0,0,1,200.82,115.83Z"/><ellipse class="cls-16" cx="204.89" cy="212.76" rx="14.78" ry="14.81"/><path class="cls-16" d="M204.89,228.57a15.81,15.81,0,1,1,15.78-15.81A15.81,15.81,0,0,1,204.89,228.57Zm0-29.62a13.81,13.81,0,1,0,13.78,13.81A13.81,13.81,0,0,0,204.89,199Z"/><rect class="cls-16" x="204.89" y="226.57" width="4.5" height="2"/><rect class="cls-16" x="205.62" y="196.95" width="3.77" height="2"/><ellipse class="cls-11" cx="209.39" cy="212.76" rx="14.78" ry="14.81"/><path class="cls-11" d="M209.39,228.57a15.81,15.81,0,1,1,15.78-15.81A15.81,15.81,0,0,1,209.39,228.57Zm0-29.62a13.81,13.81,0,1,0,13.78,13.81A13.81,13.81,0,0,0,209.39,199Z"/><path class="cls-17" d="M205.3,213.75l-.17,0a.3.3,0,0,1-.19-.19.55.55,0,0,1,0-.17v-.23a.55.55,0,0,1,0-.17.3.3,0,0,1,.07-.12.29.29,0,0,1,.12-.07l.17,0h.81a1.08,1.08,0,0,0,0-.13,1.22,1.22,0,0,1,0-.15v-.69c0-.06,0-.13,0-.19a1.62,1.62,0,0,1,0-.18h-.82l-.17,0a.36.36,0,0,1-.12-.06.25.25,0,0,1-.07-.11.55.55,0,0,1,0-.17v-.24a.48.48,0,0,1,0-.16.34.34,0,0,1,.07-.11.3.3,0,0,1,.12-.07l.17,0h.92a6.4,6.4,0,0,1,.48-1.49,3.9,3.9,0,0,1,.81-1.16,3.48,3.48,0,0,1,1.18-.75,4.3,4.3,0,0,1,1.56-.27,4.83,4.83,0,0,1,1.23.14,3.18,3.18,0,0,1,1,.42,2.73,2.73,0,0,1,.71.67,3.15,3.15,0,0,1,.45.91.7.7,0,0,1,0,.32.36.36,0,0,1-.1.22.53.53,0,0,1-.22.13,1,1,0,0,1-.31,0h-.31a1.18,1.18,0,0,1-.27,0,.58.58,0,0,1-.2-.09.68.68,0,0,1-.15-.15l-.15-.23a1.84,1.84,0,0,0-.29-.4,1.45,1.45,0,0,0-.35-.27,1.7,1.7,0,0,0-.44-.16,2.5,2.5,0,0,0-.56-.06,2.23,2.23,0,0,0-.82.15,1.94,1.94,0,0,0-.65.42,2.47,2.47,0,0,0-.48.7,3.67,3.67,0,0,0-.3.95h2.29l.16,0a.31.31,0,0,1,.11.07.34.34,0,0,1,.07.11.48.48,0,0,1,0,.16V211a.55.55,0,0,1,0,.17.25.25,0,0,1-.07.11l-.11.06-.16,0h-2.42v1.34h2.42a.43.43,0,0,1,.16,0,.29.29,0,0,1,.11.07.3.3,0,0,1,.07.12.55.55,0,0,1,0,.17v.23a.55.55,0,0,1,0,.17.3.3,0,0,1-.07.12.31.31,0,0,1-.11.07l-.16,0H208a5.39,5.39,0,0,0,.29,1.15,3,3,0,0,0,.48.85,1.93,1.93,0,0,0,.67.52,2,2,0,0,0,.85.18,2.21,2.21,0,0,0,.56-.06,1.46,1.46,0,0,0,.44-.19,1.7,1.7,0,0,0,.35-.32,2.32,2.32,0,0,0,.29-.45l.15-.27a.72.72,0,0,1,.15-.18.54.54,0,0,1,.2-.11,1,1,0,0,1,.27,0H213a1,1,0,0,1,.31,0,.53.53,0,0,1,.22.14.4.4,0,0,1,.1.23.81.81,0,0,1,0,.34,3.49,3.49,0,0,1-.45,1,2.83,2.83,0,0,1-.71.73,3,3,0,0,1-1,.45,4.54,4.54,0,0,1-1.23.15,4,4,0,0,1-1.57-.3,3.36,3.36,0,0,1-1.2-.86,4.56,4.56,0,0,1-.81-1.32,6.88,6.88,0,0,1-.44-1.68Z"/><path class="cls-17" d="M209.39,226.47c-.34,0-.68,0-1,0a.25.25,0,0,1-.23-.27.24.24,0,0,1,.27-.23,13.56,13.56,0,0,0,2,0,.24.24,0,0,1,.27.23.25.25,0,0,1-.23.27C210.08,226.46,209.74,226.47,209.39,226.47Zm-3-.33h-.06a13.54,13.54,0,0,1-2-.6.25.25,0,0,1,.18-.46,12.79,12.79,0,0,0,1.88.58.25.25,0,0,1-.06.49Zm6,0a.25.25,0,0,1-.06-.49,13.09,13.09,0,0,0,1.88-.58.25.25,0,0,1,.18.46,13.78,13.78,0,0,1-2,.61Zm-9.71-1.46a.25.25,0,0,1-.12,0,13.59,13.59,0,0,1-1.69-1.16.25.25,0,1,1,.31-.39,13,13,0,0,0,1.63,1.11.25.25,0,0,1-.12.47Zm13.44,0a.25.25,0,0,1-.13-.47,13.32,13.32,0,0,0,1.63-1.12.25.25,0,0,1,.31.39,13.94,13.94,0,0,1-1.69,1.16A.25.25,0,0,1,216.12,224.67Zm-16.57-2.49a.25.25,0,0,1-.18-.08,13.82,13.82,0,0,1-1.28-1.6.25.25,0,0,1,.41-.28,13.37,13.37,0,0,0,1.23,1.54.25.25,0,0,1-.18.42Zm19.7,0a.25.25,0,0,1-.18-.42,13.09,13.09,0,0,0,1.23-1.54.25.25,0,0,1,.41.28,13.64,13.64,0,0,1-1.27,1.6A.25.25,0,0,1,219.25,222.16Zm-22-3.29a.25.25,0,0,1-.22-.14,13.54,13.54,0,0,1-.75-1.9.25.25,0,0,1,.48-.15,13.25,13.25,0,0,0,.72,1.83.25.25,0,0,1-.12.33Zm24.21,0-.11,0a.25.25,0,0,1-.12-.33,13.07,13.07,0,0,0,.72-1.84.26.26,0,0,1,.31-.17.25.25,0,0,1,.17.31,13.67,13.67,0,0,1-.75,1.91A.25.25,0,0,1,221.5,218.85ZM196.1,215a.25.25,0,0,1-.25-.21,13.81,13.81,0,0,1-.15-2,.25.25,0,0,1,.25-.25h0a.25.25,0,0,1,.25.25,13.34,13.34,0,0,0,.15,2,.25.25,0,0,1-.21.28Zm26.57,0h0a.25.25,0,0,1-.21-.28,13.54,13.54,0,0,0,.14-2,.28.28,0,0,1,.25-.28.23.23,0,0,1,.25.22v.05a14,14,0,0,1-.15,2A.25.25,0,0,1,222.68,215Zm-26.58-4h0a.25.25,0,0,1-.21-.28,13.63,13.63,0,0,1,.45-2,.25.25,0,0,1,.48.15,13.16,13.16,0,0,0-.43,1.92A.25.25,0,0,1,196.1,211Zm26.57-.08a.25.25,0,0,1-.25-.21,13.2,13.2,0,0,0-.44-1.92.25.25,0,1,1,.48-.15,13.53,13.53,0,0,1,.46,2,.25.25,0,0,1-.21.28Zm-25.4-3.75-.11,0a.25.25,0,0,1-.12-.33,14,14,0,0,1,1-1.78.25.25,0,1,1,.41.28,13.23,13.23,0,0,0-1,1.71A.25.25,0,0,1,197.27,207.2Zm24.21-.07a.25.25,0,0,1-.22-.14,13.24,13.24,0,0,0-1-1.7.25.25,0,1,1,.41-.28,13.72,13.72,0,0,1,1,1.77.25.25,0,0,1-.12.33Zm-22-3.25a.25.25,0,0,1-.17-.07.25.25,0,0,1,0-.35,13.78,13.78,0,0,1,1.5-1.4.25.25,0,0,1,.31.39,13.31,13.31,0,0,0-1.44,1.35A.25.25,0,0,1,199.51,203.88Zm19.7-.06a.25.25,0,0,1-.18-.08,13.34,13.34,0,0,0-1.45-1.34.25.25,0,1,1,.31-.39,13.76,13.76,0,0,1,1.5,1.39.25.25,0,0,1-.18.42Zm-16.58-2.46a.25.25,0,0,1-.13-.47,13.67,13.67,0,0,1,1.84-.9.25.25,0,0,1,.18.46,13.2,13.2,0,0,0-1.77.86A.25.25,0,0,1,202.63,201.37Zm13.44,0a.25.25,0,0,1-.12,0,13,13,0,0,0-1.78-.85.25.25,0,0,1,.18-.47,13.58,13.58,0,0,1,1.85.89.25.25,0,0,1-.12.47Zm-9.72-1.44a.25.25,0,0,1-.06-.49,13.72,13.72,0,0,1,2-.31.23.23,0,0,1,.27.23.25.25,0,0,1-.23.27,13.21,13.21,0,0,0-1.95.3Zm6,0h-.05a13.13,13.13,0,0,0-2-.29.25.25,0,0,1-.23-.27.25.25,0,0,1,.27-.23,13.75,13.75,0,0,1,2,.3.25.25,0,0,1-.05.49Z"/><ellipse class="cls-16" cx="194.14" cy="141.4" rx="14.78" ry="14.81"/><path class="cls-16" d="M194.14,157.21a15.81,15.81,0,1,1,15.78-15.81A15.81,15.81,0,0,1,194.14,157.21Zm0-29.62a13.81,13.81,0,1,0,13.78,13.81A13.81,13.81,0,0,0,194.14,127.59Z"/><rect class="cls-16" x="194.14" y="155.21" width="4.5" height="2"/><rect class="cls-16" x="194.87" y="125.59" width="3.77" height="2"/><ellipse class="cls-11" cx="198.64" cy="141.4" rx="14.78" ry="14.81"/><path class="cls-11" d="M198.64,157.21a15.81,15.81,0,1,1,15.78-15.81A15.81,15.81,0,0,1,198.64,157.21Zm0-29.62a13.81,13.81,0,1,0,13.78,13.81A13.81,13.81,0,0,0,198.64,127.59Z"/><path class="cls-17" d="M194.55,142.72l-.17,0a.29.29,0,0,1-.19-.19.53.53,0,0,1,0-.17v-.23a.53.53,0,0,1,0-.17.3.3,0,0,1,.07-.12.3.3,0,0,1,.12-.07l.17,0h.81a1,1,0,0,0,0-.13,1.2,1.2,0,0,1,0-.15v-.69c0-.06,0-.13,0-.19a1.79,1.79,0,0,1,0-.18h-.82l-.17,0a.36.36,0,0,1-.12-.06.24.24,0,0,1-.07-.11.53.53,0,0,1,0-.17v-.24a.46.46,0,0,1,0-.16.31.31,0,0,1,.07-.11.3.3,0,0,1,.12-.07l.17,0h.92a6.36,6.36,0,0,1,.48-1.49,3.9,3.9,0,0,1,.81-1.16,3.48,3.48,0,0,1,1.18-.75,4.3,4.3,0,0,1,1.56-.26,4.87,4.87,0,0,1,1.23.14,3.18,3.18,0,0,1,1,.42,2.74,2.74,0,0,1,.71.67,3.11,3.11,0,0,1,.45.91.72.72,0,0,1,0,.31.36.36,0,0,1-.1.22.53.53,0,0,1-.22.13,1,1,0,0,1-.31,0H202a1.13,1.13,0,0,1-.27,0,.58.58,0,0,1-.2-.09.65.65,0,0,1-.15-.15l-.14-.23a1.88,1.88,0,0,0-.29-.4,1.44,1.44,0,0,0-.36-.27,1.7,1.7,0,0,0-.44-.16,2.54,2.54,0,0,0-.56-.06,2.23,2.23,0,0,0-.82.15,1.93,1.93,0,0,0-.65.42,2.48,2.48,0,0,0-.48.7,3.67,3.67,0,0,0-.3.95h2.29l.16,0a.31.31,0,0,1,.11.07.31.31,0,0,1,.07.11.46.46,0,0,1,0,.16V140a.53.53,0,0,1,0,.17.24.24,0,0,1-.07.11l-.11.06-.16,0h-2.42v1.34h2.42l.16,0a.31.31,0,0,1,.11.07.3.3,0,0,1,.07.12.53.53,0,0,1,0,.17v.23a.53.53,0,0,1,0,.17.3.3,0,0,1-.07.12.32.32,0,0,1-.11.07l-.16,0h-2.32a5.41,5.41,0,0,0,.29,1.15,3,3,0,0,0,.48.85,1.89,1.89,0,0,0,1.52.7,2.2,2.2,0,0,0,.56-.07,1.43,1.43,0,0,0,.44-.19,1.64,1.64,0,0,0,.36-.32,2.37,2.37,0,0,0,.29-.45l.14-.27a.72.72,0,0,1,.15-.18.55.55,0,0,1,.2-.11,1,1,0,0,1,.27,0h.31a1,1,0,0,1,.31,0,.53.53,0,0,1,.22.14.4.4,0,0,1,.1.23.82.82,0,0,1,0,.34,3.46,3.46,0,0,1-.45,1,2.84,2.84,0,0,1-.71.73,3.08,3.08,0,0,1-1,.45,4.55,4.55,0,0,1-1.23.15,4,4,0,0,1-1.57-.3,3.35,3.35,0,0,1-1.2-.86,4.55,4.55,0,0,1-.81-1.32,6.84,6.84,0,0,1-.44-1.68Z"/><path class="cls-17" d="M198.64,155.12c-.34,0-.68,0-1,0a.25.25,0,0,1-.23-.27.23.23,0,0,1,.27-.23,13.29,13.29,0,0,0,2,0,.25.25,0,0,1,.27.23.25.25,0,0,1-.23.27C199.33,155.1,199,155.12,198.64,155.12Zm-3-.33h-.06a13.6,13.6,0,0,1-2-.6.25.25,0,0,1,.18-.47,13,13,0,0,0,1.88.58.25.25,0,0,1-.06.49Zm6,0a.25.25,0,0,1-.06-.49,13.18,13.18,0,0,0,1.88-.58.25.25,0,0,1,.18.46,13.62,13.62,0,0,1-2,.61Zm-9.71-1.46a.25.25,0,0,1-.12,0,13.83,13.83,0,0,1-1.69-1.15.25.25,0,0,1,.31-.39,13.29,13.29,0,0,0,1.63,1.11.25.25,0,0,1-.12.47Zm13.44,0a.25.25,0,0,1-.12-.47,13.08,13.08,0,0,0,1.63-1.11.25.25,0,1,1,.31.39,13.55,13.55,0,0,1-1.69,1.16A.25.25,0,0,1,205.37,153.31Zm-16.57-2.49a.25.25,0,0,1-.18-.08,14,14,0,0,1-1.28-1.6.25.25,0,1,1,.41-.28A13.49,13.49,0,0,0,189,150.4a.25.25,0,0,1-.18.42Zm19.7,0a.25.25,0,0,1-.18-.42,13.22,13.22,0,0,0,1.23-1.54.25.25,0,0,1,.41.28,13.86,13.86,0,0,1-1.27,1.6A.25.25,0,0,1,208.5,150.8Zm-22-3.29a.25.25,0,0,1-.22-.14,13.56,13.56,0,0,1-.75-1.9.25.25,0,0,1,.48-.15,13.07,13.07,0,0,0,.72,1.83.25.25,0,0,1-.12.33Zm24.21,0-.11,0a.25.25,0,0,1-.12-.33,13.05,13.05,0,0,0,.72-1.84.25.25,0,0,1,.48.15,13.62,13.62,0,0,1-.75,1.91A.25.25,0,0,1,210.75,147.49Zm-25.4-3.8a.25.25,0,0,1-.25-.21,13.81,13.81,0,0,1-.15-2,.25.25,0,0,1,.25-.25h0a.25.25,0,0,1,.25.25,13.35,13.35,0,0,0,.15,2,.25.25,0,0,1-.21.28Zm26.57,0h0a.25.25,0,0,1-.21-.28,13.54,13.54,0,0,0,.14-2,.28.28,0,0,1,.25-.28.23.23,0,0,1,.25.22v.05a14,14,0,0,1-.15,2A.25.25,0,0,1,211.93,143.66Zm-26.58-4h0a.25.25,0,0,1-.21-.28,13.63,13.63,0,0,1,.45-2,.25.25,0,1,1,.48.15,13.17,13.17,0,0,0-.43,1.92A.25.25,0,0,1,185.35,139.68Zm26.57-.08a.25.25,0,0,1-.25-.21,13.16,13.16,0,0,0-.44-1.92.25.25,0,1,1,.48-.15,13.52,13.52,0,0,1,.46,2,.25.25,0,0,1-.21.28Zm-25.4-3.75-.11,0a.25.25,0,0,1-.12-.33,13.72,13.72,0,0,1,1-1.78.25.25,0,1,1,.41.28,13.23,13.23,0,0,0-1,1.71A.25.25,0,0,1,186.52,135.84Zm24.21-.07a.25.25,0,0,1-.22-.14,13.28,13.28,0,0,0-1-1.7.25.25,0,0,1,.41-.28,13.72,13.72,0,0,1,1,1.77.25.25,0,0,1-.12.33Zm-22-3.25a.25.25,0,0,1-.18-.42,13.7,13.7,0,0,1,1.5-1.4.25.25,0,1,1,.31.39,13.26,13.26,0,0,0-1.44,1.35A.25.25,0,0,1,188.76,132.53Zm19.7-.06a.25.25,0,0,1-.18-.08,13.23,13.23,0,0,0-1.45-1.34.25.25,0,0,1,.31-.39,13.72,13.72,0,0,1,1.5,1.39.25.25,0,0,1,0,.35A.25.25,0,0,1,208.46,132.47ZM191.88,130a.25.25,0,0,1-.13-.47,13.68,13.68,0,0,1,1.84-.9.25.25,0,0,1,.18.46A13.2,13.2,0,0,0,192,130,.24.24,0,0,1,191.88,130Zm13.44,0a.25.25,0,0,1-.12,0,13,13,0,0,0-1.78-.85.25.25,0,1,1,.18-.47,13.59,13.59,0,0,1,1.85.89.25.25,0,0,1-.12.47Zm-9.72-1.44a.25.25,0,0,1-.06-.49,13.72,13.72,0,0,1,2-.31.23.23,0,0,1,.27.23.25.25,0,0,1-.23.27,13.21,13.21,0,0,0-1.95.3Zm6,0h-.05a13.13,13.13,0,0,0-2-.29.25.25,0,0,1,0-.5,13.75,13.75,0,0,1,2,.3.25.25,0,0,1-.05.49Z"/><path class="cls-10" d="M284.07,299.69l-11.46.05A59.61,59.61,0,0,0,254,270.07V244.81a2.84,2.84,0,0,0-2.71-3,24.69,24.69,0,0,0-17.46,7.5c-.05.05-2.16,2.48-2.45,2.83a21.57,21.57,0,0,0-2.31,3.61,80.08,80.08,0,0,0-25.61-4.17c-39.13,0-70.85,27.57-70.85,61.58,0,20.94,12,39.42,30.4,50.55l-3.93,19.62,22.23,4.13,3-15a81.16,81.16,0,0,0,38.54,0l3,15.05L248,383.37l-3.84-19.78c14.46-8.84,24.94-22.26,28.65-37.84l11.22-.14a3.33,3.33,0,0,0,3.34-3.32V303A3.33,3.33,0,0,0,284.07,299.69Z"/><path class="cls-10" d="M225.8,388.5a1,1,0,0,1-1-.81l-2.78-14a82.53,82.53,0,0,1-37,0l-2.77,14a1,1,0,0,1-1.16.79l-22.23-4.13a1,1,0,0,1-.8-1.18l3.79-18.93c-19-11.75-30.28-30.78-30.28-51,0-34.51,32.23-62.58,71.85-62.58a81,81,0,0,1,25.13,4,20.13,20.13,0,0,1,2-3c.21-.25,2.38-2.78,2.51-2.9a25.56,25.56,0,0,1,18.17-7.79,3.85,3.85,0,0,1,3.71,4v24.81a60.62,60.62,0,0,1,18.37,29.12l10.69,0h0a4.34,4.34,0,0,1,4.34,4.32v19.27a4.34,4.34,0,0,1-4.34,4.32l-10.44.13c-3.81,15.07-13.83,28.28-28.32,37.34l3.71,19.1a1,1,0,0,1-.8,1.17L226,388.48Zm-3-17.05a1,1,0,0,1,1,.81l2.79,14.08,20.27-3.77-3.65-18.79a1,1,0,0,1,.46-1c14.59-8.93,24.61-22.15,28.2-37.22a1,1,0,0,1,1-.77l11.22-.14a2.34,2.34,0,0,0,2.35-2.32V303a2.34,2.34,0,0,0-2.34-2.32l-11.46.05a1,1,0,0,1-1-.75,58.57,58.57,0,0,0-18.29-29.18,1,1,0,0,1-.34-.75V244.81a1.85,1.85,0,0,0-1.71-2,23.59,23.59,0,0,0-16.75,7.2c-.11.12-2.1,2.42-2.38,2.76a20.9,20.9,0,0,0-2.2,3.44,1,1,0,0,1-1.2.48,79,79,0,0,0-25.29-4.12c-38.52,0-69.85,27.18-69.85,60.58,0,19.77,11.18,38.34,29.92,49.69a1,1,0,0,1,.46,1.05l-3.73,18.62,20.26,3.77,2.78-14a1,1,0,0,1,.44-.65,1,1,0,0,1,.78-.13,80.52,80.52,0,0,0,38.07,0Z"/><path class="cls-9" d="M244.67,366.26,247.95,383a.27.27,0,0,1-.22.31l-4.54.84a.27.27,0,0,1-.31-.22l-3.07-15.42a.27.27,0,0,1,.14-.29Z"/><path class="cls-9" d="M243.15,385.19a1.27,1.27,0,0,1-1.25-1l-3.06-15.41a1.27,1.27,0,0,1,.67-1.38l5.9-2.51,3.52,18a1.28,1.28,0,0,1-1,1.49l-4.54.84Zm.71-1.43h0Zm-.85-.56h0Zm-2.1-14.26,2.81,14.13,3.1-.58-2.91-14.83Z"/><path class="cls-9" d="M179.64,373.51l4.08,1.43-2.46,12.29a.27.27,0,0,1-.31.22l-4.28-.8a.27.27,0,0,1-.21-.32l2.85-12.62A.27.27,0,0,1,179.64,373.51Z"/><path class="cls-9" d="M181,388.46l-.22,0-4.29-.8a1.27,1.27,0,0,1-1-1.5l2.86-12.64a1.27,1.27,0,0,1,1.59-.94l.05,0,4.9,1.72-2.63,13.14A1.27,1.27,0,0,1,181,388.46Zm-.71-1.42v0Zm-2.68-1.22,2.82.53,2.15-10.73-2.47-.87Zm-.75-.14h0Zm3.43-11.75v0Z"/><path class="cls-10" d="M235.63,256.08l14.28,7.25v-16A20.48,20.48,0,0,0,235.63,256.08Z"/><path class="cls-10" d="M250.92,265l-16.74-8.5.63-.94a21.39,21.39,0,0,1,15-9.21l1.13-.15Zm-13.79-9.25,11.79,6V248.48A19.4,19.4,0,0,0,237.13,255.72Z"/><path class="cls-9" d="M149.9,352.13a2.49,2.49,0,0,1-1.71-.68,54.73,54.73,0,0,1-15.43-37.58,56,56,0,0,1,6-25.85c3.86-7.52,13.31-18.41,17.13-19.74a2.5,2.5,0,1,1,1.65,4.72c-1.86.76-10.51,9.86-14.33,17.31a51,51,0,0,0-5.46,23.56c0,20.56,13.72,33.82,13.86,33.95a2.5,2.5,0,0,1-1.72,4.32Z"/><path class="cls-9" d="M238.41,259l12,6.28V251.43a13.27,13.27,0,0,0-12,7.56"/><path class="cls-9" d="M250.4,265.77a.5.5,0,0,1-.23-.06l-12-6.28a.5.5,0,0,1-.22-.66,13.85,13.85,0,0,1,12.44-7.85.5.5,0,0,1,.5.5v13.84a.5.5,0,0,1-.5.5Zm-11.32-7,10.82,5.67v-12.5A12.85,12.85,0,0,0,239.08,258.78Z"/><ellipse class="cls-18" cx="254.35" cy="293.43" rx="2.02" ry="2.02"/><path class="cls-18" d="M254.35,296.45a3,3,0,1,1,3-3A3,3,0,0,1,254.35,296.45Zm0-4a1,1,0,1,0,1,1A1,1,0,0,0,254.35,292.41Z"/><ellipse class="cls-18" cx="278.54" cy="284" rx="2.02" ry="2.02"/><path class="cls-18" d="M278.54,287a3,3,0,1,1,3-3A3,3,0,0,1,278.54,287Zm0-4a1,1,0,1,0,1,1A1,1,0,0,0,278.54,283Z"/><path class="cls-9" d="M188.83,262.72a.39.39,0,0,1,.16-.48,45.32,45.32,0,0,1,31.57-.31.39.39,0,0,1,.16.47l-.92,3c0,.15-.17.23-.28.19a42.09,42.09,0,0,0-29.43.29c-.11,0-.23,0-.28-.18Z"/><path class="cls-9" d="M190,266.39a.67.67,0,0,1-.29-.07.78.78,0,0,1-.4-.47l-1-3h0a.87.87,0,0,1,.46-1.1,45.81,45.81,0,0,1,31.92-.32.87.87,0,0,1,.47,1.09l-.92,3a.79.79,0,0,1-.4.48.68.68,0,0,1-.53,0,41.6,41.6,0,0,0-29.07.29A.67.67,0,0,1,190,266.39Zm.26-.85h0Zm-1-2.89.87,2.65a42.61,42.61,0,0,1,29.19-.29l.83-2.67a44.82,44.82,0,0,0-30.89.31Zm-.16.06h0Z"/><path class="cls-18" d="M189.63,265.82a.12.12,0,0,1,.07-.15,49.2,49.2,0,0,1,30.13-.26.12.12,0,0,1,.08.15l-1,2.74a.11.11,0,0,1-.14.07,45.7,45.7,0,0,0-28,.24.11.11,0,0,1-.14-.07Z"/><path class="cls-18" d="M190.78,269.11a.61.61,0,0,1-.57-.39l-1.12-2.93.18-.47.27-.13a49.69,49.69,0,0,1,30.44-.26l.2.06.16.25a.62.62,0,0,1,0,.49l-1,2.74a.61.61,0,0,1-.76.38,45.21,45.21,0,0,0-27.66.24A.63.63,0,0,1,190.78,269.11Zm-.54-3.1.76,2a46.24,46.24,0,0,1,27.58-.24l.72-2a48.73,48.73,0,0,0-29.06.25Zm29.44-.13h0Z"/><path class="cls-9" d="M284.07,325.64h-1.65a1.42,1.42,0,0,1-1.42-1.42V301.15a1.42,1.42,0,0,1,1.42-1.42h1.65a3.35,3.35,0,0,1,3.34,3.34v19.22A3.35,3.35,0,0,1,284.07,325.64Z"/><path class="cls-9" d="M284.07,326.64h-1.65a2.42,2.42,0,0,1-2.42-2.42V301.15a2.42,2.42,0,0,1,2.42-2.42h1.65a4.34,4.34,0,0,1,4.34,4.34v19.22A4.34,4.34,0,0,1,284.07,326.64Zm-1.65-25.91a.42.42,0,0,0-.42.42v23.06a.42.42,0,0,0,.42.42h1.65a2.34,2.34,0,0,0,2.34-2.34V303.07a2.34,2.34,0,0,0-2.34-2.34Z"/><g class="cls-19"><rect class="cls-9" x="233.62" y="304.37" width="0.61" height="18.92"/><rect class="cls-20" x="234.23" y="304.37" width="0.61" height="18.92"/><rect class="cls-21" x="234.84" y="304.37" width="0.61" height="18.92"/><rect class="cls-22" x="235.45" y="304.37" width="0.61" height="18.92"/><rect class="cls-23" x="236.06" y="304.37" width="0.61" height="18.92"/><rect class="cls-24" x="236.67" y="304.37" width="0.61" height="18.92"/><rect class="cls-25" x="237.28" y="304.37" width="0.61" height="18.92"/><rect class="cls-26" x="237.89" y="304.37" width="0.61" height="18.92"/><rect class="cls-27" x="238.49" y="304.37" width="0.61" height="18.92"/><rect class="cls-28" x="239.1" y="304.37" width="0.61" height="18.92"/><rect class="cls-29" x="239.71" y="304.37" width="0.61" height="18.92"/><rect class="cls-30" x="240.32" y="304.37" width="0.61" height="18.92"/><rect class="cls-31" x="240.93" y="304.37" width="0.61" height="18.92"/><rect class="cls-32" x="241.54" y="304.37" width="0.61" height="18.92"/><rect class="cls-33" x="242.15" y="304.37" width="0.61" height="18.92"/><rect class="cls-34" x="242.76" y="304.37" width="0.61" height="18.92"/><rect class="cls-35" x="243.37" y="304.37" width="0.61" height="18.92"/><rect class="cls-36" x="243.97" y="304.37" width="0.61" height="18.92"/><rect class="cls-37" x="244.58" y="304.37" width="0.61" height="18.92"/><rect class="cls-38" x="245.19" y="304.37" width="0.61" height="18.92"/><rect class="cls-39" x="245.8" y="304.37" width="0.61" height="18.92"/><rect class="cls-40" x="246.41" y="304.37" width="0.61" height="18.92"/><rect class="cls-41" x="247.02" y="304.37" width="0.61" height="18.92"/><rect class="cls-42" x="247.63" y="304.37" width="0.61" height="18.92"/><rect class="cls-43" x="248.24" y="304.37" width="0.61" height="18.92"/><rect class="cls-44" x="248.85" y="304.37" width="0.61" height="18.92"/><rect class="cls-45" x="249.46" y="304.37" width="0.61" height="18.92"/><rect class="cls-46" x="250.06" y="304.37" width="0.61" height="18.92"/><rect class="cls-47" x="250.67" y="304.37" width="0.61" height="18.92"/><rect class="cls-48" x="251.28" y="304.37" width="0.61" height="18.92"/><rect class="cls-10" x="251.89" y="304.37" width="0.61" height="18.92"/></g><polygon class="cls-12" points="319.2 146.82 337.81 141.17 345.2 165.6 326.59 171.25 319.2 146.82"/><path class="cls-13" d="M327.06,176.52a.5.5,0,0,1-.48-.35l-8.22-25.53a.5.5,0,0,1,.32-.63l16.55-5.27a.5.5,0,0,1,.5.84A12.94,12.94,0,0,0,332.28,159a13.17,13.17,0,0,0,16.52,8.46,13,13,0,0,0-2.15-25.37.5.5,0,0,1-.08-1l16.55-5.27a.5.5,0,0,1,.63.32L372,161.72a.5.5,0,0,1-.32.63l-44.44,14.15Zm-7.59-25.71,7.92,24.58,43.49-13.84L363,137l-14.27,4.54a14,14,0,0,1,.43,26.91,14.17,14.17,0,0,1-17.78-9.1,13.9,13.9,0,0,1,2.41-13.06Z"/><path class="cls-13" d="M318.84,151a.5.5,0,0,1-.48-.35l-2-6.16a.5.5,0,0,1,.32-.63l44.44-14.15a.5.5,0,0,1,.63.32l2,6.16a.5.5,0,0,1-.32.63l-16.55,5.27a.49.49,0,0,1-.22,0,13.25,13.25,0,0,0-10.93,3.48.49.49,0,0,1-.19.11L319,151Zm-1.35-6.34,1.68,5.21,16-5.08a14.25,14.25,0,0,1,11.56-3.68l16-5.08L361,130.81Z"/><path class="cls-13" d="M332.5,139.71a.5.5,0,0,1-.48-.35l-2.19-6.81a.5.5,0,0,1,.32-.63l12.79-4.07a.5.5,0,0,1,.63.32l2.19,6.81a.5.5,0,0,1-.32.63l-12.79,4.07Zm-1.56-7,1.89,5.86,11.83-3.77L342.77,129Z"/><path class="cls-13" d="M336.6,138.43a.5.5,0,0,1-.48-.35l-.79-2.45a.5.5,0,0,1,.32-.63l4.61-1.47a.5.5,0,0,1,.63.32l.79,2.45a.5.5,0,0,1-.32.63l-4.61,1.47Zm-.16-2.63.48,1.5,3.65-1.16-.48-1.5Z"/><path class="cls-13" d="M359.46,143.26a.84.84,0,0,1-.75-1.22.83.83,0,0,1,.49-.41.84.84,0,0,1,1.05.54h0a.84.84,0,0,1-.8,1.09Zm.15-.89-.3.1a.16.16,0,0,0,.2.1.16.16,0,0,0,.09-.08A.16.16,0,0,0,359.61,142.37Zm-.15-.11h0a.16.16,0,0,0-.11.2l.3-.1h0A.16.16,0,0,0,359.46,142.26Z"/><path class="cls-14" d="M357.79,150.9a13.68,13.68,0,1,1-17.15-8.78,13.65,13.65,0,0,1,17.15,8.78Z"/><path class="cls-13" d="M344.81,169.1a14.16,14.16,0,0,1-13.47-9.77,14,14,0,0,1,9.16-17.68,14.15,14.15,0,0,1,17.77,9.1h0a14,14,0,0,1-9.15,17.68A14.16,14.16,0,0,1,344.81,169.1Zm0-27.13a13.27,13.27,0,0,0-9.07,3.61A12.94,12.94,0,0,0,332.28,159a13.17,13.17,0,0,0,16.52,8.46,13,13,0,0,0-2.15-25.37A13.17,13.17,0,0,0,344.8,142Z"/><path class="cls-12" d="M347,161.81a7.12,7.12,0,1,1,4.64-8.95A7.18,7.18,0,0,1,347,161.81Z"/><path class="cls-13" d="M344.8,162.65a7.67,7.67,0,0,1-7.3-5.29,7.62,7.62,0,0,1,5-9.58,7.68,7.68,0,0,1,9.63,4.93,7.62,7.62,0,0,1-5,9.58h0A7.67,7.67,0,0,1,344.8,162.65Zm2.18-.84h0Zm-2.19-13.4a6.68,6.68,0,0,0-2,.32,6.62,6.62,0,0,0-4.31,8.32,6.68,6.68,0,0,0,8.38,4.29h0a6.61,6.61,0,0,0-2-12.92Z"/><path class="cls-49" d="M234.73,246.53s.07,0,0,.05-.78.68-1.15,1a32.79,32.79,0,0,0-2.23,2.45c-.42.51-1,1.08-1.42,1.67-.26.34-.5.67-.69,1l-.81,1.37s-.06,0-.12,0c-1.32-.4-5.64-1.67-6-1.67A39.64,39.64,0,0,1,234.73,246.53Z"/></g><g id="pagamenti_carta"><path class="cls-52" d="M964.34,741.38A8.48,8.48,0,1,1,967,729.74a8.49,8.49,0,0,1-2.67,11.64"/><g class="cls-53"><polygon class="cls-49" points="-672.95 285.2 -799 873.54 1417.92 1345.18 1543.97 756.84 -672.95 285.2"/></g><path class="cls-54" d="M973,739.39a8.5,8.5,0,0,0-4.88-3.67,8.66,8.66,0,0,0-1.21-.25l.91,1.45a8.62,8.62,0,0,1-.42,1l-1.6-2.55a8.48,8.48,0,0,0-1,.06l2.11,3.38a8.35,8.35,0,0,1-.57.78l-2.49-4a8.36,8.36,0,0,0-.89.26l2.76,4.4a8.46,8.46,0,0,1-3.93,2.15l-2.49-4a8.43,8.43,0,0,0-.57.78l2.11,3.38a8.46,8.46,0,0,1-1,.06l-1.59-2.55a8.49,8.49,0,0,0-.42,1l.91,1.45a8.52,8.52,0,0,1-1.21-.25,8.46,8.46,0,1,0,15.5-2.93"/><g class="cls-55"><polygon class="cls-7" points="-672.95 285.2 -799 873.54 1417.92 1345.18 1543.97 756.84 -672.95 285.2"/></g></g></svg>