<?xml version="1.0" encoding="UTF-8"?>
<svg width="36px" height="31px" viewBox="0 0 36 31" version="1.1" xmlns="http://www.w3.org/2000/svg" xmlns:xlink="http://www.w3.org/1999/xlink">
    <!-- Generator: Sketch 43.2 (39069) - http://www.bohemiancoding.com/sketch -->
    <title>lega-nerd</title>
    <desc>Created with Sketch.</desc>
    <defs>
        <path d="M0.118408755,0.398165138 L18.6691137,2.04770642 C18.6691137,2.04770642 25.3789432,1.36513761 32.9342675,6.79724771 C32.9342675,6.79724771 33.7239411,7.47981651 33.216475,8.13394495 C33.4727454,7.92689908 33.5632435,7.70705505 33.565217,7.50114679 L33.565217,7.48806422 C33.5607062,7.01993578 33.1037048,6.6266055 33.1037048,6.6266055 C25.5480985,1.19449541 18.8382691,1.87706422 18.8382691,1.87706422 L0.118408755,0.199082569 L0.118408755,0.398165138 Z" id="path-1"></path>
        <path d="M31.6582623,8.21030037 C30.806225,8.21029926 29.8208384,7.58738483 28.790243,6.79724771 C27.3524224,5.71651376 23.6873895,2.78715596 20.1351269,2.78715596 C16.5828642,2.81559633 9.42195379,3.21376147 9.42195379,3.21376147 L0.0620236336,2.9293578 L0.202986437,0.113761468 L18.1052625,1.76330275 C18.1052625,1.76330275 24.8150919,1.08073394 32.3422237,6.51284404 C32.3422237,6.51284404 32.8186331,6.91044233 32.8186349,7.3895405 L32.8186349,7.3895405 C32.8186355,7.53817607 32.7727823,7.69465594 32.6526238,7.84954128 C32.6241493,7.87798165 32.5680461,7.90642202 32.5398536,7.93486239 C32.2669501,8.1260445 31.9716248,8.21030078 31.6582623,8.21030037 L31.6582623,8.21030037 L31.6582623,8.21030037 Z" id="path-3"></path>
        <path d="M0.00563851238,4.23761468 C0.0056597315,4.23757572 1.41526421,1.64953101 1.10514838,0.28440367 L1.78176984,0.170642202 L1.78176984,4.97706422 L0.00563851214,4.97706422 L0.00563851214,4.23761468 L0.00563851238,4.23761468 Z" id="path-5"></path>
        <path d="M11.8475656,2.91193445 C11.8475656,2.86058205 11.8472132,2.80950013 11.846514,2.7587156 C11.7681387,0.153293578 9.25195265,0.0560275229 7.44706491,0.0560275229 C7.3015913,0.0560275229 7.16034657,0.0568807339 7.02558613,0.0568807339 C5.70025385,0.0853211009 4.37548542,0.199082569 3.07862763,0.511926606 C2.34562105,0.711009174 0.682259969,1.05229358 0.371859876,1.96238532 C-0.332672216,3.98165138 0.428526923,6.88256881 1.83815496,8.33302752 C1.86634752,8.38990826 2.03550288,8.56055046 2.03550288,8.56055046 C3.83982677,10.2954128 7.84317039,10.3238532 9.87303476,8.58899083 C11.3026898,7.36864967 11.8475649,4.9311855 11.8475656,2.91193445 L11.8475656,2.91193445 L11.8475656,2.91193445 Z" id="path-7"></path>
        <path d="M11.8510416,3.9630535 C11.8510419,3.04041628 11.5784507,2.21722751 10.8879669,1.70642202 C9.64749428,0.796330275 7.92774807,0.568807339 6.48992748,0.398165138 C5.8637707,0.331614679 5.19081428,0.282412844 4.51052779,0.282412844 C3.44484899,0.282697248 2.36169081,0.403284404 1.41526655,0.767889908 C-0.107131731,1.36513761 -0.0225540486,3.32752294 0.259371559,4.92018349 C0.456719484,6.08623853 0.907800455,7.47981651 1.64080703,8.33302752 C2.66025676,9.52467774 4.47846307,10.1635271 6.22647685,10.1635303 L6.22649595,10.1635303 C7.52394394,10.1635293 8.78271955,9.81157332 9.64749428,9.07247706 C10.6917304,8.19143932 11.8510412,5.86577305 11.8510416,3.9630535 L11.8510416,3.9630535 L11.8510416,3.9630535 Z" id="path-9"></path>
    </defs>
    <g id="Symbols" stroke="none" stroke-width="1" fill="none" fill-rule="evenodd">
        <g id="footer" transform="translate(-1062.000000, -323.000000)">
            <g id="logos" transform="translate(1062.000000, 323.000000)">
                <g id="lega-nerd">
                    <g id="Group-3" transform="translate(1.691554, 9.669725)">
                        <mask id="mask-2" fill="white">
                            <use xlink:href="#path-1"></use>
                        </mask>
                        <g id="Clip-2"></g>
                        <path d="M0.118408755,0.398165138 L18.6691137,2.04770642 C18.6691137,2.04770642 25.3789432,1.36513761 32.9342675,6.79724771 L32.9342675,6.79724771 C32.9342675,6.79724771 33.7239411,7.47981651 33.216475,8.13394495 L33.216475,8.13394495 C33.4727454,7.92689908 33.5632435,7.70705505 33.565217,7.50114679 L33.565217,7.50114679 L33.565217,7.48806422 C33.5607062,7.01993578 33.1037048,6.6266055 33.1037048,6.6266055 L33.1037048,6.6266055 C25.5480985,1.19449541 18.8382691,1.87706422 18.8382691,1.87706422 L18.8382691,1.87706422 L0.118408755,0.199082569 L0.118408755,0.398165138 Z" id="Fill-1" mask="url(#mask-2)"></path>
                    </g>
                    <g id="Group-6" transform="translate(2.255405, 9.954128)">
                        <mask id="mask-4" fill="white">
                            <use xlink:href="#path-3"></use>
                        </mask>
                        <g id="Clip-5"></g>
                        <path d="M0.0620236336,2.9293578 L9.42195379,3.21376147 C9.42195379,3.21376147 16.5828642,2.81559633 20.1351269,2.78715596 L20.1351269,2.78715596 C23.6873895,2.78715596 27.3524224,5.71651376 28.790243,6.79724771 L28.790243,6.79724771 C30.199871,7.87798165 31.5249214,8.64587156 32.5398536,7.93486239 L32.5398536,7.93486239 C32.5680461,7.90642202 32.6241493,7.87798165 32.6526238,7.84954128 L32.6526238,7.84954128 C33.1600899,7.19541284 32.3422237,6.51284404 32.3422237,6.51284404 L32.3422237,6.51284404 C24.8150919,1.08073394 18.1052625,1.76330275 18.1052625,1.76330275 L18.1052625,1.76330275 L0.202986437,0.113761468 L0.0620236336,2.9293578 Z" id="Fill-4" mask="url(#mask-4)"></path>
                    </g>
                    <path d="M31.2993245,20.2495413 L31.2993245,29.293578 L4.23446623,29.293578 L4.23446623,20.306422 C3.67061502,19.9082569 3.6142299,19.6807339 3.33230429,19.3110092 C2.99399356,18.8275229 2.8248382,18.2587156 2.54291259,17.6899083 L2.54291259,31 L33.2728038,31 L33.2728038,16.9788991 C32.7089526,17.9458716 32.3988344,18.9412844 31.7785981,19.7944954 C31.6940204,19.9651376 31.2993245,20.1073394 31.2993245,20.2495413" id="Fill-35" fill="#BAB7CC"></path>
                    <path d="M34.5978541,16.4669725 C27.0704404,11.0348624 20.360611,11.7174312 20.360611,11.7174312 L2.37375723,10.0678899 L2.23279442,12.8834862 L11.6491097,13.1678899 C11.6491097,13.1678899 18.8100201,12.7697248 22.3622828,12.7412844 C25.9145454,12.7412844 29.5795783,15.6706422 31.0173989,16.7513761 C32.4270269,17.8321101 33.7520773,18.6 34.7670095,17.8889908 C34.795202,17.8605505 34.8515872,17.8321101 34.8797797,17.8036697 C35.4154384,17.1495413 34.5978541,16.4669725 34.5978541,16.4669725" id="Fill-7" fill="#BAB7CC"></path>
                    <path d="M4.65741103,18.1165138 C3.89621189,18.7990826 3.30416812,19.3394495 2.79670202,19.7376147 L2.79670202,19.7376147 C3.41665643,19.3110092 4.26271518,18.6 5.61595809,17.4055046 L5.61595809,17.4055046 C5.72872834,17.3201835 5.84149858,17.2348624 5.92607626,17.1211009 L5.92607626,17.1211009 C5.50318785,17.4055046 5.08029944,17.746789 4.65741103,18.1165138" id="Fill-9"></path>
                    <path d="M1.44345911,17.6045872 C1.0205707,17.9458716 0.625592922,18.3155963 0.231178998,18.6853211 L0.231178998,18.6853211 C0.231178998,18.6853211 -0.530020141,19.6522936 0.71045253,20.0504587 L0.71045253,20.0504587 C1.47165167,20.306422 1.83815496,20.3917431 2.79670202,19.7376147 L2.79670202,19.7376147 C3.30416812,19.3394495 3.89621189,18.7990826 4.68532167,18.1449541 L4.68532167,18.1449541 C5.108492,17.7752294 5.53138041,17.4623853 5.9539869,17.1495413 L5.9539869,17.1495413 C9.30918355,14.3908257 12.9178313,13.8788991 12.9178313,13.8788991 L12.9178313,13.8788991 C12.9178313,13.8788991 15.6243171,13.1110092 18.9792319,14.5330275 L18.9792319,14.5330275 L32.6808164,12.1724771 L33.3010527,10.466055 C33.3010527,10.4634954 33.106806,10.4586606 32.746787,10.4586606 L32.746787,10.4586606 C29.3275932,10.4586606 10.9319473,10.8889633 1.44345911,17.6045872" id="Fill-11"></path>
                    <g id="Group-39" fill="#BAB7CC">
                        <path d="M1.44340272,17.6045872 C1.02051431,17.9458716 0.625818463,18.3155963 0.231122613,18.6853211 C0.231122613,18.6853211 -0.530076527,19.6522936 0.710396145,20.0504587 C1.47159528,20.306422 1.83809857,20.3917431 2.79664564,19.7376147 C3.30411173,19.3394495 3.89615551,18.7990826 4.68554721,18.1449541 C5.10843562,17.7752294 5.53132403,17.4623853 5.95421244,17.1495413 C9.30912716,14.3908257 12.9177749,13.8788991 12.9177749,13.8788991 C12.9177749,13.8788991 15.6242608,13.1110092 18.9791755,14.5330275 L33.2728038,12.0587156 L32.7371451,11.9449541 L33.6111145,9.75504587 C33.6111145,9.7266055 11.5081469,9.44220183 1.44340272,17.6045872" id="Fill-13"></path>
                        <polygon id="Fill-15" points="5.24939842 2.90091743 7.33564791 2.90091743 7.33564791 7.36605505 10.2676742 7.36605505 10.2676742 9.15779817 5.24939842 9.15779817"></polygon>
                        <polygon id="Fill-17" points="10.8315254 2.90091743 16.1317269 2.90091743 16.1317269 4.60733945 12.8895824 4.60733945 12.8895824 5.23302752 15.9343789 5.23302752 15.9343789 6.74036697 12.8895824 6.74036697 12.8895824 7.42293578 16.188112 7.42293578 16.188112 9.1293578 10.8315254 9.1293578"></polygon>
                        <path d="M20.0786854,9.3 C19.5994118,9.3 19.1483309,9.2146789 18.7254424,9.07247706 C18.302554,8.93027523 17.9360507,8.70275229 17.6259326,8.41834862 C17.3158144,8.13394495 17.0620814,7.79266055 16.892926,7.39449541 C16.7237706,6.99633028 16.6110004,6.5412844 16.6110004,6.05779817 L16.6110004,6.0293578 C16.6110004,5.57431193 16.6955781,5.11926606 16.8647334,4.72110092 C17.0338888,4.32293578 17.2876218,3.98165138 17.59774,3.66880734 C17.9078582,3.38440367 18.2743615,3.15688073 18.6972499,2.98623853 C19.1201383,2.81559633 19.5712193,2.73027523 20.0504928,2.73027523 C20.5861514,2.73027523 21.065425,2.81559633 21.4883134,2.98623853 C21.9112018,3.15688073 22.3058977,3.38440367 22.6442084,3.69724771 L21.4601208,5.11926606 C21.2627729,4.94862385 21.0372324,4.80642202 20.8116919,4.72110092 C20.5861514,4.63577982 20.3324184,4.57889908 20.0786854,4.57889908 C19.8813374,4.57889908 19.6839895,4.60733945 19.5148341,4.69266055 C19.3456788,4.77798165 19.204716,4.86330275 19.0637532,5.00550459 C18.9509829,5.14770642 18.8382127,5.28990826 18.7818276,5.46055046 C18.7254424,5.63119266 18.6690573,5.83027523 18.6690573,6.05779817 L18.6690573,6.08623853 C18.6690573,6.31376147 18.6972499,6.51284404 18.7818276,6.68348624 C18.8664052,6.88256881 18.9509829,7.02477064 19.0919457,7.16697248 C19.2329085,7.30917431 19.3738713,7.39449541 19.5712193,7.47981651 C19.7403746,7.56513761 19.9377226,7.59357798 20.163263,7.59357798 C20.3324184,7.59357798 20.4733812,7.59357798 20.5861514,7.56513761 C20.6989217,7.53669725 20.7834994,7.50825688 20.8680771,7.45137615 L20.8680771,6.82568807 L19.7967597,6.82568807 L19.7967597,5.48899083 L22.8133637,5.48899083 L22.8133637,8.38990826 C22.475053,8.67431193 22.0803572,8.90183486 21.6010836,9.07247706 C21.1781952,9.2146789 20.6425366,9.3 20.0786854,9.3" id="Fill-19"></path>
                        <path d="M27.1832107,6.82568807 L26.6193594,5.28990826 L26.0555082,6.82568807 L27.1832107,6.82568807 Z M25.6044273,2.8440367 L27.6624842,2.8440367 L30.2843923,9.15779817 L28.0289875,9.15779817 L27.6906767,8.30458716 L25.5198496,8.30458716 L25.2097314,9.15779817 L22.9825191,9.15779817 L25.6044273,2.8440367 Z" id="Fill-21"></path>
                        <polygon id="Fill-23" points="5.24939842 21.9275229 7.19468511 21.9275229 9.39370484 24.6862385 9.39370484 21.9275229 11.4517618 21.9275229 11.4517618 28.1844037 9.61924533 28.1844037 7.30745535 25.3119266 7.30745535 28.1559633 5.24939842 28.1559633"></polygon>
                        <polygon id="Fill-25" points="12.015613 21.9275229 17.2876218 21.9275229 17.2876218 23.633945 14.0454774 23.633945 14.0454774 24.259633 17.0620814 24.259633 17.0620814 25.7669725 14.0454774 25.7669725 14.0454774 26.4495413 17.344007 26.4495413 17.344007 28.1559633 12.015613 28.1559633"></polygon>
                        <path d="M20.8680771,24.8853211 C21.1218101,24.8853211 21.319158,24.8284404 21.4601208,24.7146789 C21.6010836,24.6009174 21.6856613,24.4587156 21.6856613,24.259633 L21.6856613,24.2311927 C21.6856613,24.0321101 21.6292762,23.8899083 21.4601208,23.7761468 C21.319158,23.6908257 21.1218101,23.633945 20.8962696,23.633945 L19.9941077,23.633945 L19.9941077,24.8568807 L20.8680771,24.8853211 Z M17.9078582,21.9275229 L20.9244622,21.9275229 C21.4883134,21.9275229 21.9393944,21.9844037 22.2777051,22.1266055 C22.6442084,22.240367 22.926134,22.4394495 23.1516745,22.6385321 C23.3490224,22.8376147 23.4899852,23.0366972 23.5745629,23.2926606 C23.6591406,23.5201835 23.7155257,23.8045872 23.7155257,24.1174312 L23.7155257,24.1458716 C23.7155257,24.6009174 23.6027554,24.9990826 23.377215,25.3119266 C23.1516745,25.6247706 22.8697489,25.8807339 22.475053,26.0513761 L23.9128736,28.1844037 L21.5446985,28.1844037 L20.3888035,26.3926606 L20.360611,26.3926606 L19.9377226,26.3926606 L19.9377226,28.1559633 L17.8796656,28.1559633 L17.9078582,21.9275229 Z" id="Fill-27"></path>
                        <path d="M26.647552,26.3357798 C27.1268255,26.3357798 27.4933288,26.2220183 27.7752544,26.0229358 C28.05718,25.8238532 28.1981428,25.4825688 28.1981428,25.0275229 C28.1981428,24.5724771 28.05718,24.259633 27.7752544,24.0321101 C27.4933288,23.8330275 27.1268255,23.7192661 26.647552,23.7192661 L26.3092413,23.7192661 L26.3092413,26.3357798 L26.647552,26.3357798 Z M24.2229918,21.9275229 L26.5911669,21.9275229 C27.2114032,21.9275229 27.7470619,22.012844 28.1981428,22.1550459 C28.6492238,22.2972477 29.0439197,22.4963303 29.3540378,22.7807339 C29.664156,23.0366972 29.8896965,23.3779817 30.0306593,23.7477064 C30.1716221,24.1174312 30.2561998,24.5440367 30.2561998,24.9990826 L30.2561998,25.0275229 C30.2561998,25.4825688 30.1716221,25.9091743 30.0306593,26.3073394 C29.8615039,26.7055046 29.6359634,27.0183486 29.3258453,27.3027523 C29.0157271,27.587156 28.6210313,27.7862385 28.1417577,27.9568807 C27.6624842,28.0990826 27.1268255,28.1844037 26.5065892,28.1844037 L24.1947992,28.1844037 L24.2229918,21.9275229 Z" id="Fill-29"></path>
                        <path d="M30.1716221,19.3963303 C28.1417577,21.1311927 24.1384141,21.1027523 22.3340902,19.3678899 C22.3340902,19.3678899 22.1649348,19.1972477 22.1367423,19.140367 C20.7271143,17.6899083 19.9659151,14.7889908 20.6707291,12.7697248 C20.9808473,11.859633 22.6442084,11.5183486 23.377215,11.3192661 C24.6740728,11.006422 25.9991231,10.8926606 27.3241735,10.8642202 C29.1284973,10.8642202 32.0605237,10.7504587 32.1451013,13.566055 C32.1732939,15.6137615 31.6376352,18.1449541 30.1716221,19.3963303 M12.466694,19.5954128 C10.4368296,21.3302752 6.23613804,20.9321101 4.46000672,18.8559633 C3.72700014,18.0027523 3.27591917,16.6091743 3.07857124,15.4431193 C2.79664564,13.8504587 2.71206796,11.8880734 4.23446623,11.2908257 C5.78505707,10.693578 7.7021512,10.7504587 9.30912716,10.9211009 C10.7469478,11.0917431 12.466694,11.3192661 13.7071666,12.2293578 C15.8216087,13.793578 14.0172848,18.287156 12.466694,19.5954128 M34.99255,9.7266055 C32.8781079,9.5559633 30.7636659,9.49908257 28.6492238,9.5559633 C27.5779065,9.58440367 26.5065892,9.6412844 25.4352719,9.75504587 C25.4352719,9.75504587 21.5446985,10.4091743 21.1781952,10.4944954 C20.3042258,10.6651376 19.458449,10.8642202 18.6126722,11.1486239 C16.9493111,11.7743119 15.0886021,10.8073394 13.425241,10.4944954 C10.154904,9.86880734 6.85637438,9.49908257 3.47326709,9.66972477 C2.51472003,9.7266055 1.55617297,9.61284404 0.625818463,9.75504587 C-0.219958359,9.86880734 0.174737491,10.9211009 0.259315173,11.6321101 C0.343892856,12.4 0.569433341,12.5422018 1.02051431,13.0256881 C1.47159528,13.5091743 1.61255809,14.2770642 1.78171345,14.959633 C2.12002418,16.3816514 2.59929771,18.059633 3.38868941,19.2256881 C5.02385793,21.6431193 8.82985363,22.1266055 11.2544139,21.4440367 C12.6358493,21.0458716 13.7071666,20.2211009 14.4965583,18.8844037 C14.9194467,18.1733945 15.3423352,17.3770642 15.5960682,16.5807339 C15.8216087,15.8981651 15.9061864,15.1302752 16.2726897,14.5045872 C16.6110004,13.9357798 17.4285846,13.9926606 17.9360507,14.106422 C18.5562871,14.2486239 18.6972499,14.6752294 18.9227904,15.3009174 C19.3456788,16.4954128 19.6839895,17.6899083 20.3042258,18.7706422 C21.9675869,21.6431193 25.1815388,22.0412844 27.8880247,21.5577982 C29.1566899,21.3302752 30.7072807,20.9036697 31.5530576,19.7091743 C32.3706418,18.5715596 32.8217228,17.1779817 33.2164186,15.812844 C33.4983443,14.8743119 33.5547294,13.1963303 34.4286988,12.6844037 C35.2180905,12.2009174 35.1335128,10.6366972 34.99255,9.7266055" id="Fill-31"></path>
                        <path d="M3.52965222,9.44220183 C3.7551927,9.44220183 3.95254063,9.41376147 4.23446623,9.41376147 L4.23446623,1.70642202 L31.2993245,1.70642202 L31.2993245,9.35688073 C31.8631757,9.35688073 32.4270269,9.3853211 33.2728038,9.41376147 L33.2728038,0 L2.54291259,0 L2.54291259,9.4706422 L2.90941588,9.4706422 C3.19134149,9.4706422 3.33230429,9.4706422 3.52965222,9.44220183" id="Fill-33"></path>
                        <polygon id="Fill-37" points="14.2146327 12.3715596 13.3406633 10.2954128 16.0753417 10.4944954 17.2594293 11.2055046 20.5579589 10.5798165 20.1914556 12.1440367 19.3174862 15.2440367 19.0919457 15.9266055 18.4717094 14.5330275 17.2876218 14.2201835 16.9775037 14.4192661 16.4700376 14.6183486 15.9061864 15.812844"></polygon>
                    </g>
                    <path d="M15.9626279,15.5568807 L16.3855163,14.5330275 L16.9775601,14.4192661 L17.2594857,14.1348624 L18.4717658,14.5330275 L19.0920021,15.7559633 C19.0920021,15.7559633 19.9941641,13.9642202 20.4167705,10.693578 L20.4167705,10.693578 L17.2594857,11.233945 L16.0753981,10.5798165 L13.4816825,10.4091743 C13.4816825,10.4091743 15.0040808,14.3908257 15.9626279,15.5568807" id="Fill-40"></path>
                    <path d="M16.3855163,14.5330275 L17.246799,14.1214954 L14.3271774,11.0348624 L16.3855163,14.5330275 Z M17.9642997,11.4899083 L17.371974,13.793578 L17.7105666,11.8311927 L15.5397395,11.6889908 L17.2493363,14.1203578 L17.4568336,14.0211009 L18.3026104,14.1348624 L19.2329649,13.7651376 L18.9228468,12.7412844 C18.9228468,12.7412844 19.740431,12.8266055 19.4018384,12.0587156 L19.4018384,12.0587156 C19.1512065,11.5527615 18.5707217,11.472844 18.2290278,11.472844 L18.2290278,11.472844 C18.0711495,11.472844 17.9642997,11.4899083 17.9642997,11.4899083 L17.9642997,11.4899083 Z M17.246799,14.1214954 L17.2594857,14.1348624 L17.2493363,14.1203578 L17.246799,14.1214954 Z" id="Fill-42"></path>
                    <path d="M15.2073492,13.873211 C15.5374841,14.457945 15.9493774,15.0421101 16.0753981,14.9027523 L16.0753981,14.9027523 C16.3570418,14.6183486 16.0753981,14.5330275 16.0753981,14.5330275 L16.0753981,14.5330275 C16.0753981,14.5330275 16.0472056,14.2770642 15.060184,13.0825688 L15.060184,13.0825688 C14.9090719,12.8994128 14.821393,12.8226239 14.7822054,12.8226239 L14.7822054,12.8226239 C14.6801483,12.8226239 14.9107634,13.3479174 15.2073492,13.873211" id="Fill-44"></path>
                    <g id="Group-48" transform="translate(18.607090, 10.522936)">
                        <mask id="mask-6" fill="white">
                            <use xlink:href="#path-5"></use>
                        </mask>
                        <g id="Clip-47"></g>
                        <path d="M1.10514838,0.28440367 C1.41526655,1.64954128 0.00563851214,4.23761468 0.00563851214,4.23761468 L0.00563851214,4.23761468 L0.400334362,4.97706422 C1.04848133,4.06697248 1.78176984,0.170642202 1.78176984,0.170642202 L1.78176984,0.170642202 L1.10514838,0.28440367 Z" id="Fill-46" mask="url(#mask-6)"></path>
                    </g>
                    <g id="Group-65" transform="translate(13.814355, 10.238532)">
                        <polygon id="Fill-49" fill="#FFFFFF" points="0.00558212702 0.455045872 2.28917954 0.625688073 2.57110515 1.50733945 1.72532833 1.45045872 2.65568283 2.7587156 2.45833491 2.8440367 0.738588706 1.19449541 1.78171345 2.95779817 0.710396145 2.18990826"></polygon>
                        <polygon id="Fill-51" fill="#BAB7CC" points="2.26098698 0.255963303 2.74514191 1.50733945 2.43704332 0.341284404"></polygon>
                        <polygon id="Fill-53" fill="#BAB7CC" points="1.72532833 1.45045872 3.41688197 3.86788991 1.64075065 1.50733945"></polygon>
                        <polygon id="Fill-55" fill="#BAB7CC" points="0.174737491 0.113761468 2.57110515 4.29449541 0.00558212702 0.0853211009"></polygon>
                        <polygon id="Fill-57" fill="#BAB7CC" points="3.44507453 3.89633028 4.03711831 0.853211009 4.29085136 0.796330275"></polygon>
                        <polygon id="Fill-59" fill="#BAB7CC" points="4.65735464 4.29449541 5.86963476 0.540366972 5.64409427 0.540366972"></polygon>
                        <polygon id="Fill-61" fill="#BAB7CC" points="4.29085136 0.796330275 4.77500629 4.29449541 4.47706479 0.767889908"></polygon>
                        <polygon id="Fill-63" fill="#BAB7CC" points="1.72532833 1.45045872 3.95254063 1.69264622 3.98073319 1.45045872"></polygon>
                    </g>
                    <g id="Group-68" transform="translate(20.298644, 10.807339)">
                        <mask id="mask-8" fill="white">
                            <use xlink:href="#path-7"></use>
                        </mask>
                        <g id="Clip-67"></g>
                        <path d="M7.02558613,0.0568807339 C5.70025385,0.0853211009 4.37548542,0.199082569 3.07862763,0.511926606 L3.07862763,0.511926606 C2.34562105,0.711009174 0.682259969,1.05229358 0.371859876,1.96238532 L0.371859876,1.96238532 C-0.332672216,3.98165138 0.428526923,6.88256881 1.83815496,8.33302752 L1.83815496,8.33302752 C1.86634752,8.38990826 2.03550288,8.56055046 2.03550288,8.56055046 L2.03550288,8.56055046 C3.83982677,10.2954128 7.84317039,10.3238532 9.87303476,8.58899083 L9.87303476,8.58899083 C11.3390479,7.33761468 11.8747066,4.80642202 11.846514,2.7587156 L11.846514,2.7587156 C11.7681387,0.153293578 9.25195265,0.0560275229 7.44706491,0.0560275229 L7.44706491,0.0560275229 C7.3015913,0.0560275229 7.16034657,0.0568807339 7.02558613,0.0568807339" id="Fill-66" mask="url(#mask-8)"></path>
                    </g>
                    <g id="Group-71" transform="translate(2.819256, 10.522936)">
                        <mask id="mask-10" fill="white">
                            <use xlink:href="#path-9"></use>
                        </mask>
                        <g id="Clip-70"></g>
                        <path d="M0.259371559,4.92018349 C0.456719484,6.08623853 0.907800455,7.47981651 1.64080703,8.33302752 C3.41693836,10.4091743 7.6176299,10.8073394 9.64749428,9.07247706 C11.1980851,7.76422018 13.002409,3.2706422 10.8879669,1.70642202 C9.64749428,0.796330275 7.92774807,0.568807339 6.48992748,0.398165138 C5.8637707,0.331614679 5.19081428,0.282412844 4.51052779,0.282412844 C3.44484899,0.282697248 2.36169081,0.403284404 1.41526655,0.767889908 C-0.107131731,1.36513761 -0.0225540486,3.32752294 0.259371559,4.92018349 Z" id="Fill-69" mask="url(#mask-10)"></path>
                    </g>
                    <path d="M4.93905471,19.3394495 C6.88462333,20.9889908 10.5778488,21.2165138 12.4667503,19.6238532 L12.4667503,19.6238532 C14.0173412,18.287156 15.8216651,13.793578 13.707223,12.2293578 L13.707223,12.2293578 C13.3689123,11.9733945 12.9742164,11.7743119 12.5795206,11.6036697 L12.5795206,11.6036697 L4.93905471,19.3394495 Z" id="Fill-72"></path>
                    <path d="M22.0804136,19.0834862 L22.1367987,19.140367 C22.1929019,19.1972477 22.3341466,19.3678899 22.3341466,19.3678899 L22.3341466,19.3678899 C24.1384705,21.0743119 28.1418141,21.1311927 30.1716785,19.3963303 L30.1716785,19.3963303 C31.6376916,18.1449541 32.1733503,15.6137615 32.1169652,13.5944954 L32.1169652,13.5944954 C32.0884907,12.0302752 31.1302255,11.3477064 30.0025231,11.0917431 L30.0025231,11.0917431 L22.0804136,19.0834862 Z" id="Fill-74"></path>
                    <path d="M0.851415334,11.3192661 C0.851415334,11.5391101 1.15420344,11.7174312 1.52803679,11.7174312 L1.52803679,11.7174312 C1.90158822,11.7174312 2.20465825,11.5391101 2.20465825,11.3192661 L2.20465825,11.3192661 C2.20465825,11.099422 1.90158822,10.9211009 1.52803679,10.9211009 L1.52803679,10.9211009 C1.15420344,10.9211009 0.851415334,11.099422 0.851415334,11.3192661" id="Fill-76"></path>
                    <path d="M33.1318974,11.3192661 C33.1318974,11.5391101 33.4346855,11.7174312 33.8085188,11.7174312 L33.8085188,11.7174312 C34.1820702,11.7174312 34.4851403,11.5391101 34.4851403,11.3192661 L34.4851403,11.3192661 C34.4851403,11.099422 34.1820702,10.9211009 33.8085188,10.9211009 L33.8085188,10.9211009 C33.4346855,10.9211009 33.1318974,11.099422 33.1318974,11.3192661" id="Fill-78"></path>
                </g>
            </g>
        </g>
    </g>
</svg>