<svg xmlns="http://www.w3.org/2000/svg" xmlns:xlink="http://www.w3.org/1999/xlink" viewBox="0 0 400 400"><defs><style>.cls-1,.cls-2,.cls-3{fill:none;}.cls-1,.cls-4,.cls-6,.cls-8{clip-rule:evenodd;}.cls-13,.cls-15,.cls-2,.cls-25,.cls-37,.cls-40,.cls-43{fill-rule:evenodd;}.cls-37,.cls-4,.cls-5{fill:#201849;}.cls-40,.cls-6,.cls-7{fill:#fca664;}.cls-43,.cls-8,.cls-9{fill:#ffddba;}.cls-10{fill:#bab7cc;}.cls-11,.cls-25{fill:#fff;}.cls-12{fill:#e9e3d7;}.cls-13,.cls-14,.cls-18{fill:#016aa3;}.cls-15{fill:#003c5d;}.cls-16{fill:#b9e6ff;}.cls-17{fill:#1b143c;}.cls-18{stroke:#016aa3;stroke-linecap:round;stroke-linejoin:round;}.cls-19{fill:#fefaf2;}.cls-20{fill:#453f6b;}.cls-21{fill:#61cc71;}.cls-22{clip-path:url(#clip-path);}.cls-23{fill:#736d91;}.cls-24{clip-path:url(#clip-path-3);}.cls-26{clip-path:url(#clip-path-4);}.cls-27{clip-path:url(#clip-path-5);}.cls-28,.cls-35{isolation:isolate;}.cls-29{clip-path:url(#clip-path-6);}.cls-30{clip-path:url(#clip-path-7);}.cls-31{opacity:0.9;}.cls-32{fill:#e2cea7;}.cls-33{clip-path:url(#clip-path-8);}.cls-34{fill:#29261f;}.cls-35{opacity:0.88;}.cls-36{clip-path:url(#clip-path-11);}.cls-38{clip-path:url(#clip-path-12);}.cls-39{clip-path:url(#clip-path-13);}.cls-41{clip-path:url(#clip-path-14);}.cls-42{clip-path:url(#clip-path-15);}.cls-44{clip-path:url(#clip-path-16);}.cls-45{clip-path:url(#clip-path-17);}.cls-46{fill:#f2eee6;}.cls-47{fill:#ffb077;}.cls-48{fill:#ffc296;}.cls-49{clip-path:url(#clip-path-18);}.cls-50{clip-path:url(#clip-path-19);}.cls-51{clip-path:url(#clip-path-20);}</style><clipPath id="clip-path"><path class="cls-1" d="M283.25,160.69a4.71,4.71,0,0,1,6.47,1.49l60.47,96.63a4.67,4.67,0,0,1-1.5,6.45l-58.55,36.38a4.71,4.71,0,0,1-6.47-1.49L223.2,203.52a4.67,4.67,0,0,1,1.5-6.45Z"/></clipPath><clipPath id="clip-path-3"><polygon class="cls-3" points="-1348.95 -172.8 -1475 415.54 741.92 887.18 867.97 298.84 -1348.95 -172.8"/></clipPath><clipPath id="clip-path-4"><path class="cls-1" d="M272,181.1a2.69,2.69,0,0,1,3.7.85l6,9.63a2.67,2.67,0,0,1-.86,3.68L273.17,200a2.69,2.69,0,0,1-3.7-.85l-6-9.63a2.67,2.67,0,0,1,.86-3.68Z"/></clipPath><clipPath id="clip-path-5"><polygon class="cls-3" points="-1346.36 -174.38 -1472.42 413.96 744.5 885.6 870.56 297.26 -1346.36 -174.38"/></clipPath><clipPath id="clip-path-6"><polygon class="cls-3" points="261.5 173.58 255.55 201.37 283.43 207.3 289.38 179.51 261.5 173.58"/></clipPath><clipPath id="clip-path-7"><polygon class="cls-3" points="264.82 178.13 260.44 198.56 280.53 202.84 284.91 182.41 264.82 178.13"/></clipPath><clipPath id="clip-path-8"><path class="cls-1" d="M270.76,187.37l-2.48-4-.28.18,2.48,4-1.71,1.06-2.48-4-.28.18,2.48,4-1.71,1.06a.41.41,0,0,0,0,.57l3.41,5.45a.41.41,0,0,0,.53.21l1.71-1.06,2.48,4,.28-.18-2.48-4,1.71-1.06,2.48,4,.28-.18-2.48-4,1.71-1.06,2.48,4,.28-.18-2.48-4,1.71-1.06a.41.41,0,0,0,0-.57L275,185.28a.41.41,0,0,0-.53-.21l-1.71,1.06-2.48-4-.28.18,2.48,4Z"/></clipPath><clipPath id="clip-path-11"><polygon class="cls-3" points="281.5 204.32 279.4 214.13 288.83 216.13 290.93 206.33 281.5 204.32"/></clipPath><clipPath id="clip-path-12"><path class="cls-4" d="M281.49,213.92a.59.59,0,0,1,.17-.53c.09-.08.17-.1.55-.13a8.28,8.28,0,0,0,4-1.29,8.11,8.11,0,0,0,2.82-2.86,4,4,0,0,1,.37-.54.61.61,0,0,1,.5,0,.58.58,0,0,1,.3.55,2.9,2.9,0,0,1-.27.55,9.75,9.75,0,0,1-2,2.41,11.64,11.64,0,0,1-2.1,1.35,9.75,9.75,0,0,1-3.09.84c-.65.07-.95,0-1-.09l-.07-.08a.46.46,0,0,1-.08-.17m-.18-2.18a.52.52,0,0,1,.32-.62l.62-.08a6.23,6.23,0,0,0,3.21-1.23,6,6,0,0,0,1.66-1.84c.34-.55.41-.61.69-.59a.55.55,0,0,1,.46.61,6.86,6.86,0,0,1-.93,1.48,7.39,7.39,0,0,1-4.62,2.58c-.94.14-1.31.06-1.41-.31m-.2-2.24a.6.6,0,0,1,.16-.48c.07-.07.19-.1.59-.13a4.18,4.18,0,0,0,3.38-2.07c.34-.55.43-.62.76-.53a.39.39,0,0,1,.29.22c.15.24.11.44-.19.93a4.94,4.94,0,0,1-1.72,1.71,4.77,4.77,0,0,1-2.31.77c-.53,0-.7,0-.86-.17a.57.57,0,0,1-.1-.24m-.19-2.09a.62.62,0,0,1,.14-.45c.11-.12.24-.16.59-.16a2.19,2.19,0,0,0,1.86-1.15,2.13,2.13,0,0,1,.2-.33.53.53,0,0,1,.75,0c.17.18.16.38,0,.75a3.08,3.08,0,0,1-2.82,1.75c-.42,0-.66-.16-.71-.44"/></clipPath><clipPath id="clip-path-13"><polygon class="cls-5" points="279.24 200.85 276.18 215.15 290.53 218.21 293.59 203.91 279.24 200.85"/></clipPath><clipPath id="clip-path-14"><path class="cls-6" d="M288.34,283.38A8.48,8.48,0,1,1,291,271.74a8.49,8.49,0,0,1-2.67,11.64"/></clipPath><clipPath id="clip-path-15"><polygon class="cls-7" points="-1348.95 -172.8 -1475 415.54 741.92 887.18 867.97 298.84 -1348.95 -172.8"/></clipPath><clipPath id="clip-path-16"><path class="cls-8" d="M297,281.39a8.5,8.5,0,0,0-4.88-3.67,8.66,8.66,0,0,0-1.21-.25l.91,1.45a8.62,8.62,0,0,1-.42,1l-1.6-2.55a8.48,8.48,0,0,0-1,.06l2.11,3.38a8.35,8.35,0,0,1-.57.78l-2.49-4a8.36,8.36,0,0,0-.89.26l2.76,4.4a8.46,8.46,0,0,1-3.93,2.15l-2.49-4a8.43,8.43,0,0,0-.57.78l2.11,3.38a8.46,8.46,0,0,1-1,.06l-1.59-2.55a8.49,8.49,0,0,0-.42,1l.91,1.45a8.52,8.52,0,0,1-1.21-.25,8.46,8.46,0,1,0,15.5-2.93"/></clipPath><clipPath id="clip-path-17"><polygon class="cls-9" points="-1348.95 -172.8 -1475 415.54 741.92 887.18 867.97 298.84 -1348.95 -172.8"/></clipPath><clipPath id="clip-path-18"><path class="cls-1" d="M526.32,19.15h126a20.46,20.46,0,0,1,20.38,20.53V347.42A20.46,20.46,0,0,1,652.27,368h-126a20.46,20.46,0,0,1-20.38-20.53V39.68A20.46,20.46,0,0,1,526.32,19.15Z"/></clipPath><clipPath id="clip-path-19"><rect class="cls-3" x="500.21" y="11.64" width="178" height="360.32"/></clipPath><clipPath id="clip-path-20"><path class="cls-10" d="M652.27,368.45h-126a21,21,0,0,1-20.88-21V39.68a21,21,0,0,1,20.88-21h126a21,21,0,0,1,20.88,21V347.42A21,21,0,0,1,652.27,368.45Zm-126-348.8a20,20,0,0,0-19.88,20V347.42a20,20,0,0,0,19.88,20h126a20,20,0,0,0,19.88-20V39.68a20,20,0,0,0-19.88-20Z"/></clipPath></defs><title>pagamenti_carta</title><g id="pagamenti_carta"><rect class="cls-11" x="104.88" y="126.22" width="9.6" height="56.04"/><path class="cls-12" d="M114.48,183.76h-9.6a1.5,1.5,0,0,1-1.5-1.5v-56a1.5,1.5,0,0,1,1.5-1.5h9.6a1.5,1.5,0,0,1,1.5,1.5v56A1.5,1.5,0,0,1,114.48,183.76Zm-8.1-3H113v-53h-6.6Z"/><rect class="cls-11" x="76.88" y="106.08" width="65.61" height="38.35"/><path class="cls-12" d="M142.49,145.93H76.88a1.5,1.5,0,0,1-1.5-1.5V106.08a1.5,1.5,0,0,1,1.5-1.5h65.61a1.5,1.5,0,0,1,1.5,1.5v38.35A1.5,1.5,0,0,1,142.49,145.93Zm-64.11-3H141V107.58H78.38Z"/><rect class="cls-11" x="80.68" y="82.58" width="58.01" height="85.34" transform="translate(-15.57 234.94) rotate(-90)"/><path class="cls-12" d="M152.35,155.76H67a1.5,1.5,0,0,1-1.5-1.5v-58a1.5,1.5,0,0,1,1.5-1.5h85.34a1.5,1.5,0,0,1,1.5,1.5v58A1.5,1.5,0,0,1,152.35,155.76Zm-83.84-3h82.34v-55H68.51Z"/><rect class="cls-11" x="76.88" y="106.08" width="65.61" height="38.35"/><path class="cls-12" d="M142.49,145.93H76.88a1.5,1.5,0,0,1-1.5-1.5V106.08a1.5,1.5,0,0,1,1.5-1.5h65.61a1.5,1.5,0,0,1,1.5,1.5v38.35A1.5,1.5,0,0,1,142.49,145.93Zm-64.11-3H141V107.58H78.38Z"/><polygon class="cls-11" points="181.85 171.16 181.85 113.5 319.25 113.5 319.25 263 177.34 263 144.32 263 45.24 263 45.24 171.16 181.85 171.16"/><path class="cls-12" d="M319.25,264.5h-274a1.5,1.5,0,0,1-1.5-1.5V171.17a1.5,1.5,0,0,1,1.5-1.5H180.35V113.5a1.5,1.5,0,0,1,1.5-1.5h137.4a1.5,1.5,0,0,1,1.5,1.5V263A1.5,1.5,0,0,1,319.25,264.5Zm-272.5-3h271V115H183.35v56.17a1.5,1.5,0,0,1-1.5,1.5H46.74Z"/><rect class="cls-11" x="36.24" y="248.05" width="292.02" height="14.96" transform="translate(364.49 511.05) rotate(-180)"/><path class="cls-12" d="M328.25,264.5h-292a1.5,1.5,0,0,1-1.5-1.5V248a1.5,1.5,0,0,1,1.5-1.5h292a1.5,1.5,0,0,1,1.5,1.5v15A1.5,1.5,0,0,1,328.25,264.5Zm-290.52-3h289v-12h-289Z"/><path class="cls-12" d="M349.83,264.5H28.5a1.5,1.5,0,0,1,0-3H349.83a1.5,1.5,0,0,1,0,3Z"/><path class="cls-12" d="M140.21,291.34a2.5,2.5,0,0,1-2.42-1.9L111.83,185.56a4.72,4.72,0,0,0-6.59-3.1L85.05,192a2.5,2.5,0,1,1-2.13-4.52l20.19-9.52a9.72,9.72,0,0,1,13.58,6.42l25.95,103.89a2.5,2.5,0,0,1-2.43,3.11Z"/><polygon class="cls-11" points="162.78 237.92 151.03 380.43 95.83 380.43 84.08 237.92 162.78 237.92"/><path class="cls-12" d="M151,381.93H95.83a1.5,1.5,0,0,1-1.5-1.38L82.58,238a1.5,1.5,0,0,1,1.5-1.62h78.7a1.5,1.5,0,0,1,1.5,1.62L152.52,380.56A1.5,1.5,0,0,1,151,381.93Zm-53.82-3h52.44l11.5-139.51H85.71Z"/><rect class="cls-11" x="80.94" y="230.31" width="84.97" height="11.71" rx="0.3" ry="0.3" transform="translate(246.85 472.33) rotate(-180)"/><path class="cls-12" d="M165.61,243.52H81.24a1.8,1.8,0,0,1-1.8-1.8V230.61a1.8,1.8,0,0,1,1.8-1.8h84.37a1.8,1.8,0,0,1,1.8,1.8v11.11A1.8,1.8,0,0,1,165.61,243.52Zm-83.17-3h82v-8.71h-82Zm83.17-8.71h0Z"/><rect class="cls-11" x="95.65" y="220.41" width="55.55" height="9.64" rx="0.3" ry="0.3" transform="translate(246.85 450.47) rotate(-180)"/><path class="cls-12" d="M150.9,231.55H96a1.8,1.8,0,0,1-1.8-1.8v-9a1.8,1.8,0,0,1,1.8-1.8h55a1.8,1.8,0,0,1,1.8,1.8v9A1.8,1.8,0,0,1,150.9,231.55Zm-53.75-3H149.7v-6.64H97.15Zm53.75-6.64h0Z"/><polygon class="cls-10" points="88.19 275.92 91.38 305.19 155.14 305.19 158.34 275.92 88.19 275.92"/><path class="cls-11" d="M42.75,373h61.62l14.22-74.53a.14.14,0,0,0-.14-.17H28.67a.14.14,0,0,0-.14.17Z"/><path class="cls-12" d="M104.37,374.51H42.75a1.5,1.5,0,0,1-1.47-1.22L27.05,298.76a1.64,1.64,0,0,1,1.61-1.95h89.79a1.64,1.64,0,0,1,1.61,1.95l-14.23,74.53A1.5,1.5,0,0,1,104.37,374.51Zm-60.38-3h59.13l13.69-71.69H30.31Z"/><rect class="cls-11" x="73.56" y="244.8" width="7.16" height="94.01" rx="0.2" ry="0.2" transform="translate(154.28 583.62) rotate(-180)"/><path class="cls-12" d="M80.52,340.32H73.76a1.7,1.7,0,0,1-1.7-1.7V245a1.7,1.7,0,0,1,1.7-1.7h6.76a1.7,1.7,0,0,1,1.7,1.7v93.61A1.7,1.7,0,0,1,80.52,340.32Zm-5.46-3h4.16v-91H75.06Z"/><path class="cls-11" d="M70.88,369.16l6.18,2.64a.1.1,0,0,0,.12,0l40.68-84.14a.09.09,0,0,0,0-.13l-6.95-3.32a.1.1,0,0,0-.13,0L70.83,369A.09.09,0,0,0,70.88,369.16Z"/><path class="cls-12" d="M77.09,373.3a1.59,1.59,0,0,1-.61-.12l-6.19-2.64h0a1.6,1.6,0,0,1-.8-2.14l39.91-84.83a1.6,1.6,0,0,1,2.12-.76l7,3.32a1.69,1.69,0,0,1,.82.9,1.6,1.6,0,0,1-.06,1.22L78.53,372.4A1.6,1.6,0,0,1,77.09,373.3Zm-4.28-5,3.6,1.54,39.48-81.67-4.4-2.1Zm44.35-79.52h0Z"/><path class="cls-11" d="M70.51,355.27l7,3.89a.11.11,0,0,0,.16,0l37.07-87.36a.11.11,0,0,0-.07-.13l-7.57-3a.11.11,0,0,0-.14,0L70.46,355.14A.1.1,0,0,0,70.51,355.27Z"/><path class="cls-12" d="M77.54,360.67a1.64,1.64,0,0,1-.8-.21l-7-3.88h0a1.6,1.6,0,0,1-.7-2L105.54,268a1.6,1.6,0,0,1,2.08-.85l7.58,3a1.75,1.75,0,0,1,.89.87,1.6,1.6,0,0,1,0,1.23L79,359.71a1.67,1.67,0,0,1-1,.88A1.63,1.63,0,0,1,77.54,360.67Zm.65-2.83h0Zm-5.87-3.28,4.54,2.53,35.9-84.6-5-2ZM114.07,273h0Zm-5.76-3.82v0Z"/><path class="cls-11" d="M56,349.57l7.3-.69a.09.09,0,0,0,.09-.11L52.15,255.62a.09.09,0,0,0-.1-.08l-7.3.69a.09.09,0,0,0-.09.11l11.27,93.15A.09.09,0,0,0,56,349.57Z"/><path class="cls-12" d="M56,351.07a1.59,1.59,0,0,1-1.58-1.38L43.18,256.52a1.69,1.69,0,0,1,.34-1.19,1.6,1.6,0,0,1,1.1-.59l7.29-.69a1.6,1.6,0,0,1,1.73,1.38l11.27,93.17a1.69,1.69,0,0,1-.34,1.19,1.6,1.6,0,0,1-1.1.59l-7.29.69Zm5.91-2.13v0Zm-6-.87h0Zm-9.57-90.49,10.93,90.36,4.5-.43L50.83,257.16Zm-.17-1.44v0Z"/><path class="cls-11" d="M68,342.91l6.69,1.5a.09.09,0,0,0,.11-.07L93.9,252.47a.09.09,0,0,0-.07-.11l-6.69-1.5a.09.09,0,0,0-.11.07L67.88,342.8A.09.09,0,0,0,68,342.91Z"/><path class="cls-12" d="M74.66,345.91a1.56,1.56,0,0,1-.35,0l-6.69-1.5h0a1.6,1.6,0,0,1-1.2-1.88l19.14-91.86a1.6,1.6,0,0,1,1.89-1.24l6.71,1.5a1.59,1.59,0,0,1,1.21,1.89L76.23,344.64a1.69,1.69,0,0,1-.7,1A1.6,1.6,0,0,1,74.66,345.91Zm-5.31-2.81h0Zm.28-1.35,3.95.88,18.57-89.11-3.95-.88Zm23.85-87.93h0Zm-1.05-1.65h0Z"/><path class="cls-11" d="M72.36,354.11,79,355.94a.09.09,0,0,0,.12-.07l23.72-90.8a.09.09,0,0,0-.07-.11l-6.61-1.83a.09.09,0,0,0-.12.07L72.3,354A.09.09,0,0,0,72.36,354.11Z"/><path class="cls-12" d="M79,357.44a1.6,1.6,0,0,1-.44-.06L72,355.56a1.59,1.59,0,0,1-1.11-2l23.72-90.79a1.68,1.68,0,0,1,.74-1,1.6,1.6,0,0,1,1.24-.16l6.6,1.83a1.6,1.6,0,0,1,1.12,1.93L80.54,356.25a1.68,1.68,0,0,1-.76,1A1.59,1.59,0,0,1,79,357.44Zm-5.24-3.09v0ZM74.1,353l3.9,1.08L101,266,97.11,265Zm-1.34-.37Zm0,0h0Zm29.58-86.26h0Zm-4.87-2.85v0Z"/><path class="cls-11" d="M70.89,340.86l7.31-.94a.09.09,0,0,0,.08-.1L67.71,246.58a.09.09,0,0,0-.11-.08l-7.31.94a.09.09,0,0,0-.08.1l10.58,93.23A.09.09,0,0,0,70.89,340.86Z"/><path class="cls-12" d="M70.9,342.36a1.59,1.59,0,0,1-1.61-1.42L58.71,247.72A1.6,1.6,0,0,1,60.09,246l7.32-.94a1.67,1.67,0,0,1,1.19.33,1.6,1.6,0,0,1,.6,1.08l10.58,93.23a1.6,1.6,0,0,1-1.38,1.76l-7.32.94ZM76.79,340h0ZM61.85,248.75l10.26,90.44,4.52-.58L66.38,248.17Zm-.16-1.38h0Z"/><path class="cls-11" d="M50.79,363.79l7.28-1.14a.09.09,0,0,0,.08-.11L45.1,269.62a.09.09,0,0,0-.11-.08l-7.28,1.14a.09.09,0,0,0-.08.11L50.69,363.7A.09.09,0,0,0,50.79,363.79Z"/><path class="cls-12" d="M50.81,365.28a1.71,1.71,0,0,1-1-.32,1.69,1.69,0,0,1-.62-1.06L36.14,271a1.6,1.6,0,0,1,1.31-1.79l7.31-1.14a1.69,1.69,0,0,1,1.19.29,1.6,1.6,0,0,1,.63,1.08l13.05,92.9a1.6,1.6,0,0,1-1.34,1.8L51,365.27h-.22Zm0-1.5h0ZM39.31,271.95,52,362.08l4.51-.7L43.81,271.25Zm18.54,89.22h0ZM45.24,271h0Z"/><path class="cls-11" d="M67.81,370.37l6.56-2.93a.09.09,0,0,0,0-.12l-37.59-86a.1.1,0,0,0-.13,0l-6.56,2.93a.09.09,0,0,0,0,.12l37.59,86A.1.1,0,0,0,67.81,370.37Z"/><path class="cls-12" d="M67.77,371.87a1.58,1.58,0,0,1-.58-.1,1.68,1.68,0,0,1-.88-.85l-37.59-86a1.6,1.6,0,0,1,.82-2.1l6.55-2.92a1.6,1.6,0,0,1,2.11.8l37.6,86a1.6,1.6,0,0,1-.83,2.1l-6.54,2.92h0A1.63,1.63,0,0,1,67.77,371.87Zm0-1.5h0ZM32,285,68.5,368.42l4-1.78L36,283.2Zm41.73,81.09,0,0Zm-43-80.53h0Zm6.54-2.92h0Z"/><path class="cls-11" d="M59.39,342.51l7.12-.47a.09.09,0,0,0,.09-.08l-4.47-77a.09.09,0,0,0-.1-.07l-7.12.47a.09.09,0,0,0-.09.08l4.47,77A.09.09,0,0,0,59.39,342.51Z"/><path class="cls-12" d="M59.4,344a1.71,1.71,0,0,1-1.08-.4,1.63,1.63,0,0,1-.53-1.1l-4.47-77a1.59,1.59,0,0,1,1.47-1.67l7.14-.47a1.71,1.71,0,0,1,1.17.4,1.57,1.57,0,0,1,.53,1.1l4.47,77a1.6,1.6,0,0,1-1.5,1.67l-7.11.47Zm-.12-3Zm-2.89-74.3,4.31,74.21,4.32-.29-4.31-74.21Zm10,73.83h0Zm-4.28-74.21h0Zm-5.83-1v0Z"/><path class="cls-11" d="M46.35,303.73a.13.13,0,0,1,.13.13c.26,10.89,12.28,19.66,27.07,19.66s26.82-8.77,27.07-19.66a.13.13,0,0,1,.13-.13h16.81L104.37,373H42.75l-13.2-69.27Z"/><path class="cls-12" d="M104.37,374.51H42.75a1.5,1.5,0,0,1-1.47-1.22L28.08,304a1.5,1.5,0,0,1,1.47-1.78h16.8A1.62,1.62,0,0,1,48,303.82c.24,10,11.71,18.2,25.58,18.2s25.34-8.16,25.57-18.2a1.63,1.63,0,0,1,1.63-1.59h16.8A1.5,1.5,0,0,1,119,304l-13.2,69.27A1.5,1.5,0,0,1,104.37,374.51Zm-60.38-3h59.13l12.63-66.27H102.05C100.9,316.43,88.71,325,73.56,325s-27.34-8.59-28.49-19.79H31.36Zm2.36-66.27h0Z"/><polygon class="cls-9" points="35.63 335.66 39.04 353.52 108.08 353.52 111.49 335.66 35.63 335.66"/><polygon class="cls-13" points="287.06 347.75 180.25 339.92 191.81 147.33 303.92 155.55 287.06 347.75"/><path class="cls-14" d="M287.07,348.25h0l-106.81-7.83a.5.5,0,0,1-.46-.53L191.31,147.3a.5.5,0,0,1,.54-.47L304,155a.5.5,0,0,1,.46.54l-16.85,192.2A.5.5,0,0,1,287.07,348.25Zm-106.29-8.79,105.83,7.76L303.37,156l-111.1-8.14Z"/><polygon class="cls-15" points="281.29 341.08 180.71 333.71 191.81 147.33 297.69 155.09 281.29 341.08"/><rect class="cls-16" x="196.59" y="165.2" width="90.34" height="52.9" transform="translate(14.66 -17.16) rotate(4.19)"/><path class="cls-16" d="M284.87,221.83h0l-90.1-6.61a.5.5,0,0,1-.46-.54l3.9-52.76a.5.5,0,0,1,.54-.46l90.1,6.6a.5.5,0,0,1,.46.54l-3.9,52.76A.5.5,0,0,1,284.87,221.83Zm-89.57-7.57,89.1,6.53L288.23,169l-89.1-6.53Z"/><path class="cls-17" d="M289.3,162.84h-.11l-90.1-6.61a1.5,1.5,0,0,1-1.39-1.61,1.52,1.52,0,0,1,1.61-1.39l90.1,6.61a1.5,1.5,0,0,1-.11,3Z"/><rect class="cls-18" x="193.83" y="243.94" width="25.8" height="12.38" transform="translate(18.84 -14.45) rotate(4.19)"/><rect class="cls-18" x="199.24" y="254.93" width="12.38" height="25.8" transform="translate(-76.71 453.13) rotate(-85.81)"/><rect class="cls-18" x="197.93" y="272.63" width="12.38" height="25.8" transform="translate(-95.58 468.23) rotate(-85.81)"/><rect class="cls-18" x="196.62" y="290.34" width="12.38" height="25.8" transform="translate(-114.44 483.34) rotate(-85.81)"/><rect class="cls-18" x="188.6" y="314.75" width="25.8" height="12.38" transform="translate(24 -13.87) rotate(4.19)"/><rect class="cls-18" x="254.67" y="248.4" width="25.8" height="12.38" transform="translate(19.33 -18.88) rotate(4.19)"/><rect class="cls-18" x="260.07" y="259.39" width="12.38" height="25.8" transform="translate(-24.76 517.94) rotate(-85.81)"/><rect class="cls-18" x="258.77" y="277.09" width="12.38" height="25.8" transform="translate(-43.63 533.04) rotate(-85.81)"/><rect class="cls-18" x="257.46" y="294.8" width="12.38" height="25.8" transform="translate(-62.5 548.15) rotate(-85.81)"/><rect class="cls-18" x="249.44" y="319.21" width="25.8" height="12.38" transform="translate(24.49 -18.31) rotate(4.19)"/><rect class="cls-18" x="224.15" y="246.16" width="25.8" height="12.38" transform="translate(19.08 -16.66) rotate(4.19)"/><rect class="cls-18" x="229.56" y="257.15" width="12.38" height="25.8" transform="translate(-50.82 485.43) rotate(-85.81)"/><rect class="cls-18" x="228.25" y="274.86" width="12.38" height="25.8" transform="translate(-69.69 500.53) rotate(-85.81)"/><rect class="cls-18" x="226.94" y="292.56" width="12.38" height="25.8" transform="matrix(0.07, -1, 1, 0.07, -88.56, 515.64)"/><rect class="cls-18" x="218.93" y="316.98" width="25.8" height="12.38" transform="translate(24.25 -16.08) rotate(4.19)"/><rect class="cls-18" x="193.67" y="223.7" width="18.73" height="12.45" transform="translate(17.35 -14.23) rotate(4.19)"/><rect class="cls-18" x="220.64" y="222.29" width="12.45" height="18.73" transform="translate(-20.76 440.97) rotate(-85.81)"/><rect class="cls-18" x="244.46" y="224.03" width="12.45" height="18.73" transform="translate(-0.41 466.35) rotate(-85.81)"/><rect class="cls-18" x="265.14" y="228.91" width="18.73" height="12.45" transform="translate(17.93 -19.44) rotate(4.19)"/><path class="cls-12" d="M201.84,154.45l84.88,6.22,4.53-61.3-11.6-2.5-9.4,1.21h0l-9.28-2.58-7.69,2.07-8.17-2.88-8.79,1.81-7.86-2.94-6.84,1.91-8.15-3-6.92,1a.18.18,0,0,0-.17.16C205.85,101.4,202.49,154.49,201.84,154.45Z"/><path class="cls-12" d="M287.18,161.2l-.5,0-84.88-6.22,0-.5-.43-.23c.64-1.78,3.46-45,4.42-60.56a.68.68,0,0,1,.65-.63l7-1.05,8.12,3L228.44,93l7.88,3,8.78-1.81L253.26,97,260.93,95l9.33,2.6,9.4-1.21.08,0,12,2.59,0,.43ZM202.4,154l83.86,6.15,4.46-60.37-11.09-2.39-9.36,1.21-.18,0L260.93,96l-7.71,2.08L245,95.2,236.24,97l-7.85-2.94L221.56,96l-8.18-3-6.56,1C206,107.38,203.46,147.66,202.4,154Zm4.21-60h0Z"/><path class="cls-19" d="M201.84,154.45l82.71,6.06L289,100.83l-9.43-2.34-9.4,1.21h0l-9.28-2.58-7.69,2.07-8.72-2.92-8.79,1.81-7.32-2.91-6.84,1.91-8.15-3-6.89.77S202.53,154.5,201.84,154.45Z"/><path class="cls-19" d="M285,161l-.5,0-82.71-6.06,0-.51-.41-.23c.57-1.55,3-36.35,4.5-59.37l0-.42,7.42-.83,8.11,3,6.85-1.91,7.34,2.91,8.77-1.81.13,0,8.57,2.87,7.68-2.07,9.33,2.6L279.55,98l9.93,2.47,0,.42ZM202.4,154l81.69,6,4.34-58.76L279.5,99l-9.35,1.21-.18,0-9.15-2.54-7.7,2.08-8.73-2.92-8.8,1.82-7.3-2.9-6.83,1.91-8.19-3-6.35.71C204.62,130.13,203.11,149.81,202.4,154Zm-.53,0h0Z"/><path class="cls-20" d="M265.38,113.23h-.15l-35.18-2.58a2,2,0,1,1,.29-4l35.18,2.58a2,2,0,0,1-.14,4Z"/><path class="cls-20" d="M277.42,125.78h-.11l-8.53-.62a1.5,1.5,0,0,1,.22-3l8.53.63a1.5,1.5,0,0,1-.11,3Z"/><path class="cls-20" d="M239.71,123h-.11l-26.65-2a1.5,1.5,0,0,1,.22-3l26.65,2a1.5,1.5,0,0,1-.11,3Z"/><path class="cls-20" d="M276.76,134.78h-.11l-8.19-.6a1.5,1.5,0,0,1,.22-3l8.19.6a1.5,1.5,0,0,1-.11,3Z"/><path class="cls-20" d="M229.22,131.29h-.11l-16.82-1.23a1.5,1.5,0,0,1,.22-3l16.82,1.23a1.5,1.5,0,0,1-.11,3Z"/><path class="cls-20" d="M276.09,143.77H276l-7.51-.55a1.5,1.5,0,0,1,.22-3l7.51.55a1.5,1.5,0,0,1-.11,3Z"/><path class="cls-20" d="M247.79,141.7h-.11l-36.06-2.64a1.5,1.5,0,0,1,.22-3l36.06,2.64a1.5,1.5,0,0,1-.11,3Z"/><path class="cls-20" d="M275.43,152.77h-.11l-6.86-.5a1.5,1.5,0,0,1,.22-3l6.86.5a1.5,1.5,0,0,1-.11,3Z"/><path class="cls-20" d="M241.27,150.27h-.11L211,148.05a1.5,1.5,0,1,1,.22-3l30.2,2.21a1.5,1.5,0,0,1-.11,3Z"/><path class="cls-21" d="M238.62,188.17a18.57,18.57,0,1,1-17.16-19.81A18.55,18.55,0,0,1,238.62,188.17Z"/><path class="cls-21" d="M220.11,206.82c-.49,0-1,0-1.49-.05a20.07,20.07,0,1,1,1.49.05Zm0-37a17.07,17.07,0,0,0-17,15.76,17,17,0,0,0,15.77,18.21,17.07,17.07,0,0,0,18.28-15.71h0a17,17,0,0,0-15.77-18.21C220.93,169.82,220.51,169.81,220.09,169.81Z"/><path class="cls-19" d="M217.84,194.59h-.06a1.9,1.9,0,0,1-1.45-.74l-4.08-5.32a1.5,1.5,0,1,1,2.38-1.82L217.9,191l10.64-12.11a1.5,1.5,0,1,1,2.25,2l-11.52,13.11A1.89,1.89,0,0,1,217.84,194.59ZM217,192h0Z"/><path class="cls-9" d="M334.44,303.37a4.61,4.61,0,0,1-1.23-2.43c-1.27-5.37-3.09-17.63-3-21.44.06-2.38-.48-4.64-.42-7,.23-8.73,1.08-17.45,1.72-26.16.77-10.44-20.67-12.11-21.27-1.36l-2.09,37.68c-.22,5.4-1.89,9.94-4,14.83C303,300,302,302.63,301,305.22c-1.35,3.4-2.69,6.83-3,10.52-.78,10.83,6.42,46.4,8.78,56.88l52.67,1s9.22-54.82,11.48-66c1.09-5.37.48-9.07-.65-11.89-2.53-6.26-10.93-24.7-10.93-24.7s-10.82-25.25-12.57-30.35-8-6-8-6l-6.53-1.17"/><g class="cls-22"><polygon class="cls-23" points="287.91 155.33 355.57 263.45 285.49 307 217.83 198.88 287.91 155.33"/></g><g class="cls-22"><g class="cls-24"><path class="cls-25" d="M147-57a4.71,4.71,0,0,1,6.47,1.49L214,41.15a4.67,4.67,0,0,1-1.5,6.45L153.93,84a4.71,4.71,0,0,1-6.47-1.49L87-14.14a4.67,4.67,0,0,1,1.5-6.45Zm5.15-6.15L220.29,45.7,149.14,89.92,81-18.91Z"/></g></g><path class="cls-19" d="M253.59,194.08a1.37,1.37,0,0,0,.26.31.84.84,0,0,0,.3.18.8.8,0,0,0,.34,0,1,1,0,0,0,.37-.15.72.72,0,0,0,.38-.58,1.32,1.32,0,0,0-.24-.79l-.31-.44,1.67-1,1,1.66-.35.22-.81-1.3-1,.61.16.24a1.5,1.5,0,0,1,.27,1,1.08,1.08,0,0,1-.55.77,1.35,1.35,0,0,1-.54.2,1.19,1.19,0,0,1-.51,0,1.29,1.29,0,0,1-.46-.25,2,2,0,0,1-.53-.74,2.27,2.27,0,0,1-.1-.27,1.89,1.89,0,0,1,0-.23.62.62,0,0,1,0-.15l.41,0a2.32,2.32,0,0,0,0,.32A1.35,1.35,0,0,0,253.59,194.08Z"/><path class="cls-19" d="M255.32,196.7l.47.76,2.54-1.58-1-.43.16-.36,1.42.59.17.27-3,1.89.46.74-.35.22L255,196.92Z"/><path class="cls-19" d="M257,200.19l4-.41L259.9,198l.35-.22,1.33,2.13-.31.2-4,.44Z"/><path class="cls-19" d="M260.57,202.1a4,4,0,0,1,.78-.39,2,2,0,0,1,.69-.13,1.19,1.19,0,0,1,.57.15,1.3,1.3,0,0,1,.45.45,1.39,1.39,0,0,1,.23.62,1.11,1.11,0,0,1-.11.58,1.87,1.87,0,0,1-.42.54,4.68,4.68,0,0,1-.71.53,4,4,0,0,1-.78.38,2,2,0,0,1-.69.13,1.17,1.17,0,0,1-.57-.15,1.32,1.32,0,0,1-.45-.45,1.27,1.27,0,0,1-.21-.62,1.2,1.2,0,0,1,.13-.59,2,2,0,0,1,.43-.55A4.38,4.38,0,0,1,260.57,202.1Zm1.23,2a5,5,0,0,0,.47-.33l-2.21-.62a1.2,1.2,0,0,0-.29.52.68.68,0,0,0,.1.53.74.74,0,0,0,.73.39A2.89,2.89,0,0,0,261.79,204.06Zm-1-1.56-.23.15-.21.15,2.2.63a1.13,1.13,0,0,0,.26-.5.72.72,0,0,0-.12-.53A.74.74,0,0,0,262,202,3,3,0,0,0,260.82,202.5Z"/><path class="cls-19" d="M263.88,210.52a1.37,1.37,0,0,0,.26.31.82.82,0,0,0,.3.18.78.78,0,0,0,.34,0,1,1,0,0,0,.37-.14.72.72,0,0,0,.37-.58,1.33,1.33,0,0,0-.24-.79l-.31-.44,1.67-1,1,1.66-.35.22-.81-1.3-1,.61.16.24a1.5,1.5,0,0,1,.27,1,1.08,1.08,0,0,1-.55.77,1.33,1.33,0,0,1-.54.2,1.18,1.18,0,0,1-.51,0,1.29,1.29,0,0,1-.46-.25,1.88,1.88,0,0,1-.38-.45,1.91,1.91,0,0,1-.15-.29,2.25,2.25,0,0,1-.09-.27,1.58,1.58,0,0,1,0-.23.62.62,0,0,1,0-.15l.41,0a2.3,2.3,0,0,0,0,.32A1.38,1.38,0,0,0,263.88,210.52Z"/><path class="cls-19" d="M265.91,213.77a1.42,1.42,0,0,0,.27.32,1.08,1.08,0,0,0,.32.19.78.78,0,0,0,.34,0,.74.74,0,0,0,.33-.11.6.6,0,0,0,.33-.53,1.42,1.42,0,0,0-.25-.72l-.19-.31.23-.14,1.8.21-.91-1.45.35-.22,1.2,1.91-.35.22-1.71-.26,0,.08a1.49,1.49,0,0,1,.19.45,1.17,1.17,0,0,1,0,.43.93.93,0,0,1-.15.38,1.06,1.06,0,0,1-.33.31,1.2,1.2,0,0,1-.53.19,1.16,1.16,0,0,1-.51-.06,1.44,1.44,0,0,1-.46-.28,2.07,2.07,0,0,1-.38-.46,2.53,2.53,0,0,1-.23-.45,3,3,0,0,1-.12-.39l.4-.12a1.68,1.68,0,0,0,.09.35A2.19,2.19,0,0,0,265.91,213.77Z"/><path class="cls-19" d="M268.8,215.25a4,4,0,0,1,.78-.39,2,2,0,0,1,.69-.13,1.18,1.18,0,0,1,.57.15,1.32,1.32,0,0,1,.45.45,1.4,1.4,0,0,1,.23.62,1.09,1.09,0,0,1-.11.58,1.87,1.87,0,0,1-.42.54,4.64,4.64,0,0,1-.71.53,4,4,0,0,1-.78.39,2,2,0,0,1-.69.13,1.17,1.17,0,0,1-.57-.15,1.3,1.3,0,0,1-.45-.45,1.27,1.27,0,0,1-.21-.62,1.19,1.19,0,0,1,.13-.59,1.93,1.93,0,0,1,.42-.55A4.38,4.38,0,0,1,268.8,215.25Zm1.23,2a4.6,4.6,0,0,0,.47-.33l-2.21-.62a1.2,1.2,0,0,0-.29.52.69.69,0,0,0,.1.53.74.74,0,0,0,.73.38A2.88,2.88,0,0,0,270,217.21Zm-1-1.56-.23.15-.21.15,2.21.63a1.12,1.12,0,0,0,.26-.5.71.71,0,0,0-.12-.53.74.74,0,0,0-.73-.38A3,3,0,0,0,269,215.65Z"/><path class="cls-19" d="M269.73,219.72l.47.76,2.54-1.58-1-.43.16-.36,1.42.59.17.27-3,1.89.46.74-.35.22-1.17-1.87Z"/><path class="cls-19" d="M275,225.11a4,4,0,0,1,.78-.39,2,2,0,0,1,.69-.13,1.18,1.18,0,0,1,.57.15,1.3,1.3,0,0,1,.45.45,1.39,1.39,0,0,1,.23.62,1.1,1.1,0,0,1-.11.58,1.86,1.86,0,0,1-.42.54,4.62,4.62,0,0,1-.71.53,4,4,0,0,1-.78.38,2,2,0,0,1-.69.13,1.17,1.17,0,0,1-.57-.15,1.32,1.32,0,0,1-.45-.45,1.27,1.27,0,0,1-.21-.62,1.19,1.19,0,0,1,.13-.59,1.93,1.93,0,0,1,.42-.55A4.33,4.33,0,0,1,275,225.11Zm1.23,2a4.75,4.75,0,0,0,.47-.33l-2.21-.62a1.19,1.19,0,0,0-.29.52.68.68,0,0,0,.1.53.74.74,0,0,0,.73.39A2.89,2.89,0,0,0,276.2,227.07Zm-1-1.56-.23.15-.21.15,2.21.63a1.13,1.13,0,0,0,.26-.5.72.72,0,0,0-.12-.53.74.74,0,0,0-.73-.38A3,3,0,0,0,275.22,225.51Z"/><path class="cls-19" d="M277,228.4a4,4,0,0,1,.78-.39,2,2,0,0,1,.69-.13,1.17,1.17,0,0,1,.57.16,1.29,1.29,0,0,1,.45.45,1.37,1.37,0,0,1,.23.62,1.1,1.1,0,0,1-.11.58,1.86,1.86,0,0,1-.42.54,4.63,4.63,0,0,1-.71.53,4,4,0,0,1-.78.38,2,2,0,0,1-.69.13,1.18,1.18,0,0,1-.57-.15,1.32,1.32,0,0,1-.45-.45,1.28,1.28,0,0,1-.21-.62,1.21,1.21,0,0,1,.13-.59,2,2,0,0,1,.43-.55A4.33,4.33,0,0,1,277,228.4Zm1.23,2a4.87,4.87,0,0,0,.47-.33l-2.21-.62a1.19,1.19,0,0,0-.29.52.68.68,0,0,0,.1.53.74.74,0,0,0,.73.39A2.91,2.91,0,0,0,278.25,230.36Zm-1-1.56-.23.15-.21.15,2.21.63a1.13,1.13,0,0,0,.26-.5.71.71,0,0,0-.12-.53.74.74,0,0,0-.73-.38A3,3,0,0,0,277.28,228.8Z"/><path class="cls-19" d="M279.08,231.68a4,4,0,0,1,.78-.39,2,2,0,0,1,.69-.13,1.18,1.18,0,0,1,.57.15,1.3,1.3,0,0,1,.45.45,1.4,1.4,0,0,1,.23.62,1.1,1.1,0,0,1-.11.58,1.86,1.86,0,0,1-.42.54,4.62,4.62,0,0,1-.71.53,4,4,0,0,1-.78.38,2,2,0,0,1-.69.13,1.17,1.17,0,0,1-.57-.15,1.32,1.32,0,0,1-.45-.45,1.27,1.27,0,0,1-.21-.62,1.2,1.2,0,0,1,.13-.59,2,2,0,0,1,.43-.55A4.38,4.38,0,0,1,279.08,231.68Zm1.23,2a4.85,4.85,0,0,0,.47-.33l-2.21-.62a1.2,1.2,0,0,0-.29.52.68.68,0,0,0,.1.53.74.74,0,0,0,.73.39A2.89,2.89,0,0,0,280.31,233.65Zm-1-1.56-.23.15-.21.15,2.21.63a1.13,1.13,0,0,0,.26-.5.72.72,0,0,0-.12-.53.74.74,0,0,0-.73-.38A3,3,0,0,0,279.33,232.09Z"/><path class="cls-19" d="M281.14,235a4,4,0,0,1,.78-.39,2,2,0,0,1,.69-.13,1.19,1.19,0,0,1,.57.15,1.31,1.31,0,0,1,.45.45,1.39,1.39,0,0,1,.23.62,1.1,1.1,0,0,1-.11.58,1.87,1.87,0,0,1-.42.54,4.62,4.62,0,0,1-.71.53,4,4,0,0,1-.78.38,2,2,0,0,1-.69.13,1.17,1.17,0,0,1-.57-.15,1.32,1.32,0,0,1-.45-.45,1.26,1.26,0,0,1-.21-.62A1.2,1.2,0,0,1,280,236a2,2,0,0,1,.43-.55A4.39,4.39,0,0,1,281.14,235Zm1.23,2a5,5,0,0,0,.47-.33l-2.21-.62a1.2,1.2,0,0,0-.29.52.68.68,0,0,0,.1.53.74.74,0,0,0,.73.39A2.89,2.89,0,0,0,282.37,236.94Zm-1-1.56-.23.15-.21.15,2.21.62a1.13,1.13,0,0,0,.26-.5.71.71,0,0,0-.12-.53.74.74,0,0,0-.73-.38A3,3,0,0,0,281.39,235.37Z"/><path class="cls-19" d="M285.26,241.55a4,4,0,0,1,.78-.39,2,2,0,0,1,.69-.12,1.17,1.17,0,0,1,.57.15,1.31,1.31,0,0,1,.45.45,1.4,1.4,0,0,1,.23.62,1.1,1.1,0,0,1-.11.58,1.88,1.88,0,0,1-.42.54,4.75,4.75,0,0,1-.71.53,4,4,0,0,1-.78.39,2,2,0,0,1-.69.13,1.17,1.17,0,0,1-.57-.15,1.31,1.31,0,0,1-.45-.45,1.28,1.28,0,0,1-.21-.62,1.2,1.2,0,0,1,.13-.59,2,2,0,0,1,.43-.55A4.38,4.38,0,0,1,285.26,241.55Zm1.23,2a4.83,4.83,0,0,0,.47-.33l-2.21-.62a1.18,1.18,0,0,0-.29.52.67.67,0,0,0,.1.53.74.74,0,0,0,.73.39A2.87,2.87,0,0,0,286.48,243.51Zm-1-1.56-.23.15-.21.15,2.21.62a1.13,1.13,0,0,0,.26-.5.71.71,0,0,0-.12-.53.74.74,0,0,0-.73-.38A3,3,0,0,0,285.51,241.95Z"/><path class="cls-19" d="M287.31,244.84a4,4,0,0,1,.78-.39,2,2,0,0,1,.69-.12,1.18,1.18,0,0,1,.57.15,1.31,1.31,0,0,1,.45.45,1.4,1.4,0,0,1,.23.62,1.1,1.1,0,0,1-.11.58,1.87,1.87,0,0,1-.42.54,4.64,4.64,0,0,1-.71.53,4,4,0,0,1-.78.39,2,2,0,0,1-.69.13,1.17,1.17,0,0,1-.57-.15,1.31,1.31,0,0,1-.45-.45,1.27,1.27,0,0,1-.21-.62,1.2,1.2,0,0,1,.13-.59,1.94,1.94,0,0,1,.43-.55A4.38,4.38,0,0,1,287.31,244.84Zm1.23,2a4.71,4.71,0,0,0,.47-.33l-2.21-.62a1.2,1.2,0,0,0-.29.52.69.69,0,0,0,.1.53.74.74,0,0,0,.73.39A2.88,2.88,0,0,0,288.54,246.8Zm-1-1.56-.23.15-.21.15,2.21.62a1.12,1.12,0,0,0,.26-.5.71.71,0,0,0-.12-.53.74.74,0,0,0-.73-.38A3,3,0,0,0,287.56,245.24Z"/><path class="cls-19" d="M289.37,248.12a4,4,0,0,1,.78-.39,2,2,0,0,1,.69-.13,1.18,1.18,0,0,1,.57.15,1.32,1.32,0,0,1,.45.45,1.39,1.39,0,0,1,.23.62,1.09,1.09,0,0,1-.11.58,1.87,1.87,0,0,1-.42.54,4.68,4.68,0,0,1-.71.53,4,4,0,0,1-.78.39,2,2,0,0,1-.69.13,1.17,1.17,0,0,1-.57-.15,1.3,1.3,0,0,1-.45-.45,1.27,1.27,0,0,1-.21-.62,1.2,1.2,0,0,1,.13-.59,2,2,0,0,1,.42-.55A4.39,4.39,0,0,1,289.37,248.12Zm1.23,2a4.6,4.6,0,0,0,.47-.33l-2.21-.62a1.2,1.2,0,0,0-.29.52.68.68,0,0,0,.1.53.74.74,0,0,0,.73.38A2.89,2.89,0,0,0,290.6,250.09Zm-1-1.56-.23.15-.21.15,2.21.63a1.12,1.12,0,0,0,.26-.5.72.72,0,0,0-.12-.53.74.74,0,0,0-.73-.38A3,3,0,0,0,289.62,248.52Z"/><path class="cls-19" d="M290.3,252.59l.47.76,2.54-1.58-1-.43.16-.36,1.42.59.17.27-3,1.89.46.74-.35.22L290,252.81Z"/><path class="cls-19" d="M237.19,205.08l.4-.2v0l-.46,0-.93,0-.06-.1.42-.85.23-.39v0l-.34.28L234.55,205l-.2-.32,2.79-1.73.19.3-.65,1.32h0l1.46,0,.19.3-2.79,1.73-.21-.33Z"/><path class="cls-19" d="M237.93,208.66l-.67-1.07-.93.23-.21-.33,3.37-.8.24.39-2.2,2.67-.22-.34Zm-.32-1.14.54.87,1.06-1.22,0,0Z"/><path class="cls-19" d="M241,209.13q.12.13.26.32l.24.35a1.77,1.77,0,0,1,.18.37,1,1,0,0,1,0,.37.8.8,0,0,1-.11.35.92.92,0,0,1-.31.3.85.85,0,0,1-.32.13,1,1,0,0,1-.54-.07l-.17-.09-.86,1.56-.24-.39.82-1.42-.31-.49-1.23.76-.21-.33Zm.22.86-.07-.11-.07-.11-.07-.09-.06-.06-1,.64.19.31a.86.86,0,0,0,.42.37.58.58,0,0,0,.53-.08.55.55,0,0,0,.26-.37A.67.67,0,0,0,241.21,210Z"/><path class="cls-19" d="M242.75,211.89,244,214l-.73.45-.18-.29.44-.27-.36-.58-2.2,1.37.27.44-.29.18-.75-1.2.29-.18.27.44,2.2-1.37-.36-.57-.44.27-.18-.29Z"/><path class="cls-19" d="M243.6,217.72l-.67-1.07-.93.23-.21-.33,3.37-.8.24.39-2.2,2.67-.22-.34Zm-.31-1.14.54.87,1.05-1.22,0,0Z"/><path class="cls-19" d="M248.54,221.2a4.06,4.06,0,0,1,.26.32l.24.35a1.71,1.71,0,0,1,.18.37.93.93,0,0,1,0,.37.8.8,0,0,1-.11.35.92.92,0,0,1-.31.3.86.86,0,0,1-.32.13,1,1,0,0,1-.3,0,1,1,0,0,1-.25-.07l-.17-.09-.86,1.56-.24-.38.82-1.42-.31-.49-1.23.76-.21-.33Zm.22.86-.07-.11-.07-.11-.07-.09-.06-.06-1,.64.19.31a.87.87,0,0,0,.42.37.59.59,0,0,0,.53-.08.55.55,0,0,0,.26-.37A.67.67,0,0,0,248.76,222.06Z"/><path class="cls-19" d="M248.93,224.86a2.3,2.3,0,0,1,1.22-.42,1,1,0,0,1,.84.52,1.15,1.15,0,0,1,.19.53,1,1,0,0,1-.1.49,1.54,1.54,0,0,1-.35.45,3.6,3.6,0,0,1-.56.42,2.31,2.31,0,0,1-1.22.42,1,1,0,0,1-.85-.53,1.11,1.11,0,0,1-.19-.53,1,1,0,0,1,.1-.49,1.57,1.57,0,0,1,.35-.45A3.66,3.66,0,0,1,248.93,224.86Zm.22.35a3.52,3.52,0,0,0-.42.3,1.46,1.46,0,0,0-.3.33.8.8,0,0,0-.13.36.6.6,0,0,0,.1.37.63.63,0,0,0,.59.33,2.16,2.16,0,0,0,1-.38,3.72,3.72,0,0,0,.42-.3,1.45,1.45,0,0,0,.3-.33.77.77,0,0,0,.12-.36.62.62,0,0,0-.1-.38.62.62,0,0,0-.59-.32A2.19,2.19,0,0,0,249.15,225.21Z"/><path class="cls-19" d="M250.08,228.91a1.48,1.48,0,0,0,.06.33,1.31,1.31,0,0,0,.15.33,1.33,1.33,0,0,0,.18.23.69.69,0,0,0,.21.15.52.52,0,0,0,.23,0,.48.48,0,0,0,.24-.08.41.41,0,0,0,.2-.28,1.29,1.29,0,0,0,0-.39c0-.14,0-.29-.07-.45a2.46,2.46,0,0,1,0-.46,1.16,1.16,0,0,1,.08-.43.73.73,0,0,1,.31-.35.78.78,0,0,1,.33-.12.76.76,0,0,1,.34,0,1,1,0,0,1,.32.2,1.53,1.53,0,0,1,.29.34,3,3,0,0,1,.24.46,1.39,1.39,0,0,1,.1.37h0l-.64.4-.18-.29.43-.26c0-.08-.06-.16-.1-.24a2.35,2.35,0,0,0-.14-.26,1,1,0,0,0-.18-.22.67.67,0,0,0-.2-.12.45.45,0,0,0-.2,0,.37.37,0,0,0-.18.06.4.4,0,0,0-.19.27,1.36,1.36,0,0,0,0,.39c0,.14,0,.29.06.45a2.75,2.75,0,0,1,0,.47,1.2,1.2,0,0,1-.08.43.7.7,0,0,1-.3.34.92.92,0,0,1-.36.14.85.85,0,0,1-.36,0,1,1,0,0,1-.35-.2,1.57,1.57,0,0,1-.31-.36,2,2,0,0,1-.16-.3,2.25,2.25,0,0,1-.09-.28,1.89,1.89,0,0,1-.05-.25,1.75,1.75,0,0,1,0-.18h0l.65-.4.18.29Z"/><path class="cls-19" d="M252,231.92a1.54,1.54,0,0,0,.06.33,1.31,1.31,0,0,0,.15.33,1.33,1.33,0,0,0,.18.23.7.7,0,0,0,.21.15.52.52,0,0,0,.23,0,.48.48,0,0,0,.24-.08.42.42,0,0,0,.2-.28,1.26,1.26,0,0,0,0-.39c0-.14,0-.29-.06-.45a2.46,2.46,0,0,1,0-.46,1.18,1.18,0,0,1,.08-.43.74.74,0,0,1,.31-.35.78.78,0,0,1,.34-.12.76.76,0,0,1,.34,0,1,1,0,0,1,.32.2,1.55,1.55,0,0,1,.28.34,3.09,3.09,0,0,1,.24.45,1.42,1.42,0,0,1,.1.37h0l-.64.4-.18-.29.43-.26a2.51,2.51,0,0,0-.1-.24,2.21,2.21,0,0,0-.14-.26.94.94,0,0,0-.18-.22.67.67,0,0,0-.2-.12.46.46,0,0,0-.2,0,.37.37,0,0,0-.18.05.41.41,0,0,0-.19.27,1.36,1.36,0,0,0,0,.39c0,.14,0,.29.06.45a2.66,2.66,0,0,1,0,.47,1.22,1.22,0,0,1-.08.43.7.7,0,0,1-.3.34.93.93,0,0,1-.36.14.84.84,0,0,1-.37,0,1,1,0,0,1-.34-.2,1.57,1.57,0,0,1-.31-.36,1.85,1.85,0,0,1-.16-.3,2.25,2.25,0,0,1-.09-.28,2.08,2.08,0,0,1-.05-.25c0-.08,0-.14,0-.18h0l.65-.4.18.29Z"/><path class="cls-19" d="M256.14,233.28l1,1.63-.29.18-.81-1.3-.91.57.75,1.2-.29.18-.75-1.2-1,.62.83,1.32-.29.18-1-1.65Z"/><path class="cls-19" d="M258,236.24l.21.33-2.49,1.55.7,1.12.69-.43.18.29-1,.61L255.2,238Z"/><path class="cls-19" d="M259.87,239.25l.21.33-2.49,1.55.7,1.12.69-.43.18.29-1,.61L257.08,241Z"/><path class="cls-19" d="M261.69,242.15l1.19,1.9-.29.18-.5-.79-2.2,1.37.49.79-.29.18-1.19-1.91.29-.18.49.79,2.2-1.37-.49-.79Z"/><g class="cls-26"><g class="cls-27"><g class="cls-28"><g class="cls-29"><g class="cls-30"><g class="cls-31"><polygon class="cls-32" points="274.92 176.81 286.01 194.53 270.22 204.33 259.14 186.62 274.92 176.81"/></g></g><g class="cls-33"><g class="cls-30"><path class="cls-34" d="M274.62,200.08l-2.48-4-1,.64a1.19,1.19,0,0,1-1.63-.47l-3.41-5.46a1.33,1.33,0,0,1-.18-1,1.07,1.07,0,0,1,.48-.68l1-.64-2.48-4,1.64-1,2.48,4,.35-.21-2.48-4,1.65-1,2.48,4,.35-.22-2.48-4,1.64-1,2.48,4,1-.64a1.19,1.19,0,0,1,1.63.47l3.41,5.45a1.33,1.33,0,0,1,.18,1,1.07,1.07,0,0,1-.48.67l-1,.64,2.48,4-1.64,1-2.48-4-.35.21,2.48,4-1.64,1-2.48-4-.35.22,2.48,4Zm-7-9.81,3.05,4.88,6.89-4.28L274.49,186l-2,1.24h0l-.92.57h0Z"/></g></g><g class="cls-30"><rect class="cls-34" x="261.07" y="184.18" width="15.7" height="0.8" transform="translate(-56.9 169.57) rotate(-31.83)"/><rect class="cls-34" x="268.8" y="195.9" width="15.7" height="0.8" transform="translate(-61.93 175.41) rotate(-31.83)"/></g></g></g></g></g><g class="cls-35"><g class="cls-36"><path class="cls-37" d="M281.49,213.92a.59.59,0,0,1,.17-.53c.09-.08.17-.1.55-.13a8.28,8.28,0,0,0,4-1.29,8.11,8.11,0,0,0,2.82-2.86,4,4,0,0,1,.37-.54.61.61,0,0,1,.5,0,.58.58,0,0,1,.3.55,2.9,2.9,0,0,1-.27.55,9.75,9.75,0,0,1-2,2.41,11.64,11.64,0,0,1-2.1,1.35,9.75,9.75,0,0,1-3.09.84c-.65.07-.95,0-1-.09l-.07-.08a.46.46,0,0,1-.08-.17m-.18-2.18a.52.52,0,0,1,.32-.62l.62-.08a6.23,6.23,0,0,0,3.21-1.23,6,6,0,0,0,1.66-1.84c.34-.55.41-.61.69-.59a.55.55,0,0,1,.46.61,6.86,6.86,0,0,1-.93,1.48,7.39,7.39,0,0,1-4.62,2.58c-.94.14-1.31.06-1.41-.31m-.2-2.24a.6.6,0,0,1,.16-.48c.07-.07.19-.1.59-.13a4.18,4.18,0,0,0,3.38-2.07c.34-.55.43-.62.76-.53a.39.39,0,0,1,.29.22c.15.24.11.44-.19.93a4.94,4.94,0,0,1-1.72,1.71,4.77,4.77,0,0,1-2.31.77c-.53,0-.7,0-.86-.17a.57.57,0,0,1-.1-.24m-.19-2.09a.62.62,0,0,1,.14-.45c.11-.12.24-.16.59-.16a2.19,2.19,0,0,0,1.86-1.15,2.13,2.13,0,0,1,.2-.33.53.53,0,0,1,.75,0c.17.18.16.38,0,.75a3.08,3.08,0,0,1-2.82,1.75c-.42,0-.66-.16-.71-.44"/><g class="cls-38"><polygon class="cls-5" points="279.24 200.85 276.18 215.15 290.53 218.21 293.59 203.91 279.24 200.85"/><g class="cls-39"><polygon class="cls-5" points="287.4 200.54 293.88 210.89 281.79 218.4 275.32 208.05 287.4 200.54"/></g></g></g></g><path class="cls-40" d="M288.34,283.38A8.48,8.48,0,1,1,291,271.74a8.49,8.49,0,0,1-2.67,11.64"/><g class="cls-41"><polygon class="cls-7" points="-1348.95 -172.8 -1475 415.54 741.92 887.18 867.97 298.84 -1348.95 -172.8"/><g class="cls-42"><polygon class="cls-7" points="287.18 261.67 298.39 279.59 280.5 290.71 269.28 272.79 287.18 261.67"/></g></g><path class="cls-43" d="M297,281.39a8.5,8.5,0,0,0-4.88-3.67,8.66,8.66,0,0,0-1.21-.25l.91,1.45a8.62,8.62,0,0,1-.42,1l-1.6-2.55a8.48,8.48,0,0,0-1,.06l2.11,3.38a8.35,8.35,0,0,1-.57.78l-2.49-4a8.36,8.36,0,0,0-.89.26l2.76,4.4a8.46,8.46,0,0,1-3.93,2.15l-2.49-4a8.43,8.43,0,0,0-.57.78l2.11,3.38a8.46,8.46,0,0,1-1,.06l-1.59-2.55a8.49,8.49,0,0,0-.42,1l.91,1.45a8.52,8.52,0,0,1-1.21-.25,8.46,8.46,0,1,0,15.5-2.93"/><g class="cls-44"><polygon class="cls-9" points="-1348.95 -172.8 -1475 415.54 741.92 887.18 867.97 298.84 -1348.95 -172.8"/><g class="cls-45"><polygon class="cls-9" points="293.32 271.48 304.44 289.25 286.54 300.37 275.43 282.6 293.32 271.48"/></g></g><path class="cls-19" d="M248.85,199.86a.81.81,0,0,0,.15.18.47.47,0,0,0,.18.1.43.43,0,0,0,.2,0,.55.55,0,0,0,.22-.08.42.42,0,0,0,.22-.34.78.78,0,0,0-.14-.46l-.18-.26,1-.61.61,1-.21.13-.48-.76-.58.36.1.14a.88.88,0,0,1,.16.59.63.63,0,0,1-.32.45.8.8,0,0,1-.32.12.71.71,0,0,1-.3,0,.8.8,0,0,1-.27-.15,1.09,1.09,0,0,1-.22-.26,1.05,1.05,0,0,1-.09-.17,1.36,1.36,0,0,1-.06-.16,1.06,1.06,0,0,1,0-.13.44.44,0,0,1,0-.09l.24,0a1.57,1.57,0,0,0,0,.19A.8.8,0,0,0,248.85,199.86Z"/><path class="cls-19" d="M250,201.62l.28.45,1.5-.93-.6-.25.09-.21.84.35.1.16-1.79,1.11.27.44-.21.13-.69-1.1Z"/><path class="cls-19" d="M251.15,203.9l2.33-.24-.64-1,.21-.13.78,1.25-.18.12-2.35.26Z"/><path class="cls-19" d="M253.37,205.24a2.44,2.44,0,0,1,.46-.23,1.21,1.21,0,0,1,.4-.07.69.69,0,0,1,.34.09.77.77,0,0,1,.26.27.82.82,0,0,1,.13.36.64.64,0,0,1-.06.34,1.09,1.09,0,0,1-.25.32,2.77,2.77,0,0,1-.42.31,2.33,2.33,0,0,1-.46.23,1.15,1.15,0,0,1-.4.07.68.68,0,0,1-.34-.09.85.85,0,0,1-.39-.63.7.7,0,0,1,.08-.35,1.12,1.12,0,0,1,.25-.32A2.56,2.56,0,0,1,253.37,205.24Zm.72,1.15.28-.2-1.3-.36a.72.72,0,0,0-.17.31.41.41,0,0,0,.06.31.43.43,0,0,0,.43.23A1.69,1.69,0,0,0,254.09,206.39Zm-.58-.92-.13.09-.12.09,1.3.37a.67.67,0,0,0,.15-.29.42.42,0,0,0-.07-.31.43.43,0,0,0-.43-.23A1.75,1.75,0,0,0,253.52,205.47Z"/><path class="cls-19" d="M263.08,231.11l0,0,1.63-.41.12.19-1.93.46-.14-.22,1.25-1.53.13.21Z"/><path class="cls-19" d="M264.32,232.63l-.38-.61-.53.13-.12-.19,1.93-.46.14.22-1.26,1.53-.12-.2Zm-.18-.65.31.5.6-.7,0,0Z"/><path class="cls-19" d="M265.83,232.5l.12.19-1.43.89.4.64.4-.25.11.17-.56.35-.62-1Z"/><path class="cls-19" d="M266.64,233.79l.68,1.09-.17.1-.28-.45-1.26.78.28.45-.17.1-.68-1.09.17-.1.28.45,1.26-.78-.28-.45Z"/><path class="cls-19" d="M267.52,235.19l.13.17.1.16a1,1,0,0,1,.16.38.64.64,0,0,1,0,.33.74.74,0,0,1-.18.28,1.6,1.6,0,0,1-.3.24,1.69,1.69,0,0,1-.33.16.82.82,0,0,1-.34,0,.72.72,0,0,1-.33-.11,1,1,0,0,1-.29-.31l0-.08-.06-.1-.05-.1,0-.07Zm.07.44-.05-.08-.06-.07-1.27.79,0,0,0,0,0,0,0,0a.68.68,0,0,0,.22.24.49.49,0,0,0,.25.07.66.66,0,0,0,.26-.05l.26-.13.21-.16a.67.67,0,0,0,.16-.2.51.51,0,0,0,0-.25A.68.68,0,0,0,267.59,235.63Z"/><path class="cls-19" d="M261.43,231.33l.83,1.33-.47.29-.12-.19.28-.17-.23-.37-1.41.88.17.28-.19.12-.48-.77.19-.12.18.28,1.41-.88-.23-.37-.28.17-.12-.19Z"/><path class="cls-19" d="M262.22,234.74l-.5-.8-.82.51-.13-.21,1.79-1.11.13.21-.78.49.5.8.78-.49.13.21-1.79,1.11-.13-.21Z"/><path class="cls-19" d="M263.69,235l.17.21.16.22a1.1,1.1,0,0,1,.11.24.58.58,0,0,1,0,.24.49.49,0,0,1-.07.22.59.59,0,0,1-.2.19.56.56,0,0,1-.21.08h-.19l-.16,0-.11-.06-.55,1-.16-.25.53-.91-.2-.32-.79.49-.13-.21Zm.14.55,0-.07,0-.07,0-.06,0,0-.66.41.13.2a.55.55,0,0,0,.27.24.37.37,0,0,0,.34-.05.35.35,0,0,0,.17-.24A.44.44,0,0,0,263.83,235.54Z"/><path class="cls-19" d="M265.38,237.64l.13.2-1.2.74a1,1,0,0,1-.31.13.62.62,0,0,1-.27,0,.56.56,0,0,1-.23-.12.9.9,0,0,1-.19-.22.8.8,0,0,1-.15-.56.65.65,0,0,1,.33-.43l1.24-.77.13.21-1.14.71a1,1,0,0,0-.21.17.44.44,0,0,0-.1.17.35.35,0,0,0,0,.18.77.77,0,0,0,.09.2.41.41,0,0,0,.3.22.72.72,0,0,0,.43-.14Z"/><path class="cls-19" d="M267.39,240.82a3.8,3.8,0,0,1,.74-.36,1.9,1.9,0,0,1,.65-.12,1.1,1.1,0,0,1,.54.15,1.22,1.22,0,0,1,.42.43,1.32,1.32,0,0,1,.21.58,1,1,0,0,1-.1.54,1.75,1.75,0,0,1-.4.51,4.45,4.45,0,0,1-.67.5,3.72,3.72,0,0,1-.74.36,1.91,1.91,0,0,1-.65.12,1.11,1.11,0,0,1-.54-.15,1.22,1.22,0,0,1-.42-.43,1.2,1.2,0,0,1-.2-.59,1.12,1.12,0,0,1,.12-.56,1.8,1.8,0,0,1,.4-.52A4,4,0,0,1,267.39,240.82Zm1.16,1.85a4.37,4.37,0,0,0,.44-.31l-2.08-.58a1.12,1.12,0,0,0-.27.49.64.64,0,0,0,.1.5.7.7,0,0,0,.69.36A2.73,2.73,0,0,0,268.54,242.66Zm-.92-1.47-.21.14-.19.14,2.08.59a1.05,1.05,0,0,0,.25-.47.66.66,0,0,0-.11-.5.69.69,0,0,0-.69-.36A2.78,2.78,0,0,0,267.62,241.19Z"/><path class="cls-19" d="M268,244.64l.45.71,2.39-1.49-1-.41.15-.34,1.34.55.16.25-2.86,1.78.44.7-.33.2-1.1-1.76Z"/><path class="cls-19" d="M273.56,247l.05.37-4.79.68-.05-.37Z"/><path class="cls-19" d="M271.72,250.7a1.31,1.31,0,0,0,.24.29.76.76,0,0,0,.29.17.72.72,0,0,0,.32,0,.92.92,0,0,0,.35-.14.68.68,0,0,0,.35-.54,1.25,1.25,0,0,0-.23-.74l-.29-.41,1.57-1,1,1.56-.33.2-.76-1.22-.92.57.15.22a1.41,1.41,0,0,1,.25,1,1,1,0,0,1-.52.73,1.29,1.29,0,0,1-.51.19,1.13,1.13,0,0,1-.48,0,1.24,1.24,0,0,1-.43-.24,1.8,1.8,0,0,1-.36-.42,1.77,1.77,0,0,1-.14-.27,2.15,2.15,0,0,1-.09-.25,1.41,1.41,0,0,1,0-.21.56.56,0,0,1,0-.15l.39,0a2.23,2.23,0,0,0,0,.3A1.3,1.3,0,0,0,271.72,250.7Z"/><path class="cls-19" d="M274.18,251.67a3.73,3.73,0,0,1,.74-.36,1.86,1.86,0,0,1,.65-.12,1.1,1.1,0,0,1,.54.14,1.25,1.25,0,0,1,.42.43,1.31,1.31,0,0,1,.21.58,1,1,0,0,1-.1.54,1.78,1.78,0,0,1-.4.51,4.5,4.5,0,0,1-.67.5,3.78,3.78,0,0,1-.74.36,1.88,1.88,0,0,1-.65.12,1.09,1.09,0,0,1-.54-.15,1.21,1.21,0,0,1-.42-.43,1.2,1.2,0,0,1-.2-.59,1.12,1.12,0,0,1,.12-.56,1.77,1.77,0,0,1,.4-.52A4.08,4.08,0,0,1,274.18,251.67Zm1.16,1.85a4.55,4.55,0,0,0,.44-.31l-2.08-.58a1.14,1.14,0,0,0-.27.49.65.65,0,0,0,.1.5.7.7,0,0,0,.69.36A2.72,2.72,0,0,0,275.33,253.52Zm-.92-1.47-.21.14-.19.14,2.07.59a1.05,1.05,0,0,0,.25-.47.66.66,0,0,0-.11-.5.69.69,0,0,0-.69-.36A2.79,2.79,0,0,0,274.42,252Z"/><path class="cls-46" d="M329,255.71l-.75-1.22-2.15,1.31.75,1.22a1.33,1.33,0,0,0,1.86.64h0c.7-.43.76-1.16.27-1.94"/><path class="cls-46" d="M326.65,263.05l6-3.65,2.72,4.43-.94.57L332.33,261l-1.55.95,1.84,3-.94.57-1.84-3-1.6,1,1.56,2.53a7.32,7.32,0,0,0,4.61-.79c7.68-4.69,4.34-17.74-2.92-23.11A16.32,16.32,0,0,0,320.07,239l.37.6L318,241.13l1.75,2.85,2.48-1.52.65,1-6,3.65-.65-1,2.52-1.54L317,241.72l-2.52,1.54-.65-1,4.93-3a16.21,16.21,0,0,0-10.1,6.29c-4.32,5.82,9.86,18.3,19.71,20.34Zm-4.2-12.15-2.38,1.45-.65-1.06,2.35-1.44,2.16-4.58.77,1.25-1.61,3.27,3.67.08.74,1.2Zm7,7.8c-1.34.82-2.7.17-3.51-1.14l-.73-1.19-1.92,1.17-.65-1,6-3.65,1.45,2.35c.86,1.4.6,2.75-.6,3.49Z"/><path class="cls-9" d="M330.4,300.15c-2.85,8.24-25.11,8.32-24.76,1.76.45-8.51,4-46.28,4-47.72.49-17.27,23.4-16.28,21.61,2.07Z"/><path class="cls-47" d="M327.85,261.59l.85-10.19c.33-4-3.07-7.49-7.59-7.81s-8.47,2.66-8.81,6.65l-.84,10Z"/><path class="cls-48" d="M330.87,276.34l4.07-2.53s14.67,7.15,7,5.83c-5.24-.9-7.29,6.06-7.62,10a13.26,13.26,0,0,0,.66,6,4.78,4.78,0,0,0,1.28,1.86c1.26,1.1,1.65,1.54,1.4,3.34-.19,1.39-1.48,3.31-3.17,2.52-1.06-.5-1.85-4.76-3-11.17a33.56,33.56,0,0,1-.8-6.46C330.65,283,330.81,278.94,330.87,276.34Z"/><rect class="cls-11" x="77.53" y="354.35" width="126.24" height="15.89" rx="5.66" ry="5.66" transform="translate(281.29 724.59) rotate(180)"/><path class="cls-12" d="M198.1,371.74H83.19A7.17,7.17,0,0,1,76,364.58V360a7.17,7.17,0,0,1,7.16-7.16H198.1a7.17,7.17,0,0,1,7.16,7.16v4.57A7.17,7.17,0,0,1,198.1,371.74ZM83.19,355.85A4.17,4.17,0,0,0,79,360v4.57a4.17,4.17,0,0,0,4.16,4.16H198.1a4.17,4.17,0,0,0,4.16-4.16V360a4.17,4.17,0,0,0-4.16-4.16Z"/><path class="cls-11" d="M85.09,374.7H196.2a7.56,7.56,0,0,1,7.56,7.56v4a2.27,2.27,0,0,1-2.27,2.27H79.79a2.27,2.27,0,0,1-2.27-2.27v-4a7.56,7.56,0,0,1,7.56-7.56Z" transform="translate(281.29 763.2) rotate(180)"/><path class="cls-12" d="M196.2,390H85.09A9.07,9.07,0,0,1,76,380.94v-4a3.77,3.77,0,0,1,3.77-3.77h121.7a3.77,3.77,0,0,1,3.77,3.77v4A9.07,9.07,0,0,1,196.2,390ZM79.79,376.2A.78.78,0,0,0,79,377v4A6.07,6.07,0,0,0,85.09,387H196.2a6.07,6.07,0,0,0,6.06-6.06v-4a.78.78,0,0,0-.77-.77Z"/><path class="cls-11" d="M88.76,344.58c-4.56.9-10.6,3.1-11.24,7.45-.31,2.1-1.43,4.33-.14,6A5.29,5.29,0,0,0,80,359.77c7,2.31,14.19-4.45,21.58-3.73,6.08.59,10.66,6.07,16.63,7.31,8.23,1.7,15.89-5,24.28-5.65,7.78-.62,15,4,22.69,5.15a14,14,0,0,0,7.89-.71c1.5-.68,2.79-1.75,4.27-2.48,5.28-2.63,11.59-.58,17.14,1.44,2.85,1,5.9,2.07,8.84,1.37,4.43-1-.58-17.39-5.36-18.33C189.36,342.45,93.32,343.67,88.76,344.58Z"/><path class="cls-12" d="M121,365.13a15,15,0,0,1-3.06-.31,26.62,26.62,0,0,1-8.24-3.77c-2.75-1.66-5.34-3.23-8.24-3.51s-6.07.83-9.3,2c-4.06,1.5-8.27,3.06-12.6,1.64A6.67,6.67,0,0,1,76.18,359c-1.38-1.83-.87-4-.46-5.66.13-.53.25-1,.31-1.49.82-5.59,8.14-7.85,12.43-8.7h0c5.63-1.11,101.27-2.11,109.78-.44,4.71.93,8.19,10.88,8.28,15.92.07,4-1.76,5.08-2.87,5.34-3.51.83-7.09-.47-9.7-1.42-5.78-2.1-11.35-3.8-16-1.51a20.25,20.25,0,0,0-1.84,1.09,19.94,19.94,0,0,1-2.48,1.42,15.14,15.14,0,0,1-8.74.83,55.93,55.93,0,0,1-9.26-2.55c-4.47-1.51-8.7-2.94-13.08-2.59-3.31.27-6.66,1.6-9.9,2.88C128.93,363.58,125,365.13,121,365.13Zm-20.53-10.64c.43,0,.85,0,1.28.06,3.57.35,6.58,2.17,9.5,3.93a24,24,0,0,0,7.29,3.4c4.31.89,8.58-.8,13.09-2.59,3.44-1.37,7-2.78,10.76-3.08,5-.4,9.72,1.19,14.28,2.74a53.71,53.71,0,0,0,8.76,2.43,12.3,12.3,0,0,0,7-.59,17.42,17.42,0,0,0,2.1-1.21,22.69,22.69,0,0,1,2.12-1.25c5.66-2.82,12.15-.87,18.32,1.37,2.93,1.06,5.55,1.9,8,1.32.19,0,.58-.68.55-2.36-.1-5.26-3.72-12.61-5.86-13-8.46-1.66-104.31-.42-108.62.44-2.21.44-9.46,2.18-10,6.19-.09.6-.23,1.19-.37,1.76-.37,1.53-.55,2.5-.06,3.15a3.94,3.94,0,0,0,1.9,1.19c3.34,1.09,6.88-.21,10.63-1.6C94.11,355.63,97.21,354.49,100.45,354.49Z"/><path class="cls-11" d="M77.53,339.89v-.06c0-.72.06-1.44.13-2.16,2-20.86,25.21-42,63-42,44,0,62.71,22.69,63.11,44.23,0,0,0,.06,0,.09v5.56a4.08,4.08,0,0,1-4.07,4.06H81.6a4.08,4.08,0,0,1-4.07-4.06h0V340h0A.48.48,0,0,1,77.53,339.89Z"/><path class="cls-12" d="M81.6,351.07A5.57,5.57,0,0,1,76,345.51V340c0-.06,0-.16,0-.23,0-.64.06-1.38.14-2.19,2-21,25.27-43.4,64.47-43.4,20.45,0,37.34,5,48.84,14.38,9.93,8.12,15.53,19.22,15.77,31.26,0,.06,0,.14,0,.18v5.56a5.57,5.57,0,0,1-5.57,5.56ZM79,340v5.48a2.57,2.57,0,0,0,2.57,2.56H199.69a2.57,2.57,0,0,0,2.57-2.56V340c-.55-29.6-31.34-42.82-61.61-42.82-37.43,0-59.61,21-61.48,40.68-.07.74-.11,1.41-.13,2.05C79,339.9,79,340,79,340Zm-1.49-.14L76,339.73Z"/><path class="cls-11" d="M202.34,370.24H79c-1.12,0-1.22.91-1.22,2s.1,2,1.22,2l3.26.07a3,3,0,0,1,.41,1.71l.23,7.12a1.39,1.39,0,0,0,.44,1.19.94.94,0,0,0,1.19-.32,2.73,2.73,0,0,0,.42-1.26l.6-3.91a3,3,0,0,1,.33-1.14,1,1,0,0,1,1-.52,2.16,2.16,0,0,1,.65.33c1.63.95,3.76-1.54,5-2.47a4.38,4.38,0,0,1,.72-.46,3.87,3.87,0,0,1,.95-.32h41.44c.89.08,3.11,1.26,3.17,2.15a12.19,12.19,0,0,1-.36,2.64,14.22,14.22,0,0,0,0,3.29c.06.63.25,1.42.87,1.52s1.1-.64,1.33-1.27l1.32-3.54a.73.73,0,0,1,.95-.07c.3.18.52.46.82.64.59.36,1.57.08,1.61-.61,0-.28-.12-.56-.12-.84a.92.92,0,0,1,1.47-.63,3.75,3.75,0,0,1,0,2,1.89,1.89,0,0,0,.5,1.88,1.47,1.47,0,0,0,1.77-.26,4.25,4.25,0,0,0,.94-1.67l.55-1.46a1.9,1.9,0,0,1,1.3-1.38c1.24-.57,4.91-2.39,4.91-2.39h45.68a2,2,0,1,0,0-4.06Z"/><path class="cls-12" d="M83.67,386a2.2,2.2,0,0,1-1.17-.33,2.79,2.79,0,0,1-1.14-2.41l-.23-7.12c0-.07,0-.17,0-.28l-2.19,0c-1.78,0-2.69-1.19-2.69-3.53s.92-3.53,2.72-3.53H202.34a3.53,3.53,0,1,1,0,7.06H157c-.92.46-3.59,1.78-4.64,2.26a2.67,2.67,0,0,0-.37.19s-.1.24-.14.35l-.55,1.46A5.58,5.58,0,0,1,150,382.3a2.93,2.93,0,0,1-3.66.4,2.7,2.7,0,0,1-1.06-1.54,2.73,2.73,0,0,1-2.3-.22l-.06,0-.84,2.26c-.89,2.39-2.52,2.3-3,2.22s-1.91-.57-2.11-2.87a15.41,15.41,0,0,1,0-3.64c0-.31.11-.61.17-.92a7.07,7.07,0,0,0,.18-1.18,4.86,4.86,0,0,0-1.78-1H94.35a2.88,2.88,0,0,0-.47.18,3.39,3.39,0,0,0-.47.31c-.25.18-.52.42-.82.68-1.39,1.21-3.47,3-5.58,2l0,.12-.6,3.91a4.11,4.11,0,0,1-.7,1.94A2.55,2.55,0,0,1,83.67,386ZM94.18,372.8h41.57c1.1.1,4.38,1.46,4.54,3.53a7.91,7.91,0,0,1-.23,2.23c-.05.25-.1.5-.14.75a7.63,7.63,0,0,0-.07,1.24l.74-2a1.46,1.46,0,0,1,.19-.36,2.2,2.2,0,0,1,2.92-.49l.09.06a2.38,2.38,0,0,1,1.41-1.7,2.34,2.34,0,0,1,2.54.39,1.51,1.51,0,0,1,.36.51,4.36,4.36,0,0,1,.12,2.55l0,.23a7,7,0,0,0,.31-.75l.55-1.47a3.83,3.83,0,0,1,.75-1.34,3.9,3.9,0,0,1,1.32-.88c1.2-.55,4.83-2.35,4.86-2.37a1.5,1.5,0,0,1,.67-.16h45.68a.53.53,0,1,0,0-1.06H79.24c0,.12,0,.29,0,.53s0,.41,0,.54l3,.06a1.5,1.5,0,0,1,1.17.6,4.3,4.3,0,0,1,.71,2.56l.06,1.8a3.41,3.41,0,0,1,.37-.86,2.5,2.5,0,0,1,2.56-1.21,2.87,2.87,0,0,1,1,.44l.1.06c.13.08.61,0,2.38-1.55.37-.32.71-.62,1-.83a5.7,5.7,0,0,1,1-.61,5.24,5.24,0,0,1,1.3-.44Z"/><rect class="cls-11" x="125" y="63.5" width="150" height="8" transform="translate(400 135) rotate(-180)"/><path class="cls-12" d="M275,73H125a1.5,1.5,0,0,1-1.5-1.5v-8A1.5,1.5,0,0,1,125,62H275a1.5,1.5,0,0,1,1.5,1.5v8A1.5,1.5,0,0,1,275,73ZM126.5,70h147V65h-147Z"/><path class="cls-46" d="M158.29,36a3.64,3.64,0,0,0,3.63-3.63h0a3.64,3.64,0,0,0-3.63-3.63h-1.54a2.89,2.89,0,0,0,1.57-2.56A2.71,2.71,0,0,0,156,23.5h-1.41a.46.46,0,0,1-.47-.43c0-4.08-2.95-4.23-3.42-6.74a1.27,1.27,0,0,0-.23-.65c-.32-.34-.89-.15-1.29.09a9.1,9.1,0,0,0-4.35,6.57,5.39,5.39,0,0,0,0,.68,5.24,5.24,0,0,0,1.61,3.62h-3a3.27,3.27,0,0,0-2.8,3.27,4.25,4.25,0,0,0,2,3.58h-.06A5.55,5.55,0,0,0,137.05,39h0a5.55,5.55,0,0,0,5.53,5.53h19.1a4.27,4.27,0,0,0,4.21-4.94A4.35,4.35,0,0,0,161.56,36h-4.13"/><path class="cls-46" d="M161.68,46.06h-19.1a7,7,0,0,1-2.8-13.49,6,6,0,0,1-.68-2.66,4.73,4.73,0,0,1,4.3-4.77h.31a7,7,0,0,1-.39-2.07,6.89,6.89,0,0,1,0-.86,10.59,10.59,0,0,1,5.07-7.72,2.44,2.44,0,0,1,3.17.17,2.51,2.51,0,0,1,.59,1.33,3.12,3.12,0,0,0,1.08,1.63A7,7,0,0,1,155.56,22H156a4.18,4.18,0,0,1,3.82,4.21,4.35,4.35,0,0,1-.18,1.24,5.13,5.13,0,0,1,3.24,7.24A5.74,5.74,0,0,1,166.06,44,5.76,5.76,0,0,1,161.68,46.06ZM143.4,28.15a1.87,1.87,0,0,0-1.3,1.77,2.86,2.86,0,0,0,1.16,2.21,1.5,1.5,0,0,1-.61,2.87,4,4,0,1,0-.06,8.07h19.1a2.77,2.77,0,0,0,2.73-3.21,2.85,2.85,0,0,0-2.86-2.32h-4.13a1.5,1.5,0,0,1,0-3h.87a2.13,2.13,0,1,0,0-4.26h-1.54a1.5,1.5,0,0,1-.6-2.87,1.42,1.42,0,0,0,.67-1.18A1.31,1.31,0,0,0,156,25h-1.39a2,2,0,0,1-2-1.93,4.09,4.09,0,0,0-1.52-3.35,6.7,6.7,0,0,1-1.65-2.32,7.5,7.5,0,0,0-3.13,5.07,3.85,3.85,0,0,0,0,.49,3.75,3.75,0,0,0,1.13,2.58,1.5,1.5,0,0,1-1,2.6Z"/><polygon class="cls-11" points="140.3 63.11 162.7 63.11 167.5 45.11 135.5 45.11 140.3 63.11"/><path class="cls-12" d="M162.7,64.61H140.3a1.5,1.5,0,0,1-1.45-1.11l-4.8-18a1.5,1.5,0,0,1,1.45-1.89h32a1.5,1.5,0,0,1,1.45,1.89l-4.8,18A1.5,1.5,0,0,1,162.7,64.61Zm-21.25-3h20.1l4-15h-28.1Z"/><path class="cls-46" d="M255.29,36a3.64,3.64,0,0,0,3.63-3.63h0a3.64,3.64,0,0,0-3.63-3.63h-1.54a2.89,2.89,0,0,0,1.57-2.56A2.71,2.71,0,0,0,253,23.5h-1.41a.46.46,0,0,1-.47-.43c0-4.08-2.95-4.23-3.42-6.74a1.27,1.27,0,0,0-.23-.65c-.32-.34-.89-.15-1.29.09a9.1,9.1,0,0,0-4.35,6.57,5.39,5.39,0,0,0,0,.68,5.24,5.24,0,0,0,1.61,3.62h-3a3.27,3.27,0,0,0-2.8,3.27,4.25,4.25,0,0,0,2,3.58h-.06A5.55,5.55,0,0,0,234.05,39h0a5.55,5.55,0,0,0,5.53,5.53h19.1a4.27,4.27,0,0,0,4.21-4.94A4.35,4.35,0,0,0,258.56,36h-4.13"/><path class="cls-46" d="M258.68,46.06h-19.1a7,7,0,0,1-2.8-13.49,6,6,0,0,1-.68-2.66,4.73,4.73,0,0,1,4.3-4.77h.31a7,7,0,0,1-.39-2.07,6.89,6.89,0,0,1,0-.86,10.59,10.59,0,0,1,5.07-7.72,2.44,2.44,0,0,1,3.17.17,2.51,2.51,0,0,1,.59,1.33,3.12,3.12,0,0,0,1.08,1.63A7,7,0,0,1,252.56,22H253a4.18,4.18,0,0,1,3.82,4.21,4.35,4.35,0,0,1-.18,1.24,5.13,5.13,0,0,1,3.24,7.24A5.74,5.74,0,0,1,263.06,44,5.76,5.76,0,0,1,258.68,46.06ZM240.4,28.15a1.87,1.87,0,0,0-1.3,1.77,2.86,2.86,0,0,0,1.16,2.21,1.5,1.5,0,0,1-.61,2.87,4,4,0,1,0-.06,8.07h19.1a2.77,2.77,0,0,0,2.73-3.21,2.85,2.85,0,0,0-2.86-2.32h-4.13a1.5,1.5,0,0,1,0-3h.87a2.13,2.13,0,1,0,0-4.26h-1.54a1.5,1.5,0,0,1-.6-2.87,1.42,1.42,0,0,0,.67-1.18A1.31,1.31,0,0,0,253,25h-1.39a2,2,0,0,1-2-1.93,4.09,4.09,0,0,0-1.52-3.35,6.7,6.7,0,0,1-1.65-2.32,7.5,7.5,0,0,0-3.13,5.07,3.85,3.85,0,0,0,0,.49,3.75,3.75,0,0,0,1.13,2.58,1.5,1.5,0,0,1-1,2.6Z"/><polygon class="cls-11" points="237.3 63.11 259.7 63.11 264.5 45.11 232.5 45.11 237.3 63.11"/><path class="cls-12" d="M259.7,64.61H237.3a1.5,1.5,0,0,1-1.45-1.11l-4.8-18a1.5,1.5,0,0,1,1.45-1.89h32a1.5,1.5,0,0,1,1.45,1.89l-4.8,18A1.5,1.5,0,0,1,259.7,64.61Zm-21.25-3h20.1l4-15h-28.1Z"/><path class="cls-46" d="M207.29,36a3.64,3.64,0,0,0,3.63-3.63h0a3.64,3.64,0,0,0-3.63-3.63h-1.54a2.89,2.89,0,0,0,1.57-2.56A2.71,2.71,0,0,0,205,23.5h-1.41a.46.46,0,0,1-.47-.43c0-4.08-2.95-4.23-3.42-6.74a1.27,1.27,0,0,0-.23-.65c-.32-.34-.89-.15-1.29.09a9.1,9.1,0,0,0-4.35,6.57,5.39,5.39,0,0,0,0,.68,5.24,5.24,0,0,0,1.61,3.62h-3a3.27,3.27,0,0,0-2.8,3.27,4.25,4.25,0,0,0,2,3.58h-.06A5.55,5.55,0,0,0,186.05,39h0a5.55,5.55,0,0,0,5.53,5.53h19.1a4.27,4.27,0,0,0,4.21-4.94A4.35,4.35,0,0,0,210.56,36h-4.13"/><path class="cls-46" d="M210.68,46.06h-19.1a7,7,0,0,1-2.8-13.49,6,6,0,0,1-.68-2.66,4.73,4.73,0,0,1,4.3-4.77h.31a7,7,0,0,1-.39-2.07,6.89,6.89,0,0,1,0-.86,10.59,10.59,0,0,1,5.07-7.72,2.44,2.44,0,0,1,3.17.17,2.51,2.51,0,0,1,.59,1.33,3.12,3.12,0,0,0,1.08,1.63A7,7,0,0,1,204.56,22H205a4.18,4.18,0,0,1,3.82,4.21,4.35,4.35,0,0,1-.18,1.24,5.13,5.13,0,0,1,3.24,7.24A5.74,5.74,0,0,1,215.06,44,5.76,5.76,0,0,1,210.68,46.06ZM192.4,28.15a1.87,1.87,0,0,0-1.3,1.77,2.86,2.86,0,0,0,1.16,2.21,1.5,1.5,0,0,1-.61,2.87,4,4,0,1,0-.06,8.07h19.1a2.77,2.77,0,0,0,2.73-3.21,2.85,2.85,0,0,0-2.86-2.32h-4.13a1.5,1.5,0,0,1,0-3h.87a2.13,2.13,0,1,0,0-4.26h-1.54a1.5,1.5,0,0,1-.6-2.87,1.42,1.42,0,0,0,.67-1.18A1.31,1.31,0,0,0,205,25h-1.39a2,2,0,0,1-2-1.93,4.09,4.09,0,0,0-1.52-3.35,6.7,6.7,0,0,1-1.65-2.32,7.5,7.5,0,0,0-3.13,5.07,3.85,3.85,0,0,0,0,.49,3.75,3.75,0,0,0,1.13,2.58,1.5,1.5,0,0,1-1,2.6Z"/><polygon class="cls-11" points="189.3 63.11 211.7 63.11 216.5 45.11 184.5 45.11 189.3 63.11"/><path class="cls-12" d="M211.7,64.61H189.3a1.5,1.5,0,0,1-1.45-1.11l-4.8-18a1.5,1.5,0,0,1,1.45-1.89h32a1.5,1.5,0,0,1,1.45,1.89l-4.8,18A1.5,1.5,0,0,1,211.7,64.61Zm-21.25-3h20.1l4-15h-28.1Z"/></g><g id="pagamenti_negozio"><g class="cls-49"><g class="cls-50"><path class="cls-25" d="M71.66,19.15h126A20.46,20.46,0,0,1,218,39.68V347.42A20.46,20.46,0,0,1,197.61,368h-126a20.46,20.46,0,0,1-20.38-20.53V39.68A20.46,20.46,0,0,1,71.66,19.15Zm-43-22.77H255.95V400.9H28.62Z"/></g></g><path class="cls-10" d="M652.27,368.45h-126a21,21,0,0,1-20.88-21V39.68a21,21,0,0,1,20.88-21h126a21,21,0,0,1,20.88,21V347.42A21,21,0,0,1,652.27,368.45Zm-126-348.8a20,20,0,0,0-19.88,20V347.42a20,20,0,0,0,19.88,20h126a20,20,0,0,0,19.88-20V39.68a20,20,0,0,0-19.88-20Z"/><g class="cls-51"><g class="cls-50"><path class="cls-25" d="M170.33,19.15h126a20.46,20.46,0,0,1,20.38,20.53V347.42A20.46,20.46,0,0,1,296.28,368h-126a20.46,20.46,0,0,1-20.38-20.53V39.68A20.46,20.46,0,0,1,170.33,19.15Zm-25-4.69h178V374.11h-178Z"/></g></g></g></svg>