<svg id="paga_la_pizza" xmlns="http://www.w3.org/2000/svg" xmlns:xlink="http://www.w3.org/1999/xlink" viewBox="0 0 400 400"><defs><style>.cls-1,.cls-2{fill:none;}.cls-2{clip-rule:evenodd;}.cls-3{fill:#e9e3d7;}.cls-4{fill:#bab7cc;}.cls-5{fill:#c94646;}.cls-6{fill:#fefaf2;}.cls-7{fill:#f2eee6;}.cls-8{fill:#61cc71;}.cls-9{fill:#ffc296;}.cls-10{fill:#ffb077;}.cls-11{fill:#fca664;}.cls-12{fill:#b9e6ff;}.cls-13{fill:#453f6b;}.cls-14{fill:#016aa3;}.cls-15{fill:#0087d1;}.cls-16{fill:#00a5ff;}.cls-17{fill:#fff;}.cls-18{opacity:0.8;}.cls-19{clip-path:url(#clip-path);}.cls-20{clip-path:url(#clip-path-2);}.cls-21{clip-path:url(#clip-path-3);}</style><clipPath id="clip-path"><ellipse class="cls-1" cx="156.79" cy="-1079.21" rx="4.8" ry="4.8" transform="translate(793.69 -193.98) rotate(-44)"/></clipPath><clipPath id="clip-path-2"><rect class="cls-1" x="-350.3" y="-279.67" width="255.01" height="196.52"/></clipPath><clipPath id="clip-path-3"><path class="cls-2" d="M-310.27-163.06a2.26,2.26,0,0,1,2.22-2.3h194.74a2.26,2.26,0,0,1,2.22,2.3v32.91a2.26,2.26,0,0,1-2.22,2.3H-308.05a2.26,2.26,0,0,1-2.22-2.3Z"/></clipPath></defs><title>paga_la_pizza</title><ellipse class="cls-3" cx="202.36" cy="203.74" rx="157.62" ry="157.22"/><path class="cls-3" d="M202.36,362.46c-87.74,0-159.12-71.2-159.12-158.72S114.62,45,202.36,45s159.12,71.2,159.12,158.72S290.1,362.46,202.36,362.46Zm0-314.44C116.27,48,46.24,117.88,46.24,203.74s70,155.72,156.12,155.72,156.12-69.86,156.12-155.72S288.44,48,202.36,48Z"/><path class="cls-4" d="M202.36,374C108.26,374,31.71,297.6,31.71,203.74S108.26,33.53,202.36,33.53,373,109.88,373,203.74,296.45,374,202.36,374Zm0-337.43c-92.44,0-167.64,75-167.64,167.22S109.92,371,202.36,371,370,295.95,370,203.74,294.8,36.53,202.36,36.53Z"/><ellipse class="cls-5" cx="202.36" cy="203.74" rx="141.24" ry="140.89"/><path class="cls-5" d="M202.36,346.13c-78.71,0-142.74-63.87-142.74-142.39s64-142.39,142.74-142.39S345.1,125.23,345.1,203.74,281.07,346.13,202.36,346.13Zm0-281.77c-77.05,0-139.74,62.53-139.74,139.39S125.3,343.13,202.36,343.13,342.1,280.6,342.1,203.74,279.41,64.36,202.36,64.36Z"/><path class="cls-6" d="M101,120.2l7-8.11c12-14,25-28.62,42.71-33.71,12.19-3.5,24.73-2.84,37.23-3.68,11.41-.76,22.49-5.48,34.05-4.4,7.61.71,14.42,4.63,21.79,6.33,13.1,3,25.18,5.23,35.75,13.9,10.38,8.51,19.11,19,27,29.81A83.48,83.48,0,0,1,317,138.78c2.72,6.83,2.68,13.91,5.11,20.7,2.72,7.6,6.85,14.71,8.35,22.73,1.38,7.41.33,15,1,22.42.65,7.2,4,14,3.49,21.37-.93,12.55-12.89,21.27-17.71,32.9-2.52,6.09-3.18,12.9-6.19,18.79-2.84,5.56-7.64,6.18-11.64,10.39-4.43,4.67-4.82,9.57-10.7,13.68-5.27,3.68-11.62,6.26-16.1,11-4.9,5.18-7.64,10.27-14.5,13.62-31.49,15.38-69.15,13.4-102.64,3-8.71-2.69-17.54-6.09-24-12.5-5.89-5.84-9.49-13.85-16.08-18.88-2.85-2.18-6.15-3.7-9.06-5.78-8.44-6-12.89-16.15-15.85-26.07-3.44-11.49-7-23.77-13.09-34.52-6.64-11.77-9.28-22.52-6.49-36.12,2.08-10.15,6.39-19.68,10.67-29.12C88.21,151.77,90.43,132.56,101,120.2Z"/><path class="cls-6" d="M206.3,339a174.28,174.28,0,0,1-51.25-8.17c-8.78-2.71-17.84-6.15-24.62-12.87a67.23,67.23,0,0,1-6.89-8.49c-2.81-3.87-5.46-7.52-9-10.26a47,47,0,0,0-4.71-3c-1.43-.85-2.92-1.72-4.32-2.73-9.56-6.84-13.95-18.6-16.42-26.86l-.29-1c-3.37-11.28-6.86-22.94-12.67-33.24-7.34-13-9.33-24.12-6.65-37.16,2.12-10.36,6.52-20.06,10.77-29.43A145.17,145.17,0,0,0,86.15,149c3.31-10.64,6.73-21.65,13.74-29.83l7-8.12c11-12.83,24.69-28.79,43.43-34.17,9.15-2.63,18.57-3,27.69-3.28,3.23-.11,6.58-.23,9.85-.45A99.47,99.47,0,0,0,201.38,71c6.7-1.4,13.63-2.86,20.73-2.19,4.69.44,9.07,2,13.3,3.58a74.74,74.74,0,0,0,8.69,2.78l3.08.7c12,2.72,23.27,5.29,33.29,13.5,9,7.38,17.42,16.66,27.29,30.08a85.31,85.31,0,0,1,10.65,18.78,57.53,57.53,0,0,1,2.84,11.19,59.48,59.48,0,0,0,2.29,9.56c.93,2.61,2.06,5.22,3.16,7.75,2.09,4.83,4.25,9.83,5.25,15.21a70.69,70.69,0,0,1,.79,13.38c0,3,0,6.15.24,9.17a55.64,55.64,0,0,0,1.68,8.52c1.05,4.2,2.14,8.54,1.81,13.09-.59,7.94-5.33,14.4-9.92,20.65-3,4-6,8.22-7.9,12.72a64.52,64.52,0,0,0-2.55,8.16,53.06,53.06,0,0,1-3.69,10.74c-1.89,3.7-4.58,5.43-7.17,7.1a23.89,23.89,0,0,0-4.71,3.64,27.59,27.59,0,0,0-3.88,5.55c-1.63,2.81-3.32,5.72-7,8.33-1.88,1.32-3.91,2.5-5.87,3.64-3.55,2.08-7.23,4.22-10,7.16-1.31,1.38-2.47,2.77-3.6,4.12-3.12,3.73-6.06,7.25-11.33,9.82C243.4,335.23,225.54,339,206.3,339ZM218.42,71.63c-5.45,0-10.81,1.12-16.42,2.3a101.76,101.76,0,0,1-14,2.26c-3.32.22-6.69.34-9.95.46-8.93.32-18.17.65-27,3.17-17.87,5.13-31.24,20.72-42,33.24l-7,8.12c-6.61,7.71-9.94,18.41-13.16,28.77A149.69,149.69,0,0,1,82.94,167c-4.18,9.23-8.51,18.77-10.57,28.8-2.52,12.27-.62,22.76,6.33,35.08,6,10.59,9.51,22.42,12.93,33.85l.29,1c2.34,7.83,6.48,19,15.29,25.28,1.3.93,2.66,1.73,4.1,2.58a50.19,50.19,0,0,1,5,3.23c3.94,3,6.85,7,9.66,10.89a65.06,65.06,0,0,0,6.57,8.12c6.33,6.27,15,9.54,23.4,12.14,37.7,11.65,73.77,10.6,101.54-3,4.7-2.29,7.32-5.42,10.35-9,1.15-1.38,2.35-2.81,3.72-4.26,3.07-3.24,6.93-5.5,10.67-7.68,1.91-1.11,3.88-2.27,5.66-3.51,3.18-2.22,4.63-4.72,6.17-7.37a30.34,30.34,0,0,1,4.3-6.1,26.63,26.63,0,0,1,5.26-4.1c2.47-1.59,4.6-3,6.13-5.95a50.06,50.06,0,0,0,3.46-10.14,66.89,66.89,0,0,1,2.68-8.54c2-4.83,5.18-9.16,8.26-13.34,4.54-6.17,8.82-12,9.35-19.09.3-4.07-.68-8-1.73-12.14a58.82,58.82,0,0,1-1.76-9c-.29-3.17-.27-6.37-.25-9.46a68.42,68.42,0,0,0-.74-12.82c-.94-5-3-9.89-5.06-14.57-1.11-2.57-2.26-5.23-3.23-7.93a62.69,62.69,0,0,1-2.42-10,54.38,54.38,0,0,0-2.68-10.62,82.27,82.27,0,0,0-10.28-18.11c-9.71-13.21-18-22.32-26.77-29.54-9.47-7.76-20.43-10.25-32-12.89l-3.09-.71a76.92,76.92,0,0,1-9-2.89c-4.24-1.55-8.25-3-12.55-3.42C220.69,71.68,219.55,71.63,218.42,71.63Z"/><path class="cls-7" d="M157.33,195.14a5.72,5.72,0,0,1-3.73-1.65,10.91,10.91,0,0,1-1.94-2.29c-1.26,1.71-2.47,3.06-4.13,3.26a4.2,4.2,0,0,1-3.29-1.23,8.44,8.44,0,0,1-2.79-5.87,12.91,12.91,0,0,1,3.37-9.2c4.26-4.87,10.94-6.05,14.88-2.62a4.22,4.22,0,0,1,1.67,3.09c0,1.68-1.15,3.06-2.69,4.54a10.2,10.2,0,0,1,2.55,1.58,5.48,5.48,0,0,1,2.17,3.72,6.09,6.09,0,0,1-1.84,4.26C160.93,193.46,159.46,195.14,157.33,195.14Zm-5.46-8.31h.2a1.5,1.5,0,0,1,1.21,1,9.1,9.1,0,0,0,2.29,3.43c1.52,1.32,2.25,1.23,3.74-.46a3.35,3.35,0,0,0,1.1-2.08,2.82,2.82,0,0,0-1.15-1.67,8.86,8.86,0,0,0-3.76-1.74,1.5,1.5,0,0,1-.72-2.55l.92-.87c1.26-1.18,2.68-2.51,2.67-3.18,0-.21-.24-.53-.64-.88-2.7-2.35-7.48-1.3-10.65,2.33h0a9.91,9.91,0,0,0-2.63,7,5.39,5.39,0,0,0,1.76,3.81,1.67,1.67,0,0,0,1,.51c.67-.08,1.8-1.67,2.8-3.07l.69-1A1.5,1.5,0,0,1,151.87,186.84Zm-5.92-7.68h0Z"/><path class="cls-7" d="M177,264.34a7.76,7.76,0,0,1-1.36-.12,4.22,4.22,0,0,1-3-1.79c-.89-1.42-.58-3.22,0-5.28a10.25,10.25,0,0,1-3,0,5.5,5.5,0,0,1-3.78-2.08,6.1,6.1,0,0,1-.62-4.59c.25-1.41,1-5.7,6.45-4.73a10.94,10.94,0,0,1,2.84,1c.2-2.11.54-3.89,1.86-4.91a4.23,4.23,0,0,1,3.46-.64,8.64,8.64,0,0,1,6.09,4.72,13.27,13.27,0,0,1,1.17,8.5h0C186.06,260.14,181.71,264.34,177,264.34Zm-2.29-10.71a1.5,1.5,0,0,1,1.45,1.9c-.11.42-.23.83-.34,1.22-.47,1.65-1,3.53-.65,4.09a1.6,1.6,0,0,0,1,.43c3.52.62,7.08-2.72,7.93-7.46h0a10.26,10.26,0,0,0-.87-6.57,5.71,5.71,0,0,0-4-3.17,1.62,1.62,0,0,0-1.09.06c-.53.41-.68,2.35-.81,4.07,0,.38-.06.77-.09,1.17a1.5,1.5,0,0,1-2.42,1,9.12,9.12,0,0,0-3.74-1.76c-2-.35-2.57.1-3,2.31a3.35,3.35,0,0,0,.13,2.35,2.84,2.84,0,0,0,1.85.84,8.88,8.88,0,0,0,4.12-.44A1.49,1.49,0,0,1,174.76,253.62Zm10.86.45h0Z"/><path class="cls-7" d="M288.46,276.31c-.34,0-.63,0-.85,0a6.43,6.43,0,0,1-4.07-1.42,5.27,5.27,0,0,1-1.38-4.42,10.9,10.9,0,0,1,.63-2.92c-2.13.06-3.94-.08-5.11-1.28a4.22,4.22,0,0,1-1-3.35c.32-5.21,5.84-9.14,12.32-8.74h0a13.35,13.35,0,0,1,8,3.14,8.61,8.61,0,0,1,3.16,7,4.21,4.21,0,0,1-1.43,3.2c-1.31,1-3.13,1-5.26.64a10.17,10.17,0,0,1,.3,3C293.46,275.78,290.3,276.31,288.46,276.31Zm-3.27-11.88a1.5,1.5,0,0,1,1.28,2.29,9.06,9.06,0,0,0-1.32,3.9,2.64,2.64,0,0,0,.45,2.05,3.69,3.69,0,0,0,2.2.61c2.25.14,2.83-.32,3-2.33a8.79,8.79,0,0,0-.91-4,1.5,1.5,0,0,1,1.58-2.13l1.26.2c1.71.28,3.64.59,4.16.17a1.58,1.58,0,0,0,.31-1,5.69,5.69,0,0,0-2.15-4.59,10.35,10.35,0,0,0-6.2-2.4h0c-4.83-.28-8.92,2.37-9.14,5.92a1.58,1.58,0,0,0,.18,1.07c.47.48,2.42.4,4.15.33l1.18,0Z"/><path class="cls-7" d="M237.28,106.22a5.71,5.71,0,0,1-3.73-1.65,10.88,10.88,0,0,1-1.94-2.29c-1.26,1.71-2.47,3.06-4.13,3.26a4.24,4.24,0,0,1-3.29-1.23,8.43,8.43,0,0,1-2.79-5.87,12.91,12.91,0,0,1,3.37-9.2h0c4.26-4.87,10.94-6,14.88-2.62a4.22,4.22,0,0,1,1.67,3.09c0,1.67-1.16,3.06-2.69,4.54a10.21,10.21,0,0,1,2.55,1.58,5.48,5.48,0,0,1,2.17,3.73,6.1,6.1,0,0,1-1.84,4.26C240.89,104.54,239.42,106.22,237.28,106.22Zm-5.46-8.31h.2a1.5,1.5,0,0,1,1.21,1,9.08,9.08,0,0,0,2.29,3.43c1.52,1.32,2.25,1.24,3.74-.46a3.35,3.35,0,0,0,1.1-2.08,2.83,2.83,0,0,0-1.15-1.67,8.87,8.87,0,0,0-3.76-1.74,1.5,1.5,0,0,1-.72-2.55l.93-.87c1.26-1.18,2.68-2.51,2.67-3.17,0-.21-.24-.53-.64-.88-2.7-2.35-7.48-1.3-10.65,2.33h0a9.91,9.91,0,0,0-2.63,7,5.39,5.39,0,0,0,1.76,3.81c.4.35.76.54,1,.51.67-.08,1.8-1.67,2.79-3.07l.69-1A1.5,1.5,0,0,1,231.82,97.91Zm-5.92-7.68h0Z"/><path class="cls-7" d="M168.44,153.46c-3.68,0-7.63-2.3-10-6.24h0a12.91,12.91,0,0,1-1.75-9.64,8.44,8.44,0,0,1,3.75-5.32,4.23,4.23,0,0,1,3.45-.65c1.61.48,2.57,2,3.53,3.94a10.22,10.22,0,0,1,2.29-2c4.7-2.86,7,.87,7.72,2.09a6.09,6.09,0,0,1,1.09,4.5,5.49,5.49,0,0,1-2.78,3.31,11,11,0,0,1-2.76,1.15c1.25,1.71,2.18,3.27,1.86,4.91a4.21,4.21,0,0,1-2.17,2.76A8,8,0,0,1,168.44,153.46ZM161,145.65c2.51,4.12,7,6,10.1,4.1.45-.28.74-.55.78-.76.12-.65-1.05-2.21-2.09-3.58l-.71-.94a1.5,1.5,0,0,1,1.12-2.39,9.14,9.14,0,0,0,4-1.15c.83-.5,1.31-1,1.42-1.45a3.35,3.35,0,0,0-.73-2.23c-1.17-1.92-1.88-2.13-3.6-1.09a8.82,8.82,0,0,0-2.79,3,1.46,1.46,0,0,1-1.35.76,1.5,1.5,0,0,1-1.3-.83l-.55-1.14c-.74-1.55-1.59-3.31-2.23-3.5a1.57,1.57,0,0,0-1,.34,5.4,5.4,0,0,0-2.39,3.46,9.9,9.9,0,0,0,1.4,7.36Z"/><path class="cls-7" d="M219,301.5c-3.69,0-7.63-2.29-10-6.24h0a12.9,12.9,0,0,1-1.76-9.64,8.44,8.44,0,0,1,3.75-5.32,4.21,4.21,0,0,1,3.45-.65c1.61.48,2.57,2,3.53,3.94a10.22,10.22,0,0,1,2.28-2c4.71-2.85,7,.87,7.72,2.09a6.1,6.1,0,0,1,1.09,4.51,5.49,5.49,0,0,1-2.78,3.3,10.93,10.93,0,0,1-2.76,1.15c1.25,1.71,2.18,3.27,1.86,4.91a4.22,4.22,0,0,1-2.17,2.76A8,8,0,0,1,219,301.5Zm-7.48-7.81c2.51,4.12,7,6,10.1,4.1.46-.28.74-.55.78-.76.13-.65-1.05-2.21-2.09-3.58l-.71-.94a1.5,1.5,0,0,1,1.12-2.39,9.13,9.13,0,0,0,4-1.15c.83-.5,1.31-1,1.42-1.45a3.35,3.35,0,0,0-.73-2.24c-1.17-1.92-1.88-2.13-3.61-1.09a8.85,8.85,0,0,0-2.79,3,1.43,1.43,0,0,1-1.35.76,1.5,1.5,0,0,1-1.3-.84l-.55-1.14c-.74-1.55-1.59-3.31-2.23-3.5a1.63,1.63,0,0,0-1,.34,5.4,5.4,0,0,0-2.39,3.46,9.9,9.9,0,0,0,1.4,7.36Z"/><path class="cls-7" d="M272.25,194.27c-3.69,0-7.63-2.3-10-6.24a12.9,12.9,0,0,1-1.76-9.64,8.44,8.44,0,0,1,3.75-5.32,4.22,4.22,0,0,1,3.45-.65c1.61.48,2.57,2,3.53,3.94a10.22,10.22,0,0,1,2.29-2c4.71-2.86,7,.87,7.72,2.09a6.09,6.09,0,0,1,1.09,4.5,5.49,5.49,0,0,1-2.78,3.31,11,11,0,0,1-2.76,1.15c1.25,1.71,2.18,3.27,1.86,4.91a4.22,4.22,0,0,1-2.17,2.76A8,8,0,0,1,272.25,194.27Zm-5.57-19a2.05,2.05,0,0,0-.92.36,5.4,5.4,0,0,0-2.39,3.46,9.9,9.9,0,0,0,1.4,7.36h0c2.51,4.12,7,6,10.1,4.1.45-.28.74-.55.78-.76.12-.65-1.05-2.21-2.09-3.58l-.71-.94a1.5,1.5,0,0,1,1.12-2.39,9.14,9.14,0,0,0,4-1.15c.83-.5,1.31-1,1.42-1.45a3.35,3.35,0,0,0-.73-2.23c-1.17-1.92-1.88-2.13-3.6-1.09a8.82,8.82,0,0,0-2.79,3,1.44,1.44,0,0,1-1.35.76,1.5,1.5,0,0,1-1.3-.83L269,178.8c-.75-1.55-1.59-3.31-2.23-3.5Z"/><path class="cls-7" d="M110.78,274.71a6.57,6.57,0,0,1-3.8-1.57,6.1,6.1,0,0,1-2.67-3.79,5.49,5.49,0,0,1,1.36-4.09,10.92,10.92,0,0,1,2.14-2.08c-1.8-1.13-3.23-2.24-3.55-3.88a4.21,4.21,0,0,1,1-3.36c3.15-4.16,9.93-4.38,15.1-.49h0a12.92,12.92,0,0,1,5.19,8.32,8.43,8.43,0,0,1-1.52,6.31,4.23,4.23,0,0,1-3,1.87c-1.66.17-3.14-.93-4.74-2.36a10.2,10.2,0,0,1-1.4,2.66C113.51,274.12,112.06,274.71,110.78,274.71Zm1.61-19.08a5.76,5.76,0,0,0-4.74,2.11,1.59,1.59,0,0,0-.44,1c.13.66,1.8,1.67,3.27,2.56l1,.61a1.5,1.5,0,0,1-.16,2.64,9.12,9.12,0,0,0-3.27,2.53,2.83,2.83,0,0,0-.78,1.87c.07.51.56,1.1,1.51,1.81,1.8,1.36,2.54,1.29,3.75-.31a8.81,8.81,0,0,0,1.47-3.86,1.5,1.5,0,0,1,2.49-.91l.94.86c1.27,1.17,2.72,2.5,3.37,2.44.21,0,.52-.27.84-.7a5.38,5.38,0,0,0,.94-4.09,9.91,9.91,0,0,0-4-6.34h0A10.46,10.46,0,0,0,112.39,255.64Z"/><path class="cls-8" d="M301,136.36c0,5.57-4.6,10.08-4.6,10.08s-4.6-4.51-4.6-10.08,4.6-10.08,4.6-10.08S301,130.79,301,136.36Z"/><path class="cls-8" d="M296.41,147.94a1.49,1.49,0,0,1-1.05-.43c-.21-.2-5-5-5-11.16s4.84-11,5-11.15a1.5,1.5,0,0,1,2.1,0c.21.2,5,5,5,11.15s-4.84,11-5,11.16A1.5,1.5,0,0,1,296.41,147.94Zm0-19.38c-1.23,1.58-3.1,4.52-3.1,7.79s1.87,6.21,3.1,7.79c1.23-1.58,3.09-4.52,3.09-7.79S297.64,130.13,296.41,128.56Z"/><path class="cls-8" d="M292.4,152.48a1,1,0,0,1-.17-2,4.12,4.12,0,0,0,3.19-4.5,1,1,0,1,1,2-.33,6.07,6.07,0,0,1-4.82,6.8Z"/><path class="cls-8" d="M258.77,217c-3.58,4.28-10,4.81-10,4.81s-.63-6.4,2.94-10.68,10-4.81,10-4.81S262.34,212.69,258.77,217Z"/><path class="cls-8" d="M248.76,223.28a1.5,1.5,0,0,1-1.49-1.35c0-.29-.65-7.08,3.29-11.79s10.74-5.32,11-5.34a1.53,1.53,0,0,1,1.62,1.35c0,.29.65,7.08-3.29,11.79s-10.74,5.32-11,5.34ZM260.24,208c-2,.43-5.28,1.5-7.38,4s-2.55,6-2.62,8c2-.43,5.28-1.5,7.38-4h0C259.71,213.49,260.17,210,260.24,208Z"/><path class="cls-8" d="M244,225.19a5.69,5.69,0,0,1-2.84-.74,1,1,0,0,1,1-1.73,4.14,4.14,0,0,0,5.34-1.42,1,1,0,0,1,1.73,1A6.07,6.07,0,0,1,244,225.19Z"/><path class="cls-8" d="M211.14,137.28c3.58,4.28,10,4.81,10,4.81s.63-6.4-2.94-10.68-10-4.81-10-4.81S207.56,133,211.14,137.28Z"/><path class="cls-8" d="M221.14,143.59H221c-.29,0-7.1-.64-11-5.34h0c-3.93-4.71-3.31-11.5-3.29-11.79a1.51,1.51,0,0,1,1.62-1.35c.29,0,7.1.64,11,5.34s3.31,11.5,3.29,11.79A1.5,1.5,0,0,1,221.14,143.59Zm-11.48-15.23c.07,2,.53,5.45,2.62,8h0c2.11,2.53,5.43,3.59,7.38,4-.07-2-.52-5.45-2.62-8S211.62,128.79,209.66,128.36Z"/><path class="cls-8" d="M225.88,145.51a6.07,6.07,0,0,1-5.22-2.88,1,1,0,0,1,1.73-1,4.14,4.14,0,0,0,5.34,1.42,1,1,0,0,1,1,1.73A5.7,5.7,0,0,1,225.88,145.51Z"/><path class="cls-8" d="M255.9,277.67c0,5.57-4.6,10.08-4.6,10.08s-4.6-4.51-4.6-10.08,4.6-10.08,4.6-10.08S255.9,272.1,255.9,277.67Z"/><path class="cls-8" d="M251.31,289.25a1.5,1.5,0,0,1-1.05-.43c-.21-.2-5-5-5-11.15s4.84-11,5-11.16a1.5,1.5,0,0,1,2.1,0c.21.2,5,5,5,11.16s-4.84,11-5,11.15A1.49,1.49,0,0,1,251.31,289.25Zm0-19.38c-1.23,1.58-3.09,4.52-3.09,7.79s1.86,6.22,3.09,7.79c1.23-1.58,3.1-4.52,3.1-7.79S252.54,271.46,251.31,269.88Z"/><path class="cls-8" d="M247.3,294.71a1,1,0,0,1-.17-2,4.12,4.12,0,0,0,3.19-4.5,1,1,0,1,1,2-.33,6.07,6.07,0,0,1-4.82,6.8Z"/><path class="cls-8" d="M100,174.09c3.59,4.27,3,10.67,3,10.67s-6.43-.51-10-4.78-3-10.67-3-10.67S96.45,169.82,100,174.09Z"/><path class="cls-8" d="M103,186.26h-.12c-.29,0-7.1-.62-11-5.31s-3.35-11.49-3.32-11.78a1.51,1.51,0,0,1,1.61-1.35c.29,0,7.1.62,11,5.31h0c3.95,4.7,3.35,11.49,3.32,11.78A1.5,1.5,0,0,1,103,186.26ZM91.5,171.07c.08,2,.54,5.44,2.65,7.95s5.44,3.57,7.39,4c-.08-2-.54-5.45-2.65-8h0C96.79,172.55,93.46,171.49,91.5,171.07Z"/><path class="cls-8" d="M103.78,192.9a1,1,0,0,1-.76-1.65,4.11,4.11,0,0,0-.45-5.49,1,1,0,0,1,1.3-1.52,6.06,6.06,0,0,1,.68,8.3A1,1,0,0,1,103.78,192.9Z"/><path class="cls-8" d="M161.72,215.62c3.8,4.08,3.52,10.51,3.52,10.51s-6.45-.19-10.25-4.27-3.52-10.51-3.52-10.51S157.92,211.54,161.72,215.62Z"/><path class="cls-8" d="M165.24,227.63h0c-.29,0-7.12-.26-11.3-4.74S150,211.58,150,211.29a1.51,1.51,0,0,1,1.54-1.43c.29,0,7.12.26,11.3,4.74h0c4.18,4.49,3.93,11.31,3.92,11.6A1.5,1.5,0,0,1,165.24,227.63ZM153,213c.18,2,.82,5.41,3.05,7.8s5.61,3.29,7.59,3.61c-.18-2-.82-5.41-3.05-7.81h0C158.39,214.25,155,213.36,153,213Z"/><path class="cls-8" d="M166.36,234.21a1,1,0,0,1-.79-1.61,4.11,4.11,0,0,0-.73-5.46,1,1,0,0,1,1.22-1.59,6.06,6.06,0,0,1,1.11,8.26A1,1,0,0,1,166.36,234.21Z"/><path class="cls-8" d="M163.61,119.14c-3.86,4-10.31,4.11-10.31,4.11s-.18-6.43,3.68-10.45,10.31-4.11,10.31-4.11S167.48,115.12,163.61,119.14Z"/><path class="cls-8" d="M153.3,124.75a1.5,1.5,0,0,1-1.5-1.46c0-.29-.15-7.11,4.1-11.53s11.09-4.56,11.38-4.57h0a1.5,1.5,0,0,1,1.5,1.46c0,.29.15,7.11-4.1,11.53h0c-4.25,4.42-11.09,4.56-11.38,4.57Zm12.41-14.4c-2,.29-5.37,1.13-7.65,3.49s-3,5.76-3.17,7.75c2-.29,5.37-1.13,7.64-3.49h0C164.81,115.73,165.5,112.33,165.71,110.35Zm-2.1,8.79h0Z"/><path class="cls-8" d="M149.57,125.9a5.75,5.75,0,0,1-3.21-.95,1,1,0,1,1,1.11-1.66,4.14,4.14,0,0,0,5.43-1,1,1,0,0,1,1.65,1.13A6,6,0,0,1,149.57,125.9Z"/><path class="cls-8" d="M192.55,306.87c0,5.57-4.6,10.08-4.6,10.08s-4.6-4.51-4.6-10.08,4.6-10.08,4.6-10.08S192.55,301.3,192.55,306.87Z"/><path class="cls-8" d="M188,318.45a1.49,1.49,0,0,1-1.05-.43c-.21-.2-5-5-5-11.15s4.84-11,5-11.15a1.5,1.5,0,0,1,2.1,0c.21.2,5,5,5,11.15s-4.84,11-5,11.15A1.49,1.49,0,0,1,188,318.45Zm0-19.38c-1.23,1.58-3.1,4.52-3.1,7.79s1.86,6.22,3.09,7.79c1.23-1.58,3.1-4.52,3.1-7.79S189.19,300.65,188,299.08Z"/><path class="cls-8" d="M183.95,323.91a1,1,0,0,1-.17-2,4.12,4.12,0,0,0,3.19-4.5,1,1,0,1,1,2-.33,6.07,6.07,0,0,1-4.82,6.8Z"/><path class="cls-4" d="M139.39,168.81a4.39,4.39,0,1,1,4.4-4.39A4.4,4.4,0,0,1,139.39,168.81Zm0-5.78a1.39,1.39,0,1,0,1.4,1.39A1.4,1.4,0,0,0,139.39,163Z"/><path class="cls-4" d="M81.2,221.94a4.39,4.39,0,1,1,4.4-4.39A4.4,4.4,0,0,1,81.2,221.94Zm0-5.78a1.39,1.39,0,1,0,1.4,1.39A1.4,1.4,0,0,0,81.2,216.16Z"/><path class="cls-4" d="M180.61,215.92a4.39,4.39,0,1,1,4.4-4.39A4.4,4.4,0,0,1,180.61,215.92Zm0-5.78a1.39,1.39,0,1,0,1.4,1.39A1.4,1.4,0,0,0,180.61,210.14Z"/><path class="cls-4" d="M154,274.21a4.39,4.39,0,1,1,4.4-4.39A4.4,4.4,0,0,1,154,274.21Zm0-5.78a1.39,1.39,0,1,0,1.4,1.39A1.4,1.4,0,0,0,154,268.43Z"/><path class="cls-4" d="M237.13,270.12a4.39,4.39,0,1,1,4.4-4.39A4.4,4.4,0,0,1,237.13,270.12Zm0-5.78a1.39,1.39,0,1,0,1.4,1.39A1.39,1.39,0,0,0,237.13,264.34Z"/><path class="cls-4" d="M216,328.28a4.39,4.39,0,1,1,4.4-4.39A4.4,4.4,0,0,1,216,328.28Zm0-5.78a1.39,1.39,0,1,0,1.4,1.39A1.4,1.4,0,0,0,216,322.5Z"/><path class="cls-4" d="M310.34,257.68a4.39,4.39,0,1,1,4.4-4.39A4.4,4.4,0,0,1,310.34,257.68Zm0-5.78a1.39,1.39,0,1,0,1.4,1.39A1.39,1.39,0,0,0,310.34,251.9Z"/><path class="cls-4" d="M299.59,199.78a4.51,4.51,0,0,1-.58,0,4.4,4.4,0,1,1,.58,0Zm0-5.78a1.4,1.4,0,0,0-1.38,1.21,1.38,1.38,0,0,0,.27,1,1.4,1.4,0,0,0,2.5-.66,1.37,1.37,0,0,0-.27-1,1.39,1.39,0,0,0-.93-.54Z"/><path class="cls-4" d="M148.44,107a4.56,4.56,0,0,1-.58,0,4.4,4.4,0,1,1,.58,0Zm0-5.78a1.4,1.4,0,0,0-1.38,1.21,1.37,1.37,0,0,0,.27,1,1.4,1.4,0,0,0,2.5-.66h0a1.39,1.39,0,0,0-1.2-1.56Z"/><path class="cls-4" d="M225.8,216.5a4.56,4.56,0,0,1-.58,0,4.4,4.4,0,1,1,.58,0Zm0-5.78a1.4,1.4,0,0,0-1.38,1.21,1.37,1.37,0,0,0,.27,1,1.4,1.4,0,0,0,2.5-.66h0a1.39,1.39,0,0,0-1.2-1.56Z"/><path class="cls-4" d="M313.24,162.77a4.51,4.51,0,0,1-.58,0,4.4,4.4,0,1,1,.58,0Zm0-5.78a1.4,1.4,0,0,0-1.38,1.21,1.38,1.38,0,0,0,.27,1,1.4,1.4,0,0,0,2.5-.66h0a1.39,1.39,0,0,0-1.2-1.56Z"/><path class="cls-4" d="M263.71,116.93a4.53,4.53,0,0,1-.58,0,4.39,4.39,0,1,1,4.94-3.77h0A4.4,4.4,0,0,1,263.71,116.93Zm0-5.78a1.4,1.4,0,0,0-1.38,1.21,1.37,1.37,0,0,0,.27,1,1.4,1.4,0,0,0,2.5-.66h0a1.37,1.37,0,0,0-.27-1,1.39,1.39,0,0,0-.93-.54Zm2.87,1.77h0Z"/><path class="cls-4" d="M207.67,101.26a4.54,4.54,0,0,1-.58,0A4.39,4.39,0,1,1,212,97.45h0A4.4,4.4,0,0,1,207.67,101.26Zm0-5.78a1.4,1.4,0,0,0-1.38,1.21,1.37,1.37,0,0,0,.27,1,1.39,1.39,0,0,0,.93.53,1.41,1.41,0,0,0,1.57-1.2,1.39,1.39,0,0,0-1.2-1.56Zm2.87,1.77h0Z"/><path class="cls-4" d="M190.87,144.47a4.56,4.56,0,0,1-.58,0,4.4,4.4,0,1,1,.58,0Zm0-5.78a1.4,1.4,0,0,0-1.38,1.21,1.37,1.37,0,0,0,.27,1,1.4,1.4,0,0,0,2.5-.66h0a1.39,1.39,0,0,0-1.2-1.56Z"/><path class="cls-3" d="M202.36,331.14a1,1,0,0,1-1-1V77.35a1,1,0,0,1,2,0V330.14A1,1,0,0,1,202.36,331.14Z"/><path class="cls-3" d="M329.07,204.74H75.64a1,1,0,0,1,0-2H329.07a1,1,0,0,1,0,2Z"/><path class="cls-3" d="M112.76,294.12a1,1,0,0,1-.71-1.71l179.2-178.75a1,1,0,0,1,1.41,1.42L113.46,293.83A1,1,0,0,1,112.76,294.12Z"/><path class="cls-3" d="M292,294.12a1,1,0,0,1-.71-.29L112,115.07a1,1,0,0,1,1.41-1.42l179.2,178.75a1,1,0,0,1-.71,1.71Z"/><ellipse class="cls-9" cx="118.49" cy="143.67" rx="13.99" ry="13.96"/><path class="cls-9" d="M118.49,159.13A15.46,15.46,0,1,1,134,143.67,15.49,15.49,0,0,1,118.49,159.13Zm0-27.91A12.46,12.46,0,1,0,131,143.67,12.49,12.49,0,0,0,118.49,131.21Z"/><ellipse class="cls-10" cx="118.75" cy="183.91" rx="13.99" ry="13.96"/><path class="cls-10" d="M118.75,199.37a15.46,15.46,0,1,1,15.49-15.46A15.49,15.49,0,0,1,118.75,199.37Zm0-27.91a12.46,12.46,0,1,0,12.49,12.46A12.49,12.49,0,0,0,118.75,171.46Z"/><ellipse class="cls-9" cx="188.71" cy="166.91" rx="13.99" ry="13.96"/><path class="cls-9" d="M188.71,182.36a15.46,15.46,0,1,1,15.49-15.46A15.49,15.49,0,0,1,188.71,182.36Zm0-27.91a12.46,12.46,0,1,0,12.49,12.46A12.49,12.49,0,0,0,188.71,154.45Z"/><ellipse class="cls-9" cx="234.07" cy="183.09" rx="13.99" ry="13.96"/><path class="cls-9" d="M234.07,198.54a15.46,15.46,0,1,1,15.49-15.46A15.49,15.49,0,0,1,234.07,198.54Zm0-27.91a12.46,12.46,0,1,0,12.49,12.46A12.49,12.49,0,0,0,234.07,170.63Z"/><ellipse class="cls-9" cx="222.51" cy="237.91" rx="13.99" ry="13.96"/><path class="cls-9" d="M222.51,253.37A15.46,15.46,0,1,1,238,237.91,15.49,15.49,0,0,1,222.51,253.37Zm0-27.91A12.46,12.46,0,1,0,235,237.91,12.49,12.49,0,0,0,222.51,225.46Z"/><ellipse class="cls-9" cx="106.8" cy="223.32" rx="12.57" ry="12.54"/><path class="cls-9" d="M106.8,237.36a14,14,0,1,1,14.07-14A14.07,14.07,0,0,1,106.8,237.36Zm0-25.08a11,11,0,1,0,11.07,11A11.07,11.07,0,0,0,106.8,212.28Z"/><ellipse class="cls-10" cx="178.26" cy="107.88" rx="12.57" ry="12.54"/><path class="cls-10" d="M178.26,121.92a14,14,0,1,1,14.07-14A14.07,14.07,0,0,1,178.26,121.92Zm0-25.08a11,11,0,1,0,11.07,11A11.07,11.07,0,0,0,178.26,96.84Z"/><path class="cls-9" d="M310.26,177a12.57,12.57,0,1,1-8.53-15.56A12.58,12.58,0,0,1,310.26,177Z"/><path class="cls-9" d="M298.19,187.5a14.09,14.09,0,0,1-12.35-7.32,13.93,13.93,0,0,1-1.15-10.67,14.08,14.08,0,0,1,25.86-2.77,13.93,13.93,0,0,1,1.15,10.67A14.09,14.09,0,0,1,298.19,187.5Zm0-25.08a11.09,11.09,0,0,0-10.63,7.94,11,11,0,0,0,7.51,13.7,11.09,11.09,0,0,0,13.74-7.49,11,11,0,0,0-7.51-13.7A11.08,11.08,0,0,0,298.2,162.42Z"/><path class="cls-10" d="M279.22,299.33a12.57,12.57,0,1,1-8.53-15.56A12.58,12.58,0,0,1,279.22,299.33Z"/><path class="cls-10" d="M267.15,309.84a14,14,0,1,1,13.51-10.09h0A14.1,14.1,0,0,1,267.15,309.84Zm0-25.08a11.09,11.09,0,0,0-10.63,7.94A11,11,0,0,0,264,306.4a11.09,11.09,0,0,0,13.74-7.49,11,11,0,0,0-7.51-13.7A11.08,11.08,0,0,0,267.16,284.76Z"/><ellipse class="cls-9" cx="246.7" cy="303.87" rx="13.99" ry="13.96"/><path class="cls-9" d="M246.7,319.33a15.46,15.46,0,1,1,15.49-15.46A15.49,15.49,0,0,1,246.7,319.33Zm0-27.91a12.46,12.46,0,1,0,12.49,12.46A12.49,12.49,0,0,0,246.7,291.41Z"/><ellipse class="cls-10" cx="278.63" cy="159.5" rx="13.99" ry="13.96"/><path class="cls-10" d="M278.63,175a15.46,15.46,0,1,1,15.49-15.46A15.49,15.49,0,0,1,278.63,175Zm0-27.91a12.46,12.46,0,1,0,12.49,12.46A12.49,12.49,0,0,0,278.63,147Z"/><ellipse class="cls-10" cx="220.41" cy="151.77" rx="13.99" ry="13.96"/><path class="cls-10" d="M220.41,167.22a15.46,15.46,0,1,1,15.49-15.46A15.49,15.49,0,0,1,220.41,167.22Zm0-27.91a12.46,12.46,0,1,0,12.49,12.46A12.49,12.49,0,0,0,220.41,139.31Z"/><ellipse class="cls-9" cx="192.25" cy="91.11" rx="13.99" ry="13.96"/><path class="cls-9" d="M192.25,106.57a15.46,15.46,0,1,1,15.49-15.46A15.49,15.49,0,0,1,192.25,106.57Zm0-27.91a12.46,12.46,0,1,0,12.49,12.46A12.49,12.49,0,0,0,192.25,78.65Z"/><ellipse class="cls-10" cx="143.48" cy="228.67" rx="13.99" ry="13.96"/><path class="cls-10" d="M143.48,244.12A15.46,15.46,0,1,1,159,228.67,15.49,15.49,0,0,1,143.48,244.12Zm0-27.91A12.46,12.46,0,1,0,156,228.67,12.49,12.49,0,0,0,143.48,216.21Z"/><ellipse class="cls-9" cx="152.02" cy="295.8" rx="13.99" ry="13.96"/><path class="cls-9" d="M152,311.26a15.46,15.46,0,1,1,15.49-15.46A15.49,15.49,0,0,1,152,311.26Zm0-27.91a12.46,12.46,0,1,0,12.49,12.46A12.49,12.49,0,0,0,152,283.34Z"/><ellipse class="cls-10" cx="260.69" cy="230.64" rx="13.99" ry="13.96"/><path class="cls-10" d="M260.69,246.09a15.46,15.46,0,1,1,15.49-15.46A15.49,15.49,0,0,1,260.69,246.09Zm0-27.91a12.46,12.46,0,1,0,12.49,12.46A12.49,12.49,0,0,0,260.69,218.18Z"/><ellipse class="cls-9" cx="296.56" cy="221.18" rx="19.13" ry="19.08"/><path class="cls-9" d="M296.56,241.77a20.59,20.59,0,1,1,20.63-20.58A20.63,20.63,0,0,1,296.56,241.77Zm0-38.17a17.59,17.59,0,1,0,17.63,17.58A17.63,17.63,0,0,0,296.56,203.6Z"/><ellipse class="cls-9" cx="237.59" cy="135.07" rx="19.13" ry="19.08"/><path class="cls-9" d="M237.59,155.65a20.58,20.58,0,1,1,20.63-20.58A20.63,20.63,0,0,1,237.59,155.65Zm0-38.17a17.58,17.58,0,1,0,17.63,17.58A17.63,17.63,0,0,0,237.59,117.48Z"/><path class="cls-3" d="M172.74,188.3a2.42,2.42,0,1,1,2.42-2.42A2.42,2.42,0,0,1,172.74,188.3Zm0-3a.58.58,0,1,0,.58.58A.58.58,0,0,0,172.74,185.3Z"/><path class="cls-3" d="M98.81,249.75a2.42,2.42,0,1,1,2.42-2.42A2.42,2.42,0,0,1,98.81,249.75Zm0-3a.58.58,0,1,0,.58.58A.58.58,0,0,0,98.81,246.75Z"/><path class="cls-3" d="M135.38,255.71a2.42,2.42,0,1,1,2.42-2.42A2.42,2.42,0,0,1,135.38,255.71Zm0-3a.58.58,0,1,0,.58.58A.58.58,0,0,0,135.38,252.71Z"/><path class="cls-3" d="M106.8,168.21a2.42,2.42,0,1,1,2.42-2.42A2.42,2.42,0,0,1,106.8,168.21Zm0-3a.58.58,0,1,0,.58.58A.58.58,0,0,0,106.8,165.21Z"/><path class="cls-11" d="M114.53,184.45A2.42,2.42,0,1,1,117,182,2.42,2.42,0,0,1,114.53,184.45Zm0-3a.58.58,0,1,0,.58.58A.58.58,0,0,0,114.53,181.45Z"/><path class="cls-3" d="M188.59,234a2.42,2.42,0,1,1,2.42-2.42A2.42,2.42,0,0,1,188.59,234Zm0-3a.58.58,0,1,0,.58.58A.58.58,0,0,0,188.59,231Z"/><path class="cls-3" d="M194.1,261.54a2.42,2.42,0,1,1,2.42-2.42A2.42,2.42,0,0,1,194.1,261.54Zm0-3a.58.58,0,1,0,.58.58A.58.58,0,0,0,194.1,258.54Z"/><path class="cls-3" d="M171.82,312.17a2.42,2.42,0,1,1,2.42-2.42A2.42,2.42,0,0,1,171.82,312.17Zm0-3a.58.58,0,1,0,.58.58A.58.58,0,0,0,171.82,309.17Z"/><path class="cls-3" d="M215.05,269.6a2.42,2.42,0,1,1,2.42-2.42A2.42,2.42,0,0,1,215.05,269.6Zm0-3a.58.58,0,1,0,.58.58A.58.58,0,0,0,215.05,266.6Z"/><path class="cls-3" d="M225.79,325.39a2.42,2.42,0,1,1,2.42-2.42A2.42,2.42,0,0,1,225.79,325.39Zm0-3a.58.58,0,1,0,.58.58A.58.58,0,0,0,225.79,322.39Z"/><path class="cls-3" d="M320.92,180.79a2.42,2.42,0,1,1,2.42-2.42A2.42,2.42,0,0,1,320.92,180.79Zm0-3a.58.58,0,1,0,.58.58A.58.58,0,0,0,320.92,177.79Z"/><path class="cls-3" d="M255.39,167.29a2.42,2.42,0,1,1,2.42-2.42A2.42,2.42,0,0,1,255.39,167.29Zm0-3a.58.58,0,1,0,.58.58A.58.58,0,0,0,255.39,164.29Z"/><path class="cls-3" d="M253.55,197.81a2.42,2.42,0,1,1,2.42-2.42A2.42,2.42,0,0,1,253.55,197.81Zm0-3a.58.58,0,1,0,.58.58A.58.58,0,0,0,253.55,194.81Z"/><path class="cls-3" d="M131.75,111.11a2.42,2.42,0,1,1,2.42-2.42A2.42,2.42,0,0,1,131.75,111.11Zm0-3a.58.58,0,1,0,.58.58A.58.58,0,0,0,131.75,108.11Z"/><path class="cls-3" d="M212.16,118.4a2.42,2.42,0,1,1,2.42-2.42A2.42,2.42,0,0,1,212.16,118.4Zm0-3a.58.58,0,1,0,.58.58A.58.58,0,0,0,212.16,115.4Z"/><path class="cls-3" d="M86.77,194.52a2.42,2.42,0,1,1,2.42-2.42A2.42,2.42,0,0,1,86.77,194.52Zm0-3a.58.58,0,1,0,.58.58A.58.58,0,0,0,86.77,191.52Z"/><path class="cls-3" d="M161,94.44A2.42,2.42,0,1,1,163.4,92,2.42,2.42,0,0,1,161,94.44Zm0-3a.58.58,0,1,0,.58.58A.58.58,0,0,0,161,91.44Z"/><path class="cls-3" d="M256,97.36a2.42,2.42,0,1,1,2.42-2.42A2.42,2.42,0,0,1,256,97.36Zm0-3a.58.58,0,1,0,.58.58A.58.58,0,0,0,256,94.36Z"/><path class="cls-3" d="M274.68,255.71a2.42,2.42,0,1,1,2.42-2.42A2.42,2.42,0,0,1,274.68,255.71Zm0-3a.58.58,0,1,0,.58.58A.58.58,0,0,0,274.68,252.71Z"/><path class="cls-11" d="M192.8,166.77a2.42,2.42,0,1,1,2.42-2.42A2.42,2.42,0,0,1,192.8,166.77Zm0-3a.58.58,0,1,0,.58.58A.58.58,0,0,0,192.8,163.77Z"/><path class="cls-11" d="M238.69,144.89a2.42,2.42,0,1,1,2.42-2.42A2.42,2.42,0,0,1,238.69,144.89Zm0-3a.58.58,0,1,0,.58.58A.58.58,0,0,0,238.69,141.89Z"/><path class="cls-11" d="M293,231.32a2.42,2.42,0,1,1,2.42-2.42A2.42,2.42,0,0,1,293,231.32Zm0-3a.58.58,0,1,0,.58.58A.58.58,0,0,0,293,228.32Z"/><path class="cls-11" d="M300.51,180.59a2.42,2.42,0,1,1,2.42-2.42A2.42,2.42,0,0,1,300.51,180.59Zm0-3a.58.58,0,1,0,.58.58A.58.58,0,0,0,300.51,177.59Z"/><path class="cls-11" d="M280.45,164.66a2.42,2.42,0,1,1,2.42-2.42A2.42,2.42,0,0,1,280.45,164.66Zm0-3a.58.58,0,1,0,.58.58A.58.58,0,0,0,280.45,161.66Z"/><path class="cls-11" d="M290.54,215.69a2.42,2.42,0,1,1,2.42-2.42A2.42,2.42,0,0,1,290.54,215.69Zm0-3a.58.58,0,1,0,.58.58A.58.58,0,0,0,290.54,212.69Z"/><path class="cls-11" d="M229.47,188.3a2.42,2.42,0,1,1,2.42-2.42A2.42,2.42,0,0,1,229.47,188.3Zm0-3a.58.58,0,1,0,.58.58A.58.58,0,0,0,229.47,185.3Z"/><path class="cls-11" d="M215.05,151.9a2.42,2.42,0,1,1,2.42-2.42A2.42,2.42,0,0,1,215.05,151.9Zm0-3a.58.58,0,1,0,.58.58A.58.58,0,0,0,215.05,148.9Z"/><path class="cls-11" d="M114.92,148.25a2.42,2.42,0,1,1,2.42-2.42A2.42,2.42,0,0,1,114.92,148.25Zm0-3a.58.58,0,1,0,.58.58A.58.58,0,0,0,114.92,145.25Z"/><path class="cls-11" d="M177.08,106.69a2.42,2.42,0,1,1,2.42-2.42A2.42,2.42,0,0,1,177.08,106.69Zm0-3a.58.58,0,1,0,.58.58A.58.58,0,0,0,177.08,103.69Z"/><path class="cls-11" d="M266.24,301.34a2.42,2.42,0,1,1,2.42-2.42A2.42,2.42,0,0,1,266.24,301.34Zm0-3a.58.58,0,1,0,.58.58A.58.58,0,0,0,266.24,298.34Z"/><path class="cls-11" d="M243.56,301.34a2.42,2.42,0,1,1,2.42-2.42A2.42,2.42,0,0,1,243.56,301.34Zm0-3a.58.58,0,1,0,.58.58A.58.58,0,0,0,243.56,298.34Z"/><path class="cls-11" d="M246.78,135.39A2.42,2.42,0,1,1,249.2,133,2.42,2.42,0,0,1,246.78,135.39Zm0-3a.58.58,0,1,0,.58.58A.58.58,0,0,0,246.78,132.39Z"/><path class="cls-11" d="M292.33,177.38a2.42,2.42,0,1,1,2.42-2.42A2.42,2.42,0,0,1,292.33,177.38Zm0-3a.58.58,0,1,0,.58.58A.58.58,0,0,0,292.33,174.38Z"/><path class="cls-11" d="M254.47,233.65a2.42,2.42,0,1,1,2.42-2.42A2.42,2.42,0,0,1,254.47,233.65Zm0-3a.58.58,0,1,0,.58.58A.58.58,0,0,0,254.47,230.65Z"/><path class="cls-11" d="M251.37,309.32a2.42,2.42,0,1,1,2.42-2.42A2.42,2.42,0,0,1,251.37,309.32Zm0-3a.58.58,0,1,0,.58.58A.58.58,0,0,0,251.37,306.32Z"/><path class="cls-11" d="M149.42,304.46a2.42,2.42,0,1,1,2.42-2.42A2.42,2.42,0,0,1,149.42,304.46Zm0-3a.58.58,0,1,0,.58.58A.58.58,0,0,0,149.42,301.46Z"/><path class="cls-11" d="M224.65,239.61a2.42,2.42,0,1,1,2.42-2.42A2.42,2.42,0,0,1,224.65,239.61Zm0-3a.58.58,0,1,0,.58.58A.58.58,0,0,0,224.65,236.61Z"/><path class="cls-11" d="M149.36,227.7a2.42,2.42,0,1,1,2.42-2.42A2.42,2.42,0,0,1,149.36,227.7Zm0-3a.58.58,0,1,0,.58.58A.58.58,0,0,0,149.36,224.7Z"/><path class="cls-11" d="M150.28,293.84a2.42,2.42,0,1,1,2.42-2.42A2.42,2.42,0,0,1,150.28,293.84Zm0-3a.58.58,0,1,0,.58.58A.58.58,0,0,0,150.28,290.84Z"/><path class="cls-11" d="M274.68,296.43A2.42,2.42,0,1,1,277.1,294,2.42,2.42,0,0,1,274.68,296.43Zm0-3a.58.58,0,1,0,.58.58A.58.58,0,0,0,274.68,293.43Z"/><path class="cls-11" d="M267.16,234.57a2.42,2.42,0,1,1,2.42-2.42A2.42,2.42,0,0,1,267.16,234.57Zm0-3a.58.58,0,1,0,.58.58A.58.58,0,0,0,267.16,231.57Z"/><path class="cls-11" d="M220.46,248.66a2.42,2.42,0,1,1,2.42-2.42A2.42,2.42,0,0,1,220.46,248.66Zm0-3a.58.58,0,1,0,.58.58A.58.58,0,0,0,220.46,245.66Z"/><path class="cls-11" d="M140.17,236a2.42,2.42,0,1,1,2.42-2.42A2.42,2.42,0,0,1,140.17,236Zm0-3a.58.58,0,1,0,.58.58A.58.58,0,0,0,140.17,233Z"/><path class="cls-11" d="M103.77,222.76a2.42,2.42,0,1,1,2.42-2.42A2.42,2.42,0,0,1,103.77,222.76Zm0-3a.58.58,0,1,0,.58.58A.58.58,0,0,0,103.77,219.76Z"/><path class="cls-11" d="M226.71,137.48a2.42,2.42,0,1,1,2.42-2.42A2.42,2.42,0,0,1,226.71,137.48Zm0-3a.58.58,0,1,0,.58.58A.58.58,0,0,0,226.71,134.48Z"/><path class="cls-11" d="M186,89.06a2.42,2.42,0,1,1,2.42-2.42A2.42,2.42,0,0,1,186,89.06Zm0-3a.58.58,0,1,0,.58.58A.58.58,0,0,0,186,86.06Z"/><path class="cls-11" d="M297.53,171.65a1.5,1.5,0,0,1,0-3h0a1.5,1.5,0,0,1,0,3Z"/><path class="cls-11" d="M256.91,239.41a1.5,1.5,0,0,1,0-3h0a1.5,1.5,0,0,1,0,3Z"/><path class="cls-11" d="M213.95,238.69a1.5,1.5,0,0,1,0-3h0a1.5,1.5,0,0,1,0,3Z"/><path class="cls-11" d="M149.43,236a1.5,1.5,0,0,1,0-3h0a1.5,1.5,0,0,1,0,3Z"/><path class="cls-11" d="M235.29,192.84a1.5,1.5,0,0,1,0-3h0a1.5,1.5,0,0,1,0,3Z"/><path class="cls-11" d="M124.69,181.7a1.5,1.5,0,0,1,0-3h0a1.5,1.5,0,1,1,0,3Z"/><path class="cls-11" d="M109.55,224.82a1.5,1.5,0,0,1,0-3h0a1.5,1.5,0,0,1,0,3Z"/><path class="cls-11" d="M125.15,192.91a1.5,1.5,0,0,1,0-3h0a1.5,1.5,0,0,1,0,3Z"/><path class="cls-11" d="M119.39,154.25a1.5,1.5,0,0,1,0-3h0a1.5,1.5,0,0,1,0,3Z"/><path class="cls-11" d="M117.78,139a1.5,1.5,0,0,1,0-3h0a1.5,1.5,0,0,1,0,3Z"/><path class="cls-11" d="M195,89.06a1.5,1.5,0,0,1,0-3h0a1.5,1.5,0,0,1,0,3Z"/><path class="cls-11" d="M260.71,227.37a1.5,1.5,0,0,1,0-3h0a1.5,1.5,0,0,1,0,3Z"/><path class="cls-11" d="M228.5,231.32a1.5,1.5,0,0,1,0-3h0a1.5,1.5,0,0,1,0,3Z"/><path class="cls-11" d="M241.94,308.37a1.5,1.5,0,0,1,0-3h0a1.5,1.5,0,0,1,0,3Z"/><path class="cls-11" d="M157.87,298.29a1.5,1.5,0,0,1,0-3h0a1.5,1.5,0,0,1,0,3Z"/><path class="cls-11" d="M228.5,245.73a1.5,1.5,0,0,1,0-3h0a1.5,1.5,0,0,1,0,3Z"/><path class="cls-11" d="M138,225.63a1.5,1.5,0,0,1,0-3h0a1.5,1.5,0,0,1,0,3Z"/><path class="cls-11" d="M265.34,291.41a1.5,1.5,0,0,1,0-3h0a1.5,1.5,0,0,1,0,3Z"/><path class="cls-10" d="M185.73,284.51a12.57,12.57,0,1,1-8.53-15.56A12.58,12.58,0,0,1,185.73,284.51Z"/><path class="cls-10" d="M173.65,295a14,14,0,1,1,13.51-10.09A14.06,14.06,0,0,1,173.65,295Zm0-25.08A11.09,11.09,0,0,0,163,277.87a11,11,0,0,0,7.51,13.7,11.09,11.09,0,0,0,13.74-7.49,11,11,0,0,0-7.51-13.7A11.08,11.08,0,0,0,173.67,269.94Z"/><path class="cls-11" d="M172.74,286.52a2.42,2.42,0,1,1,2.42-2.42A2.42,2.42,0,0,1,172.74,286.52Zm0-3a.58.58,0,1,0,.58.58A.58.58,0,0,0,172.74,283.52Z"/><path class="cls-11" d="M181.19,281.6a2.42,2.42,0,1,1,2.42-2.42A2.42,2.42,0,0,1,181.19,281.6Zm0-3a.58.58,0,1,0,.58.58A.58.58,0,0,0,181.19,278.6Z"/><path class="cls-11" d="M171.84,276.59a1.5,1.5,0,0,1,0-3h0a1.5,1.5,0,0,1,0,3Z"/><path class="cls-11" d="M288.08,223.22a1.5,1.5,0,0,1,0-3h0a1.5,1.5,0,0,1,0,3Z"/><path class="cls-11" d="M173.68,114a1.5,1.5,0,0,1,0-3h0a1.5,1.5,0,0,1,0,3Z"/><path class="cls-11" d="M305.07,213a1.5,1.5,0,0,1,0-3h0a1.5,1.5,0,0,1,0,3Z"/><path class="cls-11" d="M182.58,170.11a2.42,2.42,0,1,1,2.42-2.42A2.42,2.42,0,0,1,182.58,170.11Zm0-3a.58.58,0,1,0,.58.58A.58.58,0,0,0,182.58,167.11Z"/><path class="cls-11" d="M181.53,115a2.42,2.42,0,1,1,2.42-2.42A2.42,2.42,0,0,1,181.53,115Zm0-3a.58.58,0,1,0,.58.58A.58.58,0,0,0,181.53,112Z"/><path class="cls-11" d="M189.93,172.07a2,2,0,1,1,2-2A2,2,0,0,1,189.93,172.07Zm0-3a1,1,0,1,0,1,1A1,1,0,0,0,189.93,169.07Z"/><path class="cls-11" d="M222,158.6a2,2,0,1,1,2-2A2,2,0,0,1,222,158.6Zm0-3a1,1,0,1,0,1,1A1,1,0,0,0,222,155.6Z"/><path class="cls-11" d="M124.15,148.4a2,2,0,1,1,2-2A2,2,0,0,1,124.15,148.4Zm0-3a1,1,0,1,0,1,1A1,1,0,0,0,124.15,145.4Z"/><path class="cls-11" d="M304.95,172.11a2,2,0,1,1,2-2A2,2,0,0,1,304.95,172.11Zm0-3a1,1,0,1,0,1,1A1,1,0,0,0,304.95,169.11Z"/><path class="cls-11" d="M273.85,164.66a2,2,0,1,1,2-2A2,2,0,0,1,273.85,164.66Zm0-3a1,1,0,1,0,1,1A1,1,0,0,0,273.85,161.66Z"/><path class="cls-11" d="M237.59,182.76a2,2,0,1,1,2-2A2,2,0,0,1,237.59,182.76Zm0-3a1,1,0,1,0,1,1A1,1,0,0,0,237.59,179.76Z"/><path class="cls-11" d="M115,191.33a2,2,0,1,1,2-2A2,2,0,0,1,115,191.33Zm0-3a1,1,0,1,0,1,1A1,1,0,0,0,115,188.33Z"/><path class="cls-11" d="M109.53,218.64a2,2,0,1,1,2-2A2,2,0,0,1,109.53,218.64Zm0-3a1,1,0,1,0,1,1A1,1,0,0,0,109.53,215.64Z"/><path class="cls-11" d="M105.7,232.59a2,2,0,1,1,2-2A2,2,0,0,1,105.7,232.59Zm0-3a1,1,0,1,0,1,1A1,1,0,0,0,105.7,229.59Z"/><path class="cls-11" d="M277.71,155.88a2,2,0,1,1,2-2A2,2,0,0,1,277.71,155.88Zm0-3a1,1,0,1,0,1,1A1,1,0,0,0,277.71,152.88Z"/><path class="cls-11" d="M236.11,133a2,2,0,1,1,2-2A2,2,0,0,1,236.11,133Zm0-3a1,1,0,1,0,1,1A1,1,0,0,0,236.11,130Z"/><path class="cls-11" d="M192.55,98.27a2,2,0,1,1,2-2A2,2,0,0,1,192.55,98.27Zm0-3a1,1,0,1,0,1,1A1,1,0,0,0,192.55,95.27Z"/><rect class="cls-12" x="28.74" y="58.41" width="146.43" height="33.09" rx="3" ry="3"/><path class="cls-12" d="M172.17,92H31.74a3.5,3.5,0,0,1-3.5-3.5V61.41a3.5,3.5,0,0,1,3.5-3.5H172.17a3.5,3.5,0,0,1,3.5,3.5V88.5A3.5,3.5,0,0,1,172.17,92ZM31.74,58.91a2.5,2.5,0,0,0-2.5,2.5V88.5a2.5,2.5,0,0,0,2.5,2.5H172.17a2.5,2.5,0,0,0,2.5-2.5V61.41a2.5,2.5,0,0,0-2.5-2.5Z"/><path class="cls-13" d="M50.91,77a7,7,0,0,0,.41-2.36.59.59,0,0,0-.59-.59H50a4.06,4.06,0,0,0,.18-1.18A4.14,4.14,0,0,0,46,68.77a4.06,4.06,0,0,0-3.81,2.46,3.57,3.57,0,0,0-.44.14l-3-3a.6.6,0,0,0-.84,0,.59.59,0,0,0,0,.84L40.66,72a2.7,2.7,0,0,1-.18.2l-2.56-1a.59.59,0,1,0-.44,1.1l2.32.92a3.52,3.52,0,0,0-.27.89H37.7a.59.59,0,0,0-.59.59A7,7,0,0,0,37.52,77a.59.59,0,0,0,.13.35,7.12,7.12,0,0,0,13.13,0A.59.59,0,0,0,50.91,77ZM46,69.95a2.95,2.95,0,0,1,2.71,4.13H46.53a3.49,3.49,0,0,0-3-2.91A3,3,0,0,1,46,69.95ZM41.1,73.28h0a2.37,2.37,0,0,1,4.21.8H40.74A2.32,2.32,0,0,1,41.1,73.28Zm9,2a5.82,5.82,0,0,1-.25,1.18H38.57a5.82,5.82,0,0,1-.28-1.18Zm-5.92,5.31a5.93,5.93,0,0,1-5.12-2.95H49.34A5.93,5.93,0,0,1,44.21,80.56Z"/><path class="cls-14" d="M58.92,69.43a4.26,4.26,0,0,1,.28-1.56A3.71,3.71,0,0,1,60,66.63a3.56,3.56,0,0,1,1.21-.82,4.08,4.08,0,0,1,1.58-.3,3.77,3.77,0,0,1,2.1.55A2.78,2.78,0,0,1,66,67.5.43.43,0,0,1,66,68a.5.5,0,0,1-.39.15h-.34a.48.48,0,0,1-.35-.11,1.09,1.09,0,0,1-.21-.29,1.73,1.73,0,0,0-.73-.79,2.46,2.46,0,0,0-1.21-.27,2.33,2.33,0,0,0-1.82.78,2.89,2.89,0,0,0-.7,2,2.92,2.92,0,0,0,.69,2,2.27,2.27,0,0,0,1.8.79A2.58,2.58,0,0,0,64,71.94a1.71,1.71,0,0,0,.75-.79,1.08,1.08,0,0,1,.21-.29.48.48,0,0,1,.35-.11h.34a.5.5,0,0,1,.39.15.43.43,0,0,1,0,.45,2.76,2.76,0,0,1-1.17,1.44,3.86,3.86,0,0,1-2.12.55A4.1,4.1,0,0,1,61.17,73,3.47,3.47,0,0,1,60,72.24,3.61,3.61,0,0,1,59.19,71,4.42,4.42,0,0,1,58.92,69.43Z"/><path class="cls-14" d="M67,72.83V65.52a.5.5,0,0,1,.13-.37.53.53,0,0,1,.38-.12h.22a.44.44,0,0,1,.5.5v7.31a.44.44,0,0,1-.5.5h-.22a.53.53,0,0,1-.38-.12A.49.49,0,0,1,67,72.83Z"/><path class="cls-14" d="M69.19,71.87a1.36,1.36,0,0,1,.44-1.05A2.73,2.73,0,0,1,71,70.26l1.08-.17a1.9,1.9,0,0,0,.58-.15.29.29,0,0,0,.14-.27.94.94,0,0,0-.27-.71,1.12,1.12,0,0,0-.82-.26,1.16,1.16,0,0,0-.76.19,2,2,0,0,0-.37.42,1.22,1.22,0,0,1-.17.21.5.5,0,0,1-.35.1h-.26c-.18,0-.3-.05-.34-.16a.48.48,0,0,1,0-.37,1.79,1.79,0,0,1,.79-.94,2.7,2.7,0,0,1,1.47-.37,2.63,2.63,0,0,1,1.7.49,1.71,1.71,0,0,1,.6,1.41v3.18a.48.48,0,0,1-.11.35.49.49,0,0,1-.36.12h-.22A.44.44,0,0,1,73,73.2a.59.59,0,0,1-.13-.38V72.5h0a1.57,1.57,0,0,1-.71.62,2.53,2.53,0,0,1-1.08.22,2.11,2.11,0,0,1-1.4-.41A1.33,1.33,0,0,1,69.19,71.87Zm1.23-.14a.62.62,0,0,0,.24.51,1.11,1.11,0,0,0,.71.19,1.67,1.67,0,0,0,1-.34,1.21,1.21,0,0,0,.45-1v-.47a.55.55,0,0,1-.23.15,1.77,1.77,0,0,1-.34.09l-1,.15a1.3,1.3,0,0,0-.7.27A.64.64,0,0,0,70.42,71.72Z"/><path class="cls-14" d="M75.14,71.08v-2.8a.48.48,0,0,1,.13-.37.54.54,0,0,1,.38-.12h.22a.52.52,0,0,1,.38.12.49.49,0,0,1,.13.37v2.63A1.53,1.53,0,0,0,76.7,72a1.18,1.18,0,0,0,.86.32,1.21,1.21,0,0,0,1-.46,1.93,1.93,0,0,0,.39-1.27V68.28a.49.49,0,0,1,.13-.37.52.52,0,0,1,.38-.12h.23a.44.44,0,0,1,.5.5v4.56a.49.49,0,0,1-.12.36.49.49,0,0,1-.36.12h-.22a.46.46,0,0,1-.36-.13.6.6,0,0,1-.12-.4v-.37h0a1.62,1.62,0,0,1-.67.69,2.1,2.1,0,0,1-1,.23,2.28,2.28,0,0,1-1.46-.5A2.13,2.13,0,0,1,75.14,71.08Z"/><path class="cls-14" d="M81,70.61a2.79,2.79,0,0,1,.76-2.07,2.48,2.48,0,0,1,1.82-.75,3,3,0,0,1,1,.17,1.44,1.44,0,0,1,.71.54h0c0-.35,0-.69-.05-1s0-.59,0-.77V65.51a.48.48,0,0,1,.13-.36.52.52,0,0,1,.38-.12h.23a.44.44,0,0,1,.5.5v7.33a.5.5,0,0,1-.11.36.49.49,0,0,1-.36.12h-.22a.46.46,0,0,1-.36-.13.58.58,0,0,1-.12-.4v-.42h0a1.55,1.55,0,0,1-.74.73,2.55,2.55,0,0,1-1.11.23,2.41,2.41,0,0,1-1.77-.71A2.72,2.72,0,0,1,81,70.61Zm1.28,0a1.8,1.8,0,0,0,.43,1.3,1.51,1.51,0,0,0,2.17,0,2.21,2.21,0,0,0,0-2.64,1.43,1.43,0,0,0-1.09-.47,1.38,1.38,0,0,0-1.08.49A2,2,0,0,0,82.3,70.6Z"/><path class="cls-14" d="M88.32,66.27a.55.55,0,0,1-.38-.12.47.47,0,0,1-.13-.37v-.27a.47.47,0,0,1,.13-.37.55.55,0,0,1,.38-.12h.31a.52.52,0,0,1,.38.12.48.48,0,0,1,.13.37v.27a.49.49,0,0,1-.13.37.53.53,0,0,1-.38.12Zm-.47,6.56V68.29a.49.49,0,0,1,.13-.37.53.53,0,0,1,.38-.12h.22a.44.44,0,0,1,.5.5v4.54a.44.44,0,0,1-.5.5h-.22a.53.53,0,0,1-.38-.12A.49.49,0,0,1,87.85,72.83Z"/><path class="cls-14" d="M90,71.87a1.36,1.36,0,0,1,.44-1.05,2.73,2.73,0,0,1,1.42-.55L93,70.09a1.9,1.9,0,0,0,.58-.15.29.29,0,0,0,.14-.27A.94.94,0,0,0,93.4,69a1.12,1.12,0,0,0-.82-.26,1.16,1.16,0,0,0-.76.19,2,2,0,0,0-.37.42,1.22,1.22,0,0,1-.17.21.5.5,0,0,1-.35.1h-.26c-.18,0-.3-.05-.34-.16a.48.48,0,0,1,0-.37,1.79,1.79,0,0,1,.79-.94,2.7,2.7,0,0,1,1.47-.37,2.63,2.63,0,0,1,1.7.49,1.71,1.71,0,0,1,.6,1.41v3.18a.48.48,0,0,1-.11.35.49.49,0,0,1-.36.12h-.22a.44.44,0,0,1-.35-.13.59.59,0,0,1-.13-.38V72.5h0a1.57,1.57,0,0,1-.71.62,2.53,2.53,0,0,1-1.08.22,2.11,2.11,0,0,1-1.4-.41A1.33,1.33,0,0,1,90,71.87Zm1.23-.14a.62.62,0,0,0,.24.51,1.11,1.11,0,0,0,.71.19,1.67,1.67,0,0,0,1-.34,1.21,1.21,0,0,0,.45-1v-.47a.55.55,0,0,1-.23.15,1.77,1.77,0,0,1-.34.09l-1,.15a1.3,1.3,0,0,0-.7.27A.64.64,0,0,0,91.24,71.72Z"/><path class="cls-15" d="M133.28,76.3v-.16a.44.44,0,0,1,.11-.32.44.44,0,0,1,.33-.11h1.52V70.42l-1.33.91a.41.41,0,0,1-.32.08.37.37,0,0,1-.24-.2l-.13-.19a.39.39,0,0,1-.06-.32.5.5,0,0,1,.23-.25l1.92-1.32a1.55,1.55,0,0,1,.27-.15.77.77,0,0,1,.3-.05H136a.45.45,0,0,1,.34.12.46.46,0,0,1,.11.33v6.33h1.42a.44.44,0,0,1,.33.11.44.44,0,0,1,.11.32v.16a.44.44,0,0,1-.11.32.45.45,0,0,1-.33.11h-4.17a.45.45,0,0,1-.33-.11A.44.44,0,0,1,133.28,76.3Z"/><path class="cls-15" d="M141.66,76.74a2.58,2.58,0,0,1-1.29-.3,2.4,2.4,0,0,1-.87-.83,3.93,3.93,0,0,1-.49-1.24,7.52,7.52,0,0,1,0-3.08,3.93,3.93,0,0,1,.49-1.24,2.4,2.4,0,0,1,.87-.83,2.89,2.89,0,0,1,2.58,0,2.4,2.4,0,0,1,.87.83,3.93,3.93,0,0,1,.49,1.24,7.48,7.48,0,0,1,0,3.08,3.93,3.93,0,0,1-.49,1.24,2.4,2.4,0,0,1-.87.83A2.58,2.58,0,0,1,141.66,76.74Zm0-1.06A1.21,1.21,0,0,0,142.8,75a6.18,6.18,0,0,0,0-4.25,1.26,1.26,0,0,0-2.29,0,4.89,4.89,0,0,0-.37,2.13,4.78,4.78,0,0,0,.38,2.13A1.21,1.21,0,0,0,141.66,75.68Z"/><path class="cls-15" d="M145.32,76.18v-.36a.55.55,0,0,1,.14-.41.58.58,0,0,1,.42-.14h.36a.48.48,0,0,1,.55.54v.34a3.2,3.2,0,0,1,0,.43,3.25,3.25,0,0,1-.07.37l-.38,1.3a.6.6,0,0,1-.12.22.29.29,0,0,1-.22.08h-.08a.27.27,0,0,1-.21-.08.24.24,0,0,1-.05-.21l.32-1.54h-.07a.58.58,0,0,1-.42-.14A.55.55,0,0,1,145.32,76.18Z"/><path class="cls-15" d="M149.91,76.74a2.15,2.15,0,0,1-1.07-.25,2,2,0,0,1-.72-.69,3.28,3.28,0,0,1-.41-1,6.26,6.26,0,0,1,0-2.57,3.28,3.28,0,0,1,.41-1,2,2,0,0,1,.72-.69,2.41,2.41,0,0,1,2.15,0,2,2,0,0,1,.72.69,3.28,3.28,0,0,1,.41,1,6.26,6.26,0,0,1,0,2.57,3.28,3.28,0,0,1-.41,1,2,2,0,0,1-.72.69A2.16,2.16,0,0,1,149.91,76.74Zm0-.88a1,1,0,0,0,1-.61,5.16,5.16,0,0,0,0-3.54,1.05,1.05,0,0,0-1.91,0,4.1,4.1,0,0,0-.3,1.77,4,4,0,0,0,.31,1.77A1,1,0,0,0,149.91,75.86Z"/><path class="cls-15" d="M155,76.74a2.15,2.15,0,0,1-1.07-.25,2,2,0,0,1-.72-.69,3.28,3.28,0,0,1-.41-1,6.26,6.26,0,0,1,0-2.57,3.28,3.28,0,0,1,.41-1,2,2,0,0,1,.72-.69,2.41,2.41,0,0,1,2.15,0,2,2,0,0,1,.72.69,3.28,3.28,0,0,1,.41,1,6.26,6.26,0,0,1,0,2.57,3.28,3.28,0,0,1-.41,1,2,2,0,0,1-.72.69A2.16,2.16,0,0,1,155,76.74Zm0-.88a1,1,0,0,0,1-.61,5.16,5.16,0,0,0,0-3.54,1.05,1.05,0,0,0-1.91,0,4.1,4.1,0,0,0-.3,1.77,4,4,0,0,0,.31,1.77A1,1,0,0,0,155,75.86Z"/><path class="cls-16" d="M159.75,73.82a.24.24,0,0,1-.27-.27v-.16a.28.28,0,0,1,.07-.2.28.28,0,0,1,.21-.07h.57a1.43,1.43,0,0,1,0-.2v-.21c0-.08,0-.16,0-.27s0-.19,0-.27h-.58a.3.3,0,0,1-.21-.06.26.26,0,0,1-.07-.2v-.17a.27.27,0,0,1,.07-.19.28.28,0,0,1,.21-.07h.65a3.57,3.57,0,0,1,.91-1.85,2.56,2.56,0,0,1,1.94-.72,2.72,2.72,0,0,1,1.55.4,2.05,2.05,0,0,1,.82,1.1.35.35,0,0,1,0,.37.5.5,0,0,1-.37.12H165a.53.53,0,0,1-.34-.09,1,1,0,0,1-.21-.26,1.21,1.21,0,0,0-.46-.47,1.46,1.46,0,0,0-.71-.15,1.41,1.41,0,0,0-1,.41,2.18,2.18,0,0,0-.55,1.15h1.62a.24.24,0,0,1,.26.26v.17a.26.26,0,0,1-.07.2.28.28,0,0,1-.19.06h-1.71v.94h1.71a.27.27,0,0,1,.19.07.28.28,0,0,1,.07.2v.16a.28.28,0,0,1-.07.2.26.26,0,0,1-.19.07h-1.64a2.81,2.81,0,0,0,.55,1.4,1.33,1.33,0,0,0,1.07.49,1.26,1.26,0,0,0,.71-.18,1.38,1.38,0,0,0,.46-.54,1.09,1.09,0,0,1,.21-.31.47.47,0,0,1,.34-.1h.22a.48.48,0,0,1,.37.13.4.4,0,0,1,0,.4,2.21,2.21,0,0,1-.82,1.19,2.57,2.57,0,0,1-1.55.43,2.45,2.45,0,0,1-2-.82,4,4,0,0,1-.89-2.09Z"/><path class="cls-15" d="M59.36,81.61l.21-1.16h-.69a.3.3,0,0,1-.21-.07.28.28,0,0,1-.08-.21V80a.28.28,0,0,1,.08-.21.29.29,0,0,1,.21-.08h.82l.35-2h-.76a.31.31,0,0,1-.21-.07.26.26,0,0,1-.08-.21v-.18a.28.28,0,0,1,.08-.21.28.28,0,0,1,.21-.08h.89l.21-1.14a.49.49,0,0,1,.12-.27.35.35,0,0,1,.27-.09h.17a.28.28,0,0,1,.31.37L61,77h1.27l.2-1.14a.56.56,0,0,1,.13-.27.36.36,0,0,1,.27-.09h.17a.32.32,0,0,1,.26.09.31.31,0,0,1,0,.27L63.2,77h.68a.28.28,0,0,1,.21.08.29.29,0,0,1,.07.21v.18a.27.27,0,0,1-.07.21.3.3,0,0,1-.21.07h-.82l-.35,2h.77a.27.27,0,0,1,.21.08.31.31,0,0,1,.07.21v.18a.3.3,0,0,1-.07.21.28.28,0,0,1-.21.07h-.9l-.2,1.16a.48.48,0,0,1-.12.27A.37.37,0,0,1,62,82h-.17a.31.31,0,0,1-.26-.09.34.34,0,0,1,0-.27l.2-1.16H60.44l-.21,1.16a.48.48,0,0,1-.12.27.37.37,0,0,1-.28.09h-.16a.32.32,0,0,1-.26-.09A.33.33,0,0,1,59.36,81.61Zm1.21-1.91h1.27l.35-2H60.92Z"/><path class="cls-15" d="M65.72,82.84v.82a.37.37,0,0,1-.42.42h-.18a.44.44,0,0,1-.32-.1.41.41,0,0,1-.11-.31v-5.9a.4.4,0,0,1,.1-.3.41.41,0,0,1,.3-.1h.19a.39.39,0,0,1,.29.1.42.42,0,0,1,.11.29v.3h0a1.24,1.24,0,0,1,.62-.53,2.4,2.4,0,0,1,.92-.17,2,2,0,0,1,1.47.59,2.27,2.27,0,0,1,.6,1.69,2.33,2.33,0,0,1-.63,1.72,2.07,2.07,0,0,1-1.52.63,2.14,2.14,0,0,1-.87-.17,1.25,1.25,0,0,1-.59-.53h0q0,.45,0,.88T65.72,82.84Zm0-3.17a1.55,1.55,0,0,0,.37,1.1,1.19,1.19,0,0,0,.91.39,1.15,1.15,0,0,0,.9-.41,1.64,1.64,0,0,0,.36-1.12,1.5,1.5,0,0,0-.36-1.08,1.2,1.2,0,0,0-.9-.38,1.19,1.19,0,0,0-.91.39A1.55,1.55,0,0,0,65.72,79.68Z"/><path class="cls-15" d="M70.45,76.1a.46.46,0,0,1-.32-.1A.39.39,0,0,1,70,75.7v-.23a.39.39,0,0,1,.11-.31.46.46,0,0,1,.32-.1h.26a.44.44,0,0,1,.31.1.4.4,0,0,1,.1.31v.23A.4.4,0,0,1,71,76a.44.44,0,0,1-.31.1Zm-.39,5.46V77.79a.41.41,0,0,1,.11-.31.44.44,0,0,1,.32-.1h.18a.43.43,0,0,1,.31.1.42.42,0,0,1,.1.31v3.78a.37.37,0,0,1-.42.42h-.18a.44.44,0,0,1-.32-.1A.41.41,0,0,1,70.06,81.57Z"/><path class="cls-15" d="M71.79,81.65v-.09a.58.58,0,0,1,0-.2,1,1,0,0,1,.12-.21l2.3-3H72.1a.33.33,0,0,1-.24-.08.34.34,0,0,1-.08-.25V77.7a.34.34,0,0,1,.08-.25.33.33,0,0,1,.24-.08h3.08a.33.33,0,0,1,.24.08.34.34,0,0,1,.08.25v.1a.65.65,0,0,1,0,.19.74.74,0,0,1-.12.21l-2.28,3h2.15a.33.33,0,0,1,.24.08.34.34,0,0,1,.08.25v.14a.34.34,0,0,1-.08.25.33.33,0,0,1-.24.08H72.13a.29.29,0,0,1-.33-.33Z"/><path class="cls-15" d="M75.84,81.65v-.09a.58.58,0,0,1,0-.2,1,1,0,0,1,.12-.21l2.3-3H76.14a.33.33,0,0,1-.24-.08.34.34,0,0,1-.08-.25V77.7a.34.34,0,0,1,.08-.25.33.33,0,0,1,.24-.08h3.08a.33.33,0,0,1,.24.08.34.34,0,0,1,.08.25v.1a.65.65,0,0,1,0,.19.74.74,0,0,1-.12.21l-2.28,3h2.15a.33.33,0,0,1,.24.08.34.34,0,0,1,.08.25v.14a.34.34,0,0,1-.08.25.33.33,0,0,1-.24.08H76.17a.29.29,0,0,1-.33-.33Z"/><path class="cls-15" d="M80,80.76a1.13,1.13,0,0,1,.37-.88,2.27,2.27,0,0,1,1.18-.46l.9-.14a1.62,1.62,0,0,0,.48-.12.24.24,0,0,0,.12-.23.79.79,0,0,0-.22-.59.93.93,0,0,0-.68-.22,1,1,0,0,0-.64.16,1.66,1.66,0,0,0-.3.35.92.92,0,0,1-.14.17.41.41,0,0,1-.29.08H80.5c-.15,0-.25,0-.29-.13a.4.4,0,0,1,0-.31,1.5,1.5,0,0,1,.66-.79,2.26,2.26,0,0,1,1.23-.31,2.2,2.2,0,0,1,1.42.41,1.43,1.43,0,0,1,.5,1.17v2.65a.4.4,0,0,1-.1.29.41.41,0,0,1-.3.1h-.18a.37.37,0,0,1-.29-.11.49.49,0,0,1-.11-.32v-.26h0a1.31,1.31,0,0,1-.59.52,2.1,2.1,0,0,1-.9.18,1.76,1.76,0,0,1-1.16-.34A1.11,1.11,0,0,1,80,80.76Zm1-.12a.52.52,0,0,0,.2.42.91.91,0,0,0,.59.16,1.39,1.39,0,0,0,.86-.28,1,1,0,0,0,.38-.86v-.39a.47.47,0,0,1-.19.13,1.39,1.39,0,0,1-.29.07l-.8.12a1.07,1.07,0,0,0-.58.22A.53.53,0,0,0,81,80.64Z"/><path class="cls-15" d="M84.74,80.95a.26.26,0,0,1,0-.28.38.38,0,0,1,.29-.1h.24a.5.5,0,0,1,.25.05.51.51,0,0,1,.16.14,1,1,0,0,0,.41.39,1.51,1.51,0,0,0,.6.1,1.61,1.61,0,0,0,.8-.16.5.5,0,0,0,.27-.46.42.42,0,0,0-.18-.37,1.29,1.29,0,0,0-.53-.17L86.23,80a2.62,2.62,0,0,1-1-.34.94.94,0,0,1-.43-.88,1.14,1.14,0,0,1,.56-1,2.5,2.5,0,0,1,1.37-.35A3,3,0,0,1,88,77.6a1.12,1.12,0,0,1,.67.77.26.26,0,0,1,0,.27.37.37,0,0,1-.29.1h-.26a.37.37,0,0,1-.23-.06.66.66,0,0,1-.15-.16.82.82,0,0,0-.37-.32,1.38,1.38,0,0,0-.57-.11,1.45,1.45,0,0,0-.67.14.45.45,0,0,0-.27.43A.4.4,0,0,0,86,79a1.44,1.44,0,0,0,.59.19l.85.14a2.66,2.66,0,0,1,1,.34.93.93,0,0,1,.41.87,1.18,1.18,0,0,1-.58,1.08,2.84,2.84,0,0,1-1.51.36,3,3,0,0,1-1.29-.26A1.2,1.2,0,0,1,84.74,80.95Z"/><path class="cls-15" d="M89.24,80.76a1.13,1.13,0,0,1,.37-.88,2.27,2.27,0,0,1,1.18-.46l.9-.14a1.62,1.62,0,0,0,.48-.12.24.24,0,0,0,.12-.23.79.79,0,0,0-.22-.59.93.93,0,0,0-.68-.22,1,1,0,0,0-.64.16,1.66,1.66,0,0,0-.3.35.92.92,0,0,1-.14.17.41.41,0,0,1-.29.08h-.22c-.15,0-.25,0-.29-.13a.4.4,0,0,1,0-.31,1.5,1.5,0,0,1,.66-.79,2.26,2.26,0,0,1,1.23-.31,2.2,2.2,0,0,1,1.42.41,1.43,1.43,0,0,1,.5,1.17v2.65a.4.4,0,0,1-.1.29.41.41,0,0,1-.3.1h-.18a.37.37,0,0,1-.29-.11.49.49,0,0,1-.11-.32v-.26h0a1.31,1.31,0,0,1-.59.52,2.1,2.1,0,0,1-.9.18,1.76,1.76,0,0,1-1.16-.34A1.11,1.11,0,0,1,89.24,80.76Zm1-.12a.52.52,0,0,0,.2.42.91.91,0,0,0,.59.16,1.39,1.39,0,0,0,.86-.28,1,1,0,0,0,.38-.86v-.39a.47.47,0,0,1-.19.13,1.39,1.39,0,0,1-.29.07L91,80a1.07,1.07,0,0,0-.58.22A.53.53,0,0,0,90.26,80.64Z"/><path class="cls-15" d="M94.28,81.59V75.48a.41.41,0,0,1,.11-.31.44.44,0,0,1,.32-.1h.18a.44.44,0,0,1,.31.1.4.4,0,0,1,.1.3v1c0,.15,0,.37,0,.64s0,.56,0,.85h0a1.19,1.19,0,0,1,.62-.45,2.77,2.77,0,0,1,.92-.14,2,2,0,0,1,1.47.59,2.27,2.27,0,0,1,.6,1.69,2.33,2.33,0,0,1-.63,1.72,2.07,2.07,0,0,1-1.52.63,1.89,1.89,0,0,1-.87-.19,1.33,1.33,0,0,1-.59-.61h0v.35a.52.52,0,0,1-.11.34.37.37,0,0,1-.29.11h-.19a.41.41,0,0,1-.3-.1A.4.4,0,0,1,94.28,81.59Zm1-1.91a1.55,1.55,0,0,0,.37,1.1,1.19,1.19,0,0,0,.91.39,1.15,1.15,0,0,0,.9-.41,1.64,1.64,0,0,0,.36-1.12,1.5,1.5,0,0,0-.36-1.08,1.2,1.2,0,0,0-.9-.38,1.19,1.19,0,0,0-.91.39A1.55,1.55,0,0,0,95.31,79.68Z"/><path class="cls-15" d="M99.38,80.76a1.13,1.13,0,0,1,.37-.88,2.27,2.27,0,0,1,1.18-.46l.9-.14a1.62,1.62,0,0,0,.48-.12.24.24,0,0,0,.12-.23.79.79,0,0,0-.22-.59.93.93,0,0,0-.68-.22,1,1,0,0,0-.64.16,1.66,1.66,0,0,0-.3.35.92.92,0,0,1-.14.17.41.41,0,0,1-.29.08h-.22c-.15,0-.25,0-.29-.13a.4.4,0,0,1,0-.31,1.5,1.5,0,0,1,.66-.79,2.26,2.26,0,0,1,1.23-.31,2.2,2.2,0,0,1,1.42.41,1.43,1.43,0,0,1,.5,1.17v2.65a.4.4,0,0,1-.1.29.41.41,0,0,1-.3.1h-.18a.37.37,0,0,1-.29-.11.49.49,0,0,1-.11-.32v-.26h0a1.31,1.31,0,0,1-.59.52,2.1,2.1,0,0,1-.9.18,1.76,1.76,0,0,1-1.16-.34A1.11,1.11,0,0,1,99.38,80.76Zm1-.12a.52.52,0,0,0,.2.42.91.91,0,0,0,.59.16,1.39,1.39,0,0,0,.86-.28,1,1,0,0,0,.38-.86v-.39a.47.47,0,0,1-.19.13,1.39,1.39,0,0,1-.29.07l-.8.12a1.07,1.07,0,0,0-.58.22A.53.53,0,0,0,100.41,80.64Z"/><path class="cls-15" d="M104.52,80.55V78.16H104a.33.33,0,0,1-.24-.08.33.33,0,0,1-.08-.24v-.15a.29.29,0,0,1,.32-.32h.55v-1a.37.37,0,0,1,.42-.42h.19a.43.43,0,0,1,.31.1.42.42,0,0,1,.1.31v1h.86a.29.29,0,0,1,.32.32v.15a.29.29,0,0,1-.32.32h-.86V80.5a.68.68,0,0,0,.14.49.64.64,0,0,0,.47.14h.23a.37.37,0,0,1,.26.08.35.35,0,0,1,.09.26v.15a.35.35,0,0,1-.09.26.37.37,0,0,1-.26.08H106a1.25,1.25,0,0,1-1.44-1.44Z"/><path class="cls-15" d="M106.93,79.68a2.2,2.2,0,0,1,.67-1.69A2.65,2.65,0,0,1,111,78a2.24,2.24,0,0,1,.65,1.7,2.2,2.2,0,0,1-.67,1.69,2.65,2.65,0,0,1-3.42,0A2.24,2.24,0,0,1,106.93,79.68Zm1.06,0a1.58,1.58,0,0,0,.36,1.08,1.28,1.28,0,0,0,1.88,0,1.82,1.82,0,0,0,0-2.18,1.21,1.21,0,0,0-.94-.4,1.19,1.19,0,0,0-.94.41A1.58,1.58,0,0,0,108,79.68Z"/><polygon class="cls-12" points="106.92 91.5 106.92 97.49 103.22 91.5 106.92 91.5"/><path class="cls-12" d="M106.92,98a.5.5,0,0,1-.42-.24l-3.71-6a.5.5,0,0,1,.42-.76h3.71a.5.5,0,0,1,.5.5v6a.5.5,0,0,1-.36.48Zm-2.81-6,2.31,3.73V92Z"/><polygon class="cls-12" points="107.01 91.5 107.01 97.49 110.72 91.5 107.01 91.5"/><path class="cls-12" d="M107,98l-.14,0a.5.5,0,0,1-.36-.48v-6a.5.5,0,0,1,.5-.5h3.71a.5.5,0,0,1,.42.76l-3.71,6A.5.5,0,0,1,107,98Zm.5-6v3.73L109.82,92Z"/><path class="cls-17" d="M107.17,98.52a1,1,0,0,1-.84-.46l-3.58-5.56H31.66a4.32,4.32,0,0,1-4.16-4V61c0-2.24,2.16-3.63,4.16-3.63H172.41a3.79,3.79,0,0,1,4,3.63V88.46a4.19,4.19,0,0,1-4,4H111.35L108,98a1,1,0,0,1-.84.49ZM31.66,59.41c-1,0-2.16.67-2.16,1.63V88.46a2.31,2.31,0,0,0,2.16,2h71.63a1,1,0,0,1,.84.46l3,4.67L109.93,91a1,1,0,0,1,.86-.49h61.62a2.16,2.16,0,0,0,2-2V61a1.84,1.84,0,0,0-2-1.63Z"/><rect class="cls-12" x="209.29" y="13.5" width="146.43" height="33.09" rx="3" ry="3"/><path class="cls-12" d="M352.72,47.09H212.29a3.5,3.5,0,0,1-3.5-3.5V16.5a3.5,3.5,0,0,1,3.5-3.5H352.72a3.5,3.5,0,0,1,3.5,3.5V43.59A3.5,3.5,0,0,1,352.72,47.09ZM212.29,14a2.5,2.5,0,0,0-2.5,2.5V43.59a2.5,2.5,0,0,0,2.5,2.5H352.72a2.5,2.5,0,0,0,2.5-2.5V16.5a2.5,2.5,0,0,0-2.5-2.5Z"/><path class="cls-13" d="M231.45,32.11a7,7,0,0,0,.41-2.36.59.59,0,0,0-.59-.59h-.78a4.06,4.06,0,0,0,.18-1.18,4.14,4.14,0,0,0-4.15-4.13,4.06,4.06,0,0,0-3.81,2.46,3.57,3.57,0,0,0-.44.14l-3-3a.6.6,0,0,0-.84,0,.59.59,0,0,0,0,.84l2.79,2.8a2.7,2.7,0,0,1-.18.2l-2.56-1a.59.59,0,1,0-.44,1.1l2.32.92a3.52,3.52,0,0,0-.27.89h-1.83a.59.59,0,0,0-.59.59,7,7,0,0,0,.41,2.36.59.59,0,0,0,.13.35,7.12,7.12,0,0,0,13.13,0A.59.59,0,0,0,231.45,32.11ZM226.54,25a2.95,2.95,0,0,1,2.71,4.13h-2.17a3.49,3.49,0,0,0-3-2.91A3,3,0,0,1,226.54,25Zm-4.89,3.33h0a2.37,2.37,0,0,1,4.21.8h-4.57A2.32,2.32,0,0,1,221.65,28.37Zm9,2a5.82,5.82,0,0,1-.25,1.18H219.12a5.82,5.82,0,0,1-.28-1.18Zm-5.92,5.31a5.93,5.93,0,0,1-5.12-2.95h10.25A5.93,5.93,0,0,1,224.76,35.65Z"/><path class="cls-14" d="M239.92,27.64V20.86a.5.5,0,0,1,.14-.38.54.54,0,0,1,.39-.13h.68a.61.61,0,0,1,.41.13,1.08,1.08,0,0,1,.27.38l2.42,5.56h0l2.39-5.56a.79.79,0,0,1,.27-.38.73.73,0,0,1,.43-.13H248a.46.46,0,0,1,.51.51v6.78a.46.46,0,0,1-.51.51h-.26a.46.46,0,0,1-.51-.51l.1-5.43h0l-2.35,5.43a.9.9,0,0,1-.25.39.6.6,0,0,1-.39.12h-.14a.58.58,0,0,1-.38-.12,1,1,0,0,1-.26-.39l-2.34-5.33h0l.09,5.33a.47.47,0,0,1-.12.38.54.54,0,0,1-.39.13h-.25a.53.53,0,0,1-.39-.13A.5.5,0,0,1,239.92,27.64Z"/><path class="cls-14" d="M249.58,26.69a1.36,1.36,0,0,1,.44-1.05,2.73,2.73,0,0,1,1.42-.55l1.08-.17a1.9,1.9,0,0,0,.58-.15.29.29,0,0,0,.14-.27.94.94,0,0,0-.27-.71,1.12,1.12,0,0,0-.82-.26,1.16,1.16,0,0,0-.76.19,2,2,0,0,0-.37.42,1.22,1.22,0,0,1-.17.21.5.5,0,0,1-.35.1h-.26c-.18,0-.3-.05-.34-.16a.48.48,0,0,1,0-.37,1.79,1.79,0,0,1,.79-.94,2.7,2.7,0,0,1,1.47-.37,2.63,2.63,0,0,1,1.7.49,1.71,1.71,0,0,1,.6,1.41v3.18a.48.48,0,0,1-.11.35.49.49,0,0,1-.36.12h-.22a.44.44,0,0,1-.35-.13.59.59,0,0,1-.13-.38v-.32h0a1.57,1.57,0,0,1-.71.62,2.53,2.53,0,0,1-1.08.22,2.11,2.11,0,0,1-1.4-.41A1.33,1.33,0,0,1,249.58,26.69Zm1.23-.14a.62.62,0,0,0,.24.51,1.11,1.11,0,0,0,.71.19,1.67,1.67,0,0,0,1-.34,1.21,1.21,0,0,0,.45-1V25.4a.55.55,0,0,1-.23.15,1.77,1.77,0,0,1-.34.09l-1,.15a1.3,1.3,0,0,0-.7.27A.64.64,0,0,0,250.81,26.54Z"/><path class="cls-14" d="M255.67,27.65V23.09a.49.49,0,0,1,.12-.36.49.49,0,0,1,.36-.12h.23a.46.46,0,0,1,.36.13.59.59,0,0,1,.12.4v.38h0a1.67,1.67,0,0,1,.58-.68,1.57,1.57,0,0,1,.9-.25h.32a.51.51,0,0,1,.3.15.37.37,0,0,1,.06.34l-.09.38a.58.58,0,0,1-.1.23.23.23,0,0,1-.17.09.85.85,0,0,1-.25,0,1.09,1.09,0,0,0-.31,0,1,1,0,0,0-.92.49,2,2,0,0,0-.31,1.1v2.35a.49.49,0,0,1-.12.36.52.52,0,0,1-.38.12h-.22a.53.53,0,0,1-.38-.12A.49.49,0,0,1,255.67,27.65Z"/><path class="cls-14" d="M259,25.38a2.66,2.66,0,0,1,.79-2,2.78,2.78,0,0,1,2-.75,2.7,2.7,0,0,1,1.54.39,2.23,2.23,0,0,1,.83,1,.51.51,0,0,1,0,.39c0,.12-.17.19-.36.19h-.32a.57.57,0,0,1-.3-.07.53.53,0,0,1-.19-.24,1.24,1.24,0,0,0-.42-.47,1.32,1.32,0,0,0-.78-.21,1.39,1.39,0,0,0-1.09.5,2.12,2.12,0,0,0,0,2.59,1.39,1.39,0,0,0,1.09.5,1.31,1.31,0,0,0,.8-.21,1.28,1.28,0,0,0,.4-.47.53.53,0,0,1,.19-.24.57.57,0,0,1,.3-.07h.32c.2,0,.32.06.36.19a.51.51,0,0,1,0,.39,2.24,2.24,0,0,1-.83,1,2.7,2.7,0,0,1-1.54.39A2.58,2.58,0,0,1,259,25.38Z"/><path class="cls-14" d="M264.63,25.38a2.64,2.64,0,0,1,.81-2,3.18,3.18,0,0,1,4.09,0,2.69,2.69,0,0,1,.78,2,2.64,2.64,0,0,1-.8,2,3.18,3.18,0,0,1-4.1,0A2.69,2.69,0,0,1,264.63,25.38Zm1.28,0a1.9,1.9,0,0,0,.43,1.3,1.54,1.54,0,0,0,2.26,0,2.19,2.19,0,0,0,0-2.62,1.46,1.46,0,0,0-1.13-.48,1.43,1.43,0,0,0-1.13.49A1.9,1.9,0,0,0,265.91,25.38Z"/><path class="cls-15" d="M313.83,30.65v-.16a.44.44,0,0,1,.11-.32.44.44,0,0,1,.33-.11h1.52V24.77l-1.33.91a.41.41,0,0,1-.32.08.37.37,0,0,1-.24-.2l-.13-.19a.39.39,0,0,1-.06-.32.5.5,0,0,1,.23-.25l1.92-1.32a1.55,1.55,0,0,1,.27-.15.77.77,0,0,1,.3-.05h.14a.45.45,0,0,1,.34.12.46.46,0,0,1,.11.33v6.33h1.42a.44.44,0,0,1,.33.11.44.44,0,0,1,.11.32v.16a.44.44,0,0,1-.11.32.45.45,0,0,1-.33.11h-4.17a.45.45,0,0,1-.33-.11A.44.44,0,0,1,313.83,30.65Z"/><path class="cls-15" d="M322.21,31.09a2.58,2.58,0,0,1-1.29-.3,2.4,2.4,0,0,1-.87-.83,3.93,3.93,0,0,1-.49-1.24,7.52,7.52,0,0,1,0-3.08,3.93,3.93,0,0,1,.49-1.24,2.4,2.4,0,0,1,.87-.83,2.89,2.89,0,0,1,2.58,0,2.4,2.4,0,0,1,.87.83,3.93,3.93,0,0,1,.49,1.24,7.48,7.48,0,0,1,0,3.08,3.93,3.93,0,0,1-.49,1.24,2.4,2.4,0,0,1-.87.83A2.58,2.58,0,0,1,322.21,31.09Zm0-1.06a1.21,1.21,0,0,0,1.14-.73,4.78,4.78,0,0,0,.38-2.13,4.77,4.77,0,0,0-.38-2.12,1.26,1.26,0,0,0-2.29,0,4.89,4.89,0,0,0-.37,2.13,4.78,4.78,0,0,0,.38,2.13A1.21,1.21,0,0,0,322.21,30Z"/><path class="cls-15" d="M325.87,30.54v-.36a.55.55,0,0,1,.14-.41.58.58,0,0,1,.42-.14h.36a.48.48,0,0,1,.55.54v.34a3.2,3.2,0,0,1,0,.43,3.25,3.25,0,0,1-.07.37l-.38,1.3a.6.6,0,0,1-.12.22.29.29,0,0,1-.22.08h-.08a.27.27,0,0,1-.21-.08.24.24,0,0,1-.05-.21l.32-1.54h-.07a.58.58,0,0,1-.42-.14A.55.55,0,0,1,325.87,30.54Z"/><path class="cls-15" d="M330.46,31.09a2.15,2.15,0,0,1-1.07-.25,2,2,0,0,1-.72-.69,3.28,3.28,0,0,1-.41-1,6.26,6.26,0,0,1,0-2.57,3.28,3.28,0,0,1,.41-1,2,2,0,0,1,.72-.69,2.41,2.41,0,0,1,2.15,0,2,2,0,0,1,.72.69,3.28,3.28,0,0,1,.41,1,6.26,6.26,0,0,1,0,2.57,3.28,3.28,0,0,1-.41,1,2,2,0,0,1-.72.69A2.16,2.16,0,0,1,330.46,31.09Zm0-.88a1,1,0,0,0,1-.61,4,4,0,0,0,.31-1.77,4,4,0,0,0-.31-1.77,1.05,1.05,0,0,0-1.91,0,4.1,4.1,0,0,0-.3,1.77,4,4,0,0,0,.31,1.77A1,1,0,0,0,330.46,30.21Z"/><path class="cls-15" d="M335.53,31.09a2.15,2.15,0,0,1-1.07-.25,2,2,0,0,1-.72-.69,3.28,3.28,0,0,1-.41-1,6.26,6.26,0,0,1,0-2.57,3.28,3.28,0,0,1,.41-1,2,2,0,0,1,.72-.69,2.41,2.41,0,0,1,2.15,0,2,2,0,0,1,.72.69,3.28,3.28,0,0,1,.41,1,6.26,6.26,0,0,1,0,2.57,3.28,3.28,0,0,1-.41,1,2,2,0,0,1-.72.69A2.16,2.16,0,0,1,335.53,31.09Zm0-.88a1,1,0,0,0,1-.61,4,4,0,0,0,.31-1.77,4,4,0,0,0-.31-1.77,1.05,1.05,0,0,0-1.91,0,4.1,4.1,0,0,0-.3,1.77,4,4,0,0,0,.31,1.77A1,1,0,0,0,335.53,30.21Z"/><path class="cls-16" d="M340.3,28.18a.24.24,0,0,1-.27-.27v-.16a.28.28,0,0,1,.07-.2.28.28,0,0,1,.21-.07h.57a1.43,1.43,0,0,1,0-.2v-.21c0-.08,0-.16,0-.27s0-.19,0-.27h-.58a.3.3,0,0,1-.21-.06.26.26,0,0,1-.07-.2V26.1a.27.27,0,0,1,.07-.19.28.28,0,0,1,.21-.07h.65a3.57,3.57,0,0,1,.91-1.85,2.56,2.56,0,0,1,1.94-.72,2.72,2.72,0,0,1,1.55.4,2.05,2.05,0,0,1,.82,1.1.35.35,0,0,1,0,.37.5.5,0,0,1-.37.12h-.22a.53.53,0,0,1-.34-.09,1,1,0,0,1-.21-.26,1.21,1.21,0,0,0-.46-.47,1.46,1.46,0,0,0-.71-.15,1.41,1.41,0,0,0-1,.41,2.18,2.18,0,0,0-.55,1.15h1.62a.24.24,0,0,1,.26.26v.17a.26.26,0,0,1-.07.2.28.28,0,0,1-.19.06h-1.71v.94h1.71a.27.27,0,0,1,.19.07.28.28,0,0,1,.07.2v.16a.28.28,0,0,1-.07.2.26.26,0,0,1-.19.07h-1.64a2.81,2.81,0,0,0,.55,1.4,1.33,1.33,0,0,0,1.07.49,1.26,1.26,0,0,0,.71-.18,1.38,1.38,0,0,0,.46-.54,1.09,1.09,0,0,1,.21-.31.47.47,0,0,1,.34-.1h.22a.48.48,0,0,1,.37.13.4.4,0,0,1,0,.4,2.21,2.21,0,0,1-.82,1.19,2.57,2.57,0,0,1-1.55.43,2.45,2.45,0,0,1-2-.82,4,4,0,0,1-.89-2.09Z"/><path class="cls-15" d="M239.91,37.1l.21-1.16h-.69a.3.3,0,0,1-.21-.07.28.28,0,0,1-.08-.21v-.18a.28.28,0,0,1,.08-.21.29.29,0,0,1,.21-.08h.82l.35-2h-.76a.31.31,0,0,1-.21-.07.26.26,0,0,1-.08-.21v-.18a.28.28,0,0,1,.08-.21.28.28,0,0,1,.21-.08h.89l.21-1.14a.49.49,0,0,1,.12-.27.35.35,0,0,1,.27-.09h.17a.28.28,0,0,1,.31.37l-.21,1.14h1.27l.2-1.14a.56.56,0,0,1,.13-.27.36.36,0,0,1,.27-.09h.17a.32.32,0,0,1,.26.09.31.31,0,0,1,0,.27l-.2,1.14h.68a.28.28,0,0,1,.21.08.29.29,0,0,1,.07.21v.18a.27.27,0,0,1-.07.21.3.3,0,0,1-.21.07h-.82l-.35,2H244a.27.27,0,0,1,.21.08.31.31,0,0,1,.07.21v.18a.3.3,0,0,1-.07.21.28.28,0,0,1-.21.07h-.9l-.2,1.16a.48.48,0,0,1-.12.27.37.37,0,0,1-.28.09h-.17a.31.31,0,0,1-.26-.09.34.34,0,0,1,0-.27l.2-1.16H241l-.21,1.16a.48.48,0,0,1-.12.27.37.37,0,0,1-.28.09h-.16a.32.32,0,0,1-.26-.09A.33.33,0,0,1,239.91,37.1Zm1.21-1.91h1.27l.35-2h-1.27Z"/><path class="cls-15" d="M246.27,38.33v.82a.37.37,0,0,1-.42.42h-.18a.44.44,0,0,1-.32-.1.41.41,0,0,1-.11-.31v-5.9a.4.4,0,0,1,.1-.3.41.41,0,0,1,.3-.1h.19a.39.39,0,0,1,.29.1.42.42,0,0,1,.11.29v.3h0a1.24,1.24,0,0,1,.62-.53,2.4,2.4,0,0,1,.92-.17,2,2,0,0,1,1.47.59,2.27,2.27,0,0,1,.6,1.69,2.33,2.33,0,0,1-.63,1.72,2.07,2.07,0,0,1-1.52.63,2.14,2.14,0,0,1-.87-.17,1.25,1.25,0,0,1-.59-.53h0q0,.45,0,.88T246.27,38.33Zm0-3.17a1.55,1.55,0,0,0,.37,1.1,1.19,1.19,0,0,0,.91.39,1.15,1.15,0,0,0,.9-.41,1.64,1.64,0,0,0,.36-1.12,1.5,1.5,0,0,0-.36-1.08,1.2,1.2,0,0,0-.9-.38,1.19,1.19,0,0,0-.91.39A1.55,1.55,0,0,0,246.27,35.16Z"/><path class="cls-15" d="M251,31.58a.46.46,0,0,1-.32-.1.39.39,0,0,1-.11-.31V31a.39.39,0,0,1,.11-.31.46.46,0,0,1,.32-.1h.26a.44.44,0,0,1,.31.1.4.4,0,0,1,.1.31v.23a.4.4,0,0,1-.1.31.44.44,0,0,1-.31.1ZM250.61,37V33.27a.41.41,0,0,1,.11-.31.44.44,0,0,1,.32-.1h.18a.43.43,0,0,1,.31.1.42.42,0,0,1,.1.31V37a.37.37,0,0,1-.42.42H251a.44.44,0,0,1-.32-.1A.41.41,0,0,1,250.61,37Z"/><path class="cls-15" d="M252.34,37.13V37a.58.58,0,0,1,0-.2,1,1,0,0,1,.12-.21l2.3-3h-2.15a.33.33,0,0,1-.24-.08.34.34,0,0,1-.08-.25v-.14a.34.34,0,0,1,.08-.25.33.33,0,0,1,.24-.08h3.08a.33.33,0,0,1,.24.08.34.34,0,0,1,.08.25v.1a.65.65,0,0,1,0,.19.74.74,0,0,1-.12.21l-2.28,3h2.15a.33.33,0,0,1,.24.08.34.34,0,0,1,.08.25v.14a.34.34,0,0,1-.08.25.33.33,0,0,1-.24.08h-3.09a.29.29,0,0,1-.33-.33Z"/><path class="cls-15" d="M256.39,37.13V37a.58.58,0,0,1,0-.2,1,1,0,0,1,.12-.21l2.3-3h-2.15a.33.33,0,0,1-.24-.08.34.34,0,0,1-.08-.25v-.14a.34.34,0,0,1,.08-.25.33.33,0,0,1,.24-.08h3.08a.33.33,0,0,1,.24.08.34.34,0,0,1,.08.25v.1a.65.65,0,0,1,0,.19.74.74,0,0,1-.12.21l-2.28,3h2.15a.33.33,0,0,1,.24.08.34.34,0,0,1,.08.25v.14a.34.34,0,0,1-.08.25.33.33,0,0,1-.24.08h-3.09a.29.29,0,0,1-.33-.33Z"/><path class="cls-15" d="M260.5,36.25a1.13,1.13,0,0,1,.37-.88,2.27,2.27,0,0,1,1.18-.46l.9-.14a1.62,1.62,0,0,0,.48-.12.24.24,0,0,0,.12-.23.79.79,0,0,0-.22-.59.93.93,0,0,0-.68-.22,1,1,0,0,0-.64.16,1.66,1.66,0,0,0-.3.35.92.92,0,0,1-.14.17.41.41,0,0,1-.29.08h-.22c-.15,0-.25,0-.29-.13a.4.4,0,0,1,0-.31,1.5,1.5,0,0,1,.66-.79,2.26,2.26,0,0,1,1.23-.31,2.2,2.2,0,0,1,1.42.41,1.43,1.43,0,0,1,.5,1.17v2.65a.4.4,0,0,1-.1.29.41.41,0,0,1-.3.1H264a.37.37,0,0,1-.29-.11.49.49,0,0,1-.11-.32v-.26h0a1.31,1.31,0,0,1-.59.52,2.1,2.1,0,0,1-.9.18,1.76,1.76,0,0,1-1.16-.34A1.11,1.11,0,0,1,260.5,36.25Zm1-.12a.52.52,0,0,0,.2.42.91.91,0,0,0,.59.16,1.39,1.39,0,0,0,.86-.28,1,1,0,0,0,.38-.86v-.39a.47.47,0,0,1-.19.13,1.39,1.39,0,0,1-.29.07l-.8.12a1.07,1.07,0,0,0-.58.22A.53.53,0,0,0,261.53,36.13Z"/><path class="cls-15" d="M265.29,36.43a.26.26,0,0,1,0-.28.38.38,0,0,1,.29-.1h.24a.5.5,0,0,1,.25.05.51.51,0,0,1,.16.14,1,1,0,0,0,.41.39,1.51,1.51,0,0,0,.6.1,1.61,1.61,0,0,0,.8-.16.5.5,0,0,0,.27-.46.42.42,0,0,0-.18-.37,1.29,1.29,0,0,0-.53-.17l-.85-.13a2.62,2.62,0,0,1-1-.34.94.94,0,0,1-.43-.88,1.14,1.14,0,0,1,.56-1,2.5,2.5,0,0,1,1.37-.35,3,3,0,0,1,1.23.24,1.12,1.12,0,0,1,.67.77.26.26,0,0,1,0,.27.37.37,0,0,1-.29.1h-.26a.37.37,0,0,1-.23-.06.66.66,0,0,1-.15-.16.82.82,0,0,0-.37-.32,1.38,1.38,0,0,0-.57-.11,1.45,1.45,0,0,0-.67.14.45.45,0,0,0-.27.43.4.4,0,0,0,.18.35,1.44,1.44,0,0,0,.59.19l.85.14a2.66,2.66,0,0,1,1,.34.93.93,0,0,1,.41.87,1.18,1.18,0,0,1-.58,1.08,2.84,2.84,0,0,1-1.51.36,3,3,0,0,1-1.29-.26A1.2,1.2,0,0,1,265.29,36.43Z"/><path class="cls-15" d="M269.79,36.25a1.13,1.13,0,0,1,.37-.88,2.27,2.27,0,0,1,1.18-.46l.9-.14a1.62,1.62,0,0,0,.48-.12.24.24,0,0,0,.12-.23.79.79,0,0,0-.22-.59.93.93,0,0,0-.68-.22,1,1,0,0,0-.64.16,1.66,1.66,0,0,0-.3.35.92.92,0,0,1-.14.17.41.41,0,0,1-.29.08h-.22c-.15,0-.25,0-.29-.13a.4.4,0,0,1,0-.31,1.5,1.5,0,0,1,.66-.79,2.26,2.26,0,0,1,1.23-.31,2.2,2.2,0,0,1,1.42.41,1.43,1.43,0,0,1,.5,1.17v2.65a.4.4,0,0,1-.1.29.41.41,0,0,1-.3.1h-.18a.37.37,0,0,1-.29-.11.49.49,0,0,1-.11-.32v-.26h0a1.31,1.31,0,0,1-.59.52,2.1,2.1,0,0,1-.9.18,1.76,1.76,0,0,1-1.16-.34A1.11,1.11,0,0,1,269.79,36.25Zm1-.12a.52.52,0,0,0,.2.42.91.91,0,0,0,.59.16,1.39,1.39,0,0,0,.86-.28,1,1,0,0,0,.38-.86v-.39a.47.47,0,0,1-.19.13,1.39,1.39,0,0,1-.29.07l-.8.12a1.07,1.07,0,0,0-.58.22A.53.53,0,0,0,270.81,36.13Z"/><path class="cls-15" d="M274.83,37.07V31a.41.41,0,0,1,.11-.31.44.44,0,0,1,.32-.1h.18a.44.44,0,0,1,.31.1.4.4,0,0,1,.1.3v1c0,.15,0,.37,0,.64s0,.56,0,.85h0a1.19,1.19,0,0,1,.62-.45,2.77,2.77,0,0,1,.92-.14,2,2,0,0,1,1.47.59,2.27,2.27,0,0,1,.6,1.69,2.33,2.33,0,0,1-.63,1.72,2.07,2.07,0,0,1-1.52.63,1.89,1.89,0,0,1-.87-.19,1.33,1.33,0,0,1-.59-.61h0V37a.52.52,0,0,1-.11.34.37.37,0,0,1-.29.11h-.19a.41.41,0,0,1-.3-.1A.4.4,0,0,1,274.83,37.07Zm1-1.91a1.55,1.55,0,0,0,.37,1.1,1.19,1.19,0,0,0,.91.39,1.15,1.15,0,0,0,.9-.41,1.64,1.64,0,0,0,.36-1.12A1.5,1.5,0,0,0,278,34a1.2,1.2,0,0,0-.9-.38,1.19,1.19,0,0,0-.91.39A1.55,1.55,0,0,0,275.86,35.16Z"/><path class="cls-15" d="M279.93,36.25a1.13,1.13,0,0,1,.37-.88,2.27,2.27,0,0,1,1.18-.46l.9-.14a1.62,1.62,0,0,0,.48-.12.24.24,0,0,0,.12-.23.79.79,0,0,0-.22-.59.93.93,0,0,0-.68-.22,1,1,0,0,0-.64.16,1.66,1.66,0,0,0-.3.35.92.92,0,0,1-.14.17.41.41,0,0,1-.29.08h-.22c-.15,0-.25,0-.29-.13a.4.4,0,0,1,0-.31,1.5,1.5,0,0,1,.66-.79,2.26,2.26,0,0,1,1.23-.31,2.2,2.2,0,0,1,1.42.41,1.43,1.43,0,0,1,.5,1.17v2.65a.4.4,0,0,1-.1.29.41.41,0,0,1-.3.1h-.18a.37.37,0,0,1-.29-.11A.49.49,0,0,1,283,37v-.26h0a1.31,1.31,0,0,1-.59.52,2.1,2.1,0,0,1-.9.18,1.76,1.76,0,0,1-1.16-.34A1.11,1.11,0,0,1,279.93,36.25Zm1-.12a.52.52,0,0,0,.2.42.91.91,0,0,0,.59.16,1.39,1.39,0,0,0,.86-.28,1,1,0,0,0,.38-.86v-.39a.47.47,0,0,1-.19.13,1.39,1.39,0,0,1-.29.07l-.8.12a1.07,1.07,0,0,0-.58.22A.53.53,0,0,0,281,36.13Z"/><path class="cls-15" d="M285.07,36V33.65h-.55a.33.33,0,0,1-.24-.08.33.33,0,0,1-.08-.24v-.15a.29.29,0,0,1,.32-.32h.55v-1a.37.37,0,0,1,.42-.42h.19a.43.43,0,0,1,.31.1.42.42,0,0,1,.1.31v1H287a.29.29,0,0,1,.32.32v.15a.29.29,0,0,1-.32.32h-.86V36a.68.68,0,0,0,.14.49.64.64,0,0,0,.47.14h.23a.37.37,0,0,1,.26.08.35.35,0,0,1,.09.26v.15a.35.35,0,0,1-.09.26.37.37,0,0,1-.26.08h-.42A1.25,1.25,0,0,1,285.07,36Z"/><path class="cls-15" d="M287.48,35.16a2.2,2.2,0,0,1,.67-1.69,2.65,2.65,0,0,1,3.41,0,2.24,2.24,0,0,1,.65,1.7,2.2,2.2,0,0,1-.67,1.69,2.65,2.65,0,0,1-3.42,0A2.24,2.24,0,0,1,287.48,35.16Zm1.06,0a1.58,1.58,0,0,0,.36,1.08,1.28,1.28,0,0,0,1.88,0,1.82,1.82,0,0,0,0-2.18,1.21,1.21,0,0,0-.94-.4,1.19,1.19,0,0,0-.94.41A1.58,1.58,0,0,0,288.55,35.16Z"/><polygon class="cls-12" points="228.71 46.59 228.71 52.58 225 46.59 228.71 46.59"/><path class="cls-12" d="M228.71,53.08a.5.5,0,0,1-.42-.24l-3.71-6a.5.5,0,0,1,.42-.76h3.71a.5.5,0,0,1,.5.5v6a.5.5,0,0,1-.36.48Zm-2.81-6,2.31,3.73V47.09Z"/><polygon class="cls-12" points="228.79 46.59 228.79 52.58 232.5 46.59 228.79 46.59"/><path class="cls-12" d="M228.79,53.08l-.14,0a.5.5,0,0,1-.36-.48v-6a.5.5,0,0,1,.5-.5h3.71a.5.5,0,0,1,.42.76l-3.71,6A.5.5,0,0,1,228.79,53.08Zm.5-6v3.73l2.31-3.73Z"/><path class="cls-17" d="M229,53.61a1,1,0,0,1-.84-.46l-3.58-5.56H212.21a4.32,4.32,0,0,1-4.16-4V16.13c0-2.24,2.16-3.63,4.16-3.63H353a3.79,3.79,0,0,1,4,3.63V43.55a4.19,4.19,0,0,1-4,4H233.14l-3.33,5.53a1,1,0,0,1-.84.48ZM212.21,14.5c-1,0-2.16.67-2.16,1.63V43.55a2.31,2.31,0,0,0,2.16,2h12.86a1,1,0,0,1,.84.46l3,4.67,2.79-4.64a1,1,0,0,1,.86-.48H353a2.16,2.16,0,0,0,2-2V16.13a1.84,1.84,0,0,0-2-1.63Z"/><rect class="cls-12" x="30.95" y="314.35" width="146.43" height="33.09" rx="3" ry="3"/><path class="cls-12" d="M174.38,347.94H33.95a3.5,3.5,0,0,1-3.5-3.5V317.35a3.5,3.5,0,0,1,3.5-3.5H174.38a3.5,3.5,0,0,1,3.5,3.5v27.09A3.5,3.5,0,0,1,174.38,347.94ZM33.95,314.85a2.5,2.5,0,0,0-2.5,2.5v27.09a2.5,2.5,0,0,0,2.5,2.5H174.38a2.5,2.5,0,0,0,2.5-2.5V317.35a2.5,2.5,0,0,0-2.5-2.5Z"/><path class="cls-13" d="M53.11,333a7,7,0,0,0,.41-2.36.59.59,0,0,0-.59-.59h-.78a4.06,4.06,0,0,0,.18-1.18,4.14,4.14,0,0,0-4.15-4.13,4.06,4.06,0,0,0-3.81,2.46,3.57,3.57,0,0,0-.44.14l-3-3a.6.6,0,0,0-.84,0,.59.59,0,0,0,0,.84l2.79,2.8a2.7,2.7,0,0,1-.18.2l-2.56-1a.59.59,0,1,0-.44,1.1l2.32.92a3.52,3.52,0,0,0-.27.89H39.9a.59.59,0,0,0-.59.59,7,7,0,0,0,.41,2.36.59.59,0,0,0,.13.35,7.12,7.12,0,0,0,13.13,0A.59.59,0,0,0,53.11,333Zm-4.92-7.07A2.95,2.95,0,0,1,50.9,330H48.73a3.49,3.49,0,0,0-3-2.91A3,3,0,0,1,48.19,325.88Zm-4.89,3.33h0a2.37,2.37,0,0,1,4.21.8H42.95A2.32,2.32,0,0,1,43.31,329.21Zm9,2a5.82,5.82,0,0,1-.25,1.18H40.77a5.82,5.82,0,0,1-.28-1.18Zm-5.92,5.31a5.93,5.93,0,0,1-5.12-2.95H51.54A5.93,5.93,0,0,1,46.42,336.49Z"/><path class="cls-14" d="M60.94,328.27l2.52-6.72a.89.89,0,0,1,.25-.38.67.67,0,0,1,.44-.13h.51a.74.74,0,0,1,.46.13.82.82,0,0,1,.26.38l2.5,6.72a.47.47,0,0,1,0,.44.46.46,0,0,1-.38.14h-.34a.53.53,0,0,1-.38-.12.94.94,0,0,1-.22-.37L66,326.92H62.71l-.51,1.44a.94.94,0,0,1-.22.37.53.53,0,0,1-.38.12h-.27a.47.47,0,0,1-.39-.14Q60.83,328.57,60.94,328.27Zm2.14-2.42h2.58l-1.25-3.54h0Z"/><path class="cls-14" d="M68.65,328.35v-4.56a.49.49,0,0,1,.12-.36.49.49,0,0,1,.36-.12h.23a.44.44,0,0,1,.35.14.65.65,0,0,1,.13.4v.37h0a1.61,1.61,0,0,1,.68-.69,2.19,2.19,0,0,1,1-.23,2.26,2.26,0,0,1,1.45.5,2.13,2.13,0,0,1,.63,1.76v2.8a.49.49,0,0,1-.13.37.52.52,0,0,1-.38.12H73a.52.52,0,0,1-.38-.12.49.49,0,0,1-.12-.37v-2.63a1.55,1.55,0,0,0-.33-1.12,1.17,1.17,0,0,0-.86-.32,1.25,1.25,0,0,0-1,.47,1.89,1.89,0,0,0-.4,1.27v2.34a.49.49,0,0,1-.12.37.52.52,0,0,1-.38.12h-.22a.53.53,0,0,1-.38-.12A.49.49,0,0,1,68.65,328.35Z"/><path class="cls-14" d="M74.49,326.13a2.79,2.79,0,0,1,.76-2.07,2.48,2.48,0,0,1,1.82-.75,3,3,0,0,1,1,.17,1.44,1.44,0,0,1,.71.54h0c0-.35,0-.69-.05-1s0-.59,0-.77V321a.48.48,0,0,1,.13-.36.52.52,0,0,1,.38-.12h.23a.44.44,0,0,1,.5.5v7.33a.5.5,0,0,1-.11.36.49.49,0,0,1-.36.12h-.22a.46.46,0,0,1-.36-.13.58.58,0,0,1-.12-.4v-.42h0a1.55,1.55,0,0,1-.74.73,2.55,2.55,0,0,1-1.11.23,2.41,2.41,0,0,1-1.77-.71A2.72,2.72,0,0,1,74.49,326.13Zm1.28,0a1.8,1.8,0,0,0,.43,1.3,1.51,1.51,0,0,0,2.17,0,2.21,2.21,0,0,0,0-2.64,1.43,1.43,0,0,0-1.09-.47,1.38,1.38,0,0,0-1.08.49A2,2,0,0,0,75.76,326.12Z"/><path class="cls-14" d="M81.31,328.35v-4.56a.49.49,0,0,1,.12-.36.49.49,0,0,1,.36-.12H82a.46.46,0,0,1,.36.13.59.59,0,0,1,.12.4v.38h0a1.67,1.67,0,0,1,.58-.68,1.57,1.57,0,0,1,.9-.25h.32a.51.51,0,0,1,.3.15.37.37,0,0,1,.06.34l-.09.38a.58.58,0,0,1-.1.23.23.23,0,0,1-.17.09.85.85,0,0,1-.25,0,1.09,1.09,0,0,0-.31,0,1,1,0,0,0-.92.49,2,2,0,0,0-.31,1.1v2.35a.49.49,0,0,1-.12.36.52.52,0,0,1-.38.12h-.22a.53.53,0,0,1-.38-.12A.49.49,0,0,1,81.31,328.35Z"/><path class="cls-14" d="M84.6,326.09a2.69,2.69,0,0,1,.79-2,2.73,2.73,0,0,1,2-.77,2.68,2.68,0,0,1,1.85.64,2.23,2.23,0,0,1,.71,1.75.46.46,0,0,1-.13.35.53.53,0,0,1-.38.12H85.87a2,2,0,0,0,.45,1.25,1.38,1.38,0,0,0,1.09.46,1.47,1.47,0,0,0,.72-.15,1.14,1.14,0,0,0,.42-.39,1,1,0,0,1,.21-.23A.44.44,0,0,1,89,327h.37c.19,0,.31.06.35.18a.42.42,0,0,1,0,.36,2.2,2.2,0,0,1-.88.93,3.19,3.19,0,0,1-3.5-.38A2.75,2.75,0,0,1,84.6,326.09Zm1.33-.76h2.78a1.18,1.18,0,0,0-.42-.81,1.47,1.47,0,0,0-.92-.26,1.51,1.51,0,0,0-.92.29A1.35,1.35,0,0,0,85.93,325.33Z"/><path class="cls-14" d="M90.41,327.39a1.36,1.36,0,0,1,.44-1.05,2.73,2.73,0,0,1,1.42-.55l1.08-.17a1.9,1.9,0,0,0,.58-.15.29.29,0,0,0,.14-.27.94.94,0,0,0-.27-.71,1.12,1.12,0,0,0-.82-.26,1.16,1.16,0,0,0-.76.19,2,2,0,0,0-.37.42,1.22,1.22,0,0,1-.17.21.5.5,0,0,1-.35.1h-.26c-.18,0-.3-.05-.34-.16a.48.48,0,0,1,0-.37,1.79,1.79,0,0,1,.79-.94A2.7,2.7,0,0,1,93,323.3a2.63,2.63,0,0,1,1.7.49,1.71,1.71,0,0,1,.6,1.41v3.18a.48.48,0,0,1-.11.35.49.49,0,0,1-.36.12h-.22a.44.44,0,0,1-.35-.13.59.59,0,0,1-.13-.38V328h0a1.57,1.57,0,0,1-.71.62,2.53,2.53,0,0,1-1.08.22,2.11,2.11,0,0,1-1.4-.41A1.33,1.33,0,0,1,90.41,327.39Zm1.23-.14a.62.62,0,0,0,.24.51,1.11,1.11,0,0,0,.71.19,1.67,1.67,0,0,0,1-.34,1.21,1.21,0,0,0,.45-1v-.47a.55.55,0,0,1-.23.15,1.77,1.77,0,0,1-.34.09l-1,.15a1.3,1.3,0,0,0-.7.27A.64.64,0,0,0,91.64,327.24Z"/><path class="cls-15" d="M135.49,331.37v-.16a.44.44,0,0,1,.11-.32.44.44,0,0,1,.33-.11h1.52v-5.29l-1.33.91a.41.41,0,0,1-.32.08.37.37,0,0,1-.24-.2l-.13-.19a.39.39,0,0,1-.06-.32.5.5,0,0,1,.23-.25l1.92-1.32a1.55,1.55,0,0,1,.27-.15.77.77,0,0,1,.3-.05h.14a.45.45,0,0,1,.34.12.46.46,0,0,1,.11.33v6.33h1.42a.44.44,0,0,1,.33.11.44.44,0,0,1,.11.32v.16a.44.44,0,0,1-.11.32.45.45,0,0,1-.33.11h-4.17a.45.45,0,0,1-.33-.11A.44.44,0,0,1,135.49,331.37Z"/><path class="cls-15" d="M143.87,331.81a2.58,2.58,0,0,1-1.29-.3,2.4,2.4,0,0,1-.87-.83,3.93,3.93,0,0,1-.49-1.24,7.52,7.52,0,0,1,0-3.08,3.93,3.93,0,0,1,.49-1.24,2.4,2.4,0,0,1,.87-.83,2.89,2.89,0,0,1,2.58,0,2.4,2.4,0,0,1,.87.83,3.93,3.93,0,0,1,.49,1.24,7.48,7.48,0,0,1,0,3.08,3.93,3.93,0,0,1-.49,1.24,2.4,2.4,0,0,1-.87.83A2.58,2.58,0,0,1,143.87,331.81Zm0-1.06A1.21,1.21,0,0,0,145,330a6.18,6.18,0,0,0,0-4.25,1.26,1.26,0,0,0-2.29,0,4.89,4.89,0,0,0-.37,2.13,4.78,4.78,0,0,0,.38,2.13A1.21,1.21,0,0,0,143.87,330.76Z"/><path class="cls-15" d="M147.53,331.25v-.36a.55.55,0,0,1,.14-.41.58.58,0,0,1,.42-.14h.36a.48.48,0,0,1,.55.54v.34a3.2,3.2,0,0,1,0,.43,3.25,3.25,0,0,1-.07.37l-.38,1.3a.6.6,0,0,1-.12.22.29.29,0,0,1-.22.08h-.08a.27.27,0,0,1-.21-.08.24.24,0,0,1-.05-.21l.32-1.54h-.07a.58.58,0,0,1-.42-.14A.55.55,0,0,1,147.53,331.25Z"/><path class="cls-15" d="M152.12,331.81a2.15,2.15,0,0,1-1.07-.25,2,2,0,0,1-.72-.69,3.28,3.28,0,0,1-.41-1,6.26,6.26,0,0,1,0-2.57,3.28,3.28,0,0,1,.41-1,2,2,0,0,1,.72-.69,2.41,2.41,0,0,1,2.15,0,2,2,0,0,1,.72.69,3.28,3.28,0,0,1,.41,1,6.26,6.26,0,0,1,0,2.57,3.28,3.28,0,0,1-.41,1,2,2,0,0,1-.72.69A2.16,2.16,0,0,1,152.12,331.81Zm0-.88a1,1,0,0,0,1-.61,5.16,5.16,0,0,0,0-3.54,1.05,1.05,0,0,0-1.91,0,4.1,4.1,0,0,0-.3,1.77,4,4,0,0,0,.31,1.77A1,1,0,0,0,152.12,330.93Z"/><path class="cls-15" d="M157.18,331.81a2.15,2.15,0,0,1-1.07-.25,2,2,0,0,1-.72-.69,3.28,3.28,0,0,1-.41-1,6.26,6.26,0,0,1,0-2.57,3.28,3.28,0,0,1,.41-1,2,2,0,0,1,.72-.69,2.41,2.41,0,0,1,2.15,0,2,2,0,0,1,.72.69,3.28,3.28,0,0,1,.41,1,6.26,6.26,0,0,1,0,2.57,3.28,3.28,0,0,1-.41,1,2,2,0,0,1-.72.69A2.16,2.16,0,0,1,157.18,331.81Zm0-.88a1,1,0,0,0,1-.61,5.16,5.16,0,0,0,0-3.54,1.05,1.05,0,0,0-1.91,0,4.1,4.1,0,0,0-.3,1.77,4,4,0,0,0,.31,1.77A1,1,0,0,0,157.18,330.93Z"/><path class="cls-16" d="M162,328.9a.24.24,0,0,1-.27-.27v-.16a.28.28,0,0,1,.07-.2.28.28,0,0,1,.21-.07h.57a1.43,1.43,0,0,1,0-.2v-.21c0-.08,0-.16,0-.27s0-.19,0-.27H162a.3.3,0,0,1-.21-.06.26.26,0,0,1-.07-.2v-.17a.27.27,0,0,1,.07-.19.28.28,0,0,1,.21-.07h.65a3.57,3.57,0,0,1,.91-1.85,2.56,2.56,0,0,1,1.94-.72,2.72,2.72,0,0,1,1.55.4,2.05,2.05,0,0,1,.82,1.1.35.35,0,0,1,0,.37.5.5,0,0,1-.37.12h-.22a.53.53,0,0,1-.34-.09,1,1,0,0,1-.21-.26,1.21,1.21,0,0,0-.46-.47,1.46,1.46,0,0,0-.71-.15,1.41,1.41,0,0,0-1,.41,2.18,2.18,0,0,0-.55,1.15h1.62a.24.24,0,0,1,.26.26V327a.26.26,0,0,1-.07.2.28.28,0,0,1-.19.06H163.8v.94h1.71a.27.27,0,0,1,.19.07.28.28,0,0,1,.07.2v.16a.28.28,0,0,1-.07.2.26.26,0,0,1-.19.07h-1.64a2.81,2.81,0,0,0,.55,1.4,1.33,1.33,0,0,0,1.07.49,1.26,1.26,0,0,0,.71-.18,1.38,1.38,0,0,0,.46-.54,1.09,1.09,0,0,1,.21-.31.47.47,0,0,1,.34-.1h.22a.48.48,0,0,1,.37.13.4.4,0,0,1,0,.4,2.21,2.21,0,0,1-.82,1.19,2.57,2.57,0,0,1-1.55.43,2.45,2.45,0,0,1-2-.82,4,4,0,0,1-.89-2.09Z"/><path class="cls-15" d="M61.56,337.6l.21-1.16h-.69a.3.3,0,0,1-.21-.07.28.28,0,0,1-.08-.21V336a.28.28,0,0,1,.08-.21.29.29,0,0,1,.21-.08h.82l.35-2h-.76a.31.31,0,0,1-.21-.07.26.26,0,0,1-.08-.21v-.18a.28.28,0,0,1,.08-.21.28.28,0,0,1,.21-.08h.89l.21-1.14a.49.49,0,0,1,.12-.27.35.35,0,0,1,.27-.09h.17a.28.28,0,0,1,.31.37L63.25,333h1.27l.2-1.14a.56.56,0,0,1,.13-.27.36.36,0,0,1,.27-.09h.17a.32.32,0,0,1,.26.09.31.31,0,0,1,0,.27L65.4,333h.68a.28.28,0,0,1,.21.08.29.29,0,0,1,.07.21v.18a.27.27,0,0,1-.07.21.3.3,0,0,1-.21.07h-.82l-.35,2h.77a.27.27,0,0,1,.21.08A.31.31,0,0,1,66,336v.18a.3.3,0,0,1-.07.21.28.28,0,0,1-.21.07h-.9l-.2,1.16a.48.48,0,0,1-.12.27.37.37,0,0,1-.28.09H64a.31.31,0,0,1-.26-.09.34.34,0,0,1,0-.27l.2-1.16H62.65l-.21,1.16a.48.48,0,0,1-.12.27A.37.37,0,0,1,62,338h-.16a.32.32,0,0,1-.26-.09A.33.33,0,0,1,61.56,337.6Zm1.21-1.91H64l.35-2H63.12Z"/><path class="cls-15" d="M67.93,338.83v.82a.37.37,0,0,1-.42.42h-.18A.44.44,0,0,1,67,340a.41.41,0,0,1-.11-.31v-5.9a.4.4,0,0,1,.1-.3.41.41,0,0,1,.3-.1h.19a.39.39,0,0,1,.29.1.42.42,0,0,1,.11.29v.3h0a1.24,1.24,0,0,1,.62-.53,2.4,2.4,0,0,1,.92-.17,2,2,0,0,1,1.47.59,2.27,2.27,0,0,1,.6,1.69,2.33,2.33,0,0,1-.63,1.72,2.07,2.07,0,0,1-1.52.63,2.14,2.14,0,0,1-.87-.17,1.25,1.25,0,0,1-.59-.53h0q0,.45,0,.88T67.93,338.83Zm0-3.17a1.55,1.55,0,0,0,.37,1.1,1.19,1.19,0,0,0,.91.39,1.15,1.15,0,0,0,.9-.41,1.64,1.64,0,0,0,.36-1.12,1.5,1.5,0,0,0-.36-1.08,1.2,1.2,0,0,0-.9-.38,1.19,1.19,0,0,0-.91.39A1.55,1.55,0,0,0,67.93,335.66Z"/><path class="cls-15" d="M72.66,332.09a.46.46,0,0,1-.32-.1.39.39,0,0,1-.11-.31v-.23a.39.39,0,0,1,.11-.31.46.46,0,0,1,.32-.1h.26a.44.44,0,0,1,.31.1.4.4,0,0,1,.1.31v.23a.4.4,0,0,1-.1.31.44.44,0,0,1-.31.1Zm-.39,5.46v-3.78a.41.41,0,0,1,.11-.31.44.44,0,0,1,.32-.1h.18a.43.43,0,0,1,.31.1.42.42,0,0,1,.1.31v3.78a.37.37,0,0,1-.42.42H72.7a.44.44,0,0,1-.32-.1A.41.41,0,0,1,72.27,337.55Z"/><path class="cls-15" d="M74,337.64v-.09a.58.58,0,0,1,0-.2,1,1,0,0,1,.12-.21l2.3-3H74.3a.33.33,0,0,1-.24-.08.34.34,0,0,1-.08-.25v-.14a.34.34,0,0,1,.08-.25.33.33,0,0,1,.24-.08h3.08a.33.33,0,0,1,.24.08.34.34,0,0,1,.08.25v.1a.65.65,0,0,1,0,.19.74.74,0,0,1-.12.21l-2.28,3h2.15a.33.33,0,0,1,.24.08.34.34,0,0,1,.08.25v.14a.34.34,0,0,1-.08.25.33.33,0,0,1-.24.08H74.33a.29.29,0,0,1-.33-.33Z"/><path class="cls-15" d="M78,337.64v-.09a.58.58,0,0,1,0-.2,1,1,0,0,1,.12-.21l2.3-3H78.35a.33.33,0,0,1-.24-.08.34.34,0,0,1-.08-.25v-.14a.34.34,0,0,1,.08-.25.33.33,0,0,1,.24-.08h3.08a.33.33,0,0,1,.24.08.34.34,0,0,1,.08.25v.1a.65.65,0,0,1,0,.19.74.74,0,0,1-.12.21l-2.28,3h2.15a.33.33,0,0,1,.24.08.34.34,0,0,1,.08.25v.14a.34.34,0,0,1-.08.25.33.33,0,0,1-.24.08H78.38a.29.29,0,0,1-.33-.33Z"/><path class="cls-15" d="M82.16,336.75a1.13,1.13,0,0,1,.37-.88,2.27,2.27,0,0,1,1.18-.46l.9-.14a1.62,1.62,0,0,0,.48-.12.24.24,0,0,0,.12-.23.79.79,0,0,0-.22-.59.93.93,0,0,0-.68-.22,1,1,0,0,0-.64.16,1.66,1.66,0,0,0-.3.35.92.92,0,0,1-.14.17.41.41,0,0,1-.29.08h-.22c-.15,0-.25,0-.29-.13a.4.4,0,0,1,0-.31,1.5,1.5,0,0,1,.66-.79,2.26,2.26,0,0,1,1.23-.31,2.2,2.2,0,0,1,1.42.41,1.43,1.43,0,0,1,.5,1.17v2.65a.4.4,0,0,1-.1.29.41.41,0,0,1-.3.1h-.18a.37.37,0,0,1-.29-.11.49.49,0,0,1-.11-.32v-.26h0a1.31,1.31,0,0,1-.59.52,2.1,2.1,0,0,1-.9.18,1.76,1.76,0,0,1-1.16-.34A1.11,1.11,0,0,1,82.16,336.75Zm1-.12a.52.52,0,0,0,.2.42.91.91,0,0,0,.59.16,1.39,1.39,0,0,0,.86-.28,1,1,0,0,0,.38-.86v-.39a.47.47,0,0,1-.19.13,1.39,1.39,0,0,1-.29.07l-.8.12a1.07,1.07,0,0,0-.58.22A.53.53,0,0,0,83.19,336.63Z"/><path class="cls-15" d="M86.95,336.93a.26.26,0,0,1,0-.28.38.38,0,0,1,.29-.1h.24a.5.5,0,0,1,.25.05.51.51,0,0,1,.16.14,1,1,0,0,0,.41.39,1.51,1.51,0,0,0,.6.1,1.61,1.61,0,0,0,.8-.16.5.5,0,0,0,.27-.46.42.42,0,0,0-.18-.37,1.29,1.29,0,0,0-.53-.17l-.85-.13a2.62,2.62,0,0,1-1-.34.94.94,0,0,1-.43-.88,1.14,1.14,0,0,1,.56-1,2.5,2.5,0,0,1,1.37-.35,3,3,0,0,1,1.23.24,1.12,1.12,0,0,1,.67.77.26.26,0,0,1,0,.27.37.37,0,0,1-.29.1h-.26a.37.37,0,0,1-.23-.06.66.66,0,0,1-.15-.16.82.82,0,0,0-.37-.32,1.38,1.38,0,0,0-.57-.11,1.45,1.45,0,0,0-.67.14.45.45,0,0,0-.27.43.4.4,0,0,0,.18.35,1.44,1.44,0,0,0,.59.19l.85.14a2.66,2.66,0,0,1,1,.34.93.93,0,0,1,.41.87,1.18,1.18,0,0,1-.58,1.08,2.84,2.84,0,0,1-1.51.36,3,3,0,0,1-1.29-.26A1.2,1.2,0,0,1,86.95,336.93Z"/><path class="cls-15" d="M91.44,336.75a1.13,1.13,0,0,1,.37-.88,2.27,2.27,0,0,1,1.18-.46l.9-.14a1.62,1.62,0,0,0,.48-.12.24.24,0,0,0,.12-.23.79.79,0,0,0-.22-.59.93.93,0,0,0-.68-.22,1,1,0,0,0-.64.16,1.66,1.66,0,0,0-.3.35.92.92,0,0,1-.14.17.41.41,0,0,1-.29.08H92c-.15,0-.25,0-.29-.13a.4.4,0,0,1,0-.31,1.5,1.5,0,0,1,.66-.79,2.26,2.26,0,0,1,1.23-.31,2.2,2.2,0,0,1,1.42.41,1.43,1.43,0,0,1,.5,1.17v2.65a.4.4,0,0,1-.1.29.41.41,0,0,1-.3.1h-.18a.37.37,0,0,1-.29-.11.49.49,0,0,1-.11-.32v-.26h0a1.31,1.31,0,0,1-.59.52,2.1,2.1,0,0,1-.9.18,1.76,1.76,0,0,1-1.16-.34A1.11,1.11,0,0,1,91.44,336.75Zm1-.12a.52.52,0,0,0,.2.42.91.91,0,0,0,.59.16,1.39,1.39,0,0,0,.86-.28,1,1,0,0,0,.38-.86v-.39a.47.47,0,0,1-.19.13,1.39,1.39,0,0,1-.29.07l-.8.12a1.07,1.07,0,0,0-.58.22A.53.53,0,0,0,92.47,336.63Z"/><path class="cls-15" d="M96.49,337.57v-6.11a.41.41,0,0,1,.11-.31.44.44,0,0,1,.32-.1h.18a.44.44,0,0,1,.31.1.4.4,0,0,1,.1.3v1c0,.15,0,.37,0,.64s0,.56,0,.85h0a1.19,1.19,0,0,1,.62-.45,2.77,2.77,0,0,1,.92-.14,2,2,0,0,1,1.47.59,2.27,2.27,0,0,1,.6,1.69,2.33,2.33,0,0,1-.63,1.72A2.07,2.07,0,0,1,99,338a1.89,1.89,0,0,1-.87-.19,1.33,1.33,0,0,1-.59-.61h0v.35a.52.52,0,0,1-.11.34.37.37,0,0,1-.29.11h-.19a.41.41,0,0,1-.3-.1A.4.4,0,0,1,96.49,337.57Zm1-1.91a1.55,1.55,0,0,0,.37,1.1,1.19,1.19,0,0,0,.91.39,1.15,1.15,0,0,0,.9-.41,1.64,1.64,0,0,0,.36-1.12,1.5,1.5,0,0,0-.36-1.08,1.2,1.2,0,0,0-.9-.38,1.19,1.19,0,0,0-.91.39A1.55,1.55,0,0,0,97.51,335.66Z"/><path class="cls-15" d="M101.59,336.75a1.13,1.13,0,0,1,.37-.88,2.27,2.27,0,0,1,1.18-.46l.9-.14a1.62,1.62,0,0,0,.48-.12.24.24,0,0,0,.12-.23.79.79,0,0,0-.22-.59.93.93,0,0,0-.68-.22,1,1,0,0,0-.64.16,1.66,1.66,0,0,0-.3.35.92.92,0,0,1-.14.17.41.41,0,0,1-.29.08h-.22c-.15,0-.25,0-.29-.13a.4.4,0,0,1,0-.31,1.5,1.5,0,0,1,.66-.79,2.26,2.26,0,0,1,1.23-.31,2.2,2.2,0,0,1,1.42.41,1.43,1.43,0,0,1,.5,1.17v2.65a.4.4,0,0,1-.1.29.41.41,0,0,1-.3.1h-.18a.37.37,0,0,1-.29-.11.49.49,0,0,1-.11-.32v-.26h0a1.31,1.31,0,0,1-.59.52,2.1,2.1,0,0,1-.9.18,1.76,1.76,0,0,1-1.16-.34A1.11,1.11,0,0,1,101.59,336.75Zm1-.12a.52.52,0,0,0,.2.42.91.91,0,0,0,.59.16,1.39,1.39,0,0,0,.86-.28,1,1,0,0,0,.38-.86v-.39a.47.47,0,0,1-.19.13,1.39,1.39,0,0,1-.29.07l-.8.12a1.07,1.07,0,0,0-.58.22A.53.53,0,0,0,102.62,336.63Z"/><path class="cls-15" d="M106.73,336.53v-2.38h-.55a.33.33,0,0,1-.24-.08.33.33,0,0,1-.08-.24v-.15a.29.29,0,0,1,.32-.32h.55v-1a.37.37,0,0,1,.42-.42h.19a.43.43,0,0,1,.31.1.42.42,0,0,1,.1.31v1h.86a.29.29,0,0,1,.32.32v.15a.29.29,0,0,1-.32.32h-.86v2.33a.68.68,0,0,0,.14.49.64.64,0,0,0,.47.14h.23a.37.37,0,0,1,.26.08.35.35,0,0,1,.09.26v.15a.35.35,0,0,1-.09.26.37.37,0,0,1-.26.08h-.42a1.25,1.25,0,0,1-1.44-1.44Z"/><path class="cls-15" d="M109.14,335.66a2.2,2.2,0,0,1,.67-1.69,2.65,2.65,0,0,1,3.41,0,2.24,2.24,0,0,1,.65,1.7,2.2,2.2,0,0,1-.67,1.69,2.65,2.65,0,0,1-3.42,0A2.24,2.24,0,0,1,109.14,335.66Zm1.06,0a1.58,1.58,0,0,0,.36,1.08,1.28,1.28,0,0,0,1.88,0,1.82,1.82,0,0,0,0-2.18,1.21,1.21,0,0,0-.94-.4,1.19,1.19,0,0,0-.94.41A1.58,1.58,0,0,0,110.21,335.66Z"/><polygon class="cls-12" points="122.48 315.61 122.48 309.62 126.19 315.61 122.48 315.61"/><path class="cls-12" d="M126.19,316.11h-3.71a.5.5,0,0,1-.5-.5v-6a.5.5,0,0,1,.92-.26l3.71,6a.5.5,0,0,1-.42.76Zm-3.21-1h2.31L123,311.38Z"/><polygon class="cls-12" points="122.4 315.61 122.4 309.62 118.69 315.61 122.4 315.61"/><path class="cls-12" d="M122.4,316.11h-3.71a.5.5,0,0,1-.42-.76l3.71-6a.5.5,0,0,1,.92.26v6A.5.5,0,0,1,122.4,316.11Zm-2.81-1h2.31v-3.73Z"/><path class="cls-17" d="M174.15,348.44H33.41a3.8,3.8,0,0,1-4-3.63V317.39a4.19,4.19,0,0,1,4-4h84.75l3.33-5.53a1,1,0,0,1,.84-.48h0a1,1,0,0,1,.84.46l3.58,5.56h47.39a4.32,4.32,0,0,1,4.16,4v27.42C178.31,347,176.15,348.44,174.15,348.44ZM33.41,315.35a2.17,2.17,0,0,0-2,2v27.42a1.84,1.84,0,0,0,2,1.63H174.15c1,0,2.16-.67,2.16-1.63V317.39a2.31,2.31,0,0,0-2.16-2H126.22a1,1,0,0,1-.84-.46l-3-4.67-2.79,4.64a1,1,0,0,1-.86.48Z"/><g class="cls-18"><rect class="cls-12" x="222.1" y="353.34" width="146.43" height="33.09" rx="3" ry="3"/></g><rect class="cls-12" x="222.1" y="353.34" width="146.43" height="33.09" rx="3" ry="3"/><path class="cls-6" d="M365.53,386.94H225.1a3.5,3.5,0,0,1-3.5-3.5V356.34a3.5,3.5,0,0,1,3.5-3.5H365.53a3.5,3.5,0,0,1,3.5,3.5v27.09A3.5,3.5,0,0,1,365.53,386.94ZM225.1,353.84a2.5,2.5,0,0,0-2.5,2.5v27.09a2.5,2.5,0,0,0,2.5,2.5H365.53a2.5,2.5,0,0,0,2.5-2.5V356.34a2.5,2.5,0,0,0-2.5-2.5Z"/><path class="cls-13" d="M244.26,372a7,7,0,0,0,.41-2.36.59.59,0,0,0-.59-.59h-.78a4.06,4.06,0,0,0,.18-1.18,4.14,4.14,0,0,0-4.15-4.13,4.06,4.06,0,0,0-3.81,2.46,3.57,3.57,0,0,0-.44.14l-3-3a.6.6,0,0,0-.84,0,.59.59,0,0,0,0,.84l2.79,2.8a2.7,2.7,0,0,1-.18.2l-2.56-1a.59.59,0,1,0-.44,1.1l2.32.92a3.52,3.52,0,0,0-.27.89h-1.83a.59.59,0,0,0-.59.59,7,7,0,0,0,.41,2.36.59.59,0,0,0,.13.35,7.12,7.12,0,0,0,13.13,0A.59.59,0,0,0,244.26,372Zm-4.92-7.07a2.95,2.95,0,0,1,2.71,4.13h-2.17a3.49,3.49,0,0,0-3-2.91A3,3,0,0,1,239.35,364.88Zm-4.89,3.33h0a2.37,2.37,0,0,1,4.21.8H234.1A2.32,2.32,0,0,1,234.46,368.21Zm9,2a5.82,5.82,0,0,1-.25,1.18H231.92a5.82,5.82,0,0,1-.28-1.18Zm-5.92,5.31a5.93,5.93,0,0,1-5.12-2.95h10.25A5.93,5.93,0,0,1,237.57,375.49Z"/><path class="cls-14" d="M252.73,367.89V361.1a.5.5,0,0,1,.14-.38.54.54,0,0,1,.39-.13h4.51a.47.47,0,0,1,.34.11.44.44,0,0,1,.11.33v.19a.46.46,0,0,1-.11.33.45.45,0,0,1-.34.12H254v2.21h2.93a.47.47,0,0,1,.33.11.42.42,0,0,1,.11.32v.19a.42.42,0,0,1-.11.32.47.47,0,0,1-.33.11H254v2.36h3.85a.41.41,0,0,1,.46.45V368a.44.44,0,0,1-.12.33.47.47,0,0,1-.34.11h-4.62a.53.53,0,0,1-.39-.13A.5.5,0,0,1,252.73,367.89Z"/><path class="cls-14" d="M259.21,367.9v-7.31a.5.5,0,0,1,.13-.37.53.53,0,0,1,.38-.12h.22a.44.44,0,0,1,.5.5v7.31a.44.44,0,0,1-.5.5h-.22a.53.53,0,0,1-.38-.12A.49.49,0,0,1,259.21,367.9Z"/><path class="cls-14" d="M261.32,365.64a2.69,2.69,0,0,1,.79-2,2.73,2.73,0,0,1,2-.77,2.68,2.68,0,0,1,1.85.64,2.23,2.23,0,0,1,.71,1.75.46.46,0,0,1-.13.35.53.53,0,0,1-.38.12h-3.56A2,2,0,0,0,263,367a1.38,1.38,0,0,0,1.09.46,1.47,1.47,0,0,0,.72-.15,1.14,1.14,0,0,0,.42-.39,1,1,0,0,1,.21-.23.44.44,0,0,1,.27-.08h.37c.19,0,.31.06.35.18a.42.42,0,0,1,0,.36,2.2,2.2,0,0,1-.88.93,3.19,3.19,0,0,1-3.5-.38A2.75,2.75,0,0,1,261.32,365.64Zm1.33-.76h2.78a1.18,1.18,0,0,0-.42-.81,1.47,1.47,0,0,0-.92-.26,1.51,1.51,0,0,0-.92.29A1.35,1.35,0,0,0,262.65,364.88Z"/><path class="cls-14" d="M267.48,367.9v-4.56a.49.49,0,0,1,.12-.36.49.49,0,0,1,.36-.12h.23a.44.44,0,0,1,.35.14.65.65,0,0,1,.13.4v.37h0a1.61,1.61,0,0,1,.68-.69,2.19,2.19,0,0,1,1-.23,2.26,2.26,0,0,1,1.45.5,2.13,2.13,0,0,1,.63,1.76v2.8a.49.49,0,0,1-.13.37.52.52,0,0,1-.38.12h-.23a.52.52,0,0,1-.38-.12.49.49,0,0,1-.12-.37v-2.63a1.55,1.55,0,0,0-.33-1.12,1.17,1.17,0,0,0-.86-.32,1.25,1.25,0,0,0-1,.47,1.89,1.89,0,0,0-.4,1.27v2.34a.49.49,0,0,1-.12.37.52.52,0,0,1-.38.12H268a.53.53,0,0,1-.38-.12A.49.49,0,0,1,267.48,367.9Z"/><path class="cls-14" d="M273.35,366.93a1.36,1.36,0,0,1,.44-1.05,2.73,2.73,0,0,1,1.42-.55l1.08-.17a1.9,1.9,0,0,0,.58-.15.29.29,0,0,0,.14-.27.94.94,0,0,0-.27-.71,1.12,1.12,0,0,0-.82-.26,1.16,1.16,0,0,0-.76.19,2,2,0,0,0-.37.42,1.22,1.22,0,0,1-.17.21.5.5,0,0,1-.35.1H274c-.18,0-.3-.05-.34-.16a.48.48,0,0,1,0-.37,1.79,1.79,0,0,1,.79-.94,2.7,2.7,0,0,1,1.47-.37,2.63,2.63,0,0,1,1.7.49,1.71,1.71,0,0,1,.6,1.41v3.18a.48.48,0,0,1-.11.35.49.49,0,0,1-.36.12h-.22a.44.44,0,0,1-.35-.13.59.59,0,0,1-.13-.38v-.32h0a1.57,1.57,0,0,1-.71.62,2.53,2.53,0,0,1-1.08.22,2.11,2.11,0,0,1-1.4-.41A1.33,1.33,0,0,1,273.35,366.93Zm1.23-.14a.62.62,0,0,0,.24.51,1.11,1.11,0,0,0,.71.19,1.67,1.67,0,0,0,1-.34,1.21,1.21,0,0,0,.45-1v-.47a.55.55,0,0,1-.23.15,1.77,1.77,0,0,1-.34.09l-1,.15a1.3,1.3,0,0,0-.7.27A.64.64,0,0,0,274.59,366.79Z"/><path class="cls-15" d="M326.64,370.51v-.16a.44.44,0,0,1,.11-.32.44.44,0,0,1,.33-.11h1.52v-5.29l-1.33.91a.41.41,0,0,1-.32.08.37.37,0,0,1-.24-.2l-.13-.19a.39.39,0,0,1-.06-.32.5.5,0,0,1,.23-.25l1.92-1.32a1.55,1.55,0,0,1,.27-.15.77.77,0,0,1,.3-.05h.14a.45.45,0,0,1,.34.12.46.46,0,0,1,.11.33v6.33h1.42a.44.44,0,0,1,.33.11.44.44,0,0,1,.11.32v.16a.44.44,0,0,1-.11.32.45.45,0,0,1-.33.11h-4.17a.45.45,0,0,1-.33-.11A.44.44,0,0,1,326.64,370.51Z"/><path class="cls-15" d="M335,371a2.58,2.58,0,0,1-1.29-.3,2.4,2.4,0,0,1-.87-.83,3.93,3.93,0,0,1-.49-1.24,7.52,7.52,0,0,1,0-3.08,3.93,3.93,0,0,1,.49-1.24,2.4,2.4,0,0,1,.87-.83,2.89,2.89,0,0,1,2.58,0,2.4,2.4,0,0,1,.87.83,3.93,3.93,0,0,1,.49,1.24,7.48,7.48,0,0,1,0,3.08,3.93,3.93,0,0,1-.49,1.24,2.4,2.4,0,0,1-.87.83A2.58,2.58,0,0,1,335,371Zm0-1.06a1.21,1.21,0,0,0,1.14-.73,6.18,6.18,0,0,0,0-4.25,1.26,1.26,0,0,0-2.29,0,4.89,4.89,0,0,0-.37,2.13,4.78,4.78,0,0,0,.38,2.13A1.21,1.21,0,0,0,335,369.9Z"/><path class="cls-15" d="M338.68,370.4V370a.55.55,0,0,1,.14-.41.58.58,0,0,1,.42-.14h.36a.48.48,0,0,1,.55.54v.34a3.2,3.2,0,0,1,0,.43,3.25,3.25,0,0,1-.07.37l-.38,1.3a.6.6,0,0,1-.12.22.29.29,0,0,1-.22.08h-.08a.27.27,0,0,1-.21-.08.24.24,0,0,1-.05-.21l.32-1.54h-.07a.58.58,0,0,1-.42-.14A.55.55,0,0,1,338.68,370.4Z"/><path class="cls-15" d="M343.27,371a2.15,2.15,0,0,1-1.07-.25,2,2,0,0,1-.72-.69,3.28,3.28,0,0,1-.41-1,6.26,6.26,0,0,1,0-2.57,3.28,3.28,0,0,1,.41-1,2,2,0,0,1,.72-.69,2.41,2.41,0,0,1,2.15,0,2,2,0,0,1,.72.69,3.28,3.28,0,0,1,.41,1,6.26,6.26,0,0,1,0,2.57,3.28,3.28,0,0,1-.41,1,2,2,0,0,1-.72.69A2.16,2.16,0,0,1,343.27,371Zm0-.88a1,1,0,0,0,1-.61,5.16,5.16,0,0,0,0-3.54,1.05,1.05,0,0,0-1.91,0,4.1,4.1,0,0,0-.3,1.77,4,4,0,0,0,.31,1.77A1,1,0,0,0,343.27,370.08Z"/><path class="cls-15" d="M348.33,371a2.15,2.15,0,0,1-1.07-.25,2,2,0,0,1-.72-.69,3.28,3.28,0,0,1-.41-1,6.26,6.26,0,0,1,0-2.57,3.28,3.28,0,0,1,.41-1,2,2,0,0,1,.72-.69,2.41,2.41,0,0,1,2.15,0,2,2,0,0,1,.72.69,3.28,3.28,0,0,1,.41,1,6.26,6.26,0,0,1,0,2.57,3.28,3.28,0,0,1-.41,1,2,2,0,0,1-.72.69A2.16,2.16,0,0,1,348.33,371Zm0-.88a1,1,0,0,0,1-.61,5.16,5.16,0,0,0,0-3.54,1.05,1.05,0,0,0-1.91,0,4.1,4.1,0,0,0-.3,1.77,4,4,0,0,0,.31,1.77A1,1,0,0,0,348.33,370.08Z"/><path class="cls-16" d="M353.11,368a.24.24,0,0,1-.27-.27v-.16a.28.28,0,0,1,.07-.2.28.28,0,0,1,.21-.07h.57a1.43,1.43,0,0,1,0-.2v-.21c0-.08,0-.16,0-.27s0-.19,0-.27h-.58a.3.3,0,0,1-.21-.06.26.26,0,0,1-.07-.2V366a.27.27,0,0,1,.07-.19.28.28,0,0,1,.21-.07h.65a3.57,3.57,0,0,1,.91-1.85,2.56,2.56,0,0,1,1.94-.72,2.72,2.72,0,0,1,1.55.4,2.05,2.05,0,0,1,.82,1.1.35.35,0,0,1,0,.37.5.5,0,0,1-.37.12h-.22A.53.53,0,0,1,358,365a1,1,0,0,1-.21-.26,1.21,1.21,0,0,0-.46-.47,1.46,1.46,0,0,0-.71-.15,1.41,1.41,0,0,0-1,.41,2.18,2.18,0,0,0-.55,1.15h1.62a.24.24,0,0,1,.26.26v.17a.26.26,0,0,1-.07.2.28.28,0,0,1-.19.06H355v.94h1.71a.27.27,0,0,1,.19.07.28.28,0,0,1,.07.2v.16a.28.28,0,0,1-.07.2.26.26,0,0,1-.19.07H355a2.81,2.81,0,0,0,.55,1.4,1.33,1.33,0,0,0,1.07.49,1.26,1.26,0,0,0,.71-.18,1.38,1.38,0,0,0,.46-.54,1.09,1.09,0,0,1,.21-.31.47.47,0,0,1,.34-.1h.22a.48.48,0,0,1,.37.13.4.4,0,0,1,0,.4,2.21,2.21,0,0,1-.82,1.19,2.57,2.57,0,0,1-1.55.43,2.45,2.45,0,0,1-2-.82,4,4,0,0,1-.89-2.09Z"/><path class="cls-15" d="M252.71,376.05l.21-1.16h-.69a.3.3,0,0,1-.21-.07.28.28,0,0,1-.08-.21v-.18a.28.28,0,0,1,.08-.21.29.29,0,0,1,.21-.08H253l.35-2h-.76a.31.31,0,0,1-.21-.07.26.26,0,0,1-.08-.21v-.18a.28.28,0,0,1,.08-.21.28.28,0,0,1,.21-.08h.89l.21-1.14a.49.49,0,0,1,.12-.27.35.35,0,0,1,.27-.09h.17a.28.28,0,0,1,.31.37l-.21,1.14h1.27l.2-1.14A.56.56,0,0,1,256,370a.36.36,0,0,1,.27-.09h.17a.32.32,0,0,1,.26.09.31.31,0,0,1,0,.27l-.2,1.14h.68a.28.28,0,0,1,.21.08.29.29,0,0,1,.07.21v.18a.27.27,0,0,1-.07.21.3.3,0,0,1-.21.07h-.82l-.35,2h.77a.27.27,0,0,1,.21.08.31.31,0,0,1,.07.21v.18a.3.3,0,0,1-.07.21.28.28,0,0,1-.21.07h-.9l-.2,1.16a.48.48,0,0,1-.12.27.37.37,0,0,1-.28.09h-.17a.31.31,0,0,1-.26-.09.34.34,0,0,1,0-.27l.2-1.16H253.8l-.21,1.16a.48.48,0,0,1-.12.27.37.37,0,0,1-.28.09H253a.32.32,0,0,1-.26-.09A.33.33,0,0,1,252.71,376.05Zm1.21-1.91h1.27l.35-2h-1.27Z"/><path class="cls-15" d="M259.08,377.28v.82a.37.37,0,0,1-.42.42h-.18a.44.44,0,0,1-.32-.1.41.41,0,0,1-.11-.31v-5.9a.4.4,0,0,1,.1-.3.41.41,0,0,1,.3-.1h.19a.39.39,0,0,1,.29.1.42.42,0,0,1,.11.29v.3h0a1.24,1.24,0,0,1,.62-.53,2.4,2.4,0,0,1,.92-.17,2,2,0,0,1,1.47.59,2.27,2.27,0,0,1,.6,1.69,2.33,2.33,0,0,1-.63,1.72,2.07,2.07,0,0,1-1.52.63,2.14,2.14,0,0,1-.87-.17,1.25,1.25,0,0,1-.59-.53h0q0,.45,0,.88T259.08,377.28Zm0-3.17a1.55,1.55,0,0,0,.37,1.1,1.19,1.19,0,0,0,.91.39,1.15,1.15,0,0,0,.9-.41,1.64,1.64,0,0,0,.36-1.12,1.5,1.5,0,0,0-.36-1.08,1.2,1.2,0,0,0-.9-.38,1.19,1.19,0,0,0-.91.39A1.55,1.55,0,0,0,259.08,374.12Z"/><path class="cls-15" d="M263.81,370.54a.46.46,0,0,1-.32-.1.39.39,0,0,1-.11-.31v-.23a.39.39,0,0,1,.11-.31.46.46,0,0,1,.32-.1h.26a.44.44,0,0,1,.31.1.4.4,0,0,1,.1.31v.23a.4.4,0,0,1-.1.31.44.44,0,0,1-.31.1Zm-.39,5.46v-3.78a.41.41,0,0,1,.11-.31.44.44,0,0,1,.32-.1H264a.43.43,0,0,1,.31.1.42.42,0,0,1,.1.31V376a.37.37,0,0,1-.42.42h-.18a.44.44,0,0,1-.32-.1A.41.41,0,0,1,263.42,376Z"/><path class="cls-15" d="M265.15,376.09V376a.58.58,0,0,1,0-.2,1,1,0,0,1,.12-.21l2.3-3h-2.15a.33.33,0,0,1-.24-.08.34.34,0,0,1-.08-.25v-.14a.34.34,0,0,1,.08-.25.33.33,0,0,1,.24-.08h3.08a.33.33,0,0,1,.24.08.34.34,0,0,1,.08.25v.1a.65.65,0,0,1,0,.19.74.74,0,0,1-.12.21l-2.28,3h2.15a.33.33,0,0,1,.24.08.34.34,0,0,1,.08.25v.14a.34.34,0,0,1-.08.25.33.33,0,0,1-.24.08h-3.09a.29.29,0,0,1-.33-.33Z"/><path class="cls-15" d="M269.2,376.09V376a.58.58,0,0,1,0-.2,1,1,0,0,1,.12-.21l2.3-3H269.5a.33.33,0,0,1-.24-.08.34.34,0,0,1-.08-.25v-.14a.34.34,0,0,1,.08-.25.33.33,0,0,1,.24-.08h3.08a.33.33,0,0,1,.24.08.34.34,0,0,1,.08.25v.1a.65.65,0,0,1,0,.19.74.74,0,0,1-.12.21l-2.28,3h2.15a.33.33,0,0,1,.24.08.34.34,0,0,1,.08.25v.14a.34.34,0,0,1-.08.25.33.33,0,0,1-.24.08h-3.09a.29.29,0,0,1-.33-.33Z"/><path class="cls-15" d="M273.31,375.2a1.13,1.13,0,0,1,.37-.88,2.27,2.27,0,0,1,1.18-.46l.9-.14a1.62,1.62,0,0,0,.48-.12.24.24,0,0,0,.12-.23.79.79,0,0,0-.22-.59.93.93,0,0,0-.68-.22,1,1,0,0,0-.64.16,1.66,1.66,0,0,0-.3.35.92.92,0,0,1-.14.17.41.41,0,0,1-.29.08h-.22c-.15,0-.25,0-.29-.13a.4.4,0,0,1,0-.31,1.5,1.5,0,0,1,.66-.79,2.26,2.26,0,0,1,1.23-.31,2.2,2.2,0,0,1,1.42.41,1.43,1.43,0,0,1,.5,1.17V376a.4.4,0,0,1-.1.29.41.41,0,0,1-.3.1h-.18a.37.37,0,0,1-.29-.11.49.49,0,0,1-.11-.32v-.26h0a1.31,1.31,0,0,1-.59.52,2.1,2.1,0,0,1-.9.18,1.76,1.76,0,0,1-1.16-.34A1.11,1.11,0,0,1,273.31,375.2Zm1-.12a.52.52,0,0,0,.2.42.91.91,0,0,0,.59.16,1.39,1.39,0,0,0,.86-.28,1,1,0,0,0,.38-.86v-.39a.47.47,0,0,1-.19.13,1.39,1.39,0,0,1-.29.07l-.8.12a1.07,1.07,0,0,0-.58.22A.53.53,0,0,0,274.34,375.08Z"/><path class="cls-15" d="M278.1,375.39a.26.26,0,0,1,0-.28.38.38,0,0,1,.29-.1h.24a.5.5,0,0,1,.25.05.51.51,0,0,1,.16.14,1,1,0,0,0,.41.39,1.51,1.51,0,0,0,.6.1,1.61,1.61,0,0,0,.8-.16.5.5,0,0,0,.27-.46.42.42,0,0,0-.18-.37,1.29,1.29,0,0,0-.53-.17l-.85-.13a2.62,2.62,0,0,1-1-.34.94.94,0,0,1-.43-.88,1.14,1.14,0,0,1,.56-1,2.5,2.5,0,0,1,1.37-.35,3,3,0,0,1,1.23.24,1.12,1.12,0,0,1,.67.77.26.26,0,0,1,0,.27.37.37,0,0,1-.29.1h-.26a.37.37,0,0,1-.23-.06.66.66,0,0,1-.15-.16.82.82,0,0,0-.37-.32,1.38,1.38,0,0,0-.57-.11,1.45,1.45,0,0,0-.67.14.45.45,0,0,0-.27.43.4.4,0,0,0,.18.35,1.44,1.44,0,0,0,.59.19l.85.14a2.66,2.66,0,0,1,1,.34.93.93,0,0,1,.41.87,1.18,1.18,0,0,1-.58,1.08,2.84,2.84,0,0,1-1.51.36,3,3,0,0,1-1.29-.26A1.2,1.2,0,0,1,278.1,375.39Z"/><path class="cls-15" d="M282.59,375.2a1.13,1.13,0,0,1,.37-.88,2.27,2.27,0,0,1,1.18-.46l.9-.14a1.62,1.62,0,0,0,.48-.12.24.24,0,0,0,.12-.23.79.79,0,0,0-.22-.59.93.93,0,0,0-.68-.22,1,1,0,0,0-.64.16,1.66,1.66,0,0,0-.3.35.92.92,0,0,1-.14.17.41.41,0,0,1-.29.08h-.22c-.15,0-.25,0-.29-.13a.4.4,0,0,1,0-.31,1.5,1.5,0,0,1,.66-.79,2.26,2.26,0,0,1,1.23-.31,2.2,2.2,0,0,1,1.42.41,1.43,1.43,0,0,1,.5,1.17V376a.4.4,0,0,1-.1.29.41.41,0,0,1-.3.1h-.18a.37.37,0,0,1-.29-.11.49.49,0,0,1-.11-.32v-.26h0a1.31,1.31,0,0,1-.59.52,2.1,2.1,0,0,1-.9.18,1.76,1.76,0,0,1-1.16-.34A1.11,1.11,0,0,1,282.59,375.2Zm1-.12a.52.52,0,0,0,.2.42.91.91,0,0,0,.59.16,1.39,1.39,0,0,0,.86-.28,1,1,0,0,0,.38-.86v-.39a.47.47,0,0,1-.19.13,1.39,1.39,0,0,1-.29.07l-.8.12a1.07,1.07,0,0,0-.58.22A.53.53,0,0,0,283.62,375.08Z"/><path class="cls-15" d="M287.64,376v-6.11a.41.41,0,0,1,.11-.31.44.44,0,0,1,.32-.1h.18a.44.44,0,0,1,.31.1.4.4,0,0,1,.1.3v1c0,.15,0,.37,0,.64s0,.56,0,.85h0a1.19,1.19,0,0,1,.62-.45,2.77,2.77,0,0,1,.92-.14,2,2,0,0,1,1.47.59,2.27,2.27,0,0,1,.6,1.69,2.33,2.33,0,0,1-.63,1.72,2.07,2.07,0,0,1-1.52.63,1.89,1.89,0,0,1-.87-.19,1.33,1.33,0,0,1-.59-.61h0V376a.52.52,0,0,1-.11.34.37.37,0,0,1-.29.11H288a.41.41,0,0,1-.3-.1A.4.4,0,0,1,287.64,376Zm1-1.91a1.55,1.55,0,0,0,.37,1.1,1.19,1.19,0,0,0,.91.39,1.15,1.15,0,0,0,.9-.41,1.64,1.64,0,0,0,.36-1.12,1.5,1.5,0,0,0-.36-1.08,1.2,1.2,0,0,0-.9-.38,1.19,1.19,0,0,0-.91.39A1.55,1.55,0,0,0,288.67,374.12Z"/><path class="cls-15" d="M292.74,375.2a1.13,1.13,0,0,1,.37-.88,2.27,2.27,0,0,1,1.18-.46l.9-.14a1.62,1.62,0,0,0,.48-.12.24.24,0,0,0,.12-.23.79.79,0,0,0-.22-.59.93.93,0,0,0-.68-.22,1,1,0,0,0-.64.16,1.66,1.66,0,0,0-.3.35.92.92,0,0,1-.14.17.41.41,0,0,1-.29.08h-.22c-.15,0-.25,0-.29-.13a.4.4,0,0,1,0-.31,1.5,1.5,0,0,1,.66-.79,2.26,2.26,0,0,1,1.23-.31,2.2,2.2,0,0,1,1.42.41,1.43,1.43,0,0,1,.5,1.17V376a.4.4,0,0,1-.1.29.41.41,0,0,1-.3.1h-.18a.37.37,0,0,1-.29-.11.49.49,0,0,1-.11-.32v-.26h0a1.31,1.31,0,0,1-.59.52,2.1,2.1,0,0,1-.9.18,1.76,1.76,0,0,1-1.16-.34A1.11,1.11,0,0,1,292.74,375.2Zm1-.12a.52.52,0,0,0,.2.42.91.91,0,0,0,.59.16,1.39,1.39,0,0,0,.86-.28,1,1,0,0,0,.38-.86v-.39a.47.47,0,0,1-.19.13,1.39,1.39,0,0,1-.29.07l-.8.12a1.07,1.07,0,0,0-.58.22A.53.53,0,0,0,293.77,375.08Z"/><path class="cls-15" d="M297.88,375V372.6h-.55a.33.33,0,0,1-.24-.08.33.33,0,0,1-.08-.24v-.15a.29.29,0,0,1,.32-.32h.55v-1a.37.37,0,0,1,.42-.42h.19a.43.43,0,0,1,.31.1.42.42,0,0,1,.1.31v1h.86a.29.29,0,0,1,.32.32v.15a.29.29,0,0,1-.32.32h-.86v2.33a.68.68,0,0,0,.14.49.64.64,0,0,0,.47.14h.23a.37.37,0,0,1,.26.08.35.35,0,0,1,.09.26v.15a.35.35,0,0,1-.09.26.37.37,0,0,1-.26.08h-.42a1.25,1.25,0,0,1-1.44-1.44Z"/><path class="cls-15" d="M300.29,374.12a2.2,2.2,0,0,1,.67-1.69,2.65,2.65,0,0,1,3.41,0,2.24,2.24,0,0,1,.65,1.7,2.2,2.2,0,0,1-.67,1.69,2.65,2.65,0,0,1-3.42,0A2.24,2.24,0,0,1,300.29,374.12Zm1.06,0a1.58,1.58,0,0,0,.36,1.08,1.28,1.28,0,0,0,1.88,0,1.82,1.82,0,0,0,0-2.18,1.21,1.21,0,0,0-.94-.4,1.19,1.19,0,0,0-.94.41A1.58,1.58,0,0,0,301.36,374.12Z"/><polygon class="cls-12" points="237.81 354.6 237.81 348.62 241.51 354.6 237.81 354.6"/><path class="cls-12" d="M241.51,355.1h-3.71a.5.5,0,0,1-.5-.5v-6a.5.5,0,0,1,.92-.26l3.71,6a.5.5,0,0,1-.42.76Zm-3.21-1h2.31l-2.31-3.73Z"/><polygon class="cls-12" points="237.72 354.6 237.72 348.62 234.02 354.6 237.72 354.6"/><path class="cls-12" d="M237.72,355.1H234a.5.5,0,0,1-.42-.76l3.71-6a.49.49,0,0,1,.56-.22.5.5,0,0,1,.36.48v6A.5.5,0,0,1,237.72,355.1Zm-2.81-1h2.31v-3.73Z"/><path class="cls-17" d="M366.61,387.5H225.86a3.79,3.79,0,0,1-4-3.63V356.45a4.19,4.19,0,0,1,4-4h8l4.27-5.62a1,1,0,0,1,1.7.17l2.66,5.46H366.61a4.32,4.32,0,0,1,4.16,4v27.42C370.77,386.11,368.61,387.5,366.61,387.5ZM225.86,354.41a2.16,2.16,0,0,0-2,2v27.42a1.84,1.84,0,0,0,2,1.63H366.61c1,0,2.16-.67,2.16-1.63V356.45a2.31,2.31,0,0,0-2.16-2H241.9a1,1,0,0,1-.9-.56l-2.22-4.56L235.2,354a1,1,0,0,1-.8.4Z"/></svg>