<?xml version="1.0" encoding="UTF-8"?>
<svg width="90px" height="90px" viewBox="0 0 90 90" version="1.1" xmlns="http://www.w3.org/2000/svg" xmlns:xlink="http://www.w3.org/1999/xlink">
    <!-- Generator: Sketch 41.2 (35397) - http://www.bohemiancoding.com/sketch -->
    <title>pay-icon</title>
    <desc>Created with Sketch.</desc>
    <defs>
        <filter x="-50%" y="-50%" width="200%" height="200%" filterUnits="objectBoundingBox" id="filter-1">
            <feOffset dx="0" dy="3" in="SourceAlpha" result="shadowOffsetOuter1"></feOffset>
            <feGaussianBlur stdDeviation="7.5" in="shadowOffsetOuter1" result="shadowBlurOuter1"></feGaussianBlur>
            <feColorMatrix values="0 0 0 0 0   0 0 0 0 0   0 0 0 0 0  0 0 0 0.197209013 0" type="matrix" in="shadowBlurOuter1" result="shadowMatrixOuter1"></feColorMatrix>
            <feMerge>
                <feMergeNode in="shadowMatrixOuter1"></feMergeNode>
                <feMergeNode in="SourceGraphic"></feMergeNode>
            </feMerge>
        </filter>
    </defs>
    <g id="Homepage" stroke="none" stroke-width="1" fill="none" fill-rule="evenodd">
        <g id="Desktop" transform="translate(-95.000000, -3020.000000)">
            <g id="scambio-denaro" transform="translate(0.000000, 2705.000000)">
                <g id="Group-7" transform="translate(0.000000, 266.000000)">
                    <g id="Group-18" transform="translate(110.000000, 61.000000)">
                        <g id="pay-icon" filter="url(#filter-1)">
                            <circle id="Oval-5" fill="#5CC5FF" cx="30" cy="30" r="30"></circle>
                            <g id="icon-carta-hype" opacity="0.55" style="mix-blend-mode: overlay;" transform="translate(16.000000, 21.000000)" fill="#000000">
                                <path d="M25.375,0 L3.625,0 C1.57083333,0 0,1.54375 0,3.5625 L0,15.4375 C0,17.3375 1.57083333,19 3.625,19 L25.375,19 C27.3083333,19 29,17.45625 29,15.4375 L29,3.5625 C29,1.6625 27.4291667,0 25.375,0 Z M26.5833333,15.4375 C26.5833333,16.15 25.9791667,16.625 25.375,16.625 L3.625,16.625 C3.02083333,16.625 2.41666667,16.03125 2.41666667,15.4375 L2.41666667,3.5625 C2.41666667,2.85 3.02083333,2.375 3.625,2.375 L25.375,2.375 C25.9791667,2.375 26.5833333,2.96875 26.5833333,3.5625 L26.5833333,15.4375 Z" id="Shape"></path>
                                <path d="M20.278336,4.29764593 C19.4498502,4.68306998 18.7397195,5.32544338 18.3846541,6.22476615 L18.266299,6.48171552 C17.9112337,7.38103828 17.9112337,8.40883573 18.266299,9.3081585 C18.8580746,10.8498547 22.8821485,9.56510787 24.3024099,7.89493701 C24.420765,7.76646233 24.5494935,7.6310401 24.7001391,7.43785759 C24.8507847,7.24467508 25,7.09935145 25,6.71283507 C25,6.32631868 24.8941854,6.22476615 24.8941854,6.09629147 C24.5391201,4.29764593 21.9353076,3.52679785 20.278336,4.29764593 Z" id="Shape"></path>
                                <path d="M12.8,12 L6.2,12 C5.48,12 5,12.4 5,13 C5,13.6 5.48,14 6.2,14 L12.8,14 C13.52,14 14,13.6 14,13 C14,12.4 13.52,12 12.8,12 Z" id="Shape"></path>
                                <path d="M18.75,12 L16.25,12 C15.5,12 15,12.4 15,13 C15,13.6 15.5,14 16.25,14 L18.75,14 C19.5,14 20,13.6 20,13 C20,12.4 19.5,12 18.75,12 Z" id="Shape"></path>
                            </g>
                        </g>
                    </g>
                </g>
            </g>
        </g>
    </g>
</svg>