<?xml version="1.0" encoding="UTF-8"?>
<svg width="91px" height="69px" viewBox="0 0 91 69" version="1.1" xmlns="http://www.w3.org/2000/svg" xmlns:xlink="http://www.w3.org/1999/xlink">
    <!-- Generator: Sketch 41.2 (35397) - http://www.bohemiancoding.com/sketch -->
    <title>plane-icon</title>
    <desc>Created with Sketch.</desc>
    <defs></defs>
    <g id="Contacts" stroke="none" stroke-width="1" fill="none" fill-rule="evenodd">
        <g transform="translate(-262.000000, -529.000000)" id="content" fill="#00A5FF">
            <g transform="translate(114.000000, 199.000000)">
                <g id="general" transform="translate(0.000000, 223.000000)">
                    <g id="Group" transform="translate(136.000000, 107.000000)">
                        <g id="plane-icon" transform="translate(12.000000, 0.000000)">
                            <path d="M90.2504918,1.3455 C89.9217049,0.9435 89.4119344,0.756 88.9036721,0.816 C88.787541,0.822 88.6789508,0.8415 88.5658361,0.8745 L1.11304918,24.531 C0.470557377,24.705 0.0180983607,25.278 1.07068217e-14,25.9395 C-0.0165901639,26.601 0.405704918,27.1965 1.03763934,27.4035 L33.0370492,37.8315 L30.1744918,60.6045 C30.099082,61.2045 30.3931803,61.791 30.919541,62.091 C31.1533115,62.2245 31.4127213,62.2905 31.670623,62.2905 C31.9948852,62.2905 32.3191475,62.187 32.5876066,61.9815 L44.2987541,53.0625 L54.5650492,67.65 C54.8485902,68.0535 55.3100984,68.2905 55.8002623,68.2905 C55.8334426,68.2905 55.8681311,68.289 55.9028197,68.2875 C56.4306885,68.2515 56.8997377,67.944 57.1410492,67.4745 L90.4163934,2.9745 C90.6939016,2.4465 90.627541,1.8075 90.2504918,1.3455 Z M79.7760656,6.3615 L34.4788852,35.1435 L6.7627541,26.112 L79.7760656,6.3615 Z M33.6146885,57.4215 L35.6990164,40.842 L42.5688525,50.6025 L33.6146885,57.4215 Z M55.6041967,63.891 L36.8271475,37.212 L85.2402623,6.45 L55.6041967,63.891 Z" id="Shape"></path>
                        </g>
                    </g>
                </g>
            </g>
        </g>
    </g>
</svg>