<svg xmlns="http://www.w3.org/2000/svg" xmlns:xlink="http://www.w3.org/1999/xlink" viewBox="0 0 400 400"><defs><style>.cls-1,.cls-2{fill:none;}.cls-2,.cls-3,.cls-4{clip-rule:evenodd;}.cls-14,.cls-3,.cls-9{fill:#fca664;}.cls-16,.cls-18,.cls-4{fill:#ffddba;}.cls-5{clip-path:url(#clip-path);}.cls-6{fill:#b9e6ff;}.cls-7{fill:#f2eee6;}.cls-8{fill:#e9e3d7;}.cls-10{fill:#fff;}.cls-11{fill:#00a5ff;}.cls-12{clip-path:url(#clip-path-2);}.cls-13{clip-path:url(#clip-path-3);}.cls-14,.cls-16{fill-rule:evenodd;}.cls-15{clip-path:url(#clip-path-4);}.cls-17{clip-path:url(#clip-path-5);}</style><clipPath id="clip-path"><ellipse class="cls-1" cx="576.79" cy="-148.21" rx="4.8" ry="4.8" transform="translate(264.84 359.07) rotate(-44)"/></clipPath><clipPath id="clip-path-2"><path class="cls-2" d="M1379.25,160.69a4.71,4.71,0,0,1,6.47,1.49l60.47,96.63a4.67,4.67,0,0,1-1.5,6.45l-58.55,36.38a4.71,4.71,0,0,1-6.47-1.49l-60.47-96.63a4.67,4.67,0,0,1,1.5-6.45Z"/></clipPath><clipPath id="clip-path-3"><path class="cls-2" d="M1368,181.1a2.69,2.69,0,0,1,3.7.85l6,9.63a2.67,2.67,0,0,1-.86,3.68l-7.67,4.77a2.69,2.69,0,0,1-3.7-.85l-6-9.63a2.67,2.67,0,0,1,.86-3.68Z"/></clipPath><clipPath id="clip-path-4"><path class="cls-3" d="M1384.34,283.38a8.48,8.48,0,1,1,2.67-11.64,8.49,8.49,0,0,1-2.67,11.64"/></clipPath><clipPath id="clip-path-5"><path class="cls-4" d="M1393,281.39a8.5,8.5,0,0,0-4.88-3.67,8.66,8.66,0,0,0-1.21-.25l.91,1.45a8.62,8.62,0,0,1-.42,1l-1.6-2.55a8.48,8.48,0,0,0-1,.06l2.11,3.38a8.35,8.35,0,0,1-.57.78l-2.49-4a8.36,8.36,0,0,0-.89.26l2.76,4.4a8.46,8.46,0,0,1-3.93,2.15l-2.49-4a8.43,8.43,0,0,0-.57.78l2.11,3.38a8.46,8.46,0,0,1-1,.06l-1.59-2.55a8.49,8.49,0,0,0-.42,1l.91,1.45a8.52,8.52,0,0,1-1.21-.25,8.46,8.46,0,1,0,15.5-2.93"/></clipPath></defs><title>prelievi_pagamenti_gratis</title><g id="prelievi_pagamenti_gratis"><path class="cls-6" d="M371.5,204.18A171.5,171.5,0,1,1,29.76,183.41a3.77,3.77,0,0,1,2.59,2.1,15.29,15.29,0,0,0,.8,2.11,4.86,4.86,0,0,0,1.53,1.32l4.06,2.63A3.35,3.35,0,0,1,40,192.72a4.05,4.05,0,0,1,.18,2.2c-.32,5.45,1.22,10.91,2.65,16.18a29.52,29.52,0,0,0,2,5.21l.22-2c1.63-.46,3.36.72,4.12,2.23a12.67,12.67,0,0,1,.92,5,7.93,7.93,0,0,0,.41,2.44,8.63,8.63,0,0,0,1.44,2.23l7.39,9.22A11.63,11.63,0,0,0,63,238.8a4,4,0,0,0,4.69-.62,8.41,8.41,0,0,1,.82-1c1.42-1.23,3.51.49,4.45,2.12,2,3.52,3.57,7.74,7.14,9.66,2.37,1.28,5.6,1.55,6.87,3.93.77,1.45.51,3.2.22,4.81a51.64,51.64,0,0,0-1,7.94,26.92,26.92,0,0,1-1.94,9.59c-.87,2.17-2,4.3-2.17,6.64-.25,4.46,3.26,8.16,6.51,11.24l13.78,13.06a25.3,25.3,0,0,1,4.92,5.7c2.35,4.21,2.25,9.39,1.89,14.22,1.11,1.12,1,2.92.85,4.5-.61,5.76.22,5.75-.39,11.51,3.17-.81,4.79,8.28,8,7.71,1.56-.28,3-1.47,4.57-1.12q.78,2.91,1.56,5.83a2.84,2.84,0,0,0,1.11,1.9,2.57,2.57,0,0,0,1.27.21,11.57,11.57,0,0,0,5-1.27,10.75,10.75,0,0,0,3.17-2.46c1.74-2,3.65-3.7,3.42-6.35,3.16-1.84,5.94,2.09,9.32.7a6.11,6.11,0,0,0,2.37-2.24l8.45-11.48c2.85,1,6.1-.32,8.19-2.49a19.38,19.38,0,0,0,4.06-8,48.86,48.86,0,0,1,2.91-8.55c1.34-2.59,3.33-4.83,4.39-7.55s.85-6.29-1.53-8c-1.51-1.07-3.51-1.39-4.53-2.92-1.29-1.94-4.27-1.13-6.52-1.72a10.84,10.84,0,0,1-3.4-1.94,54.69,54.69,0,0,0-17.26-8.43,3.43,3.43,0,0,1-1.71-.83c-1-1.15-.13-3-.37-4.52-.28-1.77-2-2.84-3.63-3.67l-5.71-3a4.94,4.94,0,0,1-1.7-1.22,10.58,10.58,0,0,1-1-2.34,6.22,6.22,0,0,0-4.36-3.18,18.18,18.18,0,0,0-5.56-.13c-1.45-1.47-1-4.15-2.49-5.56-1.77-1.67-4.62-.33-7.07-.39-4.39-.12-7.13-4.85-11.18-6.58-1.18-.51-2.47-.75-3.67-1.2-4.09-1.54-6.84-5.39-8.79-9.3-1.18-2.39-2.47-5.15-5-5.89-1.06-.31-2.35-.3-3-1.19a3.26,3.26,0,0,1-.39-1.74c-.05-1.44.4-2.62-.15-3.95-.71-1.72-.71-3.68-1.51-5.36s-3.06-2.94-4.52-1.78c-1,.83-1.06,2.37-1.53,3.62s-2.35,2.2-3,1a.78.78,0,0,1-.85.57c-2.14-.9-3-3.54-2.82-5.84s1.29-4.43,2-6.63,1.11-4.71,0-6.74c3.6-.94,7.35-1.88,11-1.23s7.25,3.33,7.67,7l4.93,0c-1.56-3.38,1.13-7.12,1.47-10.83.21-2.3-.5-4.7.21-6.9,1.14-3.56,5.59-5.42,6.34-9.09a10.43,10.43,0,0,1,.6-3,24.62,24.62,0,0,1,1.66-2c.89-1.32.3-3,.75-4.5,1-3.31,5.47-4.87,5.65-3.69a1.8,1.8,0,0,0,2.48,1.09,3.5,3.5,0,0,0,1.76-2.45c.53-2.11.05-4.37.53-6.49s2.66-4.2,4.63-3.27c1.64.77,2,3.1,3.64,3.93a3.9,3.9,0,0,0,2,.31,9.13,9.13,0,0,0,8.24-7.81,12.14,12.14,0,0,1-6.23-2.55,6.14,6.14,0,0,1-2.1-6.11c.78-2.64,3.58-4.06,6.09-5.18,2.09-.94,5-1.7,6.34.14,1.7,2.28-1.09,5.7.07,8.3A64.5,64.5,0,0,0,146,156.55a11.38,11.38,0,0,0-.44-5.32,1.29,1.29,0,0,1-.85,1.12c-1.18-2.83-2.4-5.65-3.6-8.46l-2.8-6.52a61.3,61.3,0,0,0-4.76-9.53c-1.46-2.21-3.21-4.22-4.6-6.47-1-1.6-1.86-3.37-3.35-4.54s-3.87-1.48-5.14-.08a6.27,6.27,0,0,1-1.4,4.94l-1.42,0c-1.5-3.9-11.82-12-14.67-9.83-1.8,1.35-3.43,3.32-5.68,3.42-.5,1,.45,1.38.32,2.47-.22,1.79-1.23,3.39-1.74,5.13s-.25,4,1.35,4.83a5,5,0,0,1,1.39.74c1,1.09-.45,2.77-1.87,3.26s-3.24,1-3.35,2.53a3.16,3.16,0,0,0,.22,1.2,10.3,10.3,0,0,1,.63,4.46,3.77,3.77,0,0,1-2.75,3.26c-1.75.32-3.39-1.11-4.17-2.7s-1-3.42-1.71-5.06-2.15-3.19-3.93-3.13c-1.26,0-2.35.87-3.6,1.07s-2.83-.88-2.29-2c-.08.27-.5.24-.75.12-2.32-1.21-1.92-4.6-1.18-7.1q2.07-7,4.14-14l1,1.41c.45-1.54,2.71-1.58,4.08-.74s2.45,2.21,4,2.6a6.07,6.07,0,0,0,3.47-.39A6.18,6.18,0,0,0,93.89,111a2.62,2.62,0,0,0-.45-3.59c-1.37-.87-3.87-.21-4.24-1.78A24.46,24.46,0,0,0,95.84,101c1.83-2,3-4.83,2.27-7.45-.18-.64-.43-1.41,0-1.91a1.67,1.67,0,0,1,1.09-.43,16.5,16.5,0,0,1,6.62.59c.22,2.6-4.61,4-3.64,6.4.73,1.07,2.4.31,3.33-.57s2.36-1.87,3.36-1a1.82,1.82,0,0,1,.55,1.47c-.05,2-2,3.38-3.83,4s-3.92.81-5.57,1.87a2.45,2.45,0,0,0-1.3,1.86c0,1.11,1.21,1.89,2.33,1.92a16.9,16.9,0,0,0,3.28-.59c2.66-.43,5.3.7,7.73,1.85s5,2.37,7.68,2.13,5.35-2.62,4.84-5.27-3.83-4.15-4.25-6.84c1.84-.27,2.84,2,4.26,3.21a4.55,4.55,0,0,0,6-.47,5.19,5.19,0,0,0,.46-6.15,6,6,0,0,0-5.73-2.6c.6-1.21-1.2-2.06-2.4-2.67-2.28-1.17-3.32-3.86-5.28-5.52-3.56-3-8.88-1.83-13.32-.5.43-1.46-1.15-2.86-2.67-2.9a9,9,0,0,0-4.24,1.52c-1.7.92-3.19,2.46-5.12,2.35A5.2,5.2,0,0,0,88,87.08a4.64,4.64,0,0,0-.71,4.59,16.33,16.33,0,0,0,2.28,3.12,3.64,3.64,0,0,1,.75,3.61c-.72,1.46-2.85,1.66-4.24.83a8.9,8.9,0,0,1-3-3.78,3.45,3.45,0,0,1-.57-1.9c.1-1,1-1.76,1.22-2.75.27-1.51-1.41-2.79-2.93-2.69a7,7,0,0,0-4,2.14c-1.89,1.69-3.79,4.31-2.56,6.52.27.49.66.9.89,1.39a3.62,3.62,0,0,1-.42,3.17,11.08,11.08,0,0,1-6.94,5c-1.59.42-5.3-.76-7.75-1.37A172.85,172.85,0,0,1,81.55,80.14a10,10,0,0,0,.93,3.08c1,1,2.78.43,3.88-.45s2-2.11,3.4-2.53A15,15,0,0,1,92,79.91c2.25-.38,4-2,5.82-3.43a37.39,37.39,0,0,1,13.85-6.86l.44-2.42c1,.89,2.64.16,3.42-.92s1.14-2.44,2.06-3.41c1.47-1.53,4-1.7,5.35-3.31.37-.44.63-1,1-1.39a5.84,5.84,0,0,1,2.15-1.28l3.71-1.56a2.81,2.81,0,0,1-2.59,2.88c-1.1,1.23.14,3.35,1.74,3.74s3.25-.26,4.83-.76a23,23,0,0,1,4.21-.9c.61,4.21,1.58,8.61,1.76,12.87.06,1.59.14,3.19.2,4.77a8.05,8.05,0,0,1,6.68,1.46c-1.94,2.07-5.76,2.36-6.56,5.09a5.57,5.57,0,0,0,.4,3.44,28.59,28.59,0,0,0,17,16.91c3.39,1.2,7.11,1.83,9.87,4.13a2.1,2.1,0,0,0,1.33.69L175.14,98a1.62,1.62,0,0,0,.27-1.36c-.47-1.08-2.9-.71-2.63-1.85A22.33,22.33,0,0,0,179.24,80a3.93,3.93,0,0,1,2.2,1.34,5,5,0,0,1,4-3.12,14.5,14.5,0,0,1,5.26.31,13.78,13.78,0,0,0-.15-5.87c-.21-1.15-.12-2.61.93-3.1a3.37,3.37,0,0,1,1.59-.16,12.79,12.79,0,0,0,5.9-1.17,9.36,9.36,0,0,0,3-2.12,10.38,10.38,0,0,0,2.34-5.2,1.77,1.77,0,0,0,.94,1.18c.77-1.07,1.5-2.15,2.21-3.26a4,4,0,0,0,.75-1.8,2.86,2.86,0,0,0-1.91-2.64,8.5,8.5,0,0,0-3.43-.37c-.07-2.29-.23-4.78-1.76-6.48-2.47-2.74-7.14-2.06-10-4.39-1.25-1-2-2.54-3.41-3.42-.82-.53-1.79-.78-2.62-1.32-.58-.38-1.08-3.1-1.21-5,5.32-.5,10.72-.75,16.18-.75a170.88,170.88,0,0,1,114.68,44C312,76.13,309,75.43,307.79,74a12.06,12.06,0,0,0-2.63-2.84c-1.67-1-3.81-.79-5.73-.35-1.57.36-3.08,1.08-4.68,1.37-3.07.59-6.33.89-8.95,2.61S281.6,79.37,279,81a30.16,30.16,0,0,1-4.47,1.94,44.93,44.93,0,0,0-9.88,6.24,7.11,7.11,0,0,0-2.09,2.11c-1.34,2.45.59,5.63.66,8.42,0,1.84,2,3.09,3.84,3.15s3.56-.72,5.31-1.23,3.78-.76,5.3.25a5.06,5.06,0,0,1,2,4.13,15,15,0,0,1-.91,4.65c-1.36,1.42-3.81.44-5.19-.95s-2.6-3.24-4.52-3.64c-.35,2.48-.69,5-1,7.44-.22,1.65-.52,3.42-1.7,4.58-2.15,2.09-6.46,1.4-7.77,4.11.24-1.25-.64-2.42-1.52-3.34a45.38,45.38,0,0,0-9.48-7.66,3.22,3.22,0,0,1-1.29-1.14,3,3,0,0,1-.15-1.76c.26-2.07.45-4.55-1.16-5.87-2.06-1.68-5.29.13-6.43,2.51-1.28,2.65-1.65,6.43-4.5,7.16-1.09.28-2.27,0-3.36.25-2.06.52-3.05,2.91-3.1,5s.49,4.26.13,6.35a23.76,23.76,0,0,0,9.36-3.05A2.74,2.74,0,0,0,238,120c.42-.58.38-1.37.66-2a2.27,2.27,0,0,1,3.68-.44c.9,1.18.35,2.93-.62,4s-2.3,1.88-3.25,3-1.44,2.91-.47,4a11.44,11.44,0,0,0,6.43-2.36,15.09,15.09,0,0,1,3.45-2.34c1.31-.5,3-.28,3.74.93.79,1.38-.19,3.15-1.44,4.15s-2.62,1.41-3.51,2.73l-4.75.08,4.53,5.11c1.75,2,3.63,4.53,2.69,7-1.08,2.81-4.84,3.16-7.84,3l-8-.32a3.69,3.69,0,0,0-2.34.43c-1,.69-1,2-1,3.23L230,161a5.12,5.12,0,0,0,.49,2.52c.87,1.46,2.84,1.66,4.51,1.92s3.67,1.18,3.66,2.87a4,4,0,0,1-.9,2.13c-.94,1.36-2,2.92-3,4.22-2,2.53-5.27,4.08-6.55,7-.72,1.63-.76,3.29-2.21,4.33l-5.68,4.08c-.83.6-2,1.21-2.81.63a1,1,0,0,0-.41-.23c-.22,0-.4.19-.53.38-2.45,3.47-4,8.23-3.36,12.43,1.18,7.73-5,15.38-3.15,23,1.64,6.65,8.69,10.32,12.5,16a28.07,28.07,0,0,0,2.52,3.65,12.07,12.07,0,0,0,2.82,2.11c5.94,3.38,13.52,5.17,19.43,1.74,1.79-1,4-.78,6.07-1.16a29.7,29.7,0,0,0,3.88-1.25,27.57,27.57,0,0,1,13.85-1.07,4,4,0,0,1,1.79.66c.94.77,1,2.15,1,3.37-.05,4.07-1,8.09-1,12.16.12,5.68,6.37,9.4,7.7,14.91,1,4-.78,8-2.27,11.79s-2.7,8.19-.83,11.8c.51,1,1.22,1.87,1.67,2.88,1,2.28.45,4.89.25,7.36s.14,5.35,2.18,6.75a7.42,7.42,0,0,1,1.93,1.34,4.06,4.06,0,0,1,.58,2.24,11.24,11.24,0,0,0,1.06,4.64,4.42,4.42,0,0,0,3.83,2.48c2.24-.1,3.71-2.3,5.66-3.42a18.53,18.53,0,0,1,4.46-1.42,20.29,20.29,0,0,0,9.63-5.83c2.28-2.46,4-5.49,6.62-7.54,2-1.55,4.7-2.65,5.29-5.14.43-1.76-.87-3.6-.53-5.38a6.19,6.19,0,0,1,1.2-2.32,22.5,22.5,0,0,1,4-4.57c1.61-1.3,3.58-2.14,5-3.66a14.71,14.71,0,0,0,2.53-4.56c1-2.45.64-5.28,1.75-7.68s0-5.1.05-7.7c.06-3,1.64-5.65,3.16-8.18,1.39-2.32,1.72-5.74,4.06-7.1,3.86-2.26,8.09-5,9-9.37.24-1.11.25-2.27.58-3.36.77-2.6,3.17-4.31,5.34-5.92a3.07,3.07,0,0,0,1.66-3.2c0-2.06-.07-4.11-.11-6.15l-8.15,4.19c-1.41.73-3.48,1.29-4.28-.08.37-3.05,3.32-5,5.87-6.71a59.76,59.76,0,0,0,12.05-10.84c2-2.36,3.9-5.48,2.84-8.38-.64-1.73-2.26-3-2.63-4.84a11.17,11.17,0,0,1,3.64.94c.18-.47,2.23-1.3,3.66-1.63C371.47,200.61,371.5,202.4,371.5,204.18Z"/><path class="cls-6" d="M200,377.18c-95.39,0-173-77.61-173-173a173,173,0,0,1,1.27-21,1.5,1.5,0,0,1,1.82-1.28,5.3,5.3,0,0,1,3.63,3,9.21,9.21,0,0,1,.36,1,3.93,3.93,0,0,0,.33.88,3.84,3.84,0,0,0,1.06.85l4.08,2.64A4.72,4.72,0,0,1,41.31,192a4.78,4.78,0,0,1,.36,2.75l0,.24c-.29,5,1.11,10.17,2.46,15.17l.14.51q.28,1,.64,2.06c2.36-.47,4.59,1.18,5.54,3.07A13,13,0,0,1,51.49,221l0,.37a6.75,6.75,0,0,0,.31,2,7.47,7.47,0,0,0,1.2,1.83l7.39,9.22a10.43,10.43,0,0,0,3.19,3,2.53,2.53,0,0,0,2.88-.24,3.58,3.58,0,0,0,.23-.3,4.54,4.54,0,0,1,.77-.89,3.18,3.18,0,0,1,2.65-.73,6.54,6.54,0,0,1,4.07,3.25c.44.76.85,1.55,1.27,2.34,1.47,2.8,2.86,5.45,5.28,6.75a17.17,17.17,0,0,0,2.24.92c1.93.7,4.11,1.49,5.25,3.62,1,2,.64,4.26.38,5.78l0,.21a48.67,48.67,0,0,0-.94,7.49,28.25,28.25,0,0,1-2.05,10.13c-.2.5-.41,1-.63,1.5a14.29,14.29,0,0,0-1.44,4.67c-.22,3.79,3,7.18,6,10.06l13.78,13.05a26.76,26.76,0,0,1,5.19,6.05c2.5,4.47,2.45,9.77,2.12,14.47,1.16,1.67.93,3.88.81,5.13a32.78,32.78,0,0,0-.19,5.55,34.2,34.2,0,0,1-.07,4.5c1.56.67,2.67,2.61,3.68,4.37.56,1,1.9,3.27,2.44,3.18a7.83,7.83,0,0,0,1.42-.48,6.16,6.16,0,0,1,3.74-.62,1.5,1.5,0,0,1,1.12,1.08q.77,2.91,1.56,5.82c.21.8.34,1,.39,1a1.52,1.52,0,0,0,.37,0h.13a10.07,10.07,0,0,0,4.38-1.1,9.16,9.16,0,0,0,2.71-2.1l.72-.81c1.54-1.72,2.48-2.86,2.34-4.43a1.5,1.5,0,0,1,.74-1.43c2.25-1.31,4.34-.51,6,.13,1.49.57,2.46.9,3.49.47a5,5,0,0,0,1.74-1.74l8.45-11.48a1.5,1.5,0,0,1,1.69-.53c2.39.81,5.05-.47,6.62-2.11,1.92-2,3-4.86,3.71-7.37.19-.62.36-1.25.54-1.88a36.44,36.44,0,0,1,2.47-6.92,36.06,36.06,0,0,1,2-3.23,23,23,0,0,0,2.36-4.17c.82-2.15.75-5-1-6.2a10.5,10.5,0,0,0-1.57-.84,7.44,7.44,0,0,1-3.35-2.48c-.4-.61-1.37-.7-2.91-.77a13.07,13.07,0,0,1-2.74-.33,11.06,11.06,0,0,1-3.61-2l-.28-.21a52.87,52.87,0,0,0-16.79-8.21,4.77,4.77,0,0,1-2.41-1.27,4.63,4.63,0,0,1-.8-3.91,5.65,5.65,0,0,0,.06-1.38c-.17-1-1.47-1.85-2.85-2.58l-5.71-3a5.19,5.19,0,0,1-3.13-3.58c-.08-.24-.16-.48-.26-.7a4.71,4.71,0,0,0-3.32-2.32,17.11,17.11,0,0,0-5.11-.09,1.51,1.51,0,0,1-1.19-.44,7,7,0,0,1-1.6-3.45,4.39,4.39,0,0,0-.85-2.08c-.63-.59-1.7-.48-3.39-.22a14.91,14.91,0,0,1-2.69.24c-3.13-.08-5.41-2-7.62-3.85a17.45,17.45,0,0,0-4.1-2.85,16.49,16.49,0,0,0-1.86-.62c-.57-.17-1.16-.34-1.75-.56-3.8-1.43-6.94-4.71-9.6-10l-.13-.26c-1.05-2.13-2.14-4.33-4-4.86-.24-.07-.49-.12-.74-.17a4.5,4.5,0,0,1-3.06-1.6,4.63,4.63,0,0,1-.66-2.56,12.31,12.31,0,0,1,.07-1.59,3.74,3.74,0,0,0-.1-1.84,15.11,15.11,0,0,1-.77-2.79,11,11,0,0,0-.71-2.5,2.64,2.64,0,0,0-1.61-1.35.65.65,0,0,0-.62.09,3.35,3.35,0,0,0-.66,1.61,11.85,11.85,0,0,1-.41,1.37,4.07,4.07,0,0,1-3.28,2.52,2.72,2.72,0,0,1-1-.11,2.2,2.2,0,0,1-1.24.15,1.49,1.49,0,0,1-.33-.09c-2.93-1.23-4-4.68-3.73-7.36a19.83,19.83,0,0,1,1.45-5.19c.23-.59.45-1.18.65-1.77.78-2.36.82-4.24.11-5.55a1.5,1.5,0,0,1,.94-2.16c3.55-.93,7.57-2,11.65-1.26,3.53.62,7.5,3,8.64,7h1.77a14.39,14.39,0,0,1,1-5.78,18,18,0,0,0,.91-3.69,16.44,16.44,0,0,0,0-2.52A12.33,12.33,0,0,1,90,195.7a12.68,12.68,0,0,1,3.49-4.91c1.29-1.31,2.51-2.54,2.81-4,.06-.28.08-.58.11-.87a6.48,6.48,0,0,1,.64-2.54,6.57,6.57,0,0,1,1.15-1.46,5.64,5.64,0,0,0,.59-.66,3.31,3.31,0,0,0,.28-1.74,8.28,8.28,0,0,1,.27-2.33c1-3.3,4.63-5.29,6.62-5.15a2,2,0,0,1,1.93,1.55.54.54,0,0,0,.41,0,2.09,2.09,0,0,0,.92-1.44,12.82,12.82,0,0,0,.24-3,16.09,16.09,0,0,1,.28-3.48A6.37,6.37,0,0,1,113,161.5a4,4,0,0,1,3.51-.08,6.16,6.16,0,0,1,2.47,2.52,4.11,4.11,0,0,0,1.21,1.43,2.52,2.52,0,0,0,1.22.14,7.68,7.68,0,0,0,6.54-5.13,12.26,12.26,0,0,1-5.42-2.61,7.64,7.64,0,0,1-2.55-7.66c1-3.24,4.07-4.86,6.92-6.13,5-2.25,7.25-.59,8.15.6,1.32,1.77.83,3.86.44,5.53a8.15,8.15,0,0,0-.34,2.49,63.13,63.13,0,0,0,9.54,2.24c0-.33,0-.67,0-1a1.5,1.5,0,0,1-1.27-.92c-.91-2.18-1.84-4.36-2.77-6.53l-3.7-8.63a59.21,59.21,0,0,0-4.56-9.11c-.63-1-1.31-1.87-2-2.83-.88-1.17-1.79-2.38-2.58-3.67-.2-.32-.4-.65-.59-1a11.19,11.19,0,0,0-2.4-3.17,3,3,0,0,0-2.65-.56,7.8,7.8,0,0,1-1.83,5.21,1.48,1.48,0,0,1-1.18.53l-1.42,0a1.5,1.5,0,0,1-1.37-1c-1-2.56-7.19-8-11-9.06-.88-.25-1.26-.15-1.32-.11-.42.31-.82.66-1.23,1a11.74,11.74,0,0,1-3.7,2.42,3.19,3.19,0,0,1,.16,1.46A13.17,13.17,0,0,1,98,121.4a17.62,17.62,0,0,0-.7,1.85c-.33,1.17-.2,2.66.62,3.09l.33.14a4,4,0,0,1,1.43.87,2.73,2.73,0,0,1,.68,2.57,5,5,0,0,1-3.13,3.16l-.21.07c-.68.23-2.11.72-2.14,1.15a2.49,2.49,0,0,0,.15.63,11.63,11.63,0,0,1,.69,5.15,5.25,5.25,0,0,1-4,4.52c-2.58.47-4.76-1.43-5.79-3.52a16.87,16.87,0,0,1-1.05-3,17.46,17.46,0,0,0-.69-2.12c-.47-1.09-1.45-2.21-2.5-2.22a4.76,4.76,0,0,0-1.47.44,8.85,8.85,0,0,1-1.94.61,3.87,3.87,0,0,1-3.58-1.42,2.86,2.86,0,0,1-.34-.59h0c-2.56-1.34-3.24-4.48-1.95-8.87l.24-.82q2-6.62,3.89-13.22a1.5,1.5,0,0,1,2.61-.52l.35-.15a5.17,5.17,0,0,1,4.34.5,14.29,14.29,0,0,1,1.55,1.15,5.82,5.82,0,0,0,2,1.27,4.76,4.76,0,0,0,2.61-.35,5,5,0,0,0,2.57-1.58,1.54,1.54,0,0,0,.22-1.1.6.6,0,0,0-.22-.38,4.33,4.33,0,0,0-1.39-.33c-1.14-.16-3.06-.43-3.52-2.38a1.5,1.5,0,0,1,.74-1.66A23.39,23.39,0,0,0,94.73,100c1.33-1.45,2.53-3.8,1.93-6.05l0-.09A3.25,3.25,0,0,1,97,90.62a3.06,3.06,0,0,1,2-.92,18.06,18.06,0,0,1,7.25.64,1.5,1.5,0,0,1,1.06,1.31c.17,2-1.28,3.31-2.45,4.38-.3.27-.65.59-.91.88a3.21,3.21,0,0,0,.54-.4c2.73-2.55,4.52-1.78,5.34-1.1a3.28,3.28,0,0,1,1.09,2.68c-.07,2.78-2.56,4.6-4.86,5.36-.67.23-1.35.39-2,.56a10.94,10.94,0,0,0-3.23,1.15c-.45.28-.6.55-.6.63a1.26,1.26,0,0,0,.88.38,6.75,6.75,0,0,0,1.7-.28c.43-.11.86-.22,1.3-.29,3.06-.5,5.93.7,8.61,2,2.29,1.08,4.63,2.2,6.91,2a4.41,4.41,0,0,0,3-1.66,2.34,2.34,0,0,0,.51-1.83,6.26,6.26,0,0,0-1.76-2.64,8.36,8.36,0,0,1-2.5-4.25,1.5,1.5,0,0,1,1.26-1.72c2.1-.31,3.42,1.26,4.39,2.41a9.53,9.53,0,0,0,1.06,1.13,3,3,0,0,0,3.95-.35,3.68,3.68,0,0,0,.3-4.32,4.53,4.53,0,0,0-4.29-1.92,1.5,1.5,0,0,1-1.63-1.87,8.93,8.93,0,0,0-1.45-.86l-.18-.09a11.11,11.11,0,0,1-3.67-3.54,13.49,13.49,0,0,0-1.89-2.17c-2.92-2.45-7.66-1.48-11.92-.2a1.5,1.5,0,0,1-1.87-1.86.44.44,0,0,0-.11-.36,1.63,1.63,0,0,0-1.16-.62A7.3,7.3,0,0,0,98.52,84l-.38.2c-.41.22-.83.5-1.27.8a7.58,7.58,0,0,1-4.63,1.73A3.71,3.71,0,0,0,89.18,88a3.13,3.13,0,0,0-.49,3.08,7.54,7.54,0,0,0,1.25,1.76c.29.34.58.68.85,1,1.31,1.78,1.63,3.66.89,5.17a3.82,3.82,0,0,1-2.39,2,5.07,5.07,0,0,1-4-.49,10.18,10.18,0,0,1-3.52-4.37,4.85,4.85,0,0,1-.73-2.73,4.76,4.76,0,0,1,.84-2.1,3,3,0,0,0,.4-.78.52.52,0,0,0-.17-.42,1.62,1.62,0,0,0-1.19-.5,5.62,5.62,0,0,0-3,1.76c-1.57,1.4-3,3.37-2.25,4.68.08.15.19.3.3.45a6.07,6.07,0,0,1,.64,1.06,5,5,0,0,1-.48,4.51,12.42,12.42,0,0,1-7.86,5.7c-1.57.42-3.92-.15-7.07-1l-1.43-.37a1.5,1.5,0,0,1-.86-2.32,174.69,174.69,0,0,1,21.63-25,1.5,1.5,0,0,1,2.51.81,15.42,15.42,0,0,0,.6,2.34,2.34,2.34,0,0,0,1.8-.61c.29-.23.56-.49.84-.75a8.07,8.07,0,0,1,3-2,8.22,8.22,0,0,1,1.79-.3c.24,0,.47,0,.71-.08,1.56-.26,3-1.4,4.45-2.6l.65-.53a39.08,39.08,0,0,1,13.47-6.88l.27-1.49a1.5,1.5,0,0,1,2.47-.85s.12,0,.14,0a1.76,1.76,0,0,0,1.07-.69,9.48,9.48,0,0,0,.72-1.28,9.08,9.08,0,0,1,1.46-2.28,9.22,9.22,0,0,1,3.1-1.92,6.1,6.1,0,0,0,2.2-1.33,5.93,5.93,0,0,0,.36-.5,7.36,7.36,0,0,1,.71-.94,7.17,7.17,0,0,1,2.69-1.65l1.54-.65,2.16-.91a1.5,1.5,0,0,1,2.07,1.29,4.22,4.22,0,0,1-1.11,3.07,4.32,4.32,0,0,1-1.86,1.22h0a1.55,1.55,0,0,0,1,1,6.68,6.68,0,0,0,3.43-.54l.6-.19a24.58,24.58,0,0,1,4.48-1,1.49,1.49,0,0,1,1.66,1.27c.18,1.25.39,2.51.61,3.78a75.21,75.21,0,0,1,1.17,9.23l.13,3.13a9.61,9.61,0,0,1,6.17,2,1.5,1.5,0,0,1,.17,2.21,11.52,11.52,0,0,1-3.41,2.25c-1.57.78-2.54,1.32-2.81,2.24A4.34,4.34,0,0,0,142,87.4a26.94,26.94,0,0,0,16.14,16c.85.3,1.72.57,2.59.83a21.75,21.75,0,0,1,7.5,3.37l5.62-10.26-.29-.08c-1.78-.51-2.52-1.45-2.2-2.78a1.5,1.5,0,0,1,.4-.71,20.8,20.8,0,0,0,6-13.8,1.5,1.5,0,0,1,1.81-1.41,5.26,5.26,0,0,1,1.45.54,7,7,0,0,1,4.12-2.33,12.74,12.74,0,0,1,4.28,0,17.16,17.16,0,0,0-.38-3.87c-.41-2.24.25-4,1.76-4.72a4.34,4.34,0,0,1,2.14-.31h.15a11.22,11.22,0,0,0,5.21-1,7.87,7.87,0,0,0,2.55-1.78,8.88,8.88,0,0,0,2-4.46,1.5,1.5,0,0,1,1.44-1.23,1.45,1.45,0,0,1,.85.24c.35-.52.7-1.06,1.07-1.63a3.12,3.12,0,0,0,.52-1.1c0-.4-.42-.92-1-1.15a7.46,7.46,0,0,0-2.82-.26h0a1.5,1.5,0,0,1-1.5-1.45c-.07-2.18-.23-4.25-1.38-5.53s-2.7-1.55-4.48-2a13.1,13.1,0,0,1-5.36-2.24,12.73,12.73,0,0,1-1.68-1.74,7.92,7.92,0,0,0-1.6-1.58,8,8,0,0,0-1.08-.54,10.41,10.41,0,0,1-1.55-.79c-1.32-.86-1.75-4.22-1.89-6.14a1.5,1.5,0,0,1,1.36-1.6c5.38-.5,10.87-.76,16.32-.76A172.68,172.68,0,0,1,315.68,75.53a1.5,1.5,0,0,1-1.29,2.59c-3-.58-6.24-1.35-7.76-3.2-.2-.25-.4-.5-.6-.76a7.2,7.2,0,0,0-1.66-1.76c-1.26-.79-3.12-.5-4.6-.16a20.47,20.47,0,0,0-2,.6,19.76,19.76,0,0,1-2.75.78l-1.66.3c-2.49.43-4.85.84-6.74,2.09a17.64,17.64,0,0,0-3,2.83,19,19,0,0,1-3.81,3.44,19.32,19.32,0,0,1-3.43,1.56c-.42.16-.85.32-1.26.49a43.58,43.58,0,0,0-9.54,6A6,6,0,0,0,263.86,92c-.57,1-.18,2.58.23,4.19a15.91,15.91,0,0,1,.62,3.48c0,.93,1.28,1.65,2.39,1.69a10.62,10.62,0,0,0,3.55-.76c.43-.14.86-.28,1.29-.41,2.71-.8,4.91-.65,6.55.44a6.52,6.52,0,0,1,2.66,5.33,16.31,16.31,0,0,1-1,5.14,1.5,1.5,0,0,1-.35.59,3.77,3.77,0,0,1-2.75,1.16,6.78,6.78,0,0,1-4.59-2.09c-.33-.33-.66-.69-1-1.06a16.88,16.88,0,0,0-1.28-1.32l-.74,5.33c-.21,1.53-.52,3.86-2.13,5.44a9.57,9.57,0,0,1-4.35,2.06c-1.67.46-2.72.8-3.12,1.63a1.5,1.5,0,0,1-2.82-.94c.09-.46-.29-1.13-1.13-2a43.8,43.8,0,0,0-9.17-7.41,4.56,4.56,0,0,1-1.85-1.74,4.43,4.43,0,0,1-.3-2.63c.24-1.89.33-3.74-.62-4.52a1.51,1.51,0,0,0-1.41-.26,4.38,4.38,0,0,0-2.72,2.26,20.93,20.93,0,0,0-.83,2.15c-.79,2.27-1.78,5.09-4.64,5.82a7.55,7.55,0,0,1-2.07.17,5.16,5.16,0,0,0-1.28.08c-1.26.32-1.95,2.06-2,3.62a20.85,20.85,0,0,0,.12,2.4c.06.71.12,1.43.13,2.16a22.33,22.33,0,0,0,7-2.59,1.74,1.74,0,0,0,.45-.3,2.55,2.55,0,0,0,.17-.6,5.83,5.83,0,0,1,.33-1.14,3.64,3.64,0,0,1,2.93-2.08,3.57,3.57,0,0,1,3.32,1.31c1.44,1.9.66,4.41-.69,5.94a14.28,14.28,0,0,1-1.76,1.63,11,11,0,0,0-1.47,1.36,2.78,2.78,0,0,0-.65,1.49,10.39,10.39,0,0,0,4.55-2l.8-.63a11.22,11.22,0,0,1,3-1.91c1.85-.7,4.44-.39,5.57,1.58,1.24,2.17-.06,4.67-1.79,6.06a14,14,0,0,1-1.52,1,5.11,5.11,0,0,0-1.7,1.38,1.5,1.5,0,0,1-1.21.66l-1.49,0,2.37,2.67c2,2.27,4.2,5.29,3,8.52-1.1,2.86-4.25,4.2-9.3,4l-8-.32a3,3,0,0,0-1.4.15c-.41.29-.4,1.49-.39,2l.16,10.69a4,4,0,0,0,.28,1.78c.44.74,1.78.95,3.08,1.15l.37.06c3,.47,4.94,2.18,4.93,4.36a5.33,5.33,0,0,1-1.15,3l-.49.71c-.84,1.22-1.7,2.48-2.59,3.6a21.41,21.41,0,0,1-3,2.93,11.55,11.55,0,0,0-3.36,3.78,12.68,12.68,0,0,0-.46,1.31,6.3,6.3,0,0,1-2.24,3.64l-5.67,4.08c-1.44,1-2.71,1.38-3.8,1a16.24,16.24,0,0,0-2.7,10.75c.62,4-.58,7.94-1.73,11.71s-2.32,7.57-1.44,11.13,3.73,6.42,6.73,9.33a39.85,39.85,0,0,1,5.55,6.21c.26.38.5.78.75,1.17a14.69,14.69,0,0,0,1.63,2.29,10.46,10.46,0,0,0,2.47,1.83c6.62,3.76,13.32,4.41,17.93,1.74a10.74,10.74,0,0,1,4.65-1.12,18.71,18.71,0,0,0,1.9-.22,18,18,0,0,0,2.65-.82l1-.37a29,29,0,0,1,14.6-1.12,5.3,5.3,0,0,1,2.46,1c1.61,1.32,1.59,3.51,1.58,4.56a54.34,54.34,0,0,1-.49,5.84,44.38,44.38,0,0,0-.47,6.27c.05,2.63,1.78,4.91,3.6,7.32,1.67,2.2,3.39,4.48,4.06,7.27,1,4.2-.63,8.38-2.09,12.07l-.24.62c-1.35,3.47-2.51,7.44-.9,10.56.19.38.43.75.68,1.15a13.13,13.13,0,0,1,1,1.82c1,2.24.72,4.66.5,6.79,0,.43-.09.86-.12,1.29-.13,1.54-.1,4.27,1.54,5.4.17.11.35.21.54.32a5.19,5.19,0,0,1,1.74,1.35,5.3,5.3,0,0,1,.88,3,10.08,10.08,0,0,0,.88,4,3,3,0,0,0,2.45,1.7c.94,0,1.82-.78,2.83-1.63A14.84,14.84,0,0,1,294,324a13.56,13.56,0,0,1,3.73-1.3l1.09-.27a18.9,18.9,0,0,0,8.92-5.39c.81-.88,1.54-1.82,2.31-2.83a25.62,25.62,0,0,1,4.49-4.88c.54-.41,1.09-.78,1.63-1.13,1.5-1,2.8-1.85,3.12-3.17a4.69,4.69,0,0,0-.24-2,7.41,7.41,0,0,1-.3-3.27,7.5,7.5,0,0,1,1.46-2.92,23.94,23.94,0,0,1,4.24-4.87,23.61,23.61,0,0,1,2.16-1.49,13.32,13.32,0,0,0,2.66-2,14.09,14.09,0,0,0,3-7.45,14.83,14.83,0,0,1,1.06-4.41c.54-1.15.36-2.54.15-4.15a19.83,19.83,0,0,1-.23-3c.07-3.43,1.9-6.47,3.37-8.92a15.67,15.67,0,0,0,1.08-2.44c.72-1.89,1.53-4,3.52-5.19,3.77-2.21,7.52-4.67,8.32-8.39.09-.43.15-.87.2-1.3a13.17,13.17,0,0,1,.41-2.18c.89-3,3.43-4.87,5.67-6.54l.21-.15a1.7,1.7,0,0,0,1.05-2l-.06-3.74-3.7,1.9-2.3,1.18c-2.79,1.43-5.19,1.18-6.27-.66a1.51,1.51,0,0,1-.19-.94c.45-3.67,3.73-5.89,6.37-7.67l.15-.1a58.19,58.19,0,0,0,11.75-10.57c2.36-2.8,3.23-5.12,2.58-6.89a8.62,8.62,0,0,0-1.05-1.78,8.82,8.82,0,0,1-1.64-3.28,1.5,1.5,0,0,1,.35-1.3,1.53,1.53,0,0,1,1.25-.5,12.64,12.64,0,0,1,3.25.71,13.09,13.09,0,0,1,3.6-1.36,1.52,1.52,0,0,1,1.25.28,1.5,1.5,0,0,1,.58,1.14c.06,1.92.08,3.68.08,5.39C373,299.57,295.39,377.18,200,377.18ZM127.61,358A169,169,0,0,0,200,374.18c93.74,0,170-76.26,170-170,0-1.07,0-2.17,0-3.31a6.21,6.21,0,0,0-1,.47,1.5,1.5,0,0,1-1.83.49l-.13-.06a9.71,9.71,0,0,1,1.14,2.07c1.05,2.87,0,6.18-3.1,9.87a61.19,61.19,0,0,1-12.36,11.11l-.15.1c-2.06,1.39-4.18,2.82-4.86,4.71a4.8,4.8,0,0,0,1.91-.59l2.3-1.18,5.84-3a1.5,1.5,0,0,1,2.19,1.31l.11,6.15a5.45,5.45,0,0,1-.29,2.18,5.51,5.51,0,0,1-2,2.24l-.21.16c-2,1.45-4,3-4.59,5a10.83,10.83,0,0,0-.31,1.7c-.06.5-.13,1-.25,1.55-1.05,4.9-5.58,7.91-9.74,10.35-1.07.62-1.63,2.1-2.22,3.66a18.07,18.07,0,0,1-1.31,2.92c-1.35,2.25-2.89,4.81-2.94,7.44a17.06,17.06,0,0,0,.21,2.5,10.21,10.21,0,0,1-.4,5.8,12.44,12.44,0,0,0-.81,3.54,17.05,17.05,0,0,1-3.73,9.09A15.75,15.75,0,0,1,328.2,293a21.52,21.52,0,0,0-1.89,1.3,21.28,21.28,0,0,0-3.68,4.28,3.18,3.18,0,0,0-.69,3.7,7,7,0,0,1,.25,3.48c-.58,2.46-2.6,3.79-4.38,5-.5.33-1,.66-1.46,1a23,23,0,0,0-3.94,4.33c-.78,1-1.59,2.06-2.49,3a21.92,21.92,0,0,1-10.34,6.26l-1.17.29a11.16,11.16,0,0,0-2.93,1,12.38,12.38,0,0,0-1.7,1.28c-1.25,1.05-2.67,2.25-4.64,2.33a5.93,5.93,0,0,1-5.21-3.26,12.66,12.66,0,0,1-1.24-5.26,3.26,3.26,0,0,0-.28-1.43,3,3,0,0,0-.8-.54c-.26-.15-.53-.3-.78-.46-2.18-1.5-3.16-4.31-2.84-8.12,0-.44.08-.9.13-1.35.2-1.94.39-3.76-.26-5.28a11,11,0,0,0-.81-1.41c-.28-.44-.57-.89-.82-1.39-2.17-4.2-.73-9.17.77-13l.25-.63c1.36-3.43,2.76-7,2-10.27-.53-2.19-2-4.12-3.54-6.17-2-2.69-4.13-5.47-4.21-9.07a47.4,47.4,0,0,1,.49-6.69,51.26,51.26,0,0,0,.47-5.52c0-.83,0-1.84-.46-2.19a3,3,0,0,0-1.11-.35,26,26,0,0,0-13.09,1l-1,.35a20.56,20.56,0,0,1-3.12,1,21.26,21.26,0,0,1-2.22.26,8.26,8.26,0,0,0-3.39.73c-8,4.63-17.29.33-20.92-1.74A13.59,13.59,0,0,1,224,247a17.2,17.2,0,0,1-2-2.76c-.23-.37-.45-.73-.69-1.08a37.71,37.71,0,0,0-5.15-5.72c-3.17-3.08-6.45-6.26-7.55-10.76s.22-8.61,1.48-12.73c1.11-3.61,2.15-7,1.64-10.38-.65-4.26.73-9.44,3.61-13.52a2,2,0,0,1,1.83-1h.12a2.14,2.14,0,0,1,1,.45,2.79,2.79,0,0,0,1.12-.58l5.68-4.08a3.65,3.65,0,0,0,1.13-2.1,15.16,15.16,0,0,1,.58-1.62,13.92,13.92,0,0,1,4.15-4.86,18.93,18.93,0,0,0,2.6-2.51c.82-1,1.66-2.26,2.47-3.44l.48-.7a3.18,3.18,0,0,0,.63-1.28c0-.56-1.07-1.18-2.4-1.39l-.36-.05c-1.71-.26-4-.62-5.21-2.58a6.44,6.44,0,0,1-.7-3.25l-.16-10.71c0-1.07,0-3.28,1.64-4.47a5,5,0,0,1,3.27-.71l8,.32c3.65.14,5.8-.56,6.38-2.08.51-1.34-.23-3-2.41-5.46l-4.11-4.64-.42-.47a1.5,1.5,0,0,1,1.09-2.5l4-.07a9.15,9.15,0,0,1,2.1-1.61,11.37,11.37,0,0,0,1.2-.81c.78-.63,1.4-1.67,1.08-2.23s-1.15-.55-1.9-.27a8.72,8.72,0,0,0-2.2,1.45c-.29.24-.59.47-.89.7a13,13,0,0,1-7.28,2.66,1.47,1.47,0,0,1-1.18-.53c-1.51-1.77-.9-4.35.47-6a13.38,13.38,0,0,1,1.86-1.75,11.89,11.89,0,0,0,1.41-1.29c.57-.65.93-1.67.56-2.15a.82.82,0,0,0-1.12.14,3.72,3.72,0,0,0-.14.56,4.28,4.28,0,0,1-.68,1.75,4.1,4.1,0,0,1-1.39,1.14,25.31,25.31,0,0,1-9.94,3.23,1.5,1.5,0,0,1-1.64-1.75,13.57,13.57,0,0,0,0-3.4,23.48,23.48,0,0,1-.13-2.74c.07-2.69,1.4-5.73,4.24-6.45a7.57,7.57,0,0,1,2.06-.17,5.06,5.06,0,0,0,1.28-.08c1.23-.31,1.79-1.68,2.56-3.9a23.89,23.89,0,0,1,1-2.45,7.3,7.3,0,0,1,4.77-3.89,4.56,4.56,0,0,1,4,.86c2.38,1.94,1.94,5.38,1.7,7.22a2.14,2.14,0,0,0,0,.88,2.71,2.71,0,0,0,.71.53,46.83,46.83,0,0,1,9.82,7.93,9.43,9.43,0,0,1,1.22,1.53,13.45,13.45,0,0,1,2.89-1,7.21,7.21,0,0,0,3-1.31c.81-.79,1.06-2.2,1.26-3.7l1-7.45a1.5,1.5,0,0,1,1.79-1.26c2,.41,3.25,1.84,4.39,3.1.29.32.58.65.88.95a3.88,3.88,0,0,0,2.42,1.21h0a1,1,0,0,0,.4-.08,12.39,12.39,0,0,0,.71-3.74,3.66,3.66,0,0,0-1.33-2.91c-.87-.58-2.23-.6-4-.06l-1.19.38a13.12,13.12,0,0,1-4.59.91c-2.49-.07-5.23-1.85-5.29-4.61a13.58,13.58,0,0,0-.52-2.81c-.51-2-1.09-4.29,0-6.37a8.42,8.42,0,0,1,2.5-2.59,46.57,46.57,0,0,1,10.21-6.43l1.35-.52a16.77,16.77,0,0,0,2.91-1.31,16.57,16.57,0,0,0,3.19-2.93,20.08,20.08,0,0,1,3.58-3.3c2.42-1.59,5.2-2.07,7.88-2.54l1.61-.29a17.12,17.12,0,0,0,2.35-.68,23.05,23.05,0,0,1,2.28-.68,12.9,12.9,0,0,1,3.91-.4A169.67,169.67,0,0,0,200,34.18c-4.85,0-9.73.2-14.52.61a12.08,12.08,0,0,0,.57,2.49c.27.15.59.29.92.44a10.58,10.58,0,0,1,1.5.76,10.39,10.39,0,0,1,2.27,2.17A10.32,10.32,0,0,0,192,42a10.77,10.77,0,0,0,4.2,1.66c2,.51,4.36,1.09,6,2.9a9.71,9.71,0,0,1,2.08,6,7.41,7.41,0,0,1,2.56.49,4.34,4.34,0,0,1,2.84,4.14,5.38,5.38,0,0,1-1,2.49c-.79,1.24-1.53,2.33-2.26,3.35a1.52,1.52,0,0,1-1.32.62A10.35,10.35,0,0,1,203,67.14a10.81,10.81,0,0,1-3.5,2.47A14.32,14.32,0,0,1,193,70.92h-.16a2.76,2.76,0,0,0-.72,0,2.1,2.1,0,0,0-.1,1.48,15.12,15.12,0,0,1,.12,6.51,1.5,1.5,0,0,1-1.72,1.1,13.32,13.32,0,0,0-4.71-.31,3.55,3.55,0,0,0-2.8,2.08,1.5,1.5,0,0,1-2.36.75,24,24,0,0,1-5.47,12,2.84,2.84,0,0,1,1.74,1.48,3,3,0,0,1-.33,2.69l-6.34,11.58a1.5,1.5,0,0,1-1.22.78,3.2,3.2,0,0,1-2.27-.94l-.1-.08c-1.83-1.53-4.19-2.24-6.7-3-.9-.27-1.82-.55-2.72-.87a30,30,0,0,1-18-17.81,7,7,0,0,1-.43-4.38c.66-2.23,2.62-3.21,4.35-4.07l.82-.41a6.55,6.55,0,0,0-3.5-.17,1.5,1.5,0,0,1-1.84-1.4l-.2-4.77a73.13,73.13,0,0,0-1.13-8.86c-.13-.79-.27-1.58-.39-2.36a21,21,0,0,0-2.5.62l-.58.19a9,9,0,0,1-5.07.6,4.53,4.53,0,0,1-3.12-3,3.57,3.57,0,0,1-.15-1.48,1.88,1.88,0,0,0-.29.25,5,5,0,0,0-.42.57,8.93,8.93,0,0,1-.55.76,8.5,8.5,0,0,1-3.28,2.15,6.77,6.77,0,0,0-2.14,1.25,6.66,6.66,0,0,0-1,1.56,11.72,11.72,0,0,1-1,1.69,4.71,4.71,0,0,1-3.18,1.91l-.28,0-.15.79a1.5,1.5,0,0,1-1.1,1.18,36,36,0,0,0-13.29,6.58l-.63.51c-1.64,1.32-3.5,2.83-5.86,3.23-.32,0-.62.08-.92.1a5.79,5.79,0,0,0-1.16.18A5.71,5.71,0,0,0,88.32,83c-.33.31-.66.62-1,.9-1.62,1.3-4.14,2-5.85.39A3,3,0,0,1,80.74,83a171.77,171.77,0,0,0-18.14,21c1.72.46,4.07,1,4.87.82a9.6,9.6,0,0,0,6-4.26,2.26,2.26,0,0,0,.36-1.82,3.77,3.77,0,0,0-.35-.55,8.53,8.53,0,0,1-.47-.72C71.66,95,72.71,92,75.9,89.14a8.28,8.28,0,0,1,4.85-2.52,4.56,4.56,0,0,1,3.63,1.5,3.45,3.45,0,0,1,.88,3,5.17,5.17,0,0,1-.8,1.83,2.67,2.67,0,0,0-.4.8,2.62,2.62,0,0,0,.4,1.05,7.86,7.86,0,0,0,2.4,3.2,2.11,2.11,0,0,0,1.57.2.85.85,0,0,0,.55-.41,2.32,2.32,0,0,0-.61-2.06c-.22-.3-.47-.59-.72-.88a10,10,0,0,1-1.73-2.55,6.12,6.12,0,0,1,.92-6.12,6.68,6.68,0,0,1,5.56-2.41,5.09,5.09,0,0,0,2.8-1.23c.48-.32,1-.65,1.52-.95l.37-.2a9.88,9.88,0,0,1,4.62-1.5,4.65,4.65,0,0,1,3.52,1.85,3.83,3.83,0,0,1,.37.63c4.57-1.21,9.46-1.74,13,1.26A15.89,15.89,0,0,1,121,86.26a8.79,8.79,0,0,0,2.65,2.68l.17.09a6.52,6.52,0,0,1,2.95,2.41,7.44,7.44,0,0,1,5.59,3.31,6.7,6.7,0,0,1-.64,8,6.14,6.14,0,0,1-6,1.67,5.41,5.41,0,0,1,.35,1.14,5.29,5.29,0,0,1-1.06,4.2,7.44,7.44,0,0,1-5.12,2.84c-3.08.28-5.93-1.07-8.44-2.26s-4.66-2.09-6.86-1.73c-.35.06-.69.15-1,.24a8.44,8.44,0,0,1-2.54.37c-1.84-.05-3.81-1.38-3.78-3.45a3.84,3.84,0,0,1,2-3.09,13.34,13.34,0,0,1,4.12-1.53c.63-.16,1.22-.3,1.79-.49,1.37-.46,2.77-1.44,2.81-2.62a.92.92,0,0,0,0-.21,3.92,3.92,0,0,0-1.37.93,5,5,0,0,1-3.66,1.48A2.66,2.66,0,0,1,100.95,99a1.5,1.5,0,0,1-.15-.29c-.89-2.22.88-3.84,2.05-4.92.35-.32.72-.66,1-1a15.07,15.07,0,0,0-4.41-.17c0,.12.06.24.09.34l0,.12A9.76,9.76,0,0,1,97,102a19.17,19.17,0,0,1-4.47,3.49,5,5,0,0,1,1.76.64,3.54,3.54,0,0,1,1.56,2.3,4.53,4.53,0,0,1-.66,3.39A7.59,7.59,0,0,1,91,114.56a7.51,7.51,0,0,1-4.33.42,8.32,8.32,0,0,1-3.18-1.85,11.88,11.88,0,0,0-1.23-.92,2.21,2.21,0,0,0-1.7-.25c-.14.06-.16.1-.17.13a1.5,1.5,0,0,1-1.2,1.06,1.53,1.53,0,0,1-.5,0l-3.17,10.76-.24.82c-.28,1-1.05,4,.11,5.11a1.47,1.47,0,0,1,.93.05,1.5,1.5,0,0,1,.91,1.76,1,1,0,0,0,.59.16,6.37,6.37,0,0,0,1.29-.43,7.18,7.18,0,0,1,2.5-.66c2.62,0,4.53,2.13,5.35,4a20.1,20.1,0,0,1,.82,2.5,14.4,14.4,0,0,0,.86,2.49c.51,1,1.58,2,2.56,1.89a2.31,2.31,0,0,0,1.54-2,9,9,0,0,0-.58-3.81,4.47,4.47,0,0,1-.28-1.76c.17-2.4,2.57-3.23,4.16-3.77l.19-.07a2.41,2.41,0,0,0,1.13-.88l-.26-.11c-.21-.08-.41-.17-.6-.27-2.37-1.26-2.75-4.29-2.1-6.58a20,20,0,0,1,.81-2.18,10.79,10.79,0,0,0,.88-2.72c0-.06,0-.12-.12-.37a2.76,2.76,0,0,1,0-2.6,1.5,1.5,0,0,1,1.27-.82c1.18,0,2.29-1,3.47-2,.45-.39.91-.77,1.37-1.12a4.35,4.35,0,0,1,3.94-.38c4,1.15,10.22,6.1,12.43,9.71a4.76,4.76,0,0,0,.54-3,1.5,1.5,0,0,1,.37-1.23c1.88-2.06,5.19-1.65,7.18-.09a13.58,13.58,0,0,1,3.13,4l.56.93c.73,1.18,1.56,2.29,2.44,3.46.72,1,1.46,1.95,2.14,3a61.43,61.43,0,0,1,4.8,9.58l3.7,8.64q1,2.27,1.94,4.55l.12,0a1.5,1.5,0,0,1,1.62,1,12.9,12.9,0,0,1,.5,6,1.51,1.51,0,0,1-1.67,1.26,66.1,66.1,0,0,1-12.41-2.83,1.5,1.5,0,0,1-.9-.81c-.75-1.68-.35-3.43,0-5s.53-2.44.08-3c-.89-1.18-3.69,0-4.52.33-2.24,1-4.67,2.23-5.27,4.24a4.68,4.68,0,0,0,1.65,4.56,10.54,10.54,0,0,0,5.47,2.2,1.5,1.5,0,0,1,1.26,1.66,10.6,10.6,0,0,1-9.64,9.13,5.32,5.32,0,0,1-2.76-.46,6.36,6.36,0,0,1-2.38-2.48,3.92,3.92,0,0,0-1.23-1.43,1,1,0,0,0-.91.06,3.41,3.41,0,0,0-1.62,2.18,13.59,13.59,0,0,0-.21,2.84,15.22,15.22,0,0,1-.33,3.69,4.89,4.89,0,0,1-2.61,3.46,3.53,3.53,0,0,1-3-.14,3,3,0,0,1-1.18-1.12,5,5,0,0,0-3.08,2.92,5.83,5.83,0,0,0-.14,1.51,5.86,5.86,0,0,1-.8,3.39,8.1,8.1,0,0,1-.92,1.07,4.26,4.26,0,0,0-.67.79,4.17,4.17,0,0,0-.29,1.41c0,.39-.08.78-.16,1.16-.48,2.36-2.15,4-3.62,5.54a10.35,10.35,0,0,0-2.77,3.71,10,10,0,0,0-.18,3.6,18.91,18.91,0,0,1,0,3,20.44,20.44,0,0,1-1,4.33c-.7,2.2-1.31,4.1-.56,5.73a1.5,1.5,0,0,1-1.35,2.13l-4.93,0h0a1.5,1.5,0,0,1-1.49-1.33c-.35-3.08-3.51-5.21-6.44-5.72a21.48,21.48,0,0,0-8.77.8,11.52,11.52,0,0,1-.56,6.17c-.21.64-.45,1.27-.69,1.89a17.29,17.29,0,0,0-1.26,4.41,4.73,4.73,0,0,0,1.28,3.92,1.5,1.5,0,0,1,2,.16,1.23,1.23,0,0,0,.55-.55,9.53,9.53,0,0,0,.29-1,5.54,5.54,0,0,1,1.69-3.22,3.67,3.67,0,0,1,3.16-.68,5.63,5.63,0,0,1,3.65,3,13.36,13.36,0,0,1,.95,3.19,12.79,12.79,0,0,0,.6,2.25,6.44,6.44,0,0,1,.32,3.25,9.63,9.63,0,0,0-.06,1.21,2.79,2.79,0,0,0,.13,1,3.08,3.08,0,0,0,1.18.37c.33.07.67.13,1,.23,3.11.89,4.62,4,5.83,6.41l.12.25c2.3,4.61,4.91,7.41,8,8.56.48.18,1,.33,1.53.49a18.94,18.94,0,0,1,2.2.74,19.88,19.88,0,0,1,4.85,3.31c1.9,1.59,3.69,3.09,5.77,3.15a13.33,13.33,0,0,0,2.17-.21c1.85-.28,4.16-.62,5.89,1a6.72,6.72,0,0,1,1.71,3.54,8.4,8.4,0,0,0,.49,1.55,17.1,17.1,0,0,1,5.17.23,7.69,7.69,0,0,1,5.38,4c.15.33.26.65.37,1a4,4,0,0,0,.48,1.08,3.88,3.88,0,0,0,1.21.82l5.71,3c1.39.73,4,2.1,4.41,4.76a8,8,0,0,1,0,2.2c-.08.65-.15,1.33,0,1.54a2.74,2.74,0,0,0,1,.4,55.87,55.87,0,0,1,17.75,8.67l.28.21a8.58,8.58,0,0,0,2.61,1.5,10.79,10.79,0,0,0,2.12.23c1.78.08,4,.19,5.27,2.11a5,5,0,0,0,2.12,1.42,12.78,12.78,0,0,1,2,1.11c3.14,2.21,3.27,6.59,2.06,9.73a25.54,25.54,0,0,1-2.65,4.74,24.58,24.58,0,0,0-4.06,9.32c-.18.64-.36,1.29-.56,1.93-.86,2.85-2.05,6.1-4.41,8.58a9.84,9.84,0,0,1-8.67,3.16l-7.85,10.67a7.4,7.4,0,0,1-3,2.74c-2.19.9-4.14.16-5.71-.45a5.61,5.61,0,0,0-2.69-.61c-.22,2.33-1.74,4-3.09,5.53l-.68.77a12.15,12.15,0,0,1-3.61,2.81A13.19,13.19,0,0,1,127.61,358ZM31,186.09a170.06,170.06,0,0,0,91.5,169.35c-.07-.21-.12-.41-.16-.58q-.63-2.33-1.26-4.68a10.36,10.36,0,0,0-1.13.42,10.2,10.2,0,0,1-2,.66c-2.65.47-4.2-2.25-5.57-4.64-.5-.88-1.86-3.2-2.33-3.1a1.5,1.5,0,0,1-1.86-1.61,32.72,32.72,0,0,0,.19-5.54,35.64,35.64,0,0,1,.2-6c.13-1.25.21-2.64-.43-3.28a1.5,1.5,0,0,1-.43-1.17c.33-4.41.49-9.44-1.7-13.37a24.13,24.13,0,0,0-4.64-5.34L87.52,294.17c-3.53-3.34-7.27-7.34-7-12.41a16.75,16.75,0,0,1,1.68-5.68c.21-.47.41-.95.6-1.42a25.61,25.61,0,0,0,1.84-9.06,51.71,51.71,0,0,1,1-8l0-.21c.27-1.53.45-2.87-.07-3.84s-2-1.62-3.62-2.21a19.44,19.44,0,0,1-2.63-1.1c-3.23-1.73-4.9-4.91-6.52-8-.4-.76-.79-1.51-1.21-2.24a3.75,3.75,0,0,0-2-1.78c-.12,0-.15,0-.2,0a2.32,2.32,0,0,0-.28.35c-.13.18-.25.35-.4.51-1.62,1.92-4.49,2-6.47,1a13.06,13.06,0,0,1-4.22-3.85l-7.39-9.22A10,10,0,0,1,49,224.44a9.26,9.26,0,0,1-.51-2.9l0-.36a10.45,10.45,0,0,0-.74-4,3,3,0,0,0-1.43-1.37l-.07.66a1.5,1.5,0,0,1-2.84.49,30.92,30.92,0,0,1-2.05-5.48l-.14-.51c-1.42-5.23-2.88-10.63-2.56-16.15l0-.29a2.91,2.91,0,0,0,0-1.11,2.65,2.65,0,0,0-.73-.59l-4.07-2.63a5,5,0,0,1-2.65-3.39,6.16,6.16,0,0,0-.24-.7Zm337.94,15.3Zm.25-.4h0ZM105,174.14v0Z"/><path class="cls-7" d="M200.27,76.69a5.32,5.32,0,0,0-4,1.42,4.09,4.09,0,0,0-1.08,4A5.21,5.21,0,0,0,197,84.58a12.56,12.56,0,0,0,6.65,2.33,37.47,37.47,0,0,0,7.13-.32,7.75,7.75,0,0,0,3.15-.8c1.23-.72,2-2.06,3.13-2.89a2.06,2.06,0,0,0,.78-.73,1.47,1.47,0,0,0,.1-.6,6,6,0,0,0-1.71-4.16c-1.15-1.16-6,.55-7.74.68C205.57,78.32,203.12,76.85,200.27,76.69Z"/><path class="cls-8" d="M205.45,88.48c-.63,0-1.26,0-1.89-.07a14.06,14.06,0,0,1-7.44-2.64,6.62,6.62,0,0,1-2.39-3.15A5.54,5.54,0,0,1,195.17,77a6.76,6.76,0,0,1,5.18-1.85,18.47,18.47,0,0,1,3.88.76,12.21,12.21,0,0,0,4.16.65,19.22,19.22,0,0,0,2-.39c2.73-.62,5.56-1.26,7,.14a7.45,7.45,0,0,1,2.14,5.22,2.91,2.91,0,0,1-.23,1.22,3.06,3.06,0,0,1-1.17,1.26l-.11.08a8,8,0,0,0-1.18,1.14,7.22,7.22,0,0,1-5.8,2.82A51.17,51.17,0,0,1,205.45,88.48Zm-5.52-10.3a3.76,3.76,0,0,0-2.63,1,2.59,2.59,0,0,0-.71,2.52,3.73,3.73,0,0,0,1.36,1.7,11.09,11.09,0,0,0,5.86,2,36.37,36.37,0,0,0,6.84-.31,4.41,4.41,0,0,0,3.91-1.85,10.49,10.49,0,0,1,1.67-1.57l.15-.1.1-.07a4.5,4.5,0,0,0-1.2-3c-.71-.21-3.08.33-4.23.59a18.85,18.85,0,0,1-2.4.45,14.51,14.51,0,0,1-5.18-.75,16,16,0,0,0-3.27-.66h-.26Z"/><path class="cls-7" d="M208.18,57a4,4,0,0,1-.75,1.8C206.72,60,206,61,205.22,62.1a1.77,1.77,0,0,1-.94-1.18,10.38,10.38,0,0,1-2.34,5.2,9.36,9.36,0,0,1-3,2.12,12.79,12.79,0,0,1-5.9,1.17,3.37,3.37,0,0,0-1.59.16c-1,.5-1.14,2-.93,3.1a13.78,13.78,0,0,1,.15,5.87,14.5,14.5,0,0,0-5.26-.31,5,5,0,0,0-4,3.12,3.93,3.93,0,0,0-2.2-1.34,22.33,22.33,0,0,1-6.46,14.81c-.27,1.14,2.15.77,2.63,1.85a1.62,1.62,0,0,1-.27,1.36l-6.34,11.59a2.1,2.1,0,0,1-1.33-.69c-2.75-2.3-6.48-2.92-9.87-4.13a28.59,28.59,0,0,1-17-16.91,5.57,5.57,0,0,1-.4-3.44c.8-2.72,4.62-3,6.56-5.09A8.05,8.05,0,0,0,140,77.92c-.06-1.58-.14-3.18-.2-4.77-.18-4.25-1.15-8.65-1.76-12.87a23,23,0,0,0-4.21.9c-1.58.5-3.23,1.16-4.83.76s-2.84-2.5-1.74-3.74a2.81,2.81,0,0,0,2.59-2.88l-3.71,1.56A5.84,5.84,0,0,0,124,58.17c-.39.42-.65.95-1,1.39-1.36,1.61-3.88,1.78-5.35,3.31-.92,1-1.28,2.33-2.06,3.41s-2.43,1.8-3.42.92l-.44,2.42a37.39,37.39,0,0,0-13.85,6.86c-1.78,1.41-3.57,3.05-5.82,3.43a15,15,0,0,0-2.28.33c-1.35.42-2.29,1.64-3.4,2.53s-2.84,1.42-3.88.45a10,10,0,0,1-.93-3.08A171,171,0,0,1,183.82,33.43c.14,1.89.63,4.61,1.21,5,.82.54,1.79.79,2.62,1.32,1.36.88,2.16,2.41,3.41,3.42,2.87,2.33,7.55,1.65,10,4.39,1.53,1.7,1.69,4.19,1.76,6.48a8.5,8.5,0,0,1,3.43.37A2.86,2.86,0,0,1,208.18,57Z"/><path class="cls-8" d="M168.73,111.13a3.3,3.3,0,0,1-2.12-.95l-.1-.08c-1.83-1.53-4.19-2.24-6.7-3-.9-.27-1.82-.55-2.72-.87a30,30,0,0,1-18-17.81,7,7,0,0,1-.43-4.38c.66-2.24,2.62-3.21,4.35-4.07l.82-.41a6.55,6.55,0,0,0-3.5-.17,1.5,1.5,0,0,1-1.84-1.4l-.2-4.77a73.13,73.13,0,0,0-1.13-8.86c-.13-.79-.27-1.58-.39-2.36a21,21,0,0,0-2.5.62l-.58.19a9,9,0,0,1-5.07.6,4.53,4.53,0,0,1-3.12-3,3.57,3.57,0,0,1-.15-1.48,1.88,1.88,0,0,0-.29.25,5,5,0,0,0-.42.57,9,9,0,0,1-.55.76,8.49,8.49,0,0,1-3.28,2.15,6.77,6.77,0,0,0-2.14,1.25,6.66,6.66,0,0,0-1,1.56,11.72,11.72,0,0,1-1,1.69,4.71,4.71,0,0,1-3.18,1.91l-.28,0-.15.79a1.5,1.5,0,0,1-1.1,1.18,36,36,0,0,0-13.29,6.58l-.63.51c-1.64,1.32-3.5,2.83-5.86,3.23-.32,0-.62.08-.92.1a5.79,5.79,0,0,0-1.16.18A5.71,5.71,0,0,0,88.32,83c-.33.31-.66.62-1,.9-1.62,1.3-4.14,2-5.85.39-.21-.2-.79-.76-1.38-3.9a1.5,1.5,0,0,1,.44-1.36A173.48,173.48,0,0,1,183.68,31.94a1.48,1.48,0,0,1,1.11.35,1.5,1.5,0,0,1,.53,1,15.77,15.77,0,0,0,.73,4c.27.15.59.29.92.44a10.58,10.58,0,0,1,1.5.76,10.41,10.41,0,0,1,2.27,2.17A10.38,10.38,0,0,0,192,42a10.77,10.77,0,0,0,4.2,1.66c2,.51,4.36,1.09,6,2.9a9.71,9.71,0,0,1,2.08,6,7.4,7.4,0,0,1,2.56.49,4.34,4.34,0,0,1,2.84,4.13,5.38,5.38,0,0,1-1,2.49c-.79,1.24-1.53,2.33-2.26,3.35a1.52,1.52,0,0,1-1.32.62A10.35,10.35,0,0,1,203,67.14a10.81,10.81,0,0,1-3.5,2.47A14.37,14.37,0,0,1,193,70.92h-.16a2.81,2.81,0,0,0-.72,0,2.1,2.1,0,0,0-.1,1.48,15.12,15.12,0,0,1,.12,6.51,1.5,1.5,0,0,1-1.72,1.1,13.32,13.32,0,0,0-4.71-.31,3.55,3.55,0,0,0-2.8,2.08,1.5,1.5,0,0,1-2.36.75,23.94,23.94,0,0,1-5.47,12,2.84,2.84,0,0,1,1.74,1.48,3,3,0,0,1-.33,2.69l-6.34,11.58a1.5,1.5,0,0,1-1.22.78ZM141.82,76.22a9.51,9.51,0,0,1,5.81,2,1.5,1.5,0,0,1,.17,2.21,11.52,11.52,0,0,1-3.41,2.25c-1.57.78-2.54,1.32-2.81,2.24A4.34,4.34,0,0,0,142,87.4a26.94,26.94,0,0,0,16.14,16c.85.3,1.72.57,2.59.83a21.75,21.75,0,0,1,7.5,3.37l5.62-10.26-.29-.08c-1.78-.51-2.52-1.45-2.2-2.78a1.5,1.5,0,0,1,.4-.71,20.8,20.8,0,0,0,6-13.8,1.5,1.5,0,0,1,1.81-1.41,5.26,5.26,0,0,1,1.45.54,7,7,0,0,1,4.12-2.33,12.74,12.74,0,0,1,4.28,0,17.16,17.16,0,0,0-.38-3.87c-.41-2.24.25-4,1.76-4.72a4.34,4.34,0,0,1,2.14-.31h.15a11.2,11.2,0,0,0,5.21-1,7.86,7.86,0,0,0,2.55-1.78,8.87,8.87,0,0,0,2-4.46,1.5,1.5,0,0,1,1.44-1.23,1.45,1.45,0,0,1,.85.24c.35-.52.7-1.06,1.07-1.63a3.12,3.12,0,0,0,.52-1.1h0c0-.39-.42-.91-1-1.14a7.46,7.46,0,0,0-2.82-.26h0a1.5,1.5,0,0,1-1.5-1.45c-.07-2.18-.23-4.25-1.38-5.53s-2.7-1.55-4.48-2a13.11,13.11,0,0,1-5.36-2.24,12.73,12.73,0,0,1-1.68-1.74,7.92,7.92,0,0,0-1.6-1.58,8,8,0,0,0-1.08-.54,10.41,10.41,0,0,1-1.55-.79c-1-.66-1.5-2.79-1.74-4.61A170.49,170.49,0,0,0,83.19,80.65a12.71,12.71,0,0,0,.44,1.55,2.34,2.34,0,0,0,1.8-.61c.29-.23.56-.49.84-.75a8.07,8.07,0,0,1,3-2,8.22,8.22,0,0,1,1.79-.3c.24,0,.47,0,.71-.08,1.56-.26,3-1.4,4.45-2.6l.65-.53a39.08,39.08,0,0,1,13.47-6.88l.27-1.49a1.5,1.5,0,0,1,2.47-.85s.12,0,.14,0a1.76,1.76,0,0,0,1.07-.69,9.48,9.48,0,0,0,.72-1.28,9.08,9.08,0,0,1,1.46-2.28,9.21,9.21,0,0,1,3.1-1.92,6.1,6.1,0,0,0,2.2-1.33,5.93,5.93,0,0,0,.36-.5,7.36,7.36,0,0,1,.71-.94,7.17,7.17,0,0,1,2.69-1.65l1.54-.65,2.16-.91a1.5,1.5,0,0,1,2.07,1.29,4.22,4.22,0,0,1-1.11,3.07,4.32,4.32,0,0,1-1.86,1.22h0a1.55,1.55,0,0,0,1,1,6.68,6.68,0,0,0,3.43-.54l.6-.19a24.58,24.58,0,0,1,4.48-1,1.5,1.5,0,0,1,1.66,1.27c.18,1.25.39,2.51.61,3.78a75.21,75.21,0,0,1,1.17,9.23l.13,3.13Z"/><path class="cls-7" d="M177.44,306.93c-1.06,2.71-3.05,5-4.39,7.55a48.86,48.86,0,0,0-2.91,8.55,19.38,19.38,0,0,1-4.06,8c-2.09,2.17-5.34,3.46-8.19,2.49L149.43,345a6.11,6.11,0,0,1-2.37,2.24c-3.38,1.39-6.16-2.53-9.32-.7.23,2.65-1.68,4.34-3.42,6.35a10.75,10.75,0,0,1-3.17,2.46,11.57,11.57,0,0,1-5,1.27,2.57,2.57,0,0,1-1.27-.21,2.84,2.84,0,0,1-1.11-1.9q-.79-2.91-1.56-5.83c-1.55-.35-3,.83-4.57,1.12-3.22.57-4.84-8.53-8-7.71.61-5.76-.22-5.75.39-11.51.16-1.57.25-3.38-.85-4.5.36-4.82.46-10-1.89-14.22a25.3,25.3,0,0,0-4.92-5.7L88.55,293.08C85.3,290,81.79,286.31,82,281.85c.14-2.34,1.31-4.46,2.17-6.64a26.92,26.92,0,0,0,1.94-9.59,51.64,51.64,0,0,1,1-7.94c.28-1.61.55-3.37-.22-4.81-1.27-2.37-4.5-2.65-6.87-3.93-3.58-1.92-5.11-6.13-7.14-9.66-.94-1.64-3-3.36-4.45-2.12a8.41,8.41,0,0,0-.82,1,4,4,0,0,1-4.69.62,11.63,11.63,0,0,1-3.7-3.44l-7.39-9.22a8.63,8.63,0,0,1-1.44-2.23,7.93,7.93,0,0,1-.41-2.44,12.67,12.67,0,0,0-.92-5c-.76-1.51-2.49-2.69-4.12-2.23l-.22,2a29.52,29.52,0,0,1-2-5.21c-1.42-5.27-3-10.73-2.65-16.18a4.05,4.05,0,0,0-.18-2.2,3.35,3.35,0,0,0-1.25-1.15l-4.06-2.63a4.86,4.86,0,0,1-1.53-1.32,15.29,15.29,0,0,1-.8-2.11,3.77,3.77,0,0,0-2.59-2.1A170.36,170.36,0,0,1,60.11,105c2.45.61,6.15,1.79,7.75,1.37a11.08,11.08,0,0,0,6.94-5,3.62,3.62,0,0,0,.42-3.17c-.22-.5-.61-.91-.89-1.39-1.22-2.22.68-4.83,2.56-6.52a7,7,0,0,1,4-2.14c1.52-.09,3.21,1.18,2.93,2.69-.18,1-1.13,1.74-1.22,2.75a3.45,3.45,0,0,0,.57,1.9,8.9,8.9,0,0,0,3,3.78c1.39.82,3.52.62,4.24-.83a3.64,3.64,0,0,0-.75-3.61,16.33,16.33,0,0,1-2.28-3.12A4.64,4.64,0,0,1,88,87.08a5.2,5.2,0,0,1,4.31-1.86c1.93.11,3.42-1.44,5.12-2.35a9,9,0,0,1,4.24-1.52c1.52,0,3.1,1.45,2.67,2.9,4.44-1.33,9.76-2.49,13.32.5,2,1.66,3,4.35,5.28,5.52,1.19.61,3,1.46,2.4,2.67a6,6,0,0,1,5.73,2.6,5.19,5.19,0,0,1-.46,6.15,4.55,4.55,0,0,1-6,.47c-1.42-1.19-2.43-3.48-4.26-3.21.42,2.69,3.75,4.17,4.25,6.84s-2.17,5-4.84,5.27-5.26-1-7.68-2.13-5.07-2.28-7.73-1.85a16.9,16.9,0,0,1-3.28.59c-1.12,0-2.35-.81-2.33-1.92a2.45,2.45,0,0,1,1.3-1.86c1.66-1.06,3.7-1.25,5.57-1.87s3.78-2,3.83-4a1.82,1.82,0,0,0-.55-1.47c-1-.82-2.42.17-3.36,1s-2.61,1.64-3.33.57c-1-2.42,3.86-3.8,3.64-6.4a16.5,16.5,0,0,0-6.62-.59,1.67,1.67,0,0,0-1.09.43c-.44.5-.19,1.27,0,1.91.7,2.62-.44,5.46-2.27,7.45a24.46,24.46,0,0,1-6.65,4.62c.37,1.57,2.87.92,4.24,1.78a2.62,2.62,0,0,1,.45,3.59,6.18,6.18,0,0,1-3.32,2.16,6.07,6.07,0,0,1-3.47.39c-1.55-.39-2.64-1.76-4-2.6s-3.63-.8-4.08.74l-1-1.41q-2.06,7-4.14,14c-.74,2.5-1.14,5.89,1.18,7.1.25.13.66.16.75-.12-.54,1.13,1.06,2.21,2.29,2s2.34-1,3.6-1.07c1.77-.05,3.22,1.5,3.93,3.13s.92,3.45,1.71,5.06,2.42,3,4.17,2.7a3.77,3.77,0,0,0,2.75-3.26,10.3,10.3,0,0,0-.63-4.46,3.16,3.16,0,0,1-.22-1.2c.11-1.49,1.94-2,3.35-2.53s2.89-2.17,1.87-3.26a5,5,0,0,0-1.39-.74c-1.6-.85-1.85-3.09-1.35-4.83s1.52-3.33,1.74-5.13c.14-1.09-.81-1.5-.32-2.47,2.25-.09,3.87-2.07,5.68-3.42,2.85-2.15,13.17,5.92,14.67,9.83l1.42,0a6.27,6.27,0,0,0,1.4-4.94c1.27-1.39,3.66-1.08,5.14.08s2.34,2.93,3.35,4.54c1.39,2.25,3.15,4.26,4.6,6.47a61.3,61.3,0,0,1,4.76,9.53l2.8,6.52c1.2,2.82,2.42,5.64,3.6,8.46a1.29,1.29,0,0,0,.85-1.12,11.38,11.38,0,0,1,.44,5.32,64.5,64.5,0,0,1-12.13-2.77c-1.16-2.6,1.63-6-.07-8.3-1.38-1.84-4.25-1.08-6.34-.14-2.51,1.12-5.31,2.54-6.09,5.18a6.14,6.14,0,0,0,2.1,6.11,12.14,12.14,0,0,0,6.23,2.55,9.13,9.13,0,0,1-8.24,7.81,3.9,3.9,0,0,1-2-.31c-1.61-.82-2-3.16-3.64-3.93-2-.93-4.16,1.15-4.63,3.27s0,4.38-.53,6.49a3.5,3.5,0,0,1-1.76,2.45,1.8,1.8,0,0,1-2.48-1.09c-.18-1.17-4.65.38-5.65,3.69-.45,1.52.14,3.18-.75,4.5a24.62,24.62,0,0,0-1.66,2,10.43,10.43,0,0,0-.6,3c-.75,3.66-5.2,5.53-6.34,9.09-.71,2.21,0,4.6-.21,6.9-.34,3.7-3,7.45-1.47,10.83l-4.93,0c-.42-3.69-4-6.39-7.67-7s-7.41.3-11,1.23c1.1,2,.72,4.55,0,6.74s-1.8,4.32-2,6.63.68,4.94,2.82,5.84a.78.78,0,0,0,.85-.57c.68,1.15,2.54.2,3-1s.5-2.79,1.53-3.62c1.46-1.16,3.7.11,4.52,1.78s.8,3.64,1.51,5.36c.55,1.33.09,2.51.15,3.95a3.26,3.26,0,0,0,.39,1.74c.63.9,1.93.89,3,1.19,2.56.74,3.85,3.5,5,5.89,2,3.9,4.7,7.76,8.79,9.3,1.2.45,2.49.7,3.67,1.2,4,1.72,6.79,6.46,11.18,6.58,2.45.06,5.3-1.28,7.07.39,1.5,1.41,1,4.09,2.49,5.56a18.18,18.18,0,0,1,5.56.13,6.22,6.22,0,0,1,4.36,3.18,10.58,10.58,0,0,0,1,2.34,4.94,4.94,0,0,0,1.7,1.22l5.71,3c1.58.83,3.35,1.9,3.63,3.67.24,1.53-.68,3.37.37,4.52a3.43,3.43,0,0,0,1.71.83,54.69,54.69,0,0,1,17.26,8.43,10.84,10.84,0,0,0,3.4,1.94c2.25.59,5.23-.22,6.52,1.72,1,1.53,3,1.86,4.53,2.92C178.29,300.64,178.48,304.21,177.44,306.93Z"/><path class="cls-8" d="M126,358.1a3.8,3.8,0,0,1-1.8-.39,4.21,4.21,0,0,1-1.86-2.85q-.63-2.33-1.26-4.68a10.16,10.16,0,0,0-1.13.42,10.2,10.2,0,0,1-2,.66c-2.65.47-4.2-2.25-5.57-4.64-.5-.88-1.86-3.24-2.33-3.1a1.5,1.5,0,0,1-1.86-1.61,32.72,32.72,0,0,0,.19-5.54,35.64,35.64,0,0,1,.2-6c.13-1.25.21-2.64-.43-3.28a1.5,1.5,0,0,1-.43-1.17c.33-4.41.49-9.44-1.7-13.37a24.1,24.1,0,0,0-4.64-5.34L87.52,294.17c-3.53-3.34-7.27-7.34-7-12.41a16.75,16.75,0,0,1,1.68-5.68c.21-.47.41-.95.6-1.42a25.61,25.61,0,0,0,1.84-9.06,51.71,51.71,0,0,1,1-8l0-.21c.27-1.53.45-2.87-.07-3.84s-2-1.62-3.62-2.21a19.44,19.44,0,0,1-2.63-1.1c-3.23-1.73-4.9-4.91-6.52-8-.4-.76-.79-1.51-1.21-2.24a3.75,3.75,0,0,0-2-1.78c-.12,0-.15,0-.2,0a2.29,2.29,0,0,0-.28.35c-.13.18-.25.35-.4.51-1.62,1.92-4.49,2-6.47,1a13.06,13.06,0,0,1-4.22-3.85l-7.39-9.22A10,10,0,0,1,49,224.44a9.25,9.25,0,0,1-.51-2.9l0-.36a10.44,10.44,0,0,0-.74-4,3,3,0,0,0-1.43-1.37l-.07.66a1.5,1.5,0,0,1-2.84.49,30.92,30.92,0,0,1-2.05-5.48l-.14-.51c-1.42-5.23-2.88-10.63-2.56-16.15l0-.29a2.91,2.91,0,0,0,0-1.11,2.65,2.65,0,0,0-.73-.59l-4.07-2.63a5,5,0,0,1-2.65-3.39,6.16,6.16,0,0,0-.24-.7,2.28,2.28,0,0,0-1.54-1.24,1.5,1.5,0,0,1-1.16-1.64,172.61,172.61,0,0,1,30.62-79.15,1.5,1.5,0,0,1,1.59-.59l1.48.39c1.72.46,4.61,1.24,5.52,1a9.6,9.6,0,0,0,6-4.26,2.26,2.26,0,0,0,.36-1.82,3.77,3.77,0,0,0-.35-.55,8.53,8.53,0,0,1-.47-.72C71.66,95,72.71,92,75.9,89.14a8.28,8.28,0,0,1,4.85-2.52,4.57,4.57,0,0,1,3.63,1.5,3.45,3.45,0,0,1,.88,3,5.17,5.17,0,0,1-.8,1.83,2.67,2.67,0,0,0-.4.8,2.62,2.62,0,0,0,.4,1.05,7.86,7.86,0,0,0,2.4,3.2,2.11,2.11,0,0,0,1.57.2.85.85,0,0,0,.55-.41,2.32,2.32,0,0,0-.61-2.06c-.22-.3-.47-.59-.72-.88a10,10,0,0,1-1.73-2.55,6.12,6.12,0,0,1,.92-6.12,6.73,6.73,0,0,1,5.56-2.41,5.09,5.09,0,0,0,2.8-1.23c.48-.32,1-.65,1.52-.95l.37-.2a9.88,9.88,0,0,1,4.62-1.5,4.65,4.65,0,0,1,3.52,1.85,3.83,3.83,0,0,1,.37.63c4.57-1.21,9.46-1.74,13,1.26A15.89,15.89,0,0,1,121,86.26a8.79,8.79,0,0,0,2.65,2.68l.17.09a6.52,6.52,0,0,1,2.95,2.41,7.44,7.44,0,0,1,5.59,3.31,6.7,6.7,0,0,1-.64,8,6.14,6.14,0,0,1-6,1.67,5.41,5.41,0,0,1,.35,1.14,5.29,5.29,0,0,1-1.06,4.2,7.44,7.44,0,0,1-5.12,2.84c-3.08.28-5.93-1.07-8.44-2.26s-4.65-2.09-6.86-1.73c-.35.06-.69.15-1,.24a8.44,8.44,0,0,1-2.54.37c-1.84-.05-3.81-1.38-3.78-3.45a3.84,3.84,0,0,1,2-3.09,13.34,13.34,0,0,1,4.12-1.53c.63-.16,1.22-.3,1.79-.49,1.37-.46,2.77-1.44,2.81-2.62a.92.92,0,0,0,0-.21,3.92,3.92,0,0,0-1.37.93,5,5,0,0,1-3.66,1.48A2.66,2.66,0,0,1,100.95,99a1.53,1.53,0,0,1-.15-.29c-.89-2.22.88-3.84,2.05-4.92.35-.32.72-.66,1-1a15.1,15.1,0,0,0-4.41-.17c0,.12.06.24.09.34l0,.12A9.76,9.76,0,0,1,97,102a19.17,19.17,0,0,1-4.47,3.49,5,5,0,0,1,1.76.64,3.54,3.54,0,0,1,1.56,2.3,4.53,4.53,0,0,1-.66,3.39A7.59,7.59,0,0,1,91,114.56a7.51,7.51,0,0,1-4.33.42,8.32,8.32,0,0,1-3.18-1.85,11.88,11.88,0,0,0-1.23-.92,2.21,2.21,0,0,0-1.7-.25c-.14.06-.16.1-.17.13a1.5,1.5,0,0,1-1.2,1.06,1.53,1.53,0,0,1-.5,0l-3.17,10.76-.24.82c-.28,1-1.05,4,.11,5.11a1.47,1.47,0,0,1,.93.05,1.5,1.5,0,0,1,.91,1.76,1,1,0,0,0,.59.16,6.37,6.37,0,0,0,1.29-.43,7.18,7.18,0,0,1,2.5-.66c2.62,0,4.53,2.13,5.35,4a20,20,0,0,1,.82,2.5,14.4,14.4,0,0,0,.86,2.49c.51,1,1.58,2.06,2.56,1.89a2.32,2.32,0,0,0,1.54-2,9,9,0,0,0-.58-3.81,4.46,4.46,0,0,1-.28-1.76c.17-2.4,2.57-3.23,4.16-3.77l.19-.07a2.41,2.41,0,0,0,1.13-.88l-.26-.11c-.21-.08-.41-.17-.6-.27-2.37-1.26-2.75-4.29-2.1-6.58a20,20,0,0,1,.81-2.18,10.79,10.79,0,0,0,.88-2.72c0-.06,0-.12-.12-.37a2.76,2.76,0,0,1,0-2.6,1.5,1.5,0,0,1,1.27-.82c1.18,0,2.29-1,3.47-2,.45-.39.91-.77,1.37-1.12a4.35,4.35,0,0,1,3.94-.38c4,1.15,10.22,6.1,12.43,9.71a4.76,4.76,0,0,0,.54-3,1.5,1.5,0,0,1,.37-1.23c1.88-2.06,5.19-1.65,7.18-.09a13.58,13.58,0,0,1,3.13,4l.56.93c.73,1.18,1.56,2.29,2.44,3.46.72,1,1.46,1.95,2.14,3a61.47,61.47,0,0,1,4.8,9.58l3.7,8.64q1,2.27,1.94,4.55l.12,0a1.5,1.5,0,0,1,1.62,1,12.9,12.9,0,0,1,.5,6,1.51,1.51,0,0,1-1.67,1.26,66.09,66.09,0,0,1-12.41-2.83,1.5,1.5,0,0,1-.9-.81c-.75-1.68-.35-3.43,0-5s.53-2.44.08-3c-.89-1.18-3.69,0-4.52.33-2.24,1-4.67,2.23-5.27,4.24a4.68,4.68,0,0,0,1.65,4.56,10.54,10.54,0,0,0,5.47,2.2,1.5,1.5,0,0,1,1.26,1.66,10.6,10.6,0,0,1-9.64,9.13,5.32,5.32,0,0,1-2.76-.46,6.36,6.36,0,0,1-2.38-2.48,3.92,3.92,0,0,0-1.23-1.43,1,1,0,0,0-.91.06,3.41,3.41,0,0,0-1.62,2.18,13.59,13.59,0,0,0-.21,2.84,15.22,15.22,0,0,1-.33,3.69,4.89,4.89,0,0,1-2.61,3.46,3.52,3.52,0,0,1-3-.14,3,3,0,0,1-1.18-1.12,5,5,0,0,0-3.08,2.92,5.84,5.84,0,0,0-.14,1.51,5.86,5.86,0,0,1-.8,3.39,8.1,8.1,0,0,1-.92,1.07,4.26,4.26,0,0,0-.67.79,4.17,4.17,0,0,0-.29,1.41c0,.39-.08.78-.16,1.16-.48,2.36-2.15,4-3.62,5.54a10.35,10.35,0,0,0-2.77,3.71,10,10,0,0,0-.18,3.6,18.92,18.92,0,0,1,0,3,20.44,20.44,0,0,1-1,4.33c-.7,2.2-1.31,4.1-.56,5.73a1.5,1.5,0,0,1-1.35,2.13l-4.93,0h0a1.5,1.5,0,0,1-1.49-1.33c-.35-3.08-3.51-5.21-6.44-5.72a21.48,21.48,0,0,0-8.77.8,11.52,11.52,0,0,1-.56,6.17c-.21.64-.45,1.27-.69,1.89a17.29,17.29,0,0,0-1.26,4.41,4.73,4.73,0,0,0,1.28,3.92,1.5,1.5,0,0,1,2,.16,1.23,1.23,0,0,0,.55-.55,9.53,9.53,0,0,0,.29-1,5.54,5.54,0,0,1,1.69-3.22,3.67,3.67,0,0,1,3.16-.68,5.63,5.63,0,0,1,3.65,3,13.36,13.36,0,0,1,.95,3.19,12.75,12.75,0,0,0,.6,2.25,6.44,6.44,0,0,1,.32,3.25,9.63,9.63,0,0,0-.06,1.21,2.79,2.79,0,0,0,.13,1,3.08,3.08,0,0,0,1.18.37c.33.07.67.13,1,.23,3.11.89,4.62,4,5.83,6.41l.12.25c2.3,4.61,4.91,7.41,8,8.56.48.18,1,.33,1.53.49a18.94,18.94,0,0,1,2.2.74,19.88,19.88,0,0,1,4.85,3.31c1.9,1.59,3.69,3.09,5.77,3.15a13.85,13.85,0,0,0,2.17-.21c1.85-.28,4.16-.62,5.89,1a6.72,6.72,0,0,1,1.71,3.54,8.4,8.4,0,0,0,.49,1.55,17.1,17.1,0,0,1,5.17.23,7.69,7.69,0,0,1,5.38,4c.15.33.26.65.37,1a4,4,0,0,0,.48,1.08,3.88,3.88,0,0,0,1.21.82l5.71,3c1.39.73,4,2.1,4.41,4.76a8,8,0,0,1,0,2.2c-.08.65-.15,1.33,0,1.54a2.74,2.74,0,0,0,1,.4,55.87,55.87,0,0,1,17.75,8.67l.28.21a8.58,8.58,0,0,0,2.61,1.5,10.8,10.8,0,0,0,2.12.23c1.78.08,4,.19,5.27,2.11a5,5,0,0,0,2.12,1.42,12.78,12.78,0,0,1,2,1.11c3.14,2.21,3.27,6.59,2.06,9.73h0a25.55,25.55,0,0,1-2.65,4.74,24.58,24.58,0,0,0-4.06,9.32c-.18.64-.36,1.29-.56,1.93-.86,2.85-2.05,6.1-4.41,8.58a9.86,9.86,0,0,1-8.67,3.16l-7.85,10.67a7.4,7.4,0,0,1-3,2.74c-2.19.9-4.14.16-5.71-.45a5.61,5.61,0,0,0-2.69-.61c-.22,2.33-1.74,4-3.09,5.53l-.68.77a12.15,12.15,0,0,1-3.61,2.81,13.1,13.1,0,0,1-5.69,1.44Zm-.37-3a1.79,1.79,0,0,0,.5,0,10.07,10.07,0,0,0,4.38-1.1,9.16,9.16,0,0,0,2.71-2.1l.72-.81c1.54-1.72,2.48-2.86,2.34-4.43a1.5,1.5,0,0,1,.74-1.43c2.25-1.31,4.34-.51,6,.13,1.49.57,2.46.9,3.49.47a5,5,0,0,0,1.74-1.74l8.45-11.48a1.5,1.5,0,0,1,1.69-.53c2.39.81,5.05-.47,6.62-2.11,1.92-2,3-4.86,3.71-7.37.19-.62.36-1.25.54-1.88a36.43,36.43,0,0,1,2.47-6.92,36.06,36.06,0,0,1,2-3.23,23,23,0,0,0,2.36-4.17c.82-2.15.75-5-1-6.2a10.5,10.5,0,0,0-1.57-.84,7.44,7.44,0,0,1-3.35-2.48c-.4-.61-1.37-.7-2.91-.77a13.07,13.07,0,0,1-2.74-.33,11.05,11.05,0,0,1-3.61-2l-.28-.21a52.87,52.87,0,0,0-16.79-8.21,4.77,4.77,0,0,1-2.41-1.27,4.62,4.62,0,0,1-.8-3.91,5.65,5.65,0,0,0,.06-1.38c-.17-1-1.47-1.85-2.85-2.58l-5.71-3a5.19,5.19,0,0,1-3.13-3.58c-.08-.24-.16-.48-.26-.7a4.71,4.71,0,0,0-3.32-2.32,17.11,17.11,0,0,0-5.11-.09,1.51,1.51,0,0,1-1.19-.44,7,7,0,0,1-1.6-3.45,4.39,4.39,0,0,0-.85-2.08c-.63-.59-1.7-.48-3.39-.22a14.91,14.91,0,0,1-2.69.24c-3.13-.08-5.41-2-7.62-3.85a17.45,17.45,0,0,0-4.1-2.85,16.49,16.49,0,0,0-1.86-.62c-.57-.17-1.16-.34-1.75-.56-3.8-1.43-6.94-4.71-9.6-10l-.13-.26c-1.05-2.13-2.14-4.33-4-4.86-.24-.07-.49-.12-.74-.17a4.5,4.5,0,0,1-3.06-1.6,4.63,4.63,0,0,1-.66-2.56,12.31,12.31,0,0,1,.07-1.59,3.74,3.74,0,0,0-.1-1.84,15.11,15.11,0,0,1-.77-2.79,11,11,0,0,0-.71-2.5,2.64,2.64,0,0,0-1.61-1.35.65.65,0,0,0-.62.09,3.35,3.35,0,0,0-.66,1.61,11.85,11.85,0,0,1-.41,1.37,4.07,4.07,0,0,1-3.28,2.52,2.72,2.72,0,0,1-1-.11,2.21,2.21,0,0,1-1.24.15,1.49,1.49,0,0,1-.33-.09c-2.93-1.23-4-4.68-3.73-7.36a19.83,19.83,0,0,1,1.45-5.19c.23-.59.45-1.18.65-1.77.78-2.36.82-4.24.11-5.55a1.5,1.5,0,0,1,.94-2.16c3.55-.93,7.57-2,11.65-1.26,3.53.62,7.5,3,8.64,7h1.77a14.39,14.39,0,0,1,1-5.78,18,18,0,0,0,.91-3.69,16.44,16.44,0,0,0,0-2.52A12.33,12.33,0,0,1,90,195.7a12.68,12.68,0,0,1,3.49-4.91c1.29-1.31,2.51-2.54,2.81-4,.06-.28.08-.58.11-.87a6.48,6.48,0,0,1,.64-2.54,6.57,6.57,0,0,1,1.15-1.46,5.64,5.64,0,0,0,.59-.66,3.31,3.31,0,0,0,.28-1.74,8.28,8.28,0,0,1,.27-2.33c1-3.3,4.62-5.29,6.62-5.15a2,2,0,0,1,1.93,1.55.54.54,0,0,0,.41,0,2.09,2.09,0,0,0,.92-1.44,12.82,12.82,0,0,0,.24-3,16.09,16.09,0,0,1,.28-3.48A6.37,6.37,0,0,1,113,161.5a4,4,0,0,1,3.51-.08,6.15,6.15,0,0,1,2.47,2.52,4.11,4.11,0,0,0,1.21,1.43,2.52,2.52,0,0,0,1.22.14,7.68,7.68,0,0,0,6.54-5.13,12.26,12.26,0,0,1-5.42-2.61,7.64,7.64,0,0,1-2.55-7.66c1-3.24,4.07-4.86,6.92-6.13,5-2.25,7.25-.59,8.15.6,1.32,1.77.83,3.86.44,5.53a8.15,8.15,0,0,0-.34,2.49,63.13,63.13,0,0,0,9.54,2.24c0-.33,0-.67,0-1a1.5,1.5,0,0,1-1.27-.92c-.91-2.18-1.84-4.36-2.77-6.53l-3.7-8.63a59.21,59.21,0,0,0-4.56-9.11c-.63-1-1.31-1.87-2-2.83-.88-1.17-1.79-2.38-2.58-3.67-.2-.32-.4-.65-.59-1a11.19,11.19,0,0,0-2.4-3.17,3,3,0,0,0-2.65-.56,7.8,7.8,0,0,1-1.83,5.21,1.48,1.48,0,0,1-1.18.53l-1.42,0a1.5,1.5,0,0,1-1.37-1c-1-2.56-7.19-8-11-9.06-.88-.25-1.26-.15-1.32-.11-.42.31-.82.66-1.23,1a11.74,11.74,0,0,1-3.7,2.42,3.19,3.19,0,0,1,.16,1.46A13.17,13.17,0,0,1,98,121.4a17.62,17.62,0,0,0-.7,1.85c-.33,1.17-.2,2.66.62,3.09l.33.14a4,4,0,0,1,1.43.87,2.73,2.73,0,0,1,.68,2.57,5,5,0,0,1-3.13,3.16l-.21.07c-.68.23-2.11.72-2.14,1.15a2.49,2.49,0,0,0,.15.63,11.63,11.63,0,0,1,.69,5.15,5.25,5.25,0,0,1-4,4.52c-2.58.46-4.77-1.43-5.79-3.52a16.87,16.87,0,0,1-1.05-3,17.46,17.46,0,0,0-.69-2.12c-.47-1.09-1.45-2.21-2.5-2.22a4.76,4.76,0,0,0-1.47.44,8.85,8.85,0,0,1-1.94.61,3.87,3.87,0,0,1-3.58-1.42,2.86,2.86,0,0,1-.34-.59h0c-2.56-1.34-3.24-4.48-1.95-8.87l.24-.82q2-6.62,3.89-13.22a1.5,1.5,0,0,1,2.61-.52l.35-.15a5.17,5.17,0,0,1,4.34.5,14.29,14.29,0,0,1,1.55,1.15,5.82,5.82,0,0,0,2,1.27,4.76,4.76,0,0,0,2.61-.35,5,5,0,0,0,2.57-1.58,1.54,1.54,0,0,0,.22-1.1.6.6,0,0,0-.22-.38,4.34,4.34,0,0,0-1.39-.33c-1.14-.16-3.06-.43-3.52-2.38a1.5,1.5,0,0,1,.74-1.66A23.41,23.41,0,0,0,94.73,100c1.33-1.45,2.53-3.8,1.93-6.05l0-.09A3.25,3.25,0,0,1,97,90.62a3.06,3.06,0,0,1,2-.92,18.06,18.06,0,0,1,7.25.64,1.5,1.5,0,0,1,1.06,1.31c.17,2-1.28,3.31-2.45,4.38-.3.27-.65.59-.91.88a3.21,3.21,0,0,0,.54-.4c2.73-2.55,4.52-1.78,5.34-1.1a3.28,3.28,0,0,1,1.09,2.68c-.07,2.78-2.56,4.6-4.86,5.36-.67.23-1.35.39-2,.56a10.94,10.94,0,0,0-3.23,1.15c-.45.28-.6.55-.6.63a1.26,1.26,0,0,0,.88.38,6.45,6.45,0,0,0,1.7-.28c.43-.11.86-.22,1.3-.29,3.06-.5,5.93.7,8.61,2,2.29,1.08,4.64,2.2,6.9,2a4.41,4.41,0,0,0,3-1.66,2.34,2.34,0,0,0,.51-1.83,6.26,6.26,0,0,0-1.76-2.64,8.36,8.36,0,0,1-2.5-4.25,1.5,1.5,0,0,1,1.26-1.72c2.09-.31,3.42,1.26,4.39,2.41a9.57,9.57,0,0,0,1.06,1.13,3,3,0,0,0,3.95-.35,3.68,3.68,0,0,0,.3-4.32,4.53,4.53,0,0,0-4.29-1.92,1.5,1.5,0,0,1-1.63-1.87,8.93,8.93,0,0,0-1.45-.86l-.18-.09a11.11,11.11,0,0,1-3.67-3.54,13.49,13.49,0,0,0-1.89-2.17c-2.92-2.45-7.66-1.48-11.92-.2a1.5,1.5,0,0,1-1.87-1.86.44.44,0,0,0-.11-.36,1.63,1.63,0,0,0-1.16-.62A7.3,7.3,0,0,0,98.52,84l-.38.2c-.41.22-.83.5-1.27.8a7.58,7.58,0,0,1-4.63,1.73A3.71,3.71,0,0,0,89.18,88a3.13,3.13,0,0,0-.49,3.08,7.54,7.54,0,0,0,1.25,1.76c.29.34.58.68.85,1,1.31,1.78,1.63,3.66.89,5.17a3.82,3.82,0,0,1-2.39,2,5.07,5.07,0,0,1-4-.49,10.18,10.18,0,0,1-3.52-4.37,4.85,4.85,0,0,1-.73-2.73,4.76,4.76,0,0,1,.84-2.1,3,3,0,0,0,.4-.78.52.52,0,0,0-.17-.42,1.62,1.62,0,0,0-1.19-.5,5.62,5.62,0,0,0-3,1.76c-1.57,1.4-3,3.37-2.25,4.68.08.15.19.3.3.45a6.07,6.07,0,0,1,.64,1.06,5,5,0,0,1-.48,4.51,12.42,12.42,0,0,1-7.86,5.7c-1.57.42-3.92-.15-7.07-1l-.44-.12a169.62,169.62,0,0,0-29.35,75.77,5.24,5.24,0,0,1,2.33,2.47,9.21,9.21,0,0,1,.36,1,3.93,3.93,0,0,0,.33.88,3.84,3.84,0,0,0,1.06.85l4.08,2.64A4.72,4.72,0,0,1,41.31,192a4.78,4.78,0,0,1,.36,2.75l0,.24c-.29,5,1.11,10.17,2.46,15.17l.14.51q.28,1,.64,2.06c2.36-.48,4.59,1.18,5.54,3.07A13,13,0,0,1,51.49,221l0,.37a6.77,6.77,0,0,0,.31,2,7.47,7.47,0,0,0,1.2,1.83l7.39,9.22a10.43,10.43,0,0,0,3.19,3,2.53,2.53,0,0,0,2.88-.24,3.58,3.58,0,0,0,.23-.3,4.54,4.54,0,0,1,.77-.89,3.18,3.18,0,0,1,2.65-.73,6.54,6.54,0,0,1,4.07,3.25c.44.76.85,1.55,1.27,2.34,1.47,2.8,2.86,5.45,5.28,6.75a17.17,17.17,0,0,0,2.24.92c1.93.7,4.11,1.49,5.25,3.62,1,2,.64,4.26.38,5.78l0,.21a48.67,48.67,0,0,0-.94,7.49,28.25,28.25,0,0,1-2.05,10.13c-.2.5-.41,1-.63,1.5a14.29,14.29,0,0,0-1.44,4.67c-.22,3.79,3,7.18,6,10.06l13.78,13.05a26.76,26.76,0,0,1,5.19,6.05c2.5,4.47,2.45,9.77,2.12,14.47,1.16,1.67.93,3.88.81,5.13a32.78,32.78,0,0,0-.19,5.55,34.2,34.2,0,0,1-.07,4.5c1.56.67,2.67,2.61,3.68,4.37.56,1,1.9,3.27,2.44,3.18a7.83,7.83,0,0,0,1.42-.48,6.16,6.16,0,0,1,3.74-.62,1.5,1.5,0,0,1,1.12,1.08q.77,2.91,1.56,5.82c.21.8.34,1,.39,1Zm51.85-48.14h0ZM105,174.14v0Zm39.13-23h0Z"/><path class="cls-7" d="M81.23,221c1.31,1.57,3.59,1.8,5.61,2.13a55.69,55.69,0,0,1,9.44,2.73c1.57.56,3.25,1.19,4.18,2.58.67,1,.86,2.29,1.65,3.21a5.85,5.85,0,0,0,3.49,1.6,39.81,39.81,0,0,0,15.24-.09c-1.47-2.19-4-3.39-6.6-4.09s-5.21-1-7.66-2c-3.69-1.48-6.73-4.39-10.53-5.56C92,220.26,84.45,216.73,81.23,221Z"/><path class="cls-8" d="M113,235.44a41.25,41.25,0,0,1-7.67-.71,7.24,7.24,0,0,1-4.35-2.1,7.53,7.53,0,0,1-1.19-2.17,6.81,6.81,0,0,0-.56-1.18c-.64-.95-1.93-1.47-3.43-2a54.66,54.66,0,0,0-9.19-2.66l-.55-.09c-2.07-.33-4.42-.7-6-2.56a1.5,1.5,0,0,1,0-1.86c3.42-4.53,10.13-2.2,14.56-.67.69.24,1.33.46,1.9.64a26.2,26.2,0,0,1,6.14,3.12,29,29,0,0,0,4.51,2.48,28.69,28.69,0,0,0,4.62,1.27c.94.21,1.92.42,2.88.68,3.54,1,6,2.51,7.44,4.7a1.5,1.5,0,0,1-.95,2.31A41.31,41.31,0,0,1,113,235.44ZM83.65,220.91a13.67,13.67,0,0,0,2.87.65l.57.09a57,57,0,0,1,9.7,2.79c1.55.55,3.68,1.3,4.92,3.16a9.26,9.26,0,0,1,.85,1.72,5.06,5.06,0,0,0,.69,1.35,4.65,4.65,0,0,0,2.63,1.1,38.61,38.61,0,0,0,11.81.38,13.43,13.43,0,0,0-3.84-1.63c-.89-.24-1.78-.44-2.73-.64a31.48,31.48,0,0,1-5.1-1.42,31.74,31.74,0,0,1-5-2.72,23.6,23.6,0,0,0-5.43-2.8c-.6-.18-1.27-.42-2-.67C90.39,221.16,86.16,219.69,83.65,220.91Z"/><path class="cls-7" d="M341.75,287c.8-1.83,1.92-3.5,2.75-5.32a8.84,8.84,0,0,0,.84-5.81,1.54,1.54,0,0,1-.56,2,6.66,6.66,0,0,1-2.1.8,9.08,9.08,0,0,0-3.81,2.28,2.36,2.36,0,0,0-.77,1.29,10.25,10.25,0,0,0,.31,1.85c.09,1.6-1.78,2.58-2.4,4.06-.23.55-.28,1.15-.46,1.71-.53,1.65-6.62,10.3-1.31,8.79C339.07,297.27,340.11,290.82,341.75,287Z"/><path class="cls-8" d="M333.18,300.32a2.46,2.46,0,0,1-2-.9c-1.36-1.71,0-4.51,2.1-8.29.37-.66.82-1.49.9-1.73s.1-.39.14-.58a7,7,0,0,1,.36-1.25,7.48,7.48,0,0,1,1.41-2c.46-.53.9-1,.88-1.36a3,3,0,0,0-.11-.47,4.05,4.05,0,0,1-.19-1.66,3.82,3.82,0,0,1,1.19-2.15,10.57,10.57,0,0,1,4.44-2.66l.5-.14a3.87,3.87,0,0,0,1.15-.43l.07-.07c0-.11,0-.21-.07-.31a1.5,1.5,0,0,1,2.7-1.21,2.56,2.56,0,0,1,.42,1.68,11.11,11.11,0,0,1-1.15,5.58c-.42.92-.9,1.79-1.37,2.63s-1,1.77-1.37,2.67-.65,1.69-1,2.66c-1.32,3.79-3,8.51-7.48,9.8A5.48,5.48,0,0,1,333.18,300.32ZM343.59,280h0l-.42.12a7.55,7.55,0,0,0-3.18,1.9,1.36,1.36,0,0,0-.35.44,3.51,3.51,0,0,0,.11.45,5.12,5.12,0,0,1,.21,1.11,4.86,4.86,0,0,1-1.62,3.52,5.17,5.17,0,0,0-.89,1.2,4.45,4.45,0,0,0-.2.72c-.06.29-.13.58-.22.86a15.55,15.55,0,0,1-1.13,2.26,27.56,27.56,0,0,0-2.21,4.67l.19,0c3-.86,4.32-4.6,5.47-7.9.36-1,.69-2,1.07-2.87h0c.45-1,1-2,1.5-2.93s.89-1.61,1.26-2.42Q343.4,280.51,343.59,280Z"/><path class="cls-6" d="M337.64,202.68c.67,2.33,1,4.86,2.59,6.74.57.7,1.29,1.27,1.83,2,1.75,2.29,1.48,5.47,1.14,8.33l.09-.72c.24.14.06.55-.21.59a1,1,0,0,1-.74-.32l-3.89-3.14a10,10,0,0,1-3.84-5.21l-4.55-10.79a20.42,20.42,0,0,1-1.72-5.55c3.38-.12,2.94-.08,5,2.25C335.14,198.88,336.79,199.74,337.64,202.68Z"/><path class="cls-6" d="M343.2,221.24H343a1.52,1.52,0,0,1-.54-.18,2.93,2.93,0,0,1-1.07-.58l-3.89-3.14a11.44,11.44,0,0,1-4.28-5.79l-4.55-10.79a22,22,0,0,1-1.83-6,1.5,1.5,0,0,1,1.44-1.67c3.28-.12,3.8,0,5.54,2l.64.73c.43.49.87.92,1.29,1.33a10.58,10.58,0,0,1,3.31,5.06h0c.14.49.27,1,.4,1.48a12,12,0,0,0,1.91,4.72c.23.28.5.54.75.8a12.35,12.35,0,0,1,1.11,1.23c1.8,2.35,1.85,5.28,1.57,8.19a1.79,1.79,0,0,1,0,.88,1.91,1.91,0,0,1-.25.65A1.5,1.5,0,0,1,343.2,221.24Zm-13-25.12a28.1,28.1,0,0,0,1.28,3.47L336,210.37a8.64,8.64,0,0,0,3.4,4.62l2.54,2a7.22,7.22,0,0,0-1.07-4.72,10,10,0,0,0-.85-.93c-.33-.33-.65-.66-.94-1a14.43,14.43,0,0,1-2.5-5.88c-.12-.47-.24-.94-.37-1.4h0a7.68,7.68,0,0,0-2.52-3.74c-.44-.43-.94-.92-1.44-1.48l-.67-.77C331,196.44,330.78,196.19,330.17,196.12Z"/><path class="cls-7" d="M371.42,198.84c-1.44.33-3.48,1.15-3.66,1.63a11.17,11.17,0,0,0-3.64-.94c.37,1.82,2,3.11,2.63,4.84,1.07,2.9-.84,6-2.84,8.38a59.76,59.76,0,0,1-12.05,10.84c-2.54,1.72-5.5,3.66-5.87,6.71.8,1.37,2.87.81,4.28.08l8.15-4.19c0,2,.07,4.09.11,6.15a3.07,3.07,0,0,1-1.66,3.2c-2.17,1.61-4.57,3.32-5.34,5.92-.33,1.09-.34,2.25-.58,3.36-.94,4.38-5.17,7.11-9,9.37-2.34,1.36-2.67,4.78-4.06,7.1-1.52,2.53-3.09,5.22-3.16,8.18-.05,2.61,1,5.35-.05,7.7s-.75,5.23-1.75,7.68a14.71,14.71,0,0,1-2.53,4.56c-1.4,1.52-3.37,2.36-5,3.66a22.5,22.5,0,0,0-4,4.57,6.19,6.19,0,0,0-1.2,2.32c-.34,1.78,1,3.62.53,5.38-.59,2.49-3.26,3.59-5.29,5.14-2.65,2-4.34,5.08-6.62,7.54a20.29,20.29,0,0,1-9.63,5.83,18.53,18.53,0,0,0-4.46,1.42c-1.94,1.12-3.42,3.32-5.66,3.42a4.42,4.42,0,0,1-3.83-2.48,11.24,11.24,0,0,1-1.06-4.64,4.06,4.06,0,0,0-.58-2.24,7.42,7.42,0,0,0-1.93-1.34c-2-1.4-2.4-4.27-2.18-6.75s.74-5.08-.25-7.36c-.44-1-1.16-1.89-1.67-2.88-1.87-3.61-.64-8,.83-11.8s3.23-7.83,2.27-11.79c-1.33-5.51-7.59-9.23-7.7-14.91-.08-4.06.91-8.08,1-12.16,0-1.21-.07-2.6-1-3.37a4,4,0,0,0-1.79-.66,27.57,27.57,0,0,0-13.85,1.07,29.7,29.7,0,0,1-3.88,1.25c-2,.38-4.27.13-6.07,1.16-5.91,3.43-13.49,1.64-19.43-1.74a12.07,12.07,0,0,1-2.82-2.11,28.07,28.07,0,0,1-2.52-3.65c-3.81-5.69-10.86-9.36-12.5-16-1.88-7.6,4.33-15.25,3.15-23-.64-4.2.91-9,3.36-12.43.13-.19.31-.39.53-.38a1,1,0,0,1,.41.23c.84.58,2,0,2.81-.63L226,186c1.45-1,1.49-2.7,2.21-4.33,1.29-3,4.55-4.51,6.55-7,1-1.3,2.07-2.86,3-4.22a4,4,0,0,0,.9-2.13c0-1.69-2-2.61-3.66-2.87s-3.64-.46-4.51-1.92A5.12,5.12,0,0,1,230,161l-.16-10.7c0-1.18.05-2.54,1-3.23a3.69,3.69,0,0,1,2.34-.43l8,.32c3,.12,6.76-.23,7.84-3,.94-2.47-.94-5-2.69-7l-4.53-5.11,4.75-.08c.9-1.32,2.27-1.73,3.51-2.73s2.23-2.77,1.44-4.15c-.7-1.21-2.43-1.42-3.74-.93a15.09,15.09,0,0,0-3.45,2.34,11.44,11.44,0,0,1-6.43,2.36c-1-1.13-.47-2.91.47-4s2.28-1.9,3.25-3,1.52-2.86.62-4a2.27,2.27,0,0,0-3.68.44c-.28.66-.24,1.46-.66,2a2.74,2.74,0,0,1-.91.72,23.76,23.76,0,0,1-9.36,3.05c.36-2.09-.19-4.23-.13-6.35s1-4.52,3.1-5c1.09-.28,2.27,0,3.36-.25,2.85-.73,3.22-4.51,4.5-7.16,1.14-2.39,4.37-4.19,6.43-2.51,1.61,1.32,1.42,3.8,1.16,5.87a3,3,0,0,0,.15,1.76,3.22,3.22,0,0,0,1.29,1.14,45.38,45.38,0,0,1,9.48,7.66c.88.92,1.76,2.09,1.52,3.34,1.31-2.7,5.61-2,7.77-4.11,1.18-1.16,1.48-2.93,1.7-4.58.35-2.48.69-5,1-7.44,1.92.4,3.12,2.25,4.52,3.64s3.83,2.37,5.19.95a15,15,0,0,0,.91-4.65,5.06,5.06,0,0,0-2-4.13c-1.52-1-3.55-.77-5.3-.25s-3.48,1.3-5.31,1.23-3.8-1.31-3.84-3.15c-.07-2.8-2-6-.66-8.42a7.11,7.11,0,0,1,2.09-2.11,44.93,44.93,0,0,1,9.88-6.24A30.16,30.16,0,0,0,279,81c2.62-1.64,4.24-4.54,6.82-6.25s5.88-2,8.95-2.61c1.59-.3,3.1-1,4.68-1.37,1.92-.44,4.06-.7,5.73.35A12.06,12.06,0,0,1,307.79,74c1.2,1.47,4.24,2.16,6.89,2.68A171.06,171.06,0,0,1,371.42,198.84Z"/><path class="cls-8" d="M289,330.21a5.93,5.93,0,0,1-5-3.26,12.66,12.66,0,0,1-1.24-5.26,3.26,3.26,0,0,0-.28-1.43,3,3,0,0,0-.8-.54c-.26-.15-.53-.3-.78-.46-2.18-1.5-3.16-4.31-2.84-8.12,0-.44.08-.9.13-1.35.2-1.94.39-3.76-.26-5.28a11,11,0,0,0-.81-1.41c-.28-.44-.57-.89-.82-1.39-2.17-4.2-.73-9.17.77-13l.25-.63c1.36-3.43,2.76-7,2-10.27-.53-2.19-2-4.12-3.54-6.17-2-2.69-4.13-5.47-4.21-9.07a47.4,47.4,0,0,1,.49-6.69,51.26,51.26,0,0,0,.47-5.52c0-.83,0-1.84-.46-2.19a3,3,0,0,0-1.11-.35,26,26,0,0,0-13.09,1l-1,.35a20.56,20.56,0,0,1-3.12,1,21.26,21.26,0,0,1-2.22.26,8.26,8.26,0,0,0-3.39.73c-8,4.63-17.29.33-20.92-1.74A13.59,13.59,0,0,1,224,247a17.2,17.2,0,0,1-2-2.76c-.23-.37-.45-.73-.69-1.08a37.71,37.71,0,0,0-5.15-5.72c-3.17-3.08-6.45-6.26-7.56-10.76s.22-8.61,1.48-12.73c1.11-3.61,2.15-7,1.64-10.38-.65-4.26.73-9.44,3.61-13.52a2,2,0,0,1,1.83-1h.12a2.14,2.14,0,0,1,1,.45,2.79,2.79,0,0,0,1.12-.58l5.68-4.08a3.65,3.65,0,0,0,1.13-2.1,15.23,15.23,0,0,1,.58-1.62,13.92,13.92,0,0,1,4.15-4.86,18.93,18.93,0,0,0,2.6-2.51c.82-1,1.66-2.26,2.47-3.44l.48-.7a3.18,3.18,0,0,0,.63-1.28c0-.56-1.07-1.18-2.4-1.39l-.36-.05c-1.71-.26-4-.62-5.21-2.58a6.44,6.44,0,0,1-.7-3.25l-.16-10.71c0-1.07,0-3.28,1.64-4.47a5,5,0,0,1,3.27-.71l8,.32c3.65.14,5.8-.56,6.38-2.08.51-1.34-.23-3-2.41-5.46l-4.11-4.64-.42-.47a1.5,1.5,0,0,1,1.09-2.5l4-.07a9.15,9.15,0,0,1,2.1-1.61,11.37,11.37,0,0,0,1.2-.81c.78-.63,1.4-1.67,1.08-2.23s-1.15-.55-1.9-.27a8.73,8.73,0,0,0-2.2,1.45c-.29.24-.59.47-.89.7a13,13,0,0,1-7.28,2.66,1.47,1.47,0,0,1-1.18-.53c-1.51-1.77-.9-4.35.47-6a13.38,13.38,0,0,1,1.86-1.75,11.89,11.89,0,0,0,1.41-1.29c.57-.65.93-1.67.56-2.15a.82.82,0,0,0-1.12.14,3.72,3.72,0,0,0-.14.56,4.28,4.28,0,0,1-.68,1.75,4.1,4.1,0,0,1-1.39,1.14,25.31,25.31,0,0,1-9.94,3.23,1.5,1.5,0,0,1-1.64-1.75,13.57,13.57,0,0,0,0-3.4,23.48,23.48,0,0,1-.13-2.74c.07-2.69,1.4-5.73,4.24-6.45a7.57,7.57,0,0,1,2.06-.17,5.06,5.06,0,0,0,1.28-.08c1.23-.31,1.79-1.68,2.56-3.9a23.89,23.89,0,0,1,1-2.45,7.3,7.3,0,0,1,4.77-3.89,4.55,4.55,0,0,1,4,.86c2.38,1.94,1.94,5.38,1.7,7.22a2.14,2.14,0,0,0,0,.88,2.71,2.71,0,0,0,.71.53,46.83,46.83,0,0,1,9.82,7.93,9.43,9.43,0,0,1,1.22,1.53,13.45,13.45,0,0,1,2.89-1,7.23,7.23,0,0,0,3-1.31c.81-.79,1.06-2.2,1.26-3.7l1-7.45a1.5,1.5,0,0,1,1.79-1.26c2,.41,3.25,1.84,4.39,3.1.29.32.58.65.88.95a3.88,3.88,0,0,0,2.42,1.21h0a1,1,0,0,0,.4-.08,12.39,12.39,0,0,0,.71-3.74,3.66,3.66,0,0,0-1.33-2.91c-.87-.58-2.23-.6-4-.06l-1.19.38a13,13,0,0,1-4.59.91c-2.49-.07-5.23-1.85-5.29-4.61a13.58,13.58,0,0,0-.52-2.81c-.51-2-1.09-4.29,0-6.37a8.42,8.42,0,0,1,2.5-2.59,46.57,46.57,0,0,1,10.21-6.43l1.35-.52a16.77,16.77,0,0,0,2.91-1.31,16.57,16.57,0,0,0,3.19-2.93,20.08,20.08,0,0,1,3.58-3.3c2.42-1.59,5.2-2.07,7.88-2.54l1.61-.29a17.12,17.12,0,0,0,2.35-.68,23.05,23.05,0,0,1,2.28-.68c2-.47,4.67-.83,6.86.54a9.64,9.64,0,0,1,2.45,2.47c.18.23.35.46.54.69,1,1.17,4.51,1.87,6,2.16a1.51,1.51,0,0,1,.72.36,171.45,171.45,0,0,1,57.23,123.26,1.5,1.5,0,0,1-1.17,1.51,11,11,0,0,0-2.78,1,1.5,1.5,0,0,1-1.83.49l-.13-.06a9.71,9.71,0,0,1,1.14,2.07c1.05,2.87,0,6.18-3.1,9.87a61.19,61.19,0,0,1-12.36,11.11l-.15.1c-2.06,1.39-4.18,2.82-4.86,4.71a4.8,4.8,0,0,0,1.91-.59l2.3-1.18,5.84-3a1.5,1.5,0,0,1,2.19,1.31l.11,6.15a5.45,5.45,0,0,1-.29,2.18,5.51,5.51,0,0,1-2,2.24l-.21.16c-2,1.45-4,3-4.59,5a10.71,10.71,0,0,0-.31,1.7c-.06.5-.13,1-.25,1.55-1.05,4.9-5.58,7.91-9.74,10.35-1.07.62-1.63,2.1-2.22,3.66a18,18,0,0,1-1.31,2.92c-1.35,2.25-2.89,4.81-2.94,7.44a17.06,17.06,0,0,0,.21,2.5,10.21,10.21,0,0,1-.4,5.8,12.44,12.44,0,0,0-.81,3.54,17.05,17.05,0,0,1-3.73,9.09A15.75,15.75,0,0,1,328.2,293a21.52,21.52,0,0,0-1.89,1.3,21.28,21.28,0,0,0-3.68,4.28,3.18,3.18,0,0,0-.69,3.7,7,7,0,0,1,.25,3.48c-.58,2.46-2.6,3.79-4.38,5-.5.33-1,.66-1.46,1a23,23,0,0,0-3.94,4.33c-.78,1-1.59,2.06-2.49,3a21.92,21.92,0,0,1-10.34,6.26l-1.17.29a11.16,11.16,0,0,0-2.93,1,12.38,12.38,0,0,0-1.7,1.28c-1.25,1.05-2.67,2.25-4.64,2.33Zm-22.71-85.82a28.8,28.8,0,0,1,5.14.46,5.3,5.3,0,0,1,2.46,1c1.61,1.32,1.59,3.51,1.58,4.56a54.34,54.34,0,0,1-.49,5.84,44.38,44.38,0,0,0-.47,6.27c.05,2.63,1.78,4.91,3.6,7.32,1.67,2.2,3.39,4.48,4.06,7.27,1,4.2-.63,8.38-2.09,12.07l-.24.62c-1.35,3.47-2.51,7.44-.9,10.56.19.38.43.75.68,1.15a13.17,13.17,0,0,1,1,1.82c1,2.24.72,4.66.5,6.79,0,.43-.09.86-.12,1.29-.13,1.54-.1,4.27,1.54,5.4.17.11.35.21.54.32a5.19,5.19,0,0,1,1.74,1.35,5.3,5.3,0,0,1,.88,3,10.08,10.08,0,0,0,.88,4,3,3,0,0,0,2.45,1.7c.94,0,1.82-.78,2.83-1.63A14.84,14.84,0,0,1,294,324a13.56,13.56,0,0,1,3.73-1.3l1.09-.27a18.9,18.9,0,0,0,8.92-5.39c.81-.88,1.54-1.82,2.31-2.83a25.62,25.62,0,0,1,4.49-4.88c.54-.41,1.09-.78,1.63-1.13,1.5-1,2.8-1.85,3.12-3.17a4.69,4.69,0,0,0-.24-2,7.41,7.41,0,0,1-.3-3.27,7.5,7.5,0,0,1,1.46-2.92,23.94,23.94,0,0,1,4.24-4.87,23.61,23.61,0,0,1,2.16-1.49,13.32,13.32,0,0,0,2.66-2,14.09,14.09,0,0,0,3-7.45,14.83,14.83,0,0,1,1.06-4.41c.54-1.15.36-2.54.15-4.15a19.7,19.7,0,0,1-.23-3c.07-3.43,1.9-6.47,3.37-8.92a15.67,15.67,0,0,0,1.08-2.44c.72-1.89,1.53-4,3.52-5.19,3.77-2.21,7.52-4.67,8.32-8.39.09-.43.15-.87.2-1.3a13.17,13.17,0,0,1,.41-2.18c.89-3,3.43-4.87,5.67-6.54l.21-.15a1.7,1.7,0,0,0,1.05-2l-.06-3.74-3.7,1.9-2.3,1.18c-2.79,1.43-5.19,1.18-6.27-.66a1.51,1.51,0,0,1-.19-.94c.45-3.67,3.73-5.89,6.37-7.67l.15-.1a58.19,58.19,0,0,0,11.75-10.57c2.36-2.8,3.23-5.12,2.58-6.89a8.62,8.62,0,0,0-1.05-1.78,8.82,8.82,0,0,1-1.64-3.28,1.5,1.5,0,0,1,.35-1.3,1.53,1.53,0,0,1,1.25-.5,12.64,12.64,0,0,1,3.25.71,10.58,10.58,0,0,1,2.39-1A168.44,168.44,0,0,0,314,78c-2.85-.57-5.9-1.35-7.35-3.12-.2-.25-.4-.5-.6-.76a7.2,7.2,0,0,0-1.66-1.76c-1.26-.79-3.12-.5-4.6-.16a20.57,20.57,0,0,0-2,.6,19.67,19.67,0,0,1-2.75.78l-1.66.3c-2.49.43-4.85.84-6.74,2.09a17.64,17.64,0,0,0-3,2.83,19,19,0,0,1-3.81,3.44,19.32,19.32,0,0,1-3.43,1.56c-.42.16-.85.32-1.26.49a43.58,43.58,0,0,0-9.54,6A6,6,0,0,0,263.86,92c-.57,1-.18,2.58.23,4.19a15.91,15.91,0,0,1,.62,3.48c0,.93,1.28,1.65,2.39,1.69a10.67,10.67,0,0,0,3.55-.76c.43-.14.86-.28,1.29-.41,2.71-.8,4.91-.65,6.55.44a6.52,6.52,0,0,1,2.66,5.33,16.31,16.31,0,0,1-1,5.14,1.5,1.5,0,0,1-.35.59,3.77,3.77,0,0,1-2.75,1.16,6.78,6.78,0,0,1-4.59-2.09c-.33-.33-.66-.69-1-1.06a16.88,16.88,0,0,0-1.28-1.32l-.74,5.33c-.21,1.53-.52,3.86-2.13,5.44a9.57,9.57,0,0,1-4.35,2.06c-1.67.46-2.72.8-3.12,1.63a1.5,1.5,0,0,1-2.82-.94c.09-.46-.29-1.13-1.13-2a43.8,43.8,0,0,0-9.17-7.41,4.57,4.57,0,0,1-1.85-1.74,4.43,4.43,0,0,1-.3-2.63c.24-1.89.33-3.74-.62-4.52a1.51,1.51,0,0,0-1.41-.26,4.38,4.38,0,0,0-2.72,2.26,20.93,20.93,0,0,0-.83,2.15c-.79,2.27-1.78,5.09-4.64,5.82a7.49,7.49,0,0,1-2.07.17,5.13,5.13,0,0,0-1.28.08c-1.26.32-1.95,2.06-2,3.62a20.85,20.85,0,0,0,.12,2.4c.06.71.12,1.43.13,2.16a22.33,22.33,0,0,0,7-2.59,1.74,1.74,0,0,0,.45-.3,2.51,2.51,0,0,0,.17-.6,5.83,5.83,0,0,1,.33-1.14,3.64,3.64,0,0,1,2.93-2.08,3.57,3.57,0,0,1,3.32,1.31c1.44,1.9.66,4.41-.69,5.94a14.28,14.28,0,0,1-1.76,1.63,11,11,0,0,0-1.47,1.36,2.78,2.78,0,0,0-.65,1.49,10.39,10.39,0,0,0,4.55-2l.8-.63a11.22,11.22,0,0,1,3-1.91c1.85-.7,4.44-.39,5.57,1.58,1.24,2.17-.06,4.67-1.79,6.06a14,14,0,0,1-1.52,1,5.11,5.11,0,0,0-1.7,1.38,1.5,1.5,0,0,1-1.21.66l-1.49,0,2.37,2.67c2,2.27,4.2,5.29,3,8.52-1.1,2.86-4.25,4.2-9.3,4l-8-.32a3,3,0,0,0-1.4.15c-.41.29-.4,1.49-.39,2l.16,10.69a4,4,0,0,0,.28,1.78c.44.74,1.78.95,3.08,1.15l.37.06c3,.47,4.94,2.18,4.93,4.36a5.33,5.33,0,0,1-1.15,3l-.49.71c-.84,1.22-1.7,2.48-2.59,3.6a21.41,21.41,0,0,1-3,2.93,11.54,11.54,0,0,0-3.36,3.78,12.68,12.68,0,0,0-.46,1.31,6.3,6.3,0,0,1-2.24,3.64l-5.67,4.08c-1.44,1-2.71,1.38-3.8,1a16.24,16.24,0,0,0-2.7,10.75c.62,4-.58,7.94-1.73,11.71s-2.32,7.57-1.44,11.13,3.73,6.42,6.73,9.33a39.85,39.85,0,0,1,5.55,6.21c.26.38.5.78.75,1.17a14.69,14.69,0,0,0,1.63,2.29,10.46,10.46,0,0,0,2.47,1.83c6.62,3.76,13.32,4.41,17.93,1.74a10.74,10.74,0,0,1,4.65-1.12,18.71,18.71,0,0,0,1.9-.22,18,18,0,0,0,2.65-.82l1-.37A29,29,0,0,1,266.26,244.38ZM369.16,201h0Z"/><path class="cls-6" d="M298.54,87.15a2.19,2.19,0,0,0-3.38,1.17c-.16.79.14,1.64-.11,2.41-.39,1.2-1.85,1.59-3.06,1.92a21.3,21.3,0,0,0-4.12,1.56c-1.24.62-2.58,2-1.8,3.17.51.74,1.58.75,2.44,1,1.79.58,2.76,2.47,3.55,4.19-1.79.69-2.88,2.47-3.83,4.14a7.74,7.74,0,0,0-.74,1.55c-.21.68-.23,1.42-.48,2.09-.73,1.92-3,2.62-5,3.07-.55,1.22.41,2.69,1.66,3.19a7.52,7.52,0,0,0,4,.07,17.78,17.78,0,0,0,5.29-1.44,6,6,0,0,0,3.36-4.11c-.1.28.3.52.57.4a1.17,1.17,0,0,0,.53-.68c.24-.55,0-1.53.36-2a1.49,1.49,0,0,1,1.64-.28,3,3,0,0,0,1.73.25,1.61,1.61,0,0,0,.93-1.75,4.7,4.7,0,0,0-.88-1.93L298,100.35a9.1,9.1,0,0,1-1.35-2.66,3.08,3.08,0,0,1,.54-2.82,7.47,7.47,0,0,0,.81-.83,3.21,3.21,0,0,0,.36-1,23.52,23.52,0,0,1,2.1-5A5.1,5.1,0,0,1,298.54,87.15Z"/><path class="cls-8" d="M285.41,118.42a6.29,6.29,0,0,1-2.32-.4,4.53,4.53,0,0,1-2.49-2.45,3.46,3.46,0,0,1,0-2.74,1.5,1.5,0,0,1,1-.85c1.7-.39,3.5-.94,4-2.14a5.24,5.24,0,0,0,.2-.87,7.22,7.22,0,0,1,1.12-3,12.49,12.49,0,0,1,3.17-4,4.11,4.11,0,0,0-2-2.15c-.19-.06-.39-.1-.59-.15a3.91,3.91,0,0,1-2.62-1.46,2.8,2.8,0,0,1-.4-2.31,5.25,5.25,0,0,1,2.76-3,22.84,22.84,0,0,1,4.41-1.67c.71-.19,1.88-.5,2-.93a2.71,2.71,0,0,0,0-.74,5.57,5.57,0,0,1,.05-1.5,3.68,3.68,0,0,1,5.82-2h0a3.51,3.51,0,0,0,1.35.59,1.5,1.5,0,0,1,.95,2.13,22.47,22.47,0,0,0-2,4.66l0,.1a4.23,4.23,0,0,1-.54,1.39,4.12,4.12,0,0,1-.73.81,2.86,2.86,0,0,0-.22.2,1.65,1.65,0,0,0-.19,1.44,8,8,0,0,0,1.15,2.2l3.13,4.77a6.09,6.09,0,0,1,1.12,2.57,3.07,3.07,0,0,1-1.95,3.36,3.72,3.72,0,0,1-2.39-.16L299,110a3.88,3.88,0,0,1-.25,1.44,2.6,2.6,0,0,1-1.33,1.47l-.18.07a8,8,0,0,1-3.64,3.59,19.16,19.16,0,0,1-5.73,1.59A15,15,0,0,1,285.41,118.42Zm-1.94-3.81a1.55,1.55,0,0,0,.72.61,6.4,6.4,0,0,0,3.17,0,16.61,16.61,0,0,0,4.85-1.3,4.58,4.58,0,0,0,2.54-2.91,1.85,1.85,0,0,1,.08-.36,1.5,1.5,0,0,1,1.17-1,3.05,3.05,0,0,1,.5-1.69,2.86,2.86,0,0,1,3.29-.84l.3.09.44.13a.39.39,0,0,0,0-.11,3.74,3.74,0,0,0-.65-1.29l-3.13-4.77a10.37,10.37,0,0,1-1.55-3.11,4.52,4.52,0,0,1,.88-4.2c.13-.14.28-.28.42-.41a.79.79,0,0,0,.37-.68l0-.11a19.44,19.44,0,0,1,1.47-3.82,4.71,4.71,0,0,1-.81-.55h0a.74.74,0,0,0-.94.32,3.26,3.26,0,0,0,0,.72,4.8,4.8,0,0,1-.15,1.86c-.65,2-2.73,2.54-4.11,2.9a19.78,19.78,0,0,0-3.83,1.45,2.9,2.9,0,0,0-1.17,1,6.17,6.17,0,0,0,.73.19c.3.07.59.13.87.22,2.35.76,3.53,3,4.45,5a1.5,1.5,0,0,1-.82,2c-1.27.49-2.14,1.87-3.07,3.49a6.58,6.58,0,0,0-.61,1.24,6.2,6.2,0,0,0-.16.76,7.61,7.61,0,0,1-.35,1.42C287.54,113.18,285.2,114.13,283.47,114.61Zm12.44-4.2Z"/><path class="cls-6" d="M329.28,144.12a1.68,1.68,0,0,1-.36,2.17,3.29,3.29,0,0,1-2.26.68,3.5,3.5,0,0,1-2.42-.84c-.33-.32-.56-.74-.88-1.08a3,3,0,0,0-3.45-.64c0,.52-.71.66-1.15.95a2.67,2.67,0,0,0-.89,1.66l-1,3.82c-.33,1.28-.42,3,.82,3.5a3,3,0,0,0,2.12-.36,18.54,18.54,0,0,1,6.12-1.43,3.33,3.33,0,0,1,1.44.15,4.28,4.28,0,0,1,1.3,1A12.67,12.67,0,0,0,339,157.16c-.14-1.23.44-2.62-.29-3.62a3.84,3.84,0,0,0-1-.85,11.59,11.59,0,0,1-4.38-5.63C332.39,144.53,331.37,145.21,329.28,144.12Z"/><path class="cls-8" d="M337.45,158.76a14.1,14.1,0,0,1-9.79-4l-.15-.15a2.82,2.82,0,0,0-.66-.55,2.37,2.37,0,0,0-.79,0,17,17,0,0,0-5.62,1.31,4.29,4.29,0,0,1-3.23.39c-1.77-.66-2.42-2.63-1.75-5.28l1-3.82a4.07,4.07,0,0,1,1.51-2.54,5.18,5.18,0,0,1,.57-.32l.05,0a1.5,1.5,0,0,1,.68-.7,4.48,4.48,0,0,1,5.23,1,7.34,7.34,0,0,1,.49.61,3.27,3.27,0,0,0,.33.41,2.08,2.08,0,0,0,1.39.41,2,2,0,0,0,1.24-.3A.39.39,0,0,0,328,145a1.5,1.5,0,0,1,1.94-2.17,7.63,7.63,0,0,0,1.4.54,4.4,4.4,0,0,1,3.34,3.21,10.07,10.07,0,0,0,3.81,4.9l.12.08a4.66,4.66,0,0,1,1.28,1.13,4.52,4.52,0,0,1,.6,3.28,5.55,5.55,0,0,0,0,1,1.5,1.5,0,0,1-1.3,1.66A13.6,13.6,0,0,1,337.45,158.76Zm-11-7.71a4.1,4.1,0,0,1,1.56.27,5,5,0,0,1,1.65,1.2l.13.13a11.25,11.25,0,0,0,7.73,3.11h0v-.09a2.68,2.68,0,0,0,0-1.25A2.62,2.62,0,0,0,337,154l-.14-.09a13.1,13.1,0,0,1-5-6.36c-.34-.94-.47-1.07-1.15-1.29a3.33,3.33,0,0,1-.82,1.13,4.68,4.68,0,0,1-3.18,1.06h-.1a4.92,4.92,0,0,1-3.44-1.27,6.05,6.05,0,0,1-.65-.78,4.32,4.32,0,0,0-.29-.37,1.5,1.5,0,0,0-1.27-.43,3.23,3.23,0,0,1-1.15.86l-.23.12a3.16,3.16,0,0,0-.27.78l-1,3.82a2.89,2.89,0,0,0-.07,1.77,8,8,0,0,0,.92-.35,20,20,0,0,1,6.66-1.56Zm1.67-6h0Z"/><path class="cls-6" d="M349,149.59a3.26,3.26,0,0,0-.55.61,1.49,1.49,0,0,0,0,1,24.35,24.35,0,0,0,1.67,4.74,14.93,14.93,0,0,1,1.7,4.42c.31,2.56-1.09,5.34.06,7.64a3.87,3.87,0,0,0,3.45,2.08c.71-2.16,1.4-4.61.33-6.62-.23-.43-.52-.81-.71-1.26-.51-1.22-.09-2.61-.19-3.92a18.83,18.83,0,0,0-1.18-3.92c-.51-1.72,0-2.68-.07-4.26C353.33,145.83,350.87,147.43,349,149.59Z"/><path class="cls-8" d="M355.22,171.6a5.38,5.38,0,0,1-4.72-2.91,8.74,8.74,0,0,1-.39-5.37,11,11,0,0,0,.18-2.76,10.25,10.25,0,0,0-1.16-3.13l-.41-.83a25.82,25.82,0,0,1-1.77-5,2.59,2.59,0,0,1,.79-2.87l.1-.1,1.13,1-1.12-1c1.95-2.2,3.67-3.05,5.12-2.53,1.91.69,2,3.18,2,4a12.19,12.19,0,0,1-.09,1.72A4.92,4.92,0,0,0,355,154c.12.42.28.82.43,1.22a10.38,10.38,0,0,1,.81,3,11.68,11.68,0,0,1,0,1.63,2.76,2.76,0,0,0,.42,2.38c.12.19.24.38.34.58,1.43,2.71.39,5.89-.23,7.79a1.5,1.5,0,0,1-1.4,1ZM353.28,162c0,.58-.13,1.15-.21,1.71a6.28,6.28,0,0,0,.1,3.6,2.32,2.32,0,0,0,1.07,1c.43-1.54.65-3,0-4.19-.07-.14-.16-.27-.24-.41a6.78,6.78,0,0,1-.53-1A4.53,4.53,0,0,1,353.28,162Zm-3.43-11.21v0a22.76,22.76,0,0,0,1.56,4.45l.38.79a14,14,0,0,1,1.38,3.63v-.1a9.17,9.17,0,0,0,0-1.22,7.83,7.83,0,0,0-.61-2.16c-.18-.48-.37-1-.51-1.45a7.78,7.78,0,0,1-.21-3.32,9.43,9.43,0,0,0,.08-1.32,5.12,5.12,0,0,0-.13-1.13,7.31,7.31,0,0,0-1.75,1.55Zm-.18.17Z"/><path class="cls-6" d="M354,188.11a.85.85,0,0,0-.78.14.83.83,0,0,0-.15.49,11.52,11.52,0,0,0,1,6.65c1.12,2,3.5,3.4,5.7,2.78,1-.74.51-2.39-.35-3.31s-2-1.76-2.14-3a6,6,0,0,0-.08-1.32A3.63,3.63,0,0,0,354,188.11Z"/><path class="cls-8" d="M358.7,199.83a7.13,7.13,0,0,1-5.91-3.7,13.06,13.06,0,0,1-1.22-7.52,2.26,2.26,0,0,1,.53-1.36,2.21,2.21,0,0,1,2.13-.62,5,5,0,0,1,4.42,3.43,3.79,3.79,0,0,1,.15,1.33,2.71,2.71,0,0,0,0,.32c0,.44.57,1,1.12,1.5.22.21.43.42.63.64a4.71,4.71,0,0,1,1.3,3.48,2.86,2.86,0,0,1-1.17,2.07,1.49,1.49,0,0,1-.47.23A5.52,5.52,0,0,1,358.7,199.83Zm-4.2-10.07a9,9,0,0,0,.9,4.89,4.11,4.11,0,0,0,3.44,2.17,2.11,2.11,0,0,0-.5-.94c-.17-.18-.35-.36-.53-.54a5.51,5.51,0,0,1-2-3.35,5.6,5.6,0,0,1,0-.68,3,3,0,0,0,0-.34A1.78,1.78,0,0,0,354.5,189.77Z"/><path class="cls-8" d="M311.05,176.59a6.36,6.36,0,0,1-2-.39,1.47,1.47,0,0,1-.26-.12L306,174.49a1.48,1.48,0,0,1-.4-.34,2.65,2.65,0,0,1-.3-2.55c.28-.89,1-3.27,3.21-3.71a4.26,4.26,0,0,1,2.71.47,5.88,5.88,0,0,1,3.12,3.1,3.84,3.84,0,0,1-1.71,4.79A3.62,3.62,0,0,1,311.05,176.59Zm-.93-3.19a1.94,1.94,0,0,0,1.21.14.92.92,0,0,0,.2-1,3.05,3.05,0,0,0-1.61-1.46,1.47,1.47,0,0,0-.81-.23c-.13,0-.47.23-.89,1.48Z"/><path class="cls-6" d="M250.25,164.39a25,25,0,0,0-4.62,2.45c-.59.4-1.24,1-1,1.71s.84.72,1.4.8a13.2,13.2,0,0,0,7-.94c2.06-.89,3.9-2.3,6.06-2.92a16.29,16.29,0,0,1,4.47-.45,110.13,110.13,0,0,1,15.87,1.12c-.5,2.33-.93,4.9.25,7,2,3.57,7.19,3.39,10.73,5.46,2.57,1.5,5,4.42,7.83,3.55l.82-6.37c3.88,0,6.86,3.23,9.44,6.12a6.72,6.72,0,0,0,3.05,2.29c1.25.33,2.84-.32,3-1.6a7.91,7.91,0,0,0,6.4-1.27,14.23,14.23,0,0,1,6.5,1.3c-.32-2.42,1.23-4.63,2.2-6.88s1.05-5.43-1.12-6.54a6.23,6.23,0,0,1-1.07,2.86,2.4,2.4,0,0,1-2.73.86,1.52,1.52,0,0,1-.36-2.5c-2.11-1.82-5.45-1.17-7.84-2.6-2.11-1.26-3-3.81-4.3-5.9s-3.92-4-6.08-2.79c1,.9,3.26,3.8,2.85,5.67-.33,1.49-4.4,2.59-4.4,2.59-2.37-1.34-3.21-2.55-4.76-4.66-.52-.7-1.22-.92-1.41-1.9l-.72-1a1.3,1.3,0,0,1-.19-1c.44-2.22-.54-3.85-1.89-5.84a26.61,26.61,0,0,0-5.55-5.45c-1.46-1.18-3.7-2.34-5-1l.53,2.5c2.64,1.13,4.41,3.85,5.93,6.38.8,1.34,2.14,2.82,2.22,4.37,0,1-1.43,1.41-1.67,2.33-.51,2-.29,4.71-3.22,4.64a3.87,3.87,0,0,1-2.25-.88c-1-.82-1.74-1.18-2.26-2.15a.74.74,0,0,1,.23-1c1-.66,2.69-1.65,2.59-3-.13-1.6-1.43-2.83-2.68-3.84-2.28-1.84-5.24-3.59-8-2.52a3.83,3.83,0,0,1-2.22,5.89,7.22,7.22,0,0,0-2.42-1.82c-1.14-.7-1-2.43-.35-3.61s1.59-2.28,1.63-3.61a2.84,2.84,0,0,0-.86-2.12,24.14,24.14,0,0,1-9.17,1.16A6.06,6.06,0,0,1,261,154c-1.3,1.24-2.87,2.17-4.17,3.41a23.55,23.55,0,0,0-2.68,3.26l-3.52,4.84C250.33,165.13,250.52,164.82,250.25,164.39Z"/><path class="cls-8" d="M312.25,185.78a4.06,4.06,0,0,1-1-.13,8,8,0,0,1-3.79-2.74c-1.95-2.18-4.31-4.82-7-5.47l-.63,4.91a1.5,1.5,0,0,1-1,1.24c-2.8.86-5.08-.84-7.09-2.35a21.37,21.37,0,0,0-1.93-1.34,18.57,18.57,0,0,0-4-1.53c-2.67-.8-5.69-1.71-7.27-4.48a9.64,9.64,0,0,1-.71-6.45,109.1,109.1,0,0,0-13.92-.89h-.18a14.92,14.92,0,0,0-4.06.39,16.24,16.24,0,0,0-3.33,1.55,27.8,27.8,0,0,1-2.55,1.31,14.62,14.62,0,0,1-7.83,1,2.9,2.9,0,0,1-2.6-1.78c-.21-.58-.48-2.08,1.57-3.46a26.59,26.59,0,0,1,4.89-2.6,1.5,1.5,0,0,1,1-.06l2.25-3.11a19,19,0,0,1,5.09-5.3,22.45,22.45,0,0,0,1.94-1.58c.57-.54,1.88-2,1.74-3.49a1.5,1.5,0,0,1,.42-1.19,1.54,1.54,0,0,1,1.17-.45,22.79,22.79,0,0,0,8.6-1.09,1.5,1.5,0,0,1,1.51.34,4.37,4.37,0,0,1,1.33,3.25,6.89,6.89,0,0,1-1.3,3.41c-.17.28-.35.56-.5.85a1.89,1.89,0,0,0-.22,1.61,8.75,8.75,0,0,1,2,1.38,2.49,2.49,0,0,0,.86-1.15,2.12,2.12,0,0,0-.19-2,1.5,1.5,0,0,1,.61-2.34c2.73-1.08,5.82-.18,9.46,2.75,1.5,1.21,3.07,2.74,3.24,4.89.15,1.86-1.42,3.09-2.57,3.88a8.36,8.36,0,0,0,.81.65l.64.48a2.43,2.43,0,0,0,1.37.56c.92,0,1.11-.15,1.47-2.21.08-.45.16-.89.26-1.3a3.68,3.68,0,0,1,1.31-1.82l.29-.26a7.29,7.29,0,0,0-1.26-2.36c-.26-.38-.51-.75-.73-1.11-1.45-2.41-3-4.83-5.23-5.77a1.5,1.5,0,0,1-.88-1.07l-.53-2.5a1.5,1.5,0,0,1,.38-1.34c1.63-1.72,4.26-1.41,7,.82a28.13,28.13,0,0,1,5.85,5.77c1.48,2.17,2.66,4.19,2.14,6.93l.64.9a1.49,1.49,0,0,1,.26.59c0,.14.06.18.38.48a5.58,5.58,0,0,1,.77.82l.16.22a12,12,0,0,0,3.59,3.71,7.87,7.87,0,0,0,2.75-1.37c.11-1-1.37-3.21-2.41-4.17a1.5,1.5,0,0,1,.31-2.42c2.91-1.57,6.33.54,8.07,3.32.35.57.68,1.17,1,1.77a9,9,0,0,0,2.79,3.64,9.28,9.28,0,0,0,3.14.9,9.62,9.62,0,0,1,4.92,1.85,1.5,1.5,0,0,1,0,2.25l0,0a1.12,1.12,0,0,0,.89-.46,5.06,5.06,0,0,0,.76-2.19,1.5,1.5,0,0,1,2.16-1.07c2.94,1.5,3.15,5.39,1.82,8.47-.24.55-.5,1.09-.77,1.64-.77,1.56-1.5,3-1.32,4.45a1.5,1.5,0,0,1-2.12,1.56,13.51,13.51,0,0,0-5.4-1.17,9.63,9.63,0,0,1-6,1.46,3.55,3.55,0,0,1-.88.82A4.33,4.33,0,0,1,312.25,185.78Zm-13.09-11.49c4.58,0,8,3.82,10.5,6.62a5.54,5.54,0,0,0,2.32,1.84,1.31,1.31,0,0,0,1-.16c.06,0,.17-.12.18-.21a1.5,1.5,0,0,1,1.88-1.23,6.43,6.43,0,0,0,5.14-1,1.5,1.5,0,0,1,.8-.27,15.75,15.75,0,0,1,5.17.67,16.35,16.35,0,0,1,1.5-3.84c.25-.5.49-1,.71-1.5a6.52,6.52,0,0,0,.53-2.38l-.18.23a3.9,3.9,0,0,1-4.53,1.28,3.16,3.16,0,0,1-1.72-3.31,12.69,12.69,0,0,0-2.46-.58,11.8,11.8,0,0,1-4.17-1.28c-1.92-1.15-3-3.08-3.89-4.79-.29-.54-.59-1.09-.91-1.61a6.57,6.57,0,0,0-1.42-1.6,5.85,5.85,0,0,1,.92,4c-.46,2.07-3.62,3.21-5.47,3.72a1.51,1.51,0,0,1-1.13-.14,14.32,14.32,0,0,1-5.07-4.87l-.16-.22a3,3,0,0,0-.38-.39,3.81,3.81,0,0,1-1.2-1.75l-.57-.79a2.77,2.77,0,0,1-.43-2.17c.3-1.51-.24-2.62-1.66-4.7a25.46,25.46,0,0,0-5.25-5.13,5.8,5.8,0,0,0-2.34-1.23l.12.57c2.6,1.41,4.34,4,5.9,6.63.19.31.41.63.63,1a8.22,8.22,0,0,1,1.8,4.11,3.09,3.09,0,0,1-1.33,2.46,3.3,3.3,0,0,0-.41.4c-.05.25-.12.62-.18,1-.29,1.67-.83,4.82-4.5,4.69a5.33,5.33,0,0,1-3.14-1.2l-.58-.44a6.31,6.31,0,0,1-2.08-2.19,2.23,2.23,0,0,1,.69-2.89l.36-.25c.38-.25,1.52-1,1.58-1.39-.08-1-1.12-2-2.13-2.78a10,10,0,0,0-4.9-2.49,5.48,5.48,0,0,1-.29,2.85,5.08,5.08,0,0,1-3.81,3.31,1.49,1.49,0,0,1-1.38-.5,5.74,5.74,0,0,0-1.91-1.44l-.16-.08c-1.88-1.16-1.87-3.75-.89-5.59.18-.35.39-.69.6-1a4.53,4.53,0,0,0,.86-1.94,1.25,1.25,0,0,0,0-.3,25.74,25.74,0,0,1-7.12.95,8.32,8.32,0,0,1-2.56,4.25,25.15,25.15,0,0,1-2.19,1.8,22.23,22.23,0,0,0-2,1.61,22.46,22.46,0,0,0-2.5,3.06l-3.52,4.84a1.43,1.43,0,0,1-1.27.62,1.5,1.5,0,0,1-1.18-.64,23.44,23.44,0,0,0-2.66,1.5,11.81,11.81,0,0,0,5.76-.89,25.2,25.2,0,0,0,2.27-1.17,18.8,18.8,0,0,1,4-1.81,17.64,17.64,0,0,1,4.88-.51,111.46,111.46,0,0,1,16.09,1.14,1.5,1.5,0,0,1,1.25,1.8c-.45,2.12-.82,4.33.09,5.92s3.08,2.36,5.52,3.09a21.06,21.06,0,0,1,4.67,1.81,24,24,0,0,1,2.21,1.53c1.46,1.09,2.53,1.84,3.52,2l.67-5.2a1.5,1.5,0,0,1,1.47-1.31Z"/><path class="cls-9" d="M147.22,280.09a11.69,11.69,0,1,0-17.82,0h0l1.4,2,7.41,11a.11.11,0,0,0,.18,0l7.29-10.92,1.55-2.09Z"/><path class="cls-9" d="M90.14,172.42a11.69,11.69,0,1,0-17.82,0h0l1.4,2,7.41,11a.11.11,0,0,0,.18,0L88.6,174.5l1.55-2.09Z"/><path class="cls-9" d="M325.62,235.34a11.69,11.69,0,1,0-17.82,0h0l1.4,2,7.41,11a.11.11,0,0,0,.18,0l7.29-10.92,1.55-2.09Z"/><path class="cls-9" d="M348,120a11.69,11.69,0,1,0-17.82,0h0l1.4,2L339,133a.11.11,0,0,0,.18,0l7.29-10.92L348,120Z"/><path class="cls-9" d="M169.47,45.09a11.69,11.69,0,1,0-17.82,0h0l1.4,2,7.41,11a.11.11,0,0,0,.18,0l7.29-10.92,1.55-2.09Z"/><path class="cls-10" d="M343.79,112.31a2.35,2.35,0,0,0,.58-1.42c0-2.94-4.32-4.24-7.12-3.14a5.39,5.39,0,0,0-2.89,2.64l-.18.4a5.16,5.16,0,0,0,0,3.88c.91,2.2,7,.39,9.26-2Z"/><path class="cls-10" d="M143,272.51a2.35,2.35,0,0,0,.58-1.42c0-2.94-4.32-4.24-7.12-3.14a5.39,5.39,0,0,0-2.89,2.64l-.18.4a5.16,5.16,0,0,0,0,3.88c.91,2.2,7,.39,9.26-2Z"/><path class="cls-10" d="M85.93,164.84a2.35,2.35,0,0,0,.58-1.42c0-2.94-4.32-4.24-7.12-3.14a5.39,5.39,0,0,0-2.89,2.64l-.18.4a5.16,5.16,0,0,0,0,3.88c.91,2.2,7,.39,9.26-2Z"/><path class="cls-10" d="M165.25,37.51a2.35,2.35,0,0,0,.58-1.42c0-2.94-4.32-4.24-7.12-3.14a5.39,5.39,0,0,0-2.89,2.64l-.18.4a5.16,5.16,0,0,0,0,3.88c.91,2.2,7,.39,9.26-2Z"/><path class="cls-10" d="M321.41,228.4A2.35,2.35,0,0,0,322,227c0-2.94-4.32-4.24-7.12-3.14a5.39,5.39,0,0,0-2.89,2.64l-.18.4a5.16,5.16,0,0,0,0,3.88c.91,2.2,7,.39,9.26-2Z"/><path class="cls-11" d="M277.53,150.72h0a.5.5,0,0,1-.47-.53q.05-1,.07-2a.5.5,0,0,1,1,0q0,1-.07,2A.5.5,0,0,1,277.53,150.72Z"/><path class="cls-11" d="M277.46,144.73a.5.5,0,0,1-.5-.46c-.1-1.3-.25-2.62-.46-3.93a.5.5,0,1,1,1-.16c.21,1.33.37,2.68.47,4a.5.5,0,0,1-.46.54Zm-1.25-7.89a.5.5,0,0,1-.49-.38c-.3-1.27-.66-2.55-1.06-3.81a.5.5,0,1,1,1-.3c.41,1.29.77,2.59,1.08,3.88a.5.5,0,0,1-.37.6Zm-2.41-7.62a.5.5,0,0,1-.46-.32c-.48-1.21-1-2.44-1.57-3.64a.5.5,0,1,1,.91-.42c.57,1.23,1.11,2.47,1.59,3.7a.5.5,0,0,1-.28.65A.49.49,0,0,1,273.8,129.22ZM270.42,122a.5.5,0,0,1-.44-.26c-.62-1.15-1.29-2.31-2-3.44a.5.5,0,1,1,.85-.52c.7,1.15,1.38,2.32,2,3.49a.5.5,0,0,1-.2.68A.49.49,0,0,1,270.42,122Zm-4.17-6.82a.5.5,0,0,1-.41-.22c-.74-1.08-1.52-2.17-2.32-3.23a.5.5,0,1,1,.8-.6c.81,1.08,1.6,2.18,2.35,3.27a.5.5,0,0,1-.41.78Zm-4.81-6.39a.5.5,0,0,1-.39-.18c-.83-1-1.7-2-2.59-3a.5.5,0,0,1,.74-.67c.9,1,1.78,2,2.62,3a.5.5,0,0,1-.39.82Zm-5.34-6a.5.5,0,0,1-.36-.15c-.92-.95-1.87-1.89-2.82-2.81a.5.5,0,0,1,.69-.72c1,.92,1.92,1.88,2.85,2.84a.5.5,0,0,1-.36.85Zm-5.77-5.54a.5.5,0,0,1-.33-.13c-1-.87-2-1.75-3-2.6a.5.5,0,0,1,.64-.77c1,.86,2.06,1.74,3,2.63a.5.5,0,0,1-.33.87Zm-6.15-5.13a.5.5,0,0,1-.31-.11c-1.05-.82-2.12-1.63-3.18-2.4a.5.5,0,1,1,.59-.81c1.07.78,2.15,1.59,3.21,2.42a.5.5,0,0,1-.31.89Zm-6.46-4.71a.5.5,0,0,1-.28-.09q-1.64-1.12-3.32-2.19a.5.5,0,0,1,.54-.84q1.69,1.08,3.35,2.21a.5.5,0,0,1-.28.91ZM231,83.12a.5.5,0,0,1-.26-.07q-1.71-1-3.46-2a.5.5,0,0,1,.48-.87q1.76,1,3.48,2a.5.5,0,0,1-.26.93Zm-7-3.88a.49.49,0,0,1-.23-.06q-1.78-.91-3.58-1.77a.5.5,0,1,1,.43-.9q1.81.87,3.6,1.79a.5.5,0,0,1-.23.94Zm-7.24-3.45a.51.51,0,0,1-.2,0q-1.83-.8-3.68-1.54a.5.5,0,1,1,.37-.93q1.86.75,3.71,1.56a.5.5,0,0,1-.2,1Zm-7.43-3a.5.5,0,0,1-.17,0c-1.25-.46-2.52-.9-3.77-1.3a.5.5,0,1,1,.31-1c1.25.41,2.53.85,3.8,1.31a.5.5,0,0,1-.17,1Zm-7.61-2.49-.14,0c-1.28-.37-2.57-.72-3.85-1a.5.5,0,0,1,.24-1c1.29.32,2.59.67,3.88,1a.5.5,0,0,1-.14,1Zm-7.76-1.94h-.1c-1.3-.27-2.61-.52-3.91-.74a.5.5,0,1,1,.17-1c1.31.22,2.64.47,4,.75a.5.5,0,0,1-.1,1ZM186.06,67H186c-1.32-.17-2.66-.31-4-.41a.5.5,0,1,1,.08-1c1.32.11,2.66.25,4,.42a.5.5,0,0,1-.06,1Zm-8-.65h0q-2-.07-4,0h0a.5.5,0,0,1,0-1q2,0,4,0a.5.5,0,0,1,0,1Z"/><path class="cls-11" d="M168.09,66.7a.5.5,0,0,1,0-1l2-.17a.49.49,0,0,1,.53.46.5.5,0,0,1-.46.53q-1,.07-2,.17Z"/><path class="cls-9" d="M284.65,141.56a11.07,11.07,0,1,0-16.88,0h0l1.33,1.9,7,10.4a.1.1,0,0,0,.17,0l6.91-10.35,1.47-2Z"/><path class="cls-10" d="M280.66,135a2.22,2.22,0,0,0,.55-1.34c0-2.78-4.09-4-6.75-3a5.11,5.11,0,0,0-2.74,2.5l-.17.38a4.89,4.89,0,0,0,0,3.68c.86,2.08,6.59.37,8.78-1.89Z"/><path class="cls-11" d="M281.15,152.26a.5.5,0,0,1-.43-.75q.51-.89,1-1.74a.5.5,0,0,1,.86.51q-.5.84-1,1.72A.5.5,0,0,1,281.15,152.26Z"/><path class="cls-11" d="M284.46,146.9a.5.5,0,0,1-.42-.78c.84-1.26,1.69-2.44,2.53-3.52a.5.5,0,0,1,.79.61c-.82,1.06-1.66,2.22-2.49,3.46A.5.5,0,0,1,284.46,146.9Zm5.29-6.77a.5.5,0,0,1-.36-.84,34.57,34.57,0,0,1,3.17-3,.5.5,0,0,1,.64.77,33.5,33.5,0,0,0-3.08,2.9A.5.5,0,0,1,289.75,140.13Zm6.64-5.42a.5.5,0,0,1-.25-.93,25.77,25.77,0,0,1,3.95-1.89.5.5,0,0,1,.35.94,24.75,24.75,0,0,0-3.79,1.82A.5.5,0,0,1,296.39,134.71Zm8-3a.5.5,0,0,1-.1-1,34.28,34.28,0,0,1,4.32-.59.5.5,0,0,1,.08,1,33.4,33.4,0,0,0-4.19.58Zm12.85-.45h0c-1.5-.13-2.93-.21-4.26-.24a.5.5,0,0,1-.49-.51.53.53,0,0,1,.51-.49c1.35,0,2.81.11,4.33.24a.5.5,0,0,1,0,1Z"/><path class="cls-11" d="M323.52,132h-.08l-2-.29a.5.5,0,0,1-.43-.56.5.5,0,0,1,.56-.43l2,.29a.5.5,0,0,1-.08,1Z"/><path class="cls-11" d="M289.2,165.25l-.16,0q-.92-.31-1.88-.59a.5.5,0,1,1,.27-1q1,.28,1.94.6a.5.5,0,0,1-.16,1Z"/><path class="cls-11" d="M311.77,206.53h0a.5.5,0,0,1-.48-.52q.06-1.41.06-2.81,0-.69,0-1.38a.5.5,0,0,1,.49-.51h0a.5.5,0,0,1,.5.49q0,.7,0,1.4,0,1.42-.06,2.85A.5.5,0,0,1,311.77,206.53Zm-.18-8.44a.5.5,0,0,1-.5-.46c-.12-1.41-.3-2.81-.52-4.15a.5.5,0,0,1,1-.16c.22,1.37.4,2.79.53,4.23a.5.5,0,0,1-.45.54Zm-1.37-8.32a.5.5,0,0,1-.49-.38c-.34-1.37-.74-2.72-1.19-4a.5.5,0,0,1,.94-.33c.46,1.31.87,2.69,1.22,4.09a.5.5,0,0,1-.37.61Zm-2.8-8a.5.5,0,0,1-.45-.29,35.41,35.41,0,0,0-2-3.65.5.5,0,0,1,.85-.53,36.66,36.66,0,0,1,2,3.75.5.5,0,0,1-.45.71Zm-4.48-7.13a.5.5,0,0,1-.39-.18,30.15,30.15,0,0,0-2.85-3,.5.5,0,1,1,.68-.74,30.77,30.77,0,0,1,2.95,3.11.5.5,0,0,1-.39.82Zm-6.2-5.69a.5.5,0,0,1-.28-.09,29.75,29.75,0,0,0-3.58-2.09.5.5,0,0,1,.45-.9,30.86,30.86,0,0,1,3.7,2.17.5.5,0,0,1-.28.91Z"/><path class="cls-11" d="M311.25,212.75h-.06a.5.5,0,0,1-.43-.56q.12-1,.22-2a.51.51,0,0,1,.55-.45.5.5,0,0,1,.45.55c-.07.67-.14,1.33-.22,2A.5.5,0,0,1,311.25,212.75Z"/><path class="cls-11" d="M156.55,288.79a.5.5,0,0,1-.5-.5q0-1,0-2a.5.5,0,0,1,.5-.49h0a.5.5,0,0,1,.49.51q0,1,0,2A.5.5,0,0,1,156.55,288.79Z"/><path class="cls-11" d="M156.72,282.87h0a.5.5,0,0,1-.47-.53c.07-1.3.17-2.62.3-3.92a.5.5,0,1,1,1,.09c-.12,1.29-.22,2.59-.29,3.89A.5.5,0,0,1,156.72,282.87Zm.73-7.8h-.06a.5.5,0,0,1-.43-.56c.17-1.29.36-2.6.58-3.89a.5.5,0,1,1,1,.16c-.21,1.28-.4,2.58-.57,3.85A.5.5,0,0,1,157.45,275.07Zm1.28-7.72h-.1a.5.5,0,0,1-.39-.59q.39-1.92.84-3.84a.5.5,0,0,1,1,.23q-.45,1.9-.83,3.81A.5.5,0,0,1,158.73,267.35Zm1.8-7.62-.13,0a.5.5,0,0,1-.35-.61q.51-1.89,1.09-3.78a.5.5,0,1,1,1,.29q-.57,1.86-1.08,3.75A.5.5,0,0,1,160.53,259.73Zm2.28-7.49-.16,0a.5.5,0,0,1-.31-.63q.63-1.86,1.32-3.7a.5.5,0,1,1,.94.35q-.68,1.83-1.31,3.67A.5.5,0,0,1,162.81,252.24Zm2.74-7.34a.49.49,0,0,1-.19,0,.5.5,0,0,1-.27-.65q.74-1.82,1.53-3.62a.5.5,0,0,1,.92.4q-.79,1.79-1.52,3.59A.5.5,0,0,1,165.55,244.91Zm3.16-7.17a.5.5,0,0,1-.45-.71q.84-1.77,1.74-3.53a.5.5,0,0,1,.89.46q-.89,1.74-1.73,3.5A.5.5,0,0,1,168.71,237.74Zm3.56-7a.49.49,0,0,1-.24-.06.5.5,0,0,1-.2-.68q.94-1.72,1.93-3.43a.5.5,0,1,1,.86.5q-1,1.69-1.92,3.4A.5.5,0,0,1,172.27,230.76Zm3.94-6.78a.5.5,0,0,1-.42-.76q1-1.67,2.11-3.32a.5.5,0,0,1,.84.55q-1.07,1.64-2.1,3.3A.5.5,0,0,1,176.21,224Zm4.3-6.56a.5.5,0,0,1-.41-.79q1.12-1.62,2.29-3.21a.5.5,0,0,1,.81.59q-1.16,1.58-2.27,3.19A.5.5,0,0,1,180.51,217.42Zm4.64-6.33a.5.5,0,0,1-.4-.81q1.2-1.56,2.45-3.09a.5.5,0,0,1,.78.63q-1.24,1.52-2.44,3.07A.5.5,0,0,1,185.15,211.09Zm5-6.09a.5.5,0,0,1-.38-.83q1.29-1.5,2.61-3a.5.5,0,1,1,.74.67q-1.31,1.45-2.59,2.94A.5.5,0,0,1,190.12,205Zm5.28-5.83a.5.5,0,0,1-.36-.84q1.36-1.43,2.76-2.82a.5.5,0,1,1,.71.71q-1.39,1.38-2.74,2.8A.5.5,0,0,1,195.39,199.17Zm5.58-5.55a.5.5,0,0,1-.34-.86q1.44-1.36,2.91-2.67a.5.5,0,1,1,.67.75q-1.46,1.31-2.89,2.65A.5.5,0,0,1,201,193.62Zm5.86-5.25a.5.5,0,0,1-.32-.88q1.51-1.28,3-2.52a.5.5,0,0,1,.63.78q-1.53,1.22-3,2.5A.5.5,0,0,1,206.83,188.37Zm6.14-4.93a.5.5,0,0,1-.3-.9q1.57-1.19,3.17-2.34a.5.5,0,0,1,.58.81q-1.59,1.14-3.15,2.32A.5.5,0,0,1,213,183.44Zm6.38-4.57a.5.5,0,0,1-.28-.92q1.64-1.1,3.3-2.15a.5.5,0,1,1,.53.85q-1.65,1-3.28,2.14A.5.5,0,0,1,219.36,178.87Zm6.63-4.19a.5.5,0,0,1-.25-.93q1.7-1,3.42-2a.5.5,0,1,1,.48.88q-1.71.94-3.39,1.94A.5.5,0,0,1,226,174.68Zm6.88-3.79a.5.5,0,0,1-.23-.95q1.76-.9,3.54-1.74a.5.5,0,1,1,.43.9q-1.76.83-3.51,1.72A.5.5,0,0,1,232.87,170.89Zm7.1-3.35a.5.5,0,0,1-.2-1q1.81-.78,3.64-1.5a.5.5,0,1,1,.37.93q-1.81.71-3.61,1.49A.49.49,0,0,1,240,167.54Zm7.31-2.87a.5.5,0,0,1-.17-1c1.24-.44,2.5-.86,3.74-1.25a.5.5,0,1,1,.3,1c-1.23.38-2.47.8-3.71,1.24A.49.49,0,0,1,247.27,164.67Zm7.49-2.35a.5.5,0,0,1-.13-1c1.28-.35,2.57-.68,3.83-1a.5.5,0,0,1,.23,1c-1.25.29-2.53.62-3.8,1Zm7.66-1.79a.5.5,0,0,1-.09-1c1.29-.25,2.6-.47,3.9-.67a.51.51,0,0,1,.57.42.5.5,0,0,1-.42.57c-1.28.19-2.58.42-3.85.66Zm7.77-1.17a.5.5,0,0,1-.05-1c1.3-.14,2.62-.26,3.93-.34a.49.49,0,0,1,.53.47.5.5,0,0,1-.47.53c-1.29.09-2.6.2-3.89.34Z"/><path class="cls-11" d="M278.08,158.84a.5.5,0,0,1,0-1l2,0a.5.5,0,0,1,0,1l-2,0Z"/><path class="cls-11" d="M272.25,153.82a.48.48,0,0,1-.17,0l-1.88-.67a.5.5,0,0,1-.31-.64.5.5,0,0,1,.64-.31l1.89.67a.5.5,0,0,1-.17,1Z"/><path class="cls-11" d="M102.53,175.61a.5.5,0,0,1-.29-.91q1.65-1.16,3.31-2.28a.5.5,0,1,1,.56.83q-1.66,1.12-3.3,2.27A.5.5,0,0,1,102.53,175.61Zm6.65-4.49a.5.5,0,0,1-.27-.92q1.69-1.1,3.39-2.16a.5.5,0,1,1,.53.85q-1.69,1.06-3.37,2.15A.5.5,0,0,1,109.17,171.13Zm6.8-4.25a.5.5,0,0,1-.26-.93q1.72-1,3.47-2a.5.5,0,0,1,.5.87q-1.73,1-3.45,2A.5.5,0,0,1,116,166.87Zm7-4a.5.5,0,0,1-.24-.94q1.76-1,3.54-1.9a.5.5,0,0,1,.46.89q-1.77.93-3.53,1.89A.5.5,0,0,1,122.93,162.88Zm7.11-3.72a.5.5,0,0,1-.22-.95q1.8-.89,3.62-1.75a.5.5,0,1,1,.43.9q-1.81.85-3.6,1.74A.5.5,0,0,1,130,159.16Zm7.26-3.41a.5.5,0,0,1-.2-1q1.84-.82,3.7-1.59a.5.5,0,1,1,.39.92q-1.85.77-3.68,1.58A.5.5,0,0,1,137.3,155.75Zm7.41-3.09a.5.5,0,0,1-.18-1q1.87-.73,3.77-1.42a.5.5,0,1,1,.34.94q-1.88.69-3.74,1.42A.5.5,0,0,1,144.71,152.65Zm121.86-.79-.16,0q-1.92-.63-3.81-1.22a.5.5,0,1,1,.3-1q1.91.59,3.83,1.23a.5.5,0,0,1-.16,1Zm-114.31-2a.5.5,0,0,1-.16-1q1.91-.64,3.83-1.25a.5.5,0,0,1,.3,1q-1.91.6-3.81,1.24Zm106.65-.43-.14,0q-1.93-.57-3.85-1.09a.5.5,0,0,1,.26-1q1.93.53,3.87,1.1a.5.5,0,0,1-.14,1Zm-99-2a.5.5,0,0,1-.14-1q1.93-.55,3.89-1.06a.5.5,0,0,1,.25,1q-1.94.5-3.86,1.05Zm91.24-.16-.12,0q-2-.5-3.89-1a.5.5,0,0,1,.23-1q1.95.46,3.91,1a.5.5,0,0,1-.12,1Zm-7.81-1.83h-.11q-2-.42-3.92-.8a.5.5,0,0,1,.19-1q2,.38,3.94.81a.5.5,0,0,1-.1,1Zm-75.65,0a.5.5,0,0,1-.11-1q2-.46,3.94-.87a.5.5,0,1,1,.2,1q-2,.41-3.91.86ZM235.46,144h-.09q-2-.34-4-.64a.5.5,0,0,1-.42-.57.51.51,0,0,1,.57-.42q2,.3,4,.65a.5.5,0,0,1-.08,1Zm-59.9-.12a.5.5,0,0,1-.09-1q2-.36,4-.67a.5.5,0,1,1,.15,1q-2,.31-4,.67Zm52-1.08h-.07q-2-.26-4-.48a.5.5,0,0,1,.11-1q2,.22,4,.48a.5.5,0,0,1-.06,1Zm-44-.15a.5.5,0,0,1-.06-1q2-.26,4-.47a.49.49,0,0,1,.55.45.5.5,0,0,1-.44.55q-2,.21-4,.47Zm36-.71h0q-2-.17-4-.3a.5.5,0,0,1,.06-1q2,.13,4,.3a.5.5,0,0,1,0,1Zm-28.06-.12a.5.5,0,0,1,0-1q2-.16,4-.27a.48.48,0,0,1,.53.47.5.5,0,0,1-.47.53q-2,.11-4,.27Zm20.05-.39h0q-2-.08-4-.11a.5.5,0,0,1-.49-.51.48.48,0,0,1,.51-.49q2,0,4,.11a.5.5,0,0,1,0,1Zm-12-.06a.5.5,0,0,1,0-1q2-.06,4-.08h0a.5.5,0,0,1,0,1q-2,0-4,.08Z"/><path class="cls-11" d="M97.63,179.13a.5.5,0,0,1-.3-.9L98.95,177a.5.5,0,0,1,.59.81L97.92,179A.49.49,0,0,1,97.63,179.13Z"/></g><g id="pagamenti_carta"><path class="cls-14" d="M1384.34,283.38a8.48,8.48,0,1,1,2.67-11.64,8.49,8.49,0,0,1-2.67,11.64"/><g class="cls-15"><polygon class="cls-9" points="-252.95 -172.8 -379 415.54 1837.92 887.18 1963.97 298.84 -252.95 -172.8"/></g><path class="cls-16" d="M1393,281.39a8.5,8.5,0,0,0-4.88-3.67,8.66,8.66,0,0,0-1.21-.25l.91,1.45a8.62,8.62,0,0,1-.42,1l-1.6-2.55a8.48,8.48,0,0,0-1,.06l2.11,3.38a8.35,8.35,0,0,1-.57.78l-2.49-4a8.36,8.36,0,0,0-.89.26l2.76,4.4a8.46,8.46,0,0,1-3.93,2.15l-2.49-4a8.43,8.43,0,0,0-.57.78l2.11,3.38a8.46,8.46,0,0,1-1,.06l-1.59-2.55a8.49,8.49,0,0,0-.42,1l.91,1.45a8.52,8.52,0,0,1-1.21-.25,8.46,8.46,0,1,0,15.5-2.93"/><g class="cls-17"><polygon class="cls-18" points="-252.95 -172.8 -379 415.54 1837.92 887.18 1963.97 298.84 -252.95 -172.8"/></g></g></svg>