<svg xmlns="http://www.w3.org/2000/svg" xmlns:xlink="http://www.w3.org/1999/xlink" viewBox="0 0 400 400"><defs><style>.cls-1,.cls-3{fill:none;}.cls-19,.cls-2,.cls-27{fill:#ffddba;}.cls-2,.cls-3,.cls-4{clip-rule:evenodd;}.cls-12,.cls-25,.cls-4{fill:#fca664;}.cls-5{clip-path:url(#clip-path);}.cls-6{clip-path:url(#clip-path-2);}.cls-7{clip-path:url(#clip-path-3);}.cls-8{fill:#fff;}.cls-9{fill:#b9e6ff;}.cls-10{opacity:0.4;}.cls-11{fill:#5cc5ff;}.cls-13{opacity:0.2;}.cls-14{fill:#f2eee6;}.cls-15{fill:#e9e3d7;}.cls-16{fill:#00a5ff;}.cls-17{fill:#fefaf2;}.cls-18{fill:#bab7cc;}.cls-20{fill:#61cc71;}.cls-21{fill:#453f6b;}.cls-22{fill:#c94646;}.cls-23{clip-path:url(#clip-path-4);}.cls-24{clip-path:url(#clip-path-5);}.cls-25,.cls-27{fill-rule:evenodd;}.cls-26{clip-path:url(#clip-path-6);}.cls-28{clip-path:url(#clip-path-7);}</style><clipPath id="clip-path"><ellipse class="cls-1" cx="156.79" cy="-611.21" rx="4.8" ry="4.8" transform="translate(468.59 -62.63) rotate(-44)"/></clipPath><clipPath id="clip-path-2"><rect class="cls-1" x="-350.3" y="188.33" width="255.01" height="196.52"/></clipPath><clipPath id="clip-path-3"><path class="cls-3" d="M-310.27,304.94a2.26,2.26,0,0,1,2.22-2.3h194.74a2.26,2.26,0,0,1,2.22,2.3v32.91a2.26,2.26,0,0,1-2.22,2.3H-308.05a2.26,2.26,0,0,1-2.22-2.3Z"/></clipPath><clipPath id="clip-path-4"><path class="cls-3" d="M959.25-302.31a4.71,4.71,0,0,1,6.47,1.49l60.47,96.63a4.67,4.67,0,0,1-1.5,6.45l-58.55,36.38a4.71,4.71,0,0,1-6.47-1.49L899.2-259.48a4.67,4.67,0,0,1,1.5-6.45Z"/></clipPath><clipPath id="clip-path-5"><path class="cls-3" d="M948-281.9a2.69,2.69,0,0,1,3.7.85l6,9.63a2.67,2.67,0,0,1-.86,3.68L949.17-263a2.69,2.69,0,0,1-3.7-.85l-6-9.63a2.67,2.67,0,0,1,.86-3.68Z"/></clipPath><clipPath id="clip-path-6"><path class="cls-4" d="M964.34-179.62a8.49,8.49,0,0,1-11.67-2.74A8.43,8.43,0,0,1,955.34-194,8.49,8.49,0,0,1,967-191.26a8.43,8.43,0,0,1-2.67,11.64"/></clipPath><clipPath id="clip-path-7"><path class="cls-2" d="M973-181.61a8.5,8.5,0,0,0-4.88-3.67,8.66,8.66,0,0,0-1.21-.25l.91,1.45a8.62,8.62,0,0,1-.42,1l-1.6-2.55a8.48,8.48,0,0,0-1,.06l2.11,3.38a8.35,8.35,0,0,1-.57.78l-2.49-4a8.36,8.36,0,0,0-.89.26l2.76,4.4a8.45,8.45,0,0,1-1.42,1.1,8.4,8.4,0,0,1-2.51,1l-2.49-4a8.43,8.43,0,0,0-.57.78l2.11,3.38a8.46,8.46,0,0,1-1,.06l-1.59-2.55a8.49,8.49,0,0,0-.42,1l.91,1.45a8.52,8.52,0,0,1-1.21-.25,8.45,8.45,0,0,0,1.17,6A8.49,8.49,0,0,0,970.38-170,8.43,8.43,0,0,0,973-181.61"/></clipPath></defs><title>statistiche</title><g id="statistiche"><rect class="cls-8" width="400" height="400"/><path class="cls-9" d="M195,187.4a5.61,5.61,0,0,1-5.63,5.6h-.74a5.61,5.61,0,0,1-5.63-5.6V113.83a5.81,5.81,0,0,1,5.63-5.83h.74a5.81,5.81,0,0,1,5.63,5.83Z"/><g class="cls-10"><path class="cls-11" d="M189,108h.37c3.11,0,5.63,3.19,5.63,6.29v73.57c0,3.1-2.52,5.14-5.63,5.14H189"/></g><path class="cls-12" d="M142,293.15a5.83,5.83,0,0,1-5.63,5.85h-.74a5.83,5.83,0,0,1-5.63-5.85V211.6a5.61,5.61,0,0,1,5.63-5.6h.74a5.61,5.61,0,0,1,5.63,5.6Z"/><g class="cls-13"><path class="cls-14" d="M136,206h.37c3.11,0,5.63,3.41,5.63,6.52v81.55c0,3.1-2.52,4.94-5.63,4.94H136"/></g><rect class="cls-12" x="50" y="206.44" width="12" height="44.89" rx="6" ry="6" transform="translate(112 457.78) rotate(-180)"/><g class="cls-13"><path class="cls-14" d="M56,206.44h0a6,6,0,0,1,6,6v32.92a6,6,0,0,1-6,6h0"/></g><path class="cls-15" d="M62.88,264.17h-2.5v-1.43c0-.06-.06-.06-.06-.12a.06.06,0,0,0-.06-.06c0-.06-.06-.06-.13-.06l-.06-.06H52a.06.06,0,0,0-.06.06c-.06,0-.06.06-.12.06a.06.06,0,0,1-.06.06c0,.06-.06.06-.06.12v.12a.06.06,0,0,0-.06.06v1.25h-2.5a.59.59,0,0,0-.62.62v11.85a.59.59,0,0,0,.63.62H62.88a.59.59,0,0,0,.63-.62V264.8A.59.59,0,0,0,62.88,264.17Zm-10,.06L54.94,266l-2.06,1.37ZM55.38,276H49.75v-10.6h1.88v3.12a.62.62,0,0,0,1,.5l2.75-1.87ZM54,263.55h4.06L56,265.23Zm5.12.69v3.12L57.06,266ZM62.25,276H56.63v-8.79l2.75,1.87a.64.64,0,0,0,1-.5v-3.18h1.88Z"/><path class="cls-15" d="M57.88,271a.59.59,0,0,0,.63.62H61a.62.62,0,1,0,0-1.25H58.5A.59.59,0,0,0,57.88,271Z"/><rect class="cls-12" x="338" y="206.44" width="12" height="24.94" rx="6" ry="6" transform="translate(688 437.83) rotate(180)"/><g class="cls-13"><path class="cls-14" d="M344,206.44h0a6,6,0,0,1,6,6v13a6,6,0,0,1-6,6h0"/></g><path class="cls-15" d="M351.31,246l-6.9-6.26a.66.66,0,0,0-.82,0L336.7,246a.62.62,0,1,0,.82.94l.82-.81v6.57a.59.59,0,0,0,.63.63h3.76a.59.59,0,0,0,.63-.63v-2.5h1.25v2.5a.59.59,0,0,0,.63.63H349a.59.59,0,0,0,.63-.63v-6.57l.82.75a.61.61,0,0,0,.88-.06A.53.53,0,0,0,351.31,246Zm-2.95,6.07h-2.51v-2.5a.59.59,0,0,0-.63-.63h-2.51a.59.59,0,0,0-.63.63v2.5h-2.51V245l4.39-4,4.39,4Z"/><path class="cls-15" d="M342.72,243.94a.59.59,0,0,0-.63.63v2.5a.59.59,0,0,0,.63.63h2.51a.59.59,0,0,0,.63-.63v-2.5a.59.59,0,0,0-.63-.63Zm1.88,1.25v1.25h-1.25v-1.25Z"/><path class="cls-12" d="M89,307.11A5.86,5.86,0,0,1,83.37,313h-.74A5.86,5.86,0,0,1,77,307.11V211.6a5.61,5.61,0,0,1,5.63-5.6h.74A5.61,5.61,0,0,1,89,211.6Z"/><g class="cls-13"><path class="cls-14" d="M83,206h.37c3.11,0,5.63,3,5.63,6.06v95.52A5.46,5.46,0,0,1,83.37,313H83"/></g><path class="cls-15" d="M83,325a.61.61,0,0,0,.65-.65V322.4a.65.65,0,0,0-1.3,0v1.94A.61.61,0,0,0,83,325Z"/><path class="cls-15" d="M90.47,333.54l-1.3-6.35a2.78,2.78,0,0,0-2.73-2.2,2.6,2.6,0,0,0-1.88.78l-.52.52H82l-.52-.52a2.65,2.65,0,0,0-1.95-.78,2.73,2.73,0,0,0-2.73,2.2l-1.3,6.35a1.31,1.31,0,0,0,2.08,1.3l2-1.55a1.91,1.91,0,0,0,2.08-.45,1.68,1.68,0,0,0,.45-.71h1.56a1.68,1.68,0,0,0,.45.71,2,2,0,0,0,2.08.45l2.08,1.55A1.35,1.35,0,0,0,90.47,333.54Zm-9.61-1.62a.64.64,0,1,1,0-.91A.63.63,0,0,1,80.86,331.92Zm4.29,0a.64.64,0,1,1,.91,0A.63.63,0,0,1,85.14,331.92Zm4,1.88-1.82-1.36a1.87,1.87,0,0,0-.32-2.27,1.89,1.89,0,0,0-2.73,0,1.68,1.68,0,0,0-.45.71H82.22a1.68,1.68,0,0,0-.45-.71,1.92,1.92,0,0,0-3.05,2.27l-1.88,1.43h0l1.3-6.35a1.4,1.4,0,0,1,1.43-1.23,1.37,1.37,0,0,1,1,.39l.65.71a.51.51,0,0,0,.45.19h2.6a.59.59,0,0,0,.45-.19l.71-.71a1.32,1.32,0,0,1,1-.39,1.52,1.52,0,0,1,1.43,1.17l1.23,6.35Z"/><path class="cls-12" d="M168,275.19a5.79,5.79,0,0,1-5.63,5.81h-.74a5.79,5.79,0,0,1-5.63-5.81V211.6a5.61,5.61,0,0,1,5.63-5.6h.74a5.61,5.61,0,0,1,5.63,5.6Z"/><g class="cls-13"><path class="cls-14" d="M162,206h.37c3.11,0,5.63,3,5.63,6.06v63.59a5.4,5.4,0,0,1-5.63,5.35H162"/></g><path class="cls-15" d="M169.46,295.17c-.06-.81-.19-1.62-.31-2.49-.06-.44-.19-.81-.25-1.18-.06-.19-.06-.37-.12-.44a.64.64,0,0,0-.75-.44,1.27,1.27,0,0,1-.31.06l-.75.19a21.4,21.4,0,0,0-2.12.81c-.06-.06-.12-.19-.19-.25a21.62,21.62,0,0,0-1.56-1.81,4,4,0,0,1-.5-.56.47.47,0,0,0-.19-.19.6.6,0,0,0-.87,0l-.19.19c-.12.19-.31.31-.5.56-.56.62-1.06,1.25-1.56,1.87a.86.86,0,0,0-.19.25,18.92,18.92,0,0,0-2-.75,5.81,5.81,0,0,0-.81-.25c-.12-.06-.19-.06-.25-.12a.72.72,0,0,0-.81.44,2.53,2.53,0,0,1-.12.44,8.8,8.8,0,0,1-.25,1.25,11.83,11.83,0,0,0-.31,2.49,6.84,6.84,0,0,0,.5,3.61,4.06,4.06,0,0,0,4.87,2,5.42,5.42,0,0,0,2,.37,4.45,4.45,0,0,0,2-.44,4.29,4.29,0,0,0,4.93-2A5.64,5.64,0,0,0,169.46,295.17Zm-13.3,3a5.85,5.85,0,0,1-.37-2.87c.06-.75.19-1.5.31-2.31l.19-.93c.12.06.25.06.37.12.56.19,1.12.37,1.69.62-.19.25-.31.5-.44.69a5.7,5.7,0,0,0-.94,2.8,4.74,4.74,0,0,0,1.37,3.43A2.8,2.8,0,0,1,156.16,298.16ZM162,300a3.65,3.65,0,0,1-1.62-.37h-.06a3.64,3.64,0,0,1-2.06-3.3,4.74,4.74,0,0,1,.75-2.18,8.52,8.52,0,0,1,1.31-1.87,13.05,13.05,0,0,1,1.5-1.74c.06-.06.12-.19.25-.25l.25.25c.5.56,1,1.12,1.5,1.74s.94,1.31,1.31,1.87a4.74,4.74,0,0,1,.75,2.18A3.81,3.81,0,0,1,162,300Zm5.87-1.81a3.16,3.16,0,0,1-2.25,1.56,5,5,0,0,0,1.37-3.43,5.7,5.7,0,0,0-.94-2.8c-.12-.25-.31-.5-.44-.75.56-.25,1.19-.44,1.75-.62.12-.06.25-.06.37-.12l.19.93c.12.81.25,1.62.31,2.31A5.33,5.33,0,0,1,167.84,298.16Z"/><rect class="cls-12" x="236" y="206.44" width="12" height="89.79" rx="6" ry="6"/><g class="cls-13"><path class="cls-14" d="M242,206.44h0a6,6,0,0,1,6,6v77.81a6,6,0,0,1-6,6h0"/></g><path class="cls-15" d="M249.06,313.19a7.42,7.42,0,0,0,.44-2.49.62.62,0,0,0-.62-.62h-.82a4.31,4.31,0,0,0,.19-1.25,4.37,4.37,0,0,0-4.37-4.36,4.29,4.29,0,0,0-4,2.6,3.76,3.76,0,0,0-.47.14L236.19,304a.63.63,0,0,0-.89.89l2.94,3a2.85,2.85,0,0,1-.19.21l-2.7-1.08a.62.62,0,1,0-.46,1.16l2.44,1a3.73,3.73,0,0,0-.28.94h-1.93a.62.62,0,0,0-.62.62,7.42,7.42,0,0,0,.44,2.49.62.62,0,0,0,.14.37,7.51,7.51,0,0,0,13.85,0A.62.62,0,0,0,249.06,313.19Zm-5.19-7.48a3.12,3.12,0,0,1,2.86,4.36h-2.29a3.68,3.68,0,0,0-3.12-3.07A3.13,3.13,0,0,1,243.88,305.7Zm-5.16,3.52h0a2.5,2.5,0,0,1,4.44.84h-4.82A2.45,2.45,0,0,1,238.72,309.23Zm9.53,2.09a6.17,6.17,0,0,1-.26,1.25H236a6.17,6.17,0,0,1-.29-1.25ZM242,316.93a6.25,6.25,0,0,1-5.41-3.12h10.81A6.25,6.25,0,0,1,242,316.93Z"/><rect class="cls-12" x="315" y="206.44" width="12" height="44.89" rx="6" ry="6" transform="translate(642 457.78) rotate(180)"/><g class="cls-13"><path class="cls-14" d="M321,206.44h0a6,6,0,0,1,6,6v32.92a6,6,0,0,1-6,6h0"/></g><path class="cls-15" d="M328.2,271.84l-2.69-4.07,1-1a2.36,2.36,0,0,0,.77-1.71,2.52,2.52,0,0,0-.73-1.83,2.38,2.38,0,0,0-1.72-.77,2.63,2.63,0,0,0-1.84.75l-1,1-4.05-2.72a1.85,1.85,0,0,0-2.33.28L314,263.24a.63.63,0,0,0,0,.89l.08.07,4.69,3.15-.78.79-.09.11L316.81,270l-1.94-.16a1.21,1.21,0,0,0-1.22.63,1.31,1.31,0,0,0,.2,1.49l1,1-.16.24a1.26,1.26,0,0,0,1.11,1.89,1.36,1.36,0,0,0,.63-.18l.19-.12,1,1a1.26,1.26,0,0,0,2.16-.88s0-.08,0-.13l-.12-1.95,1.76-1.11.11-.09.8-.81,3.16,4.69a.63.63,0,0,0,.47.28h.06a.63.63,0,0,0,.45-.2l1.48-1.54A2,2,0,0,0,328.2,271.84Zm-12.71-8.24,1-1a.63.63,0,0,1,.74-.08l3.79,2.57-1.28,1.3Zm-.75,7.52,1.31.13-.46.71Zm3.92,3.9-.85-.84.71-.47Zm2.12-4.21-4.94,3.1L319,269l4.87-4.86a1.26,1.26,0,0,1,.93-.38,1.14,1.14,0,0,1,.83.38,1.26,1.26,0,0,1,.38.93,1.14,1.14,0,0,1-.39.83Zm6.31,2.52-.91.94L323.32,270l1.26-1.32,2.52,3.82a.68.68,0,0,1,0,.84Z"/><rect class="cls-12" x="183" y="206.44" width="12" height="55.87" rx="6" ry="6"/><g class="cls-13"><path class="cls-14" d="M189,206.44h0a6,6,0,0,1,6,6v43.89a6,6,0,0,1-6,6h0"/></g><path class="cls-15" d="M191.12,282.63a3,3,0,1,1-4.24,0,3,3,0,0,1,4.24,0,.75.75,0,0,0,1.06-1.06,4.49,4.49,0,1,0,0,6.35,4.51,4.51,0,0,0,0-6.35.75.75,0,0,0-1.06,1.06Z"/><path class="cls-15" d="M183.75,279.51h10.5l-.75-.75V281l.75-.75h-10.5l.75.75v-2.24l-.75.75Zm0-1.5a.75.75,0,0,0-.75.75V281a.75.75,0,0,0,.75.75h10.5A.75.75,0,0,0,195,281v-2.24a.75.75,0,0,0-.75-.75Z"/><path class="cls-15" d="M192,274.28a3,3,0,0,0-6,0,2.89,2.89,0,0,0,1,2.22l.48-.57h-.75v2.84a.75.75,0,0,0,.75.75h3a.75.75,0,0,0,.75-.75v-2.84h-.75l.48.57a2.89,2.89,0,0,0,1-2.22Zm-1.5,0a1.4,1.4,0,0,1-.48,1.07.75.75,0,0,0-.27.57v2.84l.75-.75h-3l.75.75v-2.84a.75.75,0,0,0-.27-.57,1.4,1.4,0,0,1-.48-1.07,1.5,1.5,0,0,1,3,0Z"/><path class="cls-12" d="M274,305.12a5.85,5.85,0,0,1-5.63,5.88h-.74a5.85,5.85,0,0,1-5.63-5.88V211.6a5.61,5.61,0,0,1,5.63-5.6h.74a5.61,5.61,0,0,1,5.63,5.6Z"/><g class="cls-13"><path class="cls-14" d="M268,206h.37c3.11,0,5.63,3,5.63,6.06v93.52a5.46,5.46,0,0,1-5.63,5.42H268"/></g><path class="cls-15" d="M268.63,322.29h-1.25a.62.62,0,1,1,0-1.25h1.25a.62.62,0,1,1,0,1.25Z"/><path class="cls-15" d="M273.63,319.17H262.38A1.87,1.87,0,0,0,260.5,321v8.73a1.87,1.87,0,0,0,1.88,1.87h3.13v1.25h-1.25a.62.62,0,1,0,0,1.25h7.5a.62.62,0,1,0,0-1.25H270.5v-1.25h3.13a1.87,1.87,0,0,0,1.88-1.87V321A1.87,1.87,0,0,0,273.63,319.17Zm-11.25,1.25h11.25a.62.62,0,0,1,.63.62v6.86h-12.5V321A.62.62,0,0,1,262.38,320.42Zm6.88,12.47h-2.5v-1.25h2.5Zm4.38-2.49H262.38a.62.62,0,0,1-.62-.62v-.62h12.5v.62A.62.62,0,0,1,273.63,330.39Z"/><path class="cls-9" d="M89,78.92A5.89,5.89,0,0,0,83.37,73h-.74A5.89,5.89,0,0,0,77,78.92V187.4a5.61,5.61,0,0,0,5.63,5.6h.74A5.61,5.61,0,0,0,89,187.4Z"/><g class="cls-10"><path class="cls-11" d="M83,73h.37C86.48,73,89,76.27,89,79.37V187.86c0,3.1-2.52,5.14-5.63,5.14H83"/></g><rect class="cls-9" x="289" y="168.53" width="12" height="24.94" rx="6" ry="6"/><g class="cls-10"><path class="cls-11" d="M295,168.53h0a6,6,0,0,1,6,6v13a6,6,0,0,1-6,6h0"/></g><path class="cls-15" d="M295.63,149.91V144.3a.62.62,0,0,1,.63-.62h5.63a.62.62,0,0,1,.63.62v5.61a.62.62,0,0,1-.62.62h-5.62A.62.62,0,0,1,295.63,149.91Zm5.63-5h-4.37v4.36h4.38Z"/><path class="cls-15" d="M287.5,149.91V144.3a.62.62,0,0,1,.63-.62h5.63a.62.62,0,0,1,.63.62v5.61a.62.62,0,0,1-.62.62h-5.62A.62.62,0,0,1,287.5,149.91Zm5.63-5h-4.37v4.36h4.38Z"/><path class="cls-15" d="M295.63,158v-5.61a.62.62,0,0,1,.63-.62h5.63a.62.62,0,0,1,.63.62V158a.62.62,0,0,1-.62.62h-5.62A.62.62,0,0,1,295.63,158Zm5.63-5h-4.37v4.36h4.38Z"/><path class="cls-15" d="M287.5,158v-5.61a.62.62,0,0,1,.63-.62h5.63a.62.62,0,0,1,.63.62V158a.62.62,0,0,1-.62.62h-5.62A.62.62,0,0,1,287.5,158Zm5.63-5h-4.37v4.36h4.38Z"/><path class="cls-15" d="M195.88,89.06h-.62V87.81a.59.59,0,0,0-.62-.62H183.38a.59.59,0,0,0-.62.62v1.25h-.62a.59.59,0,0,0-.62.62v10a.59.59,0,0,0,.63.62h13.75a.59.59,0,0,0,.63-.62v-10A.59.59,0,0,0,195.88,89.06Zm-.62,1.25V99h-12.5V90.31ZM184,88.44h10v.62H184Z"/><path class="cls-15" d="M190.31,96a1.8,1.8,0,0,0,0-2.62,1.85,1.85,0,1,0,0,2.62Zm-1.75-1.75a.62.62,0,1,1,0,.87A.61.61,0,0,1,188.56,94.24Z"/><path class="cls-15" d="M184,96.54a1.25,1.25,0,0,1,1.25,1.25.59.59,0,0,0,.63.62h6.25a.59.59,0,0,0,.63-.62A1.25,1.25,0,0,1,194,96.54a.59.59,0,0,0,.63-.62V93.42a.59.59,0,0,0-.62-.62,1.25,1.25,0,0,1-1.25-1.25.59.59,0,0,0-.62-.62h-6.25a.59.59,0,0,0-.62.62A1.25,1.25,0,0,1,184,92.8a.59.59,0,0,0-.62.62v2.49A.59.59,0,0,0,184,96.54Zm2.44-4.36h5.19A2.53,2.53,0,0,0,193.44,94v1.43a2.53,2.53,0,0,0-1.81,1.81h-5.19a2.53,2.53,0,0,0-1.81-1.81V94A2.64,2.64,0,0,0,186.44,92.18Z"/><rect class="cls-9" x="156" y="148.58" width="12" height="44.89" rx="6" ry="6" transform="translate(324 342.05) rotate(180)"/><g class="cls-10"><path class="cls-11" d="M162,148.58h0a6,6,0,0,1,6,6v32.92a6,6,0,0,1-6,6h0"/></g><path class="cls-15" d="M168.85,137.39h-9.13a3.9,3.9,0,1,1,0-7.81h4.57a.65.65,0,1,0,0-1.3h-4.57a5.2,5.2,0,1,0,0,10.41h9.13a.65.65,0,1,0,0-1.3Z"/><path class="cls-15" d="M168.85,137.39h-9.13a3.9,3.9,0,1,1,0-7.81h4.57a.65.65,0,1,0,0-1.3h-4.57a5.2,5.2,0,1,0,0,10.41h9.13a.65.65,0,1,0,0-1.3Z"/><path class="cls-15" d="M165.13,135.25l3.26,3.25v-.92l-3.26,3.25a.65.65,0,0,0,.92.92l3.26-3.25a.65.65,0,0,0,0-.92L166,134.33a.65.65,0,1,0-.92.92Z"/><path class="cls-15" d="M165.13,135.25l3.26,3.25v-.92l-3.26,3.25a.65.65,0,0,0,.92.92l3.26-3.25a.65.65,0,0,0,0-.92L166,134.33a.65.65,0,1,0-.92.92Z"/><path class="cls-9" d="M221,187.4a5.61,5.61,0,0,1-5.63,5.6h-.74a5.61,5.61,0,0,1-5.63-5.6V130.79a5.78,5.78,0,0,1,5.63-5.79h.74a5.78,5.78,0,0,1,5.63,5.79Z"/><g class="cls-10"><path class="cls-11" d="M215,125h.37c3.11,0,5.63,3.15,5.63,6.25v56.61c0,3.1-2.52,5.14-5.63,5.14H215"/></g><path class="cls-15" d="M221.85,113.45h-9.13a3.9,3.9,0,1,1,0-7.81h4.57a.65.65,0,1,0,0-1.3h-4.57a5.2,5.2,0,1,0,0,10.41h9.13a.65.65,0,1,0,0-1.3Z"/><path class="cls-15" d="M221.85,113.45h-9.13a3.9,3.9,0,1,1,0-7.81h4.57a.65.65,0,1,0,0-1.3h-4.57a5.2,5.2,0,1,0,0,10.41h9.13a.65.65,0,1,0,0-1.3Z"/><path class="cls-15" d="M218.13,111.31l3.26,3.25v-.92l-3.26,3.25a.65.65,0,1,0,.92.92l3.26-3.25a.65.65,0,0,0,0-.92L219,110.38a.65.65,0,1,0-.92.92Z"/><path class="cls-15" d="M218.13,111.31l3.26,3.25v-.92l-3.26,3.25a.65.65,0,1,0,.92.92l3.26-3.25a.65.65,0,0,0,0-.92L219,110.38a.65.65,0,1,0-.92.92Z"/><path class="cls-15" d="M108.75,153.16a.62.62,0,0,1-.62-.62v-1.25a.63.63,0,0,1,1.25,0v1.25A.62.62,0,0,1,108.75,153.16Z"/><path class="cls-15" d="M105.63,153.78a.62.62,0,0,1-.62-.62v-1.25a.63.63,0,0,1,1.25,0v1.25A.62.62,0,0,1,105.63,153.78Z"/><path class="cls-15" d="M111.88,153.78a.62.62,0,0,1-.62-.62v-1.25a.63.63,0,0,1,1.25,0v1.25A.62.62,0,0,1,111.88,153.78Z"/><path class="cls-15" d="M116.88,155H103.13a.62.62,0,0,0-.62.62v1.87a6.25,6.25,0,0,0,12,2.49h1.15a1.87,1.87,0,0,0,1.88-1.87v-2.49A.62.62,0,0,0,116.88,155Zm-8.12,7.48a5,5,0,0,1-5-5v-1.25h10v1.25A5,5,0,0,1,108.75,162.51Zm7.5-4.36a.62.62,0,0,1-.62.62h-.75a6.22,6.22,0,0,0,.13-1.25v-1.25h1.25Z"/><path class="cls-15" d="M114.38,165.63H103.13a.62.62,0,1,1,0-1.25h11.25a.62.62,0,1,1,0,1.25Z"/><rect class="cls-9" x="104" y="173.52" width="12" height="19.95" rx="6" ry="6"/><g class="cls-10"><path class="cls-11" d="M110,173.52h0a6,6,0,0,1,6,6v8a6,6,0,0,1-6,6h0"/></g><path class="cls-15" d="M219.55,235.75a7.32,7.32,0,0,0-2,5.11,7.21,7.21,0,0,0,2.06,5.12.62.62,0,0,0,.88-.88,6,6,0,0,1-1.69-4.24,6.08,6.08,0,0,1,1.7-4.25.62.62,0,0,0-.91-.86Z"/><path class="cls-15" d="M219.55,235.75a7.32,7.32,0,0,0-2,5.11,7.21,7.21,0,0,0,2.06,5.12.62.62,0,0,0,.88-.88,6,6,0,0,1-1.69-4.24,6.08,6.08,0,0,1,1.7-4.25.62.62,0,0,0-.91-.86Zm-10,.86a6.08,6.08,0,0,1,1.7,4.25,6,6,0,0,1-1.69,4.24.62.62,0,0,0,.88.88,7.21,7.21,0,0,0,2.06-5.12,7.32,7.32,0,0,0-2-5.11.62.62,0,0,0-.91.86Z"/><path class="cls-15" d="M209.55,236.61a6.08,6.08,0,0,1,1.7,4.25,6,6,0,0,1-1.69,4.24.62.62,0,0,0,.88.88,7.21,7.21,0,0,0,2.06-5.12,7.32,7.32,0,0,0-2-5.11.62.62,0,0,0-.91.86Zm4.83-2.61v13.72a.63.63,0,0,0,1.25,0V234a.63.63,0,0,0-1.25,0Z"/><path class="cls-15" d="M214.38,234v13.72a.63.63,0,0,0,1.25,0V234a.63.63,0,0,0-1.25,0Z"/><path class="cls-15" d="M221.88,240.23H208.13a.62.62,0,1,0,0,1.25h13.75a.62.62,0,1,0,0-1.25Z"/><path class="cls-15" d="M221.88,240.23H208.13a.62.62,0,1,0,0,1.25h13.75a.62.62,0,1,0,0-1.25Z"/><path class="cls-15" d="M219.42,236.45a6.24,6.24,0,1,1-8.84,0,6.22,6.22,0,0,1,8.84,0,.62.62,0,0,0,.88-.88,7.49,7.49,0,1,0,0,10.58,7.51,7.51,0,0,0,0-10.58.62.62,0,1,0-.88.88Z"/><path class="cls-15" d="M219.42,236.45a6.24,6.24,0,1,1-8.84,0,6.22,6.22,0,0,1,8.84,0,.62.62,0,0,0,.88-.88,7.49,7.49,0,1,0,0,10.58,7.51,7.51,0,0,0,0-10.58.62.62,0,0,0-.88.88Z"/><rect class="cls-12" x="209" y="206.44" width="12" height="19.95" rx="6" ry="6"/><g class="cls-13"><path class="cls-14" d="M215,206.44h0a6,6,0,0,1,6,6v8a6,6,0,0,1-6,6h0"/></g><path class="cls-15" d="M117.3,251.35l-1.16-1.16-.68-5.24a.62.62,0,0,0-.27-.41.41.41,0,0,0-.41-.2h-9.55a.72.72,0,0,0-.68.61l-.68,5.24-1.16,1.16h0l-.07.07a.57.57,0,0,0-.14.41v4.08a.64.64,0,0,0,.68.68v2a.64.64,0,0,0,.68.68h2.73a.64.64,0,0,0,.68-.68v-2h5.45v2a.64.64,0,0,0,.68.68h2.73a.64.64,0,0,0,.68-.68v-2a.64.64,0,0,0,.68-.68v-4.08A.62.62,0,0,0,117.3,251.35Zm-11.59-4.63.14-1h8.32l.14,1,.41,3.06H105.3Zm.2,11.22h-1.36v-1.36h1.36Zm-2-2.72V252.1L104,252l.82-.82h10.36l1,1v3.13ZM115.45,258h-1.36v-1.36h1.36Z"/><path class="cls-15" d="M107.27,252.51h-1.36a.68.68,0,1,0,0,1.36h1.36a.68.68,0,1,0,0-1.36Z"/><path class="cls-15" d="M114.77,253.19a.64.64,0,0,0-.68-.68h-1.36a.68.68,0,1,0,0,1.36h1.36A.64.64,0,0,0,114.77,253.19Z"/><rect class="cls-12" x="104" y="206.44" width="12" height="29.93" rx="6" ry="6"/><g class="cls-13"><path class="cls-14" d="M110,206.44h0a6,6,0,0,1,6,6v18a6,6,0,0,1-6,6h0"/></g><path class="cls-16" d="M371.5,200.5H28.5a.5.5,0,0,1,0-1h343a.5.5,0,0,1,0,1Z"/><rect class="cls-17" x="110.27" y="34.46" width="176.37" height="30.81" rx="3" ry="3"/><path class="cls-18" d="M126.47,46.06V44.43L127,45h-4.36l.54-.54v1.63a.54.54,0,0,1-1.09,0V44.43a.54.54,0,0,1,.54-.54H127a.54.54,0,0,1,.54.54v1.63a.54.54,0,0,1-1.09,0Z"/><path class="cls-18" d="M126.47,46.06V44.43L127,45h-4.36l.54-.54v1.63a.54.54,0,0,1-1.09,0V44.43a.54.54,0,0,1,.54-.54H127a.54.54,0,0,1,.54.54v1.63a.54.54,0,0,1-1.09,0Z"/><path class="cls-18" d="M125.93,51.49h4.9l-.54.54v-6l.54.54h-12l.54-.54v6l-.54-.54h4.9a.54.54,0,1,1,0,1.09h-4.9a.54.54,0,0,1-.54-.54v-6a.54.54,0,0,1,.54-.54h12a.54.54,0,0,1,.54.54v6a.54.54,0,0,1-.54.54h-4.9a.54.54,0,1,1,0-1.09Z"/><path class="cls-18" d="M125.93,51.49h4.9l-.54.54v-6l.54.54h-12l.54-.54v6l-.54-.54h4.9a.54.54,0,1,1,0,1.09h-4.9a.54.54,0,0,1-.54-.54v-6a.54.54,0,0,1,.54-.54h12a.54.54,0,0,1,.54.54v6a.54.54,0,0,1-.54.54h-4.9a.54.54,0,1,1,0-1.09Z"/><path class="cls-18" d="M119.93,52V55.3l-.54-.54h10.9l-.54.54V52a.54.54,0,0,1,1.09,0V55.3a.54.54,0,0,1-.54.54h-10.9a.54.54,0,0,1-.54-.54V52a.54.54,0,0,1,1.09,0Z"/><path class="cls-18" d="M119.93,52V55.3l-.54-.54h10.9l-.54.54V52a.54.54,0,0,1,1.09,0V55.3a.54.54,0,0,1-.54.54h-10.9a.54.54,0,0,1-.54-.54V52a.54.54,0,0,1,1.09,0Z"/><path class="cls-18" d="M125.93,51.49l-.54-.54v2.17l.54-.54h-2.18l.54.54V50.95l-.54.54Zm0-1.09h-2.18a.54.54,0,0,0-.54.54v2.17a.54.54,0,0,0,.54.54h2.18a.54.54,0,0,0,.54-.54V50.95a.54.54,0,0,0-.54-.54Z"/><path class="cls-18" d="M125.93,51.49l-.54-.54v2.17l.54-.54h-2.18l.54.54V50.95l-.54.54Zm0-1.09h-2.18a.54.54,0,0,0-.54.54v2.17a.54.54,0,0,0,.54.54h2.18a.54.54,0,0,0,.54-.54V50.95a.54.54,0,0,0-.54-.54Z"/><path class="cls-18" d="M137.73,52.45a.45.45,0,0,1,0-.43.47.47,0,0,1,.36-.13h.27a.51.51,0,0,1,.33.1.67.67,0,0,1,.2.27,1.37,1.37,0,0,0,.59.69,2.24,2.24,0,0,0,1.16.25,2.16,2.16,0,0,0,1.25-.31,1,1,0,0,0,.46-.85.84.84,0,0,0-.71-.87q-.71-.19-1.55-.36a5.42,5.42,0,0,1-1.55-.55,1.47,1.47,0,0,1-.71-1.42,1.82,1.82,0,0,1,.75-1.48,3.18,3.18,0,0,1,2-.59,3.38,3.38,0,0,1,1.78.42,2,2,0,0,1,.92,1.16q.1.29,0,.42a.49.49,0,0,1-.36.13h-.26a.47.47,0,0,1-.33-.1,1.12,1.12,0,0,1-.21-.27,1.43,1.43,0,0,0-.57-.62,1.94,1.94,0,0,0-1-.21,2,2,0,0,0-1.08.27.87.87,0,0,0-.44.78.82.82,0,0,0,.71.84q.71.18,1.55.34a5.32,5.32,0,0,1,1.55.56,1.53,1.53,0,0,1,.71,1.47,1.89,1.89,0,0,1-.78,1.56,3.5,3.5,0,0,1-2.18.6,3.64,3.64,0,0,1-2-.46A2.11,2.11,0,0,1,137.73,52.45Z"/><path class="cls-18" d="M144.82,52.5V49.81h-.62a.32.32,0,0,1-.36-.36v-.17a.32.32,0,0,1,.36-.36h.62V47.81a.42.42,0,0,1,.47-.47h.21a.42.42,0,0,1,.47.47v1.11h1a.32.32,0,0,1,.36.36v.17a.32.32,0,0,1-.36.36h-1v2.64a.77.77,0,0,0,.16.55.72.72,0,0,0,.52.16h.26a.41.41,0,0,1,.29.1.39.39,0,0,1,.1.3v.17a.39.39,0,0,1-.1.3.41.41,0,0,1-.29.1h-.47a1.41,1.41,0,0,1-1.63-1.62Z"/><path class="cls-18" d="M148.63,47.49a.52.52,0,0,1-.36-.11.45.45,0,0,1-.12-.35v-.26a.45.45,0,0,1,.12-.35.51.51,0,0,1,.36-.11h.29a.49.49,0,0,1,.35.11.46.46,0,0,1,.12.35V47a.46.46,0,0,1-.12.35.5.5,0,0,1-.35.11Zm-.44,6.17V49.39a.46.46,0,0,1,.12-.35.5.5,0,0,1,.36-.12h.2a.42.42,0,0,1,.47.47v4.27a.41.41,0,0,1-.47.47h-.2a.5.5,0,0,1-.36-.12A.47.47,0,0,1,148.19,53.66Z"/><path class="cls-18" d="M151.92,55.1V56a.41.41,0,0,1-.47.47h-.2a.5.5,0,0,1-.36-.12.47.47,0,0,1-.12-.35V49.36a.45.45,0,0,1,.11-.34.46.46,0,0,1,.34-.11h.21a.45.45,0,0,1,.33.11.48.48,0,0,1,.12.33v.34h0a1.39,1.39,0,0,1,.7-.6,2.69,2.69,0,0,1,1-.19,2.26,2.26,0,0,1,1.66.67,2.57,2.57,0,0,1,.67,1.91,2.63,2.63,0,0,1-.71,1.95,2.33,2.33,0,0,1-1.71.71,2.4,2.4,0,0,1-1-.19,1.41,1.41,0,0,1-.66-.6h0q0,.51,0,1C151.91,54.67,151.92,54.92,151.92,55.1Zm0-3.58a1.76,1.76,0,0,0,.41,1.24,1.34,1.34,0,0,0,1,.44,1.3,1.3,0,0,0,1-.46,1.85,1.85,0,0,0,.41-1.26,1.7,1.7,0,0,0-.41-1.22,1.41,1.41,0,0,0-2,0A1.76,1.76,0,0,0,151.92,51.52Z"/><path class="cls-18" d="M156.72,51.53a2.53,2.53,0,0,1,.74-1.91,2.56,2.56,0,0,1,1.86-.72,2.51,2.51,0,0,1,1.74.6,2.1,2.1,0,0,1,.67,1.65.44.44,0,0,1-.12.33.49.49,0,0,1-.35.11h-3.34a1.9,1.9,0,0,0,.42,1.18,1.29,1.29,0,0,0,1,.43,1.37,1.37,0,0,0,.67-.14,1.06,1.06,0,0,0,.4-.37,1,1,0,0,1,.19-.21.41.41,0,0,1,.26-.07h.34c.18,0,.29.06.33.17a.39.39,0,0,1,0,.34,2.07,2.07,0,0,1-.83.88,2.55,2.55,0,0,1-4-2.27Zm1.25-.71h2.61a1.12,1.12,0,0,0-.4-.77,1.38,1.38,0,0,0-.87-.25,1.41,1.41,0,0,0-.87.27A1.27,1.27,0,0,0,158,50.82Z"/><path class="cls-18" d="M162.72,53.66V49.36a.45.45,0,0,1,.11-.34.46.46,0,0,1,.34-.11h.21a.41.41,0,0,1,.33.13.63.63,0,0,1,.12.38v.35h0a1.51,1.51,0,0,1,.64-.65,2.06,2.06,0,0,1,1-.22,2.12,2.12,0,0,1,1.36.48,2,2,0,0,1,.59,1.65v2.63a.46.46,0,0,1-.12.34.49.49,0,0,1-.35.12h-.21a.49.49,0,0,1-.35-.11.46.46,0,0,1-.12-.34V51.19a1.46,1.46,0,0,0-.3-1.05,1.1,1.1,0,0,0-.81-.3,1.17,1.17,0,0,0-.93.44,1.78,1.78,0,0,0-.37,1.19v2.2a.46.46,0,0,1-.12.34.49.49,0,0,1-.35.11h-.2a.5.5,0,0,1-.36-.12A.47.47,0,0,1,162.72,53.66Z"/><path class="cls-18" d="M168.42,51.56a2.63,2.63,0,0,1,.71-1.95,2.33,2.33,0,0,1,1.71-.71,2.76,2.76,0,0,1,1,.16,1.35,1.35,0,0,1,.66.51h0q0-.49,0-1t0-.73V46.76a.45.45,0,0,1,.12-.34.49.49,0,0,1,.35-.11h.21a.42.42,0,0,1,.47.47v6.9a.47.47,0,0,1-.11.34.45.45,0,0,1-.34.11H173a.43.43,0,0,1-.34-.12.55.55,0,0,1-.11-.38v-.39h0a1.46,1.46,0,0,1-.7.69,2.39,2.39,0,0,1-1,.22,2.26,2.26,0,0,1-1.66-.67A2.57,2.57,0,0,1,168.42,51.56Zm1.2,0a1.69,1.69,0,0,0,.41,1.22,1.41,1.41,0,0,0,2,0,2.08,2.08,0,0,0,0-2.49,1.34,1.34,0,0,0-1-.44,1.3,1.3,0,0,0-1,.46A1.85,1.85,0,0,0,169.61,51.56Z"/><path class="cls-18" d="M175.48,47.49a.52.52,0,0,1-.36-.11A.45.45,0,0,1,175,47v-.26a.45.45,0,0,1,.12-.35.51.51,0,0,1,.36-.11h.29a.49.49,0,0,1,.35.11.46.46,0,0,1,.12.35V47a.46.46,0,0,1-.12.35.5.5,0,0,1-.35.11ZM175,53.66V49.39a.46.46,0,0,1,.12-.35.5.5,0,0,1,.36-.12h.2a.42.42,0,0,1,.47.47v4.27a.41.41,0,0,1-.47.47h-.2a.5.5,0,0,1-.36-.12A.47.47,0,0,1,175,53.66Z"/><path class="cls-18" d="M177.24,51.52a2.48,2.48,0,0,1,.76-1.91,3,3,0,0,1,3.84,0,2.53,2.53,0,0,1,.73,1.92,2.49,2.49,0,0,1-.75,1.91,3,3,0,0,1-3.85,0A2.53,2.53,0,0,1,177.24,51.52Zm1.2,0a1.79,1.79,0,0,0,.41,1.22,1.44,1.44,0,0,0,2.12,0,2.07,2.07,0,0,0,0-2.46,1.37,1.37,0,0,0-1.06-.45,1.34,1.34,0,0,0-1.06.46A1.79,1.79,0,0,0,178.44,51.52Z"/><path class="cls-18" d="M185.51,50.45a4,4,0,0,1,.27-1.47,3.37,3.37,0,0,1,.75-1.16A3.51,3.51,0,0,1,187.7,47a4,4,0,0,1,1.52-.28,3.73,3.73,0,0,1,2,.48,2.6,2.6,0,0,1,1.08,1.16q.14.3,0,.45a.48.48,0,0,1-.37.14h-.33a.47.47,0,0,1-.33-.1,1.48,1.48,0,0,1-.22-.26,1.69,1.69,0,0,0-.68-.58,2.55,2.55,0,0,0-1.13-.22,2.29,2.29,0,0,0-1.78.74,2.69,2.69,0,0,0-.67,1.88,2.66,2.66,0,0,0,.68,1.88,2.29,2.29,0,0,0,1.76.74,2.49,2.49,0,0,0,1.51-.48,1.6,1.6,0,0,0,.65-1.37v-.17H189.6a.43.43,0,0,1-.3-.09.39.39,0,0,1-.1-.29v-.19a.41.41,0,0,1,.1-.3.41.41,0,0,1,.3-.1h2.45a.4.4,0,0,1,.3.1.43.43,0,0,1,.1.31v3.29a.36.36,0,0,1-.09.26.34.34,0,0,1-.26.09h-.19a.29.29,0,0,1-.24-.09.58.58,0,0,1-.09-.28l-.07-.65h0a2.28,2.28,0,0,1-.94.77,3.36,3.36,0,0,1-1.39.27,3.84,3.84,0,0,1-1.49-.28,3.38,3.38,0,0,1-1.15-.77,3.46,3.46,0,0,1-.74-1.17A4,4,0,0,1,185.51,50.45Z"/><path class="cls-18" d="M193.48,51.53a2.53,2.53,0,0,1,.74-1.91,2.56,2.56,0,0,1,1.86-.72,2.51,2.51,0,0,1,1.74.6,2.1,2.1,0,0,1,.67,1.65.44.44,0,0,1-.12.33.49.49,0,0,1-.35.11h-3.34a1.9,1.9,0,0,0,.42,1.18,1.29,1.29,0,0,0,1,.43,1.37,1.37,0,0,0,.67-.14,1.06,1.06,0,0,0,.4-.37,1,1,0,0,1,.19-.21.41.41,0,0,1,.26-.07H198c.18,0,.29.06.33.17a.39.39,0,0,1,0,.34,2.07,2.07,0,0,1-.83.88,2.55,2.55,0,0,1-4-2.27Zm1.25-.71h2.61a1.12,1.12,0,0,0-.4-.77,1.38,1.38,0,0,0-.87-.25,1.41,1.41,0,0,0-.87.27A1.27,1.27,0,0,0,194.73,50.82Z"/><path class="cls-18" d="M199.48,53.66V49.36a.45.45,0,0,1,.11-.34.46.46,0,0,1,.34-.11h.21a.41.41,0,0,1,.33.13.63.63,0,0,1,.12.38v.35h0a1.51,1.51,0,0,1,.64-.65,2.06,2.06,0,0,1,1-.22,2.12,2.12,0,0,1,1.36.48,2,2,0,0,1,.59,1.65v2.63a.46.46,0,0,1-.12.34.49.49,0,0,1-.35.12h-.21a.49.49,0,0,1-.35-.11.46.46,0,0,1-.12-.34V51.19a1.46,1.46,0,0,0-.3-1.05,1.1,1.1,0,0,0-.81-.3,1.17,1.17,0,0,0-.93.44,1.78,1.78,0,0,0-.37,1.19v2.2a.46.46,0,0,1-.12.34.49.49,0,0,1-.35.11H200a.5.5,0,0,1-.36-.12A.47.47,0,0,1,199.48,53.66Z"/><path class="cls-18" d="M205.54,53.66V49.36a.45.45,0,0,1,.11-.34.46.46,0,0,1,.34-.11h.21a.41.41,0,0,1,.33.13.63.63,0,0,1,.12.38v.35h0a1.51,1.51,0,0,1,.64-.65,2.06,2.06,0,0,1,1-.22,2.12,2.12,0,0,1,1.36.48,2,2,0,0,1,.59,1.65v2.63a.46.46,0,0,1-.12.34.49.49,0,0,1-.35.12h-.21a.49.49,0,0,1-.35-.11.46.46,0,0,1-.12-.34V51.19a1.46,1.46,0,0,0-.3-1.05,1.1,1.1,0,0,0-.81-.3,1.17,1.17,0,0,0-.93.44,1.78,1.78,0,0,0-.37,1.19v2.2a.46.46,0,0,1-.12.34.49.49,0,0,1-.35.11H206a.5.5,0,0,1-.36-.12A.47.47,0,0,1,205.54,53.66Z"/><path class="cls-18" d="M211.26,52.75a1.28,1.28,0,0,1,.41-1,2.55,2.55,0,0,1,1.33-.52l1-.16a1.8,1.8,0,0,0,.54-.14.27.27,0,0,0,.13-.26.89.89,0,0,0-.25-.66,1.05,1.05,0,0,0-.76-.25A1.09,1.09,0,0,0,213,50a1.89,1.89,0,0,0-.34.4,1.16,1.16,0,0,1-.16.2.46.46,0,0,1-.33.09h-.25c-.17,0-.28,0-.32-.15a.45.45,0,0,1,0-.35,1.69,1.69,0,0,1,.74-.89,2.54,2.54,0,0,1,1.38-.35,2.47,2.47,0,0,1,1.6.46,1.61,1.61,0,0,1,.56,1.33v3a.45.45,0,0,1-.11.33.46.46,0,0,1-.34.11h-.2a.42.42,0,0,1-.33-.12.56.56,0,0,1-.12-.36v-.3h0a1.47,1.47,0,0,1-.66.58,2.36,2.36,0,0,1-1,.21,2,2,0,0,1-1.31-.38A1.25,1.25,0,0,1,211.26,52.75Zm1.16-.14a.58.58,0,0,0,.22.48,1,1,0,0,0,.66.18,1.56,1.56,0,0,0,1-.32,1.14,1.14,0,0,0,.42-1v-.44a.53.53,0,0,1-.21.14,1.64,1.64,0,0,1-.32.08l-.9.14a1.2,1.2,0,0,0-.65.25A.6.6,0,0,0,212.42,52.61Z"/><path class="cls-18" d="M217.6,47.49a.52.52,0,0,1-.36-.11.45.45,0,0,1-.12-.35v-.26a.45.45,0,0,1,.12-.35.51.51,0,0,1,.36-.11h.29a.49.49,0,0,1,.35.11.46.46,0,0,1,.12.35V47a.46.46,0,0,1-.12.35.5.5,0,0,1-.35.11Zm-.44,6.17V49.39a.46.46,0,0,1,.12-.35.5.5,0,0,1,.36-.12h.2a.42.42,0,0,1,.47.47v4.27a.41.41,0,0,1-.47.47h-.2a.5.5,0,0,1-.36-.12A.47.47,0,0,1,217.16,53.66Z"/><path class="cls-18" d="M219.36,51.52a2.48,2.48,0,0,1,.76-1.91,3,3,0,0,1,3.84,0,2.53,2.53,0,0,1,.73,1.92,2.49,2.49,0,0,1-.75,1.91,3,3,0,0,1-3.85,0A2.53,2.53,0,0,1,219.36,51.52Zm1.2,0a1.79,1.79,0,0,0,.41,1.22,1.44,1.44,0,0,0,2.12,0,2.07,2.07,0,0,0,0-2.46,1.37,1.37,0,0,0-1.06-.45,1.34,1.34,0,0,0-1.06.46A1.79,1.79,0,0,0,220.56,51.52Z"/><ellipse class="cls-17" cx="268.11" cy="49.86" rx="36.88" ry="36.79"/><path class="cls-19" d="M268.11,87.15a37.29,37.29,0,1,1,37.38-37.29A37.38,37.38,0,0,1,268.11,87.15Zm0-73.58a36.29,36.29,0,1,0,36.38,36.29A36.37,36.37,0,0,0,268.11,13.57Z"/><path class="cls-20" d="M234.66,51a.48.48,0,0,1-.35-.12.46.46,0,0,1-.12-.34v-.31a.46.46,0,0,1,.12-.34.48.48,0,0,1,.35-.12h2.11V47.68a.47.47,0,0,1,.13-.36.5.5,0,0,1,.36-.12h.36a.47.47,0,0,1,.35.12.49.49,0,0,1,.12.36v2.11h2.1a.5.5,0,0,1,.36.12.47.47,0,0,1,.12.34v.31a.46.46,0,0,1-.12.34.5.5,0,0,1-.36.12h-2.1v2.1a.5.5,0,0,1-.12.36.46.46,0,0,1-.35.13h-.36a.45.45,0,0,1-.49-.49V51Z"/><path class="cls-21" d="M244.51,53.6v-.2a.48.48,0,0,1,.54-.54h1.9V46.23l-1.67,1.14a.51.51,0,0,1-.4.1.46.46,0,0,1-.3-.26l-.16-.24a.49.49,0,0,1-.07-.4.63.63,0,0,1,.29-.31l2.4-1.65a2,2,0,0,1,.34-.19,1,1,0,0,1,.38-.06h.17a.56.56,0,0,1,.43.15.58.58,0,0,1,.14.42v7.94h1.78a.48.48,0,0,1,.54.54v.2a.48.48,0,0,1-.54.54H245a.48.48,0,0,1-.54-.54Z"/><path class="cls-21" d="M251.56,53.6a4.58,4.58,0,0,1,.7-2.21,5.74,5.74,0,0,1,1.63-1.51l1.11-.71a8.2,8.2,0,0,0,1.13-.87,1.53,1.53,0,0,0,.41-1.15,1.66,1.66,0,0,0-.38-1,1.49,1.49,0,0,0-1.24-.49,1.78,1.78,0,0,0-1.14.34,1.65,1.65,0,0,0-.57,1,.65.65,0,0,1-.21.38.66.66,0,0,1-.43.13h-.31a.57.57,0,0,1-.44-.15.47.47,0,0,1-.08-.43,2.6,2.6,0,0,1,1.16-1.95,3.89,3.89,0,0,1,2-.56,3.49,3.49,0,0,1,2.29.73,2.49,2.49,0,0,1,.89,2,2.52,2.52,0,0,1-.62,1.85A8.37,8.37,0,0,1,256,50.12l-1.1.71A4.16,4.16,0,0,0,253.63,52a2.19,2.19,0,0,0-.33.91h4.38a.48.48,0,0,1,.54.54v.2a.48.48,0,0,1-.54.54H252.1a.58.58,0,0,1-.41-.13A.5.5,0,0,1,251.56,53.6Z"/><path class="cls-21" d="M259.09,52.06a.53.53,0,0,1,.05-.52.56.56,0,0,1,.43-.16H260a.54.54,0,0,1,.37.11,1,1,0,0,1,.23.33,1.82,1.82,0,0,0,.61.78,1.88,1.88,0,0,0,1.16.32,1.9,1.9,0,0,0,1.3-.51,1.84,1.84,0,0,0,.57-1.45,1.94,1.94,0,0,0-.54-1.46,1.83,1.83,0,0,0-1.33-.53,1.89,1.89,0,0,0-.79.16,2.31,2.31,0,0,0-.65.45,1,1,0,0,1-.28.2.89.89,0,0,1-.36.06h-.44a.54.54,0,0,1-.41-.15.61.61,0,0,1-.13-.46l.24-4.33a.6.6,0,0,1,.16-.41.58.58,0,0,1,.42-.15h4.52a.52.52,0,0,1,.57.57v.18a.52.52,0,0,1-.57.57H260.9l-.17,2.66h.07a2.12,2.12,0,0,1,.74-.42,3.17,3.17,0,0,1,1.07-.17,3.22,3.22,0,0,1,2.24.82,2.94,2.94,0,0,1,.91,2.3,3.44,3.44,0,0,1-.29,1.46A3,3,0,0,1,263.64,54a4.13,4.13,0,0,1-1.28.2,3.7,3.7,0,0,1-2.18-.59A2.7,2.7,0,0,1,259.09,52.06Z"/><path class="cls-21" d="M269.78,54.16a3.23,3.23,0,0,1-1.61-.38,3,3,0,0,1-1.08-1,4.93,4.93,0,0,1-.61-1.56,9.42,9.42,0,0,1,0-3.86,4.93,4.93,0,0,1,.61-1.56,3,3,0,0,1,1.08-1,3.61,3.61,0,0,1,3.22,0,3,3,0,0,1,1.08,1,5,5,0,0,1,.61,1.56,9.42,9.42,0,0,1,0,3.86,5,5,0,0,1-.61,1.56,3,3,0,0,1-1.08,1A3.23,3.23,0,0,1,269.78,54.16Zm0-1.32a1.52,1.52,0,0,0,1.43-.92,6,6,0,0,0,.47-2.67,6,6,0,0,0-.47-2.67,1.58,1.58,0,0,0-2.87,0,6.16,6.16,0,0,0-.46,2.67,6,6,0,0,0,.47,2.67A1.52,1.52,0,0,0,269.78,52.83Z"/><path class="cls-21" d="M274.21,53.46V53a.7.7,0,0,1,.17-.51.72.72,0,0,1,.53-.17h.46a.61.61,0,0,1,.69.68v.43a4,4,0,0,1,0,.54,3.85,3.85,0,0,1-.09.47l-.47,1.64a.73.73,0,0,1-.15.27.36.36,0,0,1-.28.1h-.1a.33.33,0,0,1-.26-.11.3.3,0,0,1-.06-.26l.4-1.94h-.09a.72.72,0,0,1-.53-.17A.69.69,0,0,1,274.21,53.46Z"/><path class="cls-21" d="M280.49,54.16a3.23,3.23,0,0,1-1.61-.38,3,3,0,0,1-1.08-1,4.93,4.93,0,0,1-.61-1.56,9.42,9.42,0,0,1,0-3.86,4.93,4.93,0,0,1,.61-1.56,3,3,0,0,1,1.08-1,3.61,3.61,0,0,1,3.22,0,3,3,0,0,1,1.08,1,5,5,0,0,1,.61,1.56,9.42,9.42,0,0,1,0,3.86,5,5,0,0,1-.61,1.56,3,3,0,0,1-1.08,1A3.23,3.23,0,0,1,280.49,54.16Zm0-1.32a1.52,1.52,0,0,0,1.43-.92,6,6,0,0,0,.47-2.67,6,6,0,0,0-.47-2.67,1.58,1.58,0,0,0-2.87,0,6.16,6.16,0,0,0-.46,2.67,6,6,0,0,0,.47,2.67A1.52,1.52,0,0,0,280.49,52.83Z"/><path class="cls-21" d="M288,54.16a3.23,3.23,0,0,1-1.61-.38,3,3,0,0,1-1.08-1,4.93,4.93,0,0,1-.61-1.56,9.42,9.42,0,0,1,0-3.86,4.93,4.93,0,0,1,.61-1.56,3,3,0,0,1,1.08-1,3.61,3.61,0,0,1,3.22,0,3,3,0,0,1,1.08,1,5,5,0,0,1,.61,1.56,9.42,9.42,0,0,1,0,3.86,5,5,0,0,1-.61,1.56,3,3,0,0,1-1.08,1A3.23,3.23,0,0,1,288,54.16Zm0-1.32a1.52,1.52,0,0,0,1.43-.92,6,6,0,0,0,.47-2.67,6,6,0,0,0-.47-2.67,1.58,1.58,0,0,0-2.87,0,6.16,6.16,0,0,0-.46,2.67,6,6,0,0,0,.47,2.67A1.52,1.52,0,0,0,288,52.83Z"/><path class="cls-18" d="M294.23,50.5a.35.35,0,0,1-.26-.09.34.34,0,0,1-.09-.26V50a.3.3,0,0,1,.34-.34h.71a1.94,1.94,0,0,1,0-.25V49.1c0-.09,0-.21,0-.33s0-.24,0-.33h-.73a.37.37,0,0,1-.26-.08.32.32,0,0,1-.09-.25v-.21a.33.33,0,0,1,.09-.24.35.35,0,0,1,.26-.08H295a4.49,4.49,0,0,1,1.14-2.32,3.2,3.2,0,0,1,2.42-.91,3.4,3.4,0,0,1,1.94.5,2.57,2.57,0,0,1,1,1.39.44.44,0,0,1,0,.47.63.63,0,0,1-.46.15h-.27a.66.66,0,0,1-.42-.11,1.19,1.19,0,0,1-.26-.33,1.49,1.49,0,0,0-.57-.59,1.81,1.81,0,0,0-.88-.19,1.77,1.77,0,0,0-1.31.51,2.75,2.75,0,0,0-.69,1.44h2a.3.3,0,0,1,.33.33v.21a.32.32,0,0,1-.08.25.35.35,0,0,1-.24.08h-2.14v1.18h2.14a.33.33,0,0,1,.24.08A.35.35,0,0,1,299,50v.2a.35.35,0,0,1-.08.26.33.33,0,0,1-.24.09h-2.05a3.54,3.54,0,0,0,.69,1.76,1.66,1.66,0,0,0,1.34.62,1.57,1.57,0,0,0,.88-.23,1.72,1.72,0,0,0,.57-.68,1.39,1.39,0,0,1,.26-.38.6.6,0,0,1,.42-.13h.27a.6.6,0,0,1,.46.16.51.51,0,0,1,0,.5,2.77,2.77,0,0,1-1,1.5,3.22,3.22,0,0,1-1.94.54,3.06,3.06,0,0,1-2.45-1A5,5,0,0,1,295,50.5Z"/><path class="cls-16" d="M83.66,65.16h-.05a1.5,1.5,0,0,1-1.45-1.55,14.62,14.62,0,0,1,15-14.1,1.5,1.5,0,0,1,0,3h0a11.87,11.87,0,0,0-8.29,3.15,11.67,11.67,0,0,0-3.65,8.05A1.5,1.5,0,0,1,83.66,65.16Z"/><path class="cls-16" d="M96.56,56.33A1.5,1.5,0,0,1,95.32,54l2.09-3.05-2.79-2.57a1.5,1.5,0,1,1,2-2.21l3.15,2.9a2.2,2.2,0,0,1,.38,3.16L97.8,55.68A1.5,1.5,0,0,1,96.56,56.33Zm1.29-5h0Z"/><path class="cls-16" d="M174.06,361.45a1.5,1.5,0,0,1-1-2.6l3.87-3.56-2.9-4.23a1.5,1.5,0,1,1,2.47-1.7l3.06,4.47a2.4,2.4,0,0,1-.42,3.5l-4.05,3.72A1.49,1.49,0,0,1,174.06,361.45Z"/><rect class="cls-17" x="184.74" y="342.18" width="148.33" height="25.91" rx="3" ry="3"/><path class="cls-18" d="M211,358l-2.13-5.89q-.1-.28,0-.4a.46.46,0,0,1,.36-.12h.26a.48.48,0,0,1,.33.1.72.72,0,0,1,.19.32l1.81,5.32h0l1.82-5.32a.75.75,0,0,1,.18-.32.46.46,0,0,1,.33-.1h.21a.46.46,0,0,1,.35.12c.08.08.08.21,0,.39l-2.15,5.9a.92.92,0,0,1-.19.33.5.5,0,0,1-.37.11h-.51a.5.5,0,0,1-.37-.11A.91.91,0,0,1,211,358Z"/><path class="cls-18" d="M215.89,352.27a.48.48,0,0,1-.33-.1.42.42,0,0,1-.11-.32v-.24a.42.42,0,0,1,.11-.32.48.48,0,0,1,.33-.1h.27a.46.46,0,0,1,.33.1.43.43,0,0,1,.11.32v.24a.43.43,0,0,1-.11.32.46.46,0,0,1-.33.1Zm-.41,5.77v-4a.44.44,0,0,1,.11-.33.47.47,0,0,1,.33-.11h.19a.39.39,0,0,1,.44.44v4a.39.39,0,0,1-.44.44h-.19a.47.47,0,0,1-.33-.11A.44.44,0,0,1,215.48,358Z"/><path class="cls-18" d="M217.58,357.38a.27.27,0,0,1,0-.29.39.39,0,0,1,.3-.11h.25a.49.49,0,0,1,.43.21,1,1,0,0,0,.43.41,1.58,1.58,0,0,0,.63.11,1.69,1.69,0,0,0,.84-.17.53.53,0,0,0,.28-.49.44.44,0,0,0-.18-.39,1.36,1.36,0,0,0-.55-.18l-.9-.14a2.74,2.74,0,0,1-1-.36,1,1,0,0,1-.46-.93,1.2,1.2,0,0,1,.58-1.07,2.62,2.62,0,0,1,1.44-.37,3.11,3.11,0,0,1,1.29.26,1.18,1.18,0,0,1,.71.81.27.27,0,0,1,0,.29.39.39,0,0,1-.3.11h-.27a.39.39,0,0,1-.25-.07.72.72,0,0,1-.16-.17.87.87,0,0,0-.39-.34,1.47,1.47,0,0,0-.6-.11,1.52,1.52,0,0,0-.71.15.48.48,0,0,0-.28.45.43.43,0,0,0,.19.37,1.54,1.54,0,0,0,.62.2l.9.15a2.8,2.8,0,0,1,1,.36,1,1,0,0,1,.43.92,1.25,1.25,0,0,1-.61,1.14,3,3,0,0,1-1.59.38,3.14,3.14,0,0,1-1.36-.28A1.27,1.27,0,0,1,217.58,357.38Z"/><path class="cls-18" d="M223.23,352.27a.48.48,0,0,1-.33-.1.42.42,0,0,1-.11-.32v-.24a.42.42,0,0,1,.11-.32.48.48,0,0,1,.33-.1h.27a.46.46,0,0,1,.33.1.43.43,0,0,1,.11.32v.24a.43.43,0,0,1-.11.32.46.46,0,0,1-.33.1Zm-.41,5.77v-4a.44.44,0,0,1,.11-.33.47.47,0,0,1,.33-.11h.19a.39.39,0,0,1,.44.44v4a.39.39,0,0,1-.44.44h-.19a.47.47,0,0,1-.33-.11A.44.44,0,0,1,222.82,358Z"/><path class="cls-18" d="M225.37,357v-2.51h-.58a.3.3,0,0,1-.34-.34v-.16a.3.3,0,0,1,.34-.34h.58v-1a.39.39,0,0,1,.44-.44h.2a.39.39,0,0,1,.44.44v1h.91a.3.3,0,0,1,.34.34v.16a.3.3,0,0,1-.34.34h-.91v2.46a.72.72,0,0,0,.15.52.67.67,0,0,0,.49.15h.24a.38.38,0,0,1,.28.09.37.37,0,0,1,.09.28v.16a.37.37,0,0,1-.09.28.39.39,0,0,1-.28.09h-.44a1.32,1.32,0,0,1-1.52-1.52Z"/><path class="cls-18" d="M228.24,357.19a1.19,1.19,0,0,1,.38-.93,2.38,2.38,0,0,1,1.25-.48l1-.15a1.72,1.72,0,0,0,.5-.13.26.26,0,0,0,.13-.24.83.83,0,0,0-.24-.62,1,1,0,0,0-.71-.23,1,1,0,0,0-.67.17,1.75,1.75,0,0,0-.32.37,1.1,1.1,0,0,1-.15.18.44.44,0,0,1-.31.09h-.23c-.16,0-.26,0-.3-.14a.42.42,0,0,1,0-.32,1.58,1.58,0,0,1,.69-.83,2.37,2.37,0,0,1,1.29-.33,2.31,2.31,0,0,1,1.5.43,1.51,1.51,0,0,1,.53,1.24v2.8a.42.42,0,0,1-.1.31.43.43,0,0,1-.32.1h-.19a.39.39,0,0,1-.3-.12.52.52,0,0,1-.12-.34v-.28h0a1.37,1.37,0,0,1-.62.55,2.22,2.22,0,0,1-1,.19,1.85,1.85,0,0,1-1.22-.36A1.17,1.17,0,0,1,228.24,357.19Zm1.08-.13a.55.55,0,0,0,.21.45,1,1,0,0,0,.62.17,1.46,1.46,0,0,0,.9-.3,1.06,1.06,0,0,0,.4-.91v-.41a.49.49,0,0,1-.2.13,1.54,1.54,0,0,1-.3.08l-.84.13a1.13,1.13,0,0,0-.61.23A.56.56,0,0,0,229.32,357.06Z"/><path class="cls-18" d="M236.81,358l-1.48-4a.37.37,0,0,1,0-.35.35.35,0,0,1,.31-.13H236a.43.43,0,0,1,.33.11.86.86,0,0,1,.17.33l1.12,3.31h0l1.13-3.31a.85.85,0,0,1,.17-.33.43.43,0,0,1,.33-.11h.23a.35.35,0,0,1,.31.13.37.37,0,0,1,0,.35l-1.44,4a1,1,0,0,1-.18.33.41.41,0,0,1-.32.11h-.56a.43.43,0,0,1-.33-.11A.86.86,0,0,1,236.81,358Z"/><path class="cls-18" d="M240.11,356a2.36,2.36,0,0,1,.7-1.78,2.39,2.39,0,0,1,1.73-.67,2.34,2.34,0,0,1,1.63.56,2,2,0,0,1,.63,1.54.41.41,0,0,1-.11.31.46.46,0,0,1-.33.11h-3.12a1.77,1.77,0,0,0,.39,1.1,1.2,1.2,0,0,0,1,.41,1.3,1.3,0,0,0,.63-.13,1,1,0,0,0,.37-.34.91.91,0,0,1,.18-.2.38.38,0,0,1,.24-.07h.32c.17,0,.27.05.31.16a.37.37,0,0,1,0,.32,1.93,1.93,0,0,1-.78.82,2.79,2.79,0,0,1-3.07-.34A2.42,2.42,0,0,1,240.11,356Zm1.17-.67h2.44a1,1,0,0,0-.37-.72,1.3,1.3,0,0,0-.81-.23,1.32,1.32,0,0,0-.81.25A1.19,1.19,0,0,0,241.28,355.38Z"/><path class="cls-18" d="M245.95,357v-2.51h-.58a.3.3,0,0,1-.34-.34v-.16a.3.3,0,0,1,.34-.34h.58v-1a.39.39,0,0,1,.44-.44h.2a.39.39,0,0,1,.44.44v1h.91a.3.3,0,0,1,.34.34v.16a.3.3,0,0,1-.34.34H247v2.46a.72.72,0,0,0,.15.52.67.67,0,0,0,.49.15h.24a.38.38,0,0,1,.28.09.37.37,0,0,1,.09.28v.16a.37.37,0,0,1-.09.28.39.39,0,0,1-.28.09h-.44a1.32,1.32,0,0,1-1.52-1.52Z"/><path class="cls-18" d="M248.67,356a2.36,2.36,0,0,1,.7-1.78,2.39,2.39,0,0,1,1.73-.67,2.34,2.34,0,0,1,1.63.56,2,2,0,0,1,.63,1.54.41.41,0,0,1-.11.31.46.46,0,0,1-.33.11h-3.12a1.77,1.77,0,0,0,.39,1.1,1.2,1.2,0,0,0,1,.41,1.3,1.3,0,0,0,.63-.13,1,1,0,0,0,.37-.34.91.91,0,0,1,.18-.2.38.38,0,0,1,.24-.07h.32c.17,0,.27.05.31.16a.37.37,0,0,1,0,.32,1.93,1.93,0,0,1-.78.82,2.79,2.79,0,0,1-3.07-.34A2.42,2.42,0,0,1,248.67,356Zm1.17-.67h2.44a1,1,0,0,0-.37-.72,1.3,1.3,0,0,0-.81-.23,1.32,1.32,0,0,0-.81.25A1.19,1.19,0,0,0,249.84,355.38Z"/><path class="cls-18" d="M254.29,358v-4a.43.43,0,0,1,.1-.31.43.43,0,0,1,.32-.1h.2a.4.4,0,0,1,.32.12.51.51,0,0,1,.1.35v.34h0a1.46,1.46,0,0,1,.5-.6,1.38,1.38,0,0,1,.79-.22h.28a.45.45,0,0,1,.26.14.32.32,0,0,1,.06.3l-.08.33a.53.53,0,0,1-.08.2.2.2,0,0,1-.15.08.73.73,0,0,1-.21,0,1,1,0,0,0-.28,0,.89.89,0,0,0-.81.43,1.79,1.79,0,0,0-.27,1V358a.43.43,0,0,1-.11.32.46.46,0,0,1-.33.11h-.19a.47.47,0,0,1-.33-.11A.44.44,0,0,1,254.29,358Z"/><path class="cls-18" d="M258.31,352.27a.48.48,0,0,1-.33-.1.42.42,0,0,1-.11-.32v-.24a.42.42,0,0,1,.11-.32.48.48,0,0,1,.33-.1h.27a.46.46,0,0,1,.33.1.43.43,0,0,1,.11.32v.24a.43.43,0,0,1-.11.32.46.46,0,0,1-.33.1Zm-.41,5.77v-4a.44.44,0,0,1,.11-.33.47.47,0,0,1,.33-.11h.19a.39.39,0,0,1,.44.44v4a.39.39,0,0,1-.44.44h-.19a.47.47,0,0,1-.33-.11A.44.44,0,0,1,257.91,358Z"/><path class="cls-18" d="M260.3,358v-4a.43.43,0,0,1,.1-.31.43.43,0,0,1,.32-.1h.2a.38.38,0,0,1,.31.12.58.58,0,0,1,.11.36v.33h0a1.41,1.41,0,0,1,.6-.61,1.92,1.92,0,0,1,.92-.21,2,2,0,0,1,1.27.44,1.88,1.88,0,0,1,.56,1.55V358a.43.43,0,0,1-.11.32.46.46,0,0,1-.33.11h-.2a.46.46,0,0,1-.33-.11.43.43,0,0,1-.11-.32v-2.32a1.36,1.36,0,0,0-.29-1,1,1,0,0,0-.75-.28,1.1,1.1,0,0,0-.87.41,1.67,1.67,0,0,0-.35,1.11V358a.43.43,0,0,1-.11.32.46.46,0,0,1-.33.11h-.19a.47.47,0,0,1-.33-.11A.44.44,0,0,1,260.3,358Z"/><path class="cls-18" d="M265.66,357.19a1.19,1.19,0,0,1,.38-.93,2.38,2.38,0,0,1,1.25-.48l1-.15a1.72,1.72,0,0,0,.5-.13.26.26,0,0,0,.13-.24.83.83,0,0,0-.24-.62,1,1,0,0,0-.71-.23,1,1,0,0,0-.67.17,1.75,1.75,0,0,0-.32.37,1.1,1.1,0,0,1-.15.18.44.44,0,0,1-.31.09h-.23c-.16,0-.26,0-.3-.14a.42.42,0,0,1,0-.32,1.58,1.58,0,0,1,.69-.83,2.37,2.37,0,0,1,1.29-.33,2.31,2.31,0,0,1,1.5.43,1.51,1.51,0,0,1,.53,1.24v2.8a.42.42,0,0,1-.1.31.43.43,0,0,1-.32.1h-.19a.39.39,0,0,1-.3-.12.52.52,0,0,1-.12-.34v-.28h0a1.37,1.37,0,0,1-.62.55,2.22,2.22,0,0,1-1,.19,1.85,1.85,0,0,1-1.22-.36A1.17,1.17,0,0,1,265.66,357.19Zm1.08-.13a.55.55,0,0,0,.21.45,1,1,0,0,0,.62.17,1.46,1.46,0,0,0,.9-.3,1.06,1.06,0,0,0,.4-.91v-.41a.49.49,0,0,1-.2.13,1.54,1.54,0,0,1-.3.08l-.84.13a1.13,1.13,0,0,0-.61.23A.56.56,0,0,0,266.74,357.06Z"/><path class="cls-18" d="M271.2,358v-4a.43.43,0,0,1,.1-.31.43.43,0,0,1,.32-.1h.2a.4.4,0,0,1,.32.12.51.51,0,0,1,.1.35v.34h0a1.46,1.46,0,0,1,.5-.6,1.38,1.38,0,0,1,.79-.22h.28a.45.45,0,0,1,.26.14.32.32,0,0,1,.06.3l-.08.33a.53.53,0,0,1-.08.2.2.2,0,0,1-.15.08.73.73,0,0,1-.21,0,1,1,0,0,0-.28,0,.89.89,0,0,0-.81.43,1.79,1.79,0,0,0-.27,1V358a.43.43,0,0,1-.11.32.46.46,0,0,1-.33.11h-.19a.47.47,0,0,1-.33-.11A.44.44,0,0,1,271.2,358Z"/><path class="cls-18" d="M275.22,352.27a.48.48,0,0,1-.33-.1.42.42,0,0,1-.11-.32v-.24a.42.42,0,0,1,.11-.32.48.48,0,0,1,.33-.1h.27a.46.46,0,0,1,.33.1.43.43,0,0,1,.11.32v.24a.43.43,0,0,1-.11.32.46.46,0,0,1-.33.1Zm-.41,5.77v-4a.44.44,0,0,1,.11-.33.47.47,0,0,1,.33-.11h.19a.39.39,0,0,1,.44.44v4a.39.39,0,0,1-.44.44h-.19a.47.47,0,0,1-.33-.11A.44.44,0,0,1,274.81,358Z"/><path class="cls-18" d="M276.9,357.19a1.19,1.19,0,0,1,.38-.93,2.38,2.38,0,0,1,1.25-.48l1-.15a1.72,1.72,0,0,0,.5-.13.26.26,0,0,0,.13-.24.83.83,0,0,0-.24-.62,1,1,0,0,0-.71-.23,1,1,0,0,0-.67.17,1.75,1.75,0,0,0-.32.37,1.1,1.1,0,0,1-.15.18.44.44,0,0,1-.31.09h-.23c-.16,0-.26,0-.3-.14a.42.42,0,0,1,0-.32,1.58,1.58,0,0,1,.69-.83,2.37,2.37,0,0,1,1.29-.33,2.31,2.31,0,0,1,1.5.43,1.51,1.51,0,0,1,.53,1.24v2.8a.42.42,0,0,1-.1.31.43.43,0,0,1-.32.1h-.19a.39.39,0,0,1-.3-.12.52.52,0,0,1-.12-.34v-.28h0a1.37,1.37,0,0,1-.62.55,2.22,2.22,0,0,1-1,.19,1.85,1.85,0,0,1-1.22-.36A1.17,1.17,0,0,1,276.9,357.19Zm1.08-.13a.55.55,0,0,0,.21.45,1,1,0,0,0,.62.17,1.46,1.46,0,0,0,.9-.3,1.06,1.06,0,0,0,.4-.91v-.41a.49.49,0,0,1-.2.13,1.54,1.54,0,0,1-.3.08l-.84.13a1.13,1.13,0,0,0-.61.23A.56.56,0,0,0,278,357.06Z"/><ellipse class="cls-17" cx="317.49" cy="355.13" rx="31.02" ry="30.94"/><path class="cls-19" d="M317.49,386.57A31.44,31.44,0,1,1,349,355.13,31.51,31.51,0,0,1,317.49,386.57Zm0-61.88A30.44,30.44,0,1,0,348,355.13,30.51,30.51,0,0,0,317.49,324.69Z"/><path class="cls-22" d="M291.4,355.85a.48.48,0,0,1-.34-.12.46.46,0,0,1-.12-.35v-.29a.46.46,0,0,1,.12-.35.48.48,0,0,1,.34-.12h2.76a.41.41,0,0,1,.47.47v.29a.41.41,0,0,1-.47.47Z"/><path class="cls-21" d="M298.11,358v-.18a.44.44,0,0,1,.49-.49h1.73v-6l-1.52,1a.47.47,0,0,1-.36.09.42.42,0,0,1-.27-.23L298,352a.45.45,0,0,1-.07-.36.57.57,0,0,1,.26-.29l2.18-1.5a1.8,1.8,0,0,1,.31-.17.87.87,0,0,1,.34-.06h.16a.51.51,0,0,1,.39.14.53.53,0,0,1,.13.38v7.24h1.63a.44.44,0,0,1,.49.49V358a.44.44,0,0,1-.49.49H298.6a.44.44,0,0,1-.49-.49Z"/><path class="cls-21" d="M304.71,356.42a.53.53,0,0,1-.38-.12.49.49,0,0,1-.13-.37v-.21a.62.62,0,0,1,.06-.29,2.55,2.55,0,0,1,.16-.25l3.8-5.25a1.05,1.05,0,0,1,.24-.24.56.56,0,0,1,.33-.1h.3a.56.56,0,0,1,.41.14.55.55,0,0,1,.14.41v5.12h.73a.49.49,0,0,1,.37.13.53.53,0,0,1,.12.38v.17a.44.44,0,0,1-.49.49h-.73V358a.48.48,0,0,1-.55.54h-.31a.48.48,0,0,1-.55-.54v-1.54Zm.9-1.17h2.63v-3.57Z"/><path class="cls-21" d="M311.33,358a4.16,4.16,0,0,1,.64-2,5.21,5.21,0,0,1,1.48-1.37l1-.65a7.44,7.44,0,0,0,1-.79,1.38,1.38,0,0,0,.38-1,1.51,1.51,0,0,0-.35-1,1.35,1.35,0,0,0-1.13-.45,1.62,1.62,0,0,0-1,.31,1.51,1.51,0,0,0-.52.87.59.59,0,0,1-.19.34.61.61,0,0,1-.39.11H312a.52.52,0,0,1-.4-.13.43.43,0,0,1-.07-.39,2.37,2.37,0,0,1,1.06-1.77,3.54,3.54,0,0,1,1.84-.51,3.17,3.17,0,0,1,2.09.67,2.27,2.27,0,0,1,.81,1.85,2.3,2.3,0,0,1-.57,1.68,7.63,7.63,0,0,1-1.34,1.07l-1,.65a3.78,3.78,0,0,0-1.16,1,2,2,0,0,0-.3.83h4a.44.44,0,0,1,.49.49V358a.44.44,0,0,1-.49.49h-5.08a.53.53,0,0,1-.38-.12A.45.45,0,0,1,311.33,358Z"/><path class="cls-21" d="M318.38,357.88v-.42a.64.64,0,0,1,.16-.47.66.66,0,0,1,.48-.16h.42a.55.55,0,0,1,.62.62v.39a3.67,3.67,0,0,1-.12.92l-.43,1.49a.68.68,0,0,1-.14.25.33.33,0,0,1-.25.09H319a.3.3,0,0,1-.24-.1.27.27,0,0,1-.06-.24l.36-1.76H319a.66.66,0,0,1-.48-.16A.64.64,0,0,1,318.38,357.88Z"/><path class="cls-21" d="M324.1,358.52a2.94,2.94,0,0,1-1.47-.35,2.73,2.73,0,0,1-1-.95,4.5,4.5,0,0,1-.56-1.42,8.62,8.62,0,0,1,0-3.52,4.49,4.49,0,0,1,.56-1.42,2.74,2.74,0,0,1,1-.95,3.29,3.29,0,0,1,2.94,0,2.75,2.75,0,0,1,1,.95,4.51,4.51,0,0,1,.56,1.42,8.62,8.62,0,0,1,0,3.52,4.52,4.52,0,0,1-.56,1.42,2.74,2.74,0,0,1-1,.95A2.94,2.94,0,0,1,324.1,358.52Zm0-1.21a1.38,1.38,0,0,0,1.3-.84,7.1,7.1,0,0,0,0-4.86,1.44,1.44,0,0,0-2.61,0,5.62,5.62,0,0,0-.42,2.43,5.48,5.48,0,0,0,.43,2.43A1.38,1.38,0,0,0,324.1,357.31Z"/><path class="cls-21" d="M330.9,358.52a2.94,2.94,0,0,1-1.47-.35,2.73,2.73,0,0,1-1-.95,4.5,4.5,0,0,1-.56-1.42,8.62,8.62,0,0,1,0-3.52,4.49,4.49,0,0,1,.56-1.42,2.74,2.74,0,0,1,1-.95,3.29,3.29,0,0,1,2.94,0,2.75,2.75,0,0,1,1,.95,4.51,4.51,0,0,1,.56,1.42,8.62,8.62,0,0,1,0,3.52,4.52,4.52,0,0,1-.56,1.42,2.74,2.74,0,0,1-1,.95A2.94,2.94,0,0,1,330.9,358.52Zm0-1.21a1.38,1.38,0,0,0,1.3-.84,7.1,7.1,0,0,0,0-4.86,1.44,1.44,0,0,0-2.61,0,5.62,5.62,0,0,0-.42,2.43,5.48,5.48,0,0,0,.43,2.43A1.38,1.38,0,0,0,330.9,357.31Z"/><path class="cls-18" d="M336.61,355.19a.27.27,0,0,1-.31-.31v-.18a.27.27,0,0,1,.31-.31h.65a1.62,1.62,0,0,1,0-.23v-.24c0-.09,0-.19,0-.3s0-.22,0-.3h-.66a.34.34,0,0,1-.23-.07.3.3,0,0,1-.08-.23v-.19a.3.3,0,0,1,.08-.22.32.32,0,0,1,.23-.08h.74a4.08,4.08,0,0,1,1-2.12,2.92,2.92,0,0,1,2.21-.83,3.1,3.1,0,0,1,1.77.46,2.35,2.35,0,0,1,.94,1.26.4.4,0,0,1,0,.43.57.57,0,0,1-.42.14h-.25a.6.6,0,0,1-.38-.1,1.07,1.07,0,0,1-.24-.3,1.37,1.37,0,0,0-.52-.54,1.64,1.64,0,0,0-.81-.17,1.6,1.6,0,0,0-1.19.46,2.5,2.5,0,0,0-.63,1.31h1.85a.27.27,0,0,1,.3.3V353a.3.3,0,0,1-.08.23.32.32,0,0,1-.22.07h-1.95v1.08h1.95a.3.3,0,0,1,.22.08.32.32,0,0,1,.08.23v.18a.32.32,0,0,1-.08.23.3.3,0,0,1-.22.08H338.8a3.22,3.22,0,0,0,.62,1.6,1.51,1.51,0,0,0,1.22.56,1.43,1.43,0,0,0,.81-.21,1.57,1.57,0,0,0,.52-.62,1.24,1.24,0,0,1,.24-.35.54.54,0,0,1,.38-.12h.25a.54.54,0,0,1,.42.15.46.46,0,0,1,0,.46,2.53,2.53,0,0,1-.94,1.36,2.93,2.93,0,0,1-1.77.49,2.79,2.79,0,0,1-2.24-.94,4.58,4.58,0,0,1-1-2.39Z"/><path class="cls-18" d="M195.11,352.78a1.75,1.75,0,0,1-1.68-1.25l-.33-1.12a1.75,1.75,0,0,1,3.34-1l.33,1.12a1.74,1.74,0,0,1-1.17,2.17h0A1.75,1.75,0,0,1,195.11,352.78Zm-.33-3.45a.58.58,0,0,0-.58.75l.36,1.12a.57.57,0,0,0,.7.39h0a.58.58,0,0,0,.39-.72l-.3-1.12A.58.58,0,0,0,194.78,349.33Z"/><path class="cls-18" d="M198.89,352.78a1.75,1.75,0,0,1-1.67-2.25l.33-1.12a1.75,1.75,0,0,1,3.37.93l0,.06-.33,1.12A1.75,1.75,0,0,1,198.89,352.78Zm.33-3.45a.58.58,0,0,0-.58.42l-.31,1.12a.58.58,0,0,0,.4.72h0a.58.58,0,0,0,.72-.39l.33-1.12a.58.58,0,0,0-.58-.75Z"/><path class="cls-18" d="M192,355h-.14a1.75,1.75,0,0,1-1.17-.58l-.24-.29a1.75,1.75,0,1,1,2.6-2.33l.27.31A1.75,1.75,0,0,1,192,355Zm-.25-2.61a.58.58,0,0,0-.44,1l.24.29a.58.58,0,0,0,.82.06h0a.58.58,0,0,0,.06-.82h0l-.24-.29a.58.58,0,0,0-.4-.2Z"/><path class="cls-18" d="M202,355a1.75,1.75,0,0,1-1.13-.42h0a1.74,1.74,0,0,1-.19-2.46h0l.25-.29a1.75,1.75,0,0,1,2.66,2.27h0l-.24.29a1.75,1.75,0,0,1-1.17.58H202Zm.25-2.61a.58.58,0,0,0-.44.2l-.24.29a.58.58,0,0,0,.06.82h0a.58.58,0,0,0,.82-.06h0l.24-.29a.58.58,0,0,0-.44-1Z"/><path class="cls-18" d="M199.21,362.13a3,3,0,0,1-1-.19l-.12,0a3,3,0,0,0-2.08,0l-.13,0a2.92,2.92,0,0,1-3.29-.87,2.68,2.68,0,0,1-.21-3.18l1.31-2.16v0a4.12,4.12,0,0,1,6.67,0l1.35,2.2a2.68,2.68,0,0,1-.23,3.18A2.88,2.88,0,0,1,199.21,362.13ZM197,360.55a4.16,4.16,0,0,1,1.45.26l.12,0a1.75,1.75,0,0,0,2-.52,1.53,1.53,0,0,0,.14-1.83l-1.35-2.18a3,3,0,0,0-4.71,0l-1.31,2.18a1.53,1.53,0,0,0,.13,1.83,1.75,1.75,0,0,0,2,.52l.11,0A4.17,4.17,0,0,1,197,360.55Z"/><path class="cls-16" d="M176,356.24h-.07c-14.26-.69-23.78-4.69-30-12.59a54.22,54.22,0,0,1-11.49-31.2,1.5,1.5,0,0,1,3-.11,51.19,51.19,0,0,0,10.85,29.46c5.62,7.16,14.44,10.8,27.76,11.44a1.5,1.5,0,0,1-.07,3Z"/></g><g id="pagamenti_carta"><path class="cls-25" d="M964.34-179.62a8.49,8.49,0,0,1-11.67-2.74A8.43,8.43,0,0,1,955.34-194,8.49,8.49,0,0,1,967-191.26a8.43,8.43,0,0,1-2.67,11.64"/><g class="cls-26"><polygon class="cls-12" points="-672.95 -635.8 -799 -47.46 1417.92 424.18 1543.97 -164.16 -672.95 -635.8"/></g><path class="cls-27" d="M973-181.61a8.5,8.5,0,0,0-4.88-3.67,8.66,8.66,0,0,0-1.21-.25l.91,1.45a8.62,8.62,0,0,1-.42,1l-1.6-2.55a8.48,8.48,0,0,0-1,.06l2.11,3.38a8.35,8.35,0,0,1-.57.78l-2.49-4a8.36,8.36,0,0,0-.89.26l2.76,4.4a8.45,8.45,0,0,1-1.42,1.1,8.4,8.4,0,0,1-2.51,1l-2.49-4a8.43,8.43,0,0,0-.57.78l2.11,3.38a8.46,8.46,0,0,1-1,.06l-1.59-2.55a8.49,8.49,0,0,0-.42,1l.91,1.45a8.52,8.52,0,0,1-1.21-.25,8.45,8.45,0,0,0,1.17,6A8.49,8.49,0,0,0,970.38-170,8.43,8.43,0,0,0,973-181.61"/><g class="cls-28"><polygon class="cls-19" points="-672.95 -635.8 -799 -47.46 1417.92 424.18 1543.97 -164.16 -672.95 -635.8"/></g></g></svg>