<?xml version="1.0" encoding="UTF-8"?>
<svg width="58px" height="13px" viewBox="0 0 58 13" version="1.1" xmlns="http://www.w3.org/2000/svg" xmlns:xlink="http://www.w3.org/1999/xlink">
    <!-- Generator: Sketch 43.2 (39069) - http://www.bohemiancoding.com/sketch -->
    <title>wired</title>
    <desc>Created with Sketch.</desc>
    <defs></defs>
    <g id="Symbols" stroke="none" stroke-width="1" fill="none" fill-rule="evenodd">
        <g id="footer" transform="translate(-1120.000000, -332.000000)">
            <g id="logos" transform="translate(1062.000000, 323.000000)">
                <g id="wired" transform="translate(58.076675, 9.581818)">
                    <path d="M0.839322764,1.85773171 C1.34774501,4.26397783 1.80362083,6.68321508 2.29358082,9.09379157 C2.38305177,9.38248337 2.32766499,9.76355654 2.60317872,9.95698004 C3.10023958,10.0378137 3.61008201,10.0176053 4.11140339,9.98296231 C4.38407677,9.99162306 4.44940477,9.66540133 4.49911086,9.45609978 C4.84137276,7.73982705 5.21345832,6.02932816 5.55430005,4.31305543 C5.58128335,4.15427494 5.62956927,3.99982483 5.70341831,3.85692239 C6.1280503,5.69877605 6.47883325,7.55650776 6.87364159,9.40413525 C6.92760819,9.60044568 6.93896958,9.84294678 7.12927288,9.96275388 C7.67177931,10.029153 8.22848747,10.0349268 8.76957372,9.9584235 C8.96413754,9.84150333 8.97407876,9.60044568 9.02378484,9.40124834 C9.52510622,6.88818625 9.99234343,4.36501996 10.5220683,1.85773171 C10.0434697,1.86061863 9.56629126,1.85917517 9.08911284,1.85917517 C8.70850624,4.04601552 8.40316886,6.24729047 7.98279739,8.42691353 C7.50987948,6.57784257 7.19318071,4.68402439 6.78133028,2.81763193 C6.68759881,2.49862749 6.73020402,2.0338337 6.38652194,1.8721663 C5.96615048,1.84618404 5.54293866,1.84474058 5.12256719,1.8721663 C4.88397798,1.89237472 4.83001137,2.17962306 4.78314563,2.37015965 C4.40253903,4.22067406 4.00347017,6.06685809 3.63138461,7.91737251 C3.59303992,8.08914412 3.53623296,8.25369845 3.47232514,8.41680931 C3.09029837,6.23574279 2.72815403,4.04890244 2.39867369,1.85917517 C1.87889005,1.85773171 1.3591064,1.86061863 0.839322764,1.85773171 L0.839322764,1.85773171 Z M0,11.8363636 L11.3968954,11.8363636 L11.3968954,0 L0,0 L0,11.8363636 Z" id="Fill-1" fill="#BAB7CC"></path>
                    <path d="M14.2883694,1.77978492 C14.2826887,2.26478714 14.2826887,2.7483459 14.2883694,3.23334812 C14.9373889,3.23767849 15.5864083,3.23479157 16.2354278,3.23479157 C16.2325875,5.02323725 16.2325875,6.81312639 16.2354278,8.60157206 C15.5864083,8.60157206 14.9373889,8.59868514 14.2883694,8.60301552 C14.2826887,9.08801774 14.2826887,9.5715765 14.2897896,10.0565787 C16.1246542,10.0609091 17.9595189,10.0609091 19.7943836,10.0565787 C19.8014844,9.57301996 19.8000643,9.08801774 19.7972239,8.60445898 C19.1467843,8.59868514 18.4977648,8.60157206 17.8487453,8.60157206 C17.8515857,6.81312639 17.8515857,5.02323725 17.8487453,3.23479157 C18.4977648,3.23479157 19.1467843,3.23767849 19.7958037,3.23334812 C19.8014844,2.7483459 19.8014844,2.26334368 19.7943836,1.77978492 C17.9595189,1.77545455 16.1246542,1.77545455 14.2883694,1.77978492 L14.2883694,1.77978492 Z M11.3968954,11.8363636 L22.6872778,11.8363636 L22.6872778,0 L11.3968954,0 L11.3968954,11.8363636 Z" id="Fill-3" fill="#FFFFFF"></path>
                    <path d="M25.262053,1.85917517 L25.262053,9.97718847 L26.8412864,9.97718847 L26.8412864,6.80157871 C27.6976512,6.80446563 28.5540161,6.79724834 29.4103809,6.80302217 C29.7228192,6.77270953 30.0949047,6.99933259 30.0878039,7.34864967 C30.1275687,8.22627273 30.2014178,9.10100887 30.2553844,9.97718847 C30.7567057,9.97718847 31.256607,9.97718847 31.7579283,9.97863193 C31.6159109,8.98553215 31.7905923,7.95923282 31.5150786,6.98634146 C31.3730612,6.47680044 30.8191934,6.36276718 30.3874605,6.23574279 C30.7084198,6.06252772 31.1202703,6.04664967 31.3531788,5.72908869 C31.6911802,5.29316408 31.7153231,4.71145011 31.7167433,4.18025721 C31.7110626,3.55956984 31.7252643,2.87681375 31.3375569,2.35572506 C31.027959,1.92268736 30.448528,1.85917517 29.9628285,1.85917517 C28.3963768,1.85773171 26.8285048,1.85917517 25.262053,1.85917517 L25.262053,1.85917517 Z M22.6872778,11.8363636 L34.0841732,11.8363636 L34.0841732,0 L22.6872778,0 L22.6872778,11.8363636 Z" id="Fill-5" fill="#BAB7CC"></path>
                    <path d="M36.1207025,1.78122838 C36.1150218,2.26334368 36.1150218,2.74690244 36.1178622,3.22901774 C36.4800065,3.23623503 36.8421508,3.23623503 37.2042952,3.23334812 C37.211396,5.02323725 37.211396,6.81312639 37.2042952,8.60301552 C36.8421508,8.6001286 36.4814267,8.6001286 36.1192823,8.60445898 C36.1150218,9.08801774 36.1136016,9.5715765 36.1207025,10.0551353 C38.4043421,10.0623525 40.6865615,10.0623525 42.9702011,10.0551353 C42.9815625,9.09812195 42.9744616,8.14110865 42.9744616,7.18409534 C42.478821,7.17976497 41.9831803,7.17976497 41.4875396,7.1855388 C41.4861194,7.65754989 41.4861194,8.12956098 41.4875396,8.60157206 C40.584309,8.60301552 39.6810784,8.59579823 38.7778478,8.60590244 C38.7636461,7.89716408 38.7735873,7.18698226 38.770747,6.4782439 L40.9010078,6.4782439 L40.9010078,5.09685366 L38.770747,5.09685366 C38.770747,4.4761663 38.7693268,3.85547894 38.7721671,3.23479157 C39.6526749,3.23623503 40.5317626,3.23623503 41.4122704,3.23479157 C41.40943,3.64762084 41.40943,4.06045011 41.4108502,4.47472284 L42.8722091,4.47472284 C42.870789,3.57689135 42.8736293,2.67905987 42.870789,1.78122838 C40.6198134,1.77401109 38.3702579,1.77401109 36.1207025,1.78122838 L36.1207025,1.78122838 Z M34.0841732,11.8363636 L45.4100599,11.8363636 L45.4100599,0 L34.0841732,0 L34.0841732,11.8363636 Z" id="Fill-7" fill="#FFFFFF"></path>
                    <path d="M47.9848351,1.85917517 L47.9848351,9.97718847 C49.3126977,9.97430155 50.6391401,9.98296231 51.9670027,9.97285809 C52.7850228,9.95698004 53.7379595,9.80252993 54.2307598,9.0577051 C54.8059303,8.12234368 54.7192996,6.97768071 54.820132,5.9225122 C54.7178795,4.86590022 54.8087706,3.71690687 54.2307598,2.77865854 C53.7720437,2.08146785 52.8943762,1.89814856 52.1232218,1.86927938 C50.744233,1.84618404 49.3638239,1.864949 47.9848351,1.85917517 L47.9848351,1.85917517 Z M45.4100599,11.8363636 L56.9489726,11.8363636 L56.9489726,0 L45.4100599,0 L45.4100599,11.8363636 Z" id="Fill-9" fill="#BAB7CC"></path>
                    <path d="M14.2883694,1.77978492 C16.1246542,1.77545455 17.9595189,1.77545455 19.7943836,1.77978492 C19.8014844,2.26334368 19.8014844,2.7483459 19.7958037,3.23334812 C19.1467843,3.23767849 18.4977648,3.23479157 17.8487453,3.23479157 C17.8515857,5.02323725 17.8515857,6.81312639 17.8487453,8.60157206 C18.4977648,8.60157206 19.1467843,8.59868514 19.7972239,8.60445898 C19.8000643,9.08801774 19.8014844,9.57301996 19.7943836,10.0565787 C17.9595189,10.0609091 16.1246542,10.0609091 14.2897896,10.0565787 C14.2826887,9.5715765 14.2826887,9.08801774 14.2883694,8.60301552 C14.9373889,8.59868514 15.5864083,8.60157206 16.2354278,8.60157206 C16.2325875,6.81312639 16.2325875,5.02323725 16.2354278,3.23479157 C15.5864083,3.23479157 14.9373889,3.23767849 14.2883694,3.23334812 C14.2826887,2.7483459 14.2826887,2.26478714 14.2883694,1.77978492" id="Fill-11" fill="#BAB7CC"></path>
                    <path d="M36.1207025,1.78122838 C38.3702579,1.77401109 40.6198134,1.77401109 42.870789,1.78122838 C42.8736293,2.67905987 42.870789,3.57689135 42.8722091,4.47472284 L41.4108502,4.47472284 C41.40943,4.06045011 41.40943,3.64762084 41.4122704,3.23479157 C40.5317626,3.23623503 39.6526749,3.23623503 38.7721671,3.23479157 C38.7693268,3.85547894 38.770747,4.4761663 38.770747,5.09685366 L40.9010078,5.09685366 L40.9010078,6.4782439 L38.770747,6.4782439 C38.7735873,7.18698226 38.7636461,7.89716408 38.7778478,8.60590244 C39.6810784,8.59579823 40.584309,8.60301552 41.4875396,8.60157206 C41.4861194,8.12956098 41.4861194,7.65754989 41.4875396,7.1855388 C41.9831803,7.17976497 42.478821,7.17976497 42.9744616,7.18409534 C42.9744616,8.14110865 42.9815625,9.09812195 42.9702011,10.0551353 C40.6865615,10.0623525 38.4043421,10.0623525 36.1207025,10.0551353 C36.1136016,9.5715765 36.1150218,9.08801774 36.1192823,8.60445898 C36.4814267,8.6001286 36.8421508,8.6001286 37.2042952,8.60301552 C37.211396,6.81312639 37.211396,5.02323725 37.2042952,3.23334812 C36.8421508,3.23623503 36.4800065,3.23623503 36.1178622,3.22901774 C36.1150218,2.74690244 36.1150218,2.26334368 36.1207025,1.78122838" id="Fill-13" fill="#BAB7CC"></path>
                    <path d="M0.839322764,1.85773171 C1.3591064,1.86061863 1.87889005,1.85773171 2.39867369,1.85917517 C2.72815403,4.04890244 3.09029837,6.23574279 3.47232514,8.41680931 C3.53623296,8.25369845 3.59303992,8.08914412 3.63138461,7.91737251 C4.00347017,6.06685809 4.40253903,4.22067406 4.78314563,2.37015965 C4.83001137,2.17962306 4.88397798,1.89237472 5.12256719,1.8721663 C5.54293866,1.84474058 5.96615048,1.84618404 6.38652194,1.8721663 C6.73020402,2.0338337 6.68759881,2.49862749 6.78133028,2.81763193 C7.19318071,4.68402439 7.50987948,6.57784257 7.98279739,8.42691353 C8.40316886,6.24729047 8.70850624,4.04601552 9.08911284,1.85917517 C9.56629126,1.85917517 10.0434697,1.86061863 10.5220683,1.85773171 C9.99234343,4.36501996 9.52510622,6.88818625 9.02378484,9.40124834 C8.97407876,9.60044568 8.96413754,9.84150333 8.76957372,9.9584235 C8.22848747,10.0349268 7.67177931,10.029153 7.12927288,9.96275388 C6.93896958,9.84294678 6.92760819,9.60044568 6.87364159,9.40413525 C6.47883325,7.55650776 6.1280503,5.69877605 5.70341831,3.85692239 C5.62956927,3.99982483 5.58128335,4.15427494 5.55430005,4.31305543 C5.21345832,6.02932816 4.84137276,7.73982705 4.49911086,9.45609978 C4.44940477,9.66540133 4.38407677,9.99162306 4.11140339,9.98296231 C3.61008201,10.0176053 3.10023958,10.0378137 2.60317872,9.95698004 C2.32766499,9.76355654 2.38305177,9.38248337 2.29358082,9.09379157 C1.80362083,6.68321508 1.34774501,4.26397783 0.839322764,1.85773171" id="Fill-15" fill="#FFFFFF"></path>
                    <path d="M26.8412864,3.19293126 L26.8412864,5.54432594 C27.785702,5.53133481 28.732958,5.57319512 29.6759534,5.52411752 C30.1829555,5.49380488 30.1900564,4.87456098 30.2099388,4.48771397 C30.1943169,4.06189357 30.2724265,3.49605765 29.8818786,3.21458315 C28.8707148,3.16117517 27.8552905,3.20880931 26.8412864,3.19293126 M25.262053,1.85917517 C26.8285048,1.85917517 28.3963768,1.85773171 29.9628285,1.85917517 C30.448528,1.85917517 31.027959,1.92268736 31.3375569,2.35572506 C31.7252643,2.87681375 31.7110626,3.55956984 31.7167433,4.18025721 C31.7153231,4.71145011 31.6911802,5.29316408 31.3531788,5.72908869 C31.1202703,6.04664967 30.7084198,6.06252772 30.3874605,6.23574279 C30.8191934,6.36276718 31.3730612,6.47680044 31.5150786,6.98634146 C31.7905923,7.95923282 31.6159109,8.98553215 31.7579283,9.97863193 C31.256607,9.97718847 30.7567057,9.97718847 30.2553844,9.97718847 C30.2014178,9.10100887 30.1275687,8.22627273 30.0878039,7.34864967 C30.0949047,6.99933259 29.7228192,6.77270953 29.4103809,6.80302217 C28.5540161,6.79724834 27.6976512,6.80446563 26.8412864,6.80157871 L26.8412864,9.97718847 L25.262053,9.97718847 L25.262053,1.85917517" id="Fill-17" fill="#FFFFFF"></path>
                    <path d="M49.5640685,3.19293126 L49.5640685,8.64343237 C50.3721474,8.64198891 51.1802263,8.64487583 51.9897254,8.64487583 C52.3774329,8.65209313 52.8475105,8.54816408 53.0292927,8.15554324 C53.3005459,7.54784701 53.2337978,6.86364745 53.2565206,6.21553437 C53.2266969,5.40431042 53.3403108,4.55844346 53.0718979,3.77897561 C52.9511832,3.38058093 52.5151898,3.1914878 52.133163,3.19581818 C51.2767982,3.18715743 50.4204333,3.19726164 49.5640685,3.19293126 M47.9848351,1.85917517 C49.3638239,1.864949 50.744233,1.84618404 52.1232218,1.86927938 C52.8943762,1.89814856 53.7720437,2.08146785 54.2307598,2.77865854 C54.8087706,3.71690687 54.7178795,4.86590022 54.820132,5.9225122 C54.7192996,6.97768071 54.8059303,8.12234368 54.2307598,9.0577051 C53.7379595,9.80252993 52.7850228,9.95698004 51.9670027,9.97285809 C50.6391401,9.98296231 49.3126977,9.97430155 47.9848351,9.97718847 L47.9848351,1.85917517" id="Fill-19" fill="#FFFFFF"></path>
                    <path d="M26.8412864,3.19293126 C27.8552905,3.20880931 28.8707148,3.16117517 29.8818786,3.21458315 C30.2724265,3.49605765 30.1943169,4.06189357 30.2099388,4.48771397 C30.1900564,4.87456098 30.1829555,5.49380488 29.6759534,5.52411752 C28.732958,5.57319512 27.785702,5.53133481 26.8412864,5.54432594 L26.8412864,3.19293126 Z" id="Fill-21" fill="#BAB7CC"></path>
                    <path d="M49.5640685,3.19293126 C50.4204333,3.19726164 51.2767982,3.18715743 52.133163,3.19581818 C52.5151898,3.1914878 52.9511832,3.38058093 53.0718979,3.77897561 C53.3403108,4.55844346 53.2266969,5.40431042 53.2565206,6.21553437 C53.2337978,6.86364745 53.3005459,7.54784701 53.0292927,8.15554324 C52.8475105,8.54816408 52.3774329,8.65209313 51.9897254,8.64487583 C51.1802263,8.64487583 50.3721474,8.64198891 49.5640685,8.64343237 L49.5640685,3.19293126 Z" id="Fill-23" fill="#BAB7CC"></path>
                </g>
            </g>
        </g>
    </g>
</svg>