<?xml version="1.0" encoding="UTF-8"?>
<svg width="90px" height="90px" viewBox="0 0 90 90" version="1.1" xmlns="http://www.w3.org/2000/svg" xmlns:xlink="http://www.w3.org/1999/xlink">
    <!-- Generator: Sketch 48 (47235) - http://www.bohemiancoding.com/sketch -->
    <title>Group 11</title>
    <desc>Created with Sketch.</desc>
    <defs></defs>
    <g id="Landing-timpersonal" stroke="none" stroke-width="1" fill="none" fill-rule="evenodd" transform="translate(-495.000000, -933.000000)">
        <g id="block-2" transform="translate(359.000000, 895.000000)">
            <g id="Group-3" transform="translate(40.000000, 24.000000)">
                <g id="Group-11" transform="translate(96.000000, 14.000000)">
                    <rect id="Rectangle-15" fill="#FFFFFF" x="0" y="0" width="90" height="90"></rect>
                    <g id="3pos" transform="translate(12.000000, 21.000000)">
                        <g id="Group-34">
                            <path d="M8.1622,47.5468 C3.9222,47.5308 0.4922,44.0868 0.5082,39.8368 L0.6282,7.7348 C0.6442,3.4928 4.0982,0.0648 8.3382,0.0808 L57.8262,0.2668 C62.0662,0.2828 65.4922,3.7348 65.4762,7.9768 L65.3562,40.0788 C65.3402,44.3288 61.8882,47.7468 57.6482,47.7308 L8.1622,47.5468 Z" id="Fill-6" fill="#FEFEFE"></path>
                            <path d="M8.1622,47.5468 C3.9222,47.5308 0.4922,44.0868 0.5082,39.8368 L0.6282,7.7348 C0.6442,3.4928 4.0982,0.0648 8.3382,0.0808 L57.8262,0.2668 C62.0662,0.2828 65.4922,3.7348 65.4762,7.9768 L65.3562,40.0788 C65.3402,44.3288 61.8882,47.7468 57.6482,47.7308 L8.1622,47.5468 Z" id="Stroke-8" stroke="#007BB8" stroke-width="3.664" stroke-linejoin="round"></path>
                            <g id="Group-13" transform="translate(6.000000, 7.000000)">
                                <path d="M0.416,0.9502 L12.42,0.9942" id="Fill-10" fill="#F06253"></path>
                                <path d="M0.416,0.9502 L12.42,0.9942" id="Stroke-12" stroke="#007BB8" stroke-width="1.832" stroke-linecap="round"></path>
                            </g>
                            <g id="Group-17" transform="translate(6.000000, 12.000000)">
                                <path d="M0.416,0.3798 L12.42,0.4238" id="Fill-14" fill="#F06253"></path>
                                <path d="M0.416,0.3798 L12.42,0.4238" id="Stroke-16" stroke="#007BB8" stroke-width="1.832" stroke-linecap="round"></path>
                            </g>
                            <g id="Group-21" transform="translate(6.000000, 19.000000)">
                                <path d="M0.627,0.7784 L51.921,0.9704" id="Fill-18" fill="#F06253"></path>
                                <path d="M0.627,0.7784 L51.921,0.9704" id="Stroke-20" stroke="#007BB8" stroke-width="2.32" stroke-linecap="round"></path>
                            </g>
                            <g id="Group-25" transform="translate(6.000000, 23.000000)">
                                <path d="M0.627,0.8134 L51.921,1.0074" id="Fill-22" fill="#F06253"></path>
                                <path d="M0.627,0.8134 L51.921,1.0074" id="Stroke-24" stroke="#007BB8" stroke-width="2.336" stroke-linecap="round"></path>
                            </g>
                            <path d="M33.8984,39.1914 C34.0104,39.0974 34.1224,39.0034 34.2344,38.9094 C34.6084,38.9494 34.9804,38.9874 35.3524,39.0434 C35.3584,39.0434 35.3444,39.2654 35.3244,39.2654 C34.9884,39.2974 34.6484,39.3234 34.3124,39.3154 C34.1724,39.3154 34.0344,39.2334 33.8984,39.1914" id="Fill-26" fill="#ED3124"></path>
                            <path d="M34.3692,36.3594 C33.5072,36.6554 32.9892,37.1134 32.8252,37.8594 C33.8792,37.5154 34.2952,37.1214 34.3692,36.3594 M34.0632,39.2194 C33.6292,39.0974 33.2052,38.9374 32.7572,38.8674 C32.2872,38.7934 31.7452,38.6794 31.3212,38.7934 C30.4132,39.0314 29.5072,38.8354 29.0852,38.2494 C28.4652,38.1634 27.9312,38.0894 27.2712,37.9994 C27.1372,38.0974 26.8912,38.3474 26.5712,38.5034 C26.3352,38.6214 25.9112,38.7314 25.7492,38.6414 C25.5312,38.5114 25.3592,38.1794 25.3852,37.9534 C25.4392,37.4734 25.6352,37.0034 25.6752,36.4814 C25.3832,36.7894 25.0892,37.0974 24.7932,37.4014 C24.7392,37.4614 24.6812,37.5194 24.6172,37.5694 C24.1892,37.9054 23.7272,38.4374 23.1212,38.1294 C22.7992,37.9614 22.8252,37.3474 22.7072,36.9814 C22.3172,37.2654 21.8072,37.6754 21.2432,38.0354 C20.6392,38.4134 20.2072,38.3134 19.8492,37.7494 C19.5052,37.9834 19.1672,38.2154 18.8232,38.4374 C18.4232,38.6994 18.0472,38.6834 17.6972,38.3174 C17.2572,38.6454 16.9152,39.2534 16.2332,38.9334 C15.9452,38.7974 15.9192,38.2934 15.7692,37.9454 C15.5732,38.0394 15.2812,38.2694 14.9552,38.3094 C14.6892,38.3394 14.3812,38.1414 13.9792,38.0034 C13.7532,38.2194 13.4292,38.5634 13.0612,38.8714 C12.6752,39.1954 12.2232,39.6494 11.6452,39.3554 C11.1252,39.0974 11.3872,38.5674 11.5892,38.2034 C12.2512,37.0114 12.9792,35.8434 13.6832,34.6714 C13.7892,34.4954 13.9092,34.3234 13.9232,34.0894 C12.9332,35.0314 11.9252,35.9574 10.9572,36.9094 C9.4912,38.3514 8.0532,39.8174 6.5992,41.2694 C6.5452,41.3234 6.4632,41.3634 6.3952,41.4054 C6.3352,41.3554 6.2772,41.3054 6.2172,41.2534 C7.0232,40.4574 7.8272,39.6554 8.6392,38.8634 C9.8272,37.7034 11.0232,36.5474 12.2152,35.3914 C13.0052,34.6214 13.8332,33.8754 14.5752,33.0774 C15.2992,32.2954 15.9472,31.4634 16.6092,30.6434 C17.0152,30.1414 17.3512,29.5994 17.7892,29.1174 C17.9672,28.9214 18.3332,28.8394 18.6132,28.7054 C18.6952,28.7674 18.7772,28.8294 18.8612,28.8914 C18.6752,29.1654 18.5232,29.4614 18.3012,29.7134 C17.2532,30.8914 16.0872,32.0114 15.1552,33.2454 C14.1492,34.5734 13.3332,35.9994 12.4832,37.4054 C12.2152,37.8514 12.1052,38.3594 11.8772,38.9574 C13.5492,37.9014 14.8272,36.7454 15.6092,35.2614 C15.8352,34.8354 16.1352,34.6594 16.7772,34.9254 C16.1492,35.7974 15.5272,36.6494 14.9072,37.5034 C14.9992,37.5594 15.0892,37.6174 15.1792,37.6674 C15.7532,37.1174 16.3712,36.5894 16.8872,36.0034 C17.2752,35.5674 17.4952,35.0274 17.8712,34.5774 C18.0112,34.4134 18.4452,34.2574 18.6452,34.3174 C19.1532,34.4694 18.8192,34.7494 18.6552,34.9734 C18.0512,35.7974 17.4232,36.6054 16.8412,37.4414 C16.6832,37.6674 16.6592,37.9574 16.5752,38.2194 C16.6432,38.2534 16.7092,38.2894 16.7772,38.3234 C17.1872,37.9014 17.6732,37.5114 17.9832,37.0474 C18.2592,36.6334 18.4912,36.4774 19.0172,36.7894 C18.8352,37.1374 18.6512,37.4914 18.4692,37.8434 L18.6572,37.9534 C19.3972,37.2814 20.1352,36.6134 20.9252,35.8994 C21.0412,35.9534 21.2272,36.0354 21.3952,36.1134 C21.1172,36.6174 20.8592,37.0854 20.5992,37.5554 C20.6592,37.5814 20.7172,37.6174 20.7752,37.6454 C22.0172,36.9094 23.0592,36.0234 23.8012,34.8954 C24.4252,35.1174 24.3992,35.4214 24.1572,35.8314 C23.8432,36.3634 23.6012,36.9174 23.3272,37.4614 C23.4112,37.5034 23.4952,37.5474 23.5812,37.5894 C23.9212,37.3194 24.2912,37.0734 24.5932,36.7814 C25.5452,35.8634 26.4772,34.9374 26.8992,33.7374 C27.1952,32.8914 27.3392,32.8714 28.1712,33.1294 C28.0712,33.3774 27.9692,33.6274 27.8632,33.8874 C28.4472,34.2854 28.5232,34.8954 27.9732,35.6054 C27.7392,35.9094 27.4292,36.2354 27.0532,36.3874 C26.2032,36.7374 26.3312,37.3714 26.1312,37.9134 C26.2172,37.9734 26.3032,38.0314 26.3912,38.0894 C26.6112,37.8394 26.8052,37.5694 27.0632,37.3514 C27.2792,37.1674 27.5752,37.0514 27.8312,36.9014 C27.9932,37.1214 28.1572,37.3354 28.3712,37.6294 C28.8532,37.5694 29.5972,37.1634 29.8312,37.8834 C30.2452,37.9954 30.5512,38.0814 30.9412,38.1914 C31.2092,38.1214 31.5992,38.0114 31.9032,37.9294 C32.3252,37.3714 32.6672,36.7814 33.1632,36.2934 C33.6852,35.7734 34.5112,35.6754 34.8992,35.9534 C35.2312,36.1874 35.2172,36.8094 34.7452,37.3174 C34.3652,37.7314 33.8532,38.0634 33.3592,38.4654 C33.6612,38.5974 34.0312,38.7654 34.4032,38.9334 C34.2892,39.0314 34.1752,39.1254 34.0632,39.2194" id="Fill-28" fill="#ED3124"></path>
                            <path d="M7.876,39.6718 C7.936,39.7218 7.996,39.7738 8.054,39.8198 C7.466,40.5278 6.888,41.2378 6.274,41.9338 C6.2,42.0158 5.868,42.0498 5.776,41.9878 C5.67,41.9178 5.626,41.6918 5.686,41.5738 C5.768,41.4138 5.968,41.2958 6.122,41.1638 C6.706,40.6638 7.292,40.1678 7.876,39.6718" id="Fill-30" fill="#ED3124"></path>
                            <path d="M27.92,34.5976 C27.846,35.3556 27.43,35.7496 26.376,36.0976 C26.54,35.3476 27.058,34.8936 27.92,34.5976" id="Fill-32" fill="#FEFEFE"></path>
                        </g>
                    </g>
                </g>
            </g>
        </g>
    </g>
</svg>