<?xml version="1.0" encoding="UTF-8"?>
<svg width="284px" height="284px" viewBox="0 0 284 284" version="1.1" xmlns="http://www.w3.org/2000/svg" xmlns:xlink="http://www.w3.org/1999/xlink">
    <!-- Generator: Sketch 48 (47235) - http://www.bohemiancoding.com/sketch -->
    <title>Group 24</title>
    <desc>Created with Sketch.</desc>
    <defs></defs>
    <g id="Landing-timpersonal" stroke="none" stroke-width="1" fill="none" fill-rule="evenodd" transform="translate(-950.000000, -5394.000000)">
        <g id="content-G" transform="translate(277.000000, 5394.000000)">
            <g id="Group-17">
                <g id="Group-24" transform="translate(673.000000, 0.000000)">
                    <rect id="Rectangle-16" fill="#FFFFFF" x="0" y="0" width="284" height="284"></rect>
                    <g id="6pos" transform="translate(82.000000, 64.000000)">
                        <path d="M105.312,68.82 L17.682,68.82 C13.02,68.82 9.246,72.594 9.246,77.244 L9.246,138.318 C9.246,142.98 13.02,146.742 17.682,146.742 L105.312,146.742 C109.956,146.742 113.748,142.98 113.748,138.318 L113.748,77.244 C113.748,72.594 109.956,68.82 105.312,68.82" id="Fill-1" fill="#D2E0E5"></path>
                        <path d="M69.798,99.666 C69.798,95.112 66.096,91.38 61.506,91.38 C56.928,91.38 53.178,95.112 53.178,99.666 C53.178,102.486 54.582,104.916 56.694,106.44 L53.61,124.182 L69.396,124.182 L66.282,106.44 C68.412,104.916 69.798,102.486 69.798,99.666" id="Fill-2" fill="#D4282C"></path>
                        <g id="Group-6" stroke-linejoin="round">
                            <path d="M118.11,138.318 C118.11,145.374 112.38,151.11 105.312,151.11 L17.682,151.11 C10.62,151.11 4.89,145.374 4.89,138.318 L4.89,77.244 C4.89,70.176 10.62,64.458 17.682,64.458 L105.312,64.458 C112.38,64.458 118.11,70.176 118.11,77.244 L118.11,138.318 Z" id="Stroke-3" stroke="#00769E" stroke-width="9.78" stroke-linecap="round"></path>
                            <path d="M91.134,54.69 L91.134,29.67 C91.134,15.966 77.892,4.878 61.506,4.878 C45.126,4.878 31.86,15.966 31.86,29.67 L31.722,54.69" id="Stroke-5" stroke="#0072A6" stroke-width="12"></path>
                        </g>
                    </g>
                </g>
            </g>
        </g>
    </g>
</svg>