<?xml version="1.0" encoding="UTF-8"?>
<svg width="90px" height="90px" viewBox="0 0 90 90" version="1.1" xmlns="http://www.w3.org/2000/svg" xmlns:xlink="http://www.w3.org/1999/xlink">
    <!-- Generator: Sketch 48 (47235) - http://www.bohemiancoding.com/sketch -->
    <title>Group 28</title>
    <desc>Created with Sketch.</desc>
    <defs>
        <path d="M0,88 L77.114,88 L77.114,0.656 L0,0.656 L0,88 Z M39.97,44.328 C39.304,42.412 40.472,41.578 40.472,41.578 L42.232,40.3 C46.804,38.578 47.544,41.422 47.544,41.422 L48.414,43.5 C53.004,41.382 54.352,44.8 54.352,44.8 C57.414,41.82 59.65,44.902 59.65,44.902 C62.242,42.922 64.852,44.932 64.852,44.932 L65.092,45.712 L72.232,61.854 L75.896,80.604 C75.896,80.604 65.512,84.894 62.512,86.332 C59.514,87.774 59.036,86.332 59.036,86.332 C58.91,84.112 56.864,82.194 56.864,82.194 L45.774,74.714 C45.774,74.714 40.852,67.132 39.172,64.912 C37.492,62.692 37.852,61.19 38.454,60.292 C39.054,59.39 40.434,58.608 40.434,58.608 C42.592,56.744 45.554,57.578 45.554,57.578 C45.554,57.578 40.868,46.61 39.97,44.328 Z" id="path-1"></path>
    </defs>
    <g id="Landing-timpersonal" stroke="none" stroke-width="1" fill="none" fill-rule="evenodd" transform="translate(-833.000000, -922.000000)">
        <g id="Group-28" transform="translate(833.000000, 922.000000)">
            <g id="Group-18">
                <rect id="Rectangle-15" fill="#FFFFFF" x="0" y="0" width="90" height="90"></rect>
                <g id="Group-27" transform="translate(6.000000, 1.000000)">
                    <g id="3pos">
                        <g id="Group-29">
                            <path d="M17.996,4.1738 L56.016,4.1738 C58.826,4.1738 61.114,5.7978 61.114,7.7838 L61.114,11.7358 L12.9,11.7358 L12.9,7.7838 C12.9,5.7978 15.182,4.1738 17.996,4.1738 Z" id="Fill-3" fill="#C8DEF2"></path>
                            <path d="M55.4462,80.461 L18.4102,80.461 C15.6682,80.461 13.4462,78.215 13.4462,75.455 L13.4462,69.975 L60.4102,69.975 L60.4102,75.455 C60.4102,78.215 58.1802,80.461 55.4462,80.461" id="Fill-5" fill="#C8DEF2"></path>
                            <path d="M61.8016,73.293 C61.8016,77.611 58.9116,81.109 55.3436,81.109 L18.5176,81.109 C14.9496,81.109 12.0536,77.611 12.0536,73.293 L12.0536,11.069 C12.0536,6.749 14.9496,3.243 18.5176,3.243 L55.3436,3.243 C58.9116,3.243 61.8016,6.749 61.8016,11.069 L61.8016,73.293 Z" id="Stroke-7" stroke="#007BB8" stroke-width="3" stroke-linecap="round" stroke-linejoin="round"></path>
                            <path d="M13.3124,11.4512 L60.5444,11.4512" id="Stroke-9" stroke="#007BB8" stroke-width="3" stroke-linecap="round" stroke-linejoin="round"></path>
                            <path d="M12.4062,69.9746 L59.6382,69.9746" id="Stroke-11" stroke="#007BB8" stroke-width="3" stroke-linecap="round" stroke-linejoin="round"></path>
                            <path d="M19.076,74.5138 C19.076,75.4758 18.37,76.2518 17.49,76.2518 L17.348,76.2518 C16.472,76.2518 15.762,75.4758 15.762,74.5138 C15.762,73.5598 16.472,72.7858 17.348,72.7858 L17.49,72.7858 C18.37,72.7858 19.076,73.5598 19.076,74.5138" id="Fill-13" fill="#007BB8"></path>
                            <mask id="mask-2" fill="white">
                                <use xlink:href="#path-1"></use>
                            </mask>
                            <g id="Clip-16"></g>
                            <path d="M24.0468,74.5138 C24.0468,75.4758 23.3388,76.2518 22.4608,76.2518 L22.3168,76.2518 C21.4408,76.2518 20.7308,75.4758 20.7308,74.5138 C20.7308,73.5598 21.4408,72.7858 22.3168,72.7858 L22.4608,72.7858 C23.3388,72.7858 24.0468,73.5598 24.0468,74.5138" id="Fill-28" fill="#007BB8" mask="url(#mask-2)"></path>
                        </g>
                    </g>
                </g>
            </g>
            <g id="Group-26" transform="translate(23.000000, 25.000000)">
                <polygon id="Fill-15" fill="#C8DEF2" points="0.074 7.782 6.86 7.782 6.86 0.996 0.074 0.996"></polygon>
                <polygon id="Stroke-17" stroke="#007BB8" stroke-width="1.5" stroke-linecap="round" stroke-linejoin="round" points="0.074 7.782 6.86 7.782 6.86 0.996 0.074 0.996"></polygon>
                <polygon id="Fill-18" fill="#DE272D" points="0.074 21.958 6.86 21.958 6.86 15.172 0.074 15.172"></polygon>
                <polygon id="Stroke-19" stroke="#DE272D" stroke-width="1.44" points="0.074 21.958 6.86 21.958 6.86 15.172 0.074 15.172"></polygon>
                <polygon id="Fill-20" fill="#007BB8" points="0.074 35.112 6.86 35.112 6.86 28.326 0.074 28.326"></polygon>
                <polygon id="Stroke-21" stroke="#007BB8" stroke-width="2" points="0.074 35.112 6.86 35.112 6.86 28.326 0.074 28.326"></polygon>
                <path d="M11.3476,2.627 L36.7896,2.627" id="Stroke-22" stroke="#007BB8" stroke-width="1.5" stroke-linecap="round" stroke-linejoin="round"></path>
                <path d="M11.3476,6.1524 L32.8096,6.1524" id="Stroke-23" stroke="#007BB8" stroke-width="1.5" stroke-linecap="round" stroke-linejoin="round"></path>
                <path d="M11.3476,16.8028 L36.7896,16.8028" id="Stroke-24" stroke="#007BB8" stroke-width="1.5" stroke-linecap="round" stroke-linejoin="round"></path>
                <path d="M11.3476,20.3282 L21.5556,20.3282" id="Stroke-25" stroke="#007BB8" stroke-width="1.5" stroke-linecap="round" stroke-linejoin="round"></path>
                <path d="M11.246,29.9552 L36.684,29.9552" id="Stroke-26" stroke="#007BB8" stroke-width="1.5" stroke-linecap="round" stroke-linejoin="round"></path>
                <path d="M11.246,33.4806 L26.798,33.4806" id="Stroke-27" stroke="#007BB8" stroke-width="1.5" stroke-linecap="round" stroke-linejoin="round"></path>
            </g>
            <path d="M66.7594658,84.8613043 L79,79.5254842 L75.784417,63.4229183 L69.8664809,49.7376195 C69.8664809,49.7376195 69.0650526,47.8850418 67.2134769,48.4001971 C67.2134769,48.4001971 64.9236818,49.0084766 65.7843289,51.1027811 L68.1590044,56.5931478 L64.6394313,48.4596381 C64.6394313,48.4596381 63.5024296,46.945874 61.8640417,47.6116132 C61.8640417,47.6116132 59.4064599,48.5626691 60.1901225,50.421191 C60.9678633,52.2816941 63.1115853,57.1736882 63.1115853,57.1736882 L58.737287,47.0667374 C58.737287,47.0667374 57.665426,45.4796628 55.7862148,46.3692964 C55.7862148,46.3692964 53.4312789,47.1578802 54.1794103,48.9589424 C54.9275416,50.7580233 58.6247712,59.2343094 58.6247712,59.2343094 L51.94686,43.8034267 C51.94686,43.8034267 51.0329159,42.432321 49.1793662,43.2724204 C49.1793662,43.2724204 46.6092686,44.1660168 47.3573999,45.9650976 C48.1055313,47.7681411 55.9757151,65.8718873 55.9757151,65.8718873 L53.5694562,64.1798003 L50.4545453,60.5420113 C50.4545453,60.5420113 48.9898659,59.8207939 47.3810875,61.0096138 C47.3810875,61.0096138 45.2985583,62.2063592 46.2480337,63.7300301 C47.1915872,65.253701 53.7944878,74.2669374 53.7944878,74.2669374 L63.5971798,81.1125588 C63.5971798,81.1125588 65.1566092,82.2696769 65.6027245,83.1870496 C66.0508137,84.1064037 66.4357362,85 66.4357362,85 L66.7594658,84.8613043 Z" id="Stroke-1" stroke="#007BB8" stroke-width="2" fill="#FFFFFF" stroke-linecap="round" stroke-linejoin="round"></path>
        </g>
    </g>
</svg>