<?xml version="1.0" encoding="UTF-8"?>
<svg width="90px" height="90px" viewBox="0 0 90 90" version="1.1" xmlns="http://www.w3.org/2000/svg" xmlns:xlink="http://www.w3.org/1999/xlink">
    <!-- Generator: Sketch 48 (47235) - http://www.bohemiancoding.com/sketch -->
    <title>Group 19</title>
    <desc>Created with Sketch.</desc>
    <defs></defs>
    <g id="Landing-timpersonal" stroke="none" stroke-width="1" fill="none" fill-rule="evenodd" transform="translate(-1216.000000, -934.000000)">
        <g id="block-3" transform="translate(1081.000000, 895.000000)">
            <g id="Group-3" transform="translate(40.000000, 39.000000)">
                <g id="Group-19" transform="translate(95.000000, 0.000000)">
                    <rect id="Rectangle-15" fill="#FFFFFF" x="0" y="0" width="90" height="90"></rect>
                    <g id="8pos" transform="translate(13.000000, 13.000000)">
                        <path d="M5.8876,15.5918 C4.4396,15.5918 3.2596,16.7678 3.2596,18.2158 L3.2596,23.1338 C3.2596,24.5858 4.4396,25.7658 5.8876,25.7658 L58.4176,25.7658 C59.8676,25.7658 61.0476,24.5858 61.0476,23.1338 L61.0476,18.2158 C61.0476,16.7678 59.8676,15.5918 58.4176,15.5918 L5.8876,15.5918 Z" id="Fill-1" fill="#C8DEF2"></path>
                        <path d="M58.8124,28.5646 L58.8124,58.9566 C58.8124,61.2746 56.9344,63.1626 54.6064,63.1626 L9.6964,63.1626 C7.3744,63.1626 5.4944,61.2746 5.4944,58.9566 L5.4944,28.5646" id="Stroke-3" stroke="#007BB8" stroke-width="3.366" stroke-linecap="round" stroke-linejoin="round"></path>
                        <path d="M36.8632,27.3438 L5.8872,27.3438 C3.5652,27.3438 1.6832,25.4638 1.6832,23.1378 L1.6832,18.2178 C1.6832,15.8958 3.5652,14.0118 5.8872,14.0118 L58.4172,14.0118 C60.7412,14.0118 62.6232,15.8958 62.6232,18.2178 L62.6232,23.1378 C62.6232,25.4638 60.7412,27.3438 58.4172,27.3438 L47.6592,27.3438" id="Stroke-5" stroke="#007BB8" stroke-width="3.366" stroke-linecap="round" stroke-linejoin="round"></path>
                        <path d="M32.1522,14.2774 L32.1522,63.5314" id="Stroke-7" stroke="#007BB8" stroke-width="1.684" stroke-linecap="round"></path>
                        <path d="M23.4766,35.9454 C14.9566,17.4874 32.1566,13.5474 32.1566,13.5474 C32.1566,13.5474 44.1706,18.1654 41.8986,31.2934" id="Stroke-9" stroke="#007BB8" stroke-width="1.684" stroke-linejoin="round"></path>
                        <path d="M32.1562,13.547 C32.1562,13.547 24.2742,13.509 22.3162,13.509 C17.7382,13.509 14.5982,8.311 17.1742,3.889 C20.5942,-1.995 27.5542,1.943 29.8782,4.865 C31.6802,7.127 32.1922,10.009 32.1562,13.547 Z" id="Stroke-11" stroke="#007BB8" stroke-width="1.684" stroke-linejoin="round"></path>
                        <path d="M32.2772,13.547 C32.2772,13.547 38.0072,13.509 39.9612,13.509 C42.0232,13.509 47.4212,10.125 44.5932,5.275 C42.0692,0.957 36.8832,1.943 34.5552,4.865 C32.7572,7.127 32.2412,10.009 32.2772,13.547 Z" id="Stroke-13" stroke="#007BB8" stroke-width="1.684" stroke-linejoin="round"></path>
                        <polygon id="Fill-15" fill="#EE412B" points="42.6328 44.5528 36.1408 43.3768 37.6108 35.2528 39.7708 32.3908 43.0868 32.9908 44.1048 36.4288"></polygon>
                        <path d="M39.793,34.8282 C39.793,34.1442 40.347,33.5802 41.039,33.5802 C41.731,33.5802 42.289,34.1442 42.289,34.8282 C42.289,35.5182 41.731,36.0762 41.039,36.0762 C40.347,36.0762 39.793,35.5182 39.793,34.8282" id="Fill-17" fill="#FEFEFE"></path>
                    </g>
                </g>
            </g>
        </g>
    </g>
</svg>