<?xml version="1.0" encoding="UTF-8"?>
<svg width="90px" height="90px" viewBox="0 0 90 90" version="1.1" xmlns="http://www.w3.org/2000/svg" xmlns:xlink="http://www.w3.org/1999/xlink">
    <!-- Generator: Sketch 48 (47235) - http://www.bohemiancoding.com/sketch -->
    <title>Group 23</title>
    <desc>Created with Sketch.</desc>
    <defs></defs>
    <g id="Landing-timpersonal" stroke="none" stroke-width="1" fill="none" fill-rule="evenodd" transform="translate(-133.000000, -932.000000)">
        <g id="block-2" transform="translate(-1.000000, 895.000000)">
            <g id="Group-3" transform="translate(40.000000, 37.000000)">
                <g id="Group-23" transform="translate(94.000000, 0.000000)">
                    <rect id="Rectangle-15" fill="#FFFFFF" x="0" y="0" width="90" height="90"></rect>
                    <g id="icon_time" transform="translate(11.000000, 9.000000)">
                        <path d="M35.5612151,44.9869371 C36.7974703,44.8907471 37.9244696,44.2601676 38.6560097,43.2543281 L49.7751815,27.8829155 C50.1160127,27.4114654 50.0649474,26.7606979 49.6516747,26.3474368 C49.2384021,25.9353632 48.5876164,25.8842994 48.1161531,26.2239335 L32.7419356,37.3463571 C31.7396307,38.0755016 31.1090336,39.2024694 31.0128408,40.4386901 C30.9166481,41.6749107 31.3643601,42.8850057 32.2395956,43.7602167 C33.0364517,44.5582381 34.1111981,45 35.2286969,45 C35.3391404,45 35.449584,44.9952499 35.5612151,44.9869371 Z M33.3808456,40.623945 C33.4224104,40.081243 33.7003006,39.5860422 34.1373246,39.2677836 L43.515526,32.483414 L36.7333418,41.8589782 C36.4126992,42.2995525 35.9174846,42.5762474 35.3747674,42.6189986 C34.8344253,42.6546245 34.3035837,42.4669945 33.917625,42.0810466 C33.5352291,41.6974738 33.3380933,41.1654596 33.3808456,40.623945 Z" id="Shape" fill="#007BB8"></path>
                        <path d="M63.90616,23.4768 C63.8939563,23.4516 63.8939563,23.4252 63.8805322,23.4 C63.8658877,23.376 63.8427006,23.3628 63.8268357,23.34 C62.5930379,21.2592 61.1334709,19.3236 59.4762034,17.5692 L62.0975662,14.9928 L63.8231746,16.6896 L69,11.598 L63.8231746,6.5076 L58.6451289,11.598 L60.3719577,13.296 L57.7505949,15.8724 C55.9664085,14.2428 53.9991661,12.8064 51.8818176,11.5932 C51.8586305,11.5776 51.8452064,11.5548 51.820799,11.5404 C51.7951711,11.526 51.7683229,11.5272 51.742695,11.514 C47.9680791,9.3756 43.7272804,7.9512 39.2057957,7.4292 L39.2057957,6 L41.0363563,6 C42.7192516,6 44.0872906,4.6548 44.0872906,3 C44.0872906,1.3452 42.7180313,0 41.0351359,0 L30.0517723,0 C28.3688769,0 27.000838,1.3452 27.000838,3 C27.000838,4.6548 28.3688769,6 30.0517723,6 L31.8823329,6 L31.8823329,7.3872 C30.5643293,7.5252 29.2487664,7.7364 27.947848,8.0292 C27.2912869,8.1768 26.880021,8.8212 27.0313473,9.4668 C27.1814533,10.1124 27.836794,10.518 28.493355,10.368 C29.6160989,10.1148 30.7498261,9.924 31.885994,9.7956 L33.195455,9.696 C33.5957376,9.666 33.9642905,9.6444 34.3230804,9.6276 L34.3230804,12 C34.3230804,12.6636 34.8685874,13.2 35.5434541,13.2 C36.2183208,13.2 36.7638278,12.6636 36.7638278,12 L36.7638278,9.636 C41.3536534,9.8436 45.678658,11.0556 49.5240556,13.05 L48.3207671,15.0984 C47.9839439,15.6732 48.1840852,16.4064 48.7674239,16.7376 C48.9590225,16.8468 49.1689268,16.8984 49.3763904,16.8984 C49.7986397,16.8984 50.2086852,16.6836 50.4344544,16.2984 L51.6340818,14.2548 C55.4526312,16.6368 58.6963846,19.8264 61.1188264,23.5812 L59.04053,24.7608 C58.4584117,25.092 58.2582704,25.8252 58.5963139,26.4 C58.8233034,26.7852 59.2321286,27 59.6543779,27 C59.8618415,27 60.0717458,26.9484 60.2633444,26.8392 L62.3465224,25.656 C64.4028521,29.4912 65.6390907,33.8136 65.8233672,38.3988 L63.413129,38.3988 C62.7382624,38.3988 62.1927553,38.9352 62.1927553,39.5988 C62.1927553,40.2624 62.7382624,40.7988 63.413129,40.7988 L65.8233672,40.7988 C65.6390907,45.384 64.4028521,49.7064 62.3465224,53.5416 L60.2633444,52.3584 C59.6800058,52.0272 58.9331371,52.2216 58.5963139,52.7976 C58.2594908,53.3724 58.4596321,54.1056 59.0429707,54.4368 L61.1212672,55.6164 C58.6988253,59.3712 55.4550719,62.5608 51.6365225,64.9428 L50.4368951,62.8992 C50.0988516,62.3232 49.3507625,62.1276 48.7698646,62.46 C48.1853056,62.7912 47.9851643,63.5256 48.3232078,64.0992 L49.5264963,66.1476 C45.6810987,68.142 41.3560942,69.354 36.7662686,69.5616 L36.7662686,67.2 C36.7662686,66.5364 36.2207615,66 35.5458948,66 C34.8710282,66 34.3255211,66.5364 34.3255211,67.2 L34.3255211,69.5712 C32.3765843,69.5052 30.4215455,69.2652 28.4970162,68.8308 C27.8404551,68.676 27.1851144,69.0864 27.0350084,69.732 C26.8836821,70.3776 27.294948,71.022 27.9515091,71.1696 C30.3873751,71.7216 32.8757171,72 35.3445332,72 C35.4043315,72 35.4616891,71.9964 35.5214874,71.9952 C35.53003,71.9952 35.5361319,72 35.5434541,72 C35.5532171,72 35.5617597,71.994 35.5715227,71.994 C41.4378592,71.9544 46.9417448,70.3968 51.7036431,67.7064 C51.7414747,67.6896 51.781747,67.6812 51.8183582,67.6596 C51.8427657,67.6452 51.8561898,67.6224 51.8793769,67.6068 C56.8084664,64.782 60.9272278,60.7368 63.8060894,55.8936 C63.8292765,55.8612 63.8585655,55.836 63.8793118,55.8 C63.8939563,55.7748 63.8927359,55.7484 63.9049397,55.7232 C66.6922733,50.9712 68.294624,45.468 68.294624,39.6 C68.294624,33.732 66.6922733,28.2288 63.90616,23.4768 Z M63.8219542,9.9012 L65.5475627,11.598 L63.8219542,13.296 L62.0951254,11.598 L63.8219542,9.9012 Z M34.3230804,7.2252 L34.3230804,3.6 L30.0517723,3.6 C29.7161695,3.6 29.4415854,3.33 29.4415854,3 C29.4415854,2.67 29.7161695,2.4 30.0517723,2.4 L41.0351359,2.4 C41.3707387,2.4 41.6453228,2.67 41.6453228,3 C41.6453228,3.33 41.3707387,3.6 41.0351359,3.6 L36.7638278,3.6 L36.7638278,7.2252 C36.3391378,7.2084 35.9339737,7.2 35.5434541,7.2 C35.5092836,7.2 35.4702317,7.2024 35.4360612,7.2024 C35.4055519,7.2024 35.3750425,7.2 35.3445332,7.2 C35.1443919,7.2 34.9442506,7.2132 34.7441093,7.2168 C34.6025459,7.2204 34.4695252,7.2192 34.3230804,7.2252 Z" id="Shape" stroke="#007BB8" fill="#007BB8"></path>
                        <path d="M23.8571429,17 L18.1428571,17 C17.5108571,17 17,17.447 17,18 C17,18.553 17.5108571,19 18.1428571,19 L23.8571429,19 C24.4891429,19 25,18.553 25,18 C25,17.447 24.4891429,17 23.8571429,17 Z" id="Shape" fill="#ED3124"></path>
                        <path d="M23.8333333,25 L12.1666667,25 C11.5215,25 11,25.447 11,26 C11,26.553 11.5215,27 12.1666667,27 L23.8333333,27 C24.4785,27 25,26.553 25,26 C25,25.447 24.4785,25 23.8333333,25 Z" id="Shape" fill="#ED3124"></path>
                        <path d="M24.7647059,34 L6.23529412,34 C5.55217647,34 5,34.447 5,35 C5,35.553 5.55217647,36 6.23529412,36 L24.7647059,36 C25.4478235,36 26,35.553 26,35 C26,34.447 25.4478235,34 24.7647059,34 Z" id="Shape" fill="#ED3124"></path>
                        <path d="M23.8095238,42 L1.19047619,42 C0.532142857,42 0,42.447 0,43 C0,43.553 0.532142857,44 1.19047619,44 L23.8095238,44 C24.4678571,44 25,43.553 25,43 C25,42.447 24.4678571,42 23.8095238,42 Z" id="Shape" fill="#ED3124"></path>
                        <path d="M23.8,50 L8.2,50 C7.5364,50 7,50.447 7,51 C7,51.553 7.5364,52 8.2,52 L23.8,52 C24.4636,52 25,51.553 25,51 C25,50.447 24.4636,50 23.8,50 Z" id="Shape" fill="#ED3124"></path>
                        <path d="M23.7777778,59 L15.2222222,59 C14.5463333,59 14,59.447 14,60 C14,60.553 14.5463333,61 15.2222222,61 L23.7777778,61 C24.4536667,61 25,60.553 25,60 C25,59.447 24.4536667,59 23.7777778,59 Z" id="Shape" fill="#ED3124"></path>
                    </g>
                </g>
            </g>
        </g>
    </g>
</svg>