<?xml version="1.0" encoding="UTF-8"?>
<svg width="60px" height="48px" viewBox="0 0 60 48" version="1.1" xmlns="http://www.w3.org/2000/svg" xmlns:xlink="http://www.w3.org/1999/xlink">
    <!-- Generator: Sketch 41.2 (35397) - http://www.bohemiancoding.com/sketch -->
    <title>logo-icon</title>
    <desc>Created with Sketch.</desc>
    <defs></defs>
    <g id="Brand" stroke="none" stroke-width="1" fill="none" fill-rule="evenodd">
        <g id="Desktop-HD" transform="translate(-1160.000000, -473.000000)" fill="#00A5FF">
            <g id="text" transform="translate(110.000000, 420.000000)">
                <g id="Group" transform="translate(665.000000, 0.000000)">
                    <g id="docs" transform="translate(277.000000, 0.000000)">
                        <path d="M147.127708,72.5949529 L144.398165,72.5949529 L144.398165,77.3521729 L147.127708,77.3521729 C148.904131,77.3521729 150.01098,76.3699882 150.01098,74.9917202 L150.01098,74.9545611 C150.01098,73.4065432 148.883634,72.5949529 147.127708,72.5949529 M152.395657,74.9358126 C152.395657,77.8992575 149.990653,79.4464308 147.052722,79.4464308 L144.398336,79.4464308 L144.398336,83.6935566 L142.050553,83.6935566 L142.050553,70.4809331 L147.318332,70.4809331 C150.449278,70.4809331 152.395657,72.2367045 152.395657,74.8978088 L152.395657,74.9358126 Z M156.708608,83.6935566 L156.708608,70.4809331 L166.613877,70.4809331 L166.613877,72.5576248 L159.054683,72.5576248 L159.054683,75.9923157 L165.756411,75.9923157 L165.756411,78.0690074 L159.054683,78.0690074 L159.054683,81.6177095 L164.709346,81.6177095 C166.784687,78.9270467 168,76.1502423 168,73.4224203 C168,56.4263163 143.463151,48.888069 127.517189,55.2279326 C119.998989,58.2175578 114.30931,63.7821456 111.065629,70.4809331 L112.411611,70.4809331 L112.411611,75.9737361 L118.787946,75.9737361 L118.787946,70.4809331 L121.135729,70.4809331 L121.135729,83.6935566 L118.787946,83.6935566 L118.787946,78.1255907 L112.411611,78.1255907 L112.411611,83.6935566 L110.065536,83.6935566 L110.065536,72.7881806 C107.357345,79.7825525 107.203616,87.7641763 110.251719,95.2610417 C115.421282,107.977083 149.801908,97.5252184 162.92182,83.6935566 L156.708608,83.6935566 Z M132.777281,78.4279313 L132.777281,83.6935566 L130.409001,83.6935566 L130.409001,78.4845146 L125.10279,70.4809331 L127.890408,70.4809331 L131.611503,76.3132359 L135.391527,70.4809331 L138.083492,70.4809331 L132.777281,78.4279313 Z" id="logo-icon"></path>
                    </g>
                </g>
            </g>
        </g>
    </g>
</svg>