<?xml version="1.0" encoding="utf-8"?>
<!-- Generator: Adobe Illustrator 16.0.4, SVG Export Plug-In . SVG Version: 6.00 Build 0)  -->
<!DOCTYPE svg PUBLIC "-//W3C//DTD SVG 1.1//EN" "http://www.w3.org/Graphics/SVG/1.1/DTD/svg11.dtd">
<svg version="1.1" id="Livello_1" xmlns="http://www.w3.org/2000/svg" xmlns:xlink="http://www.w3.org/1999/xlink" x="0px" y="0px"
	 width="91.169px" height="91.412px" viewBox="0 0 91.169 91.412" enable-background="new 0 0 91.169 91.412" xml:space="preserve">
<g>
	<circle fill="#73C4B7" cx="45.584" cy="45.585" r="45.585"/>
	<path fill="#68697A" d="M54.954,65.582c-0.049-0.545-0.085-1.422-0.113-2.328c8.253-0.846,14.042-2.824,14.042-5.131
		c-0.022-0.004-0.021-0.096-0.021-0.133c-6.17-5.561,5.348-45.068-16.094-44.267c-1.347-1.139-3.704-2.151-7.084-2.151
		C16.64,13.769,29.482,51.078,22.865,58.121c-0.004,0.002-0.01,0.002-0.014,0.002c0,0.004,0.002,0.008,0.002,0.012
		c0,0.002-0.002,0.004-0.002,0.004s0.002,0,0.004,0.002c0.026,2.258,5.62,4.201,13.634,5.066c-0.023,0.551-0.07,1.232-0.175,2.375
		c-2.435,6.547-14.804,6.244-21.833,12.76c3.842,3.354,16.919,13.07,31.282,13.07c14.363,0,26.291-6.816,31.047-12.551
		C69.765,72.533,57.365,72.064,54.954,65.582z"/>
</g>
</svg>
