<?xml version="1.0" encoding="UTF-8"?>
<svg width="60px" height="60px" viewBox="0 0 60 60" version="1.1" xmlns="http://www.w3.org/2000/svg" xmlns:xlink="http://www.w3.org/1999/xlink">
    <!-- Generator: Sketch 47.1 (45422) - http://www.bohemiancoding.com/sketch -->
    <title>Group 11</title>
    <desc>Created with Sketch.</desc>
    <defs></defs>
    <g id="applepay" stroke="none" stroke-width="1" fill="none" fill-rule="evenodd">
        <g id="Landing" transform="translate(-161.000000, -948.000000)">
            <g id="Group-11" transform="translate(161.000000, 948.000000)">
                <rect id="Rectangle-3" fill="#FFFFFF" x="0" y="0" width="60" height="60"></rect>
                <path d="M16.2141062,37.4419241 C15.7533739,37.2536149 15.2276404,36.6354609 15.0714738,36.0983564 C14.8969106,35.4975413 15.0395863,35.0209216 15.731298,33.8995345 C16.6204664,32.4575784 16.8273258,31.6833737 16.8273258,29.7986692 C16.8273258,27.9139648 16.6204664,27.1397601 15.731298,25.6974007 C15.429594,25.2082808 15.1270723,24.6227885 15.0583917,24.3953659 C14.7722226,23.444949 15.5751314,22.280013 16.6535803,22.0804133 C17.5680951,21.9110561 18.1960319,22.3134812 19.0365516,23.6078546 C21.4710333,27.355489 21.4706245,32.3620125 19.0353251,36.0777916 C18.1768177,37.3886975 17.2189687,37.8520106 16.2141062,37.4419241 M23.2530494,41.007701 C22.6713084,40.7488264 22.1709212,40.1427693 22.0351953,39.5314702 C21.9517974,39.1592874 22.094882,38.7471847 22.7845496,37.3693424 C25.3183729,32.3083827 25.3453546,27.4337159 22.8679475,22.4900966 C21.7805048,20.3190977 21.7563848,19.8868335 22.676623,19.0307728 C23.1304055,18.6081861 23.3233652,18.5335882 23.9611136,18.5335882 C25.0309774,18.5335882 25.5857367,19.0638378 26.5415416,21.0005591 C28.0116333,23.9792309 28.613815,26.5635422 28.6085004,29.8744768 C28.6035946,33.2777514 28.0410679,35.6140753 26.4699993,38.7552494 C25.5706106,40.5536623 25.125822,41.0286691 24.2252068,41.150445 C23.9508933,41.1875423 23.5130545,41.1230253 23.2530494,41.007701 M30.796059,44.8351753 C29.8549714,44.5650102 29.1767505,43.4266874 29.4486112,42.5734493 C29.5144301,42.3669947 29.9575835,41.4153682 30.4326242,40.4593061 C32.4456197,36.4104577 33.2832777,32.0700728 32.8728294,27.8087213 C32.5355586,24.3070582 31.8994455,22.098962 30.2968983,18.8678672 C29.2213112,16.7000942 29.171436,16.363799 29.7969199,15.4912059 C30.3913341,14.6613553 31.8749167,14.5266759 32.6545232,15.231928 C33.1945652,15.7206447 34.8747869,19.1815814 35.5231644,21.1416902 C37.6694329,27.6280736 37.3419736,34.5910767 34.5914794,40.9629423 C33.1823008,44.2271021 32.1933821,45.2363908 30.796059,44.8351753 M38.110951,48.6098263 C37.4973226,48.4348237 36.875518,47.7146521 36.7451066,47.0271423 C36.6596647,46.5795552 36.7635032,46.2690669 37.4139247,45.0283233 C40.0417751,40.0141384 41.1839987,35.3995561 41.1839987,29.7986692 C41.1839987,24.3860916 40.173004,20.1743376 37.6608478,15.1266845 C37.1216234,14.0432012 36.6805141,13.0367352 36.6805141,12.8915718 C36.6805141,12.3544673 37.1359319,11.5758271 37.6293692,11.2701776 C38.3059548,10.8516232 39.4400022,10.9298501 39.9824972,11.4322767 C40.1909918,11.6254246 40.7330779,12.5032598 41.1868604,13.3819014 C42.9844114,16.863403 44.2161651,20.6824094 44.8240701,24.6578697 C45.2001782,27.1179856 45.2749909,31.7809557 44.9745134,34.0330042 C44.419754,38.1879025 43.3081913,41.8948105 41.5278105,45.5267175 C40.4522234,47.7219103 39.7764554,48.6251491 39.2110669,48.6251491 C39.0982345,48.6251491 38.913451,48.652972 38.8014362,48.6872467 C38.688195,48.7207149 38.3779059,48.686037 38.110951,48.6098263" id="Fill-1" fill="#00A5FF" transform="translate(30.080000, 29.850000) rotate(-90.000000) translate(-30.080000, -29.850000) "></path>
            </g>
        </g>
    </g>
</svg>