<?xml version="1.0" encoding="UTF-8"?>
<svg width="60px" height="60px" viewBox="0 0 60 60" version="1.1" xmlns="http://www.w3.org/2000/svg" xmlns:xlink="http://www.w3.org/1999/xlink">
    <!-- Generator: Sketch 47.1 (45422) - http://www.bohemiancoding.com/sketch -->
    <title>Group 14</title>
    <desc>Created with Sketch.</desc>
    <defs></defs>
    <g id="applepay" stroke="none" stroke-width="1" fill="none" fill-rule="evenodd">
        <g id="Landing" transform="translate(-868.000000, -946.000000)">
            <g id="Group-14" transform="translate(868.000000, 946.000000)">
                <rect id="Rectangle-3" fill="#FFFFFF" x="0" y="0" width="60" height="60"></rect>
                <g id="Group-24" transform="translate(12.000000, 11.000000)" stroke-width="3" stroke="#00A5FF">
                    <g id="Page-1">
                        <path d="M12.1169591,32.6145446 L12.1169591,32.7806628 C12.1169591,35.6046726 14.3672515,37.7642095 17.3099415,37.7642095 C20.2526316,37.7642095 22.502924,35.6046726 22.502924,32.7806628 L22.502924,32.6145446" id="Fill-1"></path>
                        <path d="M30.8982456,17.1655498 L30.8982456,12.0158848 C30.8982456,5.32132043 25.2638596,0 18.1754386,0 C11.0870175,0 5.45263158,5.32132043 5.45263158,12.0158848 L5.45263158,17.1655498 C5.45263158,22.8301812 0,24.2034252 0,27.4648796 C0,30.3830231 7.08842105,32.6145446 18.1754386,32.6145446 C29.2624561,32.6145446 36.3508772,30.3830231 36.3508772,27.4648796 C36.3508772,24.2034252 30.8982456,22.8301812 30.8982456,17.1655498 L30.8982456,17.1655498 Z" id="Fill-4"></path>
                    </g>
                </g>
            </g>
        </g>
    </g>
</svg>