<?xml version="1.0" encoding="UTF-8"?>
<svg width="60px" height="60px" viewBox="0 0 60 60" version="1.1" xmlns="http://www.w3.org/2000/svg" xmlns:xlink="http://www.w3.org/1999/xlink">
    <!-- Generator: Sketch 47.1 (45422) - http://www.bohemiancoding.com/sketch -->
    <title>Group 6</title>
    <desc>Created with Sketch.</desc>
    <defs></defs>
    <g id="applepay" stroke="none" stroke-width="1" fill="none" fill-rule="evenodd">
        <g id="Landing" transform="translate(-522.000000, -948.000000)">
            <g id="Group-6" transform="translate(522.000000, 948.000000)">
                <rect id="Rectangle-3" fill="#FFFFFF" x="0" y="0" width="60" height="60"></rect>
                <g id="noun_231502_cc" transform="translate(11.000000, 8.000000)" fill-rule="nonzero" fill="#00A5FF">
                    <path d="M17.091,43.537 C16.981,43.537 16.869,43.525 16.757,43.5 C16.061,43.341 15.59,42.723 15.59,42.038 C15.59,41.928 15.602,41.816 15.628,41.704 C17.244,34.606 18.098,26.599 18.098,18.546 C18.098,17.717 18.769,17.046 19.598,17.046 C20.426,17.046 21.098,17.717 21.098,18.546 C21.098,26.819 20.218,35.057 18.553,42.37 C18.394,43.065 17.775,43.537 17.091,43.537 Z M23.278,43.352 C23.18,43.352 23.081,43.343 22.982,43.323 C22.268,43.18 21.775,42.554 21.776,41.853 C21.776,41.755 21.786,41.657 21.805,41.558 C23.016,35.505 23.752,29.337 23.994,23.226 C24.027,22.398 24.732,21.77 25.553,21.787 C26.361,21.819 26.993,22.484 26.993,23.285 C26.993,23.306 26.993,23.325 26.992,23.346 C26.743,29.615 25.987,35.941 24.746,42.147 C24.604,42.858 23.979,43.352 23.278,43.352 Z M11.256,42.055 C11.153,42.055 11.049,42.044 10.945,42.023 C10.239,41.874 9.755,41.251 9.754,40.557 C9.754,40.454 9.765,40.35 9.787,40.245 C10.301,37.811 10.726,35.389 11.053,33.046 C11.167,32.226 11.921,31.65 12.746,31.768 C13.496,31.872 14.038,32.514 14.039,33.25 C14.039,33.319 14.035,33.39 14.025,33.46 C13.689,35.871 13.251,38.362 12.723,40.864 C12.573,41.57 11.95,42.055 11.256,42.055 Z M28.971,41.569 C28.884,41.569 28.797,41.562 28.708,41.547 C27.893,41.402 27.348,40.625 27.491,39.809 C28.726,32.799 29.353,25.632 29.353,18.509 C29.353,13.115 24.965,8.728 19.572,8.728 C16.213,8.728 13.126,10.427 11.314,13.273 C10.869,13.972 9.942,14.178 9.243,13.732 C8.794,13.446 8.549,12.961 8.549,12.465 C8.549,12.19 8.625,11.91 8.784,11.661 C11.15,7.946 15.183,5.727 19.573,5.727 C26.62,5.727 32.354,11.461 32.354,18.508 C32.354,25.805 31.712,33.147 30.447,40.33 C30.317,41.058 29.685,41.569 28.971,41.569 Z M6.437,39.334 C6.343,39.334 6.247,39.325 6.15,39.307 C5.433,39.168 4.935,38.539 4.935,37.835 C4.935,37.74 4.944,37.645 4.963,37.549 C6.177,31.286 6.792,24.88 6.792,18.508 C6.792,17.679 7.463,17.008 8.292,17.008 C9.121,17.008 9.792,17.679 9.792,18.508 C9.792,25.071 9.158,31.669 7.908,38.119 C7.769,38.836 7.141,39.334 6.437,39.334 Z M34.937,37.464 C34.87,37.464 34.801,37.46 34.733,37.45 C33.913,37.339 33.337,36.583 33.449,35.762 C34.225,30.044 34.619,24.24 34.619,18.509 C34.619,17.68 35.291,17.009 36.119,17.009 C36.947,17.009 37.619,17.68 37.619,18.509 C37.619,24.375 37.217,30.315 36.422,36.167 C36.318,36.918 35.675,37.464 34.937,37.464 Z M1.884,34.81 C1.807,34.81 1.73,34.804 1.652,34.792 C0.912,34.677 0.382,34.039 0.382,33.313 C0.382,33.236 0.388,33.158 0.4,33.08 C1.131,28.38 1.51,23.592 1.527,18.851 C1.56,9.863 7.786,2.25 16.331,0.749 C25.495,-0.861 34.338,4.619 36.91,13.494 C36.951,13.633 36.97,13.773 36.97,13.911 C36.971,14.562 36.544,15.162 35.888,15.352 C35.093,15.579 34.259,15.124 34.03,14.329 C31.884,6.927 24.494,2.361 16.852,3.704 C9.738,4.954 4.556,11.328 4.528,18.862 C4.51,23.754 4.119,28.693 3.366,33.542 C3.249,34.28 2.61,34.81 1.884,34.81 Z M13.012,30.831 C12.961,30.831 12.91,30.829 12.859,30.823 C12.087,30.745 11.51,30.094 11.51,29.333 C11.51,29.282 11.512,29.231 11.518,29.18 C11.875,25.655 12.057,22.064 12.057,18.509 C12.057,14.364 15.429,10.992 19.574,10.992 C23.718,10.992 27.09,14.364 27.09,18.509 C27.09,19.338 26.418,20.009 25.59,20.009 C24.762,20.009 24.09,19.338 24.09,18.509 C24.09,16.019 22.064,13.992 19.574,13.992 C17.084,13.992 15.057,16.018 15.057,18.509 C15.057,22.165 14.87,25.857 14.503,29.483 C14.424,30.255 13.772,30.831 13.012,30.831 Z" id="Shape"></path>
                </g>
            </g>
        </g>
    </g>
</svg>