<?xml version="1.0" encoding="UTF-8"?>
<svg width="80px" height="80px" viewBox="0 0 80 80" version="1.1" xmlns="http://www.w3.org/2000/svg" xmlns:xlink="http://www.w3.org/1999/xlink">
    <!-- Generator: Sketch 41.2 (35397) - http://www.bohemiancoding.com/sketch -->
    <title>faq-icon</title>
    <desc>Created with Sketch.</desc>
    <defs></defs>
    <g id="Contacts" stroke="none" stroke-width="1" fill="none" fill-rule="evenodd">
        <g transform="translate(-676.000000, -518.000000)" id="content" fill="#00A5FF">
            <g transform="translate(114.000000, 199.000000)">
                <g id="help" transform="translate(399.000000, 223.000000)">
                    <g id="Group" transform="translate(68.000000, 96.000000)">
                        <g id="faq-icon" transform="translate(95.000000, 0.000000)">
                            <g id="help">
                                <path d="M78.5158621,50.7862069 C78.5172414,50.7793103 78.5144828,50.7710345 78.5172414,50.7641379 C79.4758621,47.3365517 80,43.7296552 80,40 C80,36.2703448 79.4758621,32.6634483 78.5172414,29.2358621 C78.5158621,29.2289655 78.5186207,29.2206897 78.5158621,29.2137931 C78.5131034,29.2027586 78.5048276,29.1958621 78.502069,29.1862069 C78.142069,27.9075862 77.7213793,26.6565517 77.2413793,25.4331034 L77.2413793,24.9793103 C77.2413793,24.4813793 76.9641379,24.0662069 76.5696552,23.8234483 C76.0841379,22.7310345 75.5558621,21.6648276 74.977931,20.6262069 C75.2193103,20.8317241 75.52,20.9682759 75.862069,20.9682759 C76.6234483,20.9682759 77.2413793,20.3517241 77.2413793,19.5889655 L77.2413793,18.2413793 C77.2413793,17.4786207 76.6234483,16.862069 75.862069,16.862069 C75.1006897,16.862069 74.4827586,17.4786207 74.4827586,18.2413793 L74.4827586,19.5889655 C74.4827586,19.6717241 74.5158621,19.742069 74.5296552,19.8206897 C74.4317241,19.6537931 74.3296552,19.4910345 74.2289655,19.3255172 C74.2110345,19.2951724 74.1931034,19.2648276 74.1737931,19.2358621 C74.0786207,19.08 73.9875862,18.9213793 73.8896552,18.7668966 C73.8758621,18.7448276 73.8524138,18.7337931 73.8386207,18.7131034 C72.9406897,17.2896552 71.9613793,15.9227586 70.8965517,14.6275862 C70.8868966,14.6137931 70.8841379,14.5986207 70.8744828,14.5848276 C70.6,14.2524138 70.3213793,13.9241379 70.0372414,13.6013793 C70.0165517,13.577931 69.9875862,13.5682759 69.9655172,13.5462069 C68.8648276,12.3006897 67.6882759,11.1255172 66.4413793,10.0248276 C66.4206897,10.0041379 66.4124138,9.97655172 66.3889655,9.95724138 C66.0662069,9.67448276 65.7393103,9.39586207 65.4082759,9.12413793 C65.3986207,9.11586207 65.3862069,9.11448276 65.3751724,9.1062069 C64.0772414,8.03862069 62.7075862,7.05793103 61.2813793,6.15862069 C61.2606897,6.14344828 61.2496552,6.12137931 61.2262069,6.1062069 C61.0744828,6.01103448 60.9186207,5.92 60.7655172,5.82758621 C60.7365517,5.80965517 60.7075862,5.79172414 60.6772414,5.7737931 C60.5089655,5.67172414 60.3406897,5.56689655 60.1710345,5.46758621 C60.257931,5.48275862 60.337931,5.51724138 60.4303448,5.51724138 L61.777931,5.51724138 C62.5393103,5.51724138 63.1572414,4.90068966 63.1572414,4.13793103 C63.1572414,3.37517241 62.5393103,2.75862069 61.777931,2.75862069 L60.4303448,2.75862069 C59.6689655,2.75862069 59.0510345,3.37517241 59.0510345,4.13793103 C59.0510345,4.48689655 59.1917241,4.79586207 59.4041379,5.03862069 C58.3572414,4.45517241 57.28,3.92 56.177931,3.43034483 C55.9351724,3.03586207 55.5186207,2.75862069 55.022069,2.75862069 L54.5682759,2.75862069 C53.3434483,2.27724138 52.0910345,1.85655172 50.8110345,1.49655172 C50.8027586,1.49517241 50.7972414,1.48827586 50.7875862,1.48551724 C50.782069,1.48413793 50.7751724,1.48551724 50.7696552,1.48551724 C47.3406897,0.524137931 43.7310345,0 40,0 C36.2689655,0 32.6593103,0.524137931 29.2303448,1.48551724 C29.2234483,1.48689655 29.217931,1.48551724 29.2124138,1.48551724 C29.2041379,1.48689655 29.1986207,1.4937931 29.1889655,1.49655172 C27.9089655,1.85655172 26.6565517,2.27724138 25.4317241,2.75862069 L24.977931,2.75862069 C24.48,2.75862069 24.0648276,3.03586207 23.822069,3.43034483 C22.7296552,3.91586207 21.6634483,4.44413793 20.6248276,5.02206897 C20.8303448,4.78068966 20.9668966,4.48 20.9668966,4.13793103 C20.9668966,3.37517241 20.3489655,2.75862069 19.5875862,2.75862069 L18.24,2.75862069 C17.4786207,2.75862069 16.8606897,3.37517241 16.8606897,4.13793103 C16.8606897,4.90068966 17.4786207,5.51724138 18.24,5.51724138 L19.5875862,5.51724138 C19.6703448,5.51724138 19.742069,5.48413793 19.8206897,5.47034483 C19.657931,5.56551724 19.497931,5.6662069 19.3365517,5.76275862 C19.297931,5.7862069 19.2606897,5.80827586 19.222069,5.83172414 C19.0689655,5.92551724 18.9144828,6.01517241 18.7627586,6.10896552 C18.7406897,6.12275862 18.7296552,6.14482759 18.7089655,6.16 C17.2855172,7.06068966 15.9172414,8.04 14.6206897,9.1062069 C14.6096552,9.11448276 14.5958621,9.11724138 14.5848276,9.12551724 C14.2524138,9.39862069 13.9241379,9.67724138 13.6013793,9.96275862 C13.577931,9.98344828 13.5696552,10.0096552 13.5503448,10.0303448 C12.3034483,11.1324138 11.1255172,12.3089655 10.0248276,13.5558621 C10.0041379,13.577931 9.97655172,13.5862069 9.95586207,13.6082759 C9.67172414,13.9310345 9.39310345,14.2593103 9.11862069,14.5917241 C9.10896552,14.6041379 9.10758621,14.6193103 9.09793103,14.6317241 C8.03310345,15.9255172 7.05517241,17.2937931 6.15724138,18.7158621 C6.14206897,18.737931 6.11724138,18.7503448 6.10344828,18.7737931 C6.00413793,18.9324138 5.91034483,19.0937931 5.8137931,19.2537931 C5.80275862,19.2689655 5.79310345,19.2855172 5.78344828,19.302069 C5.67724138,19.4772414 5.56965517,19.6510345 5.4662069,19.8275862 C5.48275862,19.742069 5.51724138,19.662069 5.51724138,19.5696552 L5.51724138,18.222069 C5.51724138,17.4593103 4.89931034,16.8427586 4.13793103,16.8427586 C3.37655172,16.8427586 2.75862069,17.4593103 2.75862069,18.222069 L2.75862069,19.5696552 C2.75862069,20.3324138 3.37655172,20.9489655 4.13793103,20.9489655 C4.48689655,20.9489655 4.79586207,20.8082759 5.03862069,20.5958621 C4.45517241,21.6427586 3.92,22.72 3.43034483,23.822069 C3.03586207,24.0648276 2.75862069,24.4813793 2.75862069,24.977931 L2.75862069,25.4317241 C2.27862069,26.6551724 1.85655172,27.9075862 1.49793103,29.1848276 C1.49517241,29.1958621 1.48689655,29.2027586 1.48413793,29.2124138 C1.48275862,29.2193103 1.48551724,29.2275862 1.48275862,29.2344828 C0.524137931,32.6634483 0,36.2703448 0,40 C0,43.7296552 0.524137931,47.3365517 1.48275862,50.7641379 C1.48413793,50.7710345 1.48137931,50.7793103 1.48413793,50.7862069 C1.48689655,50.7986207 1.49517241,50.8082759 1.49931034,50.8206897 C1.85793103,52.0965517 2.27862069,53.3462069 2.75862069,54.5682759 L2.75862069,55.022069 C2.75862069,55.52 3.03586207,55.9351724 3.43034483,56.177931 C3.91586207,57.2703448 4.44413793,58.3365517 5.02206897,59.3751724 C4.78068966,59.1696552 4.47862069,59.0331034 4.13793103,59.0331034 C3.37655172,59.0331034 2.75862069,59.6496552 2.75862069,60.4124138 L2.75862069,61.76 C2.75862069,62.5227586 3.37655172,63.1393103 4.13793103,63.1393103 C4.89931034,63.1393103 5.51724138,62.5227586 5.51724138,61.76 L5.51724138,60.4124138 C5.51724138,60.3310345 5.48413793,60.2606897 5.47034483,60.182069 C5.57241379,60.3558621 5.67862069,60.5268966 5.78344828,60.697931 C5.79310345,60.7144828 5.80275862,60.7310345 5.8137931,60.7475862 C5.91310345,60.9103448 6.00827586,61.0744828 6.10896552,61.2344828 C6.13103448,61.2703448 6.16275862,61.2965517 6.18758621,61.3296552 C7.07862069,62.737931 8.04827586,64.0924138 9.10344828,65.3751724 C9.11310345,65.3889655 9.11586207,65.4041379 9.12551724,65.417931 C9.4,65.7503448 9.67862069,66.0786207 9.96275862,66.4013793 C9.98206897,66.4234483 10.0096552,66.4303448 10.0303448,66.4510345 C11.1324138,67.6993103 12.3103448,68.8758621 13.5586207,69.977931 C13.5793103,69.9986207 13.5875862,70.0262069 13.6110345,70.0455172 C13.9337931,70.3282759 14.2606897,70.6068966 14.5917241,70.8786207 C14.6027586,70.8882759 14.617931,70.8910345 14.6289655,70.8993103 C15.9255172,71.9655172 17.2937931,72.9448276 18.7186207,73.8441379 C18.7393103,73.8593103 18.7503448,73.8813793 18.7737931,73.8965517 C18.9255172,73.9917241 19.0813793,74.0827586 19.2344828,74.1751724 C19.2634483,74.1931034 19.2924138,74.2110345 19.3227586,74.2289655 C19.4910345,74.3310345 19.657931,74.4358621 19.8289655,74.5351724 C19.742069,74.5172414 19.662069,74.4827586 19.5696552,74.4827586 L18.222069,74.4827586 C17.4606897,74.4827586 16.8427586,75.0993103 16.8427586,75.862069 C16.8427586,76.6248276 17.4606897,77.2413793 18.222069,77.2413793 L19.5696552,77.2413793 C20.3310345,77.2413793 20.9489655,76.6248276 20.9489655,75.862069 C20.9489655,75.5144828 20.8082759,75.2041379 20.5958621,74.9613793 C21.6427586,75.5448276 22.72,76.08 23.822069,76.5696552 C24.0648276,76.9641379 24.4813793,77.2413793 24.977931,77.2413793 L25.4317241,77.2413793 C26.6565517,77.7227586 27.9089655,78.1434483 29.1889655,78.5034483 C29.1972414,78.5048276 29.2027586,78.5117241 29.2124138,78.5144828 C29.222069,78.5172414 29.2303448,78.5158621 29.24,78.5172414 C32.6662069,79.4758621 36.2717241,80 40,80 C43.7282759,80 47.3337931,79.4758621 50.76,78.5172414 C50.7696552,78.5158621 50.777931,78.5158621 50.7875862,78.5144828 C50.7958621,78.5131034 50.8013793,78.5062069 50.8110345,78.5034483 C52.0910345,78.1434483 53.3434483,77.7227586 54.5682759,77.2413793 L55.022069,77.2413793 C55.52,77.2413793 55.9351724,76.9641379 56.177931,76.5696552 C57.2703448,76.0841379 58.337931,75.5558621 59.3751724,74.977931 C59.1696552,75.2193103 59.0331034,75.52 59.0331034,75.862069 C59.0331034,76.6248276 59.6510345,77.2413793 60.4124138,77.2413793 L61.76,77.2413793 C62.5213793,77.2413793 63.1393103,76.6248276 63.1393103,75.862069 C63.1393103,75.0993103 62.5213793,74.4827586 61.76,74.4827586 L60.4124138,74.4827586 C60.3296552,74.4827586 60.257931,74.5158621 60.1793103,74.5296552 C60.342069,74.4344828 60.502069,74.3337931 60.6634483,74.2372414 C60.702069,74.2137931 60.7393103,74.1917241 60.777931,74.1682759 C60.9310345,74.0744828 61.0855172,73.9848276 61.2372414,73.8910345 C61.2593103,73.8772414 61.2703448,73.8551724 61.2910345,73.84 C62.7131034,72.942069 64.0813793,71.9641379 65.3751724,70.8993103 C65.3875862,70.8896552 65.4041379,70.8855172 65.4165517,70.8758621 C65.7489655,70.6027586 66.0772414,70.3241379 66.4,70.0386207 C66.422069,70.0193103 66.4303448,69.9917241 66.4510345,69.9710345 C67.6993103,68.8675862 68.8772414,67.6882759 69.9806897,66.44 C70,66.4206897 70.0262069,66.4137931 70.0441379,66.3931034 C70.3282759,66.0703448 70.6068966,65.742069 70.8813793,65.4096552 C70.8910345,65.3972414 70.8924138,65.382069 70.902069,65.3696552 C71.9572414,64.0868966 72.9268966,62.7324138 73.817931,61.3241379 C73.8427586,61.2910345 73.8744828,61.2648276 73.8965517,61.2289655 C73.9958621,61.0703448 74.0896552,60.9089655 74.1862069,60.7489655 C74.1958621,60.7324138 74.2068966,60.7158621 74.2165517,60.6993103 C74.3227586,60.5241379 74.4303448,60.3503448 74.5337931,60.1737931 C74.5172414,60.2593103 74.4827586,60.337931 74.4827586,60.4303448 L74.4827586,61.777931 C74.4827586,62.5406897 75.1006897,63.1572414 75.862069,63.1572414 C76.6234483,63.1572414 77.2413793,62.5406897 77.2413793,61.777931 L77.2413793,60.4303448 C77.2413793,59.6675862 76.6234483,59.0510345 75.862069,59.0510345 C75.5131034,59.0510345 75.2041379,59.1917241 74.9613793,59.4041379 C75.5448276,58.3572414 76.08,57.28 76.5696552,56.177931 C76.9641379,55.9351724 77.2413793,55.5186207 77.2413793,55.022069 L77.2413793,54.5682759 C77.7213793,53.3475862 78.1406897,52.097931 78.5006897,50.8206897 C78.5034483,50.8082759 78.5131034,50.8 78.5158621,50.7862069 Z M71.8234483,59.3255172 C68.7227586,64.4124138 64.4386207,68.6993103 59.3558621,71.8041379 C59.3131034,71.8303448 59.2689655,71.8565517 59.2262069,71.8827586 C56.7986207,73.3517241 54.1875862,74.5475862 51.44,75.4358621 L47.5931034,60.0482759 C53.3213793,57.8703448 57.8717241,53.32 60.0496552,47.5917241 L75.4372414,51.4386207 C74.5434483,54.1986207 73.3434483,56.822069 71.8634483,59.2606897 C71.8496552,59.2813793 71.8372414,59.3034483 71.8234483,59.3255172 Z M20.7613793,71.8744828 C20.7268966,71.8537931 20.6924138,71.8331034 20.657931,71.8124138 C15.5724138,68.7089655 11.2841379,64.4193103 8.18206897,59.3324138 C8.16551724,59.3062069 8.14896552,59.2786207 8.1337931,59.2524138 C6.65655172,56.8165517 5.45655172,54.1958621 4.56413793,51.4386207 L19.9517241,47.5917241 C22.1282759,53.32 26.68,57.8703448 32.4082759,60.0482759 L28.5613793,75.4358621 C25.8082759,74.5448276 23.1931034,73.3475862 20.7613793,71.8744828 Z M8.17655172,20.6744828 C11.2772414,15.5875862 15.5613793,11.3006897 20.6441379,8.19586207 C20.6868966,8.16965517 20.7310345,8.14344828 20.7737931,8.11724138 C23.2013793,6.64827586 25.8124138,5.45241379 28.56,4.56413793 L32.4068966,19.9517241 C26.6786207,22.1296552 22.1282759,26.68 19.9503448,32.4082759 L4.56275862,28.5613793 C5.45655172,25.8013793 6.65655172,23.177931 8.13655172,20.7393103 C8.15034483,20.7186207 8.16275862,20.6965517 8.17655172,20.6744828 Z M19.137931,35.0468966 C18.76,36.64 18.537931,38.2924138 18.537931,40 C18.537931,41.7075862 18.76,43.36 19.137931,44.9531034 L3.81517241,48.7834483 C3.12965517,45.9655172 2.75862069,43.0262069 2.75862069,40 C2.75862069,36.9737931 3.12965517,34.0344828 3.81517241,31.2165517 L19.137931,35.0468966 Z M21.2965517,40 C21.2965517,29.6868966 29.6868966,21.2965517 40,21.2965517 C50.3131034,21.2965517 58.7034483,29.6868966 58.7034483,40 C58.7034483,50.3131034 50.3131034,58.7034483 40,58.7034483 C29.6868966,58.7034483 21.2965517,50.3131034 21.2965517,40 Z M59.2386207,8.12551724 C59.2731034,8.1462069 59.3075862,8.16689655 59.342069,8.18758621 C64.422069,11.2882759 68.7048276,15.5696552 71.8055172,20.6482759 C71.8303448,20.6896552 71.8551724,20.7296552 71.8786207,20.7696552 C73.3489655,23.1986207 74.5448276,25.8110345 75.4344828,28.56 L60.0468966,32.4068966 C57.8703448,26.6786207 53.3186207,22.1282759 47.5903448,19.9503448 L51.4372414,4.56275862 C54.1917241,5.45517241 56.8068966,6.65241379 59.2386207,8.12551724 Z M77.2413793,40 C77.2413793,43.0262069 76.8703448,45.9655172 76.1848276,48.7834483 L60.862069,44.9531034 C61.24,43.36 61.462069,41.7075862 61.462069,40 C61.462069,38.2924138 61.24,36.64 60.862069,35.0468966 L76.1848276,31.2165517 C76.8703448,34.0344828 77.2413793,36.9737931 77.2413793,40 Z M48.7834483,3.81517241 L44.9531034,19.1393103 C43.36,18.76 41.7075862,18.537931 40,18.537931 C38.2924138,18.537931 36.64,18.76 35.0468966,19.137931 L31.2165517,3.8137931 C34.0344828,3.13103448 36.9737931,2.75862069 40,2.75862069 C43.0262069,2.75862069 45.9655172,3.13103448 48.7834483,3.81517241 Z M31.2165517,76.1848276 L35.0468966,60.8606897 C36.64,61.2386207 38.2924138,61.4606897 40,61.4606897 C41.7075862,61.4606897 43.36,61.2386207 44.9531034,60.8606897 L48.7834483,76.1848276 C45.9655172,76.8689655 43.0262069,77.2413793 40,77.2413793 C36.9737931,77.2413793 34.0344828,76.8689655 31.2165517,76.1848276 Z" id="Shape"></path>
                                <path d="M5.45931034,7.77793103 C5.86206897,7.77793103 6.26344828,7.60137931 6.53517241,7.26344828 C6.75448276,6.99034483 7.00275862,6.74206897 7.27172414,6.52827586 C7.86758621,6.05241379 7.96551724,5.18482759 7.49103448,4.59034483 C7.01517241,3.99310345 6.14758621,3.89517241 5.55172414,4.36965517 C5.12413793,4.71172414 4.73103448,5.10206897 4.38482759,5.5337931 C3.90758621,6.12689655 4.00137931,6.99586207 4.59586207,7.47310345 C4.84965517,7.67724138 5.15448276,7.77793103 5.45931034,7.77793103 Z" id="Shape"></path>
                                <path d="M4.13793103,14.2124138 C4.89931034,14.2124138 5.51724138,13.5958621 5.51724138,12.8331034 L5.51724138,11.4841379 C5.51724138,10.7213793 4.89931034,10.1048276 4.13793103,10.1048276 C3.37655172,10.1048276 2.75862069,10.7213793 2.75862069,11.4841379 L2.75862069,12.8331034 C2.75862069,13.5944828 3.37655172,14.2124138 4.13793103,14.2124138 Z" id="Shape"></path>
                                <path d="M11.502069,5.51724138 L12.8496552,5.51724138 C13.6110345,5.51724138 14.2289655,4.90068966 14.2289655,4.13793103 C14.2289655,3.37517241 13.6110345,2.75862069 12.8496552,2.75862069 L11.502069,2.75862069 C10.7406897,2.75862069 10.1227586,3.37517241 10.1227586,4.13793103 C10.1227586,4.90068966 10.7406897,5.51724138 11.502069,5.51724138 Z" id="Shape"></path>
                                <path d="M74.4827586,11.502069 L74.4827586,12.8510345 C74.4827586,13.6137931 75.1006897,14.2303448 75.862069,14.2303448 C76.6234483,14.2303448 77.2413793,13.6137931 77.2413793,12.8510345 L77.2413793,11.502069 C77.2413793,10.7393103 76.6234483,10.1227586 75.862069,10.1227586 C75.1006897,10.1227586 74.4827586,10.7393103 74.4827586,11.502069 Z" id="Shape"></path>
                                <path d="M73.4731034,7.27034483 C73.7462069,7.61241379 74.1475862,7.79034483 74.5531034,7.79034483 C74.8551724,7.79034483 75.1572414,7.69241379 75.4124138,7.48965517 C76.0082759,7.0137931 76.1062069,6.1462069 75.6317241,5.55172414 C75.2882759,5.12137931 74.8965517,4.72827586 74.4662069,4.38206897 C73.8731034,3.90758621 73.0041379,4.00137931 72.5268966,4.59448276 C72.0496552,5.18896552 72.1448276,6.05793103 72.7393103,6.5337931 C73.0096552,6.75310345 73.2565517,7 73.4731034,7.27034483 Z" id="Shape"></path>
                                <path d="M67.1668966,5.51724138 L68.5144828,5.51724138 C69.2758621,5.51724138 69.8937931,4.90068966 69.8937931,4.13793103 C69.8937931,3.37517241 69.2758621,2.75862069 68.5144828,2.75862069 L67.1668966,2.75862069 C66.4055172,2.75862069 65.7875862,3.37517241 65.7875862,4.13793103 C65.7875862,4.90068966 66.4055172,5.51724138 67.1668966,5.51724138 Z" id="Shape"></path>
                                <path d="M73.4662069,72.7365517 C73.2468966,73.0096552 72.9986207,73.257931 72.7296552,73.4717241 C72.1337931,73.9475862 72.0358621,74.8151724 72.5103448,75.4096552 C72.7834483,75.7517241 73.1848276,75.9296552 73.5903448,75.9296552 C73.8924138,75.9296552 74.1944828,75.8317241 74.4496552,75.6289655 C74.8786207,75.2868966 75.2717241,74.8965517 75.617931,74.4648276 C76.0951724,73.8703448 76.0013793,73.0013793 75.4068966,72.5255172 C74.8124138,72.0510345 73.9434483,72.1462069 73.4662069,72.7365517 Z" id="Shape"></path>
                                <path d="M68.497931,74.4827586 L67.1503448,74.4827586 C66.3889655,74.4827586 65.7710345,75.0993103 65.7710345,75.862069 C65.7710345,76.6248276 66.3889655,77.2413793 67.1503448,77.2413793 L68.497931,77.2413793 C69.2593103,77.2413793 69.8772414,76.6248276 69.8772414,75.862069 C69.8772414,75.0993103 69.2593103,74.4827586 68.497931,74.4827586 Z" id="Shape"></path>
                                <path d="M75.862069,65.7875862 C75.1006897,65.7875862 74.4827586,66.4041379 74.4827586,67.1668966 L74.4827586,68.5158621 C74.4827586,69.2786207 75.1006897,69.8951724 75.862069,69.8951724 C76.6234483,69.8951724 77.2413793,69.2786207 77.2413793,68.5158621 L77.2413793,67.1668966 C77.2413793,66.4055172 76.6234483,65.7875862 75.862069,65.7875862 Z" id="Shape"></path>
                                <path d="M12.8331034,74.4827586 L11.4855172,74.4827586 C10.7241379,74.4827586 10.1062069,75.0993103 10.1062069,75.862069 C10.1062069,76.6248276 10.7241379,77.2413793 11.4855172,77.2413793 L12.8331034,77.2413793 C13.5944828,77.2413793 14.2124138,76.6248276 14.2124138,75.862069 C14.2124138,75.0993103 13.5944828,74.4827586 12.8331034,74.4827586 Z" id="Shape"></path>
                                <path d="M5.51724138,68.497931 L5.51724138,67.1489655 C5.51724138,66.3862069 4.89931034,65.7696552 4.13793103,65.7696552 C3.37655172,65.7696552 2.75862069,66.3862069 2.75862069,67.1489655 L2.75862069,68.497931 C2.75862069,69.2606897 3.37655172,69.8772414 4.13793103,69.8772414 C4.89931034,69.8772414 5.51724138,69.2606897 5.51724138,68.497931 Z" id="Shape"></path>
                                <path d="M6.52689655,72.7296552 C6.05103448,72.1324138 5.18344828,72.0372414 4.58896552,72.5103448 C3.99310345,72.9862069 3.89517241,73.8537931 4.36965517,74.4482759 C4.71310345,74.8786207 5.10482759,75.2717241 5.53517241,75.617931 C5.79034483,75.8206897 6.09517241,75.9213793 6.39724138,75.9213793 C6.8,75.9213793 7.20137931,75.7448276 7.47310345,75.4055172 C7.95034483,74.8110345 7.85517241,73.942069 7.26068966,73.4662069 C6.99034483,73.2468966 6.74344828,73 6.52689655,72.7296552 Z" id="Shape"></path>
                            </g>
                        </g>
                    </g>
                </g>
            </g>
        </g>
    </g>
</svg>