<svg xmlns="http://www.w3.org/2000/svg" xmlns:xlink="http://www.w3.org/1999/xlink" width="80" height="80"><g fill="#00a5ff" fill-rule="evenodd"><path d="M78.516 50.786c.001-.007-.001-.015.001-.022C79.476 47.337 80 43.73 80 40s-.524-7.337-1.483-10.764c-.001-.007.001-.015-.001-.022s-.01-.018-.014-.028a39.81 39.81 0 0 0-1.261-3.753v-.454c0-.498-.277-.913-.672-1.156a39.87 39.87 0 0 0-1.592-3.197 1.35 1.35 0 0 0 .884.342 1.38 1.38 0 0 0 1.379-1.379v-1.35a1.38 1.38 0 0 0-1.379-1.379 1.38 1.38 0 0 0-1.379 1.379v1.348c0 .083.033.153.047.232-.098-.167-.2-.33-.3-.495-.018-.03-.036-.06-.055-.1l-.284-.47c-.014-.022-.037-.033-.05-.054-.898-1.423-1.877-2.8-2.942-4.086-.01-.014-.012-.03-.022-.043l-.837-.983c-.02-.023-.05-.033-.072-.055a40.24 40.24 0 0 0-3.524-3.521c-.02-.02-.03-.048-.052-.068l-.98-.833c-.01-.008-.022-.01-.033-.018-1.298-1.068-2.668-2.048-4.094-2.948-.02-.015-.032-.037-.055-.052l-.46-.28-.088-.054-.506-.306c.087.015.167.05.26.05h1.348a1.38 1.38 0 0 0 1.379-1.379 1.38 1.38 0 0 0-1.379-1.379H60.43a1.38 1.38 0 0 0-1.379 1.379c0 .35.14.658.353.9a39.55 39.55 0 0 0-3.226-1.608c-.243-.394-.66-.672-1.156-.672h-.454a39.91 39.91 0 0 0-3.757-1.262c-.008-.001-.014-.008-.023-.01A40.06 40.06 0 0 0 40 0a39.83 39.83 0 0 0-10.77 1.486c-.026.001-.032.008-.04.01-1.28.36-2.532.78-3.757 1.262h-.454c-.498 0-.913.277-1.156.672a39.87 39.87 0 0 0-3.197 1.592 1.35 1.35 0 0 0 .342-.884 1.38 1.38 0 0 0-1.379-1.379h-1.35a1.38 1.38 0 0 0-1.379 1.379 1.38 1.38 0 0 0 1.379 1.379h1.348c.083 0 .154-.033.233-.047l-1.058.64c-.022.014-.033.036-.054.05a40.55 40.55 0 0 0-4.088 2.946c-.01.008-.025.01-.036.02-.332.273-.66.552-.983.837-.023.02-.032.047-.05.068a40.46 40.46 0 0 0-3.526 3.526c-.02.022-.048.03-.07.052-.284.323-.563.65-.837.983-.01.012-.01.028-.02.04a40.02 40.02 0 0 0-2.94 4.084c-.015.022-.04.034-.054.058-.1.16-.193.32-.3.48a.57.57 0 0 0-.03.048l-.317.526c.017-.086.05-.166.05-.258v-1.348a1.38 1.38 0 0 0-1.379-1.379 1.38 1.38 0 0 0-1.379 1.379v1.348a1.38 1.38 0 0 0 1.379 1.379c.35 0 .658-.14.9-.353a39.55 39.55 0 0 0-1.608 3.226c-.394.243-.672.66-.672 1.156v.454a39.55 39.55 0 0 0-1.261 3.753c-.003.01-.01.018-.014.028s.001.015-.001.022C.524 32.663 0 36.27 0 40s.524 7.337 1.483 10.764c.001.007-.001.015.001.022.003.012.01.022.015.034a39.44 39.44 0 0 0 1.259 3.748v.454c0 .498.277.913.672 1.156a39.87 39.87 0 0 0 1.592 3.197c-.24-.206-.543-.342-.884-.342a1.38 1.38 0 0 0-1.379 1.379v1.348a1.38 1.38 0 0 0 1.379 1.379 1.38 1.38 0 0 0 1.379-1.379v-1.348c0-.08-.033-.152-.047-.23l.313.516a.96.96 0 0 0 .03.05l.295.487c.022.036.054.062.08.095.9 1.408 1.86 2.763 2.916 4.046.01.014.012.03.022.043.274.332.553.66.837.983.02.022.047.03.068.05a40.16 40.16 0 0 0 3.528 3.527c.02.02.03.048.052.068a40.09 40.09 0 0 0 .981.833c.01.01.026.012.037.02a39.34 39.34 0 0 0 4.1 2.945c.02.015.032.037.055.052l.548.334.506.306c-.087-.018-.167-.052-.26-.052H18.23a1.38 1.38 0 0 0-1.379 1.379 1.38 1.38 0 0 0 1.379 1.379h1.348a1.38 1.38 0 0 0 1.379-1.379c0-.348-.14-.658-.353-.9a39.55 39.55 0 0 0 3.226 1.608c.243.394.66.672 1.156.672h.454a39.91 39.91 0 0 0 3.757 1.262c.008.001.014.008.023.01s.018.001.028.003A39.83 39.83 0 0 0 40 80c3.728 0 7.334-.524 10.76-1.483.01-.001.018-.001.028-.003s.014-.008.023-.01c1.28-.36 2.532-.78 3.757-1.262h.454c.498 0 .913-.277 1.156-.672a39.64 39.64 0 0 0 3.197-1.592 1.35 1.35 0 0 0-.342.884 1.38 1.38 0 0 0 1.379 1.379h1.348a1.38 1.38 0 0 0 1.379-1.379 1.38 1.38 0 0 0-1.379-1.379h-1.348c-.083 0-.154.033-.233.047l1.058-.64c.022-.014.033-.036.054-.05 1.422-.898 2.8-1.876 4.084-2.94.012-.01.03-.014.04-.023.332-.273.66-.552.983-.837.022-.02.03-.047.05-.068a40.83 40.83 0 0 0 3.53-3.53c.02-.02.046-.026.063-.047.284-.323.563-.65.837-.983.01-.012.01-.028.02-.04 1.055-1.283 2.025-2.637 2.916-4.046.025-.033.057-.06.08-.095.1-.16.193-.32.3-.48l.03-.05.317-.526c-.017.086-.05.164-.05.257v1.348a1.38 1.38 0 0 0 1.379 1.379 1.38 1.38 0 0 0 1.379-1.379v-1.35a1.38 1.38 0 0 0-1.379-1.379c-.35 0-.658.14-.9.353a39.55 39.55 0 0 0 1.608-3.226c.394-.243.672-.66.672-1.156v-.454a39.44 39.44 0 0 0 1.26-3.748c.003-.012.012-.02.015-.034zm-6.692 8.54a37.53 37.53 0 0 1-12.468 12.479l-.13.08c-2.428 1.47-5.04 2.665-7.786 3.553L47.593 60.05c5.728-2.178 10.28-6.728 12.457-12.457l15.388 3.847a37.1 37.1 0 0 1-3.574 7.822c-.014.02-.026.043-.04.065zM20.76 71.874l-.103-.062a37.53 37.53 0 0 1-12.476-12.48c-.017-.026-.033-.054-.048-.08a37.09 37.09 0 0 1-3.57-7.814L19.95 47.59a21.54 21.54 0 0 0 12.457 12.457L28.56 75.436a37.09 37.09 0 0 1-7.8-3.561zm-12.585-51.2A37.53 37.53 0 0 1 20.644 8.196l.13-.08c2.428-1.47 5.04-2.665 7.786-3.553l3.847 15.388c-5.727 2.18-10.28 6.73-12.457 12.457L4.563 28.56a37.1 37.1 0 0 1 3.574-7.822c.014-.02.026-.043.04-.065zm10.96 14.372c-.378 1.593-.6 3.246-.6 4.953s.222 3.36.6 4.953l-15.323 3.83C3.13 45.966 2.76 43.026 2.76 40s.37-5.966 1.057-8.783l15.323 3.83zM21.297 40c0-10.313 8.4-18.703 18.703-18.703S58.703 29.687 58.703 40 50.313 58.703 40 58.703 21.297 50.313 21.297 40zM59.24 8.126l.103.062c5.08 3.1 9.363 7.382 12.463 12.46l.073.12a36.98 36.98 0 0 1 3.556 7.8l-15.388 3.847A21.54 21.54 0 0 0 47.59 19.95l3.847-15.388a37.6 37.6 0 0 1 7.8 3.563zM77.24 40c0 3.026-.37 5.966-1.057 8.783l-15.323-3.83c.378-1.593.6-3.246.6-4.953s-.222-3.36-.6-4.953l15.323-3.83A37.08 37.08 0 0 1 77.24 40zM48.783 3.815l-3.83 15.324A21.33 21.33 0 0 0 40 18.538c-1.708 0-3.36.222-4.953.6l-3.83-15.324A37.25 37.25 0 0 1 40 2.759a37.18 37.18 0 0 1 8.783 1.057zm-17.567 72.37l3.83-15.324c1.593.378 3.246.6 4.953.6s3.36-.222 4.953-.6l3.83 15.324a37.18 37.18 0 0 1-17.567 0zM5.46 7.778a1.38 1.38 0 0 0 1.076-.514 4.7 4.7 0 0 1 .737-.735 1.38 1.38 0 1 0-1.72-2.159 7.51 7.51 0 0 0-1.167 1.164 1.38 1.38 0 0 0 .211 1.939c.254.204.56.305.863.305zm-1.322 6.434a1.38 1.38 0 0 0 1.379-1.379v-1.35a1.38 1.38 0 0 0-1.379-1.379 1.38 1.38 0 0 0-1.379 1.379v1.35a1.38 1.38 0 0 0 1.379 1.379z"/><use xlink:href="#B"/><path d="M74.483 11.502v1.35a1.38 1.38 0 0 0 1.379 1.379 1.38 1.38 0 0 0 1.379-1.379v-1.35a1.38 1.38 0 0 0-1.379-1.379 1.38 1.38 0 0 0-1.379 1.379zm-1-4.232a1.38 1.38 0 0 0 1.94.22 1.38 1.38 0 0 0 .219-1.938c-.343-.43-.735-.823-1.166-1.17-.593-.474-1.462-.38-1.94.212a1.38 1.38 0 0 0 .212 1.939c.27.22.517.466.734.737z"/><use xlink:href="#B" x="55.665"/><path d="M73.466 72.737a4.7 4.7 0 0 1-.737.735 1.38 1.38 0 1 0 1.721 2.158 7.46 7.46 0 0 0 1.168-1.164 1.38 1.38 0 0 0-.211-1.939c-.594-.474-1.463-.38-1.94.2zm-4.968 1.746H67.15a1.38 1.38 0 0 0-1.379 1.379 1.38 1.38 0 0 0 1.379 1.379h1.348a1.38 1.38 0 0 0 1.379-1.379 1.38 1.38 0 0 0-1.379-1.379zm7.364-8.695a1.38 1.38 0 0 0-1.379 1.379v1.35a1.38 1.38 0 0 0 1.379 1.379 1.38 1.38 0 0 0 1.379-1.379v-1.35a1.38 1.38 0 0 0-1.379-1.379zm-63.03 8.695h-1.348a1.38 1.38 0 0 0-1.379 1.379 1.38 1.38 0 0 0 1.379 1.379h1.348a1.38 1.38 0 0 0 1.379-1.379 1.38 1.38 0 0 0-1.379-1.379zm-7.316-5.985v-1.35a1.38 1.38 0 0 0-1.379-1.379 1.38 1.38 0 0 0-1.379 1.379v1.35a1.38 1.38 0 0 0 1.379 1.379 1.38 1.38 0 0 0 1.379-1.379zm1 4.232a1.38 1.38 0 0 0-1.938-.219 1.38 1.38 0 0 0-.219 1.938c.343.43.735.823 1.166 1.17a1.38 1.38 0 0 0 1.938-.213 1.38 1.38 0 0 0-.212-1.939c-.27-.22-.517-.466-.734-.737z"/></g><defs ><path id="B" d="M11.502 5.517h1.348a1.38 1.38 0 0 0 1.379-1.379 1.38 1.38 0 0 0-1.379-1.379h-1.348a1.38 1.38 0 0 0-1.379 1.379 1.38 1.38 0 0 0 1.379 1.379z"/></defs></svg>