<svg xmlns="http://www.w3.org/2000/svg" width="197" height="40" fill="#bab7cc" fill-rule="evenodd"><path d="M32.606 16.33h-2.275v3.964h2.275c1.48 0 2.403-.818 2.403-1.967v-.03c0-1.3-.94-1.966-2.403-1.966m4.4 1.95c0 2.47-2.004 3.76-4.452 3.76h-2.212v3.54h-1.956v-11.01h4.4c2.61 0 4.23 1.463 4.23 3.68v.032zm3.594 7.298v-11.01h8.254v1.73h-6.3v2.862h5.585v1.73h-5.585v2.957h4.712C48.987 21.606 50 19.292 50 17.02 50 2.855 29.553-3.427 16.264 1.857 10 4.348 5.258 8.985 2.555 14.567h1.122v4.577H9v-4.577h1.956v11.01H9v-4.64H3.676v4.64H1.72V16.5a25.28 25.28 0 0 0 .155 18.727c4.308 10.597 32.958 1.887 43.892-9.64H40.59zM20.648 21.2v4.388h-1.974v-4.34l-4.422-6.67h2.323l3.1 4.86 3.15-4.86h2.243L20.648 21.2z"/><text font-family="Muli-Regular, Muli" font-size="15"><tspan x="59" y="25">Money is just a tool</tspan></text></svg>