<?xml version="1.0" encoding="utf-8"?>
<!-- Generator: Adobe Illustrator 23.0.2, SVG Export Plug-In . SVG Version: 6.00 Build 0)  -->
<svg version="1.1" id="Livello_1" xmlns="http://www.w3.org/2000/svg" xmlns:xlink="http://www.w3.org/1999/xlink" x="0px" y="0px"
	 width="196.7px" height="40px" viewBox="0 0 196.7 40" style="enable-background:new 0 0 196.7 40;" xml:space="preserve">
<style type="text/css">
	.st0{fill-rule:evenodd;clip-rule:evenodd;fill:#BAB7CC;}
	.st1{enable-background:new    ;}
	.st2{fill:#BAB7CC;}
</style>
<title>Group 2</title>
<desc>Created with Sketch.</desc>
<g id="Symbols">
	<g id="footer" transform="translate(-110.000000, -110.000000)">
		<g id="footer-logo" transform="translate(110.000000, 110.000000)">
			<g id="Group-2">
				<path id="hype_logo_white" class="st0" d="M32.6,16.3h-2.3v4h2.3c1.5,0,2.4-0.8,2.4-2v0C35,17,34.1,16.3,32.6,16.3 M37,18.3
					c0,2.5-2,3.8-4.5,3.8h-2.2v3.5h-2v-11h4.4C35.4,14.6,37,16,37,18.3L37,18.3z M40.6,25.6v-11h8.3v1.7h-6.3v2.9h5.6v1.7h-5.6v3
					h4.7C49,21.6,50,19.3,50,17C50,2.9,29.6-3.4,16.3,1.9C10,4.3,5.3,9,2.6,14.6h1.1v4.6H9v-4.6h2v11H9v-4.6H3.7v4.6h-2v-9.1
					C-0.5,22.3-0.7,29,1.9,35.2c4.3,10.6,33,1.9,43.9-9.6H40.6z M20.6,21.2v4.4h-2v-4.3l-4.4-6.7h2.3l3.1,4.9l3.2-4.9h2.2L20.6,21.2
					z"/>
				
			</g>
		</g>
	</g>
</g>
</svg>
