<svg xmlns="http://www.w3.org/2000/svg" xmlns:xlink="http://www.w3.org/1999/xlink" width="16" height="16"><g transform="translate(-3994 273)"><mask id="A"><use xlink:href="#B" fill="#fff" x="3994" y="-273"/></mask><g><use xlink:href="#C" fill="#00a5ff" x="3994" y="-273"/></g><use xlink:href="#D" fill="#00a5ff" x="3999.6" y="-269"/></g><defs><path id="B" d="M16 8A8 8 0 1 1 0 8a8 8 0 1 1 16 0z"/><path id="C" d="M14.5 8A6.5 6.5 0 0 1 8 14.5v3A9.5 9.5 0 0 0 17.5 8h-3zM8 14.5A6.5 6.5 0 0 1 1.5 8h-3A9.5 9.5 0 0 0 8 17.5v-3zM1.5 8A6.5 6.5 0 0 1 8 1.5v-3A9.5 9.5 0 0 0-1.5 8h3zM8 1.5A6.5 6.5 0 0 1 14.5 8h3A9.5 9.5 0 0 0 8-1.5v3z"/><path id="D" d="M1.632 4.937l.01-.057c.053-.39.17-.697.35-.926a3.82 3.82 0 0 1 .561-.583l.53-.48c.16-.16.24-.37.24-.63s-.08-.476-.24-.65c-.16-.183-.384-.274-.672-.274-.28 0-.498.072-.652.217-.147.137-.267.32-.36.55-.047.1-.1.187-.2.263-.08.07-.204.103-.37.103H.45c-.167 0-.294-.057-.38-.17-.08-.114-.1-.282-.03-.503.114-.48.36-.9.742-1.257C1.168.18 1.713 0 2.414 0c.715 0 1.3.2 1.724.57.44.38.662.918.662 1.61 0 .442-.084.792-.25 1.05a3.01 3.01 0 0 1-.571.663l-.61.537a1.08 1.08 0 0 0-.361.651l-.01.057c-.027.145-.077.25-.15.32-.067.07-.174.103-.32.103h-.44c-.187 0-.317-.05-.39-.15-.074-.107-.094-.267-.06-.48zm-.1 2.4v-.32c0-.22.05-.385.15-.49.1-.114.244-.17.43-.17h.34c.187 0 .327.057.42.17.1.107.15.27.15.49v.32c0 .22-.05.39-.15.503-.094.107-.234.16-.42.16h-.34c-.187 0-.33-.053-.43-.16-.1-.114-.15-.282-.15-.503z"/></defs></svg>