<?xml version="1.0" encoding="utf-8"?>
<!-- Generator: Adobe Illustrator 20.1.0, SVG Export Plug-In . SVG Version: 6.00 Build 0)  -->
<svg version="1.1" id="Hype_x5F_minori" xmlns="http://www.w3.org/2000/svg" xmlns:xlink="http://www.w3.org/1999/xlink" x="0px"
	 y="0px" viewBox="0 0 188 278" style="enable-background:new 0 0 188 278;" xml:space="preserve">
<style type="text/css">
	.st0{fill:#FFFFFF;stroke:#282941;stroke-width:3;stroke-linecap:round;stroke-linejoin:round;stroke-miterlimit:10;}
	.st1{fill:#FFDDBA;}
	.st2{fill:#736D91;}
	.st3{fill:#453F6B;}
	.st4{fill:none;stroke:#BAB7CC;stroke-width:2;stroke-miterlimit:10;}
	.st5{fill:none;stroke:#453F6B;stroke-miterlimit:10;}
	.st6{fill:none;stroke:#F2EEE6;stroke-width:3;stroke-linecap:round;stroke-linejoin:round;stroke-miterlimit:10;}
	.st7{fill:none;stroke:#F2EEE6;stroke-width:2;stroke-linecap:round;stroke-linejoin:round;stroke-miterlimit:10;}
	.st8{fill:none;stroke:#F2EEE6;stroke-width:3;stroke-miterlimit:10;}
	.st9{fill:none;stroke:#F2EEE6;stroke-width:2;stroke-miterlimit:10;}
	.st10{fill:#F2EEE6;}
	.st11{fill:none;stroke:#F2EEE6;stroke-width:4;stroke-linecap:round;stroke-linejoin:round;stroke-miterlimit:10;}
	.st12{fill:#F2EEE6;stroke:#F2EEE6;stroke-width:3;stroke-linecap:round;stroke-linejoin:round;stroke-miterlimit:10;}
	
		.st13{clip-path:url(#SVGID_2_);fill:none;stroke:#F2EEE6;stroke-width:3;stroke-linecap:round;stroke-linejoin:round;stroke-miterlimit:10;}
	.st14{fill:none;stroke:#F2EEE6;stroke-width:3;stroke-linecap:round;stroke-miterlimit:10;}
	.st15{fill:#FFFFFF;stroke:#F2EEE6;stroke-width:2;stroke-miterlimit:10;}
	.st16{fill:#FFFFFF;stroke:#F2EEE6;stroke-linecap:round;stroke-linejoin:round;stroke-miterlimit:10;}
	.st17{fill:#FFFFFF;stroke:#F2EEE6;stroke-width:2;stroke-linecap:round;stroke-linejoin:round;stroke-miterlimit:10;}
	.st18{fill:#282941;stroke:#F2EEE6;stroke-width:3;stroke-linecap:round;stroke-linejoin:round;stroke-miterlimit:10;}
	
		.st19{clip-path:url(#SVGID_4_);fill:none;stroke:#F2EEE6;stroke-width:3;stroke-linecap:round;stroke-linejoin:round;stroke-miterlimit:10;}
	.st20{fill:#FFFFFF;stroke:#F2EEE6;stroke-width:3;stroke-linecap:round;stroke-linejoin:round;stroke-miterlimit:10;}
	
		.st21{clip-path:url(#SVGID_6_);fill:none;stroke:#F2EEE6;stroke-width:3;stroke-linecap:round;stroke-linejoin:round;stroke-miterlimit:10;}
	
		.st22{clip-path:url(#SVGID_8_);fill:none;stroke:#F2EEE6;stroke-width:3;stroke-linecap:round;stroke-linejoin:round;stroke-miterlimit:10;}
	.st23{fill:#C8CBD7;stroke:#F2EEE6;stroke-width:3;stroke-linecap:round;stroke-linejoin:round;stroke-miterlimit:10;}
	.st24{fill:#BAB7CC;}
	.st25{fill:#15102F;}
	.st26{fill:#0F0B22;}
	.st27{fill:#1B143C;}
	.st28{fill:#FFB077;}
	.st29{fill:#FFC296;}
	.st30{fill:#E9E3D7;}
	.st31{fill:#2EB5FF;}
	.st32{fill:#B9E6FF;}
	.st33{fill:#5CC5FF;}
	.st34{fill:#016AA3;}
	.st35{fill:#0087D1;}
	.st36{fill:#003C5D;}
	.st37{fill:#00A5FF;}
	.st38{fill:#FCA664;}
	.st39{fill:#FEFAF2;}
	.st40{fill:#201849;}
	.st41{fill:none;stroke:#E9E3D7;stroke-width:3;stroke-linecap:round;stroke-linejoin:round;stroke-miterlimit:10;}
	.st42{fill:#FFC296;stroke:#FCA664;stroke-width:3;stroke-linecap:round;stroke-linejoin:round;stroke-miterlimit:10;}
	.st43{fill:none;stroke:#FCA664;stroke-width:3;stroke-linecap:round;stroke-linejoin:round;stroke-miterlimit:10;}
	.st44{fill:none;stroke:#FFC296;stroke-width:2;stroke-linecap:round;stroke-linejoin:round;stroke-miterlimit:10;}
	.st45{fill:#FFC296;stroke:#FFC296;stroke-width:0.25;stroke-linecap:round;stroke-linejoin:round;stroke-miterlimit:10;}
	.st46{fill:#FFB077;stroke:#FFB077;stroke-width:0.25;stroke-linecap:round;stroke-linejoin:round;stroke-miterlimit:10;}
	.st47{fill:none;}
	.st48{fill:#3DB8DE;}
	.st49{fill:none;stroke:#5CC5FF;stroke-miterlimit:10;}
	.st50{fill:none;stroke:#016AA3;stroke-miterlimit:10;}
	.st51{fill:#5CC5FF;stroke:#5CC5FF;stroke-miterlimit:10;}
	.st52{fill:#B9E6FF;stroke:#5CC5FF;stroke-miterlimit:10;}
	.st53{opacity:0.7;fill:url(#SVGID_9_);}
	.st54{opacity:0.7;fill:url(#SVGID_10_);}
	.st55{fill:#201849;stroke:#201849;stroke-miterlimit:10;}
	.st56{fill:none;stroke:#00A5FF;stroke-width:2;stroke-linecap:round;stroke-linejoin:round;stroke-miterlimit:10;}
	.st57{fill:#201849;stroke:#201849;stroke-width:2;stroke-linecap:round;stroke-linejoin:round;stroke-miterlimit:10;}
	.st58{fill:#B9E6FF;stroke:#B9E6FF;stroke-linecap:round;stroke-linejoin:round;stroke-miterlimit:10;}
	.st59{fill:#5CC5FF;stroke:#5CC5FF;stroke-linecap:round;stroke-linejoin:round;stroke-miterlimit:10;}
	.st60{fill:#FFFFFF;stroke:#2EB5FF;stroke-linecap:round;stroke-linejoin:round;stroke-miterlimit:10;}
	.st61{fill:none;stroke:#F2EEE6;stroke-linecap:round;stroke-linejoin:round;stroke-miterlimit:10;}
	.st62{fill:none;stroke:#282941;stroke-width:3;stroke-linecap:round;stroke-linejoin:round;stroke-miterlimit:10;}
	.st63{fill:none;stroke:#201849;stroke-width:2;stroke-miterlimit:10;}
	.st64{opacity:0.7;fill:url(#SVGID_11_);}
	.st65{opacity:0.7;fill:url(#SVGID_12_);}
	.st66{fill:none;stroke:#736D91;stroke-width:2;stroke-miterlimit:10;}
	.st67{fill:none;stroke:#016AA3;stroke-width:3;stroke-linecap:round;stroke-linejoin:round;stroke-miterlimit:10;}
	.st68{fill:#5CC5FF;stroke:#2EB5FF;stroke-miterlimit:10;}
	.st69{fill:#00A5FF;stroke:#00A5FF;stroke-width:2;stroke-miterlimit:10;}
	.st70{fill:none;stroke:#016AA3;stroke-width:2;stroke-linecap:round;stroke-linejoin:round;stroke-miterlimit:10;}
	.st71{fill:#016AA3;stroke:#016AA3;stroke-width:2;stroke-linecap:round;stroke-linejoin:round;stroke-miterlimit:10;}
	.st72{fill:none;stroke:#736D91;stroke-width:2;stroke-linecap:round;stroke-linejoin:round;stroke-miterlimit:10;}
	.st73{fill:none;stroke:#1B143C;stroke-width:2;stroke-linecap:round;stroke-linejoin:round;stroke-miterlimit:10;}
	.st74{fill:#003C5D;stroke:#016AA3;stroke-width:2;stroke-linecap:round;stroke-linejoin:round;stroke-miterlimit:10;}
	
		.st75{clip-path:url(#SVGID_14_);fill:none;stroke:#F2EEE6;stroke-width:3;stroke-linecap:round;stroke-linejoin:round;stroke-miterlimit:10;}
	
		.st76{clip-path:url(#SVGID_16_);fill:none;stroke:#F2EEE6;stroke-width:3;stroke-linecap:round;stroke-linejoin:round;stroke-miterlimit:10;}
	.st77{fill:#FFFFFF;stroke:#F2EEE6;stroke-width:3;stroke-miterlimit:10;}
	
		.st78{clip-path:url(#SVGID_18_);fill:none;stroke:#F2EEE6;stroke-width:3;stroke-linecap:round;stroke-linejoin:round;stroke-miterlimit:10;}
	
		.st79{clip-path:url(#SVGID_20_);fill:none;stroke:#F2EEE6;stroke-width:3;stroke-linecap:round;stroke-linejoin:round;stroke-miterlimit:10;}
	
		.st80{clip-path:url(#SVGID_22_);fill:none;stroke:#F2EEE6;stroke-width:3;stroke-linecap:round;stroke-linejoin:round;stroke-miterlimit:10;}
	
		.st81{clip-path:url(#SVGID_24_);fill:none;stroke:#F2EEE6;stroke-width:3;stroke-linecap:round;stroke-linejoin:round;stroke-miterlimit:10;}
	.st82{opacity:0.7;fill:url(#SVGID_25_);}
	.st83{opacity:0.7;fill:url(#SVGID_26_);}
	.st84{clip-path:url(#SVGID_28_);}
</style>
<g>
	<defs>
		<rect id="SVGID_27_" x="-48.6" width="278" height="278"/>
	</defs>
	<clipPath id="SVGID_2_">
		<use xlink:href="#SVGID_27_"  style="overflow:visible;"/>
	</clipPath>
	<g style="clip-path:url(#SVGID_2_);">
		<path class="st57" d="M155.6,79.3c-0.8-1.5-1.8-2.9-3.2-3.9c1.6-2.5-52.1-2.5-47.9,0.6c-3.8,0.5-7.4,2.3-10.5,5.1
			c-3.1-2.8-6.7-4.6-10.5-5.1c4.2-3-49.4-3.1-47.9-0.6c-1.3,1-2.4,2.3-3.2,3.9c-1.4,2.2-2.1,5.4-1.5,8.6c1,5.7,5.2,9.7,9.5,9
			c-3.5,5.8-4.4,9.9-3.5,15.7c0.9,5.5,4.4,10,7.9,13c-2.7,4.4-2.7,10.6-1.6,16.9c1.9,11.2,12.1,13.8,20.6,12.3
			c4.1-0.8,53.1-0.8,57.2,0c8.5,1.6,18.8-1,20.6-12.3c1.1-6.3,4.2-12.5,1.5-16.9c3.4-3,6.9-7.4,7.9-13c1-5.8,0-9.9-3.5-15.7
			c4.3,0.6,8.5-3.3,9.5-9C157.7,84.7,157.1,81.6,155.6,79.3z"/>
		<g>
			<g>
				<path class="st1" d="M143.7,84.8c0,80.8-17.7,106.1-51.2,106.1c-32,0-51.2-25.7-51.2-106.1H143.7z"/>
				<path class="st1" d="M45.8,125.4l3.5,22.5C43.6,150,25.9,131.1,45.8,125.4z"/>
				<path class="st29" d="M45.3,143.3c-2.3-1.7-4.9-4.8-5.4-8c-0.1-0.9-0.5-3.4,3.3-5.4L45.3,143.3z"/>
				<path class="st1" d="M138.1,125.4l-3.5,22.5C140.3,150,158,131.1,138.1,125.4z"/>
				<path class="st29" d="M140.7,129.9c3.8,2,3.4,4.5,3.3,5.4c-0.4,3.2-3.1,6.3-5.4,8L140.7,129.9z"/>
			</g>
			<ellipse class="st34" cx="116" cy="116.7" rx="2.4" ry="2.4"/>
			<ellipse class="st34" cx="69.1" cy="115.3" rx="2.4" ry="2.4"/>
			<path class="st44" d="M103.1,164.9c0,3.5-2.5,6.9-9.7,6.9c-6.8,0-9.8-3.5-9.8-6.9H103.1z"/>
			<g>
				<polygon class="st45" points="99.4,146.5 85.8,146.5 93.5,119.1 				"/>
				<polygon class="st46" points="92.6,146.5 85.8,146.5 93.5,119.1 				"/>
			</g>
			<g>
				<path class="st57" d="M44.6,63.5c-3,0-3.2,1.6-3.2,3.7l-1.6,44.5c0,1.9,0.4,7.6,0.4,7.6c0.1,0,0.6,4.1,0.6,4.1l2.1,3.5l5.5-31.6
					c0-1.4,8-9.6,9.7-9.6l69.4-0.1l13.9-22H46.2C45.9,63.8,44.6,63.5,44.6,63.5z"/>
				<path class="st57" d="M141.2,63.5L127.9,86l8,9.3l5.5,31.6l2.1-3.5c0,0,0.5-4.1,0.6-4.1c0,0,0.4-5.7,0.4-7.6V67.2
					C144.4,65.2,144.2,63.5,141.2,63.5z"/>
			</g>
			<path class="st45" d="M45.3,126.9l4.1-30.3c0-1.4,7.3-8.6,9-8.6l1.8-0.1L52.5,97L45.3,126.9z"/>
			<path class="st45" d="M139.2,127.4l-4.7-29.9c-0.1-0.4-0.2-0.8-0.5-1.1c-1.6-1.9-7.1-8.5-7.7-8.5h-2.9l7.7,9.5
				c0.2,0.2,0.3,0.5,0.4,0.8L139.2,127.4z"/>
		</g>
		<g>
			<line class="st72" x1="147.8" y1="72.8" x2="185.3" y2="72.8"/>
			<path class="st2" d="M147.8,73.8c0-0.6,0-12.6,0-13.2c0-25.5-30.3-41.8-55.5-41.8c-23.4,0-55.5,16.8-55.5,41.3
				c0,0.8-0.1,12.9-0.1,13.7H147.8z"/>
			<path class="st30" d="M63.4,71.7c0-0.6,0-12.1,0-12.7c0-18.9,13.4-32.5,28.2-37.8l0.7-0.2l0.7,0.2c14.8,5.3,28.1,18.9,28.1,37.8
				c0,0.6,0,12.1,0,12.7"/>
		</g>
		<path class="st1" d="M180.9,332c0.8-2.3,1.1-4.6,0.8-6.8l0,0c0,0,0-0.1,0-0.1c-0.1-1.2-0.4-2.4-0.9-3.4c-7-40.5-1.8-71.6-36-73.2
			c-0.3,0-2.8,0.3-3.1,0.3l8.6,44.4l7.3,36l-17.4,63.8l0,0c-0.8,2.4-1.7,4.7-2.5,7.1c-3,0.9-10.6,4.6-13.9,8.4
			c-0.6,0.7-0.6,1.7-0.2,2.4l1.4,2.6c-2.9,7.3-3,11.3,1.4,11.8c0.5,0.1,0.5,1,1.2,1.7l14.3,0.7c1.6-2,3.2-5.1,5.2-9.7
			c4.8-10.9,5-11.6,3.2-14.4c0.3-0.9,0.6-2.2,1.1-3.7l0,0l28.8-66.2c0-0.1,0.1-0.2,0.1-0.3C180.6,332.9,180.7,332.5,180.9,332
			L180.9,332L180.9,332z"/>
		<path class="st37" d="M182.1,307.3l-5.1-56.5l0,0h0l-0.3-3l0,0c-3.6-26.3-39.9-47-84.3-47c-44.4,0-80.7,20.7-84.3,47l0,0l-0.3,3h0
			l0,0l-5.1,56.5l36.7,3.4l2.7-29.4l-0.6,102.2h99l2.4-98.3l1.5,25.4L182.1,307.3z"/>
		<path class="st27" d="M55.8,206.9c0-1.3-1-2.3-2.3-2.3L40,210c0,0-2.3,1-2.3,2.3c0,0,0,37.4,1.4,52.7c3.1,33.9,2.1,55.6,3.4,53.5
			c0,0,9.8-40.6,10.6-53.5C53.4,260.3,55.8,206.9,55.8,206.9z"/>
		<polygon class="st3" points="53.3,261.4 38.9,261.4 38.2,247.7 53.9,247.7 		"/>
		<g>
			<path class="st27" d="M128.4,206.9c0-1.3,1-2.3,2.3-2.3l13.5,5.3c0,0,2.3,1,2.3,2.3c0,0,0,37.4-1.4,52.7
				c-3.1,33.9-2.1,55.6-3.4,53.5c0,0-9.8-40.6-10.6-53.5C130.7,260.3,128.4,206.9,128.4,206.9z"/>
			<polygon class="st3" points="130.9,262.4 145.3,262.4 146,248.7 130.2,248.7 			"/>
		</g>
		<g>
			<path class="st1" d="M73.1,181.7l38.5,0.1l-0.1,23.1c0,6.1-11.7,12-19.1,12c-7.5,0-19.1-5.9-19.1-12L73.1,181.7z"/>
		</g>
	</g>
</g>
</svg>
