<svg xmlns="http://www.w3.org/2000/svg" width="40" height="40" fill="#00a5ff" fill-rule="evenodd"><path d="M20 0C8.972 0 0 8.972 0 20s8.972 20 20 20 20-8.972 20-20S31.028 0 20 0zm0 38.462C9.82 38.462 1.538 30.18 1.538 20S9.82 1.538 20 1.538 38.462 9.82 38.462 20 30.18 38.462 20 38.462zm0-10a.77.77 0 0 0-.769.769v1.538a.77.77 0 0 0 .769.769.77.77 0 0 0 .769-.769v-1.54a.77.77 0 0 0-.769-.769zm.087-21.538c-.03 0-.058-.001-.088-.001a6.11 6.11 0 0 0-4.32 1.772 6.11 6.11 0 0 0-1.833 4.382.77.77 0 0 0 .769.769.77.77 0 0 0 .769-.769 4.58 4.58 0 0 1 1.375-3.286c.887-.874 2.068-1.358 3.307-1.328 2.432.034 4.515 2.117 4.548 4.548.022 1.603-.768 3.078-2.116 3.948-2.046 1.32-3.268 3.652-3.268 6.24v2.186a.77.77 0 0 0 .769.769.77.77 0 0 0 .769-.769V23.2c0-2.032.982-3.927 2.563-4.948a6.12 6.12 0 0 0 2.82-5.262 6.2 6.2 0 0 0-6.066-6.065z"/></svg>