<svg xmlns="http://www.w3.org/2000/svg" width="36" height="31" fill-rule="evenodd"><g fill="#bab7cc"><path d="M31.3 20.25v9.044H4.234v-8.987c-.564-.398-.62-.626-.902-.995-.338-.483-.507-1.052-.79-1.62V31h30.73V16.98c-.564.967-.874 1.962-1.494 2.816-.085.17-.48.313-.48.455"/><path d="M34.598 16.467c-7.527-5.432-14.237-4.75-14.237-4.75l-17.987-1.65-.14 2.816 9.416.284s7.16-.398 10.713-.427c3.552 0 7.217 2.93 8.655 4 1.4 1.08 2.735 1.85 3.75 1.138.028-.028.085-.057.113-.085.536-.654-.282-1.337-.282-1.337"/><path d="M1.443 17.605c-.423.34-.818.7-1.212 1.08 0 0-.76.967.48 1.365.76.256 1.128.34 2.086-.313l1.9-1.593c.423-.37.846-.683 1.27-.995 3.355-2.76 6.964-3.27 6.964-3.27s2.706-.768 6.06.654l14.294-2.474-.536-.114.874-2.2c0-.028-22.103-.313-32.168 7.85M5.25 2.9h2.086v4.465h2.932v1.792H5.25zm5.582 0h5.3v1.706H12.9v.626h3.045V6.74H12.9v.683h3.3V9.13h-5.357zm9.248 6.4c-.48 0-.93-.085-1.353-.228s-.8-.37-1.1-.654-.564-.626-.733-1.024a3.43 3.43 0 0 1-.282-1.337V6.03a3.38 3.38 0 0 1 .254-1.308c.17-.398.423-.74.733-1.052.3-.284.677-.512 1.1-.683a3.58 3.58 0 0 1 1.353-.256c.536 0 1.015.085 1.438.256s.818.398 1.156.7L21.46 5.12a2.23 2.23 0 0 0-.648-.398 2.1 2.1 0 0 0-.733-.142c-.197 0-.395.028-.564.114a1.61 1.61 0 0 0-.451.313c-.113.142-.226.284-.282.455s-.113.37-.113.597v.028c0 .228.028.427.113.597a1.42 1.42 0 0 0 .31.483c.14.142.282.228.48.313.17.085.367.114.592.114.17 0 .3 0 .423-.028a.84.84 0 0 0 .282-.114v-.626H19.8V5.5h3.017v2.9a3.86 3.86 0 0 1-1.212.683c-.423.142-.96.228-1.522.228m7.1-2.475L26.62 5.3l-.564 1.536h1.128zm-1.58-3.982h2.058l2.622 6.314H28.03l-.338-.853h-2.17l-.3.853h-2.227l2.622-6.314zM5.25 21.928h1.945l2.2 2.76v-2.76h2.058v6.257H9.62l-2.312-2.872v2.844H5.25zm6.766 0h5.272v1.706h-3.242v.626h3.017v1.507h-3.017v.683h3.3v1.706h-5.328zm8.852 2.957c.254 0 .45-.057.592-.17a.55.55 0 0 0 .226-.455v-.028c0-.2-.056-.34-.226-.455-.14-.085-.338-.142-.564-.142h-.902v1.223l.874.028zm-2.96-2.958h3.017c.564 0 1.015.057 1.353.2a2.38 2.38 0 0 1 .874.512c.197.2.338.398.423.654a2.39 2.39 0 0 1 .14.825v.028c0 .455-.113.853-.338 1.166s-.507.57-.902.74l1.438 2.133h-2.368l-1.156-1.792h-.45v1.763h-2.06l.028-6.228zm8.74 4.41c.48 0 .846-.114 1.128-.313s.423-.54.423-.995-.14-.768-.423-.995c-.282-.2-.648-.313-1.128-.313H26.3v2.617h.338zm-2.425-4.408h2.368c.62 0 1.156.085 1.607.228s.846.34 1.156.626a2.41 2.41 0 0 1 .677.967c.14.37.226.796.226 1.25v.028c0 .455-.085.882-.226 1.28-.17.398-.395.7-.705.995s-.705.483-1.184.654c-.48.142-1.015.228-1.635.228h-2.312l.028-6.257z"/><path d="M30.172 19.396c-2.03 1.735-6.033 1.706-7.838-.028 0 0-.17-.17-.197-.228-1.4-1.45-2.17-4.35-1.466-6.37.3-.9 1.973-1.25 2.706-1.45 1.297-.313 2.622-.427 3.947-.455 1.804 0 4.736-.114 4.82 2.702.028 2.048-.507 4.58-1.973 5.83m-17.705.2c-2.03 1.735-6.23 1.337-8.007-.74-.733-.853-1.184-2.247-1.38-3.413-.282-1.593-.367-3.555 1.156-4.152 1.55-.597 3.468-.54 5.075-.37 1.438.17 3.158.398 4.398 1.308 2.114 1.564.3 6.058-1.24 7.366m22.526-9.87c-2.114-.17-4.23-.228-6.343-.17l-3.214.2-4.257.74c-.874.17-1.72.37-2.566.654-1.663.626-3.524-.34-5.187-.654-3.27-.626-6.57-.995-9.952-.825-.96.057-1.917-.057-2.847.085-.846.114-.45 1.166-.367 1.877.085.768.3.9.76 1.394s.592 1.25.76 1.934c.338 1.422.818 3.1 1.607 4.266 1.635 2.417 5.44 2.9 7.866 2.218 1.38-.398 2.453-1.223 3.242-2.56.423-.71.846-1.507 1.1-2.304.226-.683.3-1.45.677-2.076.338-.57 1.156-.512 1.663-.398.62.142.76.57.987 1.194.423 1.194.76 2.39 1.38 3.47 1.663 2.872 4.877 3.27 7.584 2.787 1.27-.228 2.82-.654 3.665-1.85.818-1.138 1.27-2.53 1.663-3.896.282-.94.338-2.617 1.212-3.128.79-.483.705-2.048.564-2.958"/><path d="M3.53 9.442l.705-.028V1.706H31.3v7.65l1.973.057V0H2.543v9.47H2.9l.62-.028m10.685 2.93l-.874-2.076 2.735.2 1.184.7 3.3-.626-.367 1.564-.874 3.1-.226.683-.62-1.394-1.184-.313-.3.2-.507.2-.564 1.194z"/></g><path fill="#fff" d="M13.82 10.694l2.284.17.282.882-.846-.057.93 1.308-.197.085-1.72-1.65 1.043 1.763-1.07-.768z"/><g fill="#bab7cc"><path d="M16.075 10.495l.484 1.25-.308-1.166zM15.54 11.7l1.692 2.417-1.776-2.36zM14 10.353l2.396 4.18-2.566-4.2zm3.27 3.782l.592-3.043.254-.057zm1.2.398l1.212-3.754h-.226z"/><path d="M18.105 11.035l.484 3.498-.298-3.527zm-2.565.655l2.227.242.028-.242z"/></g></svg>