<svg xmlns="http://www.w3.org/2000/svg" width="16" height="18" fill="#00a5ff"><path d="M14 9.7a.7.7 0 0 0 0-1.4v1.4zM6 8.3a.7.7 0 0 0 0 1.4V8.3zm8 0H6v1.4h8V8.3z"/><path d="M8.495 6.828a.7.7 0 1 0-.99-.99l1 1zM5.333 9l-.495-.495a.7.7 0 0 0 0 .99L5.333 9zm2.172 3.162a.7.7 0 0 0 .99-.99l-1 1zm0-6.323L4.838 8.505l1 1 2.667-2.667-1-1zM4.838 9.495l2.667 2.667 1-1-2.667-2.667-1 1zM11.3 3.667a.7.7 0 0 0 1.4 0h-1.4zm.7-2h.7a.7.7 0 0 0-.7-.7v.7zm-9.333 0v-.7a.7.7 0 0 0-.7.7h.7zm0 14.667h-.7a.7.7 0 0 0 .7.7v-.7zm9.333 0v.7a.7.7 0 0 0 .7-.7H12zm.7-2a.7.7 0 0 0-1.4 0h1.4zm0-10.667v-2h-1.4v2h1.4zm-.7-2.7H2.667v1.4H12v-1.4zm-10.033.7v14.667h1.4V1.667h-1.4zm.7 15.367H12v-1.4H2.667v1.4zm10.033-.7v-2h-1.4v2h1.4z"/></svg>