<svg xmlns="http://www.w3.org/2000/svg" width="60" height="48"><path d="M39.128 19.595h-2.73v4.757h2.73c1.776 0 2.883-.982 2.883-2.36v-.037c0-1.548-1.127-2.36-2.883-2.36m5.268 2.34c0 2.963-2.405 4.51-5.343 4.51h-2.654v4.247H34.05V17.48h5.268c3.13 0 5.077 1.756 5.077 4.417v.038zm4.313 8.758V17.48h9.905v2.077h-7.56v3.435h6.702v2.077h-6.702v3.55h5.655c2.075-2.69 3.29-5.467 3.29-8.195C60 3.426 35.463-4.112 19.517 2.228 12 5.218 6.31 10.782 3.066 17.48h1.346v5.493h6.376V17.48h2.348v13.213h-2.348v-5.568H4.412v5.568H2.066V19.788c-2.708 6.994-2.862 14.976.186 22.473 5.17 12.716 39.55 2.264 52.67-11.567H48.71zm-23.93-5.266v5.266H22.41v-5.21l-5.306-8.004H19.9l3.72 5.832 3.78-5.832h2.692l-5.306 7.947z" fill="#00a5ff" fill-rule="evenodd"/></svg>