<?xml version="1.0" encoding="UTF-8"?>
<svg width="57px" height="20px" viewBox="0 0 57 20" version="1.1" xmlns="http://www.w3.org/2000/svg" xmlns:xlink="http://www.w3.org/1999/xlink">
    <!-- Generator: sketchtool 49.1 (51147) - http://www.bohemiancoding.com/sketch -->
    <title>39962A3A-489C-4AEF-85EF-CC2601BEB0CD</title>
    <desc>Created with sketchtool.</desc>
    <defs></defs>
    <g id="Symbols" stroke="none" stroke-width="1" fill="none" fill-rule="evenodd" opacity="0.5">
        <g id="Footer" transform="translate(-692.000000, -509.000000)" fill="#FFFFFF">
            <path d="M744.664438,527.022938 C744.186937,527.632938 742.941312,528.798563 740.582562,528.798563 C737.826312,528.798563 735.917563,527.102313 735.917563,524.664188 C735.917563,522.013563 737.852562,520.926688 739.999437,520.264813 L743.180063,519.283563 L743.180063,522.066688 L741.138812,522.861688 C740.396938,523.180438 740.052563,523.683562 740.052563,524.292937 C740.052563,524.955438 740.635688,525.856688 742.013812,525.856688 C743.683813,525.856688 744.664438,524.717313 744.664438,523.259813 L744.664438,518.965438 C744.664438,517.772938 743.922563,517.031062 742.437563,517.031062 C740.476937,517.031062 740.025688,518.249812 740.025688,519.097938 L736.236313,519.097938 C736.236313,515.864188 738.568188,513.823562 742.570063,513.823562 C746.413813,513.823562 748.692563,515.387938 748.692563,518.647938 L748.692563,528.613563 L744.664438,528.613563 L744.664438,527.022938 Z M730.245688,528.613563 L734.248187,528.613563 L734.248187,508.999813 L730.245688,508.999813 L730.245688,528.613563 Z M724.070062,528.613563 L728.072563,528.613563 L728.072563,508.999813 L724.070062,508.999813 L724.070062,528.613563 Z M713.840063,519.866688 L718.160062,519.866688 C718.053813,518.249812 716.967562,517.163563 715.483187,517.163563 C713.972562,517.163563 712.355688,518.249812 712.355688,521.244812 L712.355688,521.642938 C712.408813,523.789188 713.362563,525.406062 715.562563,525.406062 C717.099438,525.406062 717.974438,524.558562 718.265688,523.709812 L721.843813,524.849187 C721.234438,526.651687 719.405687,528.798563 715.350688,528.798563 C710.950688,528.798563 708.220063,525.538563 708.220063,521.589812 C708.220063,517.057312 710.950688,513.823562 715.403813,513.823562 C720.147563,513.823562 722.241313,517.242938 722.241313,521.351063 L722.241313,522.464187 L713.840063,522.464187 L713.840063,519.866688 Z M692.000063,522.543563 L696.346313,522.543563 L696.346313,523.074187 C696.346313,524.849187 697.751313,525.591688 699.606313,525.591688 C701.753812,525.591688 702.495688,524.717313 702.495688,523.603563 C702.495688,522.437937 701.356313,521.986688 699.500688,521.430438 L697.486313,520.821063 C694.624437,519.946688 692.423813,518.806688 692.344438,515.599812 C692.344438,512.578562 694.465063,509.795437 699.686312,509.795437 C704.298188,509.795437 706.630063,511.836063 706.630063,515.175438 L706.630063,515.732313 L702.654437,515.732313 L702.654437,515.307937 C702.654437,513.797312 701.647563,513.001688 699.606313,513.001688 C697.830688,513.001688 696.744438,513.823562 696.744438,514.963562 C696.744438,515.785438 697.062563,516.500437 698.970688,517.084187 L701.886313,517.958562 C704.881313,518.859187 707.001313,520.105437 707.001313,523.312312 C707.001313,526.359812 704.563188,528.878563 699.633187,528.878563 C693.828813,528.878563 692.000063,525.883563 692.000063,523.074187 L692.000063,522.543563 Z" id="Fill-1"></path>
        </g>
    </g>
</svg>
