<svg xmlns="http://www.w3.org/2000/svg" xmlns:xlink="http://www.w3.org/1999/xlink" viewBox="0 0 215.7 78"><g fill="#bab7cc"><path d="M37.1.4s.1.5 1.4 1.2c.9.5 2.2 1 2.9 1.3.2.1.3.1.5.3-.2-.1-.3-.1-.5-.1-.7-.2-2.1-.5-3.1-.6-1.4-.1-1.6.2-1.6.2l.1.1c.1 0 2.1.9 3.4 1 1 .1 1.5-.2 1.7-.3.1 0 .2-.1.5 0h.1l-.1-.1c-.2-.2-.2-.3-.3-.4 0-.3-.2-.8-1.1-1.3C39.7 1 37.4.5 37.3.5l-.2-.1zm4.4.9c0 .1.1.5 1.1 1.6.8.7 2 1.5 2.6 2a1.38 1.38 0 0 1 .4.3c-.2 0-.3-.1-.5-.2-.7-.3-2-.9-3-1.1-1.3-.3-1.8.4-1.8.3h.1c.1-.1 1.9 1.1 3.2 1.4 1 .2 1.6-.1 1.9-.2.1-.1.3-.1.5 0h.1v-.1a.76.76 0 0 1-.2-.4c0-.3 0-1-.8-1.7-1.1-1.1-3.3-2-3.4-1.9h-.2z"/><path d="M45.8 3s-.2.8.8 1.9c.6.9 1.6 2 2.1 2.5.1.1.2.3.3.4-.2-.1-.3-.1-.5-.2-.6-.4-1.8-1.2-2.8-1.5-1.4-.2-2 .4-2 .4l.1.1 1.1.6c.6.3 1.2.9 1.9 1 .9.3 1.6.1 2-.1.1-.1.3 0 .5 0h.1V8c-.1-.2-.1-.4-.1-.5.1-.3.2-1.1-.4-2-.4-.6-1.1-1.4-1.7-1.8L45.9 3h-.1zm9.7 45.5c-.1-.1-1.9-1.3-3.8-1.1-1.4.1-2.8.6-3.5 1-.2.1-.4.1-.6.1.1-.2.2-.4.2-.5.5-.6 1.4-1.7 1.3-3.1-.2-1.9-1.8-3.5-1.8-3.5l-.1-.1-.1.1c0 .1-.8 1.7-.9 3.4 0 1.3.5 2.5.8 3.2.1.2.1.5.1.8v.1h.1c.3 0 .5.1.7.2.5.4 1.6 1.2 3.1 1.2 2.2.2 4.3-1.6 4.3-1.7l.2-.1zm-3.9 3.3s-.4-.4-1.1-.8c-.6-.4-1.5-.7-2.4-.8-1.3 0-2.8.3-3.5.6-.2.1-.4.1-.6.1a.78.78 0 0 1 .4-.4c.6-.5 1.7-1.4 1.8-2.8.2-1.8-1-3.5-1-3.6l-.1-.1-.1.1c-.1 0-1 1.7-1.4 3.3-.3 1.2-.1 2.4.1 2.9 0 .2 0 .5-.1.7l-.1.1h.1c.2 0 .5.2.6.3.4.4 1.3 1.2 2.8 1.5 2.1.5 4.4-1 4.5-1l.1-.1zm-4.4 2.4s-.3-.4-.9-.8c-.5-.4-1.3-.9-2.2-1-1.3-.2-2.6.2-3.4.3h-.6c.1-.1.3-.2.4-.3.7-.2 1.9-1.2 2.3-2.4.6-1.6-.2-3.3-.2-3.3v-.1l-.1.1c-.1 0-1.4 1.4-2 3.1-.5 1-.6 2-.6 2.5 0 .2-.1.4-.2.6l-.1.1h.1c.2.1.4.2.5.3.3.4 1 1.1 2.3 1.6 1.8.5 4.4-.3 4.5-.4l.2-.3zm-4.7 1.5s-.9-1.4-2.5-1.9c-1.2-.3-2.6-.1-3.3 0-.2 0-.4 0-.5-.1.2-.1.3-.1.5-.2.7-.2 2-.9 2.7-1.8.5-.6.6-1.3.6-1.9 0-.5-.1-.9-.1-1v-.1l-.1.3c-.1 0-1.6 1.3-2.6 2.6-.7 1-1 1.5-1.1 1.9 0 .1-.2.2-.4.3h-.1.1c.2.1.4.2.5.2.2.3.7 1 1.9 1.3 1.6.5 4.3.5 4.4.4zm-4.8.4s-.5-1-2-1.6c-1.1-.4-2.5-.3-3.3-.3h-.5c.2 0 .4-.1.5-.1.8-.1 2.2-.4 3.1-.9 1.2-.8 1.1-2.1 1.1-2.1V51l-.1.1c-.1.1-1.9 1.2-3.2 2l-1.4 1c-.1 0-.2.1-.4.1h-.1.1c.2 0 .3 0 .4.1.2.1.5.3 1.6.7 1.4.5 4 1.3 4.2 1.1zm12-50.8s-.4.9.3 2.2l1.7 2.8c.1.2.2.3.2.5-.2-.1-.3-.2-.4-.3-.6-.5-1.5-1.6-2.6-1.8-1.4-.4-2.1.2-2.2.2l.1.1c0 .1 1.7 1.3 2.8 2 .9.4 1.7.2 2.1.1a1.76 1.76 0 0 1 .6.1h.1v-.7c.2-.4.5-1.1.2-2.2-.6-1.6-2.7-2.9-2.9-3zm3.7 2.9s-.7 1-.3 2.5c.3 1.1 1 2.3 1.2 3.1.1.2.1.4.1.5-.1-.1-.3-.2-.4-.4-.4-.7-1.4-1.7-2.4-2.1-1.4-.6-2.3 0-2.3 0h-.1l.1.1c0 .1 1.3 1.6 2.5 2.2.8.5 1.7.4 2.2.3.2 0 .4 0 .6.2h.1v-.1c0-.2.1-.5.2-.6.3-.4.8-1.1.7-2.3-.2-1.6-2-3.4-2.1-3.5l-.1.1z"/><path d="M56.5 11.7c-.1 0-1 .9-1 2.5 0 1.2.5 2.5.7 3.3v.6c-.1-.1-.2-.3-.3-.4-.3-.7-1.3-1.8-2.2-2.4-1.3-.8-2.4-.2-2.5-.2h-.1v.1c0 .1.9 1.8 2.2 2.5 1 .5 1.8.6 2.3.6.2 0 .4.1.6.2l.1.1v-.1l.3-.6c.4-.3 1.3-1.1 1.2-2.2 0-1.6-1.3-3.8-1.3-3.9v-.1zm2.6 4.1s-1.2.8-1.6 2.5c-.3 1.2-.1 2.6 0 3.4v.6c-.1-.1-.2-.3-.3-.5-.3-.7-1-2-1.9-2.7-1.2-1-2.5-.6-2.6-.6h-.1l.1.1c0 .1.5 1.9 1.7 2.9.9.7 2 .8 2.5.9.2 0 .4.1.6.3l.1.1v-.1c.1-.2.3-.4.5-.5.5-.2 1.4-.8 1.6-2 .4-1.7-.4-4.1-.5-4.2l-.1-.2zm1.7 4.5c-.1 0-1.3.6-2 2.2-.6 1.1-.7 2.6-.7 3.4 0 .2-.1.4-.1.5-.1-.2-.2-.3-.2-.5-.2-.7-.6-2.1-1.4-2.9-1.1-1.1-2.8-.9-2.8-.9h-.1v.1c.1.1.4 1.9 1.4 3 .8.8 1.9 1.1 2.5 1.2.2.1.4.2.6.4l.1.1v-.1c.1-.2.3-.4.5-.4.6-.2 1.6-.6 2.1-1.8.9-1.6.4-4.2.3-4.2l-.2-.1zm1 4.7c-.1 0-1.6.4-2.5 1.9-.6 1-1.2 2.5-1.3 3.2-.1.2-.2.3-.3.5-.1-.2-.1-.4-.2-.5-.1-.8-.1-2.2-1-3.1-1.1-1.3-2.8-1.3-2.8-1.3h-.1v.1c0 .1.3 1.9 1.1 3.2.6.9 1.7 1.4 2.3 1.6.2.1.4.2.6.5l.1.1.1-.1c.2-.2.4-.3.6-.3.6-.1 1.8-.4 2.6-1.4 1.3-1.5.9-4.1 1-4.2V25h-.2zm.4 4.9a5.07 5.07 0 0 0-3 1.5c-.4.5-.8 1-1 1.6l-.8 1.4a.78.78 0 0 1-.4.4c-.1-.2-.1-.4-.1-.6 0-.4.1-.9.1-1.5-.1-.6-.4-1.2-.7-1.7a4.38 4.38 0 0 0-2.7-1.7h-.1v.1c0 .1-.2 1.9.6 3.3.5 1 1.6 1.7 2.2 2 .2.1.4.3.5.6v.1l.1-.1c.2-.1.5-.2.7-.2.7 0 2 0 3.1-.9 1.4-1.3 1.5-4 1.5-4v-.3zm-.4 5c-.1 0-2-.2-3.6.9-1.2.7-1.8 2-2.3 2.6-.1.1-.3.3-.5.4v-.6c.2-.7.2-2.3-.3-3.4-.7-1.6-2.5-2.1-2.6-2.1h-.1v.1c0 .1-.6 1.7.2 3.3.6 1.1 1.5 2 2.1 2.4.2.2.4.4.4.6v.1h.1c.3-.1.6-.1.8-.1.7.2 2.3.4 3.4-.3 1.6-1 2.3-3.7 2.3-3.8l.1-.1zm-1 5c-.1 0-.5-.2-1.3-.2s-1.7 0-2.7.4c-1.4.5-2.4 1.6-2.9 2.2-.1.1-.3.2-.5.3V42c.2-.7.6-2.2.2-3.4-.6-1.7-2.4-2.6-2.5-2.6l-.1-.2v.1c0 .1-.9 1.6-.2 3.3.4 1.2 1.4 2.4 2 2.9.2.2.3.4.3.7v.1h.1c.3 0 .6 0 .9.1.7.3 2.1.7 3.5.2 1-.3 1.8-1.1 2.3-1.8.6-.7.9-1.3.9-1.4l.1-.2-.1.1zm-2.2 4.6c-.1-.1-2-.9-4-.5-1.5.2-2.7 1.1-3.3 1.6-.1.1-.3.2-.5.2 0-.2.1-.4.2-.6.4-.7 1-2.1.7-3.3-.1-.9-.8-1.7-1.3-2.2-.5-.6-1-.9-1-.9l-.1-.1v.1c.1.1-.8 1.6-.5 3.4.2 1.3 1 2.5 1.5 3.2.1.2.2.5.2.8v.1h.1c.3 0 .6 0 .8.2.6.4 1.9 1 3.4.8 2.1-.3 4-2.3 3.9-2.5l.1-.1-.2-.2zM39.2 2.3c.2 0 .3.1.3.1 0-.1-.1-.1-.3-.1-.3-.2-.6-.3-.8-.4-.6-.3-1.8-.9-3.2-.9-.7 0-1.6-.1-2.6-.1h-1.2l1.2.2 2.5.4c1.4.1 2.6.4 3.3.5.2.1.5.2.8.3zm-12.8.4s-.3-.4-1.6-.2c-1 .1-2.4.4-3.1.6-.2 0-.4.1-.5.1.1-.1.3-.2.5-.3.7-.3 2.1-.8 2.9-1.3C25.9.9 26 .4 26 .4h-.1c-.1 0-2.4.5-3.7 1.2-.9.5-1.2 1-1.2 1.4 0 .1-.1.2-.3.4l-.1.1h.6c.2.1.7.4 1.7.3 1.4-.2 3.3-1 3.5-1.1zm-3.7 1.6s-.5-.7-1.8-.3c-1 .2-2.3.8-3 1.1-.2.1-.3.1-.5.2.1-.1.3-.2.4-.3.6-.4 1.8-1.2 2.6-2 1-1 1.2-1.5 1.1-1.6h-.1c-.2-.2-2.4.8-3.4 1.9-.8.7-.8 1.4-.8 1.7a.76.76 0 0 1-.2.4l-.1.1h.6c.3.2.9.5 1.9.2 1.3-.3 3-1.4 3.3-1.4zm-3.4 2.1s-.6-.6-2-.4c-1 .3-2.1 1.1-2.8 1.5-.2.1-.3.2-.5.2.1-.2.2-.3.3-.4.6-.5 1.5-1.6 2.1-2.5 1-1.1.8-1.9.8-1.9l-.1.1-1.3.7c-.7.4-1.3 1.2-1.7 1.8-.6.9-.5 1.7-.3 2 0 .1 0 .3-.1.5v.1h.1c.2-.1.3-.1.5-.1.3.2 1.1.4 2 .1.7-.2 1.3-.7 1.9-1l1.1-.7zm-3.6 35.1c-.1.1-1.7 1.6-1.8 3.5-.1 1.4.8 2.5 1.3 3.1.1.1.2.3.3.5-.2 0-.4-.1-.6-.2-.7-.4-2.1-1-3.5-1-1.9-.2-3.8 1-3.8 1.1l-.1.1.1.1c0 .1 2.1 1.9 4.3 1.7 1.5 0 2.6-.8 3.1-1.2.2-.1.4-.2.7-.2h.1v-.1c0-.3 0-.6.1-.8.3-.6.8-1.9.8-3.2-.1-1.7-.8-3.3-.9-3.4l-.1-.1v.1zm2.1 2.6c0 .1-1.3 1.7-1 3.6.1 1.4 1.2 2.3 1.8 2.8.1.1.2.3.4.4-.2 0-.4 0-.6-.1-.7-.3-2.2-.6-3.5-.6-.9.1-1.8.4-2.4.8l-1.1.8-.1.1.1.1c.1 0 2.4 1.5 4.5 1 1.4-.2 2.3-1 2.7-1.5.2-.2.4-.3.6-.3h.1v-.1c-.1-.2-.1-.5-.1-.7.2-.6.4-1.7.1-2.9-.4-1.6-1.3-3.3-1.4-3.3h-.1v-.1zm2.5 2.5c0 .1-.9 1.7-.2 3.3.4 1.2 1.6 2.1 2.3 2.4a1.38 1.38 0 0 1 .4.3h-.6c-.8-.1-2.2-.5-3.4-.3-.9.2-1.6.6-2.2 1-.5.4-.8.8-.9.8l-.1.1h.1c.1 0 2.7.8 4.5.4 1.4-.4 2-1.2 2.3-1.6.1-.1.3-.2.5-.3h.1l-.1-.1c-.2-.2-.2-.4-.2-.6 0-.5-.1-1.4-.6-2.5-.6-1.7-1.9-3.1-2-3.1l-.1-.1.2.3zm2.9 2.4s-.1.4-.1 1c0 .5.1 1.2.6 1.8.7.9 2 1.6 2.7 1.8.2 0 .3.1.5.2-.2 0-.4.1-.6.1-.8-.1-2.2-.4-3.3 0-1.7.5-2.5 1.9-2.5 1.9v.1h.2c.1 0 2.8.1 4.4-.4 1.1-.3 1.7-1 1.9-1.3.1-.1.2-.2.5-.2-.2-.1-.3-.2-.4-.3-.1-.3-.4-.9-1.1-1.9-1.1-1.5-2.6-2.8-2.8-2.8z"/><path d="M26.5 51.1s-.1 1.3 1.1 2.1c.9.6 2.3.8 3.1.9.1 0 .3.1.5.1h-.5c-.8 0-2.2-.1-3.3.3-1.5.6-2 1.6-2 1.6v.1h.1c.1.2 2.7-.6 4.1-1.1l1.6-.7c.1 0 .2-.1.4-.1-.2 0-.4-.1-.4-.1-.1-.1-.5-.4-1.4-1l-3.3-2.1zM16.3 8.9s-.8-.6-2.2-.2c-1.1.2-2.1 1.3-2.6 1.8-.1.1-.3.2-.4.3.1-.2.1-.3.2-.5.5-.6 1.1-2 1.7-2.8.7-1.3.3-2.2.3-2.2l-.1.1c0 .1-2.2 1.4-2.6 3-.4 1.1 0 1.9.2 2.2.1.1.1.3 0 .6v.1h.1c.2-.1.4-.1.6-.1.4.1 1.2.3 2.1-.1 1.1-.7 2.8-1.8 2.8-2l-.1-.2zm-2.4 3c-.1 0-1-.6-2.3 0-1 .4-2.1 1.4-2.4 2.1-.1.1-.2.3-.4.4 0-.2.1-.4.1-.5.2-.8.9-2 1.2-3.1.4-1.5-.3-2.4-.3-2.5v-.1l-.2.1c0 .1-1.8 1.9-2 3.5-.1 1.2.4 2 .8 2.3.1.1.2.3.2.6v.1h.1c.2-.1.4-.2.6-.2.5.1 1.4.2 2.2-.3 1.3-.6 2.5-2.2 2.5-2.2l-.1-.2zm-2.1 3.2c-.1 0-1.2-.5-2.5.2-.9.6-1.9 1.7-2.2 2.4 0 .2-.1.3-.3.4v-.6c.1-.8.7-2.1.7-3.3 0-1.6-.9-2.5-1-2.5h-.1l-.1.1c0 .1-1.3 2.3-1.3 3.9 0 1.2.9 1.9 1.2 2.2.1.1.2.3.3.6v.1l.1-.1c.2-.2.4-.2.6-.2.6.1 1.4 0 2.3-.6 1.3-.8 2.1-2.5 2.2-2.5l.1-.1zm-1.4 3.4c-.1 0-1.4-.4-2.6.6-.9.7-1.6 2-1.9 2.7-.1.2-.2.3-.3.5v-.6c.1-.8.3-2.2 0-3.4-.4-1.7-1.6-2.5-1.6-2.5h-.1l-.1.1c0 .1-.9 2.5-.5 4.2.3 1.2 1.1 1.8 1.6 2 .2.1.3.3.4.5v.1l.1-.1c.2-.2.4-.3.6-.3.6 0 1.7-.2 2.5-.9 1.2-.9 1.7-2.8 1.7-2.9h.2zm-.9 3.6s-1.7-.2-2.8.9c-.7.8-1.2 2.2-1.4 2.9-.1.2-.1.3-.2.5 0-.2-.1-.3-.1-.5a9.79 9.79 0 0 0-.7-3.4c-.7-1.6-1.9-2.2-2-2.2h-.1v.1c-.2 0-.7 2.6.2 4.2.6 1.1 1.6 1.6 2.1 1.8.2.1.4.2.5.4v.1l.1-.1c.2-.2.4-.3.6-.4.6-.1 1.7-.4 2.5-1.2 1-1.1 1.2-3 1.3-3.1zm-.2 3.6c-.1 0-1.7 0-2.8 1.3-.9.9-.9 2.3-1 3.1 0 .2-.1.4-.2.5-.1-.2-.2-.3-.3-.5-.1-.8-.8-2.2-1.3-3.2-.9-1.4-2.4-1.9-2.5-1.9h-.1v.2c0 .1-.4 2.7 1 4.2.8 1 2 1.3 2.6 1.4.2 0 .4.2.6.3l.1.1.1-.1c.2-.2.3-.4.5-.5.6-.2 1.7-.7 2.3-1.6.7-1.3 1.1-3.1 1.1-3.2l-.1-.1zm.2 3.6c-.1 0-1.8.3-2.7 1.7-.3.5-.6 1.1-.7 1.7s0 1.1 0 1.5c0 .2 0 .4-.1.6-.2-.1-.3-.3-.4-.4 0-.4-.3-.9-.7-1.4-.2-.6-.6-1.1-1-1.6a5.07 5.07 0 0 0-3-1.5H.8v.2c.1.1.2 2.8 1.5 4 1.1.9 2.4 1 3.1.9.2 0 .5.1.7.2l.1.1v-.1c.1-.2.3-.5.5-.6.6-.3 1.7-1 2.2-2 .8-1.4.7-3.2.6-3.3z"/><path d="M10.4 32.7c-.1 0-1.8.6-2.6 2.1-.5 1.1-.5 2.6-.3 3.4v.6c-.2-.1-.4-.2-.5-.4-.5-.6-1.2-1.9-2.3-2.6-1.6-1-3.5-.9-3.6-.9l.1.2c0 .1.8 2.7 2.3 3.7 1.1.8 2.7.5 3.4.3.2-.1.6 0 .8.1h.1v-.1c.1-.3.2-.5.4-.6.6-.5 1.6-1.3 2.1-2.4.8-1.6.2-3.2.2-3.3l-.1-.1zm1.5 3.2c-.1.1-1.9 1-2.5 2.6-.4 1.2-.1 2.7.2 3.4.1.2.1.4 0 .6-.2-.1-.4-.2-.5-.3-.5-.6-1.5-1.7-2.9-2.2-.9-.4-1.9-.4-2.7-.4s-1.3.2-1.3.2h-.1l.1.2c0 .1.3.7.9 1.4s1.4 1.5 2.3 1.8c1.4.5 2.7.1 3.5-.2.2-.1.6-.1.9-.1h.1v-.1c0-.3.2-.6.3-.7.6-.6 1.6-1.7 2-2.9.6-1.7-.2-3.2-.2-3.3h-.1zm1.8 2.8s-.5.4-1 .9c-.5.6-1.2 1.4-1.3 2.2-.2 1.3.4 2.6.7 3.3.1.2.1.4.1.6-.2-.1-.4-.1-.5-.2-.6-.5-1.8-1.4-3.3-1.6-2-.4-3.9.4-4 .5l-.1.1.1.1c-.1.2 1.8 2.2 3.9 2.5 1.5.2 2.8-.4 3.4-.8.2-.1.5-.2.8-.2h.1V46c0-.3.1-.6.2-.8.4-.6 1.2-1.9 1.5-3.2.3-1.6-.5-3.1-.6-3.3zM23.8 2.2c-.2.1-.2.1-.3.1h-.1.1c.1.1.2 0 .3-.1.3 0 .6-.1.8-.1.6-.1 1.9-.4 3.3-.5l2.5-.4 1.2-.2h-1.2l-2.6.1c-1.4 0-2.6.6-3.2.9-.2 0-.5.1-.8.2zm46.5.8h2.3l4.7 10.6L81.9 3h2.3v16.3h-2.5V9.1h-.1l-3.4 7.8h-2.1l-3.4-7.8v10.1h-2.5V3zm27.6 0h2.5v16.3h-2.5V3zm21.4 7.3h5.8v3.3a5.66 5.66 0 0 1-1.7 4.1 5.66 5.66 0 0 1-4.1 1.7c-1.3 0-2.3-.3-3.2-.9s-1.5-1.2-1.9-2c-.1-.2-.2-.5-.3-.7s-.2-.5-.2-.9c-.1-.6-.2-1.9-.2-3.8s.1-3.2.2-3.8.3-1.2.6-1.5c.4-.7 1-1.4 1.9-2s1.9-.9 3.2-.9c1.6 0 2.9.5 3.8 1.4 1 .9 1.6 2.1 1.9 3.4h-2.6c-.2-.6-.6-1.2-1.1-1.7-.6-.4-1.2-.7-2-.7-.6 0-1.1.1-1.5.3s-.8.5-1 .8c-.3.3-.5.8-.6 1.4s-.2 1.7-.2 3.3.1 2.7.2 3.3.3 1 .6 1.4c.3.3.6.6 1 .8s.9.4 1.5.4c1 0 1.7-.3 2.4-1 .6-.6 1-1.4 1-2.5v-.9h-3.3l-.2-2.3zm19-7.3h2.5v13.9h7.9v2.3h-10.4V3zm22.9 0h2.5v16.3h-2.5V3zm15.6 8.1c0-1.9.1-3.2.2-3.8s.3-1.2.6-1.5c.4-.7 1-1.4 1.9-2s1.9-.9 3.2-.9 2.4.3 3.2.9 1.5 1.3 1.8 2c.3.4.5.9.6 1.5s.2 1.9.2 3.8-.1 3.1-.2 3.8-.3 1.2-.6 1.6c-.4.7-1 1.4-1.8 2-.9.6-1.9.9-3.2.9s-2.3-.3-3.2-.9-1.5-1.2-1.9-2c-.1-.2-.2-.5-.3-.7s-.2-.5-.2-.9c-.2-.6-.3-1.9-.3-3.8zm2.5 0c0 1.6.1 2.7.2 3.3s.3 1 .6 1.4c.3.3.6.6 1 .8s.9.4 1.5.4 1.1-.1 1.5-.4c.4-.2.7-.5 1-.8s.5-.8.7-1.4c.1-.6.2-1.7.2-3.3s-.1-2.7-.2-3.3-.3-1-.7-1.4c-.2-.3-.6-.6-1-.8s-.9-.3-1.5-.3-1.1.1-1.5.3-.8.5-1 .8c-.3.3-.5.8-.6 1.4-.2.7-.2 1.7-.2 3.3zM201.5 3h6.3c1.4 0 2.5.4 3.3 1.1 1 .8 1.6 2 1.6 3.5 0 2.2-1.1 3.7-3.1 4.5l3.8 7.2h-2.9l-3.3-6.9H204v7h-2.5V3zm2.5 7.2h3.7c.9 0 1.6-.3 2.1-.8s.7-1.1.7-1.8c0-.9-.3-1.5-.8-1.8-.4-.3-1-.5-1.8-.5H204v4.9zM81.3 43.3c-.4 1.5-1 2.7-2 3.5S77 48 75.6 48c-1.3 0-2.3-.3-3.2-.9s-1.5-1.2-1.9-2c-.1-.2-.2-.5-.3-.7s-.2-.5-.2-.9c-.1-.6-.2-1.9-.2-3.8s.1-3.2.2-3.8.3-1.2.6-1.5c.4-.7 1-1.4 1.9-2s1.9-.9 3.2-.9c1.6 0 2.9.5 3.8 1.4 1 .9 1.6 2.1 1.9 3.4h-2.6c-.2-.6-.6-1.2-1.1-1.7-.6-.4-1.2-.7-2-.7-.6 0-1.1.1-1.5.3s-.8.5-1 .8c-.3.3-.5.8-.6 1.4s-.2 1.7-.2 3.3.1 2.7.2 3.3.3 1 .6 1.4c.3.3.6.6 1 .8s.9.4 1.5.4c1.4 0 2.4-.7 3.1-2.2l2.5-.1zm11.1.9h-6.2L85 47.8h-2.6l5.9-16.2h2.1l5.9 16.2h-2.6l-1.3-3.6zm-.7-2.2l-2.4-7.1L87 42h4.7zm7.4-10.5h6.3c1.4 0 2.5.4 3.3 1.1 1 .8 1.6 2 1.6 3.5 0 2.2-1.1 3.7-3.1 4.5l3.8 7.2h-3l-3.3-6.9h-3.1v7h-2.5V31.5zm2.4 7.2h3.7c.9 0 1.6-.3 2.1-.8s.7-1.1.7-1.8c0-.9-.3-1.5-.8-1.8-.4-.3-1-.5-1.8-.5h-3.9v4.9zm14.9-4.9H112v-2.2h11.4v2.2H119v14.1h-2.5V33.8zm16.3 10.4h-6.2l-1.3 3.6h-2.6l5.9-16.2h2.1l5.9 16.2H134l-1.3-3.6zM132 42l-2.4-7.1-2.4 7.1h4.8zm24.8 1.3c-.4 1.5-1 2.7-2 3.5s-2.3 1.2-3.7 1.2c-1.3 0-2.3-.3-3.2-.9s-1.5-1.2-1.9-2c-.1-.2-.2-.5-.3-.7s-.2-.5-.2-.9c-.1-.6-.2-1.9-.2-3.8s.1-3.2.2-3.8.3-1.2.6-1.5c.4-.7 1-1.4 1.9-2s1.9-.9 3.2-.9c1.6 0 2.9.5 3.8 1.4 1 .9 1.6 2.1 1.9 3.4h-2.6c-.2-.6-.6-1.2-1.1-1.7-.6-.4-1.2-.7-2-.7-.6 0-1.1.1-1.5.3s-.8.5-1 .8c-.3.3-.5.8-.6 1.4s-.2 1.7-.2 3.3.1 2.7.2 3.3.3 1 .6 1.4c.3.3.6.6 1 .8s.9.4 1.5.4c1.4 0 2.4-.7 3.1-2.2l2.5-.1zm2.3-3.6c0-1.9.1-3.2.2-3.8s.3-1.2.6-1.5c.4-.7 1-1.4 1.9-2s1.9-.9 3.2-.9 2.4.3 3.2.9 1.5 1.3 1.8 2c.3.4.5.9.6 1.5s.2 1.9.2 3.8-.1 3.1-.2 3.8c-.1.6-.3 1.2-.6 1.6-.4.7-1 1.4-1.8 2-.9.6-1.9.9-3.2.9s-2.3-.3-3.2-.9-1.5-1.2-1.9-2c-.1-.2-.2-.5-.3-.7s-.2-.5-.2-.9c-.3-.7-.3-2-.3-3.8zm2.4 0c0 1.6.1 2.7.2 3.3s.3 1 .6 1.4c.3.3.6.6 1 .8s.9.4 1.5.4 1.1-.1 1.5-.4c.4-.2.7-.5 1-.8s.5-.8.7-1.4c.1-.6.2-1.7.2-3.3s-.1-2.7-.2-3.3-.3-1-.7-1.4c-.2-.3-.6-.6-1-.8s-.9-.3-1.5-.3-1.1.1-1.5.3-.8.5-1 .8c-.3.3-.5.8-.6 1.4s-.2 1.7-.2 3.3zm13.1-8.2h2.3l7.4 11.5V31.5h2.5v16.3h-2.3l-7.3-11.5h-.2v11.5h-2.5V31.5zm19.4 2.3h-4.4v-2.2H201v2.2h-4.4v14.1H194V33.8zm8.7 5.9c0-1.9.1-3.2.2-3.8s.3-1.2.6-1.5c.4-.7 1-1.4 1.9-2s1.9-.9 3.2-.9 2.4.3 3.2.9c.9.6 1.5 1.3 1.8 2 .3.4.5.9.6 1.5s.2 1.9.2 3.8-.1 3.1-.2 3.8-.3 1.2-.6 1.6c-.4.7-1 1.4-1.8 2-.9.6-1.9.9-3.2.9s-2.3-.3-3.2-.9-1.5-1.2-1.9-2c-.1-.2-.2-.5-.3-.7s-.2-.5-.2-.9c-.2-.7-.3-2-.3-3.8zm2.5 0c0 1.6.1 2.7.2 3.3s.3 1 .6 1.4c.3.3.6.6 1 .8s.9.4 1.5.4 1.1-.1 1.5-.4c.4-.2.7-.5 1-.8s.5-.8.7-1.4c.1-.6.2-1.7.2-3.3s-.1-2.7-.2-3.3-.3-1-.7-1.4c-.2-.3-.6-.6-1-.8s-.9-.3-1.5-.3-1.1.1-1.5.3-.8.5-1 .8c-.3.3-.5.8-.6 1.4-.2.6-.2 1.7-.2 3.3zM69.4 74.1l6.3-7.9c.2-.3.4-.6.5-.9s.1-.5.1-.7c0-.6-.2-1.1-.6-1.6s-1-.7-1.7-.7c-.6 0-1.2.2-1.6.6s-.7 1-.8 1.7h-2.3c.1-1.4.5-2.5 1.4-3.3.9-.9 1.9-1.3 3.2-1.3 1.4 0 2.5.5 3.4 1.3.9.9 1.3 2 1.4 3.3 0 1.1-.3 2-1 2.9L72.4 74h6.2v2.3h-9.3l.1-2.2zm44.8-9.5c0-1.5.5-2.7 1.4-3.5s1.9-1.2 3.2-1.2 2.3.4 3.2 1.2 1.4 2 1.4 3.5v7.2c0 1.5-.5 2.6-1.4 3.5-.9.8-2 1.2-3.2 1.2s-2.3-.4-3.2-1.2c-1-.8-1.4-2-1.4-3.5v-7.2zm6.9.1c0-1.6-.8-2.5-2.3-2.5s-2.2.9-2.3 2.5v6.9c0 1.6.8 2.5 2.3 2.5s2.2-.8 2.3-2.5v-6.9zm39.1-.5v-2.5l2.3-1.7h2.3v16.2h-2.3V62.5l-2.3 1.7zm43.1 7.4c0-1.6.6-2.8 1.9-3.7-.5-.4-.9-.9-1.1-1.5-.3-.5-.5-1.1-.5-1.8 0-1.4.5-2.5 1.4-3.3.9-.9 1.9-1.3 3.3-1.3s2.5.5 3.3 1.3c.9.9 1.3 2 1.3 3.3 0 .7-.2 1.3-.4 1.8-.3.6-.7 1-1.2 1.5 1.3.9 1.9 2.1 1.9 3.7 0 1.5-.5 2.6-1.4 3.5s-2.1 1.4-3.5 1.4-2.5-.5-3.5-1.4-1.5-2.1-1.5-3.5zm2.4 0c0 .7.3 1.4.8 1.8.5.5 1.1.7 1.8.7s1.4-.2 1.8-.7c.5-.5.8-1.1.8-1.8 0-.8-.3-1.4-.8-1.8-.5-.5-1.1-.7-1.8-.7s-1.3.2-1.8.7c-.6.4-.8 1-.8 1.8zm.3-7c0 .7.2 1.3.7 1.7s1 .6 1.6.6 1.2-.2 1.6-.6c.5-.4.7-1 .7-1.7 0-.8-.2-1.4-.7-1.7-.5-.4-1-.6-1.6-.6s-1.1.2-1.6.6c-.5.3-.7.9-.7 1.7zM31.5 47.2c-10.4 0-18.9-8.5-18.9-18.9S21.1 9.4 31.5 9.4s18.9 8.5 18.9 18.9-8.5 18.9-18.9 18.9zm0-37.6c-10.3 0-18.7 8.4-18.7 18.7S21.2 47 31.5 47s18.7-8.4 18.7-18.7S41.8 9.6 31.5 9.6zm0 36.6c-9.9 0-17.9-8-17.9-17.9s8-17.9 17.9-17.9 17.9 8 17.9 17.9-8 17.9-17.9 17.9zm0-35c-9.4 0-17.1 7.7-17.1 17.1s7.7 17.1 17.1 17.1 17.1-7.7 17.1-17.1a17.03 17.03 0 0 0-17.1-17.1z"/></g><defs><path id="A" d="M-3.4-7.1h.2l-.2.1z"/><path id="B" d="M13.8 10.6h35.4v.2H13.8z"/></defs><defs><path id="C" d="M-3.8-7.5H-4l.2-.2z"/></defs><clipPath id="D"><use xlink:href="#A"/></clipPath><clipPath id="E" clip-path="url(#D)"><use xlink:href="#C"/></clipPath><g clip-path="url(#E)"><defs><path id="F" d="M49.2,28.3c0,9.8-7.9,17.7-17.7,17.7s-17.7-7.9-17.7-17.7s7.9-17.7,17.7-17.7 C41.3,10.6,49.2,18.5,49.2,28.3z"/></defs><clipPath id="G"><use xlink:href="#F"/></clipPath><use xlink:href="#B" fill="#7a7a7a" class="BZ"/><use xlink:href="#B" y="0.1" fill="#797979" class="BZ"/><use xlink:href="#B" y="0.3" fill="#787878" class="BZ"/><use xlink:href="#B" y="0.5" fill="#777" class="BZ"/><use xlink:href="#B" y="0.6" fill="#767676" class="BZ"/><use xlink:href="#B" y="0.8" fill="#757575" class="BZ"/><use xlink:href="#B" y="1" fill="#747474" class="BZ"/><use xlink:href="#B" y="1.1" fill="#737373" class="BZ"/><use xlink:href="#B" y="1.3" fill="#727272" class="BZ"/><use xlink:href="#B" y="1.5" fill="#717171" class="BZ"/><use xlink:href="#B" y="1.6" fill="#707070" class="BZ"/><use xlink:href="#B" y="1.8" fill="#6f6f6f" class="BZ"/><use xlink:href="#B" y="2" fill="#6e6e6e" class="BZ"/><use xlink:href="#B" y="2.2" fill="#6d6d6d" class="BZ"/><use xlink:href="#B" y="2.3" fill="#6c6c6c" class="BZ"/><use xlink:href="#B" y="2.5" fill="#6b6b6b" class="BZ"/><use xlink:href="#B" y="2.7" fill="#6a6a6a" class="BZ"/><use xlink:href="#B" y="2.8" fill="#696969" class="BZ"/><use xlink:href="#B" y="3" fill="#686868" class="BZ"/><use xlink:href="#B" y="3.2" fill="#676767" class="BZ"/><use xlink:href="#B" y="3.3" fill="#666" class="BZ"/><use xlink:href="#B" y="3.5" fill="#656565" class="BZ"/><use xlink:href="#B" y="3.7" fill="#646464" class="BZ"/><use xlink:href="#B" y="3.9" fill="#636363" class="BZ"/><use xlink:href="#B" y="4" fill="#626262" class="BZ"/><use xlink:href="#B" y="4.2" fill="#616161" class="BZ"/><use xlink:href="#B" y="4.4" fill="#606060" class="BZ"/><use xlink:href="#B" y="4.5" fill="#5f5f5f" class="BZ"/><use xlink:href="#B" y="4.7" fill="#5e5e5e" class="BZ"/><use xlink:href="#B" y="4.9" fill="#5d5d5d" class="BZ"/><use xlink:href="#B" y="5.1" fill="#5c5c5c" class="BZ"/><use xlink:href="#B" y="5.2" fill="#5b5b5b" class="BZ"/><use xlink:href="#B" y="5.4" fill="#5a5a5a" class="BZ"/><use xlink:href="#B" y="5.6" fill="#595959" class="BZ"/><use xlink:href="#B" y="5.7" fill="#585858" class="BZ"/><use xlink:href="#B" y="5.9" fill="#575757" class="BZ"/><use xlink:href="#B" y="6.1" fill="#565656" class="BZ"/><use xlink:href="#B" y="6.2" fill="#555" class="BZ"/><use xlink:href="#B" y="6.4" fill="#545454" class="BZ"/><use xlink:href="#B" y="6.6" fill="#535353" class="BZ"/><use xlink:href="#B" y="6.8" fill="#525252" class="BZ"/><use xlink:href="#B" y="6.9" fill="#515151" class="BZ"/><use xlink:href="#B" y="7.1" fill="#505050" class="BZ"/><use xlink:href="#B" y="7.3" fill="#4f4f4f" class="BZ"/><use xlink:href="#B" y="7.4" fill="#4e4e4e" class="BZ"/><use xlink:href="#B" y="7.6" fill="#4d4d4d" class="BZ"/><use xlink:href="#B" y="7.8" fill="#4c4c4c" class="BZ"/><use xlink:href="#B" y="7.9" fill="#4b4b4b" class="BZ"/><use xlink:href="#B" y="8.1" fill="#4a4a4a" class="BZ"/><use xlink:href="#B" y="8.3" fill="#494949" class="BZ"/><use xlink:href="#B" y="8.5" fill="#484848" class="BZ"/><use xlink:href="#B" y="8.6" fill="#474747" class="BZ"/><use xlink:href="#B" y="8.8" fill="#464646" class="BZ"/><use xlink:href="#B" y="9" fill="#454545" class="BZ"/><use xlink:href="#B" y="9.1" fill="#444" class="BZ"/><use xlink:href="#B" y="9.3" fill="#434343" class="BZ"/><use xlink:href="#B" y="9.5" fill="#424242" class="BZ"/><use xlink:href="#B" y="9.6" fill="#414141" class="BZ"/><use xlink:href="#B" y="9.8" fill="#404040" class="BZ"/><use xlink:href="#B" y="10" fill="#3f3f3f" class="BZ"/><use xlink:href="#B" y="10.2" fill="#3e3e3e" class="BZ"/><use xlink:href="#B" y="10.3" fill="#3d3d3d" class="BZ"/><use xlink:href="#B" y="10.5" fill="#3c3c3c" class="BZ"/><use xlink:href="#B" y="10.7" fill="#3b3b3b" class="BZ"/><use xlink:href="#B" y="10.8" fill="#3a3a3a" class="BZ"/><use xlink:href="#B" y="11" fill="#393939" class="BZ"/><use xlink:href="#B" y="11.2" fill="#383838" class="BZ"/><use xlink:href="#B" y="11.3" fill="#373737" class="BZ"/><use xlink:href="#B" y="11.5" fill="#363636" class="BZ"/><use xlink:href="#B" y="11.7" fill="#353535" class="BZ"/><use xlink:href="#B" y="11.9" fill="#343434" class="BZ"/><use xlink:href="#B" y="12" fill="#333" class="BZ"/><use xlink:href="#B" y="12.2" fill="#323232" class="BZ"/><use xlink:href="#B" y="12.4" fill="#313131" class="BZ"/><use xlink:href="#B" y="12.5" fill="#303030" class="BZ"/><use xlink:href="#B" y="12.7" fill="#2f2f2f" class="BZ"/><use xlink:href="#B" y="12.9" fill="#2e2e2e" class="BZ"/><use xlink:href="#B" y="13" fill="#2d2d2d" class="BZ"/><use xlink:href="#B" y="13.2" fill="#2c2c2c" class="BZ"/><use xlink:href="#B" y="13.4" fill="#2b2b2b" class="BZ"/><use xlink:href="#B" y="13.6" fill="#2a2a2a" class="BZ"/><use xlink:href="#B" y="13.7" fill="#292929" class="BZ"/><use xlink:href="#B" y="13.9" fill="#282828" class="BZ"/><use xlink:href="#B" y="14.1" fill="#272727" class="BZ"/><use xlink:href="#B" y="14.2" fill="#262626" class="BZ"/><use xlink:href="#B" y="14.4" fill="#252525" class="BZ"/><use xlink:href="#B" y="14.6" fill="#242424" class="BZ"/><use xlink:href="#B" y="14.7" fill="#232323" class="BZ"/><use xlink:href="#B" y="14.9" fill="#222" class="BZ"/><use xlink:href="#B" y="15.1" fill="#212121" class="BZ"/><use xlink:href="#B" y="15.3" fill="#202020" class="BZ"/><use xlink:href="#B" y="15.4" fill="#1f1f1f" class="BZ"/><use xlink:href="#B" y="15.6" fill="#1e1e1e" class="BZ"/><use xlink:href="#B" y="15.8" fill="#1d1d1d" class="BZ"/><use xlink:href="#B" y="15.9" fill="#1c1c1c" class="BZ"/><use xlink:href="#B" y="16.1" fill="#1b1b1b" class="BZ"/><use xlink:href="#B" y="16.3" fill="#1a1a1a" class="BZ"/><use xlink:href="#B" y="16.4" fill="#191919" class="BZ"/><use xlink:href="#B" y="16.6" fill="#181818" class="BZ"/><use xlink:href="#B" y="16.8" fill="#171717" class="BZ"/><use xlink:href="#B" y="17" fill="#161616" class="BZ"/><use xlink:href="#B" y="17.1" fill="#151515" class="BZ"/><use xlink:href="#B" y="17.3" fill="#141414" class="BZ"/><use xlink:href="#B" y="17.5" fill="#131313" class="BZ"/><use xlink:href="#B" y="17.6" fill="#121212" class="BZ"/><use xlink:href="#B" y="17.8" fill="#111" class="BZ"/><use xlink:href="#B" y="18" fill="#101010" class="BZ"/><use xlink:href="#B" y="18.2" fill="#0f0f0f" class="BZ"/><use xlink:href="#B" y="18.3" fill="#0e0e0e" class="BZ"/><use xlink:href="#B" y="18.5" fill="#0d0d0d" class="BZ"/><use xlink:href="#B" y="18.7" fill="#0c0c0c" class="BZ"/><use xlink:href="#B" y="18.8" fill="#0b0b0b" class="BZ"/><use xlink:href="#B" y="19" fill="#0a0a0a" class="BZ"/><use xlink:href="#B" y="19.2" fill="#090909" class="BZ"/><use xlink:href="#B" y="19.3" fill="#080808" class="BZ"/><use xlink:href="#B" y="19.5" fill="#070707" class="BZ"/><use xlink:href="#B" y="19.7" fill="#060606" class="BZ"/><use xlink:href="#B" y="19.9" fill="#050505" class="BZ"/><use xlink:href="#B" y="20" fill="#040404" class="BZ"/><use xlink:href="#B" y="20.2" fill="#030303" class="BZ"/><use xlink:href="#B" y="20.4" fill="#020202" class="BZ"/><use xlink:href="#B" y="20.5" fill="#010101" class="BZ"/><use xlink:href="#B" y="20.7" class="BZ"/><path d="M13.8 31.5h35.4V46H13.8z" class="BZ"/></g><path d="M43.6 66.1c-.2-.6-.4-1.1-.7-1.6-.4-.7-.8-.9-2.1-.9h-2.5c-.7 0-.7.1-.7.7v4.8h2.9c1.7 0 1.8-.2 2.1-1.7h.7v4.4h-.7c-.3-1.5-.5-1.8-2.1-1.8h-2.9v3.7c0 1.8.2 1.9 2.3 2.1v.6h-6.4v-.6c1.9-.1 2.1-.3 2.1-2.1v-8.3c0-1.8-.2-1.9-2.1-2.1v-.6h10.6c0 .8.1 2.2.2 3.2l-.7.2zm-14.1 1.3a4.38 4.38 0 0 1-.6 2.3c-.4.7-1 1.3-1.8 1.7a5.42 5.42 0 0 1-2.5.6c-1 0-1.8-.2-2.5-.6s-1.4-1-1.8-1.7-.6-1.5-.6-2.3c0-.9.2-1.7.6-2.4a4.62 4.62 0 0 1 1.7-1.7c.7-.4 1.6-.6 2.5-.6s1.8.2 2.5.6 1.4 1 1.8 1.7c.5.8.7 1.6.7 2.4zm-4.9 3c.6 0 1-.1 1.5-.4s.8-.6 1.1-1.1c.2-.5.4-1 .4-1.5s-.1-1-.4-1.5c-.2-.5-.6-.8-1.1-1.1s-1-.4-1.5-.4c-.6 0-1 .1-1.5.4s-.8.7-1.1 1.2-.4 1-.4 1.5.1 1 .4 1.5.6.8 1.1 1.1c.5.2 1 .3 1.5.3zm6.4-7.6h1.1v13.6H31zm-3.8-39.1v-3l2.8-2h2.8v19.6H30V21.6l-2.8 2.1zm13.1-2c0 1.8-1.5 3-3 3-1.8 0-3-1.3-3-2.9 0-1.7 1.3-3.1 3-3.1 1.8 0 3 1.4 3 3zm-4.8.1c0 1 .8 1.9 1.8 1.9s1.8-.8 1.8-1.9c0-.8-.5-1.9-1.8-1.9-1.2-.1-1.8.9-1.8 1.9z" fill="#bab7cc"/></svg>