<?xml version="1.0" encoding="UTF-8"?>
<svg width="234px" height="104px" viewBox="0 0 234 104" version="1.1" xmlns="http://www.w3.org/2000/svg" xmlns:xlink="http://www.w3.org/1999/xlink">
    <!-- Generator: Sketch 42 (36781) - http://www.bohemiancoding.com/sketch -->
    <title>miglior_prepagata</title>
    <desc>Created with Sketch.</desc>
    <defs></defs>
    <g id="Symbols" stroke="none" stroke-width="1" fill="none" fill-rule="evenodd">
        <g id="footer" transform="translate(-1031.000000, -190.000000)" fill="#BAB7CC">
            <g id="miglior_prepagata">
                <g transform="translate(1031.000000, 190.000000)">
                    <path d="M48.1583205,39.24035 C48.1583205,45.8601 48.163838,52.47985 48.1563141,59.0996 C48.1517998,62.9761 45.3461335,65.9306 41.6900145,65.93435 C38.0441781,65.9381 35.1893556,62.96935 35.1876,59.1176 C35.1813301,45.79485 35.1788221,32.4721 35.2028986,19.1496 C35.2091685,15.66685 37.6654746,12.9181 40.9865288,12.5426 C44.2428774,12.1741 47.254448,14.3456 48.0040803,17.64635 C48.1405139,18.2466 48.1442759,18.8851 48.1450283,19.5061 C48.1545586,26.0841 48.1510474,32.66235 48.1510474,39.24035 L48.1583205,39.24035 Z" id="Fill-4"></path>
                    <path d="M27.5004706,102.478725 C24.5347957,102.478225 21.5691209,102.492975 18.6036969,102.474225 C15.342834,102.453225 13.1914971,100.330725 13.1250359,97.088225 C13.1044706,96.089475 13.0901751,95.088225 13.138579,94.090975 C13.2143197,92.529475 14.3258521,91.425975 15.7413505,91.440225 C17.1132102,91.453725 18.1535163,92.501225 18.2964706,94.015225 C18.308258,94.139225 18.3027405,94.264975 18.3065024,94.389725 C18.397291,97.312725 18.397291,97.313475 21.3933122,97.312975 C26.029546,97.311975 30.6662814,97.280725 35.3020136,97.329975 C36.348088,97.340975 36.7069785,97.026725 36.6402665,95.986975 C36.5607639,94.742975 36.5577543,93.485725 36.6407681,92.242225 C36.7147532,91.135725 36.4148,90.727725 35.2047044,90.749475 C30.8621539,90.826975 26.5173462,90.783225 22.173291,90.776475 C21.7163388,90.775725 21.2463452,90.774975 20.8051932,90.674225 C19.5928404,90.397475 18.7739881,89.319475 18.8118584,88.131225 C18.8517352,86.888725 19.794732,85.860975 21.076054,85.692975 C21.4469828,85.644475 21.8261879,85.646975 22.201631,85.646725 C26.8381156,85.642725 31.4743494,85.630725 36.110834,85.645725 C39.7411209,85.657225 41.6444196,87.559975 41.7013505,91.198975 C41.7316969,93.155475 41.7663069,95.112475 41.7627957,97.069225 C41.7572782,100.408725 39.7130317,102.464225 36.3972442,102.476975 C33.4315694,102.488225 30.4661454,102.479225 27.5004706,102.478725" id="Fill-6"></path>
                    <path d="M117.357232,24.654275 C118.609462,21.953775 119.759868,19.477775 120.906261,17.000025 C121.745679,15.185525 122.61444,13.383525 123.399936,11.546025 C123.745785,10.737525 124.22882,10.342025 125.111124,10.463025 C125.274894,10.485525 125.444684,10.466275 125.611966,10.466275 C127.678533,10.465775 127.677028,10.465525 127.677028,12.480275 C127.676777,19.102025 127.649691,25.724275 127.703362,32.345525 C127.713143,33.559025 127.45106,34.056775 126.121334,34.004775 C123.480692,33.901025 123.845351,34.115025 123.838329,31.698275 C123.827545,27.867025 123.85112,24.035525 123.856136,20.204275 C123.856637,20.007025 123.821275,19.809525 123.774627,19.317525 C123.487715,19.804775 123.317173,20.049775 123.190771,20.315525 C121.851264,23.137275 120.479655,25.944775 119.20686,28.796275 C118.794048,29.720775 118.162291,29.810775 117.312089,29.820025 C116.445334,29.829525 115.83966,29.683025 115.427098,28.779275 C114.199949,26.090525 112.873483,23.446275 111.583383,20.786025 C111.352399,20.309775 111.108875,19.839775 110.629101,19.401275 L110.629101,20.434525 C110.629853,24.515775 110.606529,28.597525 110.649666,32.678525 C110.659698,33.623775 110.430971,34.022525 109.400195,33.994775 C106.325424,33.912275 106.857113,34.250775 106.845577,31.494525 C106.817989,24.998025 106.86539,18.500775 106.812973,12.004275 C106.803443,10.808275 107.163587,10.512275 108.355876,10.414775 C110.113211,10.271025 110.939336,10.936025 111.61398,12.507775 C113.189738,16.179275 114.975162,19.761525 116.680582,23.377525 C116.849619,23.736525 117.051511,24.080025 117.357232,24.654275" id="Fill-8"></path>
                    <path d="M217.645946,20.92155 C219.488803,20.92155 221.109955,20.9283 222.731107,20.91605 C223.061908,20.9133 223.397725,20.8633 223.722257,20.79355 C225.635838,20.3813 226.550996,19.18555 226.472748,17.2208 C226.400267,15.3978 225.329113,14.16755 223.446882,14.0178 C221.786605,13.8858 220.109275,13.92905 218.441725,13.9758 C218.170363,13.9833 217.688331,14.40455 217.681058,14.64605 C217.619362,16.67655 217.645946,18.7098 217.645946,20.92155 M226.003757,24.12455 C227.525594,27.0493 229.229007,30.3233 231.084153,33.8888 C229.556799,33.8888 228.226321,33.9313 226.903366,33.84955 C226.664858,33.8348 226.406537,33.33605 226.244272,33.0168 C224.922321,30.4193 223.591591,27.82555 222.33259,25.19805 C221.972195,24.44605 221.538567,24.13605 220.705419,24.19705 C219.756654,24.26655 218.79886,24.21305 217.7099,24.21305 C217.682814,24.75755 217.643438,25.1963 217.642184,25.63505 C217.635413,28.0498 217.616102,30.46455 217.649207,32.8788 C217.660242,33.68005 217.380854,33.99405 216.563005,33.9843 C213.231166,33.9438 213.834584,34.2563 213.821793,31.42505 C213.792952,24.9308 213.837092,18.43605 213.791447,11.94205 C213.783421,10.8028 214.111715,10.4063 215.281432,10.4433 C218.201713,10.53605 221.139298,10.3448 224.045534,10.57305 C229.048935,10.9663 231.984263,16.2218 229.555796,20.4933 C228.783341,21.8518 227.315426,22.81755 226.003757,24.12455" id="Fill-10"></path>
                    <path d="M142.288011,22.201625 C142.288011,20.786125 142.189448,19.362625 142.30657,17.956875 C142.661197,13.697125 145.661231,10.705375 149.864339,10.311125 C154.178048,9.906375 157.784258,12.260875 159.019433,16.290625 C159.092666,16.529125 159.188721,16.769625 159.205274,17.014125 C159.218315,17.202875 159.184207,17.454125 159.066332,17.582375 C158.46768,18.234875 155.589533,17.662125 155.229138,16.837625 C154.18507,14.448625 152.492942,13.473125 149.969172,13.805375 C147.897087,14.077875 146.441461,15.439125 146.285967,17.886125 C146.094358,20.902375 146.120441,23.953125 146.342898,26.967625 C146.519459,29.358625 148.32294,30.704875 150.723068,30.715875 C153.173606,30.727125 155.039034,29.218875 155.435293,26.903625 C155.463382,26.739625 155.480687,26.573625 155.496488,26.407625 C155.684585,24.438625 155.684084,24.438625 153.75094,24.440875 C153.249597,24.441375 152.748254,24.442625 152.246911,24.441125 C150.605946,24.436625 150.605946,24.436375 150.608704,22.793625 C150.611463,21.147375 150.611463,21.144625 152.269733,21.141875 C154.191591,21.138375 156.114451,21.174375 158.035055,21.125125 C158.985827,21.100875 159.419204,21.390125 159.36127,22.401625 C159.289793,23.647375 159.368543,24.901125 159.31111,26.148125 C159.096679,30.812375 155.715433,34.053625 150.942264,34.204875 C146.389546,34.349125 142.718881,31.141875 142.316101,26.570875 C142.188696,25.125125 142.296288,23.658875 142.296288,22.201875 C142.293529,22.201875 142.29077,22.201625 142.288011,22.201625" id="Fill-12"></path>
                    <path d="M195.552284,22.163625 C195.606957,22.165875 195.661631,22.168375 195.716305,22.170625 C195.716305,23.334125 195.700003,24.498125 195.72433,25.661375 C195.734111,26.115625 195.823646,26.569875 195.896879,27.020875 C196.260284,29.259375 197.912534,30.660375 200.240432,30.712125 C202.551527,30.763375 204.512258,29.448125 204.666247,27.190875 C204.89372,23.853875 204.876165,20.477125 204.638409,17.140125 C204.483667,14.970875 202.564318,13.736125 200.233159,13.767375 C197.957678,13.798125 196.228683,15.160375 195.929231,17.324125 C195.707778,18.924125 195.671161,20.549625 195.552284,22.163625 M208.952619,22.231125 C208.820199,24.094375 208.873117,25.993625 208.518239,27.813875 C207.713933,31.936875 203.699676,34.673125 199.507102,34.152875 C194.988993,33.592125 192.204896,30.806625 191.92927,26.286875 C191.76249,23.552375 191.812649,20.795375 191.930774,18.055375 C192.087523,14.425125 194.012891,11.922375 197.428245,10.772375 C200.871438,9.612875 204.022201,10.326375 206.659081,12.906125 C208.078341,14.294625 208.644641,16.064125 208.743705,17.982125 C208.816687,19.392625 208.758001,20.810125 208.758001,22.224375 C208.822957,22.226625 208.887663,22.228875 208.952619,22.231125" id="Fill-14"></path>
                    <path d="M48.0619141,96.542475 C46.9448642,96.542475 46.0337186,96.566975 45.1243286,96.536975 C43.5819269,96.485975 42.4465688,95.376975 42.4540927,93.969225 C42.4616166,92.562975 43.5922096,91.433975 45.1494083,91.429725 C52.873455,91.408475 60.5975018,91.408725 68.3215486,91.432225 C69.9055826,91.437225 71.0281501,92.530975 71.0542329,93.936725 C71.081319,95.399975 69.9319163,96.526475 68.2917037,96.534725 C63.6991086,96.557975 59.1060119,96.575225 54.5139184,96.519475 C53.4630789,96.506725 53.0888897,96.807975 53.1912149,97.848475 C53.2641968,98.589225 53.2403711,99.350475 53.16137,100.091975 C53.0226793,101.397975 51.8742797,102.415475 50.6308281,102.417725 C49.3239248,102.419725 48.1554614,101.356225 48.0749556,99.986475 C48.0102499,98.881225 48.0619141,97.769225 48.0619141,96.542475" id="Fill-16"></path>
                    <path d="M153.950173,90.846075 L153.955942,90.846075 C153.955942,89.098325 153.955942,87.350825 153.955691,85.603075 C153.955691,85.519825 153.954186,85.436575 153.951427,85.353575 C153.865153,82.767575 152.418305,81.221575 150.086645,81.223825 C147.797119,81.225825 146.30914,82.719325 146.267257,85.257325 C146.206063,88.959825 146.206565,92.664575 146.268261,96.366825 C146.310645,98.906325 147.778811,100.347325 150.114484,100.340575 C152.43561,100.333575 153.875938,98.860325 153.940894,96.338325 C153.988044,94.508825 153.950173,92.676825 153.950173,90.846075 M156.606866,90.816325 C156.606866,92.647575 156.656273,94.480325 156.596584,96.309575 C156.472439,100.120825 153.891236,102.699825 150.204771,102.768075 C146.538871,102.835575 143.758284,100.322575 143.615079,96.522825 C143.471121,92.699825 143.460086,88.862325 143.611818,85.039825 C143.763551,81.218825 146.483695,78.815575 150.240133,78.868825 C153.900265,78.920575 156.442343,81.418575 156.590063,85.198325 C156.663045,87.068325 156.602603,88.943575 156.602603,90.816325 L156.606866,90.816325" id="Fill-18"></path>
                    <path d="M27.1098542,18.40685 C30.6779435,18.3921 33.6077543,21.26535 33.619291,24.79085 C33.6308276,28.33385 30.7321156,31.2551 27.1931188,31.2671 C23.6365662,31.27935 20.7052506,28.4021 20.6799201,24.87385 C20.6545896,21.3441 23.5603239,18.4216 27.1098542,18.40685" id="Fill-20"></path>
                    <path d="M168.099916,30.5294 C171.517778,30.5294 174.72823,30.51315 177.938182,30.54815 C178.382845,30.5529 179.187903,30.7739 179.206462,30.9574 C179.300762,31.88215 179.219504,32.8314 179.109153,33.76115 C179.096613,33.86665 178.514513,33.9639 178.196252,33.9649 C173.937969,33.9789 169.679686,33.9579 165.421654,33.98915 C164.545871,33.99565 164.267236,33.6854 164.270245,32.8239 C164.295325,25.7909 164.299589,18.7579 164.266483,11.72515 C164.261718,10.7249 164.626377,10.4329 165.585926,10.4504 C168.51022,10.5034 168.086874,10.25165 168.095151,12.8909 C168.112205,18.25915 168.100167,23.6274 168.099916,28.99565 L168.099916,30.5294" id="Fill-22"></path>
                    <path d="M126.744891,58.19845 C127.285609,58.19845 127.828585,58.2307 128.366294,58.1922 C129.831199,58.0872 130.684912,57.20495 130.711998,55.80895 C130.739335,54.3902 129.944309,53.44445 128.519782,53.26695 C127.986336,53.2007 127.4401,53.2272 126.899884,53.22645 C124.331471,53.2232 124.331471,53.22495 124.33122,55.7642 C124.33097,58.2132 124.33097,58.2132 126.744891,58.19845 M130.368657,60.4362 C131.591543,62.79245 132.793112,65.10745 133.992173,67.4177 C132.382306,68.32345 130.956776,67.9402 130.235484,66.48995 C129.549303,65.11045 128.733461,63.7807 128.193996,62.3472 C127.67585,60.97045 126.843705,60.47045 125.45128,60.7112 C125.132015,60.7662 124.803471,60.76745 124.330719,60.8052 C124.330719,62.72695 124.271029,64.58995 124.35304,66.44695 C124.403199,67.5807 123.965809,67.8557 122.898668,67.8562 C121.812466,67.8567 121.440032,67.5272 121.451318,66.4217 C121.500725,61.6337 121.497214,56.84445 121.453325,52.05645 C121.443293,50.9757 121.773843,50.5777 122.887884,50.6287 C124.68033,50.7107 126.479548,50.63695 128.275505,50.6562 C130.894579,50.6842 132.89318,52.13145 133.446438,54.3707 C134.053367,56.8277 133.112627,58.79345 130.681652,60.1547 C130.61193,60.19395 130.559263,60.2632 130.368657,60.4362" id="Fill-24"></path>
                    <path d="M223.85543,100.5093 C226.158248,100.49905 227.579013,98.83005 227.575251,96.13905 C227.571489,93.4018 226.106584,91.73005 223.735549,91.7573 C221.443766,91.78355 220.064633,93.4648 220.100497,96.1883 C220.136361,98.92555 221.521764,100.5198 223.85543,100.5093 M222.492348,89.28405 C223.406503,89.28405 224.206295,89.1793 224.968718,89.30305 C227.515311,89.71655 229.213207,91.2053 229.904153,93.6718 C230.722503,96.5933 230.304425,99.34905 228.006873,101.47805 C226.055672,103.28605 223.668085,103.4723 221.226325,102.52405 C218.45577,101.4478 216.859447,98.2233 217.520046,94.9848 C217.749776,93.85755 218.10967,92.72855 218.596216,91.6868 C220.40672,87.8098 222.291961,83.96755 224.155383,80.11555 C224.55089,79.2983 225.657407,78.88555 226.422087,79.2868 C227.069645,79.6263 226.914401,80.1228 226.651064,80.6608 C225.390809,83.23505 224.149866,85.81855 222.903154,88.3993 C222.781517,88.65155 222.666903,88.9073 222.492348,89.28405" id="Fill-26"></path>
                    <path d="M109.319815,100.2215 C112.374272,100.2215 115.124763,100.27675 117.871492,100.19625 C119.091118,100.1605 119.360223,100.736 119.140525,101.6995 C119.068295,102.0155 118.609086,102.472 118.321421,102.47575 C114.520843,102.52775 110.719262,102.5245 106.918182,102.5 C106.058199,102.4945 105.666956,101.36725 106.138454,100.2705 C106.282663,99.935 106.550765,99.64825 106.781749,99.3545 C109.589923,95.78325 112.395339,92.21 115.215802,88.6485 C116.224006,87.3755 116.711555,85.97525 116.450476,84.34675 C116.147764,82.4595 114.793711,81.295 112.805141,81.226 C110.686157,81.15225 109.274671,82.17125 108.84631,84.09275 C108.705613,84.724 108.765052,85.41675 107.756095,85.44825 C106.122403,85.49875 105.892172,85.289 106.251815,83.70025 C107.090731,79.99525 110.845664,77.984 114.782675,79.1315 C118.228627,80.136 120.126909,84.035 118.775866,87.464 C118.445315,88.30275 117.947734,89.1045 117.39598,89.82325 C115.03573,92.89725 112.62557,95.9335 110.236227,98.9855 C109.984427,99.30675 109.749179,99.641 109.319815,100.2215" id="Fill-28"></path>
                    <path d="M191.677194,55.8056 C189.689376,56.3251 189.361334,56.20285 188.420845,54.63885 C187.701308,53.44235 186.384875,52.9001 184.841721,53.16485 C183.494941,53.39585 182.432063,54.33385 182.33977,55.74885 C182.199072,57.9021 182.160701,60.0741 182.27381,62.2281 C182.389929,64.4466 184.008824,65.6636 186.085172,65.3246 C188.206414,64.97835 189.312178,63.1961 188.752148,60.8626 C187.958375,60.8626 187.130996,60.83635 186.306125,60.86935 C185.381687,60.90635 185.332781,60.3331 185.335791,59.6446 C185.3388,58.9751 185.334035,58.3776 186.273772,58.3931 C187.818681,58.41835 189.366851,58.35135 190.906996,58.4406 C191.234035,58.4596 191.788297,58.9746 191.798329,59.27585 C191.841716,60.5581 191.86479,61.87285 191.629542,63.1261 C191.059731,66.16135 188.436645,68.0941 185.271587,67.97485 C182.120071,67.8561 179.609342,65.70935 179.402435,62.5906 C179.235404,60.07335 179.231893,57.49785 179.577491,55.00635 C179.970239,52.17285 182.822805,50.3376 185.90811,50.5021 C188.98564,50.6661 191.319306,52.77935 191.677194,55.8056" id="Fill-30"></path>
                    <path d="M139.964151,57.850575 C141.921371,57.850575 143.747424,57.887825 145.57097,57.835325 C146.532525,57.807825 147.022834,58.008825 147.023335,59.124325 C147.024088,60.207575 146.598234,60.481825 145.608589,60.445325 C144.065686,60.388575 142.518519,60.458325 140.974613,60.421325 C140.225231,60.403575 139.974183,60.664325 139.947599,61.425825 C139.815178,65.226075 139.794362,65.225075 143.529482,65.225575 C144.74033,65.225575 145.952181,65.257325 147.161775,65.219825 C148.134868,65.189825 148.219135,65.767825 148.218634,66.513825 C148.218132,67.246325 148.177754,67.836075 147.189112,67.827825 C144.141176,67.802325 141.092989,67.809325 138.045052,67.826575 C137.264572,67.830825 137.059169,67.460325 137.061928,66.742325 C137.08124,61.747825 137.082995,56.753075 137.062681,51.758575 C137.05942,50.965325 137.336049,50.635075 138.151641,50.641825 C141.157945,50.666825 144.1645,50.674825 147.170302,50.638575 C148.155684,50.626575 148.212865,51.177575 148.220891,51.920825 C148.22992,52.734075 148.113801,53.274575 147.077507,53.241575 C145.15891,53.180575 143.233291,53.294325 141.317452,53.198075 C140.168802,53.140325 139.851794,53.545825 139.945843,54.620325 C140.032117,55.610075 139.964151,56.613325 139.964151,57.850575" id="Fill-32"></path>
                    <path d="M172.989129,61.849675 C172.222944,59.616425 171.499394,57.507425 170.653707,55.042675 C169.782187,57.522425 169.045596,59.618675 168.261605,61.849675 L172.989129,61.849675 Z M163.245413,67.572675 C164.009843,65.505925 164.744929,63.531925 165.470485,61.554425 C166.673056,58.276925 167.891177,55.004425 169.05312,51.712425 C169.334514,50.915175 169.758863,50.629675 170.603547,50.621175 C171.467041,50.612425 171.862548,50.950175 172.142939,51.725425 C173.940151,56.689175 175.754667,61.646925 177.612321,66.588675 C177.985005,67.580175 177.709129,67.772175 176.735785,67.855425 C175.415841,67.968425 174.649906,67.534425 174.460304,66.218925 C174.247628,64.743675 173.436801,64.241175 171.959607,64.419175 C170.808699,64.557925 169.623683,64.500675 168.460487,64.426175 C167.579688,64.369675 167.128755,64.707925 166.975016,65.537925 C166.945171,65.700175 166.87871,65.856175 166.823284,66.012925 C166.116789,68.004425 165.708742,68.201425 163.245413,67.572675 L163.245413,67.572675 Z" id="Fill-34"></path>
                    <path d="M226.005989,55.421325 C225.915201,55.418325 225.824412,55.415575 225.733624,55.412575 C224.998538,57.514825 224.263452,59.617325 223.481717,61.852075 L228.204978,61.852075 C227.44406,59.627075 226.725024,57.524075 226.005989,55.421325 M233.065926,67.574325 C230.701411,68.238075 230.210601,68.032825 229.583609,65.879575 C229.264595,64.785075 228.780557,64.303575 227.575979,64.416575 C226.250266,64.540825 224.902232,64.489825 223.567741,64.431575 C222.807324,64.398575 222.386487,64.665075 222.22698,65.389325 C222.191367,65.551575 222.131175,65.708575 222.078508,65.866575 C221.353203,68.045075 221.05024,68.204575 218.602963,67.608325 C218.658891,67.308075 218.673186,66.985325 218.779273,66.695825 C220.599056,61.730075 222.445926,56.774075 224.243388,51.800575 C224.541586,50.975575 224.943613,50.609075 225.865041,50.618825 C226.745088,50.627825 227.098712,51.001575 227.376595,51.768325 C229.177819,56.740325 231.022181,61.696825 232.845726,66.660575 C232.942784,66.924575 232.979902,67.210325 233.065926,67.574325" id="Fill-36"></path>
                    <path d="M200.512321,55.04965 C199.645065,57.51915 198.899696,59.64165 198.13,61.8334 L202.851254,61.8334 C202.079552,59.59515 201.355501,57.4954 200.512321,55.04965 M193.154438,67.55965 C193.506808,66.55065 193.844381,65.54065 194.211046,64.5414 C195.760972,60.31915 197.334472,56.1054 198.862077,51.87515 C199.145478,51.0899 199.459225,50.60965 200.426549,50.61565 C201.354247,50.6214 201.734204,50.9964 202.030396,51.8169 C203.812559,56.7529 205.635101,61.67465 207.470183,66.5914 C207.778914,67.41865 207.711701,67.78365 206.69497,67.8494 C205.385308,67.93365 204.492721,67.6339 204.304122,66.1934 C204.120789,64.7914 203.36589,64.25215 201.914528,64.41665 C200.676844,64.55715 199.409065,64.48215 198.157087,64.4329 C197.452598,64.4054 197.050319,64.64565 196.89959,65.3304 C196.84617,65.57315 196.745852,65.80565 196.66359,66.0419 C195.978413,68.01315 195.484092,68.24365 193.154438,67.55965" id="Fill-38"></path>
                    <path d="M109.376269,53.26635 C109.376269,54.90885 109.339904,56.36335 109.410127,57.8126 C109.422667,58.06985 109.868082,58.5021 110.132924,58.5171 C111.255993,58.58085 112.393859,58.5926 113.512414,58.48285 C114.977319,58.3391 115.746764,57.41285 115.773098,55.9686 C115.799933,54.49585 114.981332,53.4166 113.532728,53.2906 C112.215793,53.1761 110.88055,53.26635 109.376269,53.26635 M109.372256,61.13385 C109.372256,63.1541 109.309306,64.8961 109.393323,66.6311 C109.453013,67.8606 108.73473,67.82235 107.883024,67.83585 C107.015015,67.84985 106.479563,67.72485 106.489595,66.6326 C106.535491,61.68435 106.524205,56.7351 106.494611,51.7866 C106.489345,50.90535 106.822654,50.6201 107.673357,50.63835 C109.591453,50.6796 111.512057,50.6196 113.429901,50.6656 C116.319835,50.7351 118.50503,52.8091 118.633438,55.5381 C118.774135,58.52585 116.920494,60.79385 113.918454,61.1081 C112.482139,61.25835 111.016983,61.13385 109.372256,61.13385" id="Fill-40"></path>
                    <path d="M154.407853,53.285225 L154.407853,58.479475 C155.860971,58.479475 157.237094,58.577975 158.592401,58.451725 C159.948461,58.325225 160.705115,57.318475 160.725681,55.952725 C160.746999,54.558475 159.950718,53.448975 158.585128,53.314475 C157.231326,53.180975 155.853949,53.285225 154.407853,53.285225 M154.321077,61.162225 C154.321077,63.143725 154.265149,64.887975 154.340138,66.626475 C154.393056,67.846475 153.67377,67.819475 152.816546,67.837225 C151.934743,67.855475 151.4334,67.712975 151.444937,66.624475 C151.496601,61.708975 151.484814,56.792475 151.452461,51.876725 C151.446442,50.978225 151.693728,50.603225 152.652525,50.633725 C154.531245,50.693475 156.414229,50.620475 158.293953,50.659975 C161.256869,50.722225 163.465137,52.811725 163.581256,55.605975 C163.7054,58.594475 161.698773,60.898475 158.645821,61.143725 C157.281485,61.253225 155.901098,61.162225 154.321077,61.162225" id="Fill-42"></path>
                    <path d="M93.810627,56.24585 C93.810627,71.15885 93.8153921,86.07185 93.7918172,100.98485 C93.7910648,101.5416 93.5139341,102.09785 93.3657131,102.65435 C93.1741041,102.0956 92.8154644,101.5371 92.8149628,100.97835 C92.7903847,71.15235 92.7936451,41.3261 92.8169692,11.5001 C92.8174708,10.94385 93.0938491,10.38785 93.2415685,9.8316 C93.4284123,10.38985 93.7775218,10.9481 93.7787758,11.5066 C93.8083698,26.4196 93.8023507,41.33285 93.8023507,56.24585 L93.810627,56.24585 Z" id="Fill-44"></path>
                    <path d="M137.244784,22.3701 C137.245537,25.7816 137.216946,29.1936 137.263343,32.6046 C137.276635,33.5906 137.041388,34.02635 135.948916,33.99635 C132.956908,33.91385 133.430162,34.2301 133.420631,31.45435 C133.39806,25.0056 133.440946,18.55685 133.389031,12.1086 C133.379501,10.89685 133.654123,10.3871 134.977579,10.43885 C137.538217,10.53885 137.23726,10.2866 137.242527,12.7596 C137.249299,15.9631 137.244032,19.1666 137.244784,22.3701" id="Fill-46"></path>
                    <path d="M183.023543,22.117425 C183.023041,18.664925 183.049876,15.211925 183.005987,11.760175 C182.993698,10.788175 183.311458,10.429675 184.299849,10.450675 C187.206335,10.511925 186.852962,10.186425 186.857978,12.978175 C186.869515,19.467175 186.834153,25.956425 186.88682,32.445175 C186.896601,33.645925 186.536958,34.155925 185.331628,33.976425 C185.290999,33.970425 185.248363,33.975675 185.206731,33.975675 C182.732116,33.975925 183.033073,34.087425 183.026552,31.851175 C183.016771,28.606425 183.024044,25.361925 183.023543,22.117425" id="Fill-48"></path>
                    <path d="M43.227651,76.343625 C43.7628519,77.549875 44.2965479,78.618125 44.6978232,79.733875 C44.8309964,80.103875 44.7121186,80.636125 44.5383163,81.017125 C44.4337339,81.246875 43.983804,81.464875 43.7227243,81.430875 C43.5368837,81.406875 43.3442716,80.972125 43.2630134,80.689625 C42.9633109,79.647375 42.7090028,78.592125 42.3686712,77.275625 C41.2177637,78.333375 40.9963099,79.336875 40.8518508,80.409125 C40.8011898,80.785875 40.4811728,81.126375 40.2840463,81.483125 C39.9577594,81.065125 39.2838678,80.556625 39.3656276,80.244625 C39.703702,78.951125 40.2702525,77.716875 40.8006882,76.337375 C39.9482291,75.415625 38.3782397,75.321875 37.3527307,76.597875 C35.6606032,78.702875 33.517041,78.848875 31.1349709,78.454625 C30.2095299,78.301375 29.9685139,77.871125 30.2531685,76.973125 C30.8320081,75.148125 32.3277615,73.954125 34.4745841,73.824875 C36.7698784,73.686625 38.9829114,74.131875 41.0096021,75.198625 C41.8261972,75.628375 42.3854746,75.565875 43.1714725,75.161625 C45.2091983,74.113625 47.4204757,73.673875 49.7140145,73.825875 C51.8801484,73.969375 53.4977892,75.322625 53.9108519,77.158625 C54.0721143,77.875625 53.8897849,78.290125 53.1496829,78.422125 C50.7964544,78.841875 48.6052408,78.839375 46.8892876,76.728625 C45.8269114,75.422125 44.53004,75.395375 43.227651,76.343625" id="Fill-50"></path>
                    <path d="M55.9758142,90.7665 C53.7234062,90.7665 51.4707473,90.74525 49.2188408,90.77625 C48.2402308,90.78975 47.9661097,90.411 48.1953382,89.47725 C48.7210087,87.3375 50.518471,85.72225 52.7432914,85.675 C56.0783902,85.6045 59.4164986,85.62425 62.7526006,85.66425 C64.338641,85.6835 65.4273509,86.792 65.4190746,88.214 C65.4105475,89.6425 64.3208344,90.721 62.7325369,90.7505 C60.481132,90.79225 58.2282223,90.761 55.9758142,90.761 L55.9758142,90.7665 Z" id="Fill-52"></path>
                    <path d="M187.451715,82.127225 C185.954959,83.418225 184.715269,84.487475 183.421909,85.602725 C182.788395,83.812975 182.971979,83.017475 184.136429,82.009725 C185.050835,81.218475 185.961228,80.422225 186.891435,79.649725 C187.172578,79.416225 187.490087,79.161475 187.831422,79.075475 C189.580982,78.633475 190.09963,79.051725 190.099881,80.833725 C190.100132,87.577725 190.101386,94.321725 190.097624,101.065975 C190.097122,102.378725 189.052553,103.064975 187.895626,102.418475 C187.599936,102.253225 187.468268,101.581225 187.466261,101.140975 C187.439928,95.312975 187.450461,89.484725 187.451715,83.656475 L187.451715,82.127225" id="Fill-54"></path>
                    <path d="M214.538421,53.22605 C214.538421,55.4268 214.538672,57.41655 214.538421,59.40655 C214.537919,61.7368 214.490268,64.0683 214.556729,66.3968 C214.587326,67.47055 214.269065,67.86955 213.14725,67.85505 C212.088635,67.8413 211.664287,67.56655 211.680589,66.4383 C211.737018,62.48605 211.661027,58.53155 211.729494,54.57955 C211.749056,53.44555 211.376874,53.08655 210.297694,53.21305 C209.679981,53.28555 209.042204,53.1778 208.421732,53.23705 C207.406255,53.33405 207.040342,52.9743 207.027301,51.91505 C207.013256,50.7858 207.514599,50.6238 208.46512,50.63555 C211.637201,50.67505 214.810786,50.6848 217.982366,50.62855 C219.000601,50.61055 219.260929,50.9778 219.256414,51.93705 C219.2519,52.8868 219.005868,53.3143 217.981864,53.2428 C216.9077,53.1678 215.824257,53.22605 214.538421,53.22605" id="Fill-56"></path>
                    <path d="M79.506193,36.015925 C79.6177977,35.017675 79.6774874,34.205425 79.805143,33.403925 C80.0095426,32.120425 80.5013556,31.004675 81.7686329,30.397425 C82.374057,30.107425 82.9355915,30.150925 82.9564077,30.905925 C83.0030559,32.591425 83.1409943,34.320425 82.8360251,35.956675 C82.521024,37.647175 81.4518763,38.109425 79.6998083,37.838175 C79.5861972,37.820425 79.4640591,37.825425 79.3499464,37.844425 C77.682397,38.122675 76.7278635,37.801425 76.1016234,36.360175 C75.5789624,35.157425 75.328667,33.825925 75.074108,32.528675 C75.0279613,32.292675 75.5059804,31.743925 75.8071877,31.687925 C77.02882,31.460925 77.9364544,32.062175 78.4515915,33.126925 C78.862397,33.975425 79.1084289,34.903175 79.506193,36.015925" id="Fill-58"></path>
                    <path d="M59.4555728,5.095725 C58.6394793,4.581475 57.7649501,4.207725 57.1374559,3.586475 C56.4585484,2.914225 55.8869819,2.064225 55.5062721,1.189225 C55.2612434,0.625725 55.6356833,-0.119025 56.4372306,0.250225 C57.8931073,0.920975 59.3858512,1.610975 60.6466079,2.574475 C61.7576387,3.423725 61.5860935,4.375475 61.0175367,5.674975 C60.5876706,6.657225 60.2613836,7.810475 59.0941743,7.786225 C57.5868842,7.754975 56.0800956,7.346225 54.5961296,7.000975 C54.4228289,6.960475 54.2073943,6.053975 54.3345484,5.952975 C54.9800999,5.439975 55.6971286,4.801225 56.4555388,4.699725 C57.3940213,4.574475 58.3977109,4.933475 59.4555728,5.095725" id="Fill-60"></path>
                    <path d="M24.3736336,5.285375 C25.3058461,5.041375 25.8964731,4.793875 26.5013955,4.752375 C27.2304625,4.702125 28.060099,4.639625 28.6813233,4.931375 C29.2355847,5.191875 29.565132,5.927625 29.9939949,6.453625 C29.5423095,6.752125 29.1219736,7.124875 28.6309131,7.329875 C28.0618546,7.567625 27.438624,7.710625 26.8251745,7.803375 C24.4456123,8.163125 22.9182584,7.109375 22.7263987,4.725875 C22.6636995,3.945125 23.1048514,2.819625 23.7067643,2.355625 C24.8626878,1.463625 26.2786878,0.889625 27.6257186,0.267625 C28.3309598,-0.058125 28.7670959,0.470125 28.5822584,1.062875 C28.3352234,1.854375 27.9394657,2.698875 27.3568642,3.263125 C26.5966984,3.999375 25.5910023,4.483875 24.3736336,5.285375" id="Fill-62"></path>
                    <path d="M57.9932757,72.04405 C59.7052162,72.0888 60.9604553,72.8188 61.7534755,74.3358 C62.0647146,74.93155 61.9942406,75.4318 61.3288761,75.63255 C60.0626019,76.01455 58.7827847,76.5113 57.4876689,76.5818 C56.6823596,76.6258 55.6693904,76.15405 55.0612077,75.58355 C54.4868825,75.04505 54.1407826,74.0888 54.0778325,73.2863 C54.057518,73.02755 55.2292417,72.59505 55.9008761,72.38605 C56.5687486,72.1778 57.293552,72.15055 57.9932757,72.04405" id="Fill-64"></path>
                    <path d="M26.3098618,72.01275 C27.3594474,72.2485 28.4323571,72.416 29.4438215,72.76225 C29.7392604,72.86325 30.0685569,73.5005 30.0234134,73.8455 C29.816255,75.4355 28.3769309,76.723 26.687813,76.59275 C25.3543252,76.48975 24.0434091,75.9925 22.7432774,75.6015 C22.0270011,75.38625 22.1115197,74.83375 22.3966759,74.2905 C23.2195409,72.72425 24.5487651,72.0575 26.3098618,72.01275" id="Fill-66"></path>
                    <path d="M66.0182789,68.227425 C66.4574244,68.341675 66.9790823,68.344425 67.3176582,68.594175 C67.9634606,69.070175 68.6328378,69.616925 69.0042682,70.291925 C69.1038346,70.472675 68.2385849,71.347675 67.6820663,71.682675 C66.8057815,72.210175 65.8477369,72.659675 64.8663681,72.943925 C63.3329951,73.387925 61.67623,72.458175 61.1781471,70.958175 C61.0893649,70.690925 61.2097475,70.125175 61.3988485,70.032425 C62.8707762,69.311425 64.3830823,68.672425 65.8828485,68.008175 C65.9279919,68.081175 65.9731354,68.154425 66.0182789,68.227425" id="Fill-68"></path>
                    <path d="M18.0765216,67.9463 C19.7688999,68.70405 21.2784472,69.3553 22.7546385,70.07455 C22.9194121,70.15505 23.0139626,70.65655 22.9392251,70.9013 C22.4955651,72.35305 20.8360412,73.4288 19.405495,72.9448 C18.0188383,72.4753 16.7317479,71.6808 15.465223,70.92255 C15.2573122,70.79805 15.1941114,69.89905 15.3834631,69.74305 C16.1782389,69.08805 17.0944004,68.57955 18.0765216,67.9463" id="Fill-70"></path>
                    <path d="M67.4458155,65.53645 C68.5219855,64.77795 69.5590312,63.95495 70.6846083,63.2782 C71.9528888,62.5157 73.2713288,62.46245 74.5378538,63.3957 C75.1161917,63.8217 75.3220961,64.29145 74.7347294,64.80945 C73.6262066,65.78695 72.561824,66.8542 71.3193756,67.62995 C70.1135435,68.3832 68.7624999,68.02345 67.860383,66.9137 C67.5794903,66.56795 67.60457,65.97495 67.489705,65.4952 L67.4458155,65.53645 Z" id="Fill-72"></path>
                    <path d="M11.2562721,62.6713 C13.718848,62.99105 15.206576,64.39905 16.6426397,65.8593 C16.7512349,65.9698 16.586712,66.4763 16.419932,66.7048 C15.5619554,67.88005 14.1161105,68.39755 12.8907163,67.6438 C11.5712731,66.8323 10.4431881,65.69655 9.30431881,64.62555 C9.14581509,64.47655 9.26745165,63.7013 9.49216578,63.5413 C10.0802848,63.12305 10.7973135,62.88505 11.2562721,62.6713" id="Fill-74"></path>
                    <path d="M74.6760179,61.622725 C74.344715,61.507975 73.8589211,61.391975 73.4217819,61.177475 C72.6016757,60.774975 72.3027256,60.230225 73.0408213,59.442725 C73.975291,58.445475 74.8084387,57.342725 75.8161411,56.428725 C76.7054674,55.622225 77.8576289,55.468725 78.9706661,56.015475 C79.2603367,56.157975 79.6420497,56.720725 79.5605407,56.913725 C78.756987,58.814975 77.7259605,60.564975 75.7045365,61.442475 C75.4462155,61.554725 75.135478,61.546475 74.6760179,61.622725" id="Fill-76"></path>
                    <path d="M9.28954687,61.761925 C8.54794006,61.390425 7.69723656,61.197175 7.20868395,60.670175 C6.2606712,59.647425 5.49273071,58.453425 4.69695175,57.298425 C4.24526631,56.642675 4.5830899,56.043175 5.2497084,56.005675 C6.19471158,55.952175 7.40029288,55.865675 8.05838427,56.364675 C9.32215048,57.322675 10.3007605,58.664425 11.3363014,59.898175 C11.4649603,60.051425 11.3262695,60.663925 11.1261335,60.808675 C10.6082376,61.182925 9.9865118,61.414925 9.28954687,61.761925" id="Fill-78"></path>
                    <path d="M52.5989577,69.159775 C52.3940565,71.752025 49.5969173,73.905275 47.1200459,73.295775 C46.857963,73.231275 46.535438,72.831025 46.4933041,72.549025 C46.1316548,70.125025 49.268624,67.113775 51.6494402,67.681275 C52.0607473,67.779275 52.287217,68.647525 52.5989577,69.159775" id="Fill-80"></path>
                    <path d="M36.4120914,73.320275 C33.2723634,73.222275 31.3505058,71.235775 31.7758576,68.584025 C31.9022593,67.794275 32.2094857,67.541275 33.0240744,67.675275 C35.7685462,68.126275 37.4019872,69.624275 37.6327205,71.998775 C37.7380553,73.081025 37.4860043,73.353775 36.4120914,73.320275" id="Fill-82"></path>
                    <path d="M78.7882363,54.26015 C76.7347103,54.29715 76.274247,53.6109 76.948891,52.19615 C77.3958113,51.25915 77.8424808,50.30515 78.4341109,49.45965 C78.8496816,48.8659 79.4345403,48.25915 80.0820982,47.9949 C80.7128527,47.7374 81.5194159,47.9079 82.2487337,47.8904 C82.2449717,48.5109 82.4032247,49.19015 82.2028378,49.7394 C81.8078325,50.82265 81.3478708,51.93465 80.6596837,52.84265 C80.1257369,53.5469 79.2040578,53.95915 78.7882363,54.26015" id="Fill-84"></path>
                    <path d="M2.9081169,47.54775 C3.5569288,47.87375 4.43446759,48.036 4.81066312,48.55725 C5.82012115,49.95675 6.64273539,51.4955 7.4593305,53.0215 C7.55613815,53.2025 7.23712434,53.80575 6.9702763,53.9445 C5.82639107,54.53875 4.59798725,54.3325 3.93763868,53.33 C2.99714984,51.902 2.28538789,50.29925 1.66215728,48.699 C1.31229543,47.8005 2.18506908,47.77475 2.9081169,47.54775" id="Fill-86"></path>
                    <path d="M30.6056136,70.6095 C30.6058644,72.3795 30.2462215,72.627 28.61579,71.97925 C25.8768357,70.89125 24.7615413,68.9605 25.529231,66.699 C25.7923171,65.924 26.1271311,65.6 26.9853586,66.019 C28.9488485,66.97775 30.6081216,68.13125 30.6056136,70.6095" id="Fill-88"></path>
                    <path d="M58.8037012,68.013075 C58.8167426,70.027575 56.4474631,72.354325 54.3696098,72.287325 C54.1045173,72.278825 53.6937118,71.858075 53.6237394,71.563575 C53.2656013,70.053575 53.5931422,68.675325 54.7345194,67.576825 C55.1771762,67.150575 55.6993356,66.787075 56.2332825,66.477825 C58.1089934,65.391825 58.7894057,65.808575 58.8037012,68.013075" id="Fill-90"></path>
                    <path d="M83.7922138,40.6533 C83.4493743,41.88255 83.1968217,43.14555 82.7278312,44.3228 C82.4848089,44.93305 81.95337,45.58005 81.3795464,45.8668 C80.7821479,46.1653 79.9565241,46.1583 79.277115,46.0338 C79.1188621,46.0048 78.9989811,44.9248 79.122624,44.38805 C79.3899736,43.2253 79.7403371,42.06305 80.2273849,40.97655 C80.4989981,40.37055 81.0324434,39.7888 81.5982414,39.43505 C82.0664795,39.14205 82.8020672,39.0303 83.3264837,39.1743 C83.5827983,39.24455 83.6274402,40.08005 83.7922138,40.6533" id="Fill-92"></path>
                    <path d="M60.7748404,69.796925 C59.207359,67.161675 60.5827299,63.352425 63.2404259,62.589425 C63.4779307,62.521175 63.939648,62.780675 64.1137012,63.020425 C64.8783813,64.072425 65.0306151,65.273925 64.5255099,66.455925 C63.8175099,68.113175 62.4368723,69.069425 60.7748404,69.796925" id="Fill-94"></path>
                    <path d="M23.0995345,70.00495 C21.9875005,68.98945 20.869949,68.13445 19.9811243,67.08645 C19.5459915,66.57345 19.2999596,65.66845 19.3942593,65.0007 C19.5136387,64.15495 20.0661445,63.3697 20.4318066,62.5582 C21.0482657,62.9307 21.7417194,63.2182 22.2678916,63.6907 C24.371577,65.5797 24.7277088,67.68345 23.0995345,70.00495" id="Fill-96"></path>
                    <path d="M5.37034176,45.44625 C4.91940871,45.75275 4.55650542,46.19425 4.15071583,46.23775 C3.05072009,46.35525 2.0553067,45.81075 1.71447354,44.83375 C1.14817386,43.21075 0.811855048,41.4985 0.498609564,39.80175 C0.360169607,39.05125 1.08672859,38.8025 1.57979554,39.08925 C2.40767651,39.57025 3.37299426,40.133 3.79483486,40.92 C4.48904102,42.21525 4.79576578,43.71675 5.37034176,45.44625" id="Fill-98"></path>
                    <path d="M67.4896298,65.4952 C67.0850942,65.27895 66.5360995,65.1632 66.3021058,64.82845 C65.4860123,63.6612 65.3869475,62.3462 65.9527456,61.0427 C66.2469305,60.36495 66.6401802,59.71295 67.0871005,59.1237 C67.4449879,58.6522 67.9518487,58.29295 68.392499,57.88395 C68.8677594,58.43545 69.5092982,58.91545 69.7851749,59.5527 C70.452295,61.09295 69.8175277,62.46445 68.8940931,63.7157 C68.4341313,64.3392 67.9300293,64.92995 67.4459911,65.53595 C67.4457403,65.53645 67.4896298,65.4952 67.4896298,65.4952" id="Fill-100"></path>
                    <path d="M18.715753,62.7236 C18.2560421,63.6161 17.7965819,64.50835 17.336871,65.4006 C16.6557063,64.86335 15.8569177,64.42285 15.315447,63.7701 C13.732667,61.8621 13.6832599,59.9756 14.9889092,58.45935 C15.499532,57.86635 15.8802419,57.7231 16.4698657,58.4061 C17.6897424,59.8191 18.4581845,61.32685 18.715753,62.7236" id="Fill-102"></path>
                    <path d="M4.43584697,35.489675 C4.4584187,35.863175 4.54544527,36.246675 4.48776196,36.607425 C4.41327524,37.074925 4.30016578,37.859675 4.06792774,37.912425 C3.56859086,38.025425 2.85833369,37.915175 2.46232519,37.606175 C1.9384102,37.197175 1.35530712,36.542175 1.28583634,35.937175 C1.09924336,34.309425 1.12331987,32.650925 1.16269501,31.006925 C1.18225717,30.189175 1.81526886,29.997175 2.37554942,30.478175 C3.01182147,31.024675 3.68270351,31.680675 3.98190436,32.430425 C4.35659511,33.369425 4.36888417,34.452425 4.53741977,35.473425 C4.50356217,35.478925 4.46970457,35.484175 4.43584697,35.489675" id="Fill-104"></path>
                    <path d="M69.8925913,56.780325 C70.5175775,55.273825 71.0347209,53.936575 71.6494244,52.645575 C71.7387082,52.458575 72.3719707,52.334575 72.6252757,52.453325 C73.7425764,52.976575 74.5629335,54.403575 74.2210971,55.672325 C73.8627082,57.002075 73.1792863,58.252825 72.5460238,59.491575 C72.4610036,59.658325 71.6150652,59.707325 71.5039622,59.547075 C70.9133352,58.695325 70.4443447,57.759325 69.8925913,56.780325" id="Fill-106"></path>
                    <path d="M78.2712183,28.333525 C78.1786742,27.301025 78.0402342,26.270025 78.0051226,25.235775 C77.9642427,24.028275 78.2707167,22.926275 79.2887018,22.133025 C79.7830227,21.747775 80.2873756,21.701525 80.4524,22.376025 C80.8529228,24.013525 81.2351375,25.664275 81.4530801,27.332025 C81.5233033,27.869775 81.176451,28.574025 80.804519,29.025275 C80.4408633,29.466275 79.8279154,29.785525 79.2658793,29.926775 C79.1169058,29.964275 78.750993,29.151275 78.4879069,28.726775 C78.4011311,28.586525 78.3248888,28.439775 78.2438814,28.295775 L78.2712183,28.333525 Z" id="Fill-108"></path>
                    <path d="M77.4167779,49.26345 C77.0932497,50.3667 76.7860234,51.4752 76.4406759,52.5717 C76.1981552,53.3412 75.7291647,53.3782 75.114712,52.92945 C74.107762,52.1947 73.4875409,51.20495 73.5377003,49.9817 C73.5845994,48.83845 73.865492,47.7027 74.0701424,46.56845 C74.2431923,45.6082 74.8202763,45.6132 75.5307843,46.01295 C76.784017,46.71795 77.3006589,47.8182 77.4167779,49.26345" id="Fill-110"></path>
                    <path d="M14.1096901,56.929175 C13.6564999,57.747925 13.2133416,58.663175 12.6410227,59.489425 C12.5201386,59.663925 11.6679303,59.642675 11.5909356,59.490675 C10.9579239,58.243175 10.3512459,56.969175 9.90883996,55.645925 C9.74657428,55.161175 9.88727141,54.416425 10.1764404,53.978425 C10.6133288,53.317925 11.3015158,52.822425 11.8828633,52.256675 C12.2944213,52.784925 12.8218474,53.260925 13.090451,53.853675 C13.4974946,54.751175 13.7242151,55.729675 14.1096901,56.929175" id="Fill-112"></path>
                    <path d="M6.22819299,24.837325 C5.92849054,26.624575 5.73261807,27.896075 5.49711966,29.160075 C5.34513666,29.977325 4.73218874,30.314575 4.17165739,29.732325 C3.52259469,29.058325 2.72380616,28.119075 2.73659681,27.306825 C2.76192731,25.688575 3.25850542,24.069075 3.64021849,22.469075 C3.82054155,21.712575 4.48289649,21.680825 4.84579979,22.220825 C5.46376366,23.139825 5.89337896,24.184575 6.22819299,24.837325" id="Fill-114"></path>
                    <path d="M75.2396591,40.9769 C75.2396591,40.8104 75.2010363,40.6324 75.2466814,40.4794 C75.412709,39.92215 75.6070767,39.37315 75.7909109,38.8209 C76.44198,39.03765 77.2234635,39.09665 77.7180353,39.5029 C78.8867494,40.4619 78.9476931,41.8899 78.9278801,43.2859 C78.9226134,43.65815 78.8942733,44.04365 78.790945,44.39815 C78.6507494,44.87915 78.5230937,45.63315 78.2178738,45.72965 C77.8201097,45.85565 77.1800757,45.55315 76.7732829,45.2584 C75.3088791,44.19665 75.2682499,42.57715 75.2396591,40.9769" id="Fill-116"></path>
                    <path d="M10.6029458,49.371125 C10.5583039,50.955125 10.1256791,52.071875 9.02116897,52.879125 C8.43254835,53.309125 7.89132837,53.403625 7.70924973,52.559625 C7.40628693,51.155875 7.11185122,49.736625 7.0127864,48.310125 C6.97566844,47.779375 7.38296281,47.092875 7.7962763,46.690625 C8.23517109,46.263125 8.90730712,45.943875 9.50796599,45.885375 C9.70785122,45.865875 10.0858023,46.774125 10.232017,47.299875 C10.4421849,48.055875 10.514916,48.849875 10.6029458,49.371125" id="Fill-118"></path>
                    <path d="M76.0396514,21.84555 C75.5350478,20.48155 74.8423464,19.15105 74.5925526,17.74205 C74.4282806,16.8168 74.7916854,15.73805 75.1322678,14.80555 C75.3529692,14.2013 76.0113114,14.11155 76.3594176,14.8133 C77.0390776,16.1833 77.7563571,17.5513 78.249424,18.9913 C78.6135813,20.05505 78.3289267,21.1373 77.4318257,21.96055 C76.8911073,22.4568 76.417101,22.4858 76.0115622,21.8073 L76.0396514,21.84555 Z" id="Fill-120"></path>
                    <path d="M8.29042168,21.50075 C7.47633454,22.54075 6.87392009,22.57775 6.28630266,21.4165 C5.93543762,20.723 5.68815175,19.74875 5.89706567,19.05025 C6.33119532,17.5975 7.07380531,16.23175 7.74192859,14.8555 C8.07874899,14.16225 8.69721445,14.19475 8.96506567,14.81925 C9.31016238,15.62325 9.67482125,16.57975 9.54164803,17.39075 C9.30966079,18.80625 8.70398597,20.16075 8.2548085,21.541 L8.29042168,21.50075 Z" id="Fill-122"></path>
                    <path d="M15.7153177,85.678225 C17.1152667,85.676725 18.2573964,86.815225 18.25539,88.210475 C18.2536344,89.604225 17.1052349,90.745475 15.7090478,90.740725 C14.3399469,90.736225 13.1454006,89.554225 13.1454006,88.203975 C13.1451498,86.845725 14.3316706,85.679725 15.7153177,85.678225" id="Fill-124"></path>
                    <path d="M68.5113016,85.666925 C69.9024727,85.678175 71.0684281,86.850425 71.0533802,88.222675 C71.0380816,89.602675 69.8553228,90.761675 68.4759392,90.748175 C67.0604408,90.734175 65.9411337,89.599425 65.9509148,88.188425 C65.9609467,86.777425 67.1000667,85.655425 68.5113016,85.666925" id="Fill-126"></path>
                    <path d="M8.83061339,41.1613 C8.85895345,42.8383 8.6530491,44.43155 7.06976748,45.4343 C5.97829883,46.1253 5.52034346,45.92155 5.37964633,44.6248 C5.2730576,43.6423 5.22314899,42.63255 5.3314933,41.6553 C5.40096408,41.02855 5.64674516,40.25005 6.09567184,39.87755 C6.71037535,39.3678 7.59293007,39.1788 8.36087056,38.8523 C8.5178695,39.45605 8.68314474,40.0578 8.82634984,40.66455 C8.8634678,40.82205 8.83186738,40.9958 8.83061339,41.1613" id="Fill-128"></path>
                    <path d="M71.808806,15.242725 C71.298434,14.393975 70.775773,13.552475 70.2809505,12.694975 C69.6321386,11.569975 68.9956157,10.429725 69.3923766,9.053975 C69.7231779,7.906725 70.233299,7.719225 70.9884489,8.593725 C71.9041088,9.653725 72.8155052,10.768475 73.4450057,12.003475 C73.7953692,12.690475 73.7354287,13.707475 73.555858,14.507725 C73.3644999,15.359725 72.716942,15.873225 71.76918,15.197475 C71.7694308,15.197225 71.808806,15.242725 71.808806,15.242725" id="Fill-130"></path>
                    <path d="M12.2959511,15.005925 C11.5397981,15.836675 10.8684145,15.519175 10.6509734,14.652175 C10.4428119,13.823175 10.3126482,12.747175 10.6745484,12.052175 C11.3687545,10.719675 12.4123209,9.561675 13.3583273,8.368425 C13.7881934,7.826175 14.3770648,7.969925 14.4751265,8.578425 C14.6200871,9.476675 14.7723209,10.520925 14.4510499,11.313675 C13.9150967,12.636425 13.0069607,13.809675 12.255322,15.045675 L12.2959511,15.005925" id="Fill-132"></path>
                    <path d="M4.72707248,36.3093 C4.86400765,35.74955 4.99642848,34.70005 5.39193539,33.7608 C5.68060276,33.0758 6.2085305,32.35405 6.83075792,31.9878 C7.34739979,31.68355 8.16775685,31.8073 8.82559745,31.9138 C8.92917662,31.93055 8.98510436,32.8823 8.88553794,33.36555 C8.6869067,34.33105 8.51862189,35.3573 8.04662189,36.19555 C7.65161658,36.89655 6.92681318,37.5383 6.19548905,37.8963 C5.1546814,38.4058 4.66161445,37.9498 4.72707248,36.3093" id="Fill-134"></path>
                    <path d="M78.2439316,28.2959 C78.2614874,28.3769 78.2988561,28.4594 78.2930878,28.5389 C78.2514555,29.1139 78.2010453,29.68865 78.1536446,30.2634 C77.3972408,30.16215 76.4981335,30.2859 75.9120208,29.9164 C74.3432854,28.9269 73.8497169,27.1699 73.3258019,25.51065 C73.2648582,25.31765 73.7105245,24.7984 74.0152429,24.68765 C75.1430772,24.27765 76.102125,24.7324 76.7509369,25.63315 C77.3508434,26.46565 77.7711792,27.42665 78.2710176,28.3324 C78.2712684,28.33365 78.2439316,28.2959 78.2439316,28.2959" id="Fill-136"></path>
                    <path d="M66.9184395,9.82655 C65.8212026,8.75705 64.5950559,7.78505 63.6771388,6.5798 C63.1587413,5.89955 63.0396128,4.8463 62.9465671,3.94005 C62.887379,3.3623 63.4499167,2.9773 63.9750857,3.41255 C65.2699507,4.4853 66.591651,5.5628 67.6786053,6.8293 C68.0884077,7.30705 67.9808157,8.3218 67.9015639,9.0698 C67.872973,9.33905 67.2359486,9.54405 66.8765564,9.77855 C66.8763056,9.77855 66.9184395,9.82655 66.9184395,9.82655" id="Fill-138"></path>
                    <path d="M17.4423061,9.680075 C16.7719256,10.098825 16.3082019,9.716825 16.23522,9.144825 C16.1401679,8.399075 16.0117598,7.370825 16.4127843,6.903575 C17.5285802,5.604075 18.89417,4.512075 20.2168735,3.404325 C20.3259702,3.313075 21.1618767,3.768825 21.1428162,3.891325 C21.0028714,4.800075 20.9243719,5.809575 20.4543783,6.553825 C19.8456939,7.517325 18.8921637,8.264325 18.0871052,9.104575 C17.8721722,9.296575 17.6572391,9.488325 17.4423061,9.680075" id="Fill-140"></path>
                    <path d="M6.92051817,30.612075 C5.93889862,30.412575 5.43429501,30.049075 5.74854368,29.264325 C6.27973177,27.937075 6.87537471,26.613325 7.64155962,25.413325 C7.93449054,24.954825 8.75259044,24.668825 9.3627796,24.605575 C10.6137552,24.475825 11.0438721,25.114575 10.5417764,26.257325 C10.1106563,27.239325 9.6915745,28.271075 9.0334831,29.095325 C8.51307928,29.746825 7.63804846,30.117075 6.92051817,30.612075" id="Fill-142"></path>
                    <path d="M76.0115872,21.8074 C75.9606755,22.94115 75.3404544,23.41365 74.1451558,23.22915 C72.9593875,23.04615 70.2926627,20.39515 70.1918423,19.20065 C70.1690198,18.9309 70.467719,18.53515 70.7282971,18.35865 C71.6432047,17.73915 72.8826436,17.94465 73.859498,18.99515 C74.6695724,19.8664 75.3178827,20.88715 76.0386733,21.84365 C76.0396765,21.84565 76.0115872,21.8074 76.0115872,21.8074" id="Fill-144"></path>
                    <path d="M8.25473326,21.540925 C8.97326674,20.641175 9.61957067,19.669675 10.4288927,18.860425 C11.3839277,17.905675 12.6273794,17.775925 13.4760765,18.449175 C13.7140829,18.637925 13.9398002,19.251175 13.8204208,19.413675 C12.9917875,20.541175 12.10522,21.632925 11.1577088,22.663675 C10.8790733,22.966425 10.3581679,23.118675 9.92278427,23.193925 C8.56070563,23.429925 8.02851435,22.851175 8.29059724,21.500175 C8.29034644,21.500675 8.25473326,21.540925 8.25473326,21.540925" id="Fill-146"></path>
                    <path d="M71.808806,15.242725 C71.808806,15.242725 71.7694308,15.197225 71.76918,15.197475 C72.3695881,15.773725 72.1832459,16.365725 71.5223957,16.537975 C70.7695031,16.734475 69.7753437,16.901725 69.1671609,16.569975 C67.9889165,15.927225 66.9817156,14.954475 65.9720068,14.042975 C65.8160111,13.901975 65.8879898,13.228975 66.0858687,13.027975 C66.9691758,12.130225 68.098264,12.120225 69.0517943,12.773225 C70.0615031,13.464975 70.8971588,14.408975 71.808806,15.242725" id="Fill-148"></path>
                    <path d="M48.1292281,2.22575 C50.5958168,-0.0565 54.4916978,1.16425 55.6215384,3.592 C53.5364119,5.04675 50.1739762,4.45825 48.1292281,2.22575" id="Fill-150"></path>
                    <path d="M28.4535243,3.65345 C29.4619792,1.3817 33.3117135,-0.1988 35.9004404,2.17645 C34.4423065,4.4892 30.3578261,4.8802 28.4535243,3.65345" id="Fill-152"></path>
                    <path d="M17.4423061,9.680075 C17.6572391,9.488325 17.8721722,9.296575 18.0871052,9.104575 C18.9212561,8.736575 19.739356,8.325325 20.5935707,8.011325 C21.7118746,7.600075 22.7659745,7.740075 23.4962954,8.762825 C23.6643294,8.998575 23.6347354,9.706075 23.4799936,9.787325 C22.1653156,10.478075 20.8528948,11.274575 19.4361424,11.641825 C18.0198916,12.008825 16.9966397,10.832575 17.4423061,9.680075" id="Fill-154"></path>
                    <path d="M12.2553722,15.045625 C13.1459524,14.303125 13.9828621,13.481375 14.9419099,12.840625 C15.912996,12.192125 17.0195124,12.109875 17.93442,12.985875 C18.1528642,13.194875 18.2408939,13.927125 18.0726091,14.086125 C17.1391426,14.967375 16.1660502,15.836875 15.0848642,16.519625 C14.5880353,16.833375 13.7920055,16.852375 13.1712829,16.754625 C12.204962,16.602125 11.692082,16.032625 12.2962521,15.005375 C12.2960013,15.005875 12.2553722,15.045625 12.2553722,15.045625" id="Fill-156"></path>
                    <path d="M66.9184395,9.82655 C66.9184395,9.82655 66.8763056,9.77855 66.8765564,9.77855 C66.9432684,10.9743 66.0215894,11.98655 64.7721186,11.65955 C63.3132323,11.27805 61.9576744,10.4808 60.5943418,9.7913 C60.443362,9.71505 60.3942057,9.0723 60.5391664,8.84655 C61.114244,7.95105 62.0344183,7.51055 63.0253173,7.9003 C64.3680846,8.4288 65.6248285,9.1743 66.9184395,9.82655" id="Fill-158"></path>
                </g>
            </g>
        </g>
    </g>
</svg>