<svg id="Livello_1" data-name="Livello 1" xmlns="http://www.w3.org/2000/svg" xmlns:xlink="http://www.w3.org/1999/xlink" viewBox="0 0 400 400"><defs><style>.cls-1,.cls-12,.cls-19,.cls-23,.cls-5,.cls-7,.cls-8,.cls-9{fill:none;}.cls-2{clip-path:url(#clip-path);}.cls-3{clip-path:url(#clip-path-2);}.cls-4{fill:#ffddba;}.cls-5,.cls-8{stroke:#e9e3d7;}.cls-10,.cls-11,.cls-12,.cls-13,.cls-15,.cls-19,.cls-20,.cls-23,.cls-24,.cls-25,.cls-5,.cls-6,.cls-7,.cls-9{stroke-linecap:round;stroke-linejoin:round;}.cls-16,.cls-17,.cls-20,.cls-21,.cls-22,.cls-25,.cls-5,.cls-6,.cls-7,.cls-8,.cls-9{stroke-width:2px;}.cls-21,.cls-24,.cls-6{fill:#ffb077;}.cls-21,.cls-23,.cls-24,.cls-6{stroke:#ffb077;}.cls-20,.cls-22,.cls-7{stroke:#ffc296;}.cls-16,.cls-17,.cls-21,.cls-22,.cls-26,.cls-8{stroke-miterlimit:10;}.cls-17,.cls-9{stroke:#bab7cc;}.cls-10,.cls-28{fill:#fff;}.cls-10,.cls-11,.cls-12,.cls-13,.cls-15{stroke:#00a5ff;}.cls-11{fill:#b9e6ff;}.cls-13{fill:#fcfcfc;}.cls-14,.cls-15{fill:#00a5ff;}.cls-16{fill:#736d91;stroke:#736d91;}.cls-17{fill:#bab7cc;}.cls-18{fill:#fefaf2;}.cls-19{stroke:#fefaf2;stroke-width:0.5px;stroke-dasharray:2.01 2.01;}.cls-20,.cls-22{fill:#ffc296;}.cls-23{stroke-width:5px;}.cls-25,.cls-26{fill:#201849;stroke:#201849;}.cls-27{fill:url(#Sfumatura_senza_nome_21);}.cls-29{fill:#fca664;}</style><clipPath id="clip-path"><ellipse class="cls-1" cx="156.79" cy="309.79" rx="4.8" ry="4.8" transform="translate(-171.19 195.86) rotate(-44)"/></clipPath><clipPath id="clip-path-2"><rect class="cls-1" x="-909" y="-2307" width="1440" height="5185"/></clipPath><linearGradient id="Sfumatura_senza_nome_21" x1="233.62" y1="313.83" x2="252.5" y2="313.83" gradientUnits="userSpaceOnUse"><stop offset="0" stop-color="#ffb077"/><stop offset="1" stop-color="#ffc296"/><stop offset="1" stop-color="#fff"/></linearGradient></defs><title>Tavola disegno 2</title><g class="cls-2"><g class="cls-3"><rect class="cls-4" x="146.99" y="299.98" width="19.59" height="19.61" transform="translate(-171.19 195.86) rotate(-44)"/></g></g><line class="cls-5" x1="80.96" y1="388.5" x2="319.04" y2="388.5"/><path class="cls-6" d="M218.31,247.42q-.41.44-.8.91l-.3.37,1.68-1.88.16-.16a24.69,24.69,0,0,1,17.46-7.5,2.84,2.84,0,0,1,2.71,3v25.26L214.3,253.09a27.84,27.84,0,0,1,2.31-3.61q.29-.4.6-.79"/><path class="cls-7" d="M109.16,302.85a10.77,10.77,0,0,0,.87,11.43,10.91,10.91,0,0,0,12,3.9l.61-.21a9.59,9.59,0,0,0,1.27-.59l.17-.13a3.89,3.89,0,0,0,.84-5.47,4,4,0,0,0-5.5-.83,3.89,3.89,0,0,0-1.6,3v.1c0,.27,0,.54,0,.8s0,.28,0,.42a10.73,10.73,0,0,0,2,5.11,10.91,10.91,0,0,0,15.19,2.3"/><path class="cls-8" d="M78.9,233.21c1.88-6,5.88-11.87,4.71-18.09-1.44-7.64-9.6-11.29-16.41-14.5-11.62-5.48-22.49-13.42-29.59-24.45s-10-25.44-5.69-37.93,16.63-22.11,29.33-20.94c7.48.69,14.25,4.76,21.48,6.9s16.22,1.75,20.73-4.51a22.8,22.8,0,0,0,4.09-13.11c0-38.35,32.73-44.09,58.22-53.55,12.61-4.68,32.43-15.45,45.82-15.68,4.8-.08,10.09.52,13.38,4.16C230,47.11,227.5,56.29,223.91,63s-8.14,14.15-6.08,21.55c3.09,11.14,24.56.42,35.37-2.43s23.08-7.43,32.32-1c10.24,7.18,9.57,23,6.16,35.37-2,7.41-16.41,30-11.23,35.48,2.34,2.49,5.72,3.56,9,4.37,6.48,1.6,13.12,1.12,19.77,1.34,8.66.29,17.41-.6,25.95,1,20.51,3.77,31,31.22,29.49,52.84s-23.74,39.79-43.82,34c-12.85-3.7-19-15.62-32-12.54-7.5,1.77-13.16,8.36-16.69,15.48s-5.42,15-8.56,22.3c-8.62,20.08-27.12,35.24-47.9,39.26-18.88,3.65-41.91-4.52-47.34-23.69-2-6.93-1.47-14.66-4.83-21-12.11-22.78-35.88-3.51-51,1.79C93,274,72.32,254.26,78.9,233.21Z"/><line class="cls-9" x1="201.41" y1="189.38" x2="201.41" y2="180.44"/><line class="cls-9" x1="207.14" y1="180.25" x2="207.14" y2="170.94"/><line class="cls-9" x1="212.88" y1="186.33" x2="212.88" y2="177.97"/><polygon class="cls-10" points="321.56 256.48 314.85 255.32 315.62 250.48 322.32 251.63 321.56 256.48"/><polygon class="cls-10" points="349.11 261.23 342.4 260.07 343.17 255.32 349.88 256.48 349.11 261.23"/><polygon class="cls-10" points="311.46 249.72 317.93 212.67 360.13 219.96 353.67 257.01 311.46 249.72"/><polygon class="cls-10" points="349.17 250.68 317.84 245.28 322.42 219 353.76 224.4 349.17 250.68"/><path class="cls-11" d="M338.16,238.12a4.08,4.08,0,0,1-5.66-1,4,4,0,0,1,1-5.62,4.08,4.08,0,0,1,5.66,1A4,4,0,0,1,338.16,238.12Z"/><line class="cls-11" x1="332.5" y1="237.15" x2="329.72" y2="239.1"/><line class="cls-11" x1="341.88" y1="230.58" x2="339.14" y2="232.5"/><line class="cls-11" x1="331.52" y1="229.01" x2="333.48" y2="231.52"/><line class="cls-11" x1="338.16" y1="238.12" x2="339.88" y2="240.81"/><path class="cls-10" d="M158.18,69.78l19.2,4.66,3.5.85a3.32,3.32,0,0,0,4-2.42l.77-3.15,10.89-44.37.93-3.79a3.3,3.3,0,0,0-2.44-4L192.7,17l-20.06-4.87-2.19-.53a3.32,3.32,0,0,0-4,2.42l-.88,3.58-11,45-.67,2.72a3.3,3.3,0,0,0,2.44,4Z"/><path class="cls-11" d="M172.32,67.89a2.62,2.62,0,1,1-1.93-3.15A2.62,2.62,0,0,1,172.32,67.89Z"/><path class="cls-10" d="M193.43,23.7v.11L183.23,65.27l-24.4-5.92,10.08-41.08.34-1.37a1.9,1.9,0,0,1,2.29-1.4l1.48.36,18.33,4.45.92.22a1.89,1.89,0,0,1,1.38,2.29Z"/><path class="cls-12" d="M283.29,72.53l-13.46-3.18c5.53-13.82,11-28.69,14.29-37.16l2.76.65C286.07,41.88,284.43,57.66,283.29,72.53Z"/><path class="cls-10" d="M286.81,114.18l-8.75-2.07c.88-6.4-2.49-12.34-8-13.63S259,101,256.93,107.1L248.19,105a126.19,126.19,0,0,0,8.91-14.16l28.07,6.65A136.86,136.86,0,0,0,286.81,114.18Z"/><path class="cls-10" d="M284.53,77c.21,4.4.87,9.58,1.06,13.65l-7.38-1.75c.21-3-1.37-6.74-4.16-7.4s-5.84,1.94-7,4.76l-7.3-1.73c1.94-3.5,4.76-7.75,6.88-11.54.06-.11.12-.07.18-.18l1.31.29,15,3.55Z"/><polygon class="cls-11" points="286.91 73.21 284.7 76.96 266.61 72.68 266.29 68.33 286.91 73.21"/><polygon class="cls-10" points="287.59 35.14 287.04 36.06 282.59 35.01 282.51 33.94 287.59 35.14"/><polygon class="cls-12" points="286.89 33.93 283.66 33.17 284.17 31 287.4 31.76 286.89 33.93"/><line class="cls-12" x1="289.19" y1="16.8" x2="285.87" y2="31"/><line class="cls-12" x1="276.41" y1="53.37" x2="284.6" y2="55.31"/><line class="cls-12" x1="274.17" y1="59.05" x2="284.01" y2="61.18"/><line class="cls-12" x1="270.92" y1="68.73" x2="278.91" y2="60.34"/><line class="cls-12" x1="282.7" y1="71.75" x2="279" y2="60.28"/><line class="cls-12" x1="284.01" y1="61.18" x2="280.37" y2="54.39"/><line class="cls-12" x1="274.17" y1="59.05" x2="280.21" y2="54.44"/><line class="cls-12" x1="264.39" y1="77.83" x2="284.6" y2="82.61"/><line class="cls-12" x1="278.6" y1="87.39" x2="284.6" y2="82.93"/><line class="cls-12" x1="267.37" y1="84.74" x2="264.08" y2="77.58"/><polygon class="cls-10" points="289.42 91.84 286.51 98.14 255.54 90.81 255.72 83.86 289.42 91.84"/><line class="cls-12" x1="258.55" y1="89.21" x2="284.66" y2="95.39"/><path class="cls-12" d="M257.64,86.3l2.93.69"/><path class="cls-12" d="M262.85,87.53l2.94.7"/><path class="cls-12" d="M268.06,88.77l2.94.69"/><path class="cls-12" d="M273.27,90l2.94.7"/><path class="cls-12" d="M278.48,91.23l2.93.7"/><path class="cls-12" d="M283.69,92.46l2.93.69"/><line class="cls-12" x1="280.46" y1="54.2" x2="284.85" y2="35.38"/><ellipse class="cls-11" cx="84.88" cy="92.14" rx="3.51" ry="3.53" transform="translate(-13.88 169.21) rotate(-85.31)"/><path class="cls-10" d="M123.58,95.31A13.8,13.8,0,1,1,111,80.51,13.77,13.77,0,0,1,123.58,95.31Z"/><path class="cls-10" d="M75,91.33a13.8,13.8,0,1,1-12.62-14.8A13.77,13.77,0,0,1,75,91.33Z"/><line class="cls-12" x1="61.05" y1="90.35" x2="85.03" y2="92.31"/><line class="cls-12" x1="61.05" y1="90.35" x2="76.42" y2="70.59"/><line class="cls-12" x1="76.42" y1="70.59" x2="100.73" y2="72.58"/><line class="cls-12" x1="85.03" y1="92.31" x2="100.68" y2="73.11"/><line class="cls-12" x1="84.88" y1="92.14" x2="73.42" y2="64.28"/><ellipse class="cls-12" cx="61.22" cy="90.2" rx="2.55" ry="2.57" transform="translate(-33.68 143.84) rotate(-85.31)"/><line class="cls-12" x1="109.86" y1="94.45" x2="100.67" y2="73.22"/><line class="cls-12" x1="100.67" y1="73.22" x2="101" y2="69.29"/><ellipse class="cls-12" cx="109.83" cy="94.19" rx="2.55" ry="2.57" transform="translate(6.98 195.95) rotate(-85.31)"/><path class="cls-12" d="M79.67,63.75c0,.35-.64.59-1.37.53l-6.22-.51c-.73-.06-1.29-.39-1.26-.74h0c0-.35.64-.59,1.37-.53l6.22.51c.73.06,1.29.39,1.26.74Z"/><path class="cls-12" d="M100.71,68.84l5.86.48.8.07a2.92,2.92,0,1,1-.48,5.83"/><path class="cls-13" d="M77.56,203.64c.12.4-.27.27-.68.39L66,207.19c-.4.12-.66.44-.78,0l-1.59-5.6a.75.75,0,0,1,.52-.93L75,197.53A.76.76,0,0,1,76,198Z"/><path class="cls-11" d="M97.77,182.3l2.12,7.24a.75.75,0,0,1-.52.94L40.06,207.63a.76.76,0,0,1-.94-.51L37,199.88a.77.77,0,0,0,1,.51l59.29-17.16A.76.76,0,0,0,97.77,182.3Z"/><ellipse class="cls-14" cx="67.89" cy="195.64" rx="1.38" ry="1.37" transform="translate(-51.7 26.58) rotate(-16.14)"/><path class="cls-13" d="M89.3,153.35l8.47,28.94a.76.76,0,0,1-.53.94L38,200.39a.77.77,0,0,1-1-.51l-8.47-28.94a.76.76,0,0,1,0-.3.77.77,0,0,1,.55-.64l59.29-17.16a.78.78,0,0,1,.59.06l.13.08A.74.74,0,0,1,89.3,153.35Z"/><line class="cls-12" x1="48.98" y1="212.17" x2="93.91" y2="199.17"/><path class="cls-10" d="M103.19,275.4c-4.58,7.6-14.28,15.33-20.09,18.8l-8.94-5.48c.4-6.65,2.88-18.57,7.5-26.24C91,247,107,238.54,110,240.37S112.51,259.92,103.19,275.4Z"/><polygon class="cls-15" points="109.86 257.56 94.22 247.98 96.55 246.14 110.65 254.77 109.86 257.56"/><polygon class="cls-11" points="106.57 267.92 86.67 255.73 89.71 252.49 108.18 263.8 106.57 267.92"/><line class="cls-9" x1="189.28" y1="117.89" x2="189.28" y2="108.9"/><line class="cls-9" x1="195.05" y1="108.71" x2="195.05" y2="99.34"/><line class="cls-9" x1="200.82" y1="114.83" x2="200.82" y2="106.42"/><ellipse class="cls-16" cx="204.89" cy="212.76" rx="14.78" ry="14.81"/><line class="cls-16" x1="209.39" y1="227.57" x2="204.89" y2="227.57"/><line class="cls-16" x1="209.39" y1="197.95" x2="205.62" y2="197.95"/><ellipse class="cls-17" cx="209.39" cy="212.76" rx="14.78" ry="14.81"/><path class="cls-18" d="M205.3,213.75l-.17,0a.3.3,0,0,1-.19-.19.55.55,0,0,1,0-.17v-.23a.55.55,0,0,1,0-.17.3.3,0,0,1,.07-.12.29.29,0,0,1,.12-.07l.17,0h.81a1.08,1.08,0,0,0,0-.13,1.22,1.22,0,0,1,0-.15v-.69c0-.06,0-.13,0-.19a1.62,1.62,0,0,1,0-.18h-.82l-.17,0a.36.36,0,0,1-.12-.06.25.25,0,0,1-.07-.11.55.55,0,0,1,0-.17v-.24a.48.48,0,0,1,0-.16.34.34,0,0,1,.07-.11.3.3,0,0,1,.12-.07l.17,0h.92a6.4,6.4,0,0,1,.48-1.49,3.9,3.9,0,0,1,.81-1.16,3.48,3.48,0,0,1,1.18-.75,4.3,4.3,0,0,1,1.56-.27,4.83,4.83,0,0,1,1.23.14,3.18,3.18,0,0,1,1,.42,2.73,2.73,0,0,1,.71.67,3.15,3.15,0,0,1,.45.91.7.7,0,0,1,0,.32.36.36,0,0,1-.1.22.53.53,0,0,1-.22.13,1,1,0,0,1-.31,0h-.31a1.18,1.18,0,0,1-.27,0,.58.58,0,0,1-.2-.09.68.68,0,0,1-.15-.15l-.15-.23a1.84,1.84,0,0,0-.29-.4,1.45,1.45,0,0,0-.35-.27,1.7,1.7,0,0,0-.44-.16,2.5,2.5,0,0,0-.56-.06,2.23,2.23,0,0,0-.82.15,1.94,1.94,0,0,0-.65.42,2.47,2.47,0,0,0-.48.7,3.67,3.67,0,0,0-.3.95h2.29l.16,0a.31.31,0,0,1,.11.07.34.34,0,0,1,.07.11.48.48,0,0,1,0,.16V211a.55.55,0,0,1,0,.17.25.25,0,0,1-.07.11l-.11.06-.16,0h-2.42v1.34h2.42a.43.43,0,0,1,.16,0,.29.29,0,0,1,.11.07.3.3,0,0,1,.07.12.55.55,0,0,1,0,.17v.23a.55.55,0,0,1,0,.17.3.3,0,0,1-.07.12.31.31,0,0,1-.11.07l-.16,0H208a5.39,5.39,0,0,0,.29,1.15,3,3,0,0,0,.48.85,1.93,1.93,0,0,0,.67.52,2,2,0,0,0,.85.18,2.21,2.21,0,0,0,.56-.06,1.46,1.46,0,0,0,.44-.19,1.7,1.7,0,0,0,.35-.32,2.32,2.32,0,0,0,.29-.45l.15-.27a.72.72,0,0,1,.15-.18.54.54,0,0,1,.2-.11,1,1,0,0,1,.27,0H213a1,1,0,0,1,.31,0,.53.53,0,0,1,.22.14.4.4,0,0,1,.1.23.81.81,0,0,1,0,.34,3.49,3.49,0,0,1-.45,1,2.83,2.83,0,0,1-.71.73,3,3,0,0,1-1,.45,4.54,4.54,0,0,1-1.23.15,4,4,0,0,1-1.57-.3,3.36,3.36,0,0,1-1.2-.86,4.56,4.56,0,0,1-.81-1.32,6.88,6.88,0,0,1-.44-1.68Z"/><ellipse class="cls-19" cx="209.39" cy="212.76" rx="13.44" ry="13.46"/><ellipse class="cls-16" cx="194.14" cy="141.4" rx="14.78" ry="14.81"/><line class="cls-16" x1="198.64" y1="156.21" x2="194.14" y2="156.21"/><line class="cls-16" x1="198.64" y1="126.59" x2="194.87" y2="126.59"/><ellipse class="cls-17" cx="198.64" cy="141.4" rx="14.78" ry="14.81"/><path class="cls-18" d="M194.55,142.72l-.17,0a.29.29,0,0,1-.19-.19.53.53,0,0,1,0-.17v-.23a.53.53,0,0,1,0-.17.3.3,0,0,1,.07-.12.3.3,0,0,1,.12-.07l.17,0h.81a1,1,0,0,0,0-.13,1.2,1.2,0,0,1,0-.15v-.69c0-.06,0-.13,0-.19a1.79,1.79,0,0,1,0-.18h-.82l-.17,0a.36.36,0,0,1-.12-.06.24.24,0,0,1-.07-.11.53.53,0,0,1,0-.17v-.24a.46.46,0,0,1,0-.16.31.31,0,0,1,.07-.11.3.3,0,0,1,.12-.07l.17,0h.92a6.36,6.36,0,0,1,.48-1.49,3.9,3.9,0,0,1,.81-1.16,3.48,3.48,0,0,1,1.18-.75,4.3,4.3,0,0,1,1.56-.26,4.87,4.87,0,0,1,1.23.14,3.18,3.18,0,0,1,1,.42,2.74,2.74,0,0,1,.71.67,3.11,3.11,0,0,1,.45.91.72.72,0,0,1,0,.31.36.36,0,0,1-.1.22.53.53,0,0,1-.22.13,1,1,0,0,1-.31,0H202a1.13,1.13,0,0,1-.27,0,.58.58,0,0,1-.2-.09.65.65,0,0,1-.15-.15l-.14-.23a1.88,1.88,0,0,0-.29-.4,1.44,1.44,0,0,0-.36-.27,1.7,1.7,0,0,0-.44-.16,2.54,2.54,0,0,0-.56-.06,2.23,2.23,0,0,0-.82.15,1.93,1.93,0,0,0-.65.42,2.48,2.48,0,0,0-.48.7,3.67,3.67,0,0,0-.3.95h2.29l.16,0a.31.31,0,0,1,.11.07.31.31,0,0,1,.07.11.46.46,0,0,1,0,.16V140a.53.53,0,0,1,0,.17.24.24,0,0,1-.07.11l-.11.06-.16,0h-2.42v1.34h2.42l.16,0a.31.31,0,0,1,.11.07.3.3,0,0,1,.07.12.53.53,0,0,1,0,.17v.23a.53.53,0,0,1,0,.17.3.3,0,0,1-.07.12.32.32,0,0,1-.11.07l-.16,0h-2.32a5.41,5.41,0,0,0,.29,1.15,3,3,0,0,0,.48.85,1.89,1.89,0,0,0,1.52.7,2.2,2.2,0,0,0,.56-.07,1.43,1.43,0,0,0,.44-.19,1.64,1.64,0,0,0,.36-.32,2.37,2.37,0,0,0,.29-.45l.14-.27a.72.72,0,0,1,.15-.18.55.55,0,0,1,.2-.11,1,1,0,0,1,.27,0h.31a1,1,0,0,1,.31,0,.53.53,0,0,1,.22.14.4.4,0,0,1,.1.23.82.82,0,0,1,0,.34,3.46,3.46,0,0,1-.45,1,2.84,2.84,0,0,1-.71.73,3.08,3.08,0,0,1-1,.45,4.55,4.55,0,0,1-1.23.15,4,4,0,0,1-1.57-.3,3.35,3.35,0,0,1-1.2-.86,4.55,4.55,0,0,1-.81-1.32,6.84,6.84,0,0,1-.44-1.68Z"/><ellipse class="cls-19" cx="198.64" cy="141.4" rx="13.44" ry="13.46"/><path class="cls-20" d="M284.07,299.69l-11.46.05A59.61,59.61,0,0,0,254,270.07V244.81a2.84,2.84,0,0,0-2.71-3,24.69,24.69,0,0,0-17.46,7.5c-.05.05-2.16,2.48-2.45,2.83a21.57,21.57,0,0,0-2.31,3.61,80.08,80.08,0,0,0-25.61-4.17c-39.13,0-70.85,27.57-70.85,61.58,0,20.94,12,39.42,30.4,50.55l-3.93,19.62,22.23,4.13,3-15a81.16,81.16,0,0,0,38.54,0l3,15.05L248,383.37l-3.84-19.78c14.46-8.84,24.94-22.26,28.65-37.84l11.22-.14a3.33,3.33,0,0,0,3.34-3.32V303A3.33,3.33,0,0,0,284.07,299.69Z"/><path class="cls-21" d="M244.67,366.26,247.95,383a.27.27,0,0,1-.22.31l-4.54.84a.27.27,0,0,1-.31-.22l-3.07-15.42a.27.27,0,0,1,.14-.29Z"/><path class="cls-21" d="M179.64,373.51l4.08,1.43-2.46,12.29a.27.27,0,0,1-.31.22l-4.28-.8a.27.27,0,0,1-.21-.32l2.85-12.62A.27.27,0,0,1,179.64,373.51Z"/><path class="cls-22" d="M235.63,256.08l14.28,7.25v-16A20.48,20.48,0,0,0,235.63,256.08Z"/><path class="cls-23" d="M149.9,349.63s-14.64-13.8-14.64-35.77A53.21,53.21,0,0,1,141,289.16c3.82-7.44,13-17.56,15.73-18.53"/><path class="cls-24" d="M238.41,259l12,6.28V251.43a13.27,13.27,0,0,0-12,7.56"/><ellipse class="cls-25" cx="254.35" cy="293.43" rx="2.02" ry="2.02"/><ellipse class="cls-25" cx="278.54" cy="284" rx="2.02" ry="2.02"/><path class="cls-24" d="M188.83,262.72a.39.39,0,0,1,.16-.48,45.32,45.32,0,0,1,31.57-.31.39.39,0,0,1,.16.47l-.92,3c0,.15-.17.23-.28.19a42.09,42.09,0,0,0-29.43.29c-.11,0-.23,0-.28-.18Z"/><path class="cls-26" d="M189.63,265.82a.12.12,0,0,1,.07-.15,49.2,49.2,0,0,1,30.13-.26.12.12,0,0,1,.08.15l-1,2.74a.11.11,0,0,1-.14.07,45.7,45.7,0,0,0-28,.24.11.11,0,0,1-.14-.07Z"/><path class="cls-21" d="M284.07,325.64h-1.65a1.42,1.42,0,0,1-1.42-1.42V301.15a1.42,1.42,0,0,1,1.42-1.42h1.65a3.35,3.35,0,0,1,3.34,3.34v19.22A3.35,3.35,0,0,1,284.07,325.64Z"/><ellipse class="cls-27" cx="243.06" cy="313.83" rx="9.44" ry="9.46"/><polygon class="cls-28" points="319.2 146.82 337.81 141.17 345.2 165.6 326.59 171.25 319.2 146.82"/><path class="cls-12" d="M346.73,137.61a13.59,13.59,0,1,1-11.35,3.61l-16.55,5.27L327.06,172l44.44-14.15-8.22-25.53Z"/><path class="cls-12" d="M361.29,126.18l2,6.16-16.55,5.27a13.74,13.74,0,0,0-11.35,3.61l-16.55,5.27-2-6.16Z"/><polygon class="cls-12" points="343.09 124.33 330.31 128.4 332.5 135.21 345.29 131.14 343.09 124.33"/><polygon class="cls-12" points="340.41 130.01 335.81 131.47 336.6 133.93 341.2 132.46 340.41 130.01"/><circle class="cls-12" cx="359.46" cy="138.42" r="0.34" transform="translate(-25.07 115.85) rotate(-17.7)"/><path class="cls-11" d="M357.79,146.9a13.68,13.68,0,1,1-17.15-8.78,13.65,13.65,0,0,1,17.15,8.78Z"/><path class="cls-10" d="M347,157.81a7.12,7.12,0,1,1,4.64-8.95A7.18,7.18,0,0,1,347,157.81Z"/><path class="cls-29" d="M234.73,246.53s.07,0,0,.05-.78.68-1.15,1a32.79,32.79,0,0,0-2.23,2.45c-.42.51-1,1.08-1.42,1.67-.26.34-.5.67-.69,1l-.81,1.37s-.06,0-.12,0c-1.32-.4-5.64-1.67-6-1.67A39.64,39.64,0,0,1,234.73,246.53Z"/></svg>