<?xml version="1.0" encoding="UTF-8"?>
<svg width="90px" height="90px" viewBox="0 0 90 90" version="1.1" xmlns="http://www.w3.org/2000/svg" xmlns:xlink="http://www.w3.org/1999/xlink">
    <!-- Generator: Sketch 41.2 (35397) - http://www.bohemiancoding.com/sketch -->
    <title>receive-icon</title>
    <desc>Created with Sketch.</desc>
    <defs>
        <filter x="-50%" y="-50%" width="200%" height="200%" filterUnits="objectBoundingBox" id="filter-1">
            <feOffset dx="0" dy="3" in="SourceAlpha" result="shadowOffsetOuter1"></feOffset>
            <feGaussianBlur stdDeviation="7.5" in="shadowOffsetOuter1" result="shadowBlurOuter1"></feGaussianBlur>
            <feColorMatrix values="0 0 0 0 0   0 0 0 0 0   0 0 0 0 0  0 0 0 0.197209013 0" type="matrix" in="shadowBlurOuter1" result="shadowMatrixOuter1"></feColorMatrix>
            <feMerge>
                <feMergeNode in="shadowMatrixOuter1"></feMergeNode>
                <feMergeNode in="SourceGraphic"></feMergeNode>
            </feMerge>
        </filter>
    </defs>
    <g id="Homepage" stroke="none" stroke-width="1" fill="none" fill-rule="evenodd">
        <g id="Desktop" transform="translate(-1014.000000, -3020.000000)">
            <g id="scambio-denaro" transform="translate(0.000000, 2705.000000)">
                <g id="Group-7" transform="translate(960.000000, 266.000000)">
                    <g id="Group-18" transform="translate(69.000000, 61.000000)">
                        <g id="receive-icon" filter="url(#filter-1)">
                            <circle id="Oval-5" fill="#FFC296" cx="30" cy="30" r="30"></circle>
                            <g id="icon-richiedi" opacity="0.55" style="mix-blend-mode: overlay;" transform="translate(16.000000, 17.000000)" fill="#000000">
                                <path d="M27.7916667,20.5234783 C27.0793433,18.4699497 25.1154114,17.1294116 22.9583333,17.2243478 L17.5208333,17.2243478 C16.6887043,16.4710221 15.6182456,16.0396289 14.5,16.0069565 L11.4670833,16.0069565 C10.098198,14.4362147 8.11624202,13.5467656 6.04166667,13.5721739 C6.04166667,12.8998273 5.50067741,12.3547826 4.83333333,12.3547826 L1.20833333,12.3547826 C0.540989261,12.3547826 8.17260783e-17,12.8998273 0,13.5721739 L0,23.3113043 C8.17260783e-17,23.983651 0.540989261,24.5286957 1.20833333,24.5286957 L4.83333333,24.5286957 C5.05780017,24.5198946 5.27538808,24.4482269 5.46166667,24.3217391 L10.295,26.5252174 C10.9523981,26.7702479 11.6482317,26.8939626 12.3491667,26.8904348 C12.9565532,26.8896203 13.5614308,26.8119101 14.1495833,26.6591304 L26.9579167,22.0330435 C27.2677961,21.9452289 27.5300877,21.7364703 27.6866108,21.4530738 C27.8431339,21.1696773 27.8809485,20.8350718 27.7916667,20.5234783 Z M2.41666667,14.7895652 L3.625,14.7895652 L3.625,22.093913 L2.41666667,22.093913 L2.41666667,14.7895652 Z M13.485,24.3217391 C12.7555953,24.5399187 11.978988,24.5399187 11.2495833,24.3217391 L6.04166667,21.9113043 L6.04166667,16.0069565 C7.55807105,15.9616053 8.99786905,16.6777776 9.88416667,17.9182609 C10.1095417,18.2455714 10.4796048,18.4410836 10.875,18.4417391 L14.5,18.4417391 C15.1172374,18.4792726 15.6967129,18.7537549 16.1191667,19.2086957 L16.2279167,19.3304348 C16.3281032,19.4332877 16.4209721,19.5431249 16.5058333,19.6591304 L9.66666667,19.6591304 C8.99932259,19.6591304 8.45833333,20.2041751 8.45833333,20.8765217 C8.45833333,21.5488684 8.99932259,22.093913 9.66666667,22.093913 L18.125,22.093913 C18.7923441,22.093913 19.3333333,21.5488684 19.3333333,20.8765217 C19.3245935,20.4627612 19.2553776,20.0525571 19.1279167,19.6591304 L22.9583333,19.6591304 C23.602312,19.6365801 24.23283,19.8483283 24.7345833,20.2556522 L13.485,24.3217391 Z" id="Shape"></path>
                                <path d="M16.9166667,13.5721739 C18.3277347,15.0227095 20.5588581,15.2681689 22.2473987,14.1586402 C23.9359394,13.0491114 24.6124461,10.8930677 23.8637486,9.00729291 C23.1150511,7.12151813 21.1493037,6.03029887 19.1670685,6.40008728 C17.1848333,6.76987569 15.7372151,8.49786251 15.7083333,10.5286957 C15.690823,11.6651881 16.1260306,12.7613632 16.9166667,13.5721739 L16.9166667,13.5721739 Z M18.6204167,9.2626087 C19.3280591,8.5505483 20.4744409,8.5505483 21.1820833,9.2626087 L21.1820833,9.2626087 C21.7064906,9.78564372 21.8638194,10.5767663 21.5798913,11.2629723 C21.2959633,11.9491783 20.6274669,12.3934612 19.8895895,12.3863472 C19.1517122,12.3792332 18.4917772,11.9221429 18.2209354,11.2305882 C17.9500935,10.5390336 18.1224206,9.7510893 18.6566667,9.23826087 L18.6204167,9.2626087 Z" id="Shape"></path>
                                <path d="M11.4791667,8.7026087 C13.208703,8.7279463 14.7792257,7.68961839 15.4445024,6.0809855 C16.109779,4.47235262 15.7356966,2.61769871 14.5,1.39826087 L14.5,1.39826087 C12.8197106,-0.253335313 10.1386227,-0.253335313 8.45833333,1.39826087 C7.22263677,2.61769871 6.84855434,4.47235262 7.51383096,6.0809855 C8.17910759,7.68961839 9.74963029,8.7279463 11.4791667,8.7026087 L11.4791667,8.7026087 Z M10.1983333,3.15130435 C10.9059757,2.43924395 12.0523576,2.43924395 12.76,3.15130435 L12.76,3.15130435 C13.4667623,3.86425142 13.4667623,5.01922684 12.76,5.73217391 C12.0444703,6.42476699 10.913863,6.42476699 10.1983333,5.73217391 C9.491571,5.01922684 9.491571,3.86425142 10.1983333,3.15130435 L10.1983333,3.15130435 Z" id="Shape"></path>
                            </g>
                        </g>
                    </g>
                </g>
            </g>
        </g>
    </g>
</svg>