<?xml version="1.0" encoding="UTF-8"?>
<svg width="67px" height="15px" viewBox="0 0 67 15" version="1.1" xmlns="http://www.w3.org/2000/svg" xmlns:xlink="http://www.w3.org/1999/xlink">
    <!-- Generator: Sketch 43.2 (39069) - http://www.bohemiancoding.com/sketch -->
    <title>repubblica</title>
    <desc>Created with Sketch.</desc>
    <defs>
        <polygon id="path-1" points="3.18001396e-05 14.0729459 67.0745822 14.0729459 67.0745822 0 3.18001396e-05 0 3.18001396e-05 14.0729459"></polygon>
    </defs>
    <g id="Symbols" stroke="none" stroke-width="1" fill="none" fill-rule="evenodd">
        <g id="footer" transform="translate(-1269.000000, -331.000000)">
            <g id="logos" transform="translate(1062.000000, 323.000000)">
                <g id="repubblica" transform="translate(206.933396, 8.454545)">
                    <mask id="mask-2" fill="white">
                        <use xlink:href="#path-1"></use>
                    </mask>
                    <g id="Clip-2"></g>
                    <path d="M60.1610199,9.28843685 C60.1610199,9.28843685 60.2091441,9.15946738 60.3310446,9.21701423 L60.885851,9.63006072 C60.885851,9.63006072 60.9631254,9.72590042 60.885851,9.91585878 C60.885851,9.91585878 60.6900682,10.4736867 60.2142321,10.9181419 C59.7127439,11.3940059 59.1338753,11.5665389 58.5326407,11.5665389 C56.9318217,11.5665389 55.645294,10.0849497 55.7878647,7.69702464 C55.9356293,5.23778452 57.2994313,3.96874219 58.9517665,3.8816152 C59.3932585,3.85891915 59.8620985,3.96357911 60.3258506,4.33833276 C60.3258506,4.33833276 60.9802974,4.88389833 60.9802974,5.73268737 C60.9802974,6.31665337 60.5303255,6.79240978 59.977215,6.79240978 C59.4224086,6.79240978 58.9122284,6.27825295 58.8761882,5.46947779 C58.8761882,5.46947779 58.8676022,5.14183727 58.7199435,4.94133761 C58.7199435,4.94133761 58.6649293,4.85076856 58.5635928,4.85076856 C58.5635928,4.85076856 58.4605604,4.81247571 58.3488359,4.98500867 C58.3488359,4.98500867 57.9830283,5.47819049 57.9830283,6.6094431 C57.9830283,8.09103227 58.0569106,9.86014053 59.3262662,9.86014053 C59.3262662,9.86014053 59.9016367,9.91585878 60.1610199,9.28843685 L60.1610199,9.28843685 Z M64.2490338,8.09974497 L64.2490338,9.54809681 C64.2490338,9.54809681 64.2421438,9.76774289 64.0189068,9.8409941 C64.0189068,9.8409941 63.6736633,9.93156315 63.4657964,9.79215996 C63.4657964,9.79215996 63.2356693,9.64920715 63.2356693,9.17345073 C63.2356693,9.17345073 63.2218893,8.73760062 63.4795764,8.48321131 C63.4795764,8.48321131 63.6427111,8.28271166 64.0411669,8.00906836 C64.0411669,8.00906836 64.2490338,7.88354094 64.2490338,8.09974497 L64.2490338,8.09974497 Z M64.2490338,6.87781575 C63.5757188,7.18985947 63.3644599,7.28924879 62.9814802,7.4826492 C62.3940257,7.7737179 61.8614793,8.09974497 61.567752,8.44136884 C61.1985524,8.86657009 61.0438977,9.26057772 61.0817399,9.97512665 C61.1435382,11.115092 61.9937679,11.5229754 62.6739729,11.5229754 C63.7955638,11.5229754 64.1374153,10.9041586 64.2645099,10.8187526 C64.2645099,10.8187526 64.3229161,10.726355 64.3606523,10.8187526 C64.6063614,11.3783015 65.1061536,11.507271 65.5476455,11.507271 C66.0233756,11.507271 66.7653788,11.2544951 67.033348,10.7560427 C67.0591061,10.7072085 67.0745822,10.5922224 67.0745822,10.5922224 L67.0745822,9.8932703 C67.0745822,9.81130638 67.0505201,9.69632026 66.9269235,9.71019604 C66.792939,9.7295576 66.6658444,9.86885323 66.5404459,9.86885323 C66.5163837,9.86885323 66.4408054,9.85486988 66.4322194,9.80087266 L66.4322194,5.68396079 C66.4322194,5.15227099 66.3635311,4.85603921 65.9907274,4.48644865 C65.4788512,3.97401284 64.4809628,3.83460965 64.0154088,3.83460965 C63.2785995,3.83460965 62.1706827,4.06813151 61.6158762,4.73567488 C61.3221489,5.08601145 61.1590142,6.07786086 61.4063133,6.67215302 C61.4647196,6.80994275 61.6313523,6.72453678 61.6313523,6.72453678 L63.2442554,6.20155968 C63.376438,6.12142436 63.3249217,5.99589695 63.3249217,5.99589695 C63.2957716,5.81809334 63.2785995,5.45904407 63.2785995,5.45904407 C63.2785995,5.14183727 63.4211702,4.81236815 63.8282119,4.81236815 C64.1116572,4.81236815 64.2335577,4.98500867 64.2490338,5.23423491 L64.2490338,6.87792332 L64.2490338,6.87781575 Z M53.3109518,9.91585878 C53.3109518,10.2663029 53.142623,10.377847 53.142623,10.377847 C52.8404157,10.5399462 52.666893,10.3952724 52.666893,10.6689157 L52.666893,11.1482217 C52.666893,11.421865 52.8919319,11.4549948 53.0395906,11.4549948 C53.5154267,11.4549948 53.7987659,11.4462821 54.274602,11.4462821 C54.7504381,11.4462821 55.2261682,11.4549948 55.7020043,11.4549948 C55.8496629,11.4549948 56.0747019,11.4220802 56.0747019,11.1482217 L56.0747019,10.6689157 C56.0747019,10.468416 55.9321313,10.5206922 55.7020043,10.377847 C55.7020043,10.377847 55.5387636,10.2661954 55.5387636,9.91585878 L55.5368556,4.35747918 C55.5368556,4.12739938 55.3496587,3.93916204 55.1195317,3.93916204 C54.8756247,3.93916204 54.7605081,4.00187196 54.7605081,4.00187196 L52.9621043,4.75492887 C52.7903835,4.84033484 52.670179,5.02674358 52.668377,5.23778452 C52.666469,5.48346114 52.8126436,5.66126475 53.0359866,5.75538341 C53.3743401,5.94362075 53.3005637,6.2399601 53.3108458,6.87781575 L53.3108458,9.91585878 L53.3109518,9.91585878 Z M53.142623,10.377847 C52.8404157,10.5399462 52.666893,10.3952724 52.666893,10.6689157 L53.142623,10.377847 Z M54.4016966,2.62150069 C55.1179417,2.62150069 55.6985063,2.04108432 55.6985063,1.33159091 C55.6985063,0.618763012 55.1179417,0.0435097155 54.4016966,0.0435097155 C53.6854514,0.0435097155 53.1065829,0.618763012 53.1065829,1.33159091 C53.1065829,2.04097675 53.6854514,2.62150069 54.4016966,2.62150069 L54.4016966,2.62150069 Z M43.6509174,10.7560427 C43.6096832,10.7264625 43.5856211,10.6933328 43.5856211,10.6497693 L43.5822291,2.93870749 C43.571947,2.30074427 43.6458294,2.0026839 43.3074759,1.81616759 C43.0841329,1.7203279 42.9381703,1.54252429 42.9398663,1.2985687 C42.9417743,1.08763532 43.0618728,0.90638966 43.2352896,0.819262665 L45.0319974,0.0627637058 C45.0319974,0.0627637058 45.147114,-5.37820958e-05 45.391021,-5.37820958e-05 C45.622844,-5.37820958e-05 45.8100409,0.186462526 45.8100409,0.416542332 L45.8100409,4.28422797 C45.8100409,4.36619188 45.8770332,4.43245142 45.9578055,4.43245142 C46.0024317,4.43245142 46.0471639,4.40964781 46.074618,4.37662561 C46.3493712,4.00714261 46.7770831,3.82406836 47.1292167,3.83460965 C48.7387277,3.88150763 49.5012951,5.45033137 49.5012951,7.51050833 C49.5012951,10.0553695 47.8146157,11.5229754 46.1707604,11.5229754 C45.384131,11.5229754 44.243566,11.2736416 43.6510234,10.7560427 L43.6509174,10.7560427 Z M45.8168249,8.81956454 C45.8168249,9.62489764 45.7755907,10.5590926 46.3458732,10.5590926 C46.6430985,10.5590926 46.8766175,10.0693529 47.0003201,9.59520992 C47.1240226,9.10719119 47.1720408,8.57905101 47.1720408,8.05263185 C47.1720408,7.05045628 46.8903976,5.58801353 46.2634049,5.58801353 C46.1329183,5.58801353 45.9679816,5.68041117 45.8855132,5.87564018 C45.8168249,6.03429736 45.8168249,6.29750694 45.8168249,6.48574427 L45.8168249,8.81956454 Z M39.7225401,8.81956454 C39.7225401,9.62479008 39.681412,10.5590926 40.2515885,10.5590926 C40.5488138,10.5590926 40.7824388,10.0693529 40.9060353,9.59520992 C41.0297379,9.10719119 41.0778621,8.57905101 41.0778621,8.05263185 C41.0778621,7.05045628 40.7961129,5.58801353 40.1692261,5.58801353 C40.0386335,5.58801353 39.8736968,5.68041117 39.7913344,5.87564018 C39.7225401,6.03429736 39.7225401,6.29750694 39.7225401,6.48574427 L39.7225401,8.81956454 L39.7225401,8.81956454 Z M37.5566326,10.7560427 C37.5153985,10.723128 37.4913364,10.6933328 37.4913364,10.6497693 L37.4880503,2.93870749 C37.4776623,2.30074427 37.5532406,2.0026839 37.2148871,1.81616759 C36.9898482,1.7203279 36.8438855,1.54252429 36.8472775,1.2985687 C36.8472775,1.08763532 36.9675881,0.90638966 37.1410048,0.819155101 L38.9377127,0.0627637058 C38.9377127,0.0627637058 39.0528292,-5.37820958e-05 39.2967363,-5.37820958e-05 C39.5285593,-5.37820958e-05 39.7158621,0.186462526 39.7158621,0.416542332 L39.7158621,4.28433553 C39.7158621,4.36619188 39.7827484,4.43245142 39.8635208,4.43245142 C39.909949,4.43245142 39.9528792,4.40964781 39.9803333,4.37662561 C40.2551925,4.00714261 40.6846004,3.82417592 41.0349319,3.83460965 C42.646139,3.88150763 43.4070103,5.45033137 43.4070103,7.51061589 C43.4070103,10.0553695 41.7203309,11.5229754 40.0764757,11.5229754 C39.2898462,11.5229754 38.1509772,11.2737491 37.5567386,10.7560427 L37.5566326,10.7560427 Z M22.6645213,5.3823508 C22.6318731,5.08601145 22.4068341,4.87518563 22.2024652,4.87518563 C21.9551662,4.87518563 21.8228776,5.09483171 21.7644713,5.3823508 C21.6665269,5.85649375 21.6614389,6.1963966 21.6614389,6.1963966 C21.6614389,6.31665337 21.7609733,6.41776371 21.8812838,6.41776371 L22.4876065,6.41776371 C22.609507,6.41776371 22.7023634,6.31665337 22.7074515,6.1963966 C22.7280156,5.73268737 22.6645213,5.3823508 22.6645213,5.3823508 L22.6645213,5.3823508 Z M24.9507393,9.56208015 C24.9214832,9.88799965 24.3838488,10.6166395 24.2138241,10.7594847 C23.6590176,11.2928956 23.0131568,11.5699809 22.3330578,11.5699809 C20.7356308,11.5699809 19.4319311,9.90725364 19.4319311,7.62033137 C19.4319311,5.49217384 20.8935715,3.8816152 22.4463723,3.8816152 C23.0355229,3.8816152 23.7260099,4.1029823 24.201846,4.61541811 C24.5866277,5.01803088 24.9507393,6.02031402 24.9644134,6.71399549 C24.9729994,7.23342297 24.8477069,7.22298924 24.6689901,7.22298924 L22.3570139,7.22298924 C21.8675038,7.22298924 21.7541893,7.1741551 21.7541893,7.62560201 C21.7541893,8.86657009 22.2453954,9.8497068 23.1969616,9.7974306 C23.8480165,9.75913775 24.0661654,9.05835704 24.3375266,9.05835704 C24.3375266,9.05835704 24.426779,9.06362769 24.4852913,9.10719119 L24.8923331,9.44709403 C24.8923331,9.44709403 24.9593253,9.49065753 24.9507393,9.56208015 L24.9507393,9.56208015 Z M6.52881246,8.09974497 L6.52881246,9.54809681 C6.52881246,9.54809681 6.52192243,9.76774289 6.30038145,9.84443616 C6.30038145,9.84443616 5.95174592,9.93156315 5.74557502,9.79215996 C5.74557502,9.79215996 5.51544801,9.65275677 5.51544801,9.17334316 C5.51544801,9.17334316 5.50166795,8.74287127 5.76105109,8.48321131 C5.76105109,8.48321131 5.92248979,8.2879823 6.32094554,8.014339 C6.32094554,8.014339 6.52881246,7.88881159 6.52881246,8.09974497 L6.52881246,8.09974497 Z M6.52881246,6.8830864 C5.8554975,7.18985947 5.64423857,7.28924879 5.26115289,7.4826492 C4.67369831,7.77898855 4.14125798,8.09974497 3.84753069,8.44136884 C3.47822507,8.86657009 3.32367639,9.2657408 3.36141255,9.97512665 C3.42331683,11.115092 4.27354656,11.5281384 4.95375154,11.5281384 C6.07534247,11.5281384 6.41719397,10.9094292 6.54428852,10.8187526 C6.54428852,10.8187526 6.60269478,10.7316256 6.64043095,10.8187526 C6.88614002,11.3783015 7.38593222,11.5125416 7.82731815,11.5125416 C8.30315424,11.5125416 9.0451575,11.2544951 9.31312668,10.7560427 C9.33888479,10.7072085 9.35436086,10.5973855 9.35436086,10.5973855 L9.35436086,9.89843338 C9.35436086,9.81657703 9.33029875,9.69632026 9.20839822,9.71546669 C9.07261162,9.73482824 8.94551706,9.87412387 8.82022451,9.87412387 C8.79616241,9.87412387 8.72058408,9.86003296 8.71199804,9.80087266 L8.71199804,5.68396079 C8.71199804,5.15227099 8.64320374,4.85948126 8.2705061,4.48644865 C7.76043186,3.97401284 6.76074147,3.8380517 6.29518743,3.8380517 C5.5583782,3.8380517 4.45046133,4.07340215 3.8956549,4.73567488 C3.6002316,5.08956107 3.43879289,6.08130291 3.68609198,6.67570264 C3.74449823,6.81510583 3.91113097,6.72969986 3.91113097,6.72969986 L5.52403405,6.20683033 C5.65621663,6.12486641 5.6047004,6.00116759 5.6047004,6.00116759 C5.57555027,5.82336398 5.5583782,5.45904407 5.5583782,5.45904407 C5.5583782,5.14710791 5.69914681,4.81236815 6.10799061,4.81236815 C6.39143585,4.81236815 6.5151384,4.98500867 6.52881246,5.23423491 L6.52881246,6.8830864 L6.52881246,6.8830864 Z M49.0872572,10.6689157 C49.0872572,10.3952724 49.26078,10.5399462 49.5647893,10.377847 C49.5647893,10.377847 49.7331181,10.2661954 49.7331181,9.91585878 L49.7331181,2.93870749 C49.722836,2.30074427 49.7967184,2.0026839 49.4582589,1.81616759 C49.2350219,1.7203279 49.0890593,1.54252429 49.0907553,1.2985687 C49.0926633,1.08763532 49.2126558,0.901119015 49.3844826,0.813992019 L51.1828864,0.0627637058 C51.1828864,0.0627637058 51.2962009,-5.37820958e-05 51.541804,-5.37820958e-05 C51.772037,-5.37820958e-05 51.9592339,0.186462526 51.9592339,0.416542332 L51.9611419,9.91585878 C51.9611419,10.2663029 52.1191886,10.377847 52.1191886,10.377847 C52.3493156,10.5259629 52.4918862,10.468416 52.4918862,10.6689157 L52.4987762,11.1482217 C52.4987762,11.421865 52.2720412,11.4549948 52.1242766,11.4549948 C51.6485465,11.4549948 51.1727104,11.4462821 50.6968743,11.4462821 C50.2211442,11.4462821 49.937699,11.4549948 49.4618629,11.4549948 C49.3142042,11.4549948 49.0891653,11.4220802 49.0891653,11.1482217 L49.0872572,10.6689157 L49.0872572,10.6689157 Z M37.3522637,10.663645 C37.3522637,10.4632529 37.2096931,10.5259629 36.9795661,10.377847 C36.9795661,10.377847 36.8163254,10.3290128 36.8163254,9.91585878 L36.8163254,4.31391568 C36.8163254,4.17967557 36.7080989,4.06468945 36.5741143,4.06813151 C35.7152986,4.111695 34.3996208,4.33833276 34.3996208,4.33833276 C34.2518561,4.3610288 34.1539117,4.45686849 34.1539117,4.59627169 L34.1539117,5.01803088 C34.1539117,5.0999948 34.1934499,5.17141742 34.2553541,5.21508848 C34.2553541,5.21508848 34.3635806,5.29694483 34.4322689,5.34405795 C34.7706224,5.53057425 34.6967401,6.2399601 34.7053261,6.87781575 L34.7053261,9.5673508 C34.7053261,9.619627 34.684762,9.67190319 34.6504179,9.70503296 C34.5250193,9.85486988 34.3566906,9.97512665 34.3566906,9.97512665 C34.2811123,10.0309525 34.1865598,10.0658033 34.0852234,10.0658033 C33.8345323,10.0658033 33.6300574,9.86358258 33.6300574,9.61435635 L33.6300574,4.31391568 C33.6300574,4.17967557 33.5218309,4.06468945 33.3861503,4.06813151 C32.5290306,4.111695 31.2133528,4.33833276 31.2133528,4.33833276 C31.0655881,4.3610288 30.9677497,4.45686849 30.9677497,4.59627169 L30.9677497,5.01813845 C30.9677497,5.0999948 31.0071819,5.17152498 31.0690862,5.21508848 C31.0690862,5.21508848 31.1755106,5.29694483 31.2443049,5.34405795 C31.5826584,5.53057425 31.5087761,6.2399601 31.5190581,6.87781575 L31.5190581,10.098933 C31.5190581,10.9529927 32.2130432,11.6432321 33.0701629,11.6432321 C33.2848139,11.6432321 33.4428606,11.5996686 33.6300574,11.5229754 C33.9581288,11.3940059 34.4373569,10.9529927 34.4373569,10.9529927 C34.458027,10.9336312 34.4820891,10.9234126 34.5146313,10.9234126 C34.5782316,10.9234126 34.6297478,10.9757963 34.6297478,11.0385062 L34.6297478,11.4986659 C34.6297478,11.5857929 34.6984361,11.6520524 34.7826005,11.6520524 C35.2584366,11.6520524 36.4264557,11.4795194 36.9795661,11.3975555 C37.1255287,11.3733536 37.3522637,11.3208622 37.3522637,11.0907824 L37.3522637,10.6637526 L37.3522637,10.663645 Z M27.6800393,12.5338636 C27.6800393,12.8842002 27.84328,12.9940232 27.84328,12.9940232 C28.073407,13.1422467 28.4117605,13.1038463 28.4117605,13.306067 L28.4151525,13.7662266 C28.4151525,14.0398699 28.1884175,14.0729997 28.0424549,14.0729997 C27.5649228,14.0729997 26.8916078,14.0623508 26.4157717,14.0623508 C25.9400417,14.0623508 25.6565964,14.0729997 25.1807603,14.0729997 C25.0331017,14.0729997 24.8080627,14.0399774 24.8080627,13.7662266 L24.8047767,13.306067 C24.8047767,13.0324237 24.9781934,13.1665562 25.2822028,13.004457 C25.2822028,13.004457 25.4523335,12.8842002 25.4523335,12.5338636 L25.4523335,6.87781575 C25.4419455,6.2399601 25.5158278,5.94362075 25.1774743,5.75538341 C24.9541313,5.66126475 24.8081687,5.54617106 24.8098647,5.30049445 C24.8117727,5.08601145 24.9300692,4.90304476 25.103592,4.81763879 L26.9019959,4.04898508 C26.9019959,4.04898508 27.0171124,3.98799618 27.2610195,3.98799618 C27.4911465,3.98799618 27.6354131,4.12223629 27.6663652,4.32789903 C27.6663652,4.40975538 27.7333575,4.47601492 27.8140239,4.47601492 C27.8604521,4.47601492 27.9033823,4.45321131 27.9308364,4.41846808 C28.1747435,4.13094899 28.6334075,3.95830847 28.985541,3.96884976 C30.5966421,4.01241325 31.3576194,5.89478661 31.3576194,7.51061589 C31.3576194,10.6113688 29.5644096,11.6572155 28.0270848,11.5229754 C27.9222504,11.5123265 27.8656461,11.5175972 27.7505296,11.5074861 C27.7505296,11.5074861 27.6938194,11.4933952 27.6801453,11.5423369 L27.6801453,12.5200954 L27.6800393,12.5338636 Z M27.6732553,8.90497051 C27.6732553,9.71019604 27.6320211,10.6444986 28.2039996,10.6444986 C28.4994229,10.6444986 28.7330479,10.161643 28.8566445,9.68588654 C28.980347,9.19776024 29.0284712,8.67144865 29.0284712,8.14330847 C29.0284712,7.13758328 28.746722,5.67524809 28.1198352,5.67524809 C27.9892426,5.67524809 27.8244119,5.76581714 27.7419436,5.96631679 C27.6732553,6.12486641 27.6732553,6.38979702 27.6732553,6.57115024 L27.6732553,8.90497051 Z M15.6255604,10.4108692 C15.8952256,10.5539296 16.1150705,10.468416 16.1150705,10.6689157 L16.1150705,11.1482217 C16.1150705,11.421865 15.8883355,11.4549948 15.7406769,11.4549948 C15.2648408,11.4549948 14.0486975,11.4462821 13.5712714,11.4462821 C13.0954353,11.4462821 12.6643314,11.4549948 12.1884953,11.4549948 C12.0425327,11.4549948 11.8157977,11.4220802 11.8157977,11.1482217 L11.8157977,10.6689157 C11.8157977,10.3952724 11.9875184,10.5451093 12.2916337,10.377847 C12.2916337,10.377847 12.6076211,10.1808969 12.6076211,9.82528973 L12.6076211,2.68948126 C12.5973391,2.05151804 12.6712214,1.75345767 12.3327619,1.56694136 C12.1901913,1.48497745 12.111221,1.45195524 12.111221,1.45195524 C11.9445882,1.38913775 11.891376,1.3072814 11.891376,1.12076509 L11.891376,0.733749133 C11.893284,0.522923317 11.9462842,0.407829632 12.112917,0.407829632 L15.7836071,0.407829632 C17.1576911,0.421920541 17.7794898,0.728586051 18.3326003,1.12076509 C19.0213913,1.61050486 19.5521356,2.53082408 19.5521356,3.21579285 C19.5521356,4.38017523 18.9406189,5.58801353 18.0612391,5.9296374 C17.9289505,6.00988029 17.9048884,6.07786086 17.9048884,6.19284698 C17.9048884,6.25039382 17.9237565,6.30794067 17.9530126,6.34978314 C18.0869972,6.58502602 18.3497723,7.10789556 18.4648888,7.40423491 L19.3151186,9.52895038 C19.5984578,10.161643 19.6603621,10.377847 20.084576,10.5259629 C20.325091,10.6496617 20.2924429,10.8135895 20.2924429,10.8135895 L20.2924429,11.2109316 C20.2924429,11.4358484 20.0468398,11.4514452 20.0468398,11.4514452 L17.806944,11.4514452 C17.4995426,11.4514452 17.367254,11.5038289 17.1731672,11.1063793 C17.1731672,11.1063793 16.1494147,9.20303088 15.6066923,7.04518563 C15.5551761,6.83425226 15.4297775,6.85866933 15.4297775,6.85866933 C15.2889029,6.85866933 15.2751228,7.00334316 15.2751228,7.00334316 L15.2751228,9.82528973 C15.2751228,10.2854493 15.6255604,10.4108692 15.6255604,10.4108692 L15.6255604,10.4108692 Z M15.318053,4.91702811 C15.318053,5.3300746 15.2648408,5.66126475 15.5087479,5.66126475 C15.7801091,5.66126475 16.0704443,5.57930083 16.2971793,5.26209403 C16.5788226,4.89777412 16.7230892,4.25636884 16.7230892,3.64282269 C16.7230892,2.58310028 16.3332195,1.54779493 15.6994427,1.54779493 C15.4279755,1.54779493 15.318053,1.61921756 15.318053,1.82660132 L15.318053,4.91702811 Z M3.18001396e-05,10.6740788 C3.18001396e-05,10.3952724 0.173448561,10.5451093 0.475761888,10.377847 C0.475761888,10.377847 0.644090627,10.271466 0.644090627,9.91585878 L0.644090627,2.93870749 C0.633808582,2.30601492 0.709386914,2.0026839 0.369337421,1.82143824 C0.145994441,1.7203279 3.18001396e-05,1.54779493 0.00172780758,1.30373178 C0.00363581596,1.08763532 0.123628343,0.90638966 0.297151104,0.819155101 L2.09385899,0.0662057599 C2.09385899,0.0662057599 2.20886949,0.00349583622 2.45457857,0.00349583622 C2.68470558,0.00349583622 2.8719024,0.186462526 2.8719024,0.416542332 L2.8719024,9.91585878 C2.8719024,10.271466 3.0299491,10.377847 3.0299491,10.377847 C3.26007611,10.5259629 3.40444874,10.4736867 3.40444874,10.6740788 L3.40953676,11.1482217 C3.40953676,11.4271357 3.18449778,11.4549948 3.03683913,11.4549948 C2.56100304,11.4549948 2.08527295,11.4462821 1.60943686,11.4462821 C1.13190477,11.4462821 0.850261532,11.4549948 0.374425443,11.4549948 C0.226766795,11.4549948 3.18001396e-05,11.4269205 3.18001396e-05,11.1482217 L3.18001396e-05,10.6740788 L3.18001396e-05,10.6740788 Z" id="Fill-1" fill="#BAB7CC" mask="url(#mask-2)"></path>
                </g>
            </g>
        </g>
    </g>
</svg>