<svg xmlns="http://www.w3.org/2000/svg" xmlns:xlink="http://www.w3.org/1999/xlink" width="67" height="15"><defs><path id="A" d="M0 14.073h67.075V0H0v14.073z"/></defs><g transform="translate(-.067 .455)" fill-rule="evenodd"><mask id="B" fill="#fff"><use xlink:href="#A"/></mask><path d="M60.16 9.288s.048-.13.17-.07l.555.413s.077.096 0 .286c0 0-.196.558-.672 1.002-.5.476-1.08.648-1.682.648-1.6 0-2.887-1.482-2.745-3.87.148-2.46 1.512-3.728 3.164-3.815.44-.023.9.082 1.374.457 0 0 .654.546.654 1.394 0 .584-.45 1.06-1.003 1.06s-1.065-.514-1.1-1.323c0 0-.01-.328-.156-.528 0 0-.055-.09-.156-.09 0 0-.103-.038-.215.134 0 0-.366.493-.366 1.624 0 1.482.074 3.25 1.343 3.25 0 0 .575.056.835-.572zM64.25 8.1v1.448s-.007.22-.23.293c0 0-.345.09-.553-.05 0 0-.23-.143-.23-.62 0 0-.014-.436.244-.7 0 0 .163-.2.562-.474 0 0 .208-.126.208.09zm0-1.222l-1.268.605c-.587.29-1.12.617-1.414.96-.37.425-.524.82-.486 1.534.062 1.14.912 1.548 1.592 1.548 1.122 0 1.463-.62 1.59-.704 0 0 .058-.092.096 0 .246.56.746.69 1.187.69.476 0 1.218-.253 1.486-.75.026-.05.04-.164.04-.164v-.7c0-.082-.024-.197-.148-.183-.134.02-.26.16-.386.16-.024 0-.1-.014-.108-.068V5.684c0-.532-.07-.828-.44-1.198-.512-.512-1.5-.652-1.975-.652-.737 0-1.845.234-2.4.9-.294.35-.457 1.342-.2 1.936.058.138.225.052.225.052l1.613-.523c.132-.08.08-.206.08-.206-.03-.178-.046-.537-.046-.537 0-.317.143-.647.55-.647.283 0 .405.173.42.422v1.644zM53.31 9.916c0 .35-.168.462-.168.462-.302.162-.476.017-.476.29v.48c0 .274.225.307.373.307l1.235-.01 1.427.01c.148 0 .373-.033.373-.307v-.48c0-.2-.143-.148-.373-.29 0 0-.163-.112-.163-.462l-.002-5.558a.42.42 0 0 0-.417-.418c-.244 0-.36.063-.36.063l-1.798.753c-.172.085-.292.272-.294.483-.002.246.144.423.368.518.338.188.265.485.275 1.122v3.038zm-.168.462c-.302.162-.476.017-.476.29l.476-.29zm1.26-7.756c.716 0 1.297-.58 1.297-1.3S55.118.044 54.402.044a1.29 1.29 0 0 0-1.295 1.288c0 .71.58 1.3 1.295 1.3zm-10.75 8.135c-.04-.03-.065-.063-.065-.106l-.003-7.71c-.01-.638.064-.936-.275-1.123-.223-.096-.37-.274-.368-.518a.54.54 0 0 1 .295-.479l1.797-.756S45.147 0 45.39 0c.232 0 .42.187.42.417v3.868c0 .082.067.148.148.148.045 0 .09-.023.117-.056.275-.37.702-.553 1.055-.542 1.6.047 2.372 1.616 2.372 3.676 0 2.545-1.687 4.012-3.33 4.012-.787 0-1.927-.25-2.52-.767zm2.166-1.936c0 .805-.04 1.74.53 1.74.297 0 .53-.5.654-.964.124-.488.172-1.016.172-1.543 0-1.002-.282-2.465-.91-2.465-.13 0-.295.092-.378.288-.07.16-.07.422-.07.6V8.82zm-6.094 0c0 .805-.04 1.74.53 1.74.297 0 .53-.5.654-.964.124-.488.172-1.016.172-1.543 0-1.002-.282-2.465-.91-2.465-.13 0-.296.092-.378.288-.07.16-.07.422-.07.6V8.82zm-2.166 1.936c-.04-.033-.065-.063-.065-.106l-.003-7.71c-.01-.638.065-.936-.273-1.123-.225-.096-.37-.274-.368-.518 0-.21.12-.392.294-.48l1.797-.756s.115-.063.36-.063c.232 0 .42.187.42.417v3.868c0 .082.067.148.148.148.046 0 .09-.023.117-.056.275-.37.704-.552 1.055-.542 1.61.047 2.372 1.616 2.372 3.676 0 2.545-1.687 4.012-3.33 4.012-.787 0-1.925-.25-2.52-.767zM22.665 5.382c-.033-.296-.258-.507-.462-.507-.247 0-.38.22-.438.507-.098.474-.103.814-.103.814 0 .12.1.22.22.22h.606c.122 0 .215-.1.22-.22.02-.464-.043-.814-.043-.814zm2.286 4.18c-.03.326-.567 1.055-.737 1.197-.555.533-1.2.8-1.88.8-1.597 0-2.9-1.663-2.9-3.95 0-2.128 1.462-3.74 3.014-3.74.59 0 1.28.22 1.755.734.385.403.75 1.405.763 2.1.01.52-.117.51-.295.51h-2.312c-.5 0-.603-.05-.603.403 0 1.24.49 2.224 1.443 2.172.65-.038.87-.74 1.14-.74 0 0 .09.005.148.05l.407.34s.067.044.058.115zM6.53 8.1v1.448s-.007.22-.228.296c0 0-.35.087-.555-.052 0 0-.23-.14-.23-.62 0 0-.014-.43.246-.7 0 0 .16-.195.56-.47 0 0 .208-.126.208.085zm0-1.217l-1.268.6c-.587.296-1.12.617-1.414.96-.37.425-.524.824-.486 1.534.062 1.14.912 1.553 1.592 1.553 1.122 0 1.463-.62 1.59-.71 0 0 .058-.087.096 0 .246.56.746.694 1.187.694.476 0 1.218-.258 1.486-.756.026-.05.04-.16.04-.16v-.7c0-.082-.024-.202-.146-.183-.136.02-.263.16-.388.16-.024 0-.1-.014-.108-.073V5.684c0-.532-.07-.824-.44-1.198-.5-.512-1.5-.648-1.975-.648-.737 0-1.845.235-2.4.898-.295.354-.457 1.346-.2 1.94.058.14.225.054.225.054l1.613-.523c.132-.082.08-.206.08-.206-.03-.178-.046-.542-.046-.542 0-.312.14-.647.55-.647.283 0 .407.173.42.422v1.65zm42.558 3.786c0-.274.174-.13.478-.29 0 0 .168-.112.168-.462V2.94c-.01-.638.064-.936-.275-1.123-.223-.096-.37-.274-.368-.518a.55.55 0 0 1 .294-.485l1.798-.75s.113-.063.36-.063c.23 0 .417.187.417.417v9.5c0 .35.158.462.158.462.23.148.373.09.373.29l.007.48c0 .274-.227.307-.374.307-.476 0-.952-.01-1.427-.01l-1.235.01c-.148 0-.373-.033-.373-.307l-.002-.48zm-11.735-.005c0-.2-.143-.138-.373-.286 0 0-.163-.05-.163-.462V4.314c0-.134-.108-.25-.242-.246-.86.044-2.174.27-2.174.27-.148.023-.246.12-.246.258v.422a.24.24 0 0 0 .101.197l.177.13c.338.187.264.896.273 1.534v2.7c0 .052-.02.105-.055.138-.125.15-.294.27-.294.27a.46.46 0 0 1-.271.091c-.25 0-.455-.202-.455-.45v-5.3c0-.134-.108-.25-.244-.246-.857.044-2.173.27-2.173.27-.148.023-.246.12-.246.258v.422c0 .082.04.153.1.197l.175.13c.338.187.264.896.275 1.534v3.22c0 .854.694 1.544 1.55 1.544.215 0 .373-.044.56-.12.328-.13.807-.57.807-.57.02-.02.045-.03.077-.03.064 0 .115.052.115.115v.46c0 .087.07.153.153.153.476 0 1.644-.173 2.197-.254.146-.024.373-.077.373-.307v-.427zm-9.672 1.87c0 .35.163.46.163.46.23.148.568.1.568.312l.003.46c0 .274-.227.307-.373.307-.478 0-1.15-.01-1.627-.01l-1.235.01c-.148 0-.373-.033-.373-.307l-.003-.46c0-.274.173-.14.477-.302 0 0 .17-.12.17-.47V6.878c-.01-.638.063-.934-.275-1.122-.223-.094-.37-.21-.368-.455.002-.214.12-.397.294-.483l1.798-.77s.115-.06.36-.06c.23 0 .374.134.405.34 0 .082.067.148.148.148a.15.15 0 0 0 .117-.058c.244-.288.703-.46 1.055-.45 1.61.044 2.372 1.926 2.372 3.542 0 3.1-1.793 4.147-3.33 4.012l-.277-.015s-.057-.014-.07.035v.992zm-.007-3.63c0 .805-.04 1.74.53 1.74.295 0 .53-.483.653-.96.124-.488.172-1.014.172-1.543 0-1.006-.282-2.468-.91-2.468-.13 0-.295.09-.378.29-.07.16-.07.423-.07.605v2.334zM15.626 10.41c.27.143.5.058.5.258v.48c0 .274-.227.307-.374.307-.476 0-1.692-.01-2.17-.01l-1.383.01c-.146 0-.373-.033-.373-.307v-.48c0-.274.172-.124.476-.29 0 0 .316-.197.316-.553V2.69c-.01-.638.064-.936-.275-1.123l-.222-.115c-.167-.063-.22-.145-.22-.33V.734c.002-.21.055-.326.222-.326h3.67c1.374.014 1.996.32 2.55.713.69.5 1.22 1.4 1.22 2.095 0 1.164-.612 2.372-1.49 2.714-.132.08-.156.148-.156.263 0 .058.02.115.048.157a10.49 10.49 0 0 1 .512 1.054l.85 2.125c.283.633.345.85.77.997.24.124.208.288.208.288v.397c0 .225-.246.24-.246.24h-2.24c-.307 0-.44.052-.634-.345 0 0-1.024-1.903-1.566-4.06-.052-.21-.177-.187-.177-.187-.14 0-.155.145-.155.145v2.822c0 .46.35.586.35.586zm-.308-5.494c0 .413-.053.744.19.744a.91.91 0 0 0 .788-.399c.282-.364.426-1.006.426-1.62 0-1.06-.4-2.095-1.024-2.095-.27 0-.38.07-.38.28v3.1zM0 10.674c0-.28.173-.13.476-.296 0 0 .168-.106.168-.462V2.94C.634 2.306.71 2.003.37 1.82.146 1.72 0 1.548.002 1.304.004 1.088.124.906.297.82L2.094.066s.115-.063.36-.063c.23 0 .417.183.417.413v9.5c0 .356.158.462.158.462.23.148.374.096.374.296l.005.474c0 .28-.225.307-.373.307-.476 0-.952-.01-1.427-.01l-1.235.01c-.148 0-.374-.028-.374-.307v-.474z" fill="#bab7cc"/></g></svg>