<?xml version="1.0" encoding="UTF-8"?>
<svg width="90px" height="90px" viewBox="0 0 90 90" version="1.1" xmlns="http://www.w3.org/2000/svg" xmlns:xlink="http://www.w3.org/1999/xlink">
    <!-- Generator: Sketch 41.2 (35397) - http://www.bohemiancoding.com/sketch -->
    <title>send-icon</title>
    <desc>Created with Sketch.</desc>
    <defs>
        <filter x="-50%" y="-50%" width="200%" height="200%" filterUnits="objectBoundingBox" id="filter-1">
            <feOffset dx="0" dy="3" in="SourceAlpha" result="shadowOffsetOuter1"></feOffset>
            <feGaussianBlur stdDeviation="7.5" in="shadowOffsetOuter1" result="shadowBlurOuter1"></feGaussianBlur>
            <feColorMatrix values="0 0 0 0 0   0 0 0 0 0   0 0 0 0 0  0 0 0 0.197209013 0" type="matrix" in="shadowBlurOuter1" result="shadowMatrixOuter1"></feColorMatrix>
            <feMerge>
                <feMergeNode in="shadowMatrixOuter1"></feMergeNode>
                <feMergeNode in="SourceGraphic"></feMergeNode>
            </feMerge>
        </filter>
    </defs>
    <g id="Homepage" stroke="none" stroke-width="1" fill="none" fill-rule="evenodd">
        <g id="Desktop" transform="translate(-556.000000, -3020.000000)">
            <g id="scambio-denaro" transform="translate(0.000000, 2705.000000)">
                <g id="Group-7" transform="translate(481.000000, 266.000000)">
                    <g id="Group-18" transform="translate(90.000000, 61.000000)">
                        <g id="send-icon" filter="url(#filter-1)">
                            <circle id="Oval-5" fill="#BAB7CC" cx="30" cy="30" r="30"></circle>
                            <g id="icon-invia" opacity="0.55" style="mix-blend-mode: overlay;" transform="translate(16.000000, 13.000000)">
                                <path d="M5.8,6.2 L5.8,5.12 C5.83316476,4.2076401 6.23768798,3.347693 6.92099395,2.73695884 C7.60429992,2.12622468 8.50789855,1.81698148 9.425,1.88 L16.675,1.88 C17.5921015,1.81698148 18.4957001,2.12622468 19.1790061,2.73695884 C19.862312,3.347693 20.2668352,4.2076401 20.3,5.12 L20.3,6.2" id="Shape"></path>
                                <polyline id="Shape" points="15.747 19.16 1.45 19.16 1.45 6.2 27.55 6.2 27.55 19.16 23.8235 19.16"></polyline>
                                <path d="M5.8,19.16 C5.8,23.9317402 9.69512268,27.8 14.5,27.8 C19.3048773,27.8 23.2,23.9317402 23.2,19.16 L23.2,10.52 C22.2069027,10.5042799 21.2498279,10.8891344 20.5475128,11.5866059 C19.8451978,12.2840774 19.4576707,13.2345516 19.4735,14.2208 L19.4735,16.6832 C16.7300172,16.6911088 14.5079637,18.8978378 14.5,21.6224" id="Shape"></path>
                                <path d="M27.55,4.76 L21.75,4.76 C21.4904674,2.20563854 19.2565333,0.304043454 16.675,0.44 L9.425,0.44 C6.84346669,0.304043454 4.60953265,2.20563854 4.35,4.76 L1.45,4.76 C0.649187113,4.76 0,5.40470996 0,6.2 L0,19.16 C0,19.95529 0.649187113,20.6 1.45,20.6 L4.466,20.6 C5.22200051,25.52332 9.48517807,29.1604076 14.5,29.1604076 C19.5148219,29.1604076 23.7779995,25.52332 24.534,20.6 L27.55,20.6 C28.3508129,20.6 29,19.95529 29,19.16 L29,6.2 C29,5.40470996 28.3508129,4.76 27.55,4.76 Z M9.425,3.32 L16.675,3.32 C17.654655,3.2169159 18.569025,3.82229188 18.85,4.76 L7.25,4.76 C7.53097504,3.82229188 8.445345,3.2169159 9.425,3.32 Z M21.75,19.16 C21.7537433,22.8590223 18.9344736,25.9590366 15.2286193,26.3307838 C11.5227649,26.7025309 8.13619904,24.2250456 7.395,20.6 L13.195,20.6 C13.1331639,20.937483 13.0992174,21.2794223 13.0935,21.6224 C13.0935,22.41769 13.7426871,23.0624 14.5435,23.0624 C15.3443129,23.0624 15.9935,22.41769 15.9935,21.6224 C16.0014456,19.6931231 17.5743254,18.1310908 19.517,18.1232 C20.3178129,18.1232 20.967,17.47849 20.967,16.6832 L20.967,14.2208 C20.941295,13.5425081 21.229804,12.8898809 21.75,12.4496 L21.75,19.16 Z M26.1,17.72 L24.65,17.72 L24.65,10.52 C24.65,9.72470996 24.0008129,9.08 23.2,9.08 C21.8223535,9.06440707 20.496548,9.60101688 19.5223415,10.5685047 C18.5481351,11.5359925 18.0077988,12.8526545 18.0235,14.2208 L18.0235,15.4304 C16.6228613,15.7777168 15.3813199,16.5844809 14.5,17.72 L2.9,17.72 L2.9,7.64 L26.1,7.64 L26.1,17.72 Z" id="Shape" fill="#000000"></path>
                                <path d="M8.7,29.24 C7.89918711,29.24 7.25,29.88471 7.25,30.68 L7.25,32.12 C7.25,32.91529 7.89918711,33.56 8.7,33.56 C9.50081289,33.56 10.15,32.91529 10.15,32.12 L10.15,30.68 C10.15,29.88471 9.50081289,29.24 8.7,29.24 Z" id="Shape" fill="#000000"></path>
                                <path d="M14.5,30.68 C13.6991871,30.68 13.05,31.32471 13.05,32.12 L13.05,33.56 C13.05,34.35529 13.6991871,35 14.5,35 C15.3008129,35 15.95,34.35529 15.95,33.56 L15.95,32.12 C15.95,31.32471 15.3008129,30.68 14.5,30.68 Z" id="Shape" fill="#000000"></path>
                                <path d="M11.2085,10.1312 C9.79548234,11.5380247 9.79741505,13.8157638 11.2128181,15.2202215 C12.6282212,16.6246792 14.9217788,16.6246792 16.3371819,15.2202215 C17.752585,13.8157638 17.7545177,11.5380247 16.3415,10.1312 C15.6614191,9.45409976 14.7379976,9.07356476 13.775,9.07356476 C12.8120024,9.07356476 11.8885809,9.45409976 11.2085,10.1312 Z M14.2825,13.184 C13.9987607,13.4634812 13.5407978,13.4622381 13.2586012,13.1812206 C12.9764046,12.9002031 12.9764046,12.4453969 13.2586012,12.1643794 C13.5407978,11.8833619 13.9987607,11.8821188 14.2825,12.1616 C14.4197517,12.296792 14.4969538,12.480821 14.4969538,12.6728 C14.4969538,12.864779 14.4197517,13.048808 14.2825,13.184 Z" id="Shape" fill="#000000"></path>
                                <path d="M20.3,29.24 C19.4991871,29.24 18.85,29.88471 18.85,30.68 L18.85,33.56 C18.85,34.35529 19.4991871,35 20.3,35 C21.1008129,35 21.75,34.35529 21.75,33.56 L21.75,30.68 C21.75,29.88471 21.1008129,29.24 20.3,29.24 Z" id="Shape" fill="#000000"></path>
                            </g>
                        </g>
                    </g>
                </g>
            </g>
        </g>
    </g>
</svg>