<?xml version="1.0" encoding="UTF-8"?>
<svg width="58px" height="60px" viewBox="0 0 58 60" version="1.1" xmlns="http://www.w3.org/2000/svg" xmlns:xlink="http://www.w3.org/1999/xlink">
    <!-- Generator: Sketch 41.2 (35397) - http://www.bohemiancoding.com/sketch -->
    <title>smartphone-icon</title>
    <desc>Created with Sketch.</desc>
    <defs></defs>
    <g id="Brand" stroke="none" stroke-width="1" fill="none" fill-rule="evenodd">
        <g id="Desktop-HD" transform="translate(-884.000000, -742.000000)" fill="#00A5FF">
            <g id="text" transform="translate(110.000000, 420.000000)">
                <g id="Group" transform="translate(665.000000, 0.000000)">
                    <g id="docs" transform="translate(0.000000, 277.000000)">
                        <g id="smartphone-icon" transform="translate(108.000000, 45.000000)">
                            <path d="M28.996,49 C26.79,49 24.996,50.794 24.996,53 C24.996,55.206 26.79,57 28.996,57 C31.202,57 32.996,55.206 32.996,53 C32.996,50.794 31.201,49 28.996,49 Z M28.996,55 C27.893,55 26.996,54.103 26.996,53 C26.996,51.897 27.893,51 28.996,51 C30.099,51 30.996,51.897 30.996,53 C30.996,54.103 30.099,55 28.996,55 Z" id="Shape"></path>
                            <path d="M25.996,5 L29.996,5 C30.548,5 30.996,4.553 30.996,4 C30.996,3.447 30.548,3 29.996,3 L25.996,3 C25.444,3 24.996,3.447 24.996,4 C24.996,4.553 25.443,5 25.996,5 Z" id="Shape"></path>
                            <path d="M32.996,5 L33.996,5 C34.548,5 34.996,4.553 34.996,4 C34.996,3.447 34.548,3 33.996,3 L32.996,3 C32.444,3 31.996,3.447 31.996,4 C31.996,4.553 32.443,5 32.996,5 Z" id="Shape"></path>
                            <path d="M4.199,13.342 L3.946,12.398 C3.803,11.865 3.257,11.546 2.721,11.691 C2.188,11.835 1.871,12.382 2.014,12.916 L2.267,13.86 C2.387,14.307 2.791,14.601 3.232,14.601 C3.317,14.601 3.405,14.59 3.492,14.567 C4.025,14.423 4.342,13.875 4.199,13.342 Z" id="Shape"></path>
                            <path d="M2.106,9.863 C2.656,9.81 3.059,9.322 3.006,8.773 C2.998,8.692 2.994,8.613 2.994,8.532 C2.994,8.38 3.009,8.229 3.036,8.083 C3.142,7.54 2.786,7.017 2.244,6.912 C1.703,6.813 1.178,7.164 1.074,7.706 C1.021,7.981 0.995,8.261 0.995,8.534 C0.995,8.676 1.002,8.819 1.016,8.964 C1.065,9.48 1.5,9.868 2.01,9.868 C2.042,9.868 2.074,9.867 2.106,9.863 Z" id="Shape"></path>
                            <path d="M6.729,22.788 L6.476,21.843 C6.333,21.31 5.786,20.989 5.252,21.136 C4.718,21.279 4.401,21.826 4.544,22.361 L4.797,23.306 C4.917,23.752 5.32,24.047 5.762,24.047 C5.847,24.047 5.934,24.036 6.021,24.013 C6.556,23.87 6.873,23.322 6.729,22.788 Z" id="Shape"></path>
                            <path d="M11.792,41.68 L11.539,40.736 C11.396,40.202 10.849,39.882 10.314,40.029 C9.781,40.173 9.464,40.72 9.607,41.254 L9.86,42.198 C9.98,42.645 10.384,42.939 10.825,42.939 C10.91,42.939 10.998,42.928 11.085,42.905 C11.619,42.761 11.935,42.213 11.792,41.68 Z" id="Shape"></path>
                            <path d="M5.464,18.064 L5.211,17.12 C5.068,16.586 4.521,16.266 3.986,16.413 C3.453,16.557 3.136,17.104 3.279,17.638 L3.532,18.582 C3.652,19.029 4.056,19.323 4.497,19.323 C4.582,19.323 4.67,19.312 4.757,19.289 C5.291,19.146 5.607,18.598 5.464,18.064 Z" id="Shape"></path>
                            <path d="M4.615,6.223 C4.7,6.223 4.787,6.212 4.874,6.189 L5.819,5.936 C6.352,5.793 6.669,5.246 6.526,4.711 C6.383,4.178 5.837,3.855 5.301,4.004 L4.356,4.257 C3.823,4.4 3.506,4.947 3.649,5.482 C3.769,5.928 4.173,6.223 4.615,6.223 Z" id="Shape"></path>
                            <path d="M9.338,4.956 C9.423,4.956 9.51,4.945 9.597,4.922 L10.541,4.669 C11.074,4.526 11.391,3.978 11.248,3.444 C11.105,2.91 10.56,2.59 10.024,2.737 L9.08,2.99 C8.547,3.133 8.23,3.681 8.373,4.215 C8.492,4.661 8.896,4.956 9.338,4.956 Z" id="Shape"></path>
                            <path d="M10.526,36.957 L10.273,36.012 C10.13,35.479 9.582,35.161 9.048,35.305 C8.514,35.448 8.198,35.996 8.341,36.53 L8.594,37.475 C8.714,37.922 9.118,38.216 9.559,38.216 C9.644,38.216 9.732,38.205 9.818,38.182 C10.353,38.039 10.669,37.49 10.526,36.957 Z" id="Shape"></path>
                            <path d="M7.995,27.511 L7.742,26.567 C7.599,26.035 7.052,25.715 6.517,25.86 C5.984,26.003 5.667,26.551 5.81,27.085 L6.063,28.029 C6.183,28.475 6.586,28.77 7.028,28.77 C7.113,28.77 7.2,28.759 7.287,28.736 C7.821,28.593 8.138,28.044 7.995,27.511 Z" id="Shape"></path>
                            <path d="M9.261,32.233 L9.008,31.289 C8.865,30.756 8.318,30.434 7.783,30.582 C7.25,30.725 6.933,31.273 7.076,31.807 L7.329,32.751 C7.449,33.197 7.852,33.492 8.294,33.492 C8.379,33.492 8.466,33.481 8.553,33.458 C9.087,33.315 9.404,32.767 9.261,32.233 Z" id="Shape"></path>
                            <path d="M56.015,16.414 C55.479,16.268 54.933,16.587 54.79,17.121 L54.537,18.065 C54.394,18.598 54.71,19.146 55.244,19.29 C55.331,19.313 55.418,19.324 55.504,19.324 C55.945,19.324 56.35,19.03 56.469,18.583 L56.722,17.639 C56.864,17.105 56.548,16.558 56.015,16.414 Z" id="Shape"></path>
                            <path d="M57.279,11.69 C56.742,11.544 56.197,11.865 56.054,12.397 L55.801,13.341 C55.658,13.874 55.975,14.423 56.508,14.566 C56.595,14.589 56.682,14.6 56.767,14.6 C57.209,14.6 57.613,14.305 57.732,13.859 L57.985,12.915 C58.129,12.382 57.813,11.833 57.279,11.69 Z" id="Shape"></path>
                            <path d="M58.926,7.707 C58.823,7.166 58.302,6.815 57.756,6.913 C57.214,7.017 56.858,7.541 56.962,8.084 C56.99,8.23 57.005,8.381 57.004,8.534 C57.004,8.614 57,8.693 56.992,8.773 C56.94,9.323 57.343,9.811 57.892,9.864 C57.924,9.868 57.956,9.869 57.988,9.869 C58.498,9.869 58.933,9.481 58.983,8.965 C58.997,8.82 59.004,8.677 59.004,8.536 C59.005,8.261 58.979,7.982 58.926,7.707 Z" id="Shape"></path>
                            <path d="M49.459,4.669 L50.403,4.922 C50.49,4.945 50.577,4.956 50.662,4.956 C51.104,4.956 51.508,4.661 51.627,4.215 C51.77,3.682 51.453,3.133 50.92,2.99 L49.976,2.737 C49.438,2.59 48.894,2.911 48.751,3.444 C48.609,3.978 48.926,4.526 49.459,4.669 Z" id="Shape"></path>
                            <path d="M54.182,5.936 L55.127,6.189 C55.214,6.212 55.301,6.223 55.386,6.223 C55.828,6.223 56.232,5.928 56.351,5.482 C56.494,4.948 56.177,4.4 55.644,4.257 L54.699,4.004 C54.163,3.856 53.616,4.178 53.474,4.711 C53.332,5.245 53.648,5.793 54.182,5.936 Z" id="Shape"></path>
                            <path d="M54.749,21.137 C54.214,20.994 53.666,21.311 53.524,21.844 L53.271,22.788 C53.128,23.321 53.444,23.869 53.978,24.013 C54.065,24.036 54.152,24.047 54.238,24.047 C54.679,24.047 55.084,23.753 55.203,23.306 L55.456,22.362 C55.599,21.828 55.282,21.28 54.749,21.137 Z" id="Shape"></path>
                            <path d="M48.421,44.751 C47.889,44.609 47.339,44.924 47.196,45.458 L47.005,46.17 L47.005,45.998 C47.005,45.981 46.996,45.967 46.995,45.95 L46.995,42.135 C46.996,42.118 47.005,42.104 47.005,42.087 L47.005,41.109 C47.005,41.092 46.996,41.078 46.995,41.061 L46.995,37.246 C46.996,37.229 47.005,37.215 47.005,37.198 L47.005,36.22 C47.005,36.203 46.996,36.189 46.995,36.172 L46.995,32.357 C46.996,32.34 47.005,32.326 47.005,32.309 L47.005,31.331 C47.005,31.314 46.996,31.3 46.995,31.283 L46.995,27.468 C46.996,27.451 47.005,27.437 47.005,27.42 L47.005,26.442 C47.005,26.425 46.996,26.411 46.995,26.394 L46.995,22.579 C46.996,22.562 47.005,22.548 47.005,22.531 L47.005,21.55 C47.005,21.533 46.996,21.519 46.995,21.502 L46.995,17.687 C46.996,17.67 47.005,17.656 47.005,17.639 L47.005,16.66 C47.005,16.643 46.996,16.629 46.995,16.612 L46.995,12.798 C46.996,12.781 47.005,12.767 47.005,12.75 L47.005,11.771 C47.005,11.754 46.996,11.74 46.995,11.723 L46.995,7.908 C46.996,7.891 47.005,7.877 47.005,7.86 L47.005,6.881 C47.005,6.864 46.996,6.85 46.995,6.833 L46.995,4.405 C46.996,1.977 45.02,0 42.59,0 L17.401,0 C14.972,0 12.996,1.977 12.996,4.405 L12.996,6.879 L12.996,6.881 L12.996,7.859 L12.996,7.861 L12.996,11.768 L12.996,11.77 L12.996,12.748 L12.996,12.75 L12.996,16.656 L12.996,16.658 L12.996,17.637 L12.996,17.639 L12.996,21.545 L12.996,21.547 L12.996,22.526 L12.996,22.528 L12.996,26.434 L12.996,26.436 L12.996,27.415 L12.996,27.417 L12.996,31.323 L12.996,31.325 L12.996,32.304 L12.996,32.306 L12.996,36.212 L12.996,36.214 L12.996,37.193 L12.996,37.195 L12.996,41.101 L12.996,41.103 L12.996,42.081 L12.996,42.083 L12.996,45.99 L12.996,45.992 L12.996,46.164 L12.805,45.452 C12.662,44.919 12.115,44.597 11.58,44.745 C11.047,44.888 10.73,45.436 10.873,45.97 L11.126,46.914 C11.269,47.446 11.814,47.767 12.351,47.621 C12.648,47.542 12.875,47.336 12.997,47.079 L12.997,49.452 C12.947,49.458 12.897,49.454 12.847,49.468 C12.314,49.611 11.997,50.159 12.14,50.693 L12.393,51.637 C12.478,51.955 12.712,52.189 12.997,52.301 L12.997,55.589 C12.997,58.018 14.973,59.994 17.402,59.994 L42.59,59.994 C45.019,59.994 46.995,58.017 46.995,55.589 L46.995,52.306 C47.285,52.196 47.523,51.961 47.609,51.638 L47.862,50.694 C48.005,50.161 47.688,49.612 47.155,49.469 C47.101,49.455 47.049,49.458 46.995,49.453 L46.995,47.089 C46.996,47.084 46.999,47.08 46.999,47.074 C47.119,47.335 47.35,47.542 47.649,47.622 C48.183,47.765 48.731,47.449 48.874,46.915 L49.127,45.97 C49.271,45.442 48.955,44.894 48.421,44.751 Z M14.996,8 L44.996,8 L44.996,46 L14.996,46 L14.996,8 L14.996,8 Z M17.401,2 L42.59,2 C43.916,2 44.995,3.079 44.995,4.405 L44.995,6 L14.995,6 L14.995,4.405 C14.996,3.079 16.075,2 17.401,2 Z M42.59,58 L17.401,58 C16.075,58 14.996,56.921 14.996,55.595 L14.996,48 L44.996,48 L44.996,55.595 C44.996,56.921 43.917,58 42.59,58 Z" id="Shape"></path>
                            <path d="M50.952,35.306 C50.415,35.159 49.87,35.48 49.727,36.013 L49.474,36.957 C49.331,37.49 49.648,38.039 50.181,38.182 C50.268,38.205 50.355,38.216 50.44,38.216 C50.882,38.216 51.286,37.921 51.405,37.475 L51.658,36.531 C51.802,35.997 51.485,35.448 50.952,35.306 Z" id="Shape"></path>
                            <path d="M49.687,40.028 C49.15,39.882 48.605,40.201 48.462,40.735 L48.209,41.679 C48.066,42.212 48.382,42.76 48.916,42.904 C49.003,42.927 49.09,42.938 49.176,42.938 C49.617,42.938 50.022,42.644 50.141,42.197 L50.394,41.253 C50.537,40.72 50.22,40.172 49.687,40.028 Z" id="Shape"></path>
                            <path d="M52.217,30.582 C51.683,30.434 51.135,30.756 50.993,31.289 L50.74,32.234 C50.597,32.768 50.914,33.316 51.448,33.459 C51.534,33.482 51.621,33.493 51.707,33.493 C52.149,33.493 52.553,33.198 52.672,32.752 L52.925,31.807 C53.067,31.272 52.75,30.725 52.217,30.582 Z" id="Shape"></path>
                            <path d="M53.483,25.859 C52.946,25.714 52.401,26.034 52.258,26.566 L52.005,27.51 C51.862,28.043 52.179,28.592 52.712,28.735 C52.799,28.758 52.886,28.769 52.971,28.769 C53.413,28.769 53.817,28.474 53.936,28.028 L54.189,27.084 C54.333,26.551 54.016,26.002 53.483,25.859 Z" id="Shape"></path>
                        </g>
                    </g>
                </g>
            </g>
        </g>
    </g>
</svg>