<svg xmlns="http://www.w3.org/2000/svg" xmlns:xlink="http://www.w3.org/1999/xlink" width="58" height="60"><g fill="#00a5ff" fill-rule="evenodd"><path d="M27.996 49c-2.206 0-4 1.794-4 4s1.794 4 4 4 4-1.794 4-4-1.795-4-4-4zm0 6c-1.103 0-2-.897-2-2s.897-2 2-2 2 .897 2 2-.897 2-2 2zm-3-50h4a1 1 0 1 0 0-2h-4a1 1 0 1 0 0 2zm7 0h1a1 1 0 1 0 0-2h-1a1 1 0 1 0 0 2zM3.2 13.342l-.253-.944a1 1 0 1 0-1.932.518l.253.944a1 1 0 0 0 .965.741 1.02 1.02 0 0 0 .26-.034 1 1 0 0 0 .707-1.225zm-2.094-3.48a1 1 0 0 0 .9-1.09l-.012-.24c0-.152.015-.303.042-.45a1 1 0 0 0-.792-1.171c-.54-.1-1.066.252-1.17.794a4.4 4.4 0 0 0-.08.828l.02.43a1 1 0 0 0 .994.904.77.77 0 0 0 .096-.005zM5.73 22.788l-.253-.945a1 1 0 1 0-1.932.518l.253.945a1 1 0 0 0 .965.741c.085 0 .172-.01.26-.034a1 1 0 0 0 .708-1.225z"/><use xlink:href="#B"/><use xlink:href="#B" x="-6.328" y="-23.616"/><path d="M3.615 6.223c.085 0 .172-.01.26-.034l.945-.253a1 1 0 0 0 .707-1.225c-.143-.533-.7-.856-1.225-.707l-.945.253a1 1 0 0 0 .259 1.966zm4.723-1.267c.085 0 .172-.01.26-.034l.944-.253a1 1 0 0 0 .707-1.225c-.143-.534-.688-.854-1.224-.707L8.08 3a1 1 0 0 0 .258 1.966zm1.188 32l-.253-.945a1 1 0 1 0-1.932.518l.253.945a1 1 0 0 0 .965.741.98.98 0 0 0 .26-.034 1 1 0 0 0 .708-1.225zM6.995 27.5l-.253-.944a1 1 0 1 0-1.932.518l.253.944a1 1 0 0 0 .965.741c.085 0 .172-.01.26-.034a1 1 0 0 0 .708-1.225zm1.265 4.723l-.253-.944a1 1 0 1 0-1.932.518l.253.944a1 1 0 0 0 .965.741c.085 0 .172-.01.26-.034a1 1 0 0 0 .708-1.225zm46.755-15.82c-.536-.146-1.082.173-1.225.707l-.253.944a1 1 0 0 0 .707 1.225c.087.023.174.034.26.034a1 1 0 0 0 .965-.741l.253-.944a1 1 0 0 0-.707-1.225zM56.28 11.7c-.537-.146-1.082.175-1.225.707l-.253.944a1 1 0 0 0 .707 1.225c.087.023.174.034.26.034a1 1 0 0 0 .965-.741l.253-.944a1 1 0 0 0-.706-1.225zm1.646-3.993c-.103-.54-.624-.892-1.17-.794a1 1 0 0 0-.794 1.171 2.31 2.31 0 0 1 .042.45 2.39 2.39 0 0 1-.012.239 1 1 0 0 0 .9 1.091.77.77 0 0 0 .096.005 1 1 0 0 0 .995-.904l.02-.43a4.31 4.31 0 0 0-.078-.829zM48.46 4.67l.944.253c.087.023.174.034.26.034a1 1 0 0 0 .258-1.966l-.944-.253c-.538-.147-1.082.174-1.225.707a1 1 0 0 0 .708 1.225zm4.722 1.266l.945.253c.087.023.174.034.26.034a1 1 0 0 0 .258-1.966l-.945-.253c-.536-.148-1.083.174-1.225.707a1 1 0 0 0 .708 1.225zm.568 15.2a1 1 0 0 0-1.225.707l-.253.944a1 1 0 0 0 .707 1.225c.087.023.174.034.26.034a1 1 0 0 0 .965-.741l.253-.944a1 1 0 0 0-.707-1.225zM47.42 44.75a1 1 0 0 0-1.225.707l-.2.712v-.172c0-.017-.01-.03-.01-.048v-3.815c.001-.017.01-.03.01-.048v-.978c0-.017-.01-.03-.01-.048v-3.815c.001-.017.01-.03.01-.048v-.978c0-.017-.01-.03-.01-.048v-3.815c.001-.017.01-.03.01-.048v-.978c0-.017-.01-.03-.01-.048v-3.815c.001-.017.01-.03.01-.048v-.978c0-.017-.01-.03-.01-.048V22.58c.001-.017.01-.03.01-.048v-.98c0-.017-.01-.03-.01-.048V17.69c.001-.017.01-.03.01-.048v-.98c0-.017-.01-.03-.01-.048V12.8c.001-.017.01-.03.01-.048v-.98c0-.017-.01-.03-.01-.048V7.908c.001-.017.01-.03.01-.048v-.98c0-.017-.01-.03-.01-.048V4.405A4.41 4.41 0 0 0 41.59 0H16.4a4.41 4.41 0 0 0-4.405 4.405v41.76l-.2-.712a1 1 0 1 0-1.932.518l.253.944c.143.532.688.853 1.225.707a1 1 0 0 0 .646-.542v2.373c-.05.006-.1.002-.15.016a1 1 0 0 0-.707 1.225l.253.944a.99.99 0 0 0 .604.664V55.6a4.41 4.41 0 0 0 4.405 4.405H41.6a4.41 4.41 0 0 0 4.405-4.405v-3.283c.3-.1.528-.345.614-.668l.253-.944a1 1 0 0 0-.707-1.225c-.054-.014-.106-.01-.16-.016V47.1c.124.246.355.453.654.533a1 1 0 0 0 1.225-.707l.253-.945c.144-.528-.172-1.076-.706-1.22zM13.996 8h30v38h-30V8zM16.4 2h25.2a2.41 2.41 0 0 1 2.405 2.405V6h-30V4.405A2.41 2.41 0 0 1 16.401 2zm25.2 56H16.4a2.41 2.41 0 0 1-2.405-2.405V48h30v7.595A2.41 2.41 0 0 1 41.59 58zm8.352-22.694c-.537-.147-1.082.174-1.225.707l-.253.944a1 1 0 0 0 .707 1.225c.087.023.174.034.26.034a1 1 0 0 0 .965-.741l.253-.944a1 1 0 0 0-.706-1.225zm-1.265 4.722c-.537-.146-1.082.173-1.225.707l-.253.944a1 1 0 0 0 .707 1.225c.087.023.174.034.26.034a1 1 0 0 0 .965-.741l.253-.944a1 1 0 0 0-.707-1.225zm2.53-9.446c-.534-.148-1.082.174-1.224.707l-.253.945a1 1 0 0 0 1.932.518l.253-.945a1 1 0 0 0-.708-1.225zm1.266-4.722a1 1 0 0 0-1.225.707l-.253.944a1 1 0 0 0 .707 1.225c.087.023.174.034.26.034a1 1 0 0 0 .965-.741l.253-.944a1 1 0 0 0-.706-1.225z"/></g><defs ><path id="B" d="M10.792 41.68l-.253-.944c-.143-.534-.7-.854-1.225-.707a1 1 0 0 0-.707 1.225l.253.944a1 1 0 0 0 .965.741 1.02 1.02 0 0 0 .26-.034 1 1 0 0 0 .707-1.225z"/></defs></svg>