<svg xmlns="http://www.w3.org/2000/svg" xmlns:xlink="http://www.w3.org/1999/xlink" width="48" height="20"><g fill="none" fill-rule="evenodd"><path d="M2.82 4.84c-.338-.025-.583-.043-.583-.434V1.448c0-.415.295-.422.583-.434V.86H.67v.153c.283.018.57.03.57.434v2.958c0 .38-.24.403-.57.434v.152h2.15v-.15zm10.573.006c-.216 0-.27-.2-.27-.367V.862h-1.05v.147c.27 0 .282.287.282.354V4.48c0 .147-.06.367-.282.367v.146h1.322v-.146zM8.964 2.1V.764H8.78c-.03.116-.062.208-.203.208-.18 0-.477-.202-.96-.202C6.45.77 6.26 1.6 6.26 1.974c0 .28 0 .807 1.05 1.308l.412.195c.4.2.688.336.688.746 0 .08-.03.684-.768.684-.78 0-1.136-.7-1.26-1.307h-.178v1.5h.178c.024-.098.055-.208.184-.208.2 0 .467.208 1.05.208 1.13 0 1.523-.74 1.523-1.277 0-.666-.467-1.02-.676-1.124l-.903-.446c-.516-.257-.633-.4-.633-.72 0-.397.338-.58.658-.58.724 0 1.093.703 1.203 1.13h.173zm-4.53 2.746c-.24 0-.3-.2-.3-.367V.862H2.965v.147c.3 0 .313.287.313.354V4.48c0 .147-.068.367-.313.367v.146h1.468v-.146zm11.172-.616c-.105.14-.3.4-.624.4-.525 0-.647-.623-.663-1.143H15.7c-.016-.33-.088-1.393-1.05-1.393-.636 0-1.14.575-1.14 1.48 0 1.045.564 1.497 1.122 1.497.443 0 .758-.195 1.095-.763l-.133-.086zm-1.316-.96c0-.844.188-.978.393-.978.194 0 .266.153.3.287.044.183.044.5.05.7h-.74zm-4.887.324c0 .794.48 1.485 1.25 1.485.752 0 1.244-.672 1.244-1.485 0-.85-.52-1.5-1.244-1.5-.768 0-1.25.703-1.25 1.5m.813 0c0-.697.028-1.302.437-1.302.337 0 .43.36.43 1.302 0 .776-.044 1.296-.426 1.296-.442 0-.442-.636-.442-1.296M3.96 13.6C3.267 13.43.9 12.14.846 9.626c-.03-1.653.82-3.924 2.94-3.944 3.115 0 4.848 2.066 4.848 5.68a5.36 5.36 0 0 1-1.04 3.173l1.038.958v3.272H2.228L.67 17.216V16.7c2.077 0 3.288-3.1 3.288-3.1" class="E"/><path d="M3.96 13.6C3.267 13.43.89 12.14.846 9.626c-.03-1.653.82-3.924 2.94-3.944 3.115 0 4.848 2.066 4.848 5.68 0 1.215-.405 2.302-1.04 3.173l1.038.958v3.272H2.228L.67 17.216V16.7c2.077 0 3.288-3.1 3.288-3.1z" class="B C D"/><path d="M7.074 13.946v3.27H.67v-.69c1.955-1.102 3.154-2.684 3.408-4.622.276-2.103.434-5.27-.998-5.3-1.175-.023-1.518 1.625-1.2 2.223.83-1.14 2.314-1.017 2.058 1.396C3.653 12.93.89 12.14.846 9.626c-.03-1.653.82-3.924 2.94-3.944 2.267-.02 3.32 1.823 3.288 4.132-.03 2.166-1.223 3.852-2.942 4.82h1.73c.382 0 .695-.308.695-.69h.517z" fill="#fff"/><path d="M6.557 13.946h.517v3.27H.67v-.69c1.955-1.102 3.154-2.684 3.408-4.622.276-2.103.434-5.27-.998-5.3-1.175-.023-1.518 1.625-1.2 2.223.83-1.14 2.314-1.017 2.058 1.396C3.653 12.93.89 12.14.846 9.626c-.03-1.653.82-3.924 2.94-3.944 2.267-.02 3.32 1.823 3.288 4.132-.03 2.166-1.223 3.852-2.942 4.82h1.73c.382 0 .695-.308.695-.69z" class="B C D"/><use xlink:href="#B" class="E"/><use xlink:href="#B" class="B C D"/><path d="M15.9 16.528h.347v.69H10.88v-.69h.346c.572 0 1.037-.464 1.037-1.033l.001-.86H8.458v-.69c1.08-1.295 1.607-2.117 2.335-3.635.82-1.708 1.154-2.762 1.472-4.628.475.128.757.167 1.25.172.53.005.836-.034 1.346-.172v8.264h1.385v.69H14.86v.86a1.04 1.04 0 0 0 1.038 1.033" fill="#fff"/><path d="M15.9 16.528h.347v.69H10.88v-.69h.346c.572 0 1.037-.464 1.037-1.033l.001-.86H8.458v-.69c1.08-1.295 1.607-2.117 2.335-3.635.82-1.708 1.154-2.762 1.472-4.628.475.128.757.167 1.25.172.53.005.836-.034 1.346-.172v8.264h1.385v.69H14.86v.86a1.04 1.04 0 0 0 1.038 1.033z" class="B C D"/><use xlink:href="#C" class="E"/><use xlink:href="#C" class="B C D"/><path d="M24.367 18.782c-1.856 0-3.768-2.528-3.955-2.803-.752-1.1-1.224-2.678-1.224-4.43 0-3.33 1.7-6.027 3.795-6.027 3.863 0 5.18 4.354 5.18 7.405 0 3.328-1.7 5.855-3.795 5.855z" class="E"/><path d="M28.162 12.927c0 3.328-1.7 5.855-3.795 5.855-1.856 0-3.768-2.528-3.955-2.803-.752-1.1-1.224-2.678-1.224-4.43 0-3.33 1.7-6.027 3.795-6.027 3.863 0 5.18 4.354 5.18 7.405z" class="B C D"/><path d="M22.983 5.523c2.096 0 3.795 2.698 3.795 6.027s-1.7 6.027-3.795 6.027-3.795-2.698-3.795-6.027 1.7-6.027 3.795-6.027z" fill="#fff"/><path d="M19.188 11.55c0-3.33 1.7-6.027 3.795-6.027s3.795 2.698 3.795 6.027-1.7 6.027-3.795 6.027-3.795-2.698-3.795-6.027z" class="B C D"/><path d="M23.87 7.12v8.82c0 .48-.386.867-.86.867s-.86-.39-.86-.867V7.12c0-.48.385-.867.86-.867s.86.388.86.867z" class="E"/><path d="M23 6.253c.475 0 .86.388.86.867v8.82c0 .48-.386.867-.86.867s-.86-.39-.86-.867V7.12c0-.48.385-.867.86-.867z" class="B C D"/><use xlink:href="#D" class="E"/><use xlink:href="#D" class="B C D"/><path d="M35.976 13.257l-.004 2.238a1.04 1.04 0 0 0 1.039 1.033v.69h-1.904a1.73 1.73 0 0 1-1.73-1.721v-2.582a1.04 1.04 0 0 0-1.038-1.033h-.693v3.615a1.04 1.04 0 0 0 1.038 1.033v.69h-4.672v-.69c.57 0 1.038-.464 1.038-1.033V7.403a1.04 1.04 0 0 0-1.038-1.033v-.69h5.884c1.212 0 2.25 1.453 2.25 2.927 0 1.286-.61 2.458-1.732 2.927.694.173 1.562 1.034 1.562 1.722" fill="#fff"/><path d="M35.976 13.257l-.004 2.238a1.04 1.04 0 0 0 1.039 1.033v.69h-1.904a1.73 1.73 0 0 1-1.73-1.721v-2.582a1.04 1.04 0 0 0-1.038-1.033h-.693v3.615a1.04 1.04 0 0 0 1.038 1.033v.69h-4.672v-.69c.57 0 1.038-.464 1.038-1.033V7.403a1.04 1.04 0 0 0-1.038-1.033v-.69h5.884c1.212 0 2.25 1.453 2.25 2.927 0 1.286-.61 2.458-1.732 2.927.694.173 1.562 1.034 1.562 1.722z" class="B C D"/><path d="M32.34 6.37h-.693v4.82h.693c.57 0 1.038-.463 1.038-1.03V7.404a1.04 1.04 0 0 0-1.038-1.033" class="E"/><path d="M32.34 6.37h-.693v4.82h.693c.57 0 1.038-.463 1.038-1.03V7.404a1.04 1.04 0 0 0-1.038-1.033z" class="B C D"/><use xlink:href="#E" class="E"/><use xlink:href="#E" class="B C D"/><path d="M43.587 10.502v-.69h.692v3.443h-.692v-.69a.69.69 0 0 0-.693-.689h-.865v4.648h.346c1.433 0 2.598-1.156 2.598-2.582h.7v3.27h-7.268v-.69a1.04 1.04 0 0 0 1.038-1.033V7.403a1.04 1.04 0 0 0-1.038-1.033v-.69h7.268v3.443h-.7v-.17c0-1.426-1.165-2.583-2.598-2.583h-.346v4.82h.865a.69.69 0 0 0 .693-.688" fill="#fff"/><path d="M43.587 10.502v-.69h.692v3.443h-.692v-.69a.69.69 0 0 0-.693-.689h-.865v4.648h.346c1.433 0 2.598-1.156 2.598-2.582h.7v3.27h-7.268v-.69a1.04 1.04 0 0 0 1.038-1.033V7.403a1.04 1.04 0 0 0-1.038-1.033v-.69h7.268v3.443h-.7v-.17c0-1.426-1.165-2.583-2.598-2.583h-.346v4.82h.865a.69.69 0 0 0 .693-.688z" class="B C D"/></g><defs><path id="B" d="M14.863 5.682l1.555 1.55v6.887l1.385 1.377v.69h-1.557v.342l1.56 1.55-.002.69H12.44l-1.558-1.55V16.7h1.385v-.516h-2.25l-1.557-1.55z"/><path id="C" d="M9.154 13.946c1.08-1.295 1.604-2.117 2.332-3.635a18.21 18.21 0 0 0 .779-1.874v5.51h-3.11z"/><path id="D" d="M37.528 17.042l1.04 1.036v.69h-2.94l-1.384-1.377-.002 1.377H29.57l-1.557-1.55V16.7h1.557V7.92l-1.557-1.55v-.69h5.884c2.076 0 3.807 1.377 3.807 3.788 0 1.286-.61 2.457-1.732 2.927.694.172 1.562 1.033 1.562 1.72l-.006 2.923z"/><path id="E" d="M38.4 17.216v-.512l1.554-.004V7.92l-1.557-1.55v-.69h7.27l1.555 1.55v3.443h-.7l-1.56-1.55s0-1.203-1.385-1.203v1.893h.692l1.557 1.55v2.755l1.385 1.377v3.27h-7.268l-1.553-1.55zm7.092-1.893l-1.904-1.894v2.755l1.904-.86z"/></defs></svg>