<svg xmlns="http://www.w3.org/2000/svg" xmlns:xlink="http://www.w3.org/1999/xlink" width="48px" height="20px" viewBox="0 0 48 20" version="1.1"><title>sole-24</title><desc>Created with Sketch.</desc><defs/><g id="Symbols" stroke="none" stroke-width="1" fill="none" fill-rule="evenodd"><g id="footer" transform="translate(-1199.000000, -329.000000)"><g id="logos" transform="translate(1062.000000, 323.000000)"><g id="sole-24" transform="translate(137.579696, 6.763636)"><path d="M2.24077571,4.07617624 C1.90305931,4.05142867 1.65767736,4.03297285 1.65767736,3.64204516 L1.65767736,0.684081522 C1.65767736,0.268825708 1.95281029,0.262533953 2.24077571,0.250369894 L2.24077571,0.0972705285 L0.0909431052,0.0972705285 L0.0909431052,0.250369894 C0.373849102,0.268825708 0.661814521,0.280570317 0.661814521,0.684081522 L0.661814521,3.64204516 C0.661814521,4.02080879 0.422756845,4.04513691 0.0909431052,4.07617624 L0.0909431052,4.2284367 L2.24077571,4.2284367 L2.24077571,4.07617624 Z" id="Fill-1" fill="#BAB7CC"/><path d="M12.8132806,4.08246799 C12.5974119,4.08246799 12.5426015,3.89287645 12.5426015,3.71544896 L12.5426015,0.0976899789 L11.4915067,0.0976899789 L11.4915067,0.24449759 C11.7626074,0.24449759 11.7735694,0.531821057 11.7735694,0.598933108 L11.7735694,3.71544896 C11.7735694,3.86225658 11.7128564,4.08246799 11.4915067,4.08246799 L11.4915067,4.22885615 L12.8132806,4.22885615 L12.8132806,4.08246799 Z" id="Fill-3" fill="#BAB7CC"/><path d="M8.3837569,1.32625996 L8.3837569,-4.19450316e-05 L8.19908801,-4.19450316e-05 C8.16830986,0.115726342 8.13753171,0.207585962 7.99628952,0.207585962 C7.81836652,0.207585962 7.52955787,0.00583035941 7.03795073,0.00583035941 C5.87091079,0.00583035941 5.68033924,0.837180888 5.68033924,1.20965277 C5.68033924,1.49068448 5.68033924,2.01625573 6.73101248,2.51749886 L7.14293373,2.71296271 C7.5417848,2.90255425 7.83059346,3.04936186 7.83059346,3.45874537 C7.83059346,3.53802148 7.79981531,4.14286884 7.0624046,4.14286884 C6.28241042,4.14286884 5.92614281,3.45245362 5.80345183,2.8354422 L5.62510722,2.8354422 L5.62510722,4.34462444 L5.80345183,4.34462444 C5.8279057,4.24689252 5.85868385,4.13657708 5.9876991,4.13657708 C6.17784904,4.13657708 6.45443076,4.34462444 7.03795073,4.34462444 C8.16830986,4.34462444 8.56125828,3.60555298 8.56125828,3.06739822 C8.56125828,2.40131112 8.09452663,2.04645615 7.88540386,1.94327137 L6.98229709,1.49697624 C6.46665769,1.24027264 6.34944776,1.10562909 6.34944776,0.775941142 C6.34944776,0.379141142 6.68758577,0.195421903 7.0075942,0.195421903 C7.73193474,0.195421903 8.1008509,0.898420634 8.21089333,1.32625996 L8.3837569,1.32625996 Z" id="Fill-5" fill="#BAB7CC"/><path d="M3.85304476,4.08246799 C3.61356547,4.08246799 3.55200917,3.89287645 3.55200917,3.71544896 L3.55200917,0.0976899789 L2.38496923,0.0976899789 L2.38496923,0.24449759 C2.6855832,0.24449759 2.69781014,0.531821057 2.69781014,0.598933108 L2.69781014,3.71544896 C2.69781014,3.86225658 2.62992956,4.08246799 2.38496923,4.08246799 L2.38496923,4.22885615 L3.85262314,4.22885615 L3.85262314,4.08246799 L3.85304476,4.08246799 Z" id="Fill-7" fill="#BAB7CC"/><path d="M15.0246695,3.46461767 C14.9196865,3.60555298 14.725742,3.87442063 14.4002525,3.87442063 C13.8749159,3.87442063 13.7530682,3.25111746 13.7370467,2.73141852 L15.1300741,2.73141852 C15.113631,2.40131112 15.0419559,1.33800457 14.0798225,1.33800457 C13.4440218,1.33800457 12.9406094,1.9126515 12.9406094,2.81698638 C12.9406094,3.86225658 13.5047349,4.31400457 14.0629578,4.31400457 C14.5056572,4.31400457 14.8206062,4.11896017 15.1579009,3.55060499 L15.0246695,3.46461767 Z M13.7087982,2.50575425 C13.7087982,1.66223966 13.8968401,1.52759611 14.101325,1.52759611 C14.2952695,1.52759611 14.3669447,1.68069548 14.4002525,1.81491958 C14.4441009,1.99821937 14.4441009,2.31616271 14.4495819,2.50575425 L13.7087982,2.50575425 Z" id="Fill-9" fill="#BAB7CC"/><path d="M8.82224012,2.82956989 C8.82224012,3.62400879 9.3033068,4.31442402 10.0714957,4.31442402 C10.8232414,4.31442402 11.3152702,3.64246461 11.3152702,2.82956989 C11.3152702,1.980183 10.7958362,1.33842402 10.0714957,1.33842402 C9.3033068,1.33800457 8.82224012,2.04142275 8.82224012,2.82956989 M9.63512054,2.82956989 C9.63512054,2.13286292 9.66294736,1.52759611 10.0719173,1.52759611 C10.4092121,1.52759611 10.503233,1.88874283 10.503233,2.82956989 C10.503233,3.60597243 10.458963,4.12525192 10.0773983,4.12525192 C9.63512054,4.12525192 9.63512054,3.48936524 9.63512054,2.82956989" id="Fill-11" fill="#BAB7CC"/><path d="M3.3791456,12.837235 C2.68684806,12.6648409 0.309341476,11.3771285 0.265914773,8.86210436 C0.236823098,7.20947011 1.08638433,4.93814664 3.2058604,4.91801302 C6.3207777,4.91801302 8.05362963,6.98380584 8.05362963,10.5986287 C8.05362963,11.8133568 7.64845428,12.9009915 7.01307524,13.7717703 L8.05152154,14.7302143 L8.05152154,18.0019268 L1.64840175,18.0019268 L0.0909431052,16.4520578 L0.0909431052,15.936134 C2.16783572,15.936134 3.3791456,12.837235 3.3791456,12.837235" id="Fill-13" fill="#BAB7CC"/><path d="M3.3791456,12.837235 C2.68684806,12.6648409 0.309341476,11.3771285 0.265914773,8.86210436 C0.236823098,7.20947011 1.08638433,4.93814664 3.2058604,4.91801302 C6.3207777,4.91801302 8.05362963,6.98380584 8.05362963,10.5986287 C8.05362963,11.8133568 7.64845428,12.9009915 7.01307524,13.7717703 L8.05152154,14.7302143 L8.05152154,18.0019268 L1.64840175,18.0019268 L0.0909431052,16.4520578 L0.0909431052,15.936134 C2.16783572,15.936134 3.3791456,12.837235 3.3791456,12.837235 Z" id="Stroke-15" stroke="#BAB7CC" stroke-width="0.5" stroke-linecap="round" stroke-linejoin="round"/><path d="M6.49406289,13.1816037 L6.49406289,16.4524773 L0.0909431052,16.4524773 L0.0909431052,15.7637399 C2.04640959,14.6614244 3.2446493,13.0796773 3.49846362,11.1413974 C3.77420211,9.03827349 3.93230904,5.87016524 2.50007107,5.84122317 C1.325442,5.8181534 0.981822944,7.46575425 1.30056651,8.0638904 C2.13157653,6.92466334 3.61440871,7.04672338 3.35890791,9.46024051 C3.07262896,12.1673729 0.309341476,11.376709 0.265914773,8.86210436 C0.236823098,7.20947011 1.08638433,4.93814664 3.2058604,4.91801302 C5.47332456,4.89662106 6.52441942,6.74052465 6.49364127,9.04959865 C6.46497122,11.2152206 5.27052608,12.9014109 3.55200917,13.8703411 L5.28233139,13.8703411 C5.66473935,13.8703411 5.97715864,13.5620452 5.97715864,13.1816037 L6.49406289,13.1816037 Z" id="Fill-17" fill="#FFFFFF"/><path d="M5.97715864,13.1816037 L6.49406289,13.1816037 L6.49406289,16.4524773 L0.0909431052,16.4524773 L0.0909431052,15.7637399 C2.04640959,14.6614244 3.2446493,13.0796773 3.49846362,11.1413974 C3.77420211,9.03827349 3.93230904,5.87016524 2.50007107,5.84122317 C1.325442,5.8181534 0.981822944,7.46575425 1.30056651,8.0638904 C2.13157653,6.92466334 3.61440871,7.04672338 3.35890791,9.46024051 C3.07262896,12.1673729 0.309341476,11.376709 0.265914773,8.86210436 C0.236823098,7.20947011 1.08638433,4.93814664 3.2058604,4.91801302 C5.47332456,4.89662106 6.52441942,6.74052465 6.49364127,9.04959865 C6.46497122,11.2152206 5.27052608,12.9014109 3.55200917,13.8703411 L5.28233139,13.8703411 C5.66473935,13.8703411 5.97715864,13.5620452 5.97715864,13.1816037 Z" id="Stroke-19" stroke="#BAB7CC" stroke-width="0.5" stroke-linecap="round" stroke-linejoin="round"/><polygon id="Fill-21" fill="#BAB7CC" points="14.2830426 4.91801302 15.8383932 6.46704304 15.8383932 13.3539978 17.2229882 14.7306337 17.2229882 15.4197906 15.6659512 15.4197906 15.6659512 15.7620621 17.2250963 17.3131893 17.2229882 18.0023462 11.8587364 18.0023462 10.3008561 16.4524773 10.3008561 15.936134 11.6854512 15.936134 11.6854512 15.4197906 9.435695 15.4197906 7.87823635 13.8703411"/><polygon id="Stroke-23" stroke="#BAB7CC" stroke-width="0.5" stroke-linecap="round" stroke-linejoin="round" points="14.2830426 4.91801302 15.8383932 6.46704304 15.8383932 13.3539978 17.2229882 14.7306337 17.2229882 15.4197906 15.6659512 15.4197906 15.6659512 15.7620621 17.2250963 17.3131893 17.2229882 18.0023462 11.8587364 18.0023462 10.3008561 16.4524773 10.3008561 15.936134 11.6854512 15.936134 11.6854512 15.4197906 9.435695 15.4197906 7.87823635 13.8703411"/><path d="M15.3189592,15.7637399 L15.6655296,15.7637399 L15.6655296,16.4524773 L10.3004345,16.4524773 L10.3004345,15.7637399 L10.6465833,15.7637399 C11.2182979,15.7637399 11.6837647,15.2998278 11.6837647,14.7310532 L11.6846079,13.8703411 L7.87781473,13.8703411 L7.87781473,13.1811843 C8.95673641,11.8859217 9.48460274,11.064638 10.2131595,9.54580837 C11.0327858,7.83738723 11.3675509,6.78414748 11.6850296,4.91759357 C12.159772,5.04594537 12.4422563,5.0845348 12.9342851,5.08998765 C13.4638379,5.09460161 13.7699329,5.05559273 14.2805129,4.91759357 L14.2805129,13.1811843 L15.665108,13.1811843 L15.665108,13.8703411 L14.2805129,13.8703411 L14.2805129,14.7310532 C14.2809345,15.2998278 14.7480878,15.7637399 15.3189592,15.7637399" id="Fill-25" fill="#FFFFFF"/><path d="M15.3189592,15.7637399 L15.6655296,15.7637399 L15.6655296,16.4524773 L10.3004345,16.4524773 L10.3004345,15.7637399 L10.6465833,15.7637399 C11.2182979,15.7637399 11.6837647,15.2998278 11.6837647,14.7310532 L11.6846079,13.8703411 L7.87781473,13.8703411 L7.87781473,13.1811843 C8.95673641,11.8859217 9.48460274,11.064638 10.2131595,9.54580837 C11.0327858,7.83738723 11.3675509,6.78414748 11.6850296,4.91759357 C12.159772,5.04594537 12.4422563,5.0845348 12.9342851,5.08998765 C13.4638379,5.09460161 13.7699329,5.05559273 14.2805129,4.91759357 L14.2805129,13.1811843 L15.665108,13.1811843 L15.665108,13.8703411 L14.2805129,13.8703411 L14.2805129,14.7310532 C14.2809345,15.2998278 14.7480878,15.7637399 15.3189592,15.7637399 Z" id="Stroke-27" stroke="#BAB7CC" stroke-width="0.5" stroke-linecap="round" stroke-linejoin="round"/><path d="M8.57390683,13.1816037 C9.65367175,11.8863411 10.1777435,11.0642185 10.9058786,9.54622782 C11.2427518,8.84364854 11.4792797,8.2555792 11.6850296,7.67254326 L11.6850296,13.1816037 L8.57390683,13.1816037 Z" id="Fill-29" fill="#BAB7CC"/><path d="M8.57390683,13.1816037 C9.65367175,11.8863411 10.1777435,11.0642185 10.9058786,9.54622782 C11.2427518,8.84364854 11.4792797,8.2555792 11.6850296,7.67254326 L11.6850296,13.1816037 L8.57390683,13.1816037 Z" id="Stroke-31" stroke="#BAB7CC" stroke-width="0.5" stroke-linecap="round" stroke-linejoin="round"/><path d="M23.7867447,18.0178659 C21.9307801,18.0178659 20.0187404,15.4894194 19.8319634,15.2146794 C19.079796,14.1140418 18.6075833,12.5369086 18.6075833,10.7852841 C18.6075833,7.45610689 20.3062842,4.75820245 22.4025712,4.75820245 C26.2658613,4.7586219 27.5821542,9.11209674 27.5821542,12.1631784 C27.5821542,15.4915166 25.8830317,18.0178659 23.7867447,18.0178659 Z" id="Fill-33" fill="#BAB7CC"/><path d="M27.5821542,12.1631784 C27.5821542,15.4915166 25.8830317,18.0178659 23.7867447,18.0178659 C21.9307801,18.0178659 20.0187404,15.4894194 19.8319634,15.2146794 C19.079796,14.1140418 18.6075833,12.5369086 18.6075833,10.7852841 C18.6075833,7.45610689 20.3062842,4.75820245 22.4025712,4.75820245 C26.2658613,4.7586219 27.5821542,9.11209674 27.5821542,12.1631784 Z" id="Stroke-35" stroke="#BAB7CC" stroke-width="0.5" stroke-linecap="round" stroke-linejoin="round"/><path d="M22.4025712,4.7586219 C24.4988583,4.7586219 26.1975591,7.45652634 26.1975591,10.7857035 C26.1975591,14.1144612 24.4988583,16.8123657 22.4025712,16.8123657 C20.3062842,16.8123657 18.6075833,14.1140418 18.6075833,10.7857035 C18.6075833,7.45652634 20.3062842,4.7586219 22.4025712,4.7586219 Z" id="Fill-37" fill="#FFFFFF"/><path d="M18.6075833,10.7857035 C18.6075833,7.45652634 20.3062842,4.7586219 22.4025712,4.7586219 C24.4988583,4.7586219 26.1975591,7.45652634 26.1975591,10.7857035 C26.1975591,14.1144612 24.4988583,16.8123657 22.4025712,16.8123657 C20.3062842,16.8123657 18.6075833,14.1140418 18.6075833,10.7857035 Z" id="Stroke-39" stroke="#BAB7CC" stroke-width="0.5" stroke-linecap="round" stroke-linejoin="round"/><path d="M23.2904997,6.35630816 L23.2904997,15.1769289 C23.2904997,15.6559411 22.9047188,16.0443521 22.4295548,16.0443521 C21.9535475,16.0443521 21.5681882,15.6555217 21.5681882,15.1769289 L21.5681882,6.35630816 C21.5681882,5.87771535 21.9535475,5.48930436 22.4295548,5.48930436 C22.9047188,5.48930436 23.2904997,5.87771535 23.2904997,6.35630816 Z" id="Fill-41" fill="#BAB7CC"/><path d="M22.4295548,5.48930436 L22.4295548,5.48930436 C22.9047188,5.48930436 23.2904997,5.87771535 23.2904997,6.35630816 L23.2904997,15.1769289 C23.2904997,15.6559411 22.9047188,16.0443521 22.4295548,16.0443521 C21.9535475,16.0443521 21.5681882,15.6555217 21.5681882,15.1769289 L21.5681882,6.35630816 C21.5681882,5.87771535 21.9535475,5.48930436 22.4295548,5.48930436 Z" id="Stroke-43" stroke="#BAB7CC" stroke-width="0.5" stroke-linecap="round" stroke-linejoin="round"/><path d="M36.947987,16.277986 L37.988963,17.3136088 L37.988963,18.0027657 L35.0481741,18.0027657 L33.6640007,16.6252908 L33.6618926,18.0027657 L28.9895167,18.0027657 L27.4329012,16.4528967 L27.4329012,15.9369729 L28.9899383,15.9369729 L28.9899383,7.15703882 L27.4329012,5.60758934 L27.4329012,4.91885192 L33.3165871,4.91885192 C35.3930581,4.91885192 37.1233803,6.29632677 37.1233803,8.70648829 C37.1233803,9.99210351 36.5120335,11.1636282 35.3917932,11.6334126 C36.0853556,11.8053872 36.9538897,12.6660993 36.9538897,13.3548367 L36.947987,16.277986 Z" id="Fill-45" fill="#BAB7CC"/><path d="M36.947987,16.277986 L37.988963,17.3136088 L37.988963,18.0027657 L35.0481741,18.0027657 L33.6640007,16.6252908 L33.6618926,18.0027657 L28.9895167,18.0027657 L27.4329012,16.4528967 L27.4329012,15.9369729 L28.9899383,15.9369729 L28.9899383,7.15703882 L27.4329012,5.60758934 L27.4329012,4.91885192 L33.3165871,4.91885192 C35.3930581,4.91885192 37.1233803,6.29632677 37.1233803,8.70648829 C37.1233803,9.99210351 36.5120335,11.1636282 35.3917932,11.6334126 C36.0853556,11.8053872 36.9538897,12.6660993 36.9538897,13.3548367 L36.947987,16.277986 Z" id="Stroke-47" stroke="#BAB7CC" stroke-width="0.5" stroke-linecap="round" stroke-linejoin="round"/><path d="M35.3960094,12.4928663 L35.3922148,14.7310532 C35.3922148,15.2994084 35.8589465,15.7637399 36.4310827,15.7637399 L36.4310827,16.4524773 L34.5270537,16.4524773 C33.574196,16.4524773 32.7967315,15.6790109 32.7967315,14.7310532 L32.7963099,12.148917 C32.7963099,11.5809813 32.3299998,11.1158109 31.7587068,11.1158109 L31.0659876,11.1158109 L31.065566,14.7310532 C31.065566,15.2994084 31.5327193,15.7637399 32.1040123,15.7637399 L32.1040123,16.4524773 L27.4316364,16.4524773 L27.4316364,15.7637399 C28.0029294,15.7637399 28.4692395,15.2998278 28.4692395,14.7310532 L28.4692395,6.63943712 C28.4692395,6.07108195 28.003351,5.60633099 27.4316364,5.60633099 L27.4316364,4.91759357 L33.3153222,4.91759357 C34.5274753,4.91759357 35.5655,6.37056947 35.5655,7.84451789 C35.5655,9.13055256 34.9541532,10.3020773 33.8339129,10.7710227 C34.527897,10.9438363 35.3960094,11.8045483 35.3960094,12.4928663" id="Fill-49" fill="#FFFFFF"/><path d="M35.3960094,12.4928663 L35.3922148,14.7310532 C35.3922148,15.2994084 35.8589465,15.7637399 36.4310827,15.7637399 L36.4310827,16.4524773 L34.5270537,16.4524773 C33.574196,16.4524773 32.7967315,15.6790109 32.7967315,14.7310532 L32.7963099,12.148917 C32.7963099,11.5809813 32.3299998,11.1158109 31.7587068,11.1158109 L31.0659876,11.1158109 L31.065566,14.7310532 C31.065566,15.2994084 31.5327193,15.7637399 32.1040123,15.7637399 L32.1040123,16.4524773 L27.4316364,16.4524773 L27.4316364,15.7637399 C28.0029294,15.7637399 28.4692395,15.2998278 28.4692395,14.7310532 L28.4692395,6.63943712 C28.4692395,6.07108195 28.003351,5.60633099 27.4316364,5.60633099 L27.4316364,4.91759357 L33.3153222,4.91759357 C34.5274753,4.91759357 35.5655,6.37056947 35.5655,7.84451789 C35.5655,9.13055256 34.9541532,10.3020773 33.8339129,10.7710227 C34.527897,10.9438363 35.3960094,11.8045483 35.3960094,12.4928663 Z" id="Stroke-51" stroke="#BAB7CC" stroke-width="0.5" stroke-linecap="round" stroke-linejoin="round"/><path d="M31.7591284,5.60675044 L31.0664093,5.60675044 L31.0664093,10.4253957 L31.7591284,10.4253957 C32.3299998,10.4253957 32.7971531,9.96274199 32.7971531,9.39438681 L32.7971531,6.63985658 C32.7971531,6.0715014 32.3304215,5.60675044 31.7591284,5.60675044" id="Fill-53" fill="#BAB7CC"/><path d="M31.7591284,5.60675044 L31.0664093,5.60675044 L31.0664093,10.4253957 L31.7591284,10.4253957 C32.3299998,10.4253957 32.7971531,9.96274199 32.7971531,9.39438681 L32.7971531,6.63985658 C32.7971531,6.0715014 32.3304215,5.60675044 31.7591284,5.60675044 Z" id="Stroke-55" stroke="#BAB7CC" stroke-width="0.5" stroke-linecap="round" stroke-linejoin="round"/><path d="M37.8190508,16.4524773 L37.8190508,15.9403285 L39.3727149,15.936134 L39.3727149,7.15619992 L37.8156778,5.60675044 L37.8156778,4.91801302 L45.0856452,4.91801302 L46.6409958,6.46704304 L46.6409958,9.9103107 L45.9508063,9.9103107 L44.3916612,8.35918342 C44.3916612,8.35918342 44.3916612,7.15578047 43.0070661,7.15578047 L43.0070661,9.0491792 L43.6993636,9.0491792 L45.2568223,10.5982092 L45.2564007,13.3531589 C45.2564007,13.3531589 46.6532227,14.7302143 46.6409958,14.7302143 L46.6405741,18.0015073 L39.3722932,18.0015073 L37.8190508,16.4524773 Z M44.9106735,14.5590786 L43.0070661,12.6648409 L43.0070661,15.4193712 L44.9106735,14.5590786 Z" id="Fill-57" fill="#BAB7CC"/><path d="M37.8190508,16.4524773 L37.8190508,15.9403285 L39.3727149,15.936134 L39.3727149,7.15619992 L37.8156778,5.60675044 L37.8156778,4.91801302 L45.0856452,4.91801302 L46.6409958,6.46704304 L46.6409958,9.9103107 L45.9508063,9.9103107 L44.3916612,8.35918342 C44.3916612,8.35918342 44.3916612,7.15578047 43.0070661,7.15578047 L43.0070661,9.0491792 L43.6993636,9.0491792 L45.2568223,10.5982092 L45.2564007,13.3531589 C45.2564007,13.3531589 46.6532227,14.7302143 46.6409958,14.7302143 L46.6405741,18.0015073 L39.3722932,18.0015073 L37.8190508,16.4524773 Z M44.9106735,14.5590786 L43.0070661,12.6648409 L43.0070661,15.4193712 L44.9106735,14.5590786 Z" id="Stroke-59" stroke="#BAB7CC" stroke-width="0.5" stroke-linecap="round" stroke-linejoin="round"/><path d="M43.0070661,9.73833607 L43.0070661,9.04959865 L43.6993636,9.04959865 L43.6993636,12.4928663 L43.0070661,12.4928663 L43.0070661,11.8041289 C43.0070661,11.4241069 42.6975982,11.1153915 42.314347,11.1153915 L41.4491858,11.1153915 L41.4491858,15.7633204 L41.7953346,15.7633204 C43.2284158,15.7633204 44.392926,14.6073153 44.392926,13.1811843 L45.0831155,13.1811843 L45.0826939,16.4520578 L37.8148346,16.4520578 L37.8148346,15.7633204 C38.385706,15.7633204 38.8524377,15.2994084 38.8524377,14.7306337 L38.8524377,6.63901767 C38.8524377,6.07066249 38.3861276,5.60591154 37.8148346,5.60591154 L37.8148346,4.91717412 L45.0831155,4.91717412 L45.0831155,8.36044178 L44.392926,8.36044178 L44.392926,8.19014495 C44.392926,6.76401387 43.2284158,5.60758934 41.7953346,5.60758934 L41.4491858,5.60758934 L41.4491858,10.4262346 L42.314347,10.4262346 C42.6975982,10.4270735 43.0070661,10.119197 43.0070661,9.73833607" id="Fill-61" fill="#FFFFFF"/><path d="M43.0070661,9.73833607 L43.0070661,9.04959865 L43.6993636,9.04959865 L43.6993636,12.4928663 L43.0070661,12.4928663 L43.0070661,11.8041289 C43.0070661,11.4241069 42.6975982,11.1153915 42.314347,11.1153915 L41.4491858,11.1153915 L41.4491858,15.7633204 L41.7953346,15.7633204 C43.2284158,15.7633204 44.392926,14.6073153 44.392926,13.1811843 L45.0831155,13.1811843 L45.0826939,16.4520578 L37.8148346,16.4520578 L37.8148346,15.7633204 C38.385706,15.7633204 38.8524377,15.2994084 38.8524377,14.7306337 L38.8524377,6.63901767 C38.8524377,6.07066249 38.3861276,5.60591154 37.8148346,5.60591154 L37.8148346,4.91717412 L45.0831155,4.91717412 L45.0831155,8.36044178 L44.392926,8.36044178 L44.392926,8.19014495 C44.392926,6.76401387 43.2284158,5.60758934 41.7953346,5.60758934 L41.4491858,5.60758934 L41.4491858,10.4262346 L42.314347,10.4262346 C42.6975982,10.4270735 43.0070661,10.119197 43.0070661,9.73833607 Z" id="Stroke-63" stroke="#BAB7CC" stroke-width="0.5" stroke-linecap="round" stroke-linejoin="round"/></g></g></g></g></svg>