<svg xmlns="http://www.w3.org/2000/svg" xmlns:xlink="http://www.w3.org/1999/xlink" viewBox="0 0 400 400"><defs><style>.cls-1,.cls-10,.cls-13,.cls-15,.cls-2{fill:none;}.cls-1,.cls-3,.cls-4{clip-rule:evenodd;}.cls-12,.cls-26,.cls-3{fill:#fca664;}.cls-28,.cls-30,.cls-4{fill:#ffddba;}.cls-5{fill:#5cc5ff;}.cls-6{fill:#b9e6ff;}.cls-7{fill:#016aa3;}.cls-8{fill:#e9e3d7;}.cls-9{fill:#ffc296;}.cls-10{stroke:#2eb5ff;}.cls-10,.cls-13,.cls-15{stroke-linecap:round;stroke-linejoin:round;stroke-width:2px;}.cls-11{fill:#00a5ff;}.cls-13{stroke:#5cc5ff;}.cls-14,.cls-24{fill:#fff;}.cls-15{stroke:#00a5ff;}.cls-16{fill:#736d91;}.cls-17{fill:#453f6b;}.cls-18{fill:#201849;}.cls-19{fill:#bab7cc;}.cls-20{fill:#f2eee6;}.cls-21{fill:#0087d1;}.cls-22{clip-path:url(#clip-path);}.cls-23{clip-path:url(#clip-path-2);}.cls-24,.cls-26,.cls-28{fill-rule:evenodd;}.cls-25{clip-path:url(#clip-path-3);}.cls-27{clip-path:url(#clip-path-4);}.cls-29{clip-path:url(#clip-path-5);}</style><clipPath id="clip-path"><path class="cls-1" d="M283.25,618.69a4.71,4.71,0,0,1,6.47,1.49l60.47,96.63a4.67,4.67,0,0,1-1.5,6.45l-58.55,36.38a4.71,4.71,0,0,1-6.47-1.49L223.2,661.52a4.67,4.67,0,0,1,1.5-6.45Z"/></clipPath><clipPath id="clip-path-2"><polygon class="cls-2" points="-1348.95 285.2 -1475 873.54 741.92 1345.18 867.97 756.84 -1348.95 285.2"/></clipPath><clipPath id="clip-path-3"><path class="cls-1" d="M272,639.1a2.69,2.69,0,0,1,3.7.85l6,9.63a2.67,2.67,0,0,1-.86,3.68L273.17,658a2.69,2.69,0,0,1-3.7-.85l-6-9.63a2.67,2.67,0,0,1,.86-3.68Z"/></clipPath><clipPath id="clip-path-4"><path class="cls-3" d="M288.34,741.38A8.48,8.48,0,1,1,291,729.74a8.49,8.49,0,0,1-2.67,11.64"/></clipPath><clipPath id="clip-path-5"><path class="cls-4" d="M297,739.39a8.5,8.5,0,0,0-4.88-3.67,8.66,8.66,0,0,0-1.21-.25l.91,1.45a8.62,8.62,0,0,1-.42,1l-1.6-2.55a8.48,8.48,0,0,0-1,.06l2.11,3.38a8.35,8.35,0,0,1-.57.78l-2.49-4a8.36,8.36,0,0,0-.89.26l2.76,4.4a8.46,8.46,0,0,1-3.93,2.15l-2.49-4a8.43,8.43,0,0,0-.57.78l2.11,3.38a8.46,8.46,0,0,1-1,.06l-1.59-2.55a8.49,8.49,0,0,0-.42,1l.91,1.45a8.52,8.52,0,0,1-1.21-.25,8.46,8.46,0,1,0,15.5-2.93"/></clipPath></defs><title>viaggio_da_sogno</title><g id="viaggio_da_sogno"><path class="cls-5" d="M289.34,180.63l.2,5.15a7.46,7.46,0,0,0,7.36,7.56h36.8a7.46,7.46,0,0,0,7.36-7.56V170.67a7.46,7.46,0,0,0-7.36-7.56H296.9c-4.07,0-5.92,3.38-5.92,7.56V174l-7,2.8Z"/><path class="cls-6" d="M290.3,180.22V184a7.34,7.34,0,0,0,7.24,7.44h36.21A7.34,7.34,0,0,0,341,184V169.12a7.34,7.34,0,0,0-7.24-7.44H297.54a7.34,7.34,0,0,0-7.24,7.44v3.28L284,176.8Z"/><path class="cls-7" d="M299.14,180.11a4.32,4.32,0,0,1,.51-1,4.8,4.8,0,0,1,.74-.85,9.84,9.84,0,0,1,1-.8l1.15-.79.83-.59a3.17,3.17,0,0,0,.47-.44,1.88,1.88,0,0,0,.34-.58,2.22,2.22,0,0,0,.12-.77,2,2,0,0,0-.11-.66,1.82,1.82,0,0,0-.35-.59,1.7,1.7,0,0,0-.61-.43,2.19,2.19,0,0,0-.87-.16,2.63,2.63,0,0,0-.78.11,1.72,1.72,0,0,0-1,.84,2.37,2.37,0,0,0-.24.7.58.58,0,0,1-.07.21.59.59,0,0,1-.12.15.46.46,0,0,1-.17.09.73.73,0,0,1-.22,0h-.21a.66.66,0,0,1-.21,0,.37.37,0,0,1-.15-.09.3.3,0,0,1-.08-.15.56.56,0,0,1,0-.21,3.72,3.72,0,0,1,.41-1.31,2.7,2.7,0,0,1,.75-.88,3,3,0,0,1,1-.48,4.15,4.15,0,0,1,1.14-.15,4,4,0,0,1,1.31.21,3,3,0,0,1,1,.59,2.67,2.67,0,0,1,.68.95,3.09,3.09,0,0,1,.24,1.24,3.19,3.19,0,0,1-.19,1.15,2.75,2.75,0,0,1-.5.84,4.23,4.23,0,0,1-.57.55q-.26.2-1,.7l-1.15.79a7.68,7.68,0,0,0-.93.73,3.75,3.75,0,0,0-.57.66,2.21,2.21,0,0,0-.27.57,3.17,3.17,0,0,0-.11.55h5a.77.77,0,0,1,.22,0,.39.39,0,0,1,.16.09.4.4,0,0,1,.09.16.79.79,0,0,1,0,.23v.15a.79.79,0,0,1,0,.23.39.39,0,0,1-.09.16.36.36,0,0,1-.16.09.68.68,0,0,1-.22,0h-5.94a.68.68,0,0,1-.22,0,.42.42,0,0,1-.17-.09.35.35,0,0,1-.1-.16.54.54,0,0,1,0-.23A5.42,5.42,0,0,1,299.14,180.11Z"/><path class="cls-7" d="M307.38,178.83a.42.42,0,0,1,.11-.16.44.44,0,0,1,.17-.09.73.73,0,0,1,.22,0h.18a.73.73,0,0,1,.22,0,.44.44,0,0,1,.17.09.62.62,0,0,1,.12.16.6.6,0,0,1,.07.22,2.28,2.28,0,0,0,.26.76,1.79,1.79,0,0,0,.48.54,2.11,2.11,0,0,0,.67.33,2.79,2.79,0,0,0,.79.11,3,3,0,0,0,.9-.13,2,2,0,0,0,.71-.39,1.8,1.8,0,0,0,.46-.62,2,2,0,0,0,.17-.83,1.89,1.89,0,0,0-.17-.82,1.82,1.82,0,0,0-.49-.62,2.25,2.25,0,0,0-.72-.4,2.63,2.63,0,0,0-.86-.14h-.32a.65.65,0,0,1-.21,0,.36.36,0,0,1-.14-.09.39.39,0,0,1-.08-.15.71.71,0,0,1,0-.22v-.22a.7.7,0,0,1,0-.22.38.38,0,0,1,.08-.15.35.35,0,0,1,.14-.09.65.65,0,0,1,.21,0h.32a2.22,2.22,0,0,0,.73-.12,1.75,1.75,0,0,0,.6-.34,1.61,1.61,0,0,0,.4-.53,1.59,1.59,0,0,0,.14-.67,1.5,1.5,0,0,0-.14-.66,1.37,1.37,0,0,0-.4-.49,1.89,1.89,0,0,0-.6-.3,2.46,2.46,0,0,0-.73-.11,2.58,2.58,0,0,0-.64.08,1.88,1.88,0,0,0-.55.24,1.45,1.45,0,0,0-.64,1,.48.48,0,0,1-.07.2.59.59,0,0,1-.12.14.46.46,0,0,1-.17.08.84.84,0,0,1-.22,0h-.2a.7.7,0,0,1-.21,0,.37.37,0,0,1-.15-.09.31.31,0,0,1-.08-.14.54.54,0,0,1,0-.21,2.92,2.92,0,0,1,.33-1,2.54,2.54,0,0,1,.65-.78,2.85,2.85,0,0,1,.93-.49,3.79,3.79,0,0,1,1.15-.17,4.1,4.1,0,0,1,1.29.2,2.91,2.91,0,0,1,1,.56,2.45,2.45,0,0,1,.64.87,2.67,2.67,0,0,1,.22,1.08,2.19,2.19,0,0,1-.12.71,2.78,2.78,0,0,1-.33.67,2.45,2.45,0,0,1-.49.54,2,2,0,0,1-.57.33v.06a2.44,2.44,0,0,1,.76.36,2.69,2.69,0,0,1,.62.61,2.78,2.78,0,0,1,.41.79,3.05,3.05,0,0,1-.13,2.18,2.76,2.76,0,0,1-.76,1,3.53,3.53,0,0,1-1.14.61,4.48,4.48,0,0,1-1.39.21,4.76,4.76,0,0,1-1.35-.18,3,3,0,0,1-1.06-.55,2.75,2.75,0,0,1-.73-.92,3.44,3.44,0,0,1-.34-1.28A.46.46,0,0,1,307.38,178.83Z"/><path class="cls-7" d="M317.83,181.57a3.14,3.14,0,0,1-1.14-1.13,5.48,5.48,0,0,1-.64-1.7,11.22,11.22,0,0,1,0-4.26,5.47,5.47,0,0,1,.64-1.7,3.14,3.14,0,0,1,1.14-1.13,3.61,3.61,0,0,1,3.3,0,3.14,3.14,0,0,1,1.14,1.13,5.47,5.47,0,0,1,.64,1.7,11.22,11.22,0,0,1,0,4.26,5.48,5.48,0,0,1-.64,1.7,3.14,3.14,0,0,1-1.14,1.13,3.61,3.61,0,0,1-3.3,0Zm2.63-1.11a2,2,0,0,0,.7-.8,4.46,4.46,0,0,0,.42-1.3,11.4,11.4,0,0,0,0-3.51,4.43,4.43,0,0,0-.42-1.3,2.06,2.06,0,0,0-.7-.8,1.79,1.79,0,0,0-1-.27,1.82,1.82,0,0,0-1,.27,2,2,0,0,0-.7.8,4.24,4.24,0,0,0-.41,1.29,10.65,10.65,0,0,0-.13,1.76,10.2,10.2,0,0,0,.14,1.75,4.46,4.46,0,0,0,.42,1.3,2,2,0,0,0,.7.8,1.93,1.93,0,0,0,2,0Z"/><path class="cls-7" d="M325.6,177.92l-.14,0a.28.28,0,0,1-.1-.06.27.27,0,0,1-.06-.1.4.4,0,0,1,0-.14v-.22a.41.41,0,0,1,0-.14.27.27,0,0,1,.06-.1.26.26,0,0,1,.1-.06l.14,0h.85c0-.05,0-.1,0-.15a1.3,1.3,0,0,1,0-.15V176q0-.09,0-.19a1.76,1.76,0,0,1,0-.19h-.86l-.14,0-.1-.06a.28.28,0,0,1-.06-.1.41.41,0,0,1,0-.14v-.22a.41.41,0,0,1,0-.14.27.27,0,0,1,.06-.1.26.26,0,0,1,.1-.06l.14,0h1a6.06,6.06,0,0,1,.45-1.42,4,4,0,0,1,.76-1.11,3.17,3.17,0,0,1,1.1-.72,3.86,3.86,0,0,1,1.43-.26,4.66,4.66,0,0,1,1.17.14,2.85,2.85,0,0,1,.92.41,2.5,2.5,0,0,1,.66.67,3,3,0,0,1,.4.91.59.59,0,0,1,0,.22.31.31,0,0,1-.08.16.41.41,0,0,1-.17.1.77.77,0,0,1-.24,0h-.23a.63.63,0,0,1-.23,0,.57.57,0,0,1-.17-.09.61.61,0,0,1-.13-.14l-.13-.22a2.33,2.33,0,0,0-.3-.44,1.33,1.33,0,0,0-.37-.3,2,2,0,0,0-.48-.18,2.72,2.72,0,0,0-.6-.06,2.38,2.38,0,0,0-.88.16,2,2,0,0,0-.7.46,2.65,2.65,0,0,0-.51.73,4.49,4.49,0,0,0-.33,1h2.41l.13,0,.09.06a.27.27,0,0,1,.06.1.41.41,0,0,1,0,.14v.22a.41.41,0,0,1,0,.14.28.28,0,0,1-.06.1l-.09.06-.13,0h-2.53c0,.06,0,.13,0,.19s0,.13,0,.19v.75a1.3,1.3,0,0,0,0,.15,1.29,1.29,0,0,1,0,.15h2.53l.13,0,.09.06a.27.27,0,0,1,.06.1.41.41,0,0,1,0,.14v.22a.4.4,0,0,1,0,.14.27.27,0,0,1-.06.1l-.09.06-.13,0h-2.44a5.92,5.92,0,0,0,.31,1.21,3.08,3.08,0,0,0,.51.89,2.15,2.15,0,0,0,.71.56,2,2,0,0,0,.9.19,2.4,2.4,0,0,0,.6-.07,1.76,1.76,0,0,0,.48-.2,1.35,1.35,0,0,0,.37-.34,2.64,2.64,0,0,0,.3-.51l.13-.25a.63.63,0,0,1,.13-.16.56.56,0,0,1,.17-.11.57.57,0,0,1,.23,0H333a.7.7,0,0,1,.24,0,.41.41,0,0,1,.17.11.34.34,0,0,1,.08.17.69.69,0,0,1,0,.24,3.39,3.39,0,0,1-.4,1,2.6,2.6,0,0,1-.66.72,2.73,2.73,0,0,1-.92.44,4.3,4.3,0,0,1-1.17.15,3.51,3.51,0,0,1-1.47-.3,3.24,3.24,0,0,1-1.12-.83,4.37,4.37,0,0,1-.76-1.28,6.84,6.84,0,0,1-.42-1.64Z"/><path class="cls-8" d="M335.78,339a35.78,35.78,0,1,1,35.81-35.78A35.84,35.84,0,0,1,335.78,339Zm0-68.55a32.78,32.78,0,1,0,32.81,32.78A32.83,32.83,0,0,0,335.78,270.45Z"/><path class="cls-8" d="M335.78,387a1.5,1.5,0,0,1-1.5-1.5V285.15a1.5,1.5,0,0,1,3,0V385.5A1.5,1.5,0,0,1,335.78,387Z"/><path class="cls-8" d="M335.78,325.78A1.5,1.5,0,0,1,335,323l14.6-9.35a1.5,1.5,0,1,1,1.62,2.53l-14.6,9.35A1.49,1.49,0,0,1,335.78,325.78Z"/><path class="cls-8" d="M335.78,312.83a1.49,1.49,0,0,1-.81-.24l-19.09-12.33a1.5,1.5,0,1,1,1.63-2.52l19.09,12.33a1.5,1.5,0,0,1-.81,2.76Z"/><path class="cls-8" d="M335.78,298.81a1.5,1.5,0,0,1-.64-2.86L345,291.3a1.5,1.5,0,0,1,1.28,2.71l-9.87,4.65A1.5,1.5,0,0,1,335.78,298.81Z"/><path class="cls-8" d="M55,211.5h0a4.52,4.52,0,0,1-.37-9,6.56,6.56,0,0,1,7.5-4,10.31,10.31,0,0,1,20.1,0A6.59,6.59,0,1,1,84,211.5l-.4,0-27.75,0H55Zm28.64-3H84A3.59,3.59,0,1,0,81.85,202a1.5,1.5,0,0,1-2.4-1.2,7.31,7.31,0,0,0-14.61-.18,1.5,1.5,0,0,1-2.29,1.24,3.56,3.56,0,0,0-5.38,2.42,1.5,1.5,0,0,1-1.84,1.19,1.49,1.49,0,0,0-.37,0,1.52,1.52,0,0,0,0,3h.92l27.79,0Z"/><path class="cls-8" d="M299.93,40h-.08a5.71,5.71,0,0,1-.08-11.41,8.56,8.56,0,0,1,10.5-5.36,13.78,13.78,0,0,1,27.12.1,8.6,8.6,0,1,1,3,16.67l-.53,0-39.89,0Zm-.06-8.42a2.71,2.71,0,1,0,0,5.42h.06l39.93,0h.1l.38,0A5.6,5.6,0,1,0,337,27a1.5,1.5,0,0,1-2.4-1.2,10.78,10.78,0,0,0-21.55-.26,1.5,1.5,0,0,1-2.29,1.24,5.56,5.56,0,0,0-8.4,3.77,1.5,1.5,0,0,1-1.84,1.19A2.65,2.65,0,0,0,299.87,31.62Z"/><path class="cls-8" d="M302,111h0l-26.64,0-.32,0a6,6,0,1,1,0-12,6.46,6.46,0,0,1,1.61.2,9.81,9.81,0,0,1,18.82,0,6.45,6.45,0,0,1,1.25-.12,6.22,6.22,0,0,1,5.72,3.63A4.16,4.16,0,0,1,302,111Zm0-3h.12a1.24,1.24,0,0,0,1.22-1.16,1.26,1.26,0,0,0-1.31-1.16,1.45,1.45,0,0,0-.34,0,1.5,1.5,0,0,1-1.82-1.19,3.15,3.15,0,0,0-3.17-2.47,3.41,3.41,0,0,0-1.72.46,1.5,1.5,0,0,1-2.25-1.26,6.71,6.71,0,0,0-13.38.15,1.5,1.5,0,0,1-2.37,1.22,3.38,3.38,0,0,0-2-.62,3,3,0,1,0,0,6h.33l26.58,0Z"/><path class="cls-8" d="M79.19,81.24A24.77,24.77,0,1,1,104,56.47,24.81,24.81,0,0,1,79.19,81.24Zm0-46.53A21.77,21.77,0,1,0,101,56.47,21.8,21.8,0,0,0,79.19,34.71Z"/><path class="cls-8" d="M96.74,64.84a7.09,7.09,0,0,1-5.86-3.19,7,7,0,0,1-11.71,0,7,7,0,0,1-11.71,0,7.09,7.09,0,0,1-5.86,3.19,7.43,7.43,0,0,1-7.21-7.62v-.75a24.58,24.58,0,0,1,2-9.76v0a24.81,24.81,0,0,1,45.52-.08l.07.16a24.6,24.6,0,0,1,2,9.72s0,0,0,.07l0,.75A7.41,7.41,0,0,1,96.74,64.84Zm-6-9.12H91a1.5,1.5,0,0,1,1.5,1.5,4.22,4.22,0,1,0,8.41,0l0-.79a21.61,21.61,0,0,0-1.75-8.53l0,0a21.79,21.79,0,0,0-41.81,8.6v.75a4.22,4.22,0,1,0,8.41,0,1.5,1.5,0,0,1,1.5-1.5h.3a1.5,1.5,0,0,1,1.5,1.5,4.22,4.22,0,1,0,8.41,0,1.5,1.5,0,0,1,1.5-1.5h.31a1.5,1.5,0,0,1,1.5,1.5,4.22,4.22,0,1,0,8.4,0A1.5,1.5,0,0,1,90.73,55.73Zm11.75.75h0Z"/><path class="cls-8" d="M84.13,106.2H74.25A5.24,5.24,0,0,1,69,101V89.06a1.5,1.5,0,0,1,1.5-1.5H87.86a1.5,1.5,0,0,1,1.5,1.5V101A5.24,5.24,0,0,1,84.13,106.2ZM72,90.56V101a2.24,2.24,0,0,0,2.24,2.23h9.87A2.24,2.24,0,0,0,86.36,101V90.56Z"/><path class="cls-8" d="M86,93.6a1.5,1.5,0,0,1-1.31-2.23L98,67.35a1.5,1.5,0,1,1,2.62,1.46l-13.34,24A1.5,1.5,0,0,1,86,93.6Z"/><path class="cls-8" d="M72.36,93.6A1.5,1.5,0,0,1,71,92.83l-13.34-24a1.5,1.5,0,1,1,2.62-1.46l13.34,24a1.5,1.5,0,0,1-1.31,2.23Z"/><path class="cls-8" d="M77.45,93.6A1.5,1.5,0,0,1,76,92.46L72.09,77A1.5,1.5,0,1,1,75,76.25l3.9,15.48a1.5,1.5,0,0,1-1.09,1.82A1.52,1.52,0,0,1,77.45,93.6Z"/><path class="cls-8" d="M81.13,93.6a1.52,1.52,0,0,1-.37,0,1.5,1.5,0,0,1-1.09-1.82l3.91-15.48a1.5,1.5,0,1,1,2.91.73L82.58,92.47A1.5,1.5,0,0,1,81.13,93.6Z"/><path class="cls-8" d="M71.77,272.17H42a1.5,1.5,0,0,1,0-3H71.77a1.5,1.5,0,0,1,0,3Z"/><path class="cls-8" d="M43.88,374.77a1.5,1.5,0,0,1-1.5-1.5v-2.36c0-2.88,0-5.61-1.14-6.59a1.5,1.5,0,0,1,2-2.27c2.18,1.88,2.18,5.27,2.18,8.86v2.36A1.5,1.5,0,0,1,43.88,374.77Z"/><path class="cls-8" d="M42,362.61a1.5,1.5,0,0,1-1.5-1.5V262.9a1.5,1.5,0,0,1,3,0v98.21A1.5,1.5,0,0,1,42,362.61Z"/><path class="cls-8" d="M71.77,282.28a1.5,1.5,0,0,1-1.5-1.5V269.23a1.5,1.5,0,0,1,3,0v11.55A1.5,1.5,0,0,1,71.77,282.28Z"/><path class="cls-8" d="M71.77,297a5.22,5.22,0,0,1-5.21-5.21,1.5,1.5,0,0,1,1.5-1.5h7.41a1.5,1.5,0,0,1,1.5,1.5A5.22,5.22,0,0,1,71.77,297Zm-1.62-3.71a2.2,2.2,0,0,0,3.24,0Z"/><path class="cls-8" d="M78.42,293.33H65.12a1.5,1.5,0,0,1-1.45-1.87l2.71-10.58a1.5,1.5,0,0,1,1.45-1.13h7.89a1.5,1.5,0,0,1,1.45,1.13l2.71,10.58a1.5,1.5,0,0,1-1.45,1.87Zm-11.37-3h9.44l-1.94-7.58H69Z"/><path class="cls-8" d="M46.76,388H37.22a1.5,1.5,0,0,1-1.5-1.5V370.91c0-4.47,0-9.53,5.26-10.12a9.08,9.08,0,0,1,1-.05c6.27,0,6.27,5.41,6.27,10.18V386.5A1.5,1.5,0,0,1,46.76,388Zm-8-3h6.54V370.91c0-5.73-.38-7.18-3.27-7.18a6.09,6.09,0,0,0-.67,0c-2.26.26-2.6,1.84-2.6,7.14Z"/><rect class="cls-5" x="184.99" y="209.04" width="1" height="0.13"/><rect class="cls-5" x="184.99" y="209.04" width="1" height="0.13"/><rect class="cls-9" x="147.7" y="273.61" width="54.91" height="5.68"/><path class="cls-9" d="M203.1,279.79H147.2v-6.68H203.1Zm-54.91-1H202.1v-4.68H148.2Z"/><polygon class="cls-5" points="175.15 209.04 205.65 209.04 205.65 223.23 175.15 223.23 144.65 223.23 144.65 209.04 175.15 209.04"/><path class="cls-5" d="M205.65,223.73h-61a.5.5,0,0,1-.5-.5V209a.5.5,0,0,1,.5-.5h61a.5.5,0,0,1,.5.5v14.19A.5.5,0,0,1,205.65,223.73Zm-60.51-1h60V209.54h-60Z"/><rect class="cls-9" x="147.7" y="330.3" width="54.91" height="5.68"/><path class="cls-9" d="M203.1,336.47H147.2V329.8H203.1Zm-54.91-1H202.1V330.8H148.2Z"/><polygon class="cls-5" points="168.67 223.23 147.7 223.23 147.7 273.15 168.67 273.15 202.6 273.15 202.6 223.23 168.67 223.23"/><path class="cls-5" d="M203.1,273.65H147.2V222.73H203.1Zm-54.91-1H202.1V223.73H148.2Z"/><rect class="cls-5" x="147.7" y="336.26" width="54.91" height="50.01"/><path class="cls-5" d="M202.6,386.77H147.7a.5.5,0,0,1-.5-.5v-50a.5.5,0,0,1,.5-.5H202.6a.5.5,0,0,1,.5.5v50A.5.5,0,0,1,202.6,386.77Zm-54.41-1H202.1v-49H148.2Z"/><rect class="cls-5" x="147.7" y="279.71" width="54.91" height="50.17"/><path class="cls-5" d="M203.1,330.38H147.2V279.21H203.1Zm-54.91-1H202.1V280.21H148.2Z"/><rect class="cls-9" x="147.7" y="224.59" width="55.33" height="2.84"/><path class="cls-9" d="M203.52,227.93H147.2v-3.84h56.33Zm-55.33-1h54.33v-1.84H148.2Z"/><line class="cls-10" x1="167.91" y1="233.21" x2="167.91" y2="263.08"/><line class="cls-10" x1="159.89" y1="233.21" x2="159.89" y2="263.08"/><line class="cls-10" x1="151.86" y1="233.21" x2="151.86" y2="263.08"/><line class="cls-10" x1="167.91" y1="289.97" x2="167.91" y2="319.85"/><line class="cls-10" x1="159.89" y1="289.97" x2="159.89" y2="319.85"/><line class="cls-10" x1="151.86" y1="289.97" x2="151.86" y2="319.85"/><line class="cls-10" x1="167.91" y1="346.58" x2="167.91" y2="376.45"/><line class="cls-10" x1="159.89" y1="346.58" x2="159.89" y2="376.45"/><line class="cls-10" x1="151.86" y1="346.58" x2="151.86" y2="376.45"/><rect class="cls-9" x="144.65" y="210.48" width="60.8" height="2.84" transform="translate(350.1 423.79) rotate(-180)"/><path class="cls-9" d="M206,213.81H144.15V210H206Zm-60.8-1H205V211h-59.8Z"/><rect class="cls-5" x="204.58" y="209.04" width="1" height="0.13"/><rect class="cls-5" x="204.58" y="209.04" width="1" height="0.13"/><polygon class="cls-11" points="205.35 209.04 173.32 209.04 173.32 223.23 205.35 223.23 237.38 223.23 237.38 209.04 205.35 209.04"/><path class="cls-11" d="M237.88,223.73H172.82V208.54h65.06Zm-64.06-1h63.06V209.54H173.82Z"/><rect class="cls-12" x="173.32" y="210.48" width="64.06" height="2.84"/><path class="cls-12" d="M237.88,213.82H172.82V210h65.06Zm-64.06-1h63.05V211H173.82Z"/><rect class="cls-12" x="173.28" y="330.3" width="60.98" height="5.68"/><path class="cls-12" d="M234.76,336.5l-62,0v-6.68l62,0Zm-61-1,60,0v-4.68l-60,0Z"/><rect class="cls-12" x="173.27" y="273.92" width="61" height="5.34"/><path class="cls-12" d="M234.75,279.77l-62,0v-6.31l62,0Zm-61-1,60,0v-4.37l-60,0Z"/><rect class="cls-11" x="173.28" y="336.29" width="60.98" height="49.96"/><path class="cls-11" d="M234.75,386.78l-62-.05,0-51,62,.05Zm-61-1.05,60,0,0-49-60,0Z"/><rect class="cls-11" x="173.31" y="279.72" width="60.98" height="50.16"/><path class="cls-11" d="M234.78,330.42l-62-.05,0-51.17h.5l61.48.05Zm-61-1.05,60,0,0-49.16-60,0Z"/><rect class="cls-11" x="173.3" y="223.23" width="61.01" height="49.92"/><path class="cls-11" d="M234.8,273.65h-62V222.73h62Zm-61-1h60V223.73h-60Z"/><line class="cls-13" x1="183.06" y1="233.13" x2="183.06" y2="263"/><line class="cls-13" x1="196.97" y1="233.13" x2="196.97" y2="263"/><line class="cls-13" x1="210.88" y1="233.13" x2="210.88" y2="263"/><line class="cls-13" x1="224.8" y1="233.13" x2="224.8" y2="263"/><line class="cls-13" x1="183.06" y1="289.89" x2="183.06" y2="319.77"/><line class="cls-13" x1="196.97" y1="289.89" x2="196.97" y2="319.77"/><line class="cls-13" x1="210.88" y1="289.89" x2="210.88" y2="319.77"/><line class="cls-13" x1="224.8" y1="289.89" x2="224.8" y2="319.77"/><line class="cls-13" x1="183.06" y1="346.5" x2="183.06" y2="376.37"/><line class="cls-13" x1="196.97" y1="346.5" x2="196.97" y2="376.37"/><line class="cls-13" x1="210.88" y1="346.5" x2="210.88" y2="376.37"/><line class="cls-13" x1="224.8" y1="346.5" x2="224.8" y2="376.37"/><rect class="cls-12" x="173.3" y="224.59" width="61.01" height="2.84"/><path class="cls-12" d="M234.8,227.93h-62v-3.84h62Zm-61-1h60v-1.84h-60Z"/><polygon class="cls-14" points="176.94 113.04 203.79 113.04 203.79 124.24 176.94 124.24 146.44 124.24 146.44 113.04 176.94 113.04"/><path class="cls-5" d="M203.79,125.24H146.44a1,1,0,0,1-1-1V113a1,1,0,0,1,1-1h57.35a1,1,0,0,1,1,1v11.2A1,1,0,0,1,203.79,125.24Zm-56.35-2h55.35V114H147.44Z"/><polygon class="cls-14" points="152.54 93.91 176.94 93.91 201.35 93.91 203.79 113.04 176.94 113.04 146.44 113.04 152.54 93.91"/><path class="cls-5" d="M203.79,114H146.44a1,1,0,0,1-1-1.3l6.1-19.13a1,1,0,0,1,1-.7h48.81a1,1,0,0,1,1,.87l2.44,19.13a1,1,0,0,1-1,1.13Zm-56-2h54.84l-2.18-17.13H153.27Z"/><rect class="cls-14" x="152.54" y="76.74" width="23.26" height="17.17"/><path class="cls-5" d="M175.8,94.91H152.54a1,1,0,0,1-1-1V76.74a1,1,0,0,1,1-1H175.8a1,1,0,0,1,1,1V93.91A1,1,0,0,1,175.8,94.91Zm-22.26-2H174.8V77.74H153.54Z"/><line class="cls-14" x1="167.37" y1="87.22" x2="167.37" y2="93.2"/><path class="cls-5" d="M167.37,94.2a1,1,0,0,1-1-1v-6a1,1,0,0,1,2,0v6A1,1,0,0,1,167.37,94.2Z"/><line class="cls-14" x1="162.95" y1="87.22" x2="162.95" y2="93.2"/><path class="cls-5" d="M162.95,94.2a1,1,0,0,1-1-1v-6a1,1,0,0,1,2,0v6A1,1,0,0,1,162.95,94.2Z"/><line class="cls-14" x1="158.53" y1="87.22" x2="158.53" y2="93.2"/><path class="cls-5" d="M158.53,94.2a1,1,0,0,1-1-1v-6a1,1,0,0,1,2,0v6A1,1,0,0,1,158.53,94.2Z"/><polygon class="cls-14" points="187.93 18.27 201.35 76.74 176.94 76.74 152.54 76.74 187.93 18.27"/><path class="cls-5" d="M201.35,77.74H152.54a1,1,0,0,1-.86-1.52l35.38-58.47a1,1,0,0,1,1.83.29l13.42,58.47a1,1,0,0,1-1,1.22Zm-47-2h45.78L187.5,20.9Z"/><rect class="cls-14" x="141.6" y="123.9" width="31.72" height="85.14"/><path class="cls-5" d="M173.32,210H141.6a1,1,0,0,1-1-1V123.9a1,1,0,0,1,1-1h31.72a1,1,0,0,1,1,1V209A1,1,0,0,1,173.32,210Zm-30.72-2h29.72V124.9H142.6Z"/><polygon class="cls-5" points="175.72 176.67 208.71 176.67 208.71 209.03 175.72 209.03 141.6 209.03 141.6 176.67 175.72 176.67"/><path class="cls-5" d="M208.71,209.54H141.6a.5.5,0,0,1-.5-.5V176.67a.5.5,0,0,1,.5-.5h67.11a.5.5,0,0,1,.5.5V209A.5.5,0,0,1,208.71,209.54Zm-66.61-1h66.11V177.17H142.1Z"/><path class="cls-14" d="M147.52,167.82c0,7.64,1.2,14.53,3.11,19.39,1.78,4.52,4.18,7.29,6.83,7.29s5-2.77,6.83-7.29c1.92-4.86,3.11-11.75,3.11-19.39,0-14.74-4.45-26.68-9.94-26.68S147.52,153.08,147.52,167.82Z"/><path class="cls-5" d="M157.46,195.5c-3,0-5.75-2.82-7.76-7.93s-3.18-12.22-3.18-19.76c0-15.52,4.81-27.69,10.94-27.69s10.94,12.16,10.94,27.69c0,7.53-1.13,14.55-3.18,19.76S160.45,195.5,157.46,195.5Zm0-53.37c-4.32,0-8.94,10.32-8.94,25.69,0,7.18,1.11,14.12,3,19,1.67,4.23,3.82,6.66,5.9,6.66s4.23-2.43,5.9-6.66c1.93-4.91,3-11.84,3-19C166.4,152.45,161.78,142.13,157.46,142.13Z"/><line class="cls-14" x1="151.88" y1="152.85" x2="152.49" y2="154.48"/><path class="cls-5" d="M152.49,155.48a1,1,0,0,1-.94-.65l-.61-1.63a1,1,0,0,1,1.88-.7l.61,1.63a1,1,0,0,1-.94,1.35Z"/><line class="cls-14" x1="162.43" y1="181.15" x2="163.04" y2="182.79"/><path class="cls-5" d="M163,183.79a1,1,0,0,1-.94-.65l-.61-1.63a1,1,0,0,1,1.88-.7l.61,1.63a1,1,0,0,1-.94,1.35Z"/><line class="cls-14" x1="157.46" y1="146.65" x2="157.46" y2="148.96"/><path class="cls-5" d="M157.46,150a1,1,0,0,1-1-1v-2.31a1,1,0,0,1,2,0V149A1,1,0,0,1,157.46,150Z"/><line class="cls-14" x1="157.46" y1="186.68" x2="157.46" y2="188.99"/><path class="cls-5" d="M157.46,190a1,1,0,0,1-1-1v-2.31a1,1,0,0,1,2,0V189A1,1,0,0,1,157.46,190Z"/><line class="cls-14" x1="163.04" y1="152.85" x2="162.43" y2="154.48"/><path class="cls-5" d="M162.43,155.48a1,1,0,0,1-.94-1.35l.61-1.63a1,1,0,0,1,1.88.7l-.61,1.63A1,1,0,0,1,162.43,155.48Z"/><line class="cls-14" x1="152.49" y1="181.15" x2="151.88" y2="182.79"/><path class="cls-5" d="M151.88,183.79a1,1,0,0,1-.94-1.35l.61-1.63a1,1,0,0,1,1.88.7l-.61,1.63A1,1,0,0,1,151.88,183.79Z"/><path class="cls-5" d="M165.34,168.82h-.86a1,1,0,0,1,0-2h.86a1,1,0,0,1,0,2Z"/><path class="cls-5" d="M150.43,168.82h-.86a1,1,0,0,1,0-2h.86a1,1,0,0,1,0,2Z"/><ellipse class="cls-14" cx="157.46" cy="167.82" rx="0.25" ry="0.67"/><path class="cls-5" d="M157.46,169.48c-.62,0-1.25-.52-1.25-1.67s.63-1.67,1.25-1.67,1.25.52,1.25,1.67S158.08,169.48,157.46,169.48Zm-.69-1.67a.89.89,0,1,0,.69-.33A.87.87,0,0,0,156.77,167.82Zm1.46.13h0Z"/><line class="cls-14" x1="157.46" y1="167.82" x2="157.46" y2="157.48"/><path class="cls-5" d="M157.46,168.82a1,1,0,0,1-1-1V157.48a1,1,0,0,1,2,0v10.33A1,1,0,0,1,157.46,168.82Z"/><line class="cls-14" x1="154.97" y1="167.82" x2="157.46" y2="167.82"/><path class="cls-5" d="M157.46,168.82H155a1,1,0,0,1,0-2h2.49a1,1,0,0,1,0,2Z"/><path class="cls-5" d="M157.46,195.5c-3,0-5.75-2.82-7.76-7.93A46.33,46.33,0,0,1,147.12,177a1,1,0,1,1,2-.27,44.29,44.29,0,0,0,2.46,10.07c1.67,4.23,3.82,6.66,5.9,6.66s4.23-2.43,5.9-6.66a44.1,44.1,0,0,0,2.45-10,1,1,0,0,1,2,.27,46.16,46.16,0,0,1-2.57,10.43C163.21,192.69,160.45,195.5,157.46,195.5Z"/><polygon class="cls-5" points="185.99 189.56 184.99 189.56 184.99 189.33 185.99 189.27 185.99 189.56"/><polygon class="cls-5" points="185.99 189.56 184.99 189.56 184.99 189.33 185.99 189.27 185.99 189.56"/><rect class="cls-14" x="180.68" y="78.16" width="25.55" height="17.17"/><path class="cls-5" d="M206.23,96.33H180.68a1,1,0,0,1-1-1V78.16a1,1,0,0,1,1-1h25.55a1,1,0,0,1,1,1V95.33A1,1,0,0,1,206.23,96.33Zm-24.55-2h23.55V79.16H181.68Z"/><polygon class="cls-5" points="205.58 189.56 204.58 189.56 204.58 189.33 205.58 189.27 205.58 189.56"/><polygon class="cls-5" points="205.58 189.56 204.58 189.56 204.58 189.33 205.58 189.27 205.58 189.56"/><rect class="cls-14" x="173.32" y="123.9" width="40.26" height="85.14"/><path class="cls-11" d="M213.58,209.52H173.32a.48.48,0,0,1-.48-.48V123.9a.48.48,0,0,1,.48-.48h40.26a.48.48,0,0,1,.48.48V209A.48.48,0,0,1,213.58,209.52Zm-39.78-1h39.3V124.38H173.8Z"/><polygon class="cls-14" points="202.37 113.04 173.32 113.04 173.32 124.24 202.37 124.24 235.37 124.24 235.37 113.04 202.37 113.04"/><path class="cls-11" d="M235.37,125.24H173.32a1,1,0,0,1-1-1V113a1,1,0,0,1,1-1h62.05a1,1,0,0,1,1,1v11.2A1,1,0,0,1,235.37,125.24Zm-61.05-2h60.05V114H174.32Z"/><polygon class="cls-14" points="228.77 76.74 228.77 93.91 177.49 93.91 173.32 93.91 173.32 76.74 228.77 76.74"/><path class="cls-11" d="M228.77,94.91H173.32a1,1,0,0,1-1-1V76.74a1,1,0,0,1,1-1h55.45a1,1,0,0,1,1,1V93.91A1,1,0,0,1,228.77,94.91Zm-54.45-2h53.45V77.74H174.32Z"/><line class="cls-15" x1="184.99" y1="87.23" x2="184.99" y2="93.2"/><line class="cls-15" x1="201.05" y1="87.23" x2="201.05" y2="93.2"/><line class="cls-15" x1="217.1" y1="87.23" x2="217.1" y2="93.2"/><polygon class="cls-14" points="187.93 18.27 173.32 76.74 201.05 76.74 228.77 76.74 187.93 18.27"/><path class="cls-11" d="M228.77,77.74H173.32a1,1,0,0,1-1-1.24L187,18a1,1,0,0,1,1.79-.33l40.85,58.47a1,1,0,0,1-.82,1.57Zm-54.17-2h52.25L188.36,20.65Z"/><rect class="cls-14" x="173.32" y="123.9" width="67.11" height="85.14"/><path class="cls-11" d="M240.43,210H173.32a1,1,0,0,1-1-1V123.9a1,1,0,0,1,1-1h67.11a1,1,0,0,1,1,1V209A1,1,0,0,1,240.43,210Zm-66.11-2h65.11V124.9H174.32Z"/><path class="cls-14" d="M232.86,167.82a27,27,0,0,1-8.13,19.39,25.49,25.49,0,0,1-35.7,0,27,27,0,0,1-8.13-19.39c0-14.74,11.63-26.68,26-26.68S232.86,153.08,232.86,167.82Z"/><path class="cls-5" d="M206.87,195.5a26.51,26.51,0,0,1-18.55-7.58,27.78,27.78,0,0,1-8.44-20.11c0-15.27,12.11-27.69,27-27.69s27,12.42,27,27.69a27.77,27.77,0,0,1-8.44,20.11A26.51,26.51,0,0,1,206.87,195.5Zm0-53.37c-13.78,0-25,11.52-25,25.69a25.8,25.8,0,0,0,7.83,18.67,24.49,24.49,0,0,0,34.31,0,25.8,25.8,0,0,0,7.83-18.67C231.86,153.65,220.65,142.13,206.87,142.13Z"/><path class="cls-14" d="M223.47,188.35l0,0a25.46,25.46,0,0,1-33.1,0"/><path class="cls-11" d="M206.87,195.5a26.61,26.61,0,0,1-17.18-6.33,1,1,0,1,1,1.29-1.53,24.47,24.47,0,0,0,31.81,0,1,1,0,0,1,1.42.1,1,1,0,0,1-.1,1.4l0,0A26.61,26.61,0,0,1,206.87,195.5Z"/><line class="cls-14" x1="221.45" y1="152.85" x2="219.86" y2="154.48"/><path class="cls-5" d="M219.86,155.48a1,1,0,0,1-.72-1.7l1.59-1.63a1,1,0,0,1,1.43,1.4l-1.59,1.63A1,1,0,0,1,219.86,155.48Z"/><line class="cls-14" x1="193.89" y1="181.15" x2="192.3" y2="182.79"/><path class="cls-5" d="M192.3,183.79a1,1,0,0,1-.72-1.7l1.59-1.63a1,1,0,0,1,1.43,1.4L193,183.48A1,1,0,0,1,192.3,183.79Z"/><path class="cls-5" d="M206.87,150a1,1,0,0,1-1-1v-2.31a1,1,0,0,1,2,0V149A1,1,0,0,1,206.87,150Z"/><path class="cls-5" d="M206.87,190a1,1,0,0,1-1-1v-2.31a1,1,0,0,1,2,0V189A1,1,0,0,1,206.87,190Z"/><line class="cls-14" x1="192.3" y1="152.85" x2="193.89" y2="154.48"/><path class="cls-5" d="M193.89,155.48a1,1,0,0,1-.72-.3l-1.59-1.63a1,1,0,0,1,1.43-1.4l1.59,1.63a1,1,0,0,1-.72,1.7Z"/><line class="cls-14" x1="219.86" y1="181.15" x2="221.45" y2="182.79"/><path class="cls-5" d="M221.45,183.79a1,1,0,0,1-.72-.3l-1.59-1.63a1,1,0,0,1,1.43-1.4l1.59,1.63a1,1,0,0,1-.72,1.7Z"/><line class="cls-14" x1="186.26" y1="167.82" x2="188.51" y2="167.82"/><path class="cls-5" d="M188.51,168.82h-2.25a1,1,0,0,1,0-2h2.25a1,1,0,0,1,0,2Z"/><line class="cls-14" x1="225.24" y1="167.82" x2="227.49" y2="167.82"/><path class="cls-5" d="M227.49,168.82h-2.25a1,1,0,0,1,0-2h2.25a1,1,0,0,1,0,2Z"/><ellipse class="cls-14" cx="206.87" cy="167.82" rx="0.65" ry="0.67"/><path class="cls-5" d="M206.87,169.48a1.67,1.67,0,1,1,1.65-1.67A1.66,1.66,0,0,1,206.87,169.48Zm0-2a.33.33,0,1,0,.35.33A.34.34,0,0,0,206.87,167.48Z"/><path class="cls-5" d="M206.87,168.82a1,1,0,0,1-1-1V157.48a1,1,0,0,1,2,0v10.33A1,1,0,0,1,206.87,168.82Z"/><path class="cls-5" d="M213.38,168.82h-6.51a1,1,0,0,1,0-2h6.51a1,1,0,0,1,0,2Z"/><polygon class="cls-14" points="228.79 93.91 235.37 113.04 173.32 113.04 173.32 93.91 228.79 93.91"/><path class="cls-11" d="M235.37,114H173.32a1,1,0,0,1-1-1V93.91a1,1,0,0,1,1-1h55.47a1,1,0,0,1,.95.67l6.58,19.13a1,1,0,0,1-.95,1.33Zm-61.05-2H234l-5.89-17.13H174.32Z"/><polygon class="cls-11" points="206.31 176.68 173.32 176.68 173.32 209.03 206.31 209.03 240.43 209.03 240.43 176.68 206.31 176.68"/><path class="cls-11" d="M240.43,209.54H173.32a.5.5,0,0,1-.5-.5V176.68a.5.5,0,0,1,.5-.5h67.11a.5.5,0,0,1,.5.5V209A.5.5,0,0,1,240.43,209.54Zm-66.61-1h66.11V177.18H173.82Z"/><path class="cls-14" d="M231.7,175.15A26.81,26.81,0,0,1,224.63,187a25.49,25.49,0,0,1-35.7,0A26.8,26.8,0,0,1,182,175.79"/><path class="cls-5" d="M206.78,195.26a26.51,26.51,0,0,1-18.55-7.58,27.86,27.86,0,0,1-7.14-11.59,1,1,0,0,1,1.91-.6,25.86,25.86,0,0,0,6.62,10.75,24.49,24.49,0,0,0,34.31,0,25.83,25.83,0,0,0,6.81-11.37,1,1,0,1,1,1.92.55,27.83,27.83,0,0,1-7.34,12.25A26.51,26.51,0,0,1,206.78,195.26Z"/><line class="cls-14" x1="221.45" y1="152.85" x2="219.86" y2="154.48"/><path class="cls-5" d="M219.86,155.48a1,1,0,0,1-.72-1.7l1.59-1.63a1,1,0,0,1,1.43,1.4l-1.59,1.63A1,1,0,0,1,219.86,155.48Z"/><line class="cls-14" x1="193.89" y1="181.15" x2="192.3" y2="182.79"/><path class="cls-5" d="M192.3,183.79a1,1,0,0,1-.72-1.7l1.59-1.63a1,1,0,0,1,1.43,1.4L193,183.48A1,1,0,0,1,192.3,183.79Z"/><path class="cls-5" d="M206.87,150a1,1,0,0,1-1-1v-2.31a1,1,0,0,1,2,0V149A1,1,0,0,1,206.87,150Z"/><path class="cls-5" d="M206.87,190a1,1,0,0,1-1-1v-2.31a1,1,0,0,1,2,0V189A1,1,0,0,1,206.87,190Z"/><line class="cls-14" x1="192.3" y1="152.85" x2="193.89" y2="154.48"/><path class="cls-5" d="M193.89,155.48a1,1,0,0,1-.72-.3l-1.59-1.63a1,1,0,0,1,1.43-1.4l1.59,1.63a1,1,0,0,1-.72,1.7Z"/><line class="cls-14" x1="219.86" y1="181.15" x2="221.45" y2="182.79"/><path class="cls-5" d="M221.45,183.79a1,1,0,0,1-.72-.3l-1.59-1.63a1,1,0,0,1,1.43-1.4l1.59,1.63a1,1,0,0,1-.72,1.7Z"/><line class="cls-14" x1="186.26" y1="167.82" x2="188.51" y2="167.82"/><path class="cls-5" d="M188.51,168.82h-2.25a1,1,0,0,1,0-2h2.25a1,1,0,0,1,0,2Z"/><line class="cls-14" x1="225.24" y1="167.82" x2="227.49" y2="167.82"/><path class="cls-5" d="M227.49,168.82h-2.25a1,1,0,0,1,0-2h2.25a1,1,0,0,1,0,2Z"/><path class="cls-11" d="M240.43,210H173.32a1,1,0,0,1-1-1V123.9a1,1,0,0,1,1-1h67.11a1,1,0,0,1,1,1V209A1,1,0,0,1,240.43,210Zm-66.11-2h65.11V124.9H174.32Z"/><path class="cls-11" d="M317.51,373.2h-60a1.5,1.5,0,0,1-1.5-1.5v-24a1.5,1.5,0,0,1,1.5-1.5h60a1.5,1.5,0,0,1,1.5,1.5v24A1.5,1.5,0,0,1,317.51,373.2Zm-58.46-3h57v-21h-57Z"/><path class="cls-11" d="M317.51,387a1.5,1.5,0,0,1-1.5-1.5V362a1.5,1.5,0,0,1,3,0v23.49A1.5,1.5,0,0,1,317.51,387Z"/><path class="cls-11" d="M257.55,387a1.5,1.5,0,0,1-1.5-1.5V362a1.5,1.5,0,0,1,3,0v23.49A1.5,1.5,0,0,1,257.55,387Z"/><path class="cls-11" d="M320.2,354.81H254.86a1.5,1.5,0,1,1,0-3H320.2a1.5,1.5,0,0,1,0,3Z"/><path class="cls-11" d="M320.2,359.95H254.86a1.5,1.5,0,1,1,0-3H320.2a1.5,1.5,0,0,1,0,3Z"/><path class="cls-11" d="M320.2,365.09H254.86a1.5,1.5,0,0,1,0-3H320.2a1.5,1.5,0,0,1,0,3Z"/><path class="cls-11" d="M322.54,373.2h-70a1.5,1.5,0,1,1,0-3h70a1.5,1.5,0,1,1,0,3Z"/><path class="cls-16" d="M188.43,375.6H50.88V364.51c0-9.45,4.38-15.75,10.82-17.25h0V321.35a1,1,0,0,1,1-1s83.18,0,84.56,0c1.26,2.07,13.52,26.81,13.52,26.81h24.51a3.1,3.1,0,0,1,3.1,3.1V375.6"/><path class="cls-16" d="M188.43,376.6H50.88a1,1,0,0,1-1-1V364.51c0-9.23,4.12-16,10.82-18V321.35a2,2,0,0,1,2-2c.83,0,83.18,0,84.54,0a1.06,1.06,0,0,1,.87.48c1.17,1.93,11.42,22.56,13.29,26.33h23.89a4.11,4.11,0,0,1,4.1,4.1V375.6A1,1,0,0,1,188.43,376.6Zm-136.55-2H187.43V350.26a2.1,2.1,0,0,0-2.1-2.1H160.81a1,1,0,0,1-.9-.56c-4-8-11.47-23.05-13.21-26.26-7.46,0-80.72,0-84,0l0,25.94a1,1,0,0,1-.77,1c-6.2,1.44-10,7.68-10,16.27Z"/><path class="cls-16" d="M175.85,375.6h13.59V350.26c0-1.71-1.95-3.1-4.34-3.1h-9.3Z"/><path class="cls-16" d="M189.44,376.6H175.85a1,1,0,0,1-1-1l-.05-28.45a1,1,0,0,1,1-1h9.3c3,0,5.34,1.8,5.34,4.1V375.6A1,1,0,0,1,189.44,376.6Zm-12.59-2h11.59V350.26c0-1.14-1.53-2.1-3.34-2.1H176.8Z"/><polygon class="cls-14" points="159 346.63 150.55 346.63 139.72 323.73 147.48 323.73 159 346.63"/><path class="cls-9" d="M183.54,352.83a2.24,2.24,0,0,1-2.24,2.24v-4.47A2.24,2.24,0,0,1,183.54,352.83Z"/><path class="cls-9" d="M181.3,355.16a.09.09,0,0,1-.09-.09v-4.47a.09.09,0,0,1,.09-.09,2.33,2.33,0,1,1,0,4.65Zm.09-4.47V355a2.15,2.15,0,0,0,0-4.29Z"/><path class="cls-12" d="M193.19,352.83a2.24,2.24,0,0,1-2.24,2.24v-4.47A2.24,2.24,0,0,1,193.19,352.83Z"/><path class="cls-12" d="M191,355.16a.09.09,0,0,1-.09-.09v-4.47a.09.09,0,0,1,.09-.09,2.33,2.33,0,1,1,0,4.65Zm.09-4.47V355a2.15,2.15,0,0,0,0-4.29Z"/><path class="cls-9" d="M191,350.59v4.47a2.24,2.24,0,1,1,0-4.47Z"/><path class="cls-9" d="M191,355.16a2.33,2.33,0,1,1,0-4.65.09.09,0,0,1,.09.09v4.47A.09.09,0,0,1,191,355.16Zm-.09-4.47a2.15,2.15,0,0,0,0,4.29Z"/><path class="cls-17" d="M150.73,347.15h26a3.1,3.1,0,0,1,3.1,3.1V375.6h-139V364.51c0-9.45,4.38-15.75,10.82-17.25h0V321.35a1,1,0,0,1,1-1s83.18,0,84.56,0C137.81,321.75,150.73,347.15,150.73,347.15Z"/><path class="cls-17" d="M179.78,376.6h-139a1,1,0,0,1-1-1V364.51c0-9.23,4.12-16,10.82-18V321.35a2,2,0,0,1,2-2c.83,0,83.18,0,84.54,0h0a1,1,0,0,1,.92.61c.46,1.07,8.69,17.29,13.22,26.21h25.34a4.11,4.11,0,0,1,4.1,4.1V375.6A1,1,0,0,1,179.78,376.6Zm-138-2h137V350.26a2.1,2.1,0,0,0-2.1-2.1h-26a1,1,0,0,1-.89-.55c-.49-1-11.28-22.19-13.26-26.26l-83.92,0,0,25.94a1,1,0,0,1-.77,1c-6.2,1.44-10,7.68-10,16.27Z"/><path class="cls-14" d="M53.79,345.68H79.57V322.75H56.64a2.86,2.86,0,0,0-2.85,2.87Z"/><path class="cls-18" d="M118.25,352.84h-5.13a.5.5,0,0,1,0-1h5.13a.5.5,0,0,1,0,1Z"/><path class="cls-18" d="M102,352.84H96.83a.5.5,0,1,1,0-1H102a.5.5,0,0,1,0,1Z"/><polygon class="cls-14" points="83.5 322.75 107.54 322.75 107.54 325.9 107.54 345.68 83.5 345.68 83.5 325.42 83.5 322.75"/><polygon class="cls-14" points="145.72 346.67 110.88 346.67 110.88 324.29 135.62 324.29 145.72 346.67"/><path class="cls-18" d="M107.54,371.17a.5.5,0,0,1-.5-.5V347.88a.5.5,0,0,1,1,0v22.78A.5.5,0,0,1,107.54,371.17Z"/><path class="cls-12" d="M181.3,350.59v4.47a2.24,2.24,0,1,1,0-4.47Z"/><path class="cls-12" d="M181.3,355.16a2.33,2.33,0,1,1,0-4.65.09.09,0,0,1,.09.09v4.47A.09.09,0,0,1,181.3,355.16Zm-.09-4.47a2.15,2.15,0,0,0,0,4.29Z"/><rect class="cls-19" x="181.99" y="361.81" width="4.71" height="9.47" rx="0.39" ry="0.39"/><path class="cls-19" d="M186.32,371.4h-3.93a.52.52,0,0,1-.52-.52V362.2a.52.52,0,0,1,.52-.52h3.93a.52.52,0,0,1,.52.52v8.69A.52.52,0,0,1,186.32,371.4Zm-3.93-9.47a.27.27,0,0,0-.27.27v8.69a.27.27,0,0,0,.27.27h3.93a.27.27,0,0,0,.27-.27V362.2a.27.27,0,0,0-.27-.27Z"/><path class="cls-12" d="M134.22,318.7h-8.16V315h6.22a.59.59,0,0,1,.55.47Z"/><path class="cls-12" d="M134.22,319.7h-8.17a1,1,0,0,1-1-1V315a1,1,0,0,1,1-1h6.22a1.59,1.59,0,0,1,1.49,1.12l1.37,3.13a1,1,0,0,1-.92,1.4Zm-7.17-2h5.64L132,316h-4.91Z"/><path class="cls-9" d="M126.06,318.65V315.1a.05.05,0,0,1,.05-.05h1.2l1.88,3.65h-3.08A.05.05,0,0,1,126.06,318.65Z"/><path class="cls-9" d="M130.83,319.7h-5.72l-.05-1.05V314.1l1.05-.05h1.81Zm-3.77-2h.49l-.49-1Z"/><ellipse class="cls-18" cx="60.89" cy="373.24" rx="11.27" ry="11.25"/><path class="cls-18" d="M60.89,385.5a12.25,12.25,0,1,1,12.27-12.25A12.27,12.27,0,0,1,60.89,385.5Zm0-22.51a10.25,10.25,0,1,0,10.27,10.25A10.27,10.27,0,0,0,60.89,363Z"/><ellipse class="cls-20" cx="60.89" cy="373.24" rx="6.56" ry="6.55"/><path class="cls-18" d="M60.89,380.79a7.55,7.55,0,1,1,7.56-7.55A7.56,7.56,0,0,1,60.89,380.79Zm0-13.1a5.55,5.55,0,1,0,5.56,5.55A5.56,5.56,0,0,0,60.89,367.69Z"/><ellipse class="cls-18" cx="159.32" cy="373.24" rx="11.27" ry="11.25"/><path class="cls-18" d="M159.32,385.5a12.25,12.25,0,1,1,12.27-12.25A12.27,12.27,0,0,1,159.32,385.5Zm0-22.51a10.25,10.25,0,1,0,10.27,10.25A10.27,10.27,0,0,0,159.32,363Z"/><ellipse class="cls-20" cx="159.32" cy="373.24" rx="6.41" ry="6.55"/><path class="cls-18" d="M159.32,380.79a7.55,7.55,0,1,1,7.41-7.55A7.49,7.49,0,0,1,159.32,380.79Zm0-13.1a5.55,5.55,0,1,0,5.41,5.55A5.49,5.49,0,0,0,159.32,367.69Z"/><path class="cls-8" d="M371.5,388H28.5a1.5,1.5,0,0,1,0-3h343a1.5,1.5,0,0,1,0,3Z"/><path class="cls-21" d="M278.89,178.29h-8.65a1.44,1.44,0,1,1,0-2.88h8.65a1.44,1.44,0,0,1,0,2.88Zm-17.29,0h-8.65a1.44,1.44,0,0,1,0-2.88h8.65a1.44,1.44,0,0,1,0,2.88Zm-17.29,0h-8.65a1.44,1.44,0,0,1,0-2.88h8.65a1.44,1.44,0,1,1,0,2.88Zm-17.29,0h-8.65a1.44,1.44,0,1,1,0-2.88H227a1.44,1.44,0,1,1,0,2.88Zm-17.29,0h-8.65a1.44,1.44,0,0,1,0-2.88h8.65a1.44,1.44,0,0,1,0,2.88Zm-17.29,0h-8.65a1.44,1.44,0,1,1,0-2.88h8.65a1.44,1.44,0,1,1,0,2.88Zm-17.29,0h-8.65a1.44,1.44,0,0,1,0-2.88h8.65a1.44,1.44,0,0,1,0,2.88Zm-17.29,0h-8.65a1.44,1.44,0,1,1,0-2.88h8.65a1.44,1.44,0,1,1,0,2.88Zm-17.29,0h-8.65a1.44,1.44,0,0,1,0-2.88h8.65a1.44,1.44,0,0,1,0,2.88Zm-17.29,0h-8.65a1.44,1.44,0,1,1,0-2.88h8.65a1.44,1.44,0,1,1,0,2.88Z"/></g><g id="pagamenti_carta"><g class="cls-22"><g class="cls-23"><path class="cls-24" d="M147,401a4.71,4.71,0,0,1,6.47,1.49L214,499.15a4.67,4.67,0,0,1-1.5,6.45L153.93,542a4.71,4.71,0,0,1-6.47-1.49L87,443.86a4.67,4.67,0,0,1,1.5-6.45Zm5.15-6.15L220.29,503.7l-71.15,44.21L81,439.09Z"/></g></g><path class="cls-26" d="M288.34,741.38A8.48,8.48,0,1,1,291,729.74a8.49,8.49,0,0,1-2.67,11.64"/><g class="cls-27"><polygon class="cls-12" points="-1348.95 285.2 -1475 873.54 741.92 1345.18 867.97 756.84 -1348.95 285.2"/></g><path class="cls-28" d="M297,739.39a8.5,8.5,0,0,0-4.88-3.67,8.66,8.66,0,0,0-1.21-.25l.91,1.45a8.62,8.62,0,0,1-.42,1l-1.6-2.55a8.48,8.48,0,0,0-1,.06l2.11,3.38a8.35,8.35,0,0,1-.57.78l-2.49-4a8.36,8.36,0,0,0-.89.26l2.76,4.4a8.46,8.46,0,0,1-3.93,2.15l-2.49-4a8.43,8.43,0,0,0-.57.78l2.11,3.38a8.46,8.46,0,0,1-1,.06l-1.59-2.55a8.49,8.49,0,0,0-.42,1l.91,1.45a8.52,8.52,0,0,1-1.21-.25,8.46,8.46,0,1,0,15.5-2.93"/><g class="cls-29"><polygon class="cls-30" points="-1348.95 285.2 -1475 873.54 741.92 1345.18 867.97 756.84 -1348.95 285.2"/></g></g></svg>