<svg xmlns="http://www.w3.org/2000/svg" xmlns:xlink="http://www.w3.org/1999/xlink" width="140" height="212" viewBox="0 0 140 212" version="1.1"><title>Group 3</title><desc>Created using Figma</desc><g id="Canvas" transform="translate(356 -177)"><g id="Group 3"><g id="Vector"><use xlink:href="#path0_fill" transform="translate(-350.741 191.351)" fill="#E9E3D7"/></g><g id="Vector"><use xlink:href="#path1_fill" transform="translate(-345.156 196.438)" fill="#F7FCFF"/></g><g id="Vector"><use xlink:href="#path2_fill" transform="translate(-356 184.085)" fill="#736D91"/></g><g id="Vector"><use xlink:href="#path3_fill" transform="translate(-351.285 177)" fill="#E9E3D7"/></g><g id="Vector"><use xlink:href="#path2_fill" transform="translate(-356 379.554)" fill="#BAB7CC"/></g><g id="Vector"><use xlink:href="#path4_fill" transform="translate(-347.73 194.985)" fill="#B9E6FF"/></g><g id="Vector"><use xlink:href="#path5_stroke" transform="translate(-340.477 202.978)" fill="#201849"/></g><g id="Vector"><use xlink:href="#path5_stroke" transform="translate(-340.477 210.971)" fill="#201849"/></g><g id="Vector"><use xlink:href="#path5_stroke" transform="translate(-340.477 221.144)" fill="#201849"/></g><g id="Vector"><use xlink:href="#path5_stroke" transform="translate(-340.477 229.864)" fill="#201849"/></g><g id="Vector"><use xlink:href="#path6_stroke" transform="translate(-347.73 194.985)" fill="#201849"/></g><g id="Vector"><use xlink:href="#path7_fill" transform="translate(-349 273.826)" fill="#201849"/></g><g id="Mask Group"><mask id="mask0_alpha"><g id="Vector"><use xlink:href="#path1_fill" transform="translate(-345.156 196.438)" fill="#F2EEE6"/></g></mask><g id="Group"><g id="Group"><g id="Group"><g id="Group"><g id="Group"><g id="Group"><g id="Group"><g id="Vector"><use xlink:href="#path8_fill" transform="translate(-309.265 352.522)" fill="#003C5D"/></g></g></g></g><g id="Group"><g id="Vector"><use xlink:href="#path9_fill" transform="translate(-296.237 261.361)" fill="#FFDDBA"/></g><g id="Vector"><use xlink:href="#path10_fill" transform="translate(-274.067 268.63)" fill="#201849"/></g><g id="Vector"><use xlink:href="#path11_fill" transform="translate(-280.27 269.466)" fill="#201849"/></g><g id="Vector"><use xlink:href="#path12_stroke" transform="translate(-276.86 268.63)" fill="#201849"/></g><g id="Vector"><use xlink:href="#path13_fill" transform="translate(-291.622 280.257)" fill="#FFDDBA"/></g><g id="Vector"><use xlink:href="#path14_fill" transform="translate(-318.123 291.629)" fill="#FEFAF2"/></g><g id="Vector"><use xlink:href="#path15_fill" transform="translate(-294.233 291.484)" fill="#B9E6FF"/></g><g id="Vector"><use xlink:href="#path16_fill" transform="translate(-313.395 253.347)" fill="#453F6B"/></g><g id="Vector"><use xlink:href="#path17_fill" transform="translate(-292.248 274.358)" fill="#FFDDBA"/></g><g id="Vector"><use xlink:href="#path18_fill" transform="translate(-290.643 277.786)" fill="#1B143C"/></g><g id="Vector"><use xlink:href="#path19_fill" transform="translate(-291.042 279.894)" fill="#FFB077"/></g><g id="Vector" opacity="0.11"><use xlink:href="#path20_fill" transform="translate(-284.042 281.274)" fill="#22164C"/></g><g id="Vector"><use xlink:href="#path21_stroke" transform="translate(-278.674 274.371)" fill="#201849"/></g><g id="Vector"><use xlink:href="#path22_fill" transform="translate(-283.461 290.357)" fill="#B9E6FF"/></g><g id="Group"><g id="Group"><g id="Vector"><use xlink:href="#path23_fill" transform="translate(-267.648 303.691)" fill="#FEFAF2"/></g></g></g><g id="Group"><g id="Group"><g id="Vector"><use xlink:href="#path24_fill" transform="translate(-265.437 274.88)" fill="#22164C"/></g></g></g><g id="Group"><g id="Group"><g id="Vector"><use xlink:href="#path25_fill" transform="translate(-267.586 280.581)" fill="#FFDDBA"/></g></g></g><g id="Group"><g id="Vector"><use xlink:href="#path26_fill" transform="translate(-258.425 298.314)" fill="#FEFAF2"/></g></g><g id="Vector"><use xlink:href="#path27_stroke" transform="translate(-266.886 314.991)" fill="#201849"/></g><g id="Vector"><use xlink:href="#path28_stroke" transform="translate(-256.767 298.314)" fill="#201849"/></g><g id="Vector"><use xlink:href="#path29_stroke" transform="translate(-288.031 300.022)" fill="#201849"/></g><g id="Vector"><use xlink:href="#path30_fill" transform="translate(-285.275 317.243)" fill="#FFDDBA"/></g><g id="Vector"><use xlink:href="#path30_fill" transform="translate(-285.275 328.87)" fill="#FFDDBA"/></g><g id="Vector"><use xlink:href="#path31_fill" transform="translate(-285.275 340.641)" fill="#FFDDBA"/></g></g><g id="Group"><g id="Group"><g id="Vector"><use xlink:href="#path32_fill" transform="translate(-308.705 352.958)" fill="#FFDDBA"/></g></g></g></g><g id="Vector"><use xlink:href="#path33_fill" transform="translate(-305.585 350.124)" fill="#201849"/></g><g id="Vector"><use xlink:href="#path34_fill" transform="matrix(-1 -4.48541e-11 4.46986e-11 -1 -282.534 353.031)" fill="#736D91"/></g><g id="Group"><g id="Group"><g id="Vector"><use xlink:href="#path35_fill" transform="translate(-336.41 296.384)" fill="#FEFAF2"/></g></g></g><g id="Vector"><use xlink:href="#path36_stroke" transform="translate(-323.502 317.207)" fill="#201849"/></g></g></g></g></g></g></g><defs><path id="path0_fill" d="M 130.098 0L 0 0L 0 190.382L 130.098 190.382L 130.098 0Z"/><path id="path1_fill" d="M 118.891 0L 0 0L 0 180.209L 118.891 180.209L 118.891 0Z"/><path id="path2_fill" d="M 140 0L 0 0L 0 9.44644L 140 9.44644L 140 0Z"/><path id="path3_fill" d="M 130.57 0L 0 0L 0 6.90317L 130.57 6.90317L 130.57 0Z"/><path id="path4_fill" d="M 124.041 0L 0 0L 0 41.419L 124.041 41.419L 124.041 0Z"/><path id="path5_stroke" d="M -2.76714e-07 0.5L 109.534 0.5L 109.534 -0.5L -2.76714e-07 -0.5L -2.76714e-07 0.5Z"/><path id="path6_stroke" d="M -0.500001 0L -0.500001 80.6581L 0.499999 80.6581L 0.499999 0L -0.500001 0Z"/><path id="path7_fill" d="M 1.26943 0L -2.76714e-07 7.81148L 2.53886 7.81148L 1.26943 0Z"/><path id="path8_fill" d="M 4.44127 2.21756e-06C 4.44127 2.21756e-06 0.850598 7.77515 0.125209 12.9344C -0.745257 18.9656 3.20811 69.177 3.20811 69.177L 3.35319 137.918L 12.1667 137.809L 20.7262 69.177L 22.6848 22.4171L 22.576 21.2908L 44.8454 73.4643L 43.5035 138.79L 52.8247 138.39L 60.949 70.6667L 42.7781 0.290658L 4.44127 2.21756e-06Z"/><path id="path9_fill" d="M 2.14901 5.27144C 2.14901 6.28875 3.41844 13.3009 3.16456 14.3546C -0.788809 11.775 -1.62301 20.2404 4.07129 17.8788C 4.07129 17.8788 10.9262 21.0761 16.2216 20.8581C 20.3925 20.6764 23.8019 19.1504 24.1283 14.7905C 24.3096 12.3563 23.0765 3.89081 20.32 0.00323554C 20.32 -0.0330969 6.28373 0.148565 2.14901 5.27144Z"/><path id="path10_fill" d="M 0.68912 1.38063C 1.06971 1.38063 1.37824 1.07157 1.37824 0.690319C 1.37824 0.309068 1.06971 0 0.68912 0C 0.30853 0 -2.21371e-06 0.309068 -2.21371e-06 0.690319C -2.21371e-06 1.07157 0.30853 1.38063 0.68912 1.38063Z"/><path id="path11_fill" d="M 0.689118 1.38063C 1.06971 1.38063 1.37824 1.07157 1.37824 0.690315C 1.37824 0.309063 1.06971 0 0.689118 0C 0.308528 0 0 0.309063 0 0.690315C 0 1.07157 0.308528 1.38063 0.689118 1.38063Z"/><path id="path12_stroke" d="M 1.08808 3.88757L 1.18107 4.11964L 1.36972 4.04404L 1.33424 3.84394L 1.08808 3.88757ZM 0.152802 0.043634L 0.841919 3.93121L 1.33424 3.84394L 0.645127 -0.0436362L 0.152802 0.043634ZM 0.995094 3.65551L -0.0929887 4.0915L 0.0929865 4.55563L 1.18107 4.11964L 0.995094 3.65551Z"/><path id="path13_fill" d="M 11.9326 1.3443L 13.4197 14.1333L 6.78238 32.5539L 0 14.533L 2.6114 4.43512e-06L 11.9326 1.3443Z"/><path id="path14_fill" d="M 41.6615 0C 41.6615 0 42.6045 3.48792 47.3558 3.96024C 52.1071 4.43256 59.9775 2.50694 62.9879 7.81148C 65.9983 13.116 58.5267 18.5659 58.5267 18.5659L 50.5112 59.8033L 13.5527 59.8033L 7.53193 24.5244C 7.53193 24.5244 -3.4577 12.026 1.11224 8.2838C 5.68219 4.54155 11.3765 3.1246 18.304 3.48792C 25.2677 3.85124 27.6252 0 27.6252 0C 27.6252 0 30.5268 11.6627 33.6822 15.0053C 34.2625 15.5866 34.4076 4.79588 36.1485 3.74224C 38.8325 2.03461 40.5008 0.472322 41.6615 0Z"/><path id="path15_fill" d="M 0.544043 2.21756e-06L 1.10686e-06 5.8132L 3.48186 13.9153L 7.72539 5.41354L 0.544043 2.21756e-06Z"/><path id="path16_fill" d="M 40.5608 10.5604C 40.5608 10.5604 35.5919 15.6833 25.9079 14.993L 23.9131 27.455C 23.9131 27.455 25.9079 26.2197 27.2862 29.6713C 28.6644 33.1229 29.2447 46.0209 19.8872 45.8756C 19.8872 45.8756 20.794 52.8151 13.9753 51.8341C 14.0478 51.8341 14.4105 51.1075 14.4468 51.0348C 14.6644 50.5625 14.882 50.1265 14.9909 49.6178C 15.0997 49.0002 14.9908 48.2735 14.3017 47.9465C 14.3017 47.9465 14.0116 51.6888 11.2914 52.6698C 11.3276 51.5071 11.1826 50.1628 10.6022 49.1092C 10.4934 48.8912 10.3121 48.6369 10.1307 48.4552C 9.80432 48.1645 9.36909 48.1282 8.93386 47.9829C 8.31728 47.8012 7.80951 47.3289 7.48308 46.7839C 6.57635 45.2943 6.54008 43.1143 7.91831 41.8427C 8.49862 41.334 9.29655 41.007 10.0945 40.898C 10.9649 40.789 11.8717 40.9344 12.7421 40.68C 12.9598 40.6074 13.1774 40.5347 13.3225 40.3531C 13.4675 40.1714 13.5038 39.9171 13.4313 39.6991C 13.395 39.4811 13.2499 39.2994 13.1048 39.0814C 12.5971 38.3548 11.8717 37.7371 11.1463 37.1558C 10.7836 36.8651 10.4209 36.6108 10.0582 36.3565C 9.87686 36.2112 9.62298 36.1022 9.44163 35.9568C 9.44163 35.9568 -2.96252 26.801 0.664428 23.2041C 4.29137 19.6072 12.053 20.5882 11.5815 17.7906C 11.11 14.993 12.6696 5.87353 20.8665 4.05691C 29.0634 2.24029 27.1048 -1.90162 34.2499 1.00498C 41.6852 4.20224 40.5608 10.5604 40.5608 10.5604Z"/><path id="path17_fill" d="M 3.70914 0.558441C -0.2805 -2.20283 -2.09397 6.29898 3.67286 3.90103C 3.67286 3.7557 3.74541 1.35776 3.70914 0.558441Z"/><path id="path18_fill" d="M 1.23316 2.47061C 1.91422 2.47061 2.46632 1.91754 2.46632 1.2353C 2.46632 0.55306 1.91422 -2.21756e-06 1.23316 -2.21756e-06C 0.552107 -2.21756e-06 0 0.55306 0 1.2353C 0 1.91754 0.552107 2.47061 1.23316 2.47061Z"/><path id="path19_fill" d="M 1.63213 3.26993C 2.53352 3.26993 3.26425 2.53793 3.26425 1.63497C 3.26425 0.732002 2.53352 4.43512e-06 1.63213 4.43512e-06C 0.730729 4.43512e-06 2.21371e-06 0.732002 2.21371e-06 1.63497C 2.21371e-06 2.53793 0.730729 3.26993 1.63213 3.26993Z"/><path id="path20_fill" d="M 4.31606 0.908312L -2.21371e-06 0L 5.54922 10.5001L 4.31606 0.908312Z"/><path id="path21_stroke" d="M 1.66839 1.30797C 1.61104 1.06464 1.61119 1.0646 1.61134 1.06457C 1.61138 1.06456 1.61152 1.06453 1.61161 1.06451C 1.61178 1.06447 1.61193 1.06443 1.61207 1.0644C 1.61234 1.06434 1.61254 1.06429 1.61267 1.06426C 1.61293 1.0642 1.61292 1.06421 1.61263 1.06427C 1.61205 1.06439 1.61039 1.06474 1.60772 1.06525C 1.60235 1.06627 1.59295 1.06793 1.58 1.06974C 1.554 1.07337 1.51419 1.07752 1.46428 1.07845C 1.36381 1.08031 1.22691 1.06902 1.08012 1.01755C 0.801908 0.920006 0.439207 0.661545 0.241219 -0.0656731L -0.241221 0.0656731C -0.00397587 0.937084 0.467521 1.33261 0.914694 1.48939C 1.1306 1.56509 1.3292 1.58104 1.47355 1.57836C 1.54604 1.57702 1.60598 1.57096 1.64912 1.56494C 1.67073 1.56192 1.68825 1.5589 1.70116 1.55644C 1.70763 1.55521 1.71295 1.55412 1.71706 1.55324C 1.71912 1.5528 1.72088 1.55242 1.72233 1.55209C 1.72305 1.55193 1.7237 1.55178 1.72427 1.55165C 1.72456 1.55158 1.72482 1.55152 1.72507 1.55146C 1.72519 1.55143 1.72536 1.55139 1.72542 1.55138C 1.72559 1.55134 1.72575 1.5513 1.66839 1.30797Z"/><path id="path22_fill" d="M 6.63731 0L 9.53886 5.7042L 4.09845 15.0416L 0 6.10385L 6.63731 0Z"/><path id="path23_fill" d="M 10.9534 4.43512e-06L 22.2694 39.6387C 22.2694 39.6387 21.544 43.3083 15.1969 42.291C 15.1969 42.291 9.06736 43.272 2.21371e-06 23.6524L 10.9534 4.43512e-06Z"/><path id="path24_fill" d="M 1.27104 18.0936L 8.34359 18.0936C 9.0327 18.0936 9.61301 17.5123 9.61301 16.8219L 9.61301 1.27163C 9.61301 0.581317 9.0327 -2.21756e-06 8.34359 -2.21756e-06L 1.27104 -2.21756e-06C 0.581922 -2.21756e-06 0.00161122 0.581317 0.00161122 1.27163L 0.00161122 16.8219C -0.0346582 17.5123 0.545653 18.0936 1.27104 18.0936Z"/><path id="path25_fill" d="M 12.3428 17.7331C 12.3428 17.6967 11.6536 11.1206 11.6536 11.1206L 11.5811 10.7572C 11.1096 8.86795 7.33757 5.81602 7.33757 5.81602L 2.98524 5.41636C 2.87643 5.41636 2.80389 5.34369 2.76762 5.23469C 2.73135 5.08936 2.80389 4.9077 2.94897 4.9077L 5.45156 4.36272L 0.736539 4.03573C 0.410114 3.99939 0.119957 3.70873 0.0836879 3.38174L 0.0111502 2.98208C -0.0613887 2.58242 0.228766 2.18276 0.627729 2.1101L 5.48783 1.05646L 1.82462 1.16545C 1.53447 1.16545 1.31685 0.911128 1.38939 0.6568C 1.42566 0.475138 1.57073 0.329808 1.78835 0.293476C 1.78835 0.293476 5.70545 -0.0335122 7.37385 0.00282025C 9.58628 0.0754852 10.9282 0.620474 11.9801 1.67412C 13.721 3.41807 14.664 4.94403 15.208 6.07034C 17.9645 11.7382 18.9075 18.605 18.9075 18.605L 12.3428 17.7331Z"/><path id="path26_fill" d="M 9.78297 0.762982C 9.78297 0.762982 16.2389 37.3498 13.9902 43.8896C 11.7415 50.4295 0.389185 48.8672 0.0264905 41.6733C -0.336204 34.4795 3.14566 -2.21756e-06 3.14566 -2.21756e-06L 9.78297 0.762982Z"/><path id="path27_stroke" d="M 4.27979 12.8617L 4.52537 12.9085L 4.53628 12.8513L 4.52076 12.7951L 4.27979 12.8617ZM 0.245578 35.362L 4.52537 12.9085L 4.03421 12.8149L -0.24558 35.2684L 0.245578 35.362ZM 4.52076 12.7951L 0.966355 -0.0665972L 0.48442 0.0665883L 4.03883 12.9283L 4.52076 12.7951Z"/><path id="path28_stroke" d="M 1.52331 -2.21756e-06L 1.55605 -0.247849L 1.29112 -0.282846L 1.27383 -0.0161688L 1.52331 -2.21756e-06ZM 0.249479 23.5233L 1.77279 0.0161644L 1.27383 -0.0161688L -0.249475 23.4909L 0.249479 23.5233ZM 1.49057 0.247845L 8.09161 1.11982L 8.15709 0.624128L 1.55605 -0.247849L 1.49057 0.247845Z"/><path id="path29_stroke" d="M 6.38342 11.4084L 6.63167 11.4379L 6.64516 11.3244L 6.56819 11.24L 6.38342 11.4084ZM 5.83938 15.9863L 5.59113 15.9568L 5.58938 15.9715L 5.58938 15.9863L 5.83938 15.9863ZM -2.21371e-06 2.21756e-06C -0.223687 0.11165 -0.223665 0.111694 -0.223625 0.111774C -0.223587 0.11185 -0.223528 0.111968 -0.223452 0.11212C -0.2233 0.112424 -0.223075 0.112876 -0.222776 0.113475C -0.222178 0.114672 -0.221287 0.116454 -0.220108 0.118815C -0.217749 0.123535 -0.214235 0.130565 -0.209596 0.139837C -0.200319 0.158382 -0.186545 0.185894 -0.168524 0.22183C -0.132481 0.293702 -0.0794499 0.399274 -0.0114314 0.534197C 0.124603 0.80404 0.320597 1.19131 0.560536 1.66123C 1.04037 2.60097 1.69616 3.87164 2.39973 5.19483C 3.1031 6.51765 3.85518 7.89476 4.52744 9.04676C 5.19456 10.19 5.79683 11.136 6.19865 11.5768L 6.56819 11.24C 6.20835 10.8452 5.63187 9.94731 4.95929 8.79475C 4.29184 7.65099 3.54327 6.28046 2.8412 4.96009C 2.13933 3.6401 1.48488 2.37204 1.00585 1.43385C 0.766348 0.964799 0.570745 0.578301 0.435043 0.309118C 0.367193 0.174528 0.31432 0.0692718 0.278425 -0.00230519C 0.260478 -0.0380935 0.246776 -0.0654617 0.237569 -0.0838663C 0.232965 -0.0930686 0.229485 -0.10003 0.22716 -0.104683C 0.225998 -0.107009 0.225124 -0.108758 0.224543 -0.109921C 0.224253 -0.110503 0.224035 -0.110938 0.223892 -0.111226C 0.22382 -0.11137 0.223767 -0.111475 0.223731 -0.111547C 0.223698 -0.111615 0.223682 -0.111646 -2.21371e-06 2.21756e-06ZM 6.13517 11.3789L 5.59113 15.9568L 6.08763 16.0158L 6.63167 11.4379L 6.13517 11.3789ZM 5.58938 15.9863L 5.58938 20.9638L 6.08938 20.9638L 6.08938 15.9863L 5.58938 15.9863Z"/><path id="path30_fill" d="M 0.689117 1.38063C 1.06971 1.38063 1.37824 1.07157 1.37824 0.690315C 1.37824 0.309063 1.06971 0 0.689117 0C 0.308527 0 0 0.309063 0 0.690315C 0 1.07157 0.308527 1.38063 0.689117 1.38063Z"/><path id="path31_fill" d="M 0.689117 1.38064C 1.06971 1.38064 1.37824 1.07156 1.37824 0.690313C 1.37824 0.309061 1.06971 -2.21756e-06 0.689117 -2.21756e-06C 0.308527 -2.21756e-06 0 0.309061 0 0.690313C 0 1.07156 0.308527 1.38064 0.689117 1.38064Z"/><path id="path32_fill" d="M -2.21371e-06 6.64884C 0.0362672 6.64884 6.20207 8.97412 6.20207 8.97412L 6.52849 9.15578C 8.23316 10.1004 10.2642 14.4967 10.2642 14.4967L 9.57513 18.7839C 9.57513 18.8929 9.6114 18.9656 9.68394 19.0382C 9.82902 19.1109 10.0104 19.0746 10.0466 18.9292L 11.171 16.6039L 10.3368 21.2545C 10.3005 21.5815 10.4819 21.9085 10.8083 22.0538L 11.2073 22.2355C 11.5699 22.3808 12.0052 22.2355 12.2228 21.8721L 14.4715 17.4033L 13.456 20.9275C 13.3834 21.1818 13.5648 21.4725 13.8549 21.4725C 14.0363 21.4725 14.2176 21.3635 14.2902 21.1818C 14.2902 21.1818 15.5958 17.4396 15.9585 15.841C 16.43 13.6974 16.2487 12.2441 15.487 10.9361C 14.2176 8.8288 13.0207 7.52082 12.0415 6.7215C 7.25389 2.61593 0.834196 -4.43512e-06 0.834196 -4.43512e-06L -2.21371e-06 6.64884Z"/><path id="path33_fill" d="M 39.6062 0.181662L 39.4249 2.94293L 0 2.76127L 0.362694 0"/><path id="path34_fill" d="M 5.51296 0L -2.21371e-06 0L -2.21371e-06 3.45158L 5.51296 3.45158L 5.51296 0Z"/><path id="path35_fill" d="M 0.249178 45.5656C 4.67405 31.7956 10.9849 15.8456 15.8088 8.39749C 22.8813 -2.50226 28.2492 0.331672 28.2492 0.331672L 26.3632 17.1173L 12.8709 42.2593L 39.529 60.1713L 35.8658 68.2734C 35.8658 68.2734 2.82431 51.9238 1.69996 50.9791C 0.176639 49.6348 -0.367402 47.5276 0.249178 45.5656Z"/><path id="path36_stroke" d="M -5.53428e-07 21.4362L -0.219065 21.3157L -0.329341 21.5162L -0.139296 21.6438L -5.53428e-07 21.4362ZM 26.8031 39.4207L 27.0322 39.5209L 27.1158 39.3295L 26.9424 39.2131L 26.8031 39.4207ZM 11.5685 -0.120464L -0.219065 21.3157L 0.219063 21.5566L 12.0066 0.120459L 11.5685 -0.120464ZM -0.139296 21.6438L 26.6638 39.6283L 26.9424 39.2131L 0.139295 21.2286L -0.139296 21.6438ZM 26.574 39.3206L 22.7295 48.113L 23.1876 48.3133L 27.0322 39.5209L 26.574 39.3206Z"/></defs></svg>