<svg xmlns="http://www.w3.org/2000/svg" xmlns:xlink="http://www.w3.org/1999/xlink" width="140" height="212"><g transform="translate(-719 -236)"><use xlink:href="#D" fill="#e9e3d7" x="724.259" y="250.351"/><use xlink:href="#E" fill="#f7fcff" x="729.844" y="255.438"/><use xlink:href="#F" fill="#736d91" x="719" y="243.084"/><use xlink:href="#G" fill="#e9e3d7" x="723.715" y="236"/><use xlink:href="#F" fill="#bab7cc" x="719" y="438.554"/><use xlink:href="#H" fill="#b9e6ff" x="727.269" y="253.984"/><g fill="#201849"><use xlink:href="#I" x="734.523" y="261.977"/><use xlink:href="#I" x="734.523" y="269.971"/><use xlink:href="#I" x="734.523" y="280.144"/><use xlink:href="#I" x="734.523" y="288.864"/><use xlink:href="#J" x="727.269" y="253.984"/><use xlink:href="#K" x="726" y="332.826"/></g><mask id="A"><use xlink:href="#L" fill="#f7fcff" x="730" y="258"/></mask><g><use xlink:href="#M" x="756.674" y="383.237" class="C"/><use xlink:href="#N" x="787" y="339" class="F"/><use xlink:href="#O" x="771.5" y="345.423" class="D"/><use xlink:href="#P" x="771.143" y="342.967" class="F"/><g class="G"><use xlink:href="#Q" x="773.792" y="355.405"/><use xlink:href="#R" x="780.224" y="355.632"/><use xlink:href="#S" x="775.911" y="355.782"/><use xlink:href="#T" x="778.408" y="360.789"/></g><use xlink:href="#U" x="777.323" y="342.137" class="F"/><use xlink:href="#V" x="788.7" y="355.655" class="D"/><g fill="#b9e6ff"><use xlink:href="#W" x="772" y="345.204"/><use xlink:href="#X" x="778.654" y="345.28"/></g><g fill="#fca664"><use xlink:href="#Y" transform="matrix(.007433 -1 1 .007433 772.035 345.378)"/><use xlink:href="#Z" transform="matrix(.903199 -.429202 .429198 .903201 785.537 345.225)"/></g><use xlink:href="#a" fill="#f1eee7" x="769.165" y="363.935"/><use xlink:href="#b" transform="matrix(.110163 -.993926 .993874 .110637 768.968 374.98)" fill="#ddd7ca"/><use xlink:href="#c" x="747.372" y="382.178" class="C"/><use xlink:href="#d" x="758.58" y="365.958" class="D"/><mask id="B"><use xlink:href="#c" x="747.372" y="382.178" class="C"/></mask><use xlink:href="#e" x="760" y="419" class="H B"/><use xlink:href="#e" x="746" y="430" class="H B"/><use xlink:href="#e" x="762" y="389" class="H B"/><use xlink:href="#f" x="753.358" y="382.026" class="G"/><use xlink:href="#g" x="770.152" y="429.428" class="D"/><use xlink:href="#e" x="795" y="424" class="B"/><use xlink:href="#h" x="783.857" y="384.028" class="C"/><mask id="C"><use xlink:href="#h" x="783.857" y="384.028" class="C"/></mask><use xlink:href="#e" x="819" y="391" class="E B"/><use xlink:href="#e" x="831" y="415" class="E B"/><use xlink:href="#e" x="793" y="433" class="E B"/><use xlink:href="#e" x="805" y="425" class="E B"/><use xlink:href="#i" x="783.706" y="394.085" class="G"/></g><g class="B"><use xlink:href="#e" x="769" y="397"/><use xlink:href="#e" x="794" y="400"/><use xlink:href="#e" x="818" y="403"/><use xlink:href="#e" x="806" y="386"/><use xlink:href="#e" x="782" y="386"/><use xlink:href="#e" x="782" y="408"/><use xlink:href="#e" x="779" y="422"/><use xlink:href="#e" x="822" y="427"/><use xlink:href="#e" x="766" y="429"/><use xlink:href="#e" x="805" y="411"/><use xlink:href="#e" x="765" y="411"/><use xlink:href="#e" x="753" y="406"/></g></g><defs><path id="D" d="M130.098 0H0v190.382h130.098V0z"/><path id="E" d="M118.89 0H0v180.21h118.89V0z"/><path id="F" d="M140 0H0v9.446h140V0z"/><path id="G" d="M130.57 0H0v6.903h130.57V0z"/><path id="H" d="M124.04 0H0v41.42h124.04V0z"/><path id="I" d="M0 .547h109.534V-.547H0V.547z"/><path id="J" d="M-.547 0v80.658H.547V0H-.547z"/><path id="K" d="M1.27 0L0 7.81h2.54L1.27 0z"/><path id="L" d="M119 0H0v178h119V0z"/><path id="M" d="M4.403 4.932A12.36 12.36 0 0 1 14.544.002l32.618.455c3.48.076 6.735 1.972 8.476 5.006l4.688 14.8-6.428 34.12 8.93 26.1H5.387L9.17 56.506.695 23.362C-.97 16.99.392 10.24 4.403 4.932z"/><path id="N" d="M16.8 4.574C10.768-3.152.58.35 0 4.574c1.737 8.65 1.042 26.315 5.21 30.177 5.21 4.828 6.368 4.225 11.58 4.225 4.168 0 5.21-5.633 5.21-8.45-.965.402-3 2.474-5.2-1.207s7.526-15.09 0-24.745z"/><path id="O" d="M20.984 25.378c-.378-8.04-.15-20.023-.15-20.478C16.217-2.457 3.654.653 3.654.653.324 4.672 1.156 11.802 1.686 14.38 2.352 17.784 3 20.98 8.043 20.98v6.067c0 4.02-2.12 7.736-5.6 9.708L0 38.077l32.5.5-5.083-2.96c-3.33-1.896-6.28-6.37-6.433-10.24z"/><path id="P" d="M0 8.722s6.857 2.5 11.357-3.19S7.898 2.81 8.476 0C8.476.076 2.043 2.427 0 8.722z"/><path id="Q" d="M.68 1.365a.68.68 0 0 0 .681-.683A.68.68 0 0 0 .681 0 .68.68 0 0 0 0 .683a.68.68 0 0 0 .681.683z"/><path id="R" d="M.68 1.365a.68.68 0 0 0 .681-.683A.68.68 0 0 0 .681 0 .68.68 0 0 0 0 .683a.68.68 0 0 0 .681.683z"/><path id="S" d="M1.59 4.096L.15 3.868 0 3.716.53 0l.303.076-.454 3.49 1.287.152-.076.38z"/><path id="T" d="M0 2.048v-.38C.984 1.593 1.816.834 2.12 0l.378.076C2.043 1.138 1.06 1.972 0 2.048z"/><path id="U" d="M.025 2.27c-.378.38 3.48 13.88 12.487 14.562l2.573-1.213c.227-.152-.076.228 0 0 .53-1.744 3.48-8.19-3.33-13.88 0 0-6.433-4.247-11.73.53z"/><path id="V" d="M4.693 1.57c-.076-.228-.15-.455-.303-.683-.984-1.365-2.497-.986-3.33 0S-.454 3.92.38 5.06c.757.986 2.12.683 2.95-.076C4.4 4.15 5.07 2.935 4.693 1.57z"/><path id="W" d="M.003 0c-.076 1.593 1.135 3.49 2.65 3.792.303.076.68.076.984 0 .378-.076.757-.38 1.06-.683.605-.683.984-1.972 1.06-2.882L.003 0z"/><path id="X" d="M7.123 0c-.076 1.593-1.74 3.49-3.708 3.792a3.25 3.25 0 0 1-1.211 0c-.53-.152-.908-.38-1.21-.758C.312 2.275-.066 1.062.01.076L7.123 0z"/><path id="Y" d="M.378 0H0v13.774h.378V0z"/><path id="Z" d="M.29 0L0 .164.073 11.41l.452.215L.29 0z"/><path id="a" d="M4.778.04C2.734-.187.994.57.842 1.71L.01 9.066c-.15 1.138 1.438 2.2 3.48 2.427s3.784-.53 3.935-1.67l.832-7.357C8.4 1.33 6.82.268 4.778.04z"/><path id="b" d="M2.048 7.417c1.13 0 2.048-1.66 2.048-3.708S3.18 0 2.048 0 0 1.66 0 3.708.917 7.417 2.048 7.417z"/><path id="c" d="M11.284.076S-1.128 41.032.083 48.388s13.168 7.13 14.53-.682S17.565 0 17.565 0h-6.28v.076z"/><path id="d" d="M6.433 16.296l1.438-6.143.15-.303c.68-1.744 4.616-4.17 4.616-4.17l4.162.152c.076 0 .15-.076.227-.152.076-.152 0-.303-.15-.38l-2.346-.834 4.54.228a.73.73 0 0 0 .681-.531l.076-.38c.076-.38-.076-.758-.454-.9L14.91 1.28l3.406.53c.227.076.53-.152.454-.455 0-.152-.15-.303-.303-.38l-5.222-.9c-2.12-.228-3.48.152-4.54.986-1.816 1.44-2.95 2.73-3.633 3.792C1.74 9.85 0 16.296 0 16.296h6.433z"/><path id="e" d="M4 2a2 2 0 1 1-4 0 2 2 0 1 1 4 0z"/><path id="f" d="M1.362 53.925c-.454 0-.908 0-1.362-.076l.076-.38c2.497.303 4.465-.227 5.98-1.365 1.59-1.29 2.573-3.565 2.876-6.598C9.384 40.35 11.428 3.413 11.58.38H5.45V0h6.357l.15.152c0 .38-2.195 39.97-2.65 45.28-.303 3.1-1.287 5.46-3.027 6.826-1.362 1.138-2.95 1.67-4.92 1.67z"/><path id="g" d="M16.353 0L9.088 1.29c-1.968.455-8.854 4.4-8.854 4.4s-.757.758.454 1.062 14.228-.455 14.228-.455L16.353 0z"/><path id="h" d="M55.548 46.158C51.3 32.886 41.472 15.897 36.856 8.767 30.045-1.7 18.844.12 18.844.12L39.58 39.863 1.59 44.717 0 51.77l50.175.683c1.362.228 2.8-.152 3.86-1.062 1.59-1.29 2.12-3.413 1.514-5.233z"/><path id="i" d="M.378 41.714L0 41.638l1.59-7.053.15-.152L39.43 29.58 24.066.152 24.37 0c.378.758 15.44 29.655 15.44 29.655l-.076.303-37.84 4.854-1.514 6.902z"/></defs></svg>