<svg xmlns="http://www.w3.org/2000/svg" xmlns:xlink="http://www.w3.org/1999/xlink" width="140" height="212"><g transform="translate(-134 -349)"><use xlink:href="#B" fill="#e9e3d7" x="139.259" y="363.351"/><use xlink:href="#C" fill="#f7fcff" x="144.845" y="368.438"/><use xlink:href="#D" fill="#736d91" x="134" y="356.085"/><use xlink:href="#E" fill="#e9e3d7" x="138.715" y="349"/><g fill="#bab7cc"><use xlink:href="#D" x="134" y="551.554"/><use xlink:href="#F" x="142.269" y="366.985"/></g><g fill="#201849"><use xlink:href="#G" x="149.523" y="374.978"/><use xlink:href="#G" x="149.523" y="382.971"/><use xlink:href="#G" x="149.523" y="393.144"/><use xlink:href="#H" x="149.523" y="401.355"/></g><mask id="A"><use xlink:href="#I" transform="matrix(-1 0 0 1 264 368)" fill="#f7fcff"/></mask><g><use xlink:href="#J" transform="matrix(-1 0 0 1 245.855 531.171)" fill="#2eb5ff"/></g><use xlink:href="#K" transform="matrix(-1 0 0 1 230.418 442.736)" fill="#201849"/><use xlink:href="#L" transform="matrix(-1 0 0 1 229.823 447.17)" fill="#bab7cc"/><use xlink:href="#M" transform="matrix(-1 0 0 1 241.503 450.981)" fill="#003c5d"/><use xlink:href="#N" transform="matrix(-1 0 0 1 209.853 422.068)" fill="#ffddba"/><use xlink:href="#O" transform="matrix(-1 0 0 1 213.615 415.452)" fill="#fca664"/><g fill="#22164c"><use xlink:href="#P" transform="matrix(-1 0 0 1 210.746 431.402)"/><use xlink:href="#Q" transform="matrix(-1 0 0 1 205.305 430.784)"/><use xlink:href="#R" transform="matrix(-1 0 0 1 204.979 441.648)" opacity=".008"/></g><g fill="#ffddba"><use xlink:href="#S" transform="matrix(-1 0 0 1 194.968 430.941)"/><use xlink:href="#T" transform="matrix(-1 0 0 1 250.69 446.689)"/></g><g fill="#fff"><use xlink:href="#U" transform="matrix(-1 0 0 1 230.839 507.446)"/><use xlink:href="#V" transform="matrix(-1 0 0 1 231.02 507.228)"/><use xlink:href="#W" transform="matrix(-1 0 0 1 231.019 505.303)"/></g><use xlink:href="#X" transform="matrix(-1 0 0 1 231.165 505.157)" fill="#22164c"/><use xlink:href="#Y" transform="matrix(-1 0 0 1 229.497 512.278)" fill="#ffb077"/><g fill="#ffddba"><use xlink:href="#Z" transform="matrix(-1 0 0 1 232.62 486.228)"/><use xlink:href="#a" transform="matrix(-1 0 0 1 220.942 514.021)"/></g><g fill="#22164c"><use xlink:href="#b" transform="matrix(-1 0 0 1 237.041 456.508)"/><use xlink:href="#c" transform="matrix(-1 0 0 1 208.025 432.565)"/><use xlink:href="#d" transform="matrix(-1 0 0 1 208.025 437.651)"/></g><g fill="#201849"><use xlink:href="#e" x="142.451" y="367.53"/><use xlink:href="#f" x="141.181" y="446.371"/></g></g><defs><path id="B" d="M130.098 0H0v190.382h130.098V0z"/><path id="C" d="M118.89 0H0v180.21h118.89V0z"/><path id="D" d="M140 0H0v9.446h140V0z"/><path id="E" d="M130.57 0H0v6.903h130.57V0z"/><path id="F" d="M124.04 0H0v41.42h124.04V0z"/><path id="G" d="M0 .547h109.534V-.547H0V.547z"/><path id="H" d="M.005 1.564L109.54.547l-.01-1.094L-.005.47l.01 1.094z"/><path id="I" d="M126 0H0v181h126V0z"/><path id="J" d="M71.995.036s3.083 8.175 4 13.843c1.052 6.65-4.39 61.838-4.39 61.838l.4 75.717h-17.59L48.82 75.717l-1.45-52.646-23.394 56.06 1.16 71.866-18.86.436L0 77.388 20.456 0h51.54v.036z"/><path id="K" d="M.05.62l.98 6.903c.11.29.435.545.762.618l9.43 2.543c.544.182.87-.145.69-.58l-1.233-6.395c-.11-.29-.435-.545-.762-.618L.74.038C.195-.108-.13.183.05.62z"/><path id="L" d="M0 0l.254 1.708 10.808 2.76-.326-1.67L0 0z"/><path id="M" d="M.001 28.816c-.073.145 3.953-9.92 8.995-16.132C16.14 3.892 29.633 2.51 29.633 2.51s0 .036.036.036C39.462-.214 48.493.004 48.493.004l11.534 2.834 1.668.4c5.223 1.344 15.922 3.488 18.787 8.102 7.145 11.554 4.606 23.834 4.606 23.834H69.566l-1.415 20.89L70 81.062l-28.254 5.34c-6.928 1.308-14 1.417-20.928.327l-7.363-1.163s1.306-29.43 3.808-52.79L.001 28.816z"/><path id="N" d="M4.8 30.443l1.088-8.61s-1.378-.545-3.12-.872C-1.618 20.052.522 5.192.522 5.192S3.06-1.13 10.06.178c6.964 1.308 12.114 12.57 11.68 16.277-.3 2.507 1.45 14.46 1.45 14.46l-16.54 6.83-1.85-7.303z"/><path id="O" d="M6.352 11.3l6.42-1.417C18.067 16.786 25.466 23 25.466 23s2.25-7.158.3-12.716c-2.32-6.685-13.53-5.922-13.53-5.922s-4.316.908-7.072 1.163c-.87.073-2.83.98-2.466 2.144.326 1.1 2.61 1.017 3.482 1.054a16.7 16.7 0 0 0 8.378-1.78c1.306-.654 2.54-1.526 3.953-1.89-.762-1.962-2.938-3.016-5.04-3.16-.907-.073-1.777 0-2.684-.182-.87-.182-1.74-.7-2.067-1.526-.653.29-1.016 1.1-.834 1.78-1.27.145-2.61-.618-3.192-1.78-.58.4-.87 1.163-.69 1.853-.544-.073-1.124-.182-1.56-.545S1.782.436 2.144 0C.73 1.344-.068 3.343.005 5.305.04 7.775 3.74 11.88 6.352 11.3z"/><path id="P" d="M.69 1.38a.69.69 0 0 0 .689-.69A.69.69 0 0 0 .689 0 .69.69 0 0 0 0 .69a.69.69 0 0 0 .689.69z"/><path id="Q" d="M.69 1.38a.69.69 0 0 0 .689-.69A.69.69 0 0 0 .689 0 .69.69 0 0 0 0 .69a.69.69 0 0 0 .689.69z"/><path id="R" d="M7.073 0S4.97 9.664 0 10.79l.98-8.61 1.233-.145c1.16-.11 2.32-.51 3.373-1.126L7.073 0z"/><path id="S" d="M0 1.66S1.56-.375 3.554.06 2.54 4.348 2.54 4.348L0 1.66z"/><path id="T" d="M15.572 13.016c.145-1.163.98-7.157 1.995-9.192.617-1.235 1.668-2.107 3.59-2.834 1.45-.51 3.917-.98 3.917-.98.18-.036.363.036.435.182.11.218 0 .51-.254.58l-2.176.58L27.105 1c.363-.036.725.218.798.618l.073.4a.73.73 0 0 1-.399.763L24.06 4.333l2.394-.254c.145-.036.3.11.254.254 0 .073-.036.182-.145.218l-3.7 1.635-.073.472c-.18 1.272-.834 2.434-1.813 3.234l-3.228 25.25 8.632 1.998S21.41 68.787 4.945 61.92C-9.2 55.998 11.038 20.138 15.572 13.016z"/><path id="U" d="M0 0l.87 18.71c.036.8.725 1.453 1.523 1.453H9.43c.798 0 1.487-.654 1.523-1.453L11.824 0H0z"/><path id="V" d="M11.39 6.685L12.005 0H0l.617 6.65c.3 3.088 3.047 5.414 6.13 4.978.073 0 .145-.036.218-.036 2.394-.4 4.207-2.47 4.425-4.905z"/><path id="W" d="M6.02 3.85c3.325 0 6.02-.862 6.02-1.926S9.346 0 6.02 0 0 .862 0 1.926 2.696 3.85 6.02 3.85z"/><path id="X" d="M6.166 4.142C3.12 4.142 0 3.38 0 2.07S3.12 0 6.166 0s6.166.763 6.166 2.07c-.036 1.308-3.155 2.07-6.166 2.07zm0-3.815c-3.518 0-5.84.908-5.84 1.744s2.358 1.744 5.84 1.744c3.518 0 5.84-.908 5.84-1.744S9.648.327 6.166.327z"/><path id="Y" d="M9.067 2.29C9.067.908 7.036 0 4.534 0S0 .908 0 2.29l.036 5.377.036 2.907c.363 3.887 1.813 3.996 4.39 4.033l.762-.036c2.067-.182 3.446.436 3.627-3.524l.145-6.25c.073-.036.073-2.47.073-2.507z"/><path id="Z" d="M3.63 38.512h8.487c1.922.254 3.663.036 5.332-.254l.58-.11 3.482.11c1.56.218 23.757.436 34.927 1.78C70.076 41.637 76.206 0 76.206 0H60.682l-8.27 26.16-31.953 5.922-4.824-1.126-13.42-.036c-.3 0-.544.29-.544.58a.55.55 0 0 0 .471.545l6.13.98H.62a.67.67 0 0 0-.617.763c.036.327.363.58.69.58l7.58.472-7.073.472c-.254.036-.472.218-.508.472-.036.327.218.654.544.654l7.036.4-4.642.545c-.363 0-.653.327-.58.7.11.254.326.436.58.436z"/><path id="a" d="M5.807 3.707L.476.001C.077.074-.177.292.15.91s2.756 2.834 2.756 2.834l2.902-.036z"/><path id="b" d="M.326 39.094C4.788 29.974 7.544.363 7.544.036L7.18 0C7.145.29 4.425 29.865 0 38.912l.326.182z"/><path id="c" d="M0 2.543l-.25-.018-.017.232.23.033L0 2.543zm-.068-2.56l-.18 2.543.5.036L.43.018l-.5-.036zm.033 2.81l1.27.182.07-.495-1.27-.182-.07.495z"/><path id="d" d="M0 0l-.124.217.018.01.046.025.166.082a4.67 4.67 0 0 0 .566.222c.445.14 1.06.254 1.596.04L2.083.13C1.713.28 1.24.21.823.08a4.17 4.17 0 0 1-.505-.198L.173-.19.135-.21C.124-.217.124-.217 0 0z"/><path id="e" d="M-.547 0v80.658H.547V0H-.547z"/><path id="f" d="M1.27 0L0 7.81h2.54L1.27 0z"/></defs></svg>