<svg xmlns="http://www.w3.org/2000/svg" width="58" height="13" fill-rule="evenodd"><path d="M.916 2.44L2.37 9.676c.09.29.034.67.3.863.497.08 1.007.06 1.508.026.273.01.338-.318.388-.527L5.63 4.895a1.56 1.56 0 0 1 .149-.456l1.17 5.547c.054.196.065.44.256.56.543.066 1.1.072 1.64-.004.195-.117.205-.358.254-.557L10.6 2.44H9.166L8.06 9.01l-1.2-5.61c-.094-.32-.05-.784-.395-.945a9.98 9.98 0 0 0-1.264 0c-.24.02-.293.307-.34.498L3.708 8.5a3.4 3.4 0 0 1-.159.499L2.476 2.44c-.52-.001-1.04.001-1.56-.001zm-.84 9.98h11.397V.582H.077v11.836z" fill="#bab7cc"/><path d="M14.365 2.362v1.454l1.947.001v5.367c-.65 0-1.298-.003-1.947.001l.001 1.454h5.505l.003-1.452-1.948-.003V3.817l1.947-.001-.001-1.454c-1.835-.004-3.67-.004-5.506 0zm-2.89 10.057h11.3V.582h-11.3v11.836z" fill="#fff"/><path d="M25.34 2.44v8.118h1.58V7.384l2.57.001c.312-.03.685.196.677.546l.168 2.63h1.503c-.142-.993.033-2.02-.243-2.992-.142-.5-.696-.624-1.128-.75.32-.173.733-.19.966-.507.338-.436.362-1.018.364-1.55-.006-.62.01-1.303-.38-1.825-.3-.433-.89-.497-1.375-.497-1.566-.001-3.134 0-4.7 0zm-2.575 9.977H34.16V.582H22.764v11.836z" fill="#bab7cc"/><path d="M36.198 2.363l-.003 1.448 1.086.004v5.37c-.362-.003-.723-.003-1.085.001l.001 1.45h6.85l.004-2.87a72.94 72.94 0 0 0-1.487.001v1.416c-.903.001-1.806-.006-2.7.004l-.007-2.128h2.13V5.68h-2.13l.001-1.862h2.64l-.001 1.24h1.46l-.001-2.693a1052.19 1052.19 0 0 0-6.75 0zM34.16 12.418h11.326V.582H34.16v11.836z" fill="#fff"/><path d="M48.062 2.44v8.118l3.982-.004c.818-.016 1.77-.17 2.264-.915.575-.935.5-2.08.6-3.135-.102-1.057-.01-2.206-.6-3.144-.46-.697-1.336-.88-2.108-.9l-4.138-.01zm-2.575 9.977h11.54V.582h-11.54v11.836zM14.365 2.362h5.506l.001 1.454-1.947.001v5.367l1.948.003-.003 1.452h-5.505l-.001-1.454 1.947-.001V3.817c-.65 0-1.298.003-1.947-.001V2.362m21.834.001h6.75l.001 2.693h-1.46l.001-1.24h-2.64v1.862h2.13v1.38h-2.13l.007 2.128 2.7-.004V7.768l1.487-.001-.004 2.87h-6.85l-.001-1.45 1.085-.001v-5.37a38.94 38.94 0 0 1-1.086-.004l.003-1.448" fill="#bab7cc"/><path d="M.916 2.44h1.56L3.55 9a3.4 3.4 0 0 0 .159-.499l1.15-5.55c.047-.2.1-.478.34-.498a9.98 9.98 0 0 1 1.264 0c.344.162.3.626.395.945l1.2 5.6 1.107-6.57H10.6L9.1 9.983c-.05.2-.06.44-.254.557-.54.077-1.098.07-1.64.004-.2-.12-.202-.362-.256-.56L5.78 4.44a1.56 1.56 0 0 0-.149.456L4.576 10.04c-.05.2-.115.536-.388.527-.5.035-1 .055-1.508-.026-.276-.193-.22-.574-.3-.863L.916 2.44m26.002 1.335v2.35l2.835-.02c.507-.03.514-.65.534-1.036-.016-.426.062-.992-.328-1.273l-3.04-.022M25.34 2.44h4.7c.486 0 1.065.064 1.375.497.388.52.374 1.204.38 1.825-.001.53-.026 1.113-.364 1.55-.233.318-.645.333-.966.507.432.127.986.24 1.128.75.276.973.1 2 .243 2.992h-1.503l-.168-2.63c.007-.35-.365-.576-.677-.546-.856-.006-1.713.001-2.57-.001v3.176h-1.58V2.44M49.64 3.775v5.45l2.426.001c.388.007.858-.097 1.04-.5.27-.608.205-1.292.227-1.94-.03-.8.084-1.657-.185-2.437-.12-.398-.557-.587-.94-.583-.856-.01-1.713.001-2.57-.003m-1.58-1.334l4.138.01c.77.03 1.65.212 2.108.9.578.938.487 2.087.6 3.144-.1 1.055-.014 2.2-.6 3.135-.493.745-1.446.9-2.264.915l-3.982.004V2.44" fill="#fff"/><path d="M26.918 3.775l3.04.022c.4.28.312.847.328 1.273-.02.387-.027 1.006-.534 1.036l-2.835.02v-2.35zm22.722 0l2.57.003c.382-.004.818.185.94.583.268.78.155 1.625.185 2.437-.023.648.044 1.332-.227 1.94-.182.393-.652.497-1.04.5-.8 0-1.618-.003-2.426-.001v-5.45z" fill="#bab7cc"/></svg>